<?xml version="1.0" encoding="UTF-8" standalone="no"?>
<!DOCTYPE svg PUBLIC "-//W3C//DTD SVG 1.1//EN"
 "http://www.w3.org/Graphics/SVG/1.1/DTD/svg11.dtd">
<!-- Generated by graphviz version 2.26.3 (20100126.1600)
 -->
<!-- Title: interface~~json_create_logical~~CallsGraph Pages: 1 -->
<svg width="641pt" height="140pt"
 viewBox="0.00 0.00 641.00 140.38" xmlns="http://www.w3.org/2000/svg" xmlns:xlink="http://www.w3.org/1999/xlink">
<g id="graph1" class="graph" transform="scale(0.845646 0.845646) rotate(0) translate(4 162)">
<title>interface~~json_create_logical~~CallsGraph</title>
<polygon fill="white" stroke="white" points="-4,5 -4,-162 755,-162 755,5 -4,5"/>
<!-- interface~json_create_logical -->
<g id="node1" class="node"><title>interface~json_create_logical</title>
<polygon fill="none" stroke="black" points="104,-93 3.55271e-14,-93 0,-67 104,-67 104,-93"/>
<text text-anchor="middle" x="52" y="-77.55" font-family="Helvetica,sans-Serif" font-size="10.50">json_create_logical</text>
</g>
<!-- proc~json_value_create_logical -->
<g id="node2" class="node"><title>proc~json_value_create_logical</title>
<a xlink:href="../proc/json_value_create_logical.html" xlink:title="json_value_create_logical">
<polygon fill="#d9534f" stroke="#d9534f" points="478,-114 342,-114 342,-88 478,-88 478,-114"/>
<text text-anchor="middle" x="410" y="-98.55" font-family="Helvetica,sans-Serif" font-size="10.50" fill="white">json_value_create_logical</text>
</a>
</g>
<!-- interface~json_create_logical&#45;&gt;proc~json_value_create_logical -->
<g id="edge16" class="edge"><title>interface~json_create_logical&#45;&gt;proc~json_value_create_logical</title>
<path fill="none" stroke="black" stroke-dasharray="5,2" d="M104.056,-83.0536C163.821,-86.5593 262.482,-92.3467 331.563,-96.399"/>
<polygon fill="black" stroke="black" points="331.771,-99.9171 341.959,-97.0088 332.181,-92.9291 331.771,-99.9171"/>
</g>
<!-- proc~wrap_json_value_create_logical -->
<g id="node3" class="node"><title>proc~wrap_json_value_create_logical</title>
<a xlink:href="../proc/wrap_json_value_create_logical.html" xlink:title="wrap_json_value_create_logical">
<polygon fill="#d9534f" stroke="#d9534f" points="305,-73 141,-73 141,-47 305,-47 305,-73"/>
<text text-anchor="middle" x="223" y="-57.55" font-family="Helvetica,sans-Serif" font-size="10.50" fill="white">wrap_json_value_create_logical</text>
</a>
</g>
<!-- interface~json_create_logical&#45;&gt;proc~wrap_json_value_create_logical -->
<g id="edge18" class="edge"><title>interface~json_create_logical&#45;&gt;proc~wrap_json_value_create_logical</title>
<path fill="none" stroke="black" stroke-dasharray="5,2" d="M104.235,-73.8907C112.513,-72.9225 121.284,-71.8966 130.161,-70.8584"/>
<polygon fill="black" stroke="black" points="130.682,-74.3213 140.208,-69.6833 129.869,-67.3687 130.682,-74.3213"/>
</g>
<!-- proc~json_value_create -->
<g id="node4" class="node"><title>proc~json_value_create</title>
<a xlink:href="../proc/json_value_create.html" xlink:title="json_value_create">
<polygon fill="#d9534f" stroke="#d9534f" points="614,-158 514,-158 514,-132 614,-132 614,-158"/>
<text text-anchor="middle" x="564" y="-142.55" font-family="Helvetica,sans-Serif" font-size="10.50" fill="white">json_value_create</text>
</a>
</g>
<!-- proc~json_value_create_logical&#45;&gt;proc~json_value_create -->
<g id="edge4" class="edge"><title>proc~json_value_create_logical&#45;&gt;proc~json_value_create</title>
<path fill="none" stroke="black" d="M455.788,-114.082C472.316,-118.805 491.153,-124.187 508.427,-129.122"/>
<polygon fill="black" stroke="black" points="507.812,-132.586 518.388,-131.968 509.735,-125.855 507.812,-132.586"/>
</g>
<!-- proc~to_logical -->
<g id="node5" class="node"><title>proc~to_logical</title>
<a xlink:href="../proc/to_logical.html" xlink:title="to_logical">
<polygon fill="#d9534f" stroke="#d9534f" points="593,-114 535,-114 535,-88 593,-88 593,-114"/>
<text text-anchor="middle" x="564" y="-98.55" font-family="Helvetica,sans-Serif" font-size="10.50" fill="white">to_logical</text>
</a>
</g>
<!-- proc~json_value_create_logical&#45;&gt;proc~to_logical -->
<g id="edge6" class="edge"><title>proc~json_value_create_logical&#45;&gt;proc~to_logical</title>
<path fill="none" stroke="black" d="M478.443,-101C494.191,-101 510.422,-101 524.457,-101"/>
<polygon fill="black" stroke="black" points="524.718,-104.5 534.718,-101 524.718,-97.5001 524.718,-104.5"/>
</g>
<!-- proc~wrap_json_value_create_logical&#45;&gt;proc~json_value_create_logical -->
<g id="edge12" class="edge"><title>proc~wrap_json_value_create_logical&#45;&gt;proc~json_value_create_logical</title>
<path fill="none" stroke="black" d="M282.425,-73.029C300.912,-77.0824 321.459,-81.5872 340.566,-85.7766"/>
<polygon fill="black" stroke="black" points="339.891,-89.2116 350.409,-87.9346 341.39,-82.374 339.891,-89.2116"/>
</g>
<!-- interface~to_unicode -->
<g id="node10" class="node"><title>interface~to_unicode</title>
<a xlink:href="../interface/to_unicode.html" xlink:title="to_unicode">
<polygon fill="#a7506f" stroke="#a7506f" points="442,-70 378,-70 378,-44 442,-44 442,-70"/>
<text text-anchor="middle" x="410" y="-54.55" font-family="Helvetica,sans-Serif" font-size="10.50" fill="white">to_unicode</text>
</a>
</g>
<!-- proc~wrap_json_value_create_logical&#45;&gt;interface~to_unicode -->
<g id="edge14" class="edge"><title>proc~wrap_json_value_create_logical&#45;&gt;interface~to_unicode</title>
<path fill="none" stroke="black" d="M305.565,-58.6754C326.93,-58.3327 349.067,-57.9775 367.431,-57.6829"/>
<polygon fill="black" stroke="black" points="367.551,-61.1815 377.494,-57.5215 367.439,-54.1824 367.551,-61.1815"/>
</g>
<!-- proc~destroy_json_data -->
<g id="node6" class="node"><title>proc~destroy_json_data</title>
<a xlink:href="../proc/destroy_json_data.html" xlink:title="destroy_json_data">
<polygon fill="#d9534f" stroke="#d9534f" points="750,-114 650,-114 650,-88 750,-88 750,-114"/>
<text text-anchor="middle" x="700" y="-98.55" font-family="Helvetica,sans-Serif" font-size="10.50" fill="white">destroy_json_data</text>
</a>
</g>
<!-- proc~to_logical&#45;&gt;proc~destroy_json_data -->
<g id="edge2" class="edge"><title>proc~to_logical&#45;&gt;proc~destroy_json_data</title>
<path fill="none" stroke="black" d="M593.175,-101C606.878,-101 623.744,-101 639.992,-101"/>
<polygon fill="black" stroke="black" points="639.995,-104.5 649.995,-101 639.995,-97.5001 639.995,-104.5"/>
</g>
<!-- proc~to_uni_vec -->
<g id="node11" class="node"><title>proc~to_uni_vec</title>
<a xlink:href="../proc/to_uni_vec.html" xlink:title="to_uni_vec">
<polygon fill="#d94e8f" stroke="#d94e8f" points="596,-70 532,-70 532,-44 596,-44 596,-70"/>
<text text-anchor="middle" x="564" y="-54.55" font-family="Helvetica,sans-Serif" font-size="10.50" fill="white">to_uni_vec</text>
</a>
</g>
<!-- interface~to_unicode&#45;&gt;proc~to_uni_vec -->
<g id="edge8" class="edge"><title>interface~to_unicode&#45;&gt;proc~to_uni_vec</title>
<path fill="none" stroke="black" stroke-dasharray="5,2" d="M442.659,-57C465.681,-57 496.726,-57 521.65,-57"/>
<polygon fill="black" stroke="black" points="521.916,-60.5001 531.916,-57 521.916,-53.5001 521.916,-60.5001"/>
</g>
<!-- proc~to_uni -->
<g id="node12" class="node"><title>proc~to_uni</title>
<a xlink:href="../proc/to_uni.html" xlink:title="to_uni">
<polygon fill="#d94e8f" stroke="#d94e8f" points="591,-26 537,-26 537,-1.24345e-14 591,-3.55271e-15 591,-26"/>
<text text-anchor="middle" x="564" y="-10.55" font-family="Helvetica,sans-Serif" font-size="10.50" fill="white">to_uni</text>
</a>
</g>
<!-- interface~to_unicode&#45;&gt;proc~to_uni -->
<g id="edge10" class="edge"><title>interface~to_unicode&#45;&gt;proc~to_uni</title>
<path fill="none" stroke="black" stroke-dasharray="5,2" d="M442.659,-47.6687C467.29,-40.6314 501.103,-30.9706 526.78,-23.6343"/>
<polygon fill="black" stroke="black" points="527.881,-26.9599 536.534,-20.8473 525.958,-20.2292 527.881,-26.9599"/>
</g>
</g>
</svg>
