<?xml version="1.0" encoding="UTF-8" standalone="no"?>
<!DOCTYPE svg PUBLIC "-//W3C//DTD SVG 1.1//EN"
 "http://www.w3.org/Graphics/SVG/1.1/DTD/svg11.dtd">
<!-- Generated by graphviz version 2.26.3 (20100126.1600)
 -->
<!-- Title: interface~~json_destroy~~CalledByGraph Pages: 1 -->
<svg width="641pt" height="238pt"
 viewBox="0.00 0.00 641.00 237.85" xmlns="http://www.w3.org/2000/svg" xmlns:xlink="http://www.w3.org/1999/xlink">
<g id="graph1" class="graph" transform="scale(0.59462 0.59462) rotate(0) translate(4 396)">
<title>interface~~json_destroy~~CalledByGraph</title>
<polygon fill="white" stroke="white" points="-4,5 -4,-396 1075,-396 1075,5 -4,5"/>
<!-- interface~json_destroy -->
<g id="node1" class="node"><title>interface~json_destroy</title>
<polygon fill="none" stroke="black" points="1069,-199 997,-199 997,-173 1069,-173 1069,-199"/>
<text text-anchor="middle" x="1033" y="-183.55" font-family="Helvetica,sans-Serif" font-size="10.50">json_destroy</text>
</g>
<!-- program~example2 -->
<g id="node2" class="node"><title>program~example2</title>
<a xlink:href="../program/example2.html" xlink:title="example2">
<polygon fill="#f0ad4e" stroke="#f0ad4e" points="952,-392 894,-392 894,-366 952,-366 952,-392"/>
<text text-anchor="middle" x="923" y="-376.55" font-family="Helvetica,sans-Serif" font-size="10.50" fill="white">example2</text>
</a>
</g>
<!-- program~example2&#45;&gt;interface~json_destroy -->
<g id="edge46" class="edge"><title>program~example2&#45;&gt;interface~json_destroy</title>
<path fill="none" stroke="black" d="M944.994,-365.862C950.391,-361.901 955.814,-357.205 960,-352 995.609,-307.726 1017.29,-243.379 1026.99,-209.262"/>
<polygon fill="black" stroke="black" points="1030.44,-209.881 1029.71,-199.311 1023.69,-208.03 1030.44,-209.881"/>
</g>
<!-- proc~parse_array -->
<g id="node3" class="node"><title>proc~parse_array</title>
<a xlink:href="../proc/parse_array.html" xlink:title="parse_array">
<polygon fill="#d9534f" stroke="#d9534f" points="728,-310 658,-310 658,-284 728,-284 728,-310"/>
<text text-anchor="middle" x="693" y="-294.55" font-family="Helvetica,sans-Serif" font-size="10.50" fill="white">parse_array</text>
</a>
</g>
<!-- proc~parse_array&#45;&gt;interface~json_destroy -->
<g id="edge48" class="edge"><title>proc~parse_array&#45;&gt;interface~json_destroy</title>
<path fill="none" stroke="black" d="M728.281,-303.049C781.804,-310.423 885.197,-317.472 960,-278 989.06,-262.665 1010.46,-230.18 1022.33,-208.214"/>
<polygon fill="black" stroke="black" points="1025.49,-209.733 1026.97,-199.242 1019.27,-206.519 1025.49,-209.733"/>
</g>
<!-- proc~parse_value -->
<g id="node11" class="node"><title>proc~parse_value</title>
<a xlink:href="../proc/parse_value.html" xlink:title="parse_value">
<polygon fill="#d9534f" stroke="#d9534f" points="849,-259 779,-259 779,-233 849,-233 849,-259"/>
<text text-anchor="middle" x="814" y="-243.55" font-family="Helvetica,sans-Serif" font-size="10.50" fill="white">parse_value</text>
</a>
</g>
<!-- proc~parse_array&#45;&gt;proc~parse_value -->
<g id="edge26" class="edge"><title>proc~parse_array&#45;&gt;proc~parse_value</title>
<path fill="none" stroke="black" d="M711.906,-283.969C727.1,-276.058 749.078,-266.297 768.753,-258.515"/>
<polygon fill="black" stroke="black" points="770.12,-261.739 778.187,-254.871 767.598,-255.21 770.12,-261.739"/>
</g>
<!-- proc~test_10 -->
<g id="node4" class="node"><title>proc~test_10</title>
<a xlink:href="../proc/test_10.html" xlink:title="test_10">
<polygon fill="#d9534f" stroke="#d9534f" points="950,-158 896,-158 896,-132 950,-132 950,-158"/>
<text text-anchor="middle" x="923" y="-142.55" font-family="Helvetica,sans-Serif" font-size="10.50" fill="white">test_10</text>
</a>
</g>
<!-- proc~test_10&#45;&gt;interface~json_destroy -->
<g id="edge50" class="edge"><title>proc~test_10&#45;&gt;interface~json_destroy</title>
<path fill="none" stroke="black" d="M950.191,-155.135C961.649,-159.405 975.292,-164.491 988.165,-169.289"/>
<polygon fill="black" stroke="black" points="987.217,-172.671 997.81,-172.884 989.662,-166.112 987.217,-172.671"/>
</g>
<!-- proc~test_4 -->
<g id="node5" class="node"><title>proc~test_4</title>
<a xlink:href="../proc/test_4.html" xlink:title="test_4">
<polygon fill="#d9534f" stroke="#d9534f" points="950,-114 896,-114 896,-88 950,-88 950,-114"/>
<text text-anchor="middle" x="923" y="-98.55" font-family="Helvetica,sans-Serif" font-size="10.50" fill="white">test_4</text>
</a>
</g>
<!-- proc~test_4&#45;&gt;interface~json_destroy -->
<g id="edge52" class="edge"><title>proc~test_4&#45;&gt;interface~json_destroy</title>
<path fill="none" stroke="black" d="M946.491,-114.123C951.065,-116.912 955.755,-119.942 960,-123 978.282,-136.168 997.517,-152.903 1011.65,-165.815"/>
<polygon fill="black" stroke="black" points="1009.62,-168.702 1019.34,-172.92 1014.37,-163.562 1009.62,-168.702"/>
</g>
<!-- proc~test_14 -->
<g id="node6" class="node"><title>proc~test_14</title>
<a xlink:href="../proc/test_14.html" xlink:title="test_14">
<polygon fill="#d9534f" stroke="#d9534f" points="300,-347 246,-347 246,-321 300,-321 300,-347"/>
<text text-anchor="middle" x="273" y="-331.55" font-family="Helvetica,sans-Serif" font-size="10.50" fill="white">test_14</text>
</a>
</g>
<!-- proc~test_14&#45;&gt;interface~json_destroy -->
<g id="edge54" class="edge"><title>proc~test_14&#45;&gt;interface~json_destroy</title>
<path fill="none" stroke="black" d="M300.309,-334.67C349.181,-335.808 454.833,-338 544,-338 544,-338 544,-338 814,-338 880.625,-338 905.883,-342.863 960,-304 993.312,-280.077 1014.6,-235.785 1025.13,-208.797"/>
<polygon fill="black" stroke="black" points="1028.43,-209.972 1028.64,-199.379 1021.87,-207.527 1028.43,-209.972"/>
</g>
<!-- interface~json_parse -->
<g id="node15" class="node"><title>interface~json_parse</title>
<a xlink:href="../interface/json_parse.html" xlink:title="json_parse">
<polygon fill="#a7506f" stroke="#a7506f" points="443,-272 379,-272 379,-246 443,-246 443,-272"/>
<text text-anchor="middle" x="411" y="-256.55" font-family="Helvetica,sans-Serif" font-size="10.50" fill="white">json_parse</text>
</a>
</g>
<!-- proc~test_14&#45;&gt;interface~json_parse -->
<g id="edge4" class="edge"><title>proc~test_14&#45;&gt;interface~json_parse</title>
<path fill="none" stroke="black" d="M300.035,-323.48C312.975,-318.136 328.544,-311.247 342,-304 356.388,-296.251 371.679,-286.455 384.199,-277.982"/>
<polygon fill="black" stroke="black" points="386.512,-280.64 392.775,-272.095 382.55,-274.869 386.512,-280.64"/>
</g>
<!-- proc~test_8 -->
<g id="node7" class="node"><title>proc~test_8</title>
<a xlink:href="../proc/test_8.html" xlink:title="test_8">
<polygon fill="#d9534f" stroke="#d9534f" points="300,-203 246,-203 246,-177 300,-177 300,-203"/>
<text text-anchor="middle" x="273" y="-187.55" font-family="Helvetica,sans-Serif" font-size="10.50" fill="white">test_8</text>
</a>
</g>
<!-- proc~test_8&#45;&gt;interface~json_destroy -->
<g id="edge56" class="edge"><title>proc~test_8&#45;&gt;interface~json_destroy</title>
<path fill="none" stroke="black" d="M300.049,-189.858C412.266,-189.267 842.009,-187.005 985.81,-186.248"/>
<polygon fill="black" stroke="black" points="986.077,-189.747 996.059,-186.194 986.04,-182.747 986.077,-189.747"/>
</g>
<!-- proc~test_8&#45;&gt;interface~json_parse -->
<g id="edge6" class="edge"><title>proc~test_8&#45;&gt;interface~json_parse</title>
<path fill="none" stroke="black" d="M300.06,-198.805C313.005,-203.366 328.571,-209.366 342,-216 356.257,-223.043 371.328,-232.214 383.736,-240.277"/>
<polygon fill="black" stroke="black" points="381.978,-243.311 392.25,-245.906 385.839,-237.471 381.978,-243.311"/>
</g>
<!-- proc~parse_object -->
<g id="node8" class="node"><title>proc~parse_object</title>
<a xlink:href="../proc/parse_object.html" xlink:title="parse_object">
<polygon fill="#d9534f" stroke="#d9534f" points="960,-251 886,-251 886,-225 960,-225 960,-251"/>
<text text-anchor="middle" x="923" y="-235.55" font-family="Helvetica,sans-Serif" font-size="10.50" fill="white">parse_object</text>
</a>
</g>
<!-- proc~parse_object&#45;&gt;interface~json_destroy -->
<g id="edge58" class="edge"><title>proc~parse_object&#45;&gt;interface~json_destroy</title>
<path fill="none" stroke="black" d="M950.758,-224.878C964.436,-218.412 981.123,-210.524 995.882,-203.547"/>
<polygon fill="black" stroke="black" points="997.706,-206.556 1005.25,-199.118 994.715,-200.227 997.706,-206.556"/>
</g>
<!-- proc~parse_object&#45;&gt;proc~parse_object -->
<g id="edge40" class="edge"><title>proc~parse_object&#45;&gt;proc~parse_object</title>
<path fill="none" stroke="black" d="M904.728,-251.06C899.19,-260.1 905.281,-269 923,-269 933.797,-269 940.277,-265.695 942.438,-261.067"/>
<polygon fill="black" stroke="black" points="945.906,-260.588 941.272,-251.06 938.953,-261.398 945.906,-260.588"/>
</g>
<!-- proc~parse_object&#45;&gt;proc~parse_value -->
<g id="edge22" class="edge"><title>proc~parse_object&#45;&gt;proc~parse_value</title>
<path fill="none" stroke="black" d="M885.731,-247.176C877.351,-248.102 868.365,-248.838 859.685,-249.318"/>
<polygon fill="black" stroke="black" points="859.526,-245.821 849.691,-249.76 859.836,-252.815 859.526,-245.821"/>
</g>
<!-- proc~test_7 -->
<g id="node9" class="node"><title>proc~test_7</title>
<a xlink:href="../proc/test_7.html" xlink:title="test_7">
<polygon fill="#d9534f" stroke="#d9534f" points="950,-70 896,-70 896,-44 950,-44 950,-70"/>
<text text-anchor="middle" x="923" y="-54.55" font-family="Helvetica,sans-Serif" font-size="10.50" fill="white">test_7</text>
</a>
</g>
<!-- proc~test_7&#45;&gt;interface~json_destroy -->
<g id="edge60" class="edge"><title>proc~test_7&#45;&gt;interface~json_destroy</title>
<path fill="none" stroke="black" d="M948.337,-70.0357C952.459,-72.7123 956.514,-75.7249 960,-79 986.672,-104.061 1008.94,-140.503 1021.62,-163.727"/>
<polygon fill="black" stroke="black" points="1018.66,-165.619 1026.45,-172.799 1024.84,-162.327 1018.66,-165.619"/>
</g>
<!-- proc~test_2 -->
<g id="node10" class="node"><title>proc~test_2</title>
<a xlink:href="../proc/test_2.html" xlink:title="test_2">
<polygon fill="#d9534f" stroke="#d9534f" points="950,-26 896,-26 896,-1.24345e-14 950,-3.55271e-15 950,-26"/>
<text text-anchor="middle" x="923" y="-10.55" font-family="Helvetica,sans-Serif" font-size="10.50" fill="white">test_2</text>
</a>
</g>
<!-- proc~test_2&#45;&gt;interface~json_destroy -->
<g id="edge62" class="edge"><title>proc~test_2&#45;&gt;interface~json_destroy</title>
<path fill="none" stroke="black" d="M949.525,-26.1304C953.326,-28.7319 956.969,-31.6958 960,-35 995.016,-73.1696 1016.62,-131.205 1026.54,-163.066"/>
<polygon fill="black" stroke="black" points="1023.23,-164.228 1029.46,-172.802 1029.94,-162.218 1023.23,-164.228"/>
</g>
<!-- proc~parse_value&#45;&gt;proc~parse_array -->
<g id="edge28" class="edge"><title>proc~parse_value&#45;&gt;proc~parse_array</title>
<path fill="none" stroke="black" d="M794.956,-259.103C779.647,-267.064 757.513,-276.882 737.779,-284.67"/>
<polygon fill="black" stroke="black" points="736.396,-281.451 728.323,-288.313 738.913,-287.983 736.396,-281.451"/>
</g>
<!-- proc~parse_value&#45;&gt;proc~parse_object -->
<g id="edge38" class="edge"><title>proc~parse_value&#45;&gt;proc~parse_object</title>
<path fill="none" stroke="black" d="M849.691,-237.001C857.991,-236.052 866.955,-235.288 875.67,-234.776"/>
<polygon fill="black" stroke="black" points="875.91,-238.269 885.731,-234.295 875.575,-231.277 875.91,-238.269"/>
</g>
<!-- proc~json_parse_string -->
<g id="node12" class="node"><title>proc~json_parse_string</title>
<a xlink:href="../proc/json_parse_string.html" xlink:title="json_parse_string">
<polygon fill="#d9534f" stroke="#d9534f" points="741,-266 645,-266 645,-240 741,-240 741,-266"/>
<text text-anchor="middle" x="693" y="-250.55" font-family="Helvetica,sans-Serif" font-size="10.50" fill="white">json_parse_string</text>
</a>
</g>
<!-- proc~json_parse_string&#45;&gt;proc~parse_value -->
<g id="edge20" class="edge"><title>proc~json_parse_string&#45;&gt;proc~parse_value</title>
<path fill="none" stroke="black" d="M741.518,-250.193C750.212,-249.69 759.25,-249.167 767.875,-248.668"/>
<polygon fill="black" stroke="black" points="768.357,-252.146 778.139,-248.075 767.953,-245.158 768.357,-252.146"/>
</g>
<!-- proc~json_parse_file -->
<g id="node13" class="node"><title>proc~json_parse_file</title>
<a xlink:href="../proc/json_parse_file.html" xlink:title="json_parse_file">
<polygon fill="#d9534f" stroke="#d9534f" points="586,-228 502,-228 502,-202 586,-202 586,-228"/>
<text text-anchor="middle" x="544" y="-212.55" font-family="Helvetica,sans-Serif" font-size="10.50" fill="white">json_parse_file</text>
</a>
</g>
<!-- proc~json_parse_file&#45;&gt;proc~parse_value -->
<g id="edge24" class="edge"><title>proc~json_parse_file&#45;&gt;proc~parse_value</title>
<path fill="none" stroke="black" d="M586.658,-216.907C626.873,-219.068 688.749,-223.332 742,-231 750.539,-232.23 759.585,-233.855 768.277,-235.581"/>
<polygon fill="black" stroke="black" points="767.765,-239.049 778.265,-237.637 769.176,-232.193 767.765,-239.049"/>
</g>
<!-- proc~wrap_json_parse_string -->
<g id="node14" class="node"><title>proc~wrap_json_parse_string</title>
<a xlink:href="../proc/wrap_json_parse_string.html" xlink:title="wrap_json_parse_string">
<polygon fill="#d9534f" stroke="#d9534f" points="607,-272 481,-272 481,-246 607,-246 607,-272"/>
<text text-anchor="middle" x="544" y="-256.55" font-family="Helvetica,sans-Serif" font-size="10.50" fill="white">wrap_json_parse_string</text>
</a>
</g>
<!-- proc~wrap_json_parse_string&#45;&gt;proc~json_parse_string -->
<g id="edge14" class="edge"><title>proc~wrap_json_parse_string&#45;&gt;proc~json_parse_string</title>
<path fill="none" stroke="black" d="M607.622,-256.438C616.49,-256.081 625.569,-255.715 634.341,-255.362"/>
<polygon fill="black" stroke="black" points="634.615,-258.854 644.466,-254.954 634.334,-251.86 634.615,-258.854"/>
</g>
<!-- interface~json_parse&#45;&gt;proc~json_parse_string -->
<g id="edge16" class="edge"><title>interface~json_parse&#45;&gt;proc~json_parse_string</title>
<path fill="none" stroke="black" stroke-dasharray="5,2" d="M443.842,-271.748C455.124,-275.513 467.949,-279.125 480,-281 536.213,-289.745 551.83,-290.013 608,-281 622.567,-278.663 638.021,-274.207 651.701,-269.526"/>
<polygon fill="black" stroke="black" points="653.064,-272.756 661.31,-266.105 650.716,-266.162 653.064,-272.756"/>
</g>
<!-- interface~json_parse&#45;&gt;proc~json_parse_file -->
<g id="edge18" class="edge"><title>interface~json_parse&#45;&gt;proc~json_parse_file</title>
<path fill="none" stroke="black" stroke-dasharray="5,2" d="M443.535,-248.236C458.964,-243.132 477.727,-236.925 494.842,-231.263"/>
<polygon fill="black" stroke="black" points="496.297,-234.468 504.692,-228.004 494.098,-227.822 496.297,-234.468"/>
</g>
<!-- interface~json_parse&#45;&gt;proc~wrap_json_parse_string -->
<g id="edge12" class="edge"><title>interface~json_parse&#45;&gt;proc~wrap_json_parse_string</title>
<path fill="none" stroke="black" stroke-dasharray="5,2" d="M443.535,-259C451.724,-259 460.853,-259 470.175,-259"/>
<polygon fill="black" stroke="black" points="470.333,-262.5 480.333,-259 470.333,-255.5 470.333,-262.5"/>
</g>
<!-- proc~json_file_load -->
<g id="node16" class="node"><title>proc~json_file_load</title>
<a xlink:href="../proc/json_file_load.html" xlink:title="json_file_load">
<polygon fill="#d9534f" stroke="#d9534f" points="312,-295 234,-295 234,-269 312,-269 312,-295"/>
<text text-anchor="middle" x="273" y="-279.55" font-family="Helvetica,sans-Serif" font-size="10.50" fill="white">json_file_load</text>
</a>
</g>
<!-- proc~json_file_load&#45;&gt;interface~json_parse -->
<g id="edge8" class="edge"><title>proc~json_file_load&#45;&gt;interface~json_parse</title>
<path fill="none" stroke="black" d="M312.176,-275.471C329.71,-272.548 350.425,-269.096 368.349,-266.108"/>
<polygon fill="black" stroke="black" points="368.969,-269.554 378.258,-264.457 367.818,-262.649 368.969,-269.554"/>
</g>
<!-- proc~json_file_load_from_string -->
<g id="node17" class="node"><title>proc~json_file_load_from_string</title>
<a xlink:href="../proc/json_file_load_from_string.html" xlink:title="json_file_load_from_string">
<polygon fill="#d9534f" stroke="#d9534f" points="342,-251 204,-251 204,-225 342,-225 342,-251"/>
<text text-anchor="middle" x="273" y="-235.55" font-family="Helvetica,sans-Serif" font-size="10.50" fill="white">json_file_load_from_string</text>
</a>
</g>
<!-- proc~json_file_load_from_string&#45;&gt;interface~json_parse -->
<g id="edge10" class="edge"><title>proc~json_file_load_from_string&#45;&gt;interface~json_parse</title>
<path fill="none" stroke="black" d="M342,-248.5C351.006,-249.87 360.012,-251.241 368.405,-252.518"/>
<polygon fill="black" stroke="black" points="367.883,-255.979 378.296,-254.023 368.936,-249.059 367.883,-255.979"/>
</g>
<!-- proc~wrap_json_file_load_from_string -->
<g id="node18" class="node"><title>proc~wrap_json_file_load_from_string</title>
<a xlink:href="../proc/wrap_json_file_load_from_string.html" xlink:title="wrap_json_file_load_from_string">
<polygon fill="#d9534f" stroke="#d9534f" points="167,-251 1,-251 1,-225 167,-225 167,-251"/>
<text text-anchor="middle" x="84" y="-235.55" font-family="Helvetica,sans-Serif" font-size="10.50" fill="white">wrap_json_file_load_from_string</text>
</a>
</g>
<!-- proc~wrap_json_file_load_from_string&#45;&gt;proc~json_file_load_from_string -->
<g id="edge2" class="edge"><title>proc~wrap_json_file_load_from_string&#45;&gt;proc~json_file_load_from_string</title>
<path fill="none" stroke="black" d="M167.724,-238C176.382,-238 185.162,-238 193.769,-238"/>
<polygon fill="black" stroke="black" points="193.775,-241.5 203.775,-238 193.775,-234.5 193.775,-241.5"/>
</g>
<!-- program~jf_test_10 -->
<g id="node33" class="node"><title>program~jf_test_10</title>
<a xlink:href="../program/jf_test_10.html" xlink:title="jf_test_10">
<polygon fill="#f0ad4e" stroke="#f0ad4e" points="843,-158 785,-158 785,-132 843,-132 843,-158"/>
<text text-anchor="middle" x="814" y="-142.55" font-family="Helvetica,sans-Serif" font-size="10.50" fill="white">jf_test_10</text>
</a>
</g>
<!-- program~jf_test_10&#45;&gt;proc~test_10 -->
<g id="edge30" class="edge"><title>program~jf_test_10&#45;&gt;proc~test_10</title>
<path fill="none" stroke="black" d="M843.785,-145C856.744,-145 872.068,-145 885.769,-145"/>
<polygon fill="black" stroke="black" points="885.864,-148.5 895.864,-145 885.864,-141.5 885.864,-148.5"/>
</g>
<!-- program~jf_test_4 -->
<g id="node35" class="node"><title>program~jf_test_4</title>
<a xlink:href="../program/jf_test_4.html" xlink:title="jf_test_4">
<polygon fill="#f0ad4e" stroke="#f0ad4e" points="841,-114 787,-114 787,-88 841,-88 841,-114"/>
<text text-anchor="middle" x="814" y="-98.55" font-family="Helvetica,sans-Serif" font-size="10.50" fill="white">jf_test_4</text>
</a>
</g>
<!-- program~jf_test_4&#45;&gt;proc~test_4 -->
<g id="edge32" class="edge"><title>program~jf_test_4&#45;&gt;proc~test_4</title>
<path fill="none" stroke="black" d="M841.224,-101C854.62,-101 870.977,-101 885.533,-101"/>
<polygon fill="black" stroke="black" points="885.745,-104.5 895.745,-101 885.745,-97.5001 885.745,-104.5"/>
</g>
<!-- program~jf_test_14 -->
<g id="node37" class="node"><title>program~jf_test_14</title>
<a xlink:href="../program/jf_test_14.html" xlink:title="jf_test_14">
<polygon fill="#f0ad4e" stroke="#f0ad4e" points="113,-347 55,-347 55,-321 113,-321 113,-347"/>
<text text-anchor="middle" x="84" y="-331.55" font-family="Helvetica,sans-Serif" font-size="10.50" fill="white">jf_test_14</text>
</a>
</g>
<!-- program~jf_test_14&#45;&gt;proc~test_14 -->
<g id="edge34" class="edge"><title>program~jf_test_14&#45;&gt;proc~test_14</title>
<path fill="none" stroke="black" d="M113.531,-334C146.509,-334 199.947,-334 235.765,-334"/>
<polygon fill="black" stroke="black" points="235.82,-337.5 245.82,-334 235.82,-330.5 235.82,-337.5"/>
</g>
<!-- program~jf_test_8 -->
<g id="node39" class="node"><title>program~jf_test_8</title>
<a xlink:href="../program/jf_test_8.html" xlink:title="jf_test_8">
<polygon fill="#f0ad4e" stroke="#f0ad4e" points="111,-203 57,-203 57,-177 111,-177 111,-203"/>
<text text-anchor="middle" x="84" y="-187.55" font-family="Helvetica,sans-Serif" font-size="10.50" fill="white">jf_test_8</text>
</a>
</g>
<!-- program~jf_test_8&#45;&gt;proc~test_8 -->
<g id="edge36" class="edge"><title>program~jf_test_8&#45;&gt;proc~test_8</title>
<path fill="none" stroke="black" d="M111.079,-190C143.78,-190 198.956,-190 235.676,-190"/>
<polygon fill="black" stroke="black" points="235.971,-193.5 245.971,-190 235.971,-186.5 235.971,-193.5"/>
</g>
<!-- program~jf_test_7 -->
<g id="node43" class="node"><title>program~jf_test_7</title>
<a xlink:href="../program/jf_test_7.html" xlink:title="jf_test_7">
<polygon fill="#f0ad4e" stroke="#f0ad4e" points="841,-70 787,-70 787,-44 841,-44 841,-70"/>
<text text-anchor="middle" x="814" y="-54.55" font-family="Helvetica,sans-Serif" font-size="10.50" fill="white">jf_test_7</text>
</a>
</g>
<!-- program~jf_test_7&#45;&gt;proc~test_7 -->
<g id="edge42" class="edge"><title>program~jf_test_7&#45;&gt;proc~test_7</title>
<path fill="none" stroke="black" d="M841.224,-57C854.62,-57 870.977,-57 885.533,-57"/>
<polygon fill="black" stroke="black" points="885.745,-60.5001 895.745,-57 885.745,-53.5001 885.745,-60.5001"/>
</g>
<!-- program~jf_test_2 -->
<g id="node45" class="node"><title>program~jf_test_2</title>
<a xlink:href="../program/jf_test_2.html" xlink:title="jf_test_2">
<polygon fill="#f0ad4e" stroke="#f0ad4e" points="841,-26 787,-26 787,-1.24345e-14 841,-3.55271e-15 841,-26"/>
<text text-anchor="middle" x="814" y="-10.55" font-family="Helvetica,sans-Serif" font-size="10.50" fill="white">jf_test_2</text>
</a>
</g>
<!-- program~jf_test_2&#45;&gt;proc~test_2 -->
<g id="edge44" class="edge"><title>program~jf_test_2&#45;&gt;proc~test_2</title>
<path fill="none" stroke="black" d="M841.224,-13C854.62,-13 870.977,-13 885.533,-13"/>
<polygon fill="black" stroke="black" points="885.745,-16.5001 895.745,-13 885.745,-9.5001 885.745,-16.5001"/>
</g>
</g>
</svg>
