<?xml version="1.0" encoding="UTF-8" standalone="no"?>
<!DOCTYPE svg PUBLIC "-//W3C//DTD SVG 1.1//EN"
 "http://www.w3.org/Graphics/SVG/1.1/DTD/svg11.dtd">
<!-- Generated by graphviz version 2.26.3 (20100126.1600)
 -->
<!-- Title: interface~~operator(SLASHSLASH)~~CallsGraph Pages: 1 -->
<svg width="410pt" height="78pt"
 viewBox="0.00 0.00 410.00 78.00" xmlns="http://www.w3.org/2000/svg" xmlns:xlink="http://www.w3.org/1999/xlink">
<g id="graph1" class="graph" transform="scale(1 1) rotate(0) translate(4 74)">
<title>interface~~operator(SLASHSLASH)~~CallsGraph</title>
<polygon fill="white" stroke="white" points="-4,5 -4,-74 407,-74 407,5 -4,5"/>
<!-- interface~operator(SLASHSLASH) -->
<g id="node1" class="node"><title>interface~operator(SLASHSLASH)</title>
<polygon fill="none" stroke="black" points="67,-48 1,-48 1,-22 67,-22 67,-48"/>
<text text-anchor="middle" x="34" y="-32.55" font-family="Helvetica,sans-Serif" font-size="10.50">operator(//)</text>
</g>
<!-- proc~default_join_ucs4 -->
<g id="node2" class="node"><title>proc~default_join_ucs4</title>
<a xlink:href="../proc/default_join_ucs4.html" xlink:title="default_join_ucs4">
<polygon fill="#d94e8f" stroke="#d94e8f" points="200,-70 104,-70 104,-44 200,-44 200,-70"/>
<text text-anchor="middle" x="152" y="-54.55" font-family="Helvetica,sans-Serif" font-size="10.50" fill="white">default_join_ucs4</text>
</a>
</g>
<!-- interface~operator(SLASHSLASH)&#45;&gt;proc~default_join_ucs4 -->
<g id="edge10" class="edge"><title>interface~operator(SLASHSLASH)&#45;&gt;proc~default_join_ucs4</title>
<path fill="none" stroke="black" stroke-dasharray="5,2" d="M67.8141,-41.3043C75.929,-42.8173 84.8264,-44.4761 93.7027,-46.131"/>
<polygon fill="black" stroke="black" points="93.2003,-49.5976 103.672,-47.9898 94.4833,-42.7162 93.2003,-49.5976"/>
</g>
<!-- proc~ucs4_join_default -->
<g id="node3" class="node"><title>proc~ucs4_join_default</title>
<a xlink:href="../proc/ucs4_join_default.html" xlink:title="ucs4_join_default">
<polygon fill="#d94e8f" stroke="#d94e8f" points="200,-26 104,-26 104,-1.24345e-14 200,-3.55271e-15 200,-26"/>
<text text-anchor="middle" x="152" y="-10.55" font-family="Helvetica,sans-Serif" font-size="10.50" fill="white">ucs4_join_default</text>
</a>
</g>
<!-- interface~operator(SLASHSLASH)&#45;&gt;proc~ucs4_join_default -->
<g id="edge12" class="edge"><title>interface~operator(SLASHSLASH)&#45;&gt;proc~ucs4_join_default</title>
<path fill="none" stroke="black" stroke-dasharray="5,2" d="M67.8141,-28.6957C75.929,-27.1827 84.8264,-25.5239 93.7027,-23.869"/>
<polygon fill="black" stroke="black" points="94.4833,-27.2838 103.672,-22.0102 93.2003,-20.4024 94.4833,-27.2838"/>
</g>
<!-- interface~to_unicode -->
<g id="node4" class="node"><title>interface~to_unicode</title>
<a xlink:href="../interface/to_unicode.html" xlink:title="to_unicode">
<polygon fill="#a7506f" stroke="#a7506f" points="301,-48 237,-48 237,-22 301,-22 301,-48"/>
<text text-anchor="middle" x="269" y="-32.55" font-family="Helvetica,sans-Serif" font-size="10.50" fill="white">to_unicode</text>
</a>
</g>
<!-- proc~default_join_ucs4&#45;&gt;interface~to_unicode -->
<g id="edge6" class="edge"><title>proc~default_join_ucs4&#45;&gt;interface~to_unicode</title>
<path fill="none" stroke="black" d="M200.264,-47.9247C208.856,-46.3091 217.753,-44.6363 226.18,-43.0516"/>
<polygon fill="black" stroke="black" points="226.995,-46.4599 236.176,-41.1721 225.701,-39.5804 226.995,-46.4599"/>
</g>
<!-- proc~ucs4_join_default&#45;&gt;interface~to_unicode -->
<g id="edge8" class="edge"><title>proc~ucs4_join_default&#45;&gt;interface~to_unicode</title>
<path fill="none" stroke="black" d="M200.264,-22.0753C208.856,-23.6909 217.753,-25.3637 226.18,-26.9484"/>
<polygon fill="black" stroke="black" points="225.701,-30.4196 236.176,-28.8279 226.995,-23.5401 225.701,-30.4196"/>
</g>
<!-- proc~to_uni_vec -->
<g id="node5" class="node"><title>proc~to_uni_vec</title>
<a xlink:href="../proc/to_uni_vec.html" xlink:title="to_uni_vec">
<polygon fill="#d94e8f" stroke="#d94e8f" points="402,-70 338,-70 338,-44 402,-44 402,-70"/>
<text text-anchor="middle" x="370" y="-54.55" font-family="Helvetica,sans-Serif" font-size="10.50" fill="white">to_uni_vec</text>
</a>
</g>
<!-- interface~to_unicode&#45;&gt;proc~to_uni_vec -->
<g id="edge2" class="edge"><title>interface~to_unicode&#45;&gt;proc~to_uni_vec</title>
<path fill="none" stroke="black" stroke-dasharray="5,2" d="M301.513,-42.082C309.977,-43.9256 319.215,-45.938 328.09,-47.871"/>
<polygon fill="black" stroke="black" points="327.378,-51.2979 337.893,-50.0065 328.867,-44.4583 327.378,-51.2979"/>
</g>
<!-- proc~to_uni -->
<g id="node6" class="node"><title>proc~to_uni</title>
<a xlink:href="../proc/to_uni.html" xlink:title="to_uni">
<polygon fill="#d94e8f" stroke="#d94e8f" points="397,-26 343,-26 343,-1.24345e-14 397,-3.55271e-15 397,-26"/>
<text text-anchor="middle" x="370" y="-10.55" font-family="Helvetica,sans-Serif" font-size="10.50" fill="white">to_uni</text>
</a>
</g>
<!-- interface~to_unicode&#45;&gt;proc~to_uni -->
<g id="edge4" class="edge"><title>interface~to_unicode&#45;&gt;proc~to_uni</title>
<path fill="none" stroke="black" stroke-dasharray="5,2" d="M301.513,-27.918C311.547,-25.7323 322.671,-23.3093 332.985,-21.0627"/>
<polygon fill="black" stroke="black" points="333.933,-24.4384 342.959,-18.8902 332.443,-17.5988 333.933,-24.4384"/>
</g>
</g>
</svg>
