<?xml version="1.0" encoding="UTF-8" standalone="no"?>
<!DOCTYPE svg PUBLIC "-//W3C//DTD SVG 1.1//EN"
 "http://www.w3.org/Graphics/SVG/1.1/DTD/svg11.dtd">
<!-- Generated by graphviz version 2.26.3 (20100126.1600)
 -->
<!-- Title: interface~~json_create_object~~CalledByGraph Pages: 1 -->
<svg width="458pt" height="279pt"
 viewBox="0.00 0.00 458.00 279.02" xmlns="http://www.w3.org/2000/svg" xmlns:xlink="http://www.w3.org/1999/xlink">
<g id="graph1" class="graph" transform="scale(1 1) rotate(0) translate(4 275.023)">
<title>interface~~json_create_object~~CalledByGraph</title>
<polygon fill="white" stroke="white" points="-4,5 -4,-275.023 455,-275.023 455,5 -4,5"/>
<!-- interface~json_create_object -->
<g id="node1" class="node"><title>interface~json_create_object</title>
<polygon fill="none" stroke="black" points="449,-158 347,-158 347,-132 449,-132 449,-158"/>
<text text-anchor="middle" x="398" y="-142.55" font-family="Helvetica,sans-Serif" font-size="10.50">json_create_object</text>
</g>
<!-- proc~add_variables_to_input -->
<g id="node2" class="node"><title>proc~add_variables_to_input</title>
<a xlink:href="../proc/add_variables_to_input.html" xlink:title="add_variables_to_input">
<polygon fill="#d9534f" stroke="#d9534f" points="310,-246 186,-246 186,-220 310,-220 310,-246"/>
<text text-anchor="middle" x="248" y="-230.55" font-family="Helvetica,sans-Serif" font-size="10.50" fill="white">add_variables_to_input</text>
</a>
</g>
<!-- proc~add_variables_to_input&#45;&gt;interface~json_create_object -->
<g id="edge14" class="edge"><title>proc~add_variables_to_input&#45;&gt;interface~json_create_object</title>
<path fill="none" stroke="black" d="M290.429,-219.883C297.126,-217.265 303.86,-214.293 310,-211 334.009,-198.125 358.586,-179.104 375.643,-164.785"/>
<polygon fill="black" stroke="black" points="378.045,-167.337 383.377,-158.181 373.5,-162.013 378.045,-167.337"/>
</g>
<!-- proc~test_4 -->
<g id="node3" class="node"><title>proc~test_4</title>
<a xlink:href="../proc/test_4.html" xlink:title="test_4">
<polygon fill="#d9534f" stroke="#d9534f" points="275,-202 221,-202 221,-176 275,-176 275,-202"/>
<text text-anchor="middle" x="248" y="-186.55" font-family="Helvetica,sans-Serif" font-size="10.50" fill="white">test_4</text>
</a>
</g>
<!-- proc~test_4&#45;&gt;interface~json_create_object -->
<g id="edge16" class="edge"><title>proc~test_4&#45;&gt;interface~json_create_object</title>
<path fill="none" stroke="black" d="M275.164,-181.032C294.297,-175.42 320.558,-167.716 343.889,-160.873"/>
<polygon fill="black" stroke="black" points="345.069,-164.174 353.679,-158.001 343.098,-157.457 345.069,-164.174"/>
</g>
<!-- proc~test_10 -->
<g id="node4" class="node"><title>proc~test_10</title>
<a xlink:href="../proc/test_10.html" xlink:title="test_10">
<polygon fill="#d9534f" stroke="#d9534f" points="275,-158 221,-158 221,-132 275,-132 275,-158"/>
<text text-anchor="middle" x="248" y="-142.55" font-family="Helvetica,sans-Serif" font-size="10.50" fill="white">test_10</text>
</a>
</g>
<!-- proc~test_10&#45;&gt;interface~json_create_object -->
<g id="edge18" class="edge"><title>proc~test_10&#45;&gt;interface~json_create_object</title>
<path fill="none" stroke="black" d="M275.164,-145C292.214,-145 314.925,-145 336.178,-145"/>
<polygon fill="black" stroke="black" points="336.463,-148.5 346.463,-145 336.463,-141.5 336.463,-148.5"/>
</g>
<!-- proc~test_12 -->
<g id="node5" class="node"><title>proc~test_12</title>
<a xlink:href="../proc/test_12.html" xlink:title="test_12">
<polygon fill="#d9534f" stroke="#d9534f" points="275,-114 221,-114 221,-88 275,-88 275,-114"/>
<text text-anchor="middle" x="248" y="-98.55" font-family="Helvetica,sans-Serif" font-size="10.50" fill="white">test_12</text>
</a>
</g>
<!-- proc~test_12&#45;&gt;interface~json_create_object -->
<g id="edge20" class="edge"><title>proc~test_12&#45;&gt;interface~json_create_object</title>
<path fill="none" stroke="black" d="M275.164,-108.968C294.297,-114.58 320.558,-122.284 343.889,-129.127"/>
<polygon fill="black" stroke="black" points="343.098,-132.543 353.679,-131.999 345.069,-125.826 343.098,-132.543"/>
</g>
<!-- proc~test_7 -->
<g id="node6" class="node"><title>proc~test_7</title>
<a xlink:href="../proc/test_7.html" xlink:title="test_7">
<polygon fill="#d9534f" stroke="#d9534f" points="275,-70 221,-70 221,-44 275,-44 275,-70"/>
<text text-anchor="middle" x="248" y="-54.55" font-family="Helvetica,sans-Serif" font-size="10.50" fill="white">test_7</text>
</a>
</g>
<!-- proc~test_7&#45;&gt;interface~json_create_object -->
<g id="edge22" class="edge"><title>proc~test_7&#45;&gt;interface~json_create_object</title>
<path fill="none" stroke="black" d="M275.307,-64.7119C286.396,-68.344 299.129,-73.1704 310,-79 334.009,-91.8753 358.586,-110.896 375.643,-125.215"/>
<polygon fill="black" stroke="black" points="373.5,-127.987 383.377,-131.819 378.045,-122.663 373.5,-127.987"/>
</g>
<!-- proc~test_2 -->
<g id="node7" class="node"><title>proc~test_2</title>
<a xlink:href="../proc/test_2.html" xlink:title="test_2">
<polygon fill="#d9534f" stroke="#d9534f" points="147,-266 93,-266 93,-240 147,-240 147,-266"/>
<text text-anchor="middle" x="120" y="-250.55" font-family="Helvetica,sans-Serif" font-size="10.50" fill="white">test_2</text>
</a>
</g>
<!-- proc~test_2&#45;&gt;interface~json_create_object -->
<g id="edge24" class="edge"><title>proc~test_2&#45;&gt;interface~json_create_object</title>
<path fill="none" stroke="black" d="M147.104,-260.452C185.493,-269.472 256.928,-280.508 310,-255 347.528,-236.963 374.061,-194.266 387.626,-167.686"/>
<polygon fill="black" stroke="black" points="390.931,-168.894 392.185,-158.374 384.644,-165.816 390.931,-168.894"/>
</g>
<!-- proc~test_2&#45;&gt;proc~add_variables_to_input -->
<g id="edge2" class="edge"><title>proc~test_2&#45;&gt;proc~add_variables_to_input</title>
<path fill="none" stroke="black" d="M147.146,-248.759C155.677,-247.426 165.533,-245.885 175.673,-244.301"/>
<polygon fill="black" stroke="black" points="176.529,-247.71 185.869,-242.708 175.448,-240.794 176.529,-247.71"/>
</g>
<!-- program~example2 -->
<g id="node8" class="node"><title>program~example2</title>
<a xlink:href="../program/example2.html" xlink:title="example2">
<polygon fill="#f0ad4e" stroke="#f0ad4e" points="277,-26 219,-26 219,-1.24345e-14 277,-3.55271e-15 277,-26"/>
<text text-anchor="middle" x="248" y="-10.55" font-family="Helvetica,sans-Serif" font-size="10.50" fill="white">example2</text>
</a>
</g>
<!-- program~example2&#45;&gt;interface~json_create_object -->
<g id="edge26" class="edge"><title>program~example2&#45;&gt;interface~json_create_object</title>
<path fill="none" stroke="black" d="M277.696,-19.8723C288.507,-23.2852 300.415,-28.1789 310,-35 343.393,-58.7651 370.778,-98.5566 385.711,-123.206"/>
<polygon fill="black" stroke="black" points="382.714,-125.014 390.811,-131.847 388.742,-121.456 382.714,-125.014"/>
</g>
<!-- program~jf_test_4 -->
<g id="node10" class="node"><title>program~jf_test_4</title>
<a xlink:href="../program/jf_test_4.html" xlink:title="jf_test_4">
<polygon fill="#f0ad4e" stroke="#f0ad4e" points="147,-202 93,-202 93,-176 147,-176 147,-202"/>
<text text-anchor="middle" x="120" y="-186.55" font-family="Helvetica,sans-Serif" font-size="10.50" fill="white">jf_test_4</text>
</a>
</g>
<!-- program~jf_test_4&#45;&gt;proc~test_4 -->
<g id="edge4" class="edge"><title>program~jf_test_4&#45;&gt;proc~test_4</title>
<path fill="none" stroke="black" d="M147.146,-189C165.643,-189 190.372,-189 210.713,-189"/>
<polygon fill="black" stroke="black" points="210.894,-192.5 220.894,-189 210.894,-185.5 210.894,-192.5"/>
</g>
<!-- program~jf_test_10 -->
<g id="node12" class="node"><title>program~jf_test_10</title>
<a xlink:href="../program/jf_test_10.html" xlink:title="jf_test_10">
<polygon fill="#f0ad4e" stroke="#f0ad4e" points="149,-158 91,-158 91,-132 149,-132 149,-158"/>
<text text-anchor="middle" x="120" y="-142.55" font-family="Helvetica,sans-Serif" font-size="10.50" fill="white">jf_test_10</text>
</a>
</g>
<!-- program~jf_test_10&#45;&gt;proc~test_10 -->
<g id="edge6" class="edge"><title>program~jf_test_10&#45;&gt;proc~test_10</title>
<path fill="none" stroke="black" d="M149.688,-145C167.842,-145 191.226,-145 210.634,-145"/>
<polygon fill="black" stroke="black" points="210.659,-148.5 220.659,-145 210.659,-141.5 210.659,-148.5"/>
</g>
<!-- program~jf_test_12 -->
<g id="node14" class="node"><title>program~jf_test_12</title>
<a xlink:href="../program/jf_test_12.html" xlink:title="jf_test_12">
<polygon fill="#f0ad4e" stroke="#f0ad4e" points="149,-114 91,-114 91,-88 149,-88 149,-114"/>
<text text-anchor="middle" x="120" y="-98.55" font-family="Helvetica,sans-Serif" font-size="10.50" fill="white">jf_test_12</text>
</a>
</g>
<!-- program~jf_test_12&#45;&gt;proc~test_12 -->
<g id="edge8" class="edge"><title>program~jf_test_12&#45;&gt;proc~test_12</title>
<path fill="none" stroke="black" d="M149.688,-101C167.842,-101 191.226,-101 210.634,-101"/>
<polygon fill="black" stroke="black" points="210.659,-104.5 220.659,-101 210.659,-97.5001 210.659,-104.5"/>
</g>
<!-- program~jf_test_7 -->
<g id="node16" class="node"><title>program~jf_test_7</title>
<a xlink:href="../program/jf_test_7.html" xlink:title="jf_test_7">
<polygon fill="#f0ad4e" stroke="#f0ad4e" points="147,-70 93,-70 93,-44 147,-44 147,-70"/>
<text text-anchor="middle" x="120" y="-54.55" font-family="Helvetica,sans-Serif" font-size="10.50" fill="white">jf_test_7</text>
</a>
</g>
<!-- program~jf_test_7&#45;&gt;proc~test_7 -->
<g id="edge10" class="edge"><title>program~jf_test_7&#45;&gt;proc~test_7</title>
<path fill="none" stroke="black" d="M147.146,-57C165.643,-57 190.372,-57 210.713,-57"/>
<polygon fill="black" stroke="black" points="210.894,-60.5001 220.894,-57 210.894,-53.5001 210.894,-60.5001"/>
</g>
<!-- program~jf_test_2 -->
<g id="node18" class="node"><title>program~jf_test_2</title>
<a xlink:href="../program/jf_test_2.html" xlink:title="jf_test_2">
<polygon fill="#f0ad4e" stroke="#f0ad4e" points="54,-266 2.13163e-14,-266 0,-240 54,-240 54,-266"/>
<text text-anchor="middle" x="27" y="-250.55" font-family="Helvetica,sans-Serif" font-size="10.50" fill="white">jf_test_2</text>
</a>
</g>
<!-- program~jf_test_2&#45;&gt;proc~test_2 -->
<g id="edge12" class="edge"><title>program~jf_test_2&#45;&gt;proc~test_2</title>
<path fill="none" stroke="black" d="M54.4001,-253C63.198,-253 73.1,-253 82.493,-253"/>
<polygon fill="black" stroke="black" points="82.7958,-256.5 92.7958,-253 82.7957,-249.5 82.7958,-256.5"/>
</g>
</g>
</svg>
