<?xml version="1.0" encoding="UTF-8" standalone="no"?>
<!DOCTYPE svg PUBLIC "-//W3C//DTD SVG 1.1//EN"
 "http://www.w3.org/Graphics/SVG/1.1/DTD/svg11.dtd">
<!-- Generated by graphviz version 2.26.3 (20100126.1600)
 -->
<!-- Title: interface~~json_create_integer~~CallsGraph Pages: 1 -->
<svg width="641pt" height="139pt"
 viewBox="0.00 0.00 641.00 138.55" xmlns="http://www.w3.org/2000/svg" xmlns:xlink="http://www.w3.org/1999/xlink">
<g id="graph1" class="graph" transform="scale(0.834635 0.834635) rotate(0) translate(4 162)">
<title>interface~~json_create_integer~~CallsGraph</title>
<polygon fill="white" stroke="white" points="-4,5 -4,-162 765,-162 765,5 -4,5"/>
<!-- interface~json_create_integer -->
<g id="node1" class="node"><title>interface~json_create_integer</title>
<polygon fill="none" stroke="black" points="107,-93 1,-93 1,-67 107,-67 107,-93"/>
<text text-anchor="middle" x="54" y="-77.55" font-family="Helvetica,sans-Serif" font-size="10.50">json_create_integer</text>
</g>
<!-- proc~json_value_create_integer -->
<g id="node2" class="node"><title>proc~json_value_create_integer</title>
<a xlink:href="../proc/json_value_create_integer.html" xlink:title="json_value_create_integer">
<polygon fill="#d9534f" stroke="#d9534f" points="487,-114 349,-114 349,-88 487,-88 487,-114"/>
<text text-anchor="middle" x="418" y="-98.55" font-family="Helvetica,sans-Serif" font-size="10.50" fill="white">json_value_create_integer</text>
</a>
</g>
<!-- interface~json_create_integer&#45;&gt;proc~json_value_create_integer -->
<g id="edge16" class="edge"><title>interface~json_create_integer&#45;&gt;proc~json_value_create_integer</title>
<path fill="none" stroke="black" stroke-dasharray="5,2" d="M107.709,-83.0986C168.591,-86.611 268.443,-92.3717 338.388,-96.407"/>
<polygon fill="black" stroke="black" points="338.298,-99.9075 348.483,-96.9894 338.701,-92.9192 338.298,-99.9075"/>
</g>
<!-- proc~wrap_json_value_create_integer -->
<g id="node3" class="node"><title>proc~wrap_json_value_create_integer</title>
<a xlink:href="../proc/wrap_json_value_create_integer.html" xlink:title="wrap_json_value_create_integer">
<polygon fill="#d9534f" stroke="#d9534f" points="312,-73 144,-73 144,-47 312,-47 312,-73"/>
<text text-anchor="middle" x="228" y="-57.55" font-family="Helvetica,sans-Serif" font-size="10.50" fill="white">wrap_json_value_create_integer</text>
</a>
</g>
<!-- interface~json_create_integer&#45;&gt;proc~wrap_json_value_create_integer -->
<g id="edge18" class="edge"><title>interface~json_create_integer&#45;&gt;proc~wrap_json_value_create_integer</title>
<path fill="none" stroke="black" stroke-dasharray="5,2" d="M107.626,-73.8361C115.969,-72.8771 124.795,-71.8627 133.724,-70.8364"/>
<polygon fill="black" stroke="black" points="134.293,-74.294 143.828,-69.6749 133.494,-67.3398 134.293,-74.294"/>
</g>
<!-- proc~json_value_create -->
<g id="node4" class="node"><title>proc~json_value_create</title>
<a xlink:href="../proc/json_value_create.html" xlink:title="json_value_create">
<polygon fill="#d9534f" stroke="#d9534f" points="624,-158 524,-158 524,-132 624,-132 624,-158"/>
<text text-anchor="middle" x="574" y="-142.55" font-family="Helvetica,sans-Serif" font-size="10.50" fill="white">json_value_create</text>
</a>
</g>
<!-- proc~json_value_create_integer&#45;&gt;proc~json_value_create -->
<g id="edge4" class="edge"><title>proc~json_value_create_integer&#45;&gt;proc~json_value_create</title>
<path fill="none" stroke="black" d="M464.383,-114.082C481.125,-118.805 500.207,-124.187 517.706,-129.122"/>
<polygon fill="black" stroke="black" points="517.221,-132.622 527.796,-131.968 519.122,-125.885 517.221,-132.622"/>
</g>
<!-- proc~to_integer -->
<g id="node5" class="node"><title>proc~to_integer</title>
<a xlink:href="../proc/to_integer.html" xlink:title="to_integer">
<polygon fill="#d9534f" stroke="#d9534f" points="604,-114 544,-114 544,-88 604,-88 604,-114"/>
<text text-anchor="middle" x="574" y="-98.55" font-family="Helvetica,sans-Serif" font-size="10.50" fill="white">to_integer</text>
</a>
</g>
<!-- proc~json_value_create_integer&#45;&gt;proc~to_integer -->
<g id="edge6" class="edge"><title>proc~json_value_create_integer&#45;&gt;proc~to_integer</title>
<path fill="none" stroke="black" d="M487.787,-101C503.302,-101 519.255,-101 533.155,-101"/>
<polygon fill="black" stroke="black" points="533.342,-104.5 543.342,-101 533.342,-97.5001 533.342,-104.5"/>
</g>
<!-- proc~wrap_json_value_create_integer&#45;&gt;proc~json_value_create_integer -->
<g id="edge12" class="edge"><title>proc~wrap_json_value_create_integer&#45;&gt;proc~json_value_create_integer</title>
<path fill="none" stroke="black" d="M288.378,-73.029C307.162,-77.0824 328.038,-81.5872 347.453,-85.7766"/>
<polygon fill="black" stroke="black" points="346.94,-89.2464 357.453,-87.9346 348.416,-82.4039 346.94,-89.2464"/>
</g>
<!-- interface~to_unicode -->
<g id="node10" class="node"><title>interface~to_unicode</title>
<a xlink:href="../interface/to_unicode.html" xlink:title="to_unicode">
<polygon fill="#a7506f" stroke="#a7506f" points="450,-70 386,-70 386,-44 450,-44 450,-70"/>
<text text-anchor="middle" x="418" y="-54.55" font-family="Helvetica,sans-Serif" font-size="10.50" fill="white">to_unicode</text>
</a>
</g>
<!-- proc~wrap_json_value_create_integer&#45;&gt;interface~to_unicode -->
<g id="edge14" class="edge"><title>proc~wrap_json_value_create_integer&#45;&gt;interface~to_unicode</title>
<path fill="none" stroke="black" d="M312.167,-58.6711C333.841,-58.3288 356.278,-57.9746 374.884,-57.6808"/>
<polygon fill="black" stroke="black" points="375.136,-61.1773 385.079,-57.5198 375.025,-54.1782 375.136,-61.1773"/>
</g>
<!-- proc~destroy_json_data -->
<g id="node6" class="node"><title>proc~destroy_json_data</title>
<a xlink:href="../proc/destroy_json_data.html" xlink:title="destroy_json_data">
<polygon fill="#d9534f" stroke="#d9534f" points="760,-114 660,-114 660,-88 760,-88 760,-114"/>
<text text-anchor="middle" x="710" y="-98.55" font-family="Helvetica,sans-Serif" font-size="10.50" fill="white">destroy_json_data</text>
</a>
</g>
<!-- proc~to_integer&#45;&gt;proc~destroy_json_data -->
<g id="edge2" class="edge"><title>proc~to_integer&#45;&gt;proc~destroy_json_data</title>
<path fill="none" stroke="black" d="M604.521,-101C617.884,-101 634.054,-101 649.677,-101"/>
<polygon fill="black" stroke="black" points="649.83,-104.5 659.829,-101 649.829,-97.5001 649.83,-104.5"/>
</g>
<!-- proc~to_uni_vec -->
<g id="node11" class="node"><title>proc~to_uni_vec</title>
<a xlink:href="../proc/to_uni_vec.html" xlink:title="to_uni_vec">
<polygon fill="#d94e8f" stroke="#d94e8f" points="606,-70 542,-70 542,-44 606,-44 606,-70"/>
<text text-anchor="middle" x="574" y="-54.55" font-family="Helvetica,sans-Serif" font-size="10.50" fill="white">to_uni_vec</text>
</a>
</g>
<!-- interface~to_unicode&#45;&gt;proc~to_uni_vec -->
<g id="edge8" class="edge"><title>interface~to_unicode&#45;&gt;proc~to_uni_vec</title>
<path fill="none" stroke="black" stroke-dasharray="5,2" d="M450.703,-57C474.26,-57 506.254,-57 531.747,-57"/>
<polygon fill="black" stroke="black" points="531.875,-60.5001 541.875,-57 531.875,-53.5001 531.875,-60.5001"/>
</g>
<!-- proc~to_uni -->
<g id="node12" class="node"><title>proc~to_uni</title>
<a xlink:href="../proc/to_uni.html" xlink:title="to_uni">
<polygon fill="#d94e8f" stroke="#d94e8f" points="601,-26 547,-26 547,-1.24345e-14 601,-3.55271e-15 601,-26"/>
<text text-anchor="middle" x="574" y="-10.55" font-family="Helvetica,sans-Serif" font-size="10.50" fill="white">to_uni</text>
</a>
</g>
<!-- interface~to_unicode&#45;&gt;proc~to_uni -->
<g id="edge10" class="edge"><title>interface~to_unicode&#45;&gt;proc~to_uni</title>
<path fill="none" stroke="black" stroke-dasharray="5,2" d="M450.703,-47.7762C475.864,-40.6795 510.648,-30.8686 536.857,-23.4763"/>
<polygon fill="black" stroke="black" points="538.124,-26.7555 546.798,-20.6723 536.224,-20.0184 538.124,-26.7555"/>
</g>
</g>
</svg>
