<?xml version="1.0" encoding="UTF-8" standalone="no"?>
<!DOCTYPE svg PUBLIC "-//W3C//DTD SVG 1.1//EN"
 "http://www.w3.org/Graphics/SVG/1.1/DTD/svg11.dtd">
<!-- Generated by graphviz version 2.26.3 (20100126.1600)
 -->
<!-- Title: interface~~json_create_array~~CalledByGraph Pages: 1 -->
<svg width="288pt" height="78pt"
 viewBox="0.00 0.00 288.00 78.00" xmlns="http://www.w3.org/2000/svg" xmlns:xlink="http://www.w3.org/1999/xlink">
<g id="graph1" class="graph" transform="scale(1 1) rotate(0) translate(4 74)">
<title>interface~~json_create_array~~CalledByGraph</title>
<polygon fill="white" stroke="white" points="-4,5 -4,-74 285,-74 285,5 -4,5"/>
<!-- interface~json_create_array -->
<g id="node1" class="node"><title>interface~json_create_array</title>
<polygon fill="none" stroke="black" points="279,-48 181,-48 181,-22 279,-22 279,-48"/>
<text text-anchor="middle" x="230" y="-32.55" font-family="Helvetica,sans-Serif" font-size="10.50">json_create_array</text>
</g>
<!-- proc~test_7 -->
<g id="node2" class="node"><title>proc~test_7</title>
<a xlink:href="../proc/test_7.html" xlink:title="test_7">
<polygon fill="#d9534f" stroke="#d9534f" points="144,-70 90,-70 90,-44 144,-44 144,-70"/>
<text text-anchor="middle" x="117" y="-54.55" font-family="Helvetica,sans-Serif" font-size="10.50" fill="white">test_7</text>
</a>
</g>
<!-- proc~test_7&#45;&gt;interface~json_create_array -->
<g id="edge6" class="edge"><title>proc~test_7&#45;&gt;interface~json_create_array</title>
<path fill="none" stroke="black" d="M144.066,-51.7305C152.026,-50.1808 161.067,-48.4206 170.223,-46.638"/>
<polygon fill="black" stroke="black" points="171.011,-50.0504 180.158,-44.7038 169.673,-43.1794 171.011,-50.0504"/>
</g>
<!-- proc~test_2 -->
<g id="node3" class="node"><title>proc~test_2</title>
<a xlink:href="../proc/test_2.html" xlink:title="test_2">
<polygon fill="#d9534f" stroke="#d9534f" points="144,-26 90,-26 90,-1.24345e-14 144,-3.55271e-15 144,-26"/>
<text text-anchor="middle" x="117" y="-10.55" font-family="Helvetica,sans-Serif" font-size="10.50" fill="white">test_2</text>
</a>
</g>
<!-- proc~test_2&#45;&gt;interface~json_create_array -->
<g id="edge8" class="edge"><title>proc~test_2&#45;&gt;interface~json_create_array</title>
<path fill="none" stroke="black" d="M144.066,-18.2695C152.026,-19.8192 161.067,-21.5794 170.223,-23.362"/>
<polygon fill="black" stroke="black" points="169.673,-26.8206 180.158,-25.2962 171.011,-19.9496 169.673,-26.8206"/>
</g>
<!-- program~jf_test_7 -->
<g id="node4" class="node"><title>program~jf_test_7</title>
<a xlink:href="../program/jf_test_7.html" xlink:title="jf_test_7">
<polygon fill="#f0ad4e" stroke="#f0ad4e" points="54,-70 2.13163e-14,-70 0,-44 54,-44 54,-70"/>
<text text-anchor="middle" x="27" y="-54.55" font-family="Helvetica,sans-Serif" font-size="10.50" fill="white">jf_test_7</text>
</a>
</g>
<!-- program~jf_test_7&#45;&gt;proc~test_7 -->
<g id="edge2" class="edge"><title>program~jf_test_7&#45;&gt;proc~test_7</title>
<path fill="none" stroke="black" d="M54.003,-57C62.0277,-57 70.9665,-57 79.5309,-57"/>
<polygon fill="black" stroke="black" points="79.7051,-60.5001 89.705,-57 79.705,-53.5001 79.7051,-60.5001"/>
</g>
<!-- program~jf_test_2 -->
<g id="node6" class="node"><title>program~jf_test_2</title>
<a xlink:href="../program/jf_test_2.html" xlink:title="jf_test_2">
<polygon fill="#f0ad4e" stroke="#f0ad4e" points="54,-26 2.13163e-14,-26 0,-1.24345e-14 54,-3.55271e-15 54,-26"/>
<text text-anchor="middle" x="27" y="-10.55" font-family="Helvetica,sans-Serif" font-size="10.50" fill="white">jf_test_2</text>
</a>
</g>
<!-- program~jf_test_2&#45;&gt;proc~test_2 -->
<g id="edge4" class="edge"><title>program~jf_test_2&#45;&gt;proc~test_2</title>
<path fill="none" stroke="black" d="M54.003,-13C62.0277,-13 70.9665,-13 79.5309,-13"/>
<polygon fill="black" stroke="black" points="79.7051,-16.5001 89.705,-13 79.705,-9.5001 79.7051,-16.5001"/>
</g>
</g>
</svg>
