<?xml version="1.0" encoding="UTF-8" standalone="no"?>
<!DOCTYPE svg PUBLIC "-//W3C//DTD SVG 1.1//EN"
 "http://www.w3.org/Graphics/SVG/1.1/DTD/svg11.dtd">
<!-- Generated by graphviz version 2.26.3 (20100126.1600)
 -->
<!-- Title: interface~~json_create_double~~CallsGraph Pages: 1 -->
<svg width="641pt" height="139pt"
 viewBox="0.00 0.00 641.00 139.27" xmlns="http://www.w3.org/2000/svg" xmlns:xlink="http://www.w3.org/1999/xlink">
<g id="graph1" class="graph" transform="scale(0.839005 0.839005) rotate(0) translate(4 162)">
<title>interface~~json_create_double~~CallsGraph</title>
<polygon fill="white" stroke="white" points="-4,5 -4,-162 761,-162 761,5 -4,5"/>
<!-- interface~json_create_double -->
<g id="node1" class="node"><title>interface~json_create_double</title>
<polygon fill="none" stroke="black" points="106,-93 3.55271e-14,-93 0,-67 106,-67 106,-93"/>
<text text-anchor="middle" x="53" y="-77.55" font-family="Helvetica,sans-Serif" font-size="10.50">json_create_double</text>
</g>
<!-- proc~wrap_json_value_create_double -->
<g id="node2" class="node"><title>proc~wrap_json_value_create_double</title>
<a xlink:href="../proc/wrap_json_value_create_double.html" xlink:title="wrap_json_value_create_double">
<polygon fill="#d9534f" stroke="#d9534f" points="309,-73 143,-73 143,-47 309,-47 309,-73"/>
<text text-anchor="middle" x="226" y="-57.55" font-family="Helvetica,sans-Serif" font-size="10.50" fill="white">wrap_json_value_create_double</text>
</a>
</g>
<!-- interface~json_create_double&#45;&gt;proc~wrap_json_value_create_double -->
<g id="edge16" class="edge"><title>interface~json_create_double&#45;&gt;proc~wrap_json_value_create_double</title>
<path fill="none" stroke="black" stroke-dasharray="5,2" d="M106.317,-73.8361C114.613,-72.8771 123.388,-71.8627 132.265,-70.8364"/>
<polygon fill="black" stroke="black" points="132.78,-74.3003 142.312,-69.6749 131.976,-67.3466 132.78,-74.3003"/>
</g>
<!-- proc~json_value_create_double -->
<g id="node3" class="node"><title>proc~json_value_create_double</title>
<a xlink:href="../proc/json_value_create_double.html" xlink:title="json_value_create_double">
<polygon fill="#d9534f" stroke="#d9534f" points="484,-114 346,-114 346,-88 484,-88 484,-114"/>
<text text-anchor="middle" x="415" y="-98.55" font-family="Helvetica,sans-Serif" font-size="10.50" fill="white">json_value_create_double</text>
</a>
</g>
<!-- interface~json_create_double&#45;&gt;proc~json_value_create_double -->
<g id="edge18" class="edge"><title>interface~json_create_double&#45;&gt;proc~json_value_create_double</title>
<path fill="none" stroke="black" stroke-dasharray="5,2" d="M106.026,-83.0761C166.484,-86.5834 265.946,-92.3532 335.647,-96.3967"/>
<polygon fill="black" stroke="black" points="335.521,-99.8951 345.707,-96.9802 335.927,-92.9069 335.521,-99.8951"/>
</g>
<!-- proc~wrap_json_value_create_double&#45;&gt;proc~json_value_create_double -->
<g id="edge8" class="edge"><title>proc~wrap_json_value_create_double&#45;&gt;proc~json_value_create_double</title>
<path fill="none" stroke="black" d="M286.06,-73.029C304.746,-77.0824 325.512,-81.5872 344.824,-85.7766"/>
<polygon fill="black" stroke="black" points="344.257,-89.2349 354.772,-87.9346 345.741,-82.394 344.257,-89.2349"/>
</g>
<!-- interface~to_unicode -->
<g id="node4" class="node"><title>interface~to_unicode</title>
<a xlink:href="../interface/to_unicode.html" xlink:title="to_unicode">
<polygon fill="#a7506f" stroke="#a7506f" points="447,-70 383,-70 383,-44 447,-44 447,-70"/>
<text text-anchor="middle" x="415" y="-54.55" font-family="Helvetica,sans-Serif" font-size="10.50" fill="white">to_unicode</text>
</a>
</g>
<!-- proc~wrap_json_value_create_double&#45;&gt;interface~to_unicode -->
<g id="edge6" class="edge"><title>proc~wrap_json_value_create_double&#45;&gt;interface~to_unicode</title>
<path fill="none" stroke="black" d="M309.724,-58.6711C331.284,-58.3288 353.603,-57.9746 372.111,-57.6808"/>
<polygon fill="black" stroke="black" points="372.309,-61.1782 382.252,-57.5198 372.198,-54.1791 372.309,-61.1782"/>
</g>
<!-- proc~json_value_create -->
<g id="node11" class="node"><title>proc~json_value_create</title>
<a xlink:href="../proc/json_value_create.html" xlink:title="json_value_create">
<polygon fill="#d9534f" stroke="#d9534f" points="620,-158 520,-158 520,-132 620,-132 620,-158"/>
<text text-anchor="middle" x="570" y="-142.55" font-family="Helvetica,sans-Serif" font-size="10.50" fill="white">json_value_create</text>
</a>
</g>
<!-- proc~json_value_create_double&#45;&gt;proc~json_value_create -->
<g id="edge12" class="edge"><title>proc~json_value_create_double&#45;&gt;proc~json_value_create</title>
<path fill="none" stroke="black" d="M461.085,-114.082C477.721,-118.805 496.68,-124.187 514.067,-129.122"/>
<polygon fill="black" stroke="black" points="513.516,-132.604 524.092,-131.968 515.428,-125.87 513.516,-132.604"/>
</g>
<!-- proc~to_double -->
<g id="node12" class="node"><title>proc~to_double</title>
<a xlink:href="../proc/to_double.html" xlink:title="to_double">
<polygon fill="#d9534f" stroke="#d9534f" points="600,-114 540,-114 540,-88 600,-88 600,-114"/>
<text text-anchor="middle" x="570" y="-98.55" font-family="Helvetica,sans-Serif" font-size="10.50" fill="white">to_double</text>
</a>
</g>
<!-- proc~json_value_create_double&#45;&gt;proc~to_double -->
<g id="edge14" class="edge"><title>proc~json_value_create_double&#45;&gt;proc~to_double</title>
<path fill="none" stroke="black" d="M484.34,-101C499.884,-101 515.871,-101 529.762,-101"/>
<polygon fill="black" stroke="black" points="529.934,-104.5 539.934,-101 529.933,-97.5001 529.934,-104.5"/>
</g>
<!-- proc~to_uni_vec -->
<g id="node5" class="node"><title>proc~to_uni_vec</title>
<a xlink:href="../proc/to_uni_vec.html" xlink:title="to_uni_vec">
<polygon fill="#d94e8f" stroke="#d94e8f" points="602,-70 538,-70 538,-44 602,-44 602,-70"/>
<text text-anchor="middle" x="570" y="-54.55" font-family="Helvetica,sans-Serif" font-size="10.50" fill="white">to_uni_vec</text>
</a>
</g>
<!-- interface~to_unicode&#45;&gt;proc~to_uni_vec -->
<g id="edge2" class="edge"><title>interface~to_unicode&#45;&gt;proc~to_uni_vec</title>
<path fill="none" stroke="black" stroke-dasharray="5,2" d="M447.872,-57C471.225,-57 502.779,-57 527.963,-57"/>
<polygon fill="black" stroke="black" points="527.972,-60.5001 537.972,-57 527.972,-53.5001 527.972,-60.5001"/>
</g>
<!-- proc~to_uni -->
<g id="node6" class="node"><title>proc~to_uni</title>
<a xlink:href="../proc/to_uni.html" xlink:title="to_uni">
<polygon fill="#d94e8f" stroke="#d94e8f" points="597,-26 543,-26 543,-1.24345e-14 597,-3.55271e-15 597,-26"/>
<text text-anchor="middle" x="570" y="-10.55" font-family="Helvetica,sans-Serif" font-size="10.50" fill="white">to_uni</text>
</a>
</g>
<!-- interface~to_unicode&#45;&gt;proc~to_uni -->
<g id="edge4" class="edge"><title>interface~to_unicode&#45;&gt;proc~to_uni</title>
<path fill="none" stroke="black" stroke-dasharray="5,2" d="M447.872,-47.6687C472.819,-40.5869 507.126,-30.8482 533.028,-23.4953"/>
<polygon fill="black" stroke="black" points="534.193,-26.803 542.857,-20.7051 532.281,-20.069 534.193,-26.803"/>
</g>
<!-- proc~destroy_json_data -->
<g id="node13" class="node"><title>proc~destroy_json_data</title>
<a xlink:href="../proc/destroy_json_data.html" xlink:title="destroy_json_data">
<polygon fill="#d9534f" stroke="#d9534f" points="756,-114 656,-114 656,-88 756,-88 756,-114"/>
<text text-anchor="middle" x="706" y="-98.55" font-family="Helvetica,sans-Serif" font-size="10.50" fill="white">destroy_json_data</text>
</a>
</g>
<!-- proc~to_double&#45;&gt;proc~destroy_json_data -->
<g id="edge10" class="edge"><title>proc~to_double&#45;&gt;proc~destroy_json_data</title>
<path fill="none" stroke="black" d="M600.183,-101C613.599,-101 629.896,-101 645.639,-101"/>
<polygon fill="black" stroke="black" points="645.869,-104.5 655.869,-101 645.869,-97.5001 645.869,-104.5"/>
</g>
</g>
</svg>
