<?xml version="1.0" encoding="UTF-8" standalone="no"?>
<!DOCTYPE svg PUBLIC "-//W3C//DTD SVG 1.1//EN"
 "http://www.w3.org/Graphics/SVG/1.1/DTD/svg11.dtd">
<!-- Generated by graphviz version 2.26.3 (20100126.1600)
 -->
<!-- Title: interface~~json_create_null~~CallsGraph Pages: 1 -->
<svg width="641pt" height="148pt"
 viewBox="0.00 0.00 641.00 148.20" xmlns="http://www.w3.org/2000/svg" xmlns:xlink="http://www.w3.org/1999/xlink">
<g id="graph1" class="graph" transform="scale(0.892758 0.892758) rotate(0) translate(4 162)">
<title>interface~~json_create_null~~CallsGraph</title>
<polygon fill="white" stroke="white" points="-4,5 -4,-162 715,-162 715,5 -4,5"/>
<!-- interface~json_create_null -->
<g id="node1" class="node"><title>interface~json_create_null</title>
<polygon fill="none" stroke="black" points="91,-93 1,-93 1,-67 91,-67 91,-93"/>
<text text-anchor="middle" x="46" y="-77.55" font-family="Helvetica,sans-Serif" font-size="10.50">json_create_null</text>
</g>
<!-- proc~wrap_json_value_create_null -->
<g id="node2" class="node"><title>proc~wrap_json_value_create_null</title>
<a xlink:href="../proc/wrap_json_value_create_null.html" xlink:title="wrap_json_value_create_null">
<polygon fill="#d9534f" stroke="#d9534f" points="279,-73 129,-73 129,-47 279,-47 279,-73"/>
<text text-anchor="middle" x="204" y="-57.55" font-family="Helvetica,sans-Serif" font-size="10.50" fill="white">wrap_json_value_create_null</text>
</a>
</g>
<!-- interface~json_create_null&#45;&gt;proc~wrap_json_value_create_null -->
<g id="edge16" class="edge"><title>interface~json_create_null&#45;&gt;proc~wrap_json_value_create_null</title>
<path fill="none" stroke="black" stroke-dasharray="5,2" d="M91.7001,-74.2152C100.133,-73.1477 109.186,-72.0017 118.36,-70.8406"/>
<polygon fill="black" stroke="black" points="118.856,-74.3058 128.337,-69.5776 117.977,-67.3612 118.856,-74.3058"/>
</g>
<!-- proc~json_value_create_null -->
<g id="node3" class="node"><title>proc~json_value_create_null</title>
<a xlink:href="../proc/json_value_create_null.html" xlink:title="json_value_create_null">
<polygon fill="#d9534f" stroke="#d9534f" points="438,-114 316,-114 316,-88 438,-88 438,-114"/>
<text text-anchor="middle" x="377" y="-98.55" font-family="Helvetica,sans-Serif" font-size="10.50" fill="white">json_value_create_null</text>
</a>
</g>
<!-- interface~json_create_null&#45;&gt;proc~json_value_create_null -->
<g id="edge18" class="edge"><title>interface~json_create_null&#45;&gt;proc~json_value_create_null</title>
<path fill="none" stroke="black" stroke-dasharray="5,2" d="M91.6766,-82.8979C146.977,-86.4064 240.747,-92.3556 305.618,-96.4713"/>
<polygon fill="black" stroke="black" points="305.57,-99.9751 315.771,-97.1154 306.013,-92.9892 305.57,-99.9751"/>
</g>
<!-- proc~wrap_json_value_create_null&#45;&gt;proc~json_value_create_null -->
<g id="edge8" class="edge"><title>proc~wrap_json_value_create_null&#45;&gt;proc~json_value_create_null</title>
<path fill="none" stroke="black" d="M259.214,-73.0854C275.994,-77.0623 294.59,-81.4694 311.955,-85.5847"/>
<polygon fill="black" stroke="black" points="311.476,-89.0681 322.014,-87.9686 313.09,-82.2568 311.476,-89.0681"/>
</g>
<!-- interface~to_unicode -->
<g id="node4" class="node"><title>interface~to_unicode</title>
<a xlink:href="../interface/to_unicode.html" xlink:title="to_unicode">
<polygon fill="#a7506f" stroke="#a7506f" points="409,-70 345,-70 345,-44 409,-44 409,-70"/>
<text text-anchor="middle" x="377" y="-54.55" font-family="Helvetica,sans-Serif" font-size="10.50" fill="white">to_unicode</text>
</a>
</g>
<!-- proc~wrap_json_value_create_null&#45;&gt;interface~to_unicode -->
<g id="edge6" class="edge"><title>proc~wrap_json_value_create_null&#45;&gt;interface~to_unicode</title>
<path fill="none" stroke="black" d="M279.629,-58.6885C298.275,-58.3652 317.605,-58.03 334.081,-57.7443"/>
<polygon fill="black" stroke="black" points="334.521,-61.2372 344.459,-57.5643 334.4,-54.2383 334.521,-61.2372"/>
</g>
<!-- proc~json_value_create -->
<g id="node11" class="node"><title>proc~json_value_create</title>
<a xlink:href="../proc/json_value_create.html" xlink:title="json_value_create">
<polygon fill="#d9534f" stroke="#d9534f" points="574,-158 474,-158 474,-132 574,-132 574,-158"/>
<text text-anchor="middle" x="524" y="-142.55" font-family="Helvetica,sans-Serif" font-size="10.50" fill="white">json_value_create</text>
</a>
</g>
<!-- proc~json_value_create_null&#45;&gt;proc~json_value_create -->
<g id="edge12" class="edge"><title>proc~json_value_create_null&#45;&gt;proc~json_value_create</title>
<path fill="none" stroke="black" d="M420.707,-114.082C436.336,-118.76 454.129,-124.086 470.491,-128.984"/>
<polygon fill="black" stroke="black" points="469.878,-132.454 480.462,-131.968 471.885,-125.747 469.878,-132.454"/>
</g>
<!-- proc~to_null -->
<g id="node12" class="node"><title>proc~to_null</title>
<a xlink:href="../proc/to_null.html" xlink:title="to_null">
<polygon fill="#d9534f" stroke="#d9534f" points="551,-114 497,-114 497,-88 551,-88 551,-114"/>
<text text-anchor="middle" x="524" y="-98.55" font-family="Helvetica,sans-Serif" font-size="10.50" fill="white">to_null</text>
</a>
</g>
<!-- proc~json_value_create_null&#45;&gt;proc~to_null -->
<g id="edge14" class="edge"><title>proc~json_value_create_null&#45;&gt;proc~to_null</title>
<path fill="none" stroke="black" d="M438.064,-101C454.568,-101 471.933,-101 486.7,-101"/>
<polygon fill="black" stroke="black" points="486.944,-104.5 496.944,-101 486.944,-97.5001 486.944,-104.5"/>
</g>
<!-- proc~to_uni_vec -->
<g id="node5" class="node"><title>proc~to_uni_vec</title>
<a xlink:href="../proc/to_uni_vec.html" xlink:title="to_uni_vec">
<polygon fill="#d94e8f" stroke="#d94e8f" points="556,-70 492,-70 492,-44 556,-44 556,-70"/>
<text text-anchor="middle" x="524" y="-54.55" font-family="Helvetica,sans-Serif" font-size="10.50" fill="white">to_uni_vec</text>
</a>
</g>
<!-- interface~to_unicode&#45;&gt;proc~to_uni_vec -->
<g id="edge2" class="edge"><title>interface~to_unicode&#45;&gt;proc~to_uni_vec</title>
<path fill="none" stroke="black" stroke-dasharray="5,2" d="M409.624,-57C430.896,-57 458.865,-57 481.821,-57"/>
<polygon fill="black" stroke="black" points="481.973,-60.5001 491.973,-57 481.973,-53.5001 481.973,-60.5001"/>
</g>
<!-- proc~to_uni -->
<g id="node6" class="node"><title>proc~to_uni</title>
<a xlink:href="../proc/to_uni.html" xlink:title="to_uni">
<polygon fill="#d94e8f" stroke="#d94e8f" points="551,-26 497,-26 497,-1.24345e-14 551,-3.55271e-15 551,-26"/>
<text text-anchor="middle" x="524" y="-10.55" font-family="Helvetica,sans-Serif" font-size="10.50" fill="white">to_uni</text>
</a>
</g>
<!-- interface~to_unicode&#45;&gt;proc~to_uni -->
<g id="edge4" class="edge"><title>interface~to_unicode&#45;&gt;proc~to_uni</title>
<path fill="none" stroke="black" stroke-dasharray="5,2" d="M409.624,-47.235C432.568,-40.3675 463.303,-31.1678 487.135,-24.0345"/>
<polygon fill="black" stroke="black" points="488.306,-27.3373 496.883,-21.1167 486.299,-20.6313 488.306,-27.3373"/>
</g>
<!-- proc~destroy_json_data -->
<g id="node13" class="node"><title>proc~destroy_json_data</title>
<a xlink:href="../proc/destroy_json_data.html" xlink:title="destroy_json_data">
<polygon fill="#d9534f" stroke="#d9534f" points="710,-114 610,-114 610,-88 710,-88 710,-114"/>
<text text-anchor="middle" x="660" y="-98.55" font-family="Helvetica,sans-Serif" font-size="10.50" fill="white">destroy_json_data</text>
</a>
</g>
<!-- proc~to_null&#45;&gt;proc~destroy_json_data -->
<g id="edge10" class="edge"><title>proc~to_null&#45;&gt;proc~destroy_json_data</title>
<path fill="none" stroke="black" d="M551.195,-101C565.06,-101 582.518,-101 599.366,-101"/>
<polygon fill="black" stroke="black" points="599.739,-104.5 609.739,-101 599.739,-97.5001 599.739,-104.5"/>
</g>
</g>
</svg>
