<?xml version="1.0" encoding="UTF-8" standalone="no"?>
<!DOCTYPE svg PUBLIC "-//W3C//DTD SVG 1.1//EN"
 "http://www.w3.org/Graphics/SVG/1.1/DTD/svg11.dtd">
<!-- Generated by graphviz version 2.26.3 (20100126.1600)
 -->
<!-- Title: interface~~json_destroy~~CallsGraph Pages: 1 -->
<svg width="360pt" height="52pt"
 viewBox="0.00 0.00 360.00 52.00" xmlns="http://www.w3.org/2000/svg" xmlns:xlink="http://www.w3.org/1999/xlink">
<g id="graph1" class="graph" transform="scale(1 1) rotate(0) translate(4 48)">
<title>interface~~json_destroy~~CallsGraph</title>
<polygon fill="white" stroke="white" points="-4,5 -4,-48 357,-48 357,5 -4,5"/>
<!-- interface~json_destroy -->
<g id="node1" class="node"><title>interface~json_destroy</title>
<polygon fill="none" stroke="black" points="73,-26 1,-26 1,-1.24345e-14 73,-3.55271e-15 73,-26"/>
<text text-anchor="middle" x="37" y="-10.55" font-family="Helvetica,sans-Serif" font-size="10.50">json_destroy</text>
</g>
<!-- proc~json_value_destroy -->
<g id="node2" class="node"><title>proc~json_value_destroy</title>
<a xlink:href="../proc/json_value_destroy.html" xlink:title="json_value_destroy">
<polygon fill="#d9534f" stroke="#d9534f" points="215,-26 111,-26 111,-1.24345e-14 215,-3.55271e-15 215,-26"/>
<text text-anchor="middle" x="163" y="-10.55" font-family="Helvetica,sans-Serif" font-size="10.50" fill="white">json_value_destroy</text>
</a>
</g>
<!-- interface~json_destroy&#45;&gt;proc~json_value_destroy -->
<g id="edge6" class="edge"><title>interface~json_destroy&#45;&gt;proc~json_value_destroy</title>
<path fill="none" stroke="black" stroke-dasharray="5,2" d="M73.7831,-13C82.1217,-13 91.2062,-13 100.283,-13"/>
<polygon fill="black" stroke="black" points="100.487,-16.5001 110.487,-13 100.487,-9.5001 100.487,-16.5001"/>
</g>
<!-- proc~json_value_destroy&#45;&gt;proc~json_value_destroy -->
<g id="edge4" class="edge"><title>proc~json_value_destroy&#45;&gt;proc~json_value_destroy</title>
<path fill="none" stroke="black" d="M141.682,-26.0602C135.222,-35.0996 142.328,-44 163,-44 175.597,-44 183.156,-40.6949 185.678,-36.0674"/>
<polygon fill="black" stroke="black" points="189.133,-35.4976 184.318,-26.0602 182.197,-36.4405 189.133,-35.4976"/>
</g>
<!-- proc~destroy_json_data -->
<g id="node3" class="node"><title>proc~destroy_json_data</title>
<a xlink:href="../proc/destroy_json_data.html" xlink:title="destroy_json_data">
<polygon fill="#d9534f" stroke="#d9534f" points="352,-26 252,-26 252,-1.24345e-14 352,-3.55271e-15 352,-26"/>
<text text-anchor="middle" x="302" y="-10.55" font-family="Helvetica,sans-Serif" font-size="10.50" fill="white">destroy_json_data</text>
</a>
</g>
<!-- proc~json_value_destroy&#45;&gt;proc~destroy_json_data -->
<g id="edge2" class="edge"><title>proc~json_value_destroy&#45;&gt;proc~destroy_json_data</title>
<path fill="none" stroke="black" d="M215.55,-13C224.06,-13 232.93,-13 241.608,-13"/>
<polygon fill="black" stroke="black" points="241.674,-16.5001 251.673,-13 241.673,-9.5001 241.674,-16.5001"/>
</g>
</g>
</svg>
