<?xml version="1.0" encoding="UTF-8" standalone="no"?>
<!DOCTYPE svg PUBLIC "-//W3C//DTD SVG 1.1//EN"
 "http://www.w3.org/Graphics/SVG/1.1/DTD/svg11.dtd">
<!-- Generated by graphviz version 2.26.3 (20100126.1600)
 -->
<!-- Title: interface~~json_remove~~CalledByGraph Pages: 1 -->
<svg width="641pt" height="107pt"
 viewBox="0.00 0.00 641.00 106.83" xmlns="http://www.w3.org/2000/svg" xmlns:xlink="http://www.w3.org/1999/xlink">
<g id="graph1" class="graph" transform="scale(0.752347 0.752347) rotate(0) translate(4 138)">
<title>interface~~json_remove~~CalledByGraph</title>
<polygon fill="white" stroke="white" points="-4,5 -4,-138 849,-138 849,5 -4,5"/>
<!-- interface~json_remove -->
<g id="node1" class="node"><title>interface~json_remove</title>
<polygon fill="none" stroke="black" points="844,-70 770,-70 770,-44 844,-44 844,-70"/>
<text text-anchor="middle" x="807" y="-54.55" font-family="Helvetica,sans-Serif" font-size="10.50">json_remove</text>
</g>
<!-- proc~json_value_remove_if_present -->
<g id="node2" class="node"><title>proc~json_value_remove_if_present</title>
<a xlink:href="../proc/json_value_remove_if_present.html" xlink:title="json_value_remove_if_present">
<polygon fill="#d9534f" stroke="#d9534f" points="733,-114 575,-114 575,-88 733,-88 733,-114"/>
<text text-anchor="middle" x="654" y="-98.55" font-family="Helvetica,sans-Serif" font-size="10.50" fill="white">json_value_remove_if_present</text>
</a>
</g>
<!-- proc~json_value_remove_if_present&#45;&gt;interface~json_remove -->
<g id="edge16" class="edge"><title>proc~json_value_remove_if_present&#45;&gt;interface~json_remove</title>
<path fill="none" stroke="black" d="M702.28,-87.9271C712.752,-85.0346 723.757,-81.9513 734,-79 742.502,-76.5503 751.541,-73.8799 760.257,-71.2712"/>
<polygon fill="black" stroke="black" points="761.346,-74.5986 769.915,-68.367 759.33,-67.8951 761.346,-74.5986"/>
</g>
<!-- proc~test_7 -->
<g id="node3" class="node"><title>proc~test_7</title>
<a xlink:href="../proc/test_7.html" xlink:title="test_7">
<polygon fill="#d9534f" stroke="#d9534f" points="681,-70 627,-70 627,-44 681,-44 681,-70"/>
<text text-anchor="middle" x="654" y="-54.55" font-family="Helvetica,sans-Serif" font-size="10.50" fill="white">test_7</text>
</a>
</g>
<!-- proc~test_7&#45;&gt;interface~json_remove -->
<g id="edge18" class="edge"><title>proc~test_7&#45;&gt;interface~json_remove</title>
<path fill="none" stroke="black" d="M681.001,-57C702.813,-57 734.032,-57 759.938,-57"/>
<polygon fill="black" stroke="black" points="759.939,-60.5001 769.939,-57 759.939,-53.5001 759.939,-60.5001"/>
</g>
<!-- proc~test_1 -->
<g id="node4" class="node"><title>proc~test_1</title>
<a xlink:href="../proc/test_1.html" xlink:title="test_1">
<polygon fill="#d9534f" stroke="#d9534f" points="681,-26 627,-26 627,-1.24345e-14 681,-3.55271e-15 681,-26"/>
<text text-anchor="middle" x="654" y="-10.55" font-family="Helvetica,sans-Serif" font-size="10.50" fill="white">test_1</text>
</a>
</g>
<!-- proc~test_1&#45;&gt;interface~json_remove -->
<g id="edge20" class="edge"><title>proc~test_1&#45;&gt;interface~json_remove</title>
<path fill="none" stroke="black" d="M681.078,-20.2705C696.595,-24.481 716.421,-29.9349 734,-35 742.502,-37.4497 751.541,-40.1201 760.257,-42.7288"/>
<polygon fill="black" stroke="black" points="759.33,-46.1049 769.915,-45.633 761.346,-39.4014 759.33,-46.1049"/>
</g>
<!-- proc~wrap_json_value_remove_if_present -->
<g id="node5" class="node"><title>proc~wrap_json_value_remove_if_present</title>
<a xlink:href="../proc/wrap_json_value_remove_if_present.html" xlink:title="wrap_json_value_remove_if_present">
<polygon fill="#d9534f" stroke="#d9534f" points="538,-114 350,-114 350,-88 538,-88 538,-114"/>
<text text-anchor="middle" x="444" y="-98.55" font-family="Helvetica,sans-Serif" font-size="10.50" fill="white">wrap_json_value_remove_if_present</text>
</a>
</g>
<!-- proc~wrap_json_value_remove_if_present&#45;&gt;proc~json_value_remove_if_present -->
<g id="edge8" class="edge"><title>proc~wrap_json_value_remove_if_present&#45;&gt;proc~json_value_remove_if_present</title>
<path fill="none" stroke="black" d="M538.25,-101C546.949,-101 555.748,-101 564.404,-101"/>
<polygon fill="black" stroke="black" points="564.485,-104.5 574.485,-101 564.485,-97.5001 564.485,-104.5"/>
</g>
<!-- interface~json_remove_if_present -->
<g id="node6" class="node"><title>interface~json_remove_if_present</title>
<a xlink:href="../interface/json_remove_if_present.html" xlink:title="json_remove_if_present">
<polygon fill="#a7506f" stroke="#a7506f" points="313,-134 187,-134 187,-108 313,-108 313,-134"/>
<text text-anchor="middle" x="250" y="-118.55" font-family="Helvetica,sans-Serif" font-size="10.50" fill="white">json_remove_if_present</text>
</a>
</g>
<!-- interface~json_remove_if_present&#45;&gt;proc~json_value_remove_if_present -->
<g id="edge10" class="edge"><title>interface~json_remove_if_present&#45;&gt;proc~json_value_remove_if_present</title>
<path fill="none" stroke="black" stroke-dasharray="5,2" d="M313.746,-122.466C325.787,-122.688 338.279,-122.883 350,-123 433.551,-123.835 454.811,-130.819 538,-123 553.82,-121.513 570.696,-118.909 586.537,-116.002"/>
<polygon fill="black" stroke="black" points="587.606,-119.361 596.776,-114.056 586.299,-112.484 587.606,-119.361"/>
</g>
<!-- interface~json_remove_if_present&#45;&gt;proc~wrap_json_value_remove_if_present -->
<g id="edge6" class="edge"><title>interface~json_remove_if_present&#45;&gt;proc~wrap_json_value_remove_if_present</title>
<path fill="none" stroke="black" stroke-dasharray="5,2" d="M313.523,-114.451C321.953,-113.582 330.768,-112.673 339.666,-111.756"/>
<polygon fill="black" stroke="black" points="340.142,-115.226 349.73,-110.719 339.424,-108.263 340.142,-115.226"/>
</g>
<!-- proc~test_10 -->
<g id="node7" class="node"><title>proc~test_10</title>
<a xlink:href="../proc/test_10.html" xlink:title="test_10">
<polygon fill="#d9534f" stroke="#d9534f" points="150,-134 96,-134 96,-108 150,-108 150,-134"/>
<text text-anchor="middle" x="123" y="-118.55" font-family="Helvetica,sans-Serif" font-size="10.50" fill="white">test_10</text>
</a>
</g>
<!-- proc~test_10&#45;&gt;interface~json_remove_if_present -->
<g id="edge4" class="edge"><title>proc~test_10&#45;&gt;interface~json_remove_if_present</title>
<path fill="none" stroke="black" d="M150.245,-121C158.059,-121 166.975,-121 176.189,-121"/>
<polygon fill="black" stroke="black" points="176.266,-124.5 186.266,-121 176.266,-117.5 176.266,-124.5"/>
</g>
<!-- program~jf_test_10 -->
<g id="node8" class="node"><title>program~jf_test_10</title>
<a xlink:href="../program/jf_test_10.html" xlink:title="jf_test_10">
<polygon fill="#f0ad4e" stroke="#f0ad4e" points="59,-134 1,-134 1,-108 59,-108 59,-134"/>
<text text-anchor="middle" x="30" y="-118.55" font-family="Helvetica,sans-Serif" font-size="10.50" fill="white">jf_test_10</text>
</a>
</g>
<!-- program~jf_test_10&#45;&gt;proc~test_10 -->
<g id="edge2" class="edge"><title>program~jf_test_10&#45;&gt;proc~test_10</title>
<path fill="none" stroke="black" d="M59.6815,-121C67.9202,-121 76.973,-121 85.5921,-121"/>
<polygon fill="black" stroke="black" points="85.8066,-124.5 95.8065,-121 85.8065,-117.5 85.8066,-124.5"/>
</g>
<!-- program~jf_test_7 -->
<g id="node14" class="node"><title>program~jf_test_7</title>
<a xlink:href="../program/jf_test_7.html" xlink:title="jf_test_7">
<polygon fill="#f0ad4e" stroke="#f0ad4e" points="471,-70 417,-70 417,-44 471,-44 471,-70"/>
<text text-anchor="middle" x="444" y="-54.55" font-family="Helvetica,sans-Serif" font-size="10.50" fill="white">jf_test_7</text>
</a>
</g>
<!-- program~jf_test_7&#45;&gt;proc~test_7 -->
<g id="edge12" class="edge"><title>program~jf_test_7&#45;&gt;proc~test_7</title>
<path fill="none" stroke="black" d="M471.024,-57C508.094,-57 574.872,-57 616.687,-57"/>
<polygon fill="black" stroke="black" points="616.747,-60.5001 626.747,-57 616.747,-53.5001 616.747,-60.5001"/>
</g>
<!-- program~jf_test_1 -->
<g id="node16" class="node"><title>program~jf_test_1</title>
<a xlink:href="../program/jf_test_1.html" xlink:title="jf_test_1">
<polygon fill="#f0ad4e" stroke="#f0ad4e" points="471,-26 417,-26 417,-1.24345e-14 471,-3.55271e-15 471,-26"/>
<text text-anchor="middle" x="444" y="-10.55" font-family="Helvetica,sans-Serif" font-size="10.50" fill="white">jf_test_1</text>
</a>
</g>
<!-- program~jf_test_1&#45;&gt;proc~test_1 -->
<g id="edge14" class="edge"><title>program~jf_test_1&#45;&gt;proc~test_1</title>
<path fill="none" stroke="black" d="M471.024,-13C508.094,-13 574.872,-13 616.687,-13"/>
<polygon fill="black" stroke="black" points="616.747,-16.5001 626.747,-13 616.747,-9.5001 616.747,-16.5001"/>
</g>
</g>
</svg>
