<?xml version="1.0" encoding="UTF-8" standalone="no"?>
<!DOCTYPE svg PUBLIC "-//W3C//DTD SVG 1.1//EN"
 "http://www.w3.org/Graphics/SVG/1.1/DTD/svg11.dtd">
<!-- Generated by graphviz version 2.26.3 (20100126.1600)
 -->
<!-- Title: interface~~json_create_array~~CallsGraph Pages: 1 -->
<svg width="641pt" height="143pt"
 viewBox="0.00 0.00 641.00 143.40" xmlns="http://www.w3.org/2000/svg" xmlns:xlink="http://www.w3.org/1999/xlink">
<g id="graph1" class="graph" transform="scale(0.863881 0.863881) rotate(0) translate(4 162)">
<title>interface~~json_create_array~~CallsGraph</title>
<polygon fill="white" stroke="white" points="-4,5 -4,-162 739,-162 739,5 -4,5"/>
<!-- interface~json_create_array -->
<g id="node1" class="node"><title>interface~json_create_array</title>
<polygon fill="none" stroke="black" points="99,-93 1,-93 1,-67 99,-67 99,-93"/>
<text text-anchor="middle" x="50" y="-77.55" font-family="Helvetica,sans-Serif" font-size="10.50">json_create_array</text>
</g>
<!-- proc~wrap_json_value_create_array -->
<g id="node2" class="node"><title>proc~wrap_json_value_create_array</title>
<a xlink:href="../proc/wrap_json_value_create_array.html" xlink:title="wrap_json_value_create_array">
<polygon fill="#d9534f" stroke="#d9534f" points="296,-73 136,-73 136,-47 296,-47 296,-73"/>
<text text-anchor="middle" x="216" y="-57.55" font-family="Helvetica,sans-Serif" font-size="10.50" fill="white">wrap_json_value_create_array</text>
</a>
</g>
<!-- interface~json_create_array&#45;&gt;proc~wrap_json_value_create_array -->
<g id="edge16" class="edge"><title>interface~json_create_array&#45;&gt;proc~wrap_json_value_create_array</title>
<path fill="none" stroke="black" stroke-dasharray="5,2" d="M99.8055,-73.9993C108.063,-73.0045 116.844,-71.9465 125.738,-70.8749"/>
<polygon fill="black" stroke="black" points="126.296,-74.3331 135.805,-69.662 125.459,-67.3834 126.296,-74.3331"/>
</g>
<!-- proc~json_value_create_array -->
<g id="node3" class="node"><title>proc~json_value_create_array</title>
<a xlink:href="../proc/json_value_create_array.html" xlink:title="json_value_create_array">
<polygon fill="#d9534f" stroke="#d9534f" points="462,-114 332,-114 332,-88 462,-88 462,-114"/>
<text text-anchor="middle" x="397" y="-98.55" font-family="Helvetica,sans-Serif" font-size="10.50" fill="white">json_value_create_array</text>
</a>
</g>
<!-- interface~json_create_array&#45;&gt;proc~json_value_create_array -->
<g id="edge18" class="edge"><title>interface~json_create_array&#45;&gt;proc~json_value_create_array</title>
<path fill="none" stroke="black" stroke-dasharray="5,2" d="M99.7166,-83.0088C157.826,-86.5255 254.589,-92.3815 321.873,-96.4534"/>
<polygon fill="black" stroke="black" points="321.8,-99.9553 331.993,-97.0658 322.223,-92.9681 321.8,-99.9553"/>
</g>
<!-- proc~wrap_json_value_create_array&#45;&gt;proc~json_value_create_array -->
<g id="edge8" class="edge"><title>proc~wrap_json_value_create_array&#45;&gt;proc~json_value_create_array</title>
<path fill="none" stroke="black" d="M273.767,-73.0854C291.57,-77.118 311.325,-81.593 329.71,-85.7576"/>
<polygon fill="black" stroke="black" points="328.945,-89.1728 339.471,-87.9686 330.491,-82.3458 328.945,-89.1728"/>
</g>
<!-- interface~to_unicode -->
<g id="node4" class="node"><title>interface~to_unicode</title>
<a xlink:href="../interface/to_unicode.html" xlink:title="to_unicode">
<polygon fill="#a7506f" stroke="#a7506f" points="429,-70 365,-70 365,-44 429,-44 429,-70"/>
<text text-anchor="middle" x="397" y="-54.55" font-family="Helvetica,sans-Serif" font-size="10.50" fill="white">to_unicode</text>
</a>
</g>
<!-- proc~wrap_json_value_create_array&#45;&gt;interface~to_unicode -->
<g id="edge6" class="edge"><title>proc~wrap_json_value_create_array&#45;&gt;interface~to_unicode</title>
<path fill="none" stroke="black" d="M296.18,-58.6711C316.07,-58.3414 336.633,-58.0006 353.96,-57.7134"/>
<polygon fill="black" stroke="black" points="354.355,-61.2074 364.295,-57.5421 354.238,-54.2084 354.355,-61.2074"/>
</g>
<!-- proc~json_value_create -->
<g id="node11" class="node"><title>proc~json_value_create</title>
<a xlink:href="../proc/json_value_create.html" xlink:title="json_value_create">
<polygon fill="#d9534f" stroke="#d9534f" points="598,-158 498,-158 498,-132 598,-132 598,-158"/>
<text text-anchor="middle" x="548" y="-142.55" font-family="Helvetica,sans-Serif" font-size="10.50" fill="white">json_value_create</text>
</a>
</g>
<!-- proc~json_value_create_array&#45;&gt;proc~json_value_create -->
<g id="edge12" class="edge"><title>proc~json_value_create_array&#45;&gt;proc~json_value_create</title>
<path fill="none" stroke="black" d="M441.896,-114.082C458.102,-118.805 476.572,-124.187 493.51,-129.122"/>
<polygon fill="black" stroke="black" points="492.697,-132.531 503.277,-131.968 494.655,-125.81 492.697,-132.531"/>
</g>
<!-- proc~to_array -->
<g id="node12" class="node"><title>proc~to_array</title>
<a xlink:href="../proc/to_array.html" xlink:title="to_array">
<polygon fill="#d9534f" stroke="#d9534f" points="575,-114 521,-114 521,-88 575,-88 575,-114"/>
<text text-anchor="middle" x="548" y="-98.55" font-family="Helvetica,sans-Serif" font-size="10.50" fill="white">to_array</text>
</a>
</g>
<!-- proc~json_value_create_array&#45;&gt;proc~to_array -->
<g id="edge14" class="edge"><title>proc~json_value_create_array&#45;&gt;proc~to_array</title>
<path fill="none" stroke="black" d="M462.353,-101C478.9,-101 496.11,-101 510.725,-101"/>
<polygon fill="black" stroke="black" points="510.861,-104.5 520.861,-101 510.861,-97.5001 510.861,-104.5"/>
</g>
<!-- proc~to_uni_vec -->
<g id="node5" class="node"><title>proc~to_uni_vec</title>
<a xlink:href="../proc/to_uni_vec.html" xlink:title="to_uni_vec">
<polygon fill="#d94e8f" stroke="#d94e8f" points="580,-70 516,-70 516,-44 580,-44 580,-70"/>
<text text-anchor="middle" x="548" y="-54.55" font-family="Helvetica,sans-Serif" font-size="10.50" fill="white">to_uni_vec</text>
</a>
</g>
<!-- interface~to_unicode&#45;&gt;proc~to_uni_vec -->
<g id="edge2" class="edge"><title>interface~to_unicode&#45;&gt;proc~to_uni_vec</title>
<path fill="none" stroke="black" stroke-dasharray="5,2" d="M429.765,-57C451.979,-57 481.552,-57 505.565,-57"/>
<polygon fill="black" stroke="black" points="505.818,-60.5001 515.818,-57 505.818,-53.5001 505.818,-60.5001"/>
</g>
<!-- proc~to_uni -->
<g id="node6" class="node"><title>proc~to_uni</title>
<a xlink:href="../proc/to_uni.html" xlink:title="to_uni">
<polygon fill="#d94e8f" stroke="#d94e8f" points="575,-26 521,-26 521,-1.24345e-14 575,-3.55271e-15 575,-26"/>
<text text-anchor="middle" x="548" y="-10.55" font-family="Helvetica,sans-Serif" font-size="10.50" fill="white">to_uni</text>
</a>
</g>
<!-- interface~to_unicode&#45;&gt;proc~to_uni -->
<g id="edge4" class="edge"><title>interface~to_unicode&#45;&gt;proc~to_uni</title>
<path fill="none" stroke="black" stroke-dasharray="5,2" d="M429.765,-47.4527C453.703,-40.4774 486.187,-31.0118 511.049,-23.7672"/>
<polygon fill="black" stroke="black" points="512.227,-27.0695 520.849,-20.9116 510.269,-20.349 512.227,-27.0695"/>
</g>
<!-- proc~destroy_json_data -->
<g id="node13" class="node"><title>proc~destroy_json_data</title>
<a xlink:href="../proc/destroy_json_data.html" xlink:title="destroy_json_data">
<polygon fill="#d9534f" stroke="#d9534f" points="734,-114 634,-114 634,-88 734,-88 734,-114"/>
<text text-anchor="middle" x="684" y="-98.55" font-family="Helvetica,sans-Serif" font-size="10.50" fill="white">destroy_json_data</text>
</a>
</g>
<!-- proc~to_array&#45;&gt;proc~destroy_json_data -->
<g id="edge10" class="edge"><title>proc~to_array&#45;&gt;proc~destroy_json_data</title>
<path fill="none" stroke="black" d="M575.195,-101C589.06,-101 606.518,-101 623.366,-101"/>
<polygon fill="black" stroke="black" points="623.739,-104.5 633.739,-101 623.739,-97.5001 623.739,-104.5"/>
</g>
</g>
</svg>
