<?xml version="1.0" encoding="UTF-8" standalone="no"?>
<!DOCTYPE svg PUBLIC "-//W3C//DTD SVG 1.1//EN"
 "http://www.w3.org/Graphics/SVG/1.1/DTD/svg11.dtd">
<!-- Generated by graphviz version 2.26.3 (20100126.1600)
 -->
<!-- Title: interface~~json_create_object~~CallsGraph Pages: 1 -->
<svg width="641pt" height="141pt"
 viewBox="0.00 0.00 641.00 141.12" xmlns="http://www.w3.org/2000/svg" xmlns:xlink="http://www.w3.org/1999/xlink">
<g id="graph1" class="graph" transform="scale(0.850133 0.850133) rotate(0) translate(4 162)">
<title>interface~~json_create_object~~CallsGraph</title>
<polygon fill="white" stroke="white" points="-4,5 -4,-162 751,-162 751,5 -4,5"/>
<!-- interface~json_create_object -->
<g id="node1" class="node"><title>interface~json_create_object</title>
<polygon fill="none" stroke="black" points="103,-93 1,-93 1,-67 103,-67 103,-93"/>
<text text-anchor="middle" x="52" y="-77.55" font-family="Helvetica,sans-Serif" font-size="10.50">json_create_object</text>
</g>
<!-- proc~wrap_json_value_create_object -->
<g id="node2" class="node"><title>proc~wrap_json_value_create_object</title>
<a xlink:href="../proc/wrap_json_value_create_object.html" xlink:title="wrap_json_value_create_object">
<polygon fill="#d9534f" stroke="#d9534f" points="303,-73 141,-73 141,-47 303,-47 303,-73"/>
<text text-anchor="middle" x="222" y="-57.55" font-family="Helvetica,sans-Serif" font-size="10.50" fill="white">wrap_json_value_create_object</text>
</a>
</g>
<!-- interface~json_create_object&#45;&gt;proc~wrap_json_value_create_object -->
<g id="edge16" class="edge"><title>interface~json_create_object&#45;&gt;proc~wrap_json_value_create_object</title>
<path fill="none" stroke="black" stroke-dasharray="5,2" d="M103.929,-73.8907C112.301,-72.9058 121.179,-71.8613 130.16,-70.8047"/>
<polygon fill="black" stroke="black" points="130.8,-74.2537 140.322,-69.6092 129.982,-67.3016 130.8,-74.2537"/>
</g>
<!-- proc~json_value_create_object -->
<g id="node3" class="node"><title>proc~json_value_create_object</title>
<a xlink:href="../proc/json_value_create_object.html" xlink:title="json_value_create_object">
<polygon fill="#d9534f" stroke="#d9534f" points="474,-114 340,-114 340,-88 474,-88 474,-114"/>
<text text-anchor="middle" x="407" y="-98.55" font-family="Helvetica,sans-Serif" font-size="10.50" fill="white">json_value_create_object</text>
</a>
</g>
<!-- interface~json_create_object&#45;&gt;proc~json_value_create_object -->
<g id="edge18" class="edge"><title>interface~json_create_object&#45;&gt;proc~json_value_create_object</title>
<path fill="none" stroke="black" stroke-dasharray="5,2" d="M103.62,-83.0536C162.975,-86.5647 261.021,-92.3646 329.537,-96.4177"/>
<polygon fill="black" stroke="black" points="329.657,-99.9308 339.847,-97.0275 330.071,-92.943 329.657,-99.9308"/>
</g>
<!-- proc~wrap_json_value_create_object&#45;&gt;proc~json_value_create_object -->
<g id="edge8" class="edge"><title>proc~wrap_json_value_create_object&#45;&gt;proc~json_value_create_object</title>
<path fill="none" stroke="black" d="M280.789,-73.029C298.995,-77.0638 319.219,-81.5459 338.049,-85.7189"/>
<polygon fill="black" stroke="black" points="337.526,-89.1879 348.046,-87.9346 339.04,-82.3537 337.526,-89.1879"/>
</g>
<!-- interface~to_unicode -->
<g id="node4" class="node"><title>interface~to_unicode</title>
<a xlink:href="../interface/to_unicode.html" xlink:title="to_unicode">
<polygon fill="#a7506f" stroke="#a7506f" points="439,-70 375,-70 375,-44 439,-44 439,-70"/>
<text text-anchor="middle" x="407" y="-54.55" font-family="Helvetica,sans-Serif" font-size="10.50" fill="white">to_unicode</text>
</a>
</g>
<!-- proc~wrap_json_value_create_object&#45;&gt;interface~to_unicode -->
<g id="edge6" class="edge"><title>proc~wrap_json_value_create_object&#45;&gt;interface~to_unicode</title>
<path fill="none" stroke="black" d="M303.682,-58.6754C324.558,-58.3369 346.179,-57.9863 364.214,-57.6938"/>
<polygon fill="black" stroke="black" points="364.443,-61.1907 374.385,-57.5289 364.329,-54.1916 364.443,-61.1907"/>
</g>
<!-- proc~json_value_create -->
<g id="node11" class="node"><title>proc~json_value_create</title>
<a xlink:href="../proc/json_value_create.html" xlink:title="json_value_create">
<polygon fill="#d9534f" stroke="#d9534f" points="610,-158 510,-158 510,-132 610,-132 610,-158"/>
<text text-anchor="middle" x="560" y="-142.55" font-family="Helvetica,sans-Serif" font-size="10.50" fill="white">json_value_create</text>
</a>
</g>
<!-- proc~json_value_create_object&#45;&gt;proc~json_value_create -->
<g id="edge12" class="edge"><title>proc~json_value_create_object&#45;&gt;proc~json_value_create</title>
<path fill="none" stroke="black" d="M452.491,-114.082C468.911,-118.805 487.626,-124.187 504.788,-129.122"/>
<polygon fill="black" stroke="black" points="504.107,-132.568 514.684,-131.968 506.041,-125.841 504.107,-132.568"/>
</g>
<!-- proc~to_object -->
<g id="node12" class="node"><title>proc~to_object</title>
<a xlink:href="../proc/to_object.html" xlink:title="to_object">
<polygon fill="#d9534f" stroke="#d9534f" points="588,-114 532,-114 532,-88 588,-88 588,-114"/>
<text text-anchor="middle" x="560" y="-98.55" font-family="Helvetica,sans-Serif" font-size="10.50" fill="white">to_object</text>
</a>
</g>
<!-- proc~json_value_create_object&#45;&gt;proc~to_object -->
<g id="edge14" class="edge"><title>proc~json_value_create_object&#45;&gt;proc~to_object</title>
<path fill="none" stroke="black" d="M474.108,-101C490.39,-101 507.247,-101 521.671,-101"/>
<polygon fill="black" stroke="black" points="521.701,-104.5 531.701,-101 521.701,-97.5001 521.701,-104.5"/>
</g>
<!-- proc~to_uni_vec -->
<g id="node5" class="node"><title>proc~to_uni_vec</title>
<a xlink:href="../proc/to_uni_vec.html" xlink:title="to_uni_vec">
<polygon fill="#d94e8f" stroke="#d94e8f" points="592,-70 528,-70 528,-44 592,-44 592,-70"/>
<text text-anchor="middle" x="560" y="-54.55" font-family="Helvetica,sans-Serif" font-size="10.50" fill="white">to_uni_vec</text>
</a>
</g>
<!-- interface~to_unicode&#45;&gt;proc~to_uni_vec -->
<g id="edge2" class="edge"><title>interface~to_unicode&#45;&gt;proc~to_uni_vec</title>
<path fill="none" stroke="black" stroke-dasharray="5,2" d="M439.822,-57C462.564,-57 493.05,-57 517.626,-57"/>
<polygon fill="black" stroke="black" points="517.757,-60.5001 527.757,-57 517.757,-53.5001 517.757,-60.5001"/>
</g>
<!-- proc~to_uni -->
<g id="node6" class="node"><title>proc~to_uni</title>
<a xlink:href="../proc/to_uni.html" xlink:title="to_uni">
<polygon fill="#d94e8f" stroke="#d94e8f" points="587,-26 533,-26 533,-1.24345e-14 587,-3.55271e-15 587,-26"/>
<text text-anchor="middle" x="560" y="-10.55" font-family="Helvetica,sans-Serif" font-size="10.50" fill="white">to_uni</text>
</a>
</g>
<!-- interface~to_unicode&#45;&gt;proc~to_uni -->
<g id="edge4" class="edge"><title>interface~to_unicode&#45;&gt;proc~to_uni</title>
<path fill="none" stroke="black" stroke-dasharray="5,2" d="M439.822,-47.5609C464.317,-40.5166 497.797,-30.8884 523.199,-23.5833"/>
<polygon fill="black" stroke="black" points="524.205,-26.936 532.848,-20.8085 522.27,-20.2087 524.205,-26.936"/>
</g>
<!-- proc~destroy_json_data -->
<g id="node13" class="node"><title>proc~destroy_json_data</title>
<a xlink:href="../proc/destroy_json_data.html" xlink:title="destroy_json_data">
<polygon fill="#d9534f" stroke="#d9534f" points="746,-114 646,-114 646,-88 746,-88 746,-114"/>
<text text-anchor="middle" x="696" y="-98.55" font-family="Helvetica,sans-Serif" font-size="10.50" fill="white">destroy_json_data</text>
</a>
</g>
<!-- proc~to_object&#45;&gt;proc~destroy_json_data -->
<g id="edge10" class="edge"><title>proc~to_object&#45;&gt;proc~destroy_json_data</title>
<path fill="none" stroke="black" d="M588.179,-101C601.967,-101 619.128,-101 635.675,-101"/>
<polygon fill="black" stroke="black" points="635.863,-104.5 645.863,-101 635.863,-97.5001 635.863,-104.5"/>
</g>
</g>
</svg>
