<?xml version="1.0" encoding="UTF-8" standalone="no"?>
<!DOCTYPE svg PUBLIC "-//W3C//DTD SVG 1.1//EN"
 "http://www.w3.org/Graphics/SVG/1.1/DTD/svg11.dtd">
<!-- Generated by graphviz version 2.26.3 (20100126.1600)
 -->
<!-- Title: interface~~operator(==)~~CallsGraph Pages: 1 -->
<svg width="426pt" height="78pt"
 viewBox="0.00 0.00 426.00 78.00" xmlns="http://www.w3.org/2000/svg" xmlns:xlink="http://www.w3.org/1999/xlink">
<g id="graph1" class="graph" transform="scale(1 1) rotate(0) translate(4 74)">
<title>interface~~operator(==)~~CallsGraph</title>
<polygon fill="white" stroke="white" points="-4,5 -4,-74 423,-74 423,5 -4,5"/>
<!-- interface~operator(==) -->
<g id="node1" class="node"><title>interface~operator(==)</title>
<polygon fill="none" stroke="black" points="73,-48 1,-48 1,-22 73,-22 73,-48"/>
<text text-anchor="middle" x="37" y="-32.55" font-family="Helvetica,sans-Serif" font-size="10.50">operator(==)</text>
</g>
<!-- proc~ucs4_comp_default -->
<g id="node2" class="node"><title>proc~ucs4_comp_default</title>
<a xlink:href="../proc/ucs4_comp_default.html" xlink:title="ucs4_comp_default">
<polygon fill="#d94e8f" stroke="#d94e8f" points="216,-70 110,-70 110,-44 216,-44 216,-70"/>
<text text-anchor="middle" x="163" y="-54.55" font-family="Helvetica,sans-Serif" font-size="10.50" fill="white">ucs4_comp_default</text>
</a>
</g>
<!-- interface~operator(==)&#45;&gt;proc~ucs4_comp_default -->
<g id="edge10" class="edge"><title>interface~operator(==)&#45;&gt;proc~ucs4_comp_default</title>
<path fill="none" stroke="black" stroke-dasharray="5,2" d="M73.7831,-41.4225C81.9106,-42.8415 90.7467,-44.3843 99.5934,-45.929"/>
<polygon fill="black" stroke="black" points="99.096,-49.395 109.549,-47.6673 100.3,-42.4993 99.096,-49.395"/>
</g>
<!-- proc~default_comp_ucs4 -->
<g id="node3" class="node"><title>proc~default_comp_ucs4</title>
<a xlink:href="../proc/default_comp_ucs4.html" xlink:title="default_comp_ucs4">
<polygon fill="#d94e8f" stroke="#d94e8f" points="216,-26 110,-26 110,-1.24345e-14 216,-3.55271e-15 216,-26"/>
<text text-anchor="middle" x="163" y="-10.55" font-family="Helvetica,sans-Serif" font-size="10.50" fill="white">default_comp_ucs4</text>
</a>
</g>
<!-- interface~operator(==)&#45;&gt;proc~default_comp_ucs4 -->
<g id="edge12" class="edge"><title>interface~operator(==)&#45;&gt;proc~default_comp_ucs4</title>
<path fill="none" stroke="black" stroke-dasharray="5,2" d="M73.7831,-28.5775C81.9106,-27.1585 90.7467,-25.6157 99.5934,-24.071"/>
<polygon fill="black" stroke="black" points="100.3,-27.5007 109.549,-22.3327 99.096,-20.605 100.3,-27.5007"/>
</g>
<!-- interface~to_unicode -->
<g id="node4" class="node"><title>interface~to_unicode</title>
<a xlink:href="../interface/to_unicode.html" xlink:title="to_unicode">
<polygon fill="#a7506f" stroke="#a7506f" points="317,-48 253,-48 253,-22 317,-22 317,-48"/>
<text text-anchor="middle" x="285" y="-32.55" font-family="Helvetica,sans-Serif" font-size="10.50" fill="white">to_unicode</text>
</a>
</g>
<!-- proc~ucs4_comp_default&#45;&gt;interface~to_unicode -->
<g id="edge6" class="edge"><title>proc~ucs4_comp_default&#45;&gt;interface~to_unicode</title>
<path fill="none" stroke="black" d="M216.156,-47.4145C224.921,-45.8339 233.906,-44.2137 242.37,-42.6874"/>
<polygon fill="black" stroke="black" points="243.166,-46.1003 252.386,-40.8811 241.924,-39.2114 243.166,-46.1003"/>
</g>
<!-- proc~default_comp_ucs4&#45;&gt;interface~to_unicode -->
<g id="edge8" class="edge"><title>proc~default_comp_ucs4&#45;&gt;interface~to_unicode</title>
<path fill="none" stroke="black" d="M216.156,-22.5855C224.921,-24.1661 233.906,-25.7863 242.37,-27.3126"/>
<polygon fill="black" stroke="black" points="241.924,-30.7886 252.386,-29.1189 243.166,-23.8997 241.924,-30.7886"/>
</g>
<!-- proc~to_uni_vec -->
<g id="node5" class="node"><title>proc~to_uni_vec</title>
<a xlink:href="../proc/to_uni_vec.html" xlink:title="to_uni_vec">
<polygon fill="#d94e8f" stroke="#d94e8f" points="418,-70 354,-70 354,-44 418,-44 418,-70"/>
<text text-anchor="middle" x="386" y="-54.55" font-family="Helvetica,sans-Serif" font-size="10.50" fill="white">to_uni_vec</text>
</a>
</g>
<!-- interface~to_unicode&#45;&gt;proc~to_uni_vec -->
<g id="edge2" class="edge"><title>interface~to_unicode&#45;&gt;proc~to_uni_vec</title>
<path fill="none" stroke="black" stroke-dasharray="5,2" d="M317.513,-42.082C325.977,-43.9256 335.215,-45.938 344.09,-47.871"/>
<polygon fill="black" stroke="black" points="343.378,-51.2979 353.893,-50.0065 344.867,-44.4583 343.378,-51.2979"/>
</g>
<!-- proc~to_uni -->
<g id="node6" class="node"><title>proc~to_uni</title>
<a xlink:href="../proc/to_uni.html" xlink:title="to_uni">
<polygon fill="#d94e8f" stroke="#d94e8f" points="413,-26 359,-26 359,-1.24345e-14 413,-3.55271e-15 413,-26"/>
<text text-anchor="middle" x="386" y="-10.55" font-family="Helvetica,sans-Serif" font-size="10.50" fill="white">to_uni</text>
</a>
</g>
<!-- interface~to_unicode&#45;&gt;proc~to_uni -->
<g id="edge4" class="edge"><title>interface~to_unicode&#45;&gt;proc~to_uni</title>
<path fill="none" stroke="black" stroke-dasharray="5,2" d="M317.513,-27.918C327.547,-25.7323 338.671,-23.3093 348.985,-21.0627"/>
<polygon fill="black" stroke="black" points="349.933,-24.4384 358.959,-18.8902 348.443,-17.5988 349.933,-24.4384"/>
</g>
</g>
</svg>
