<?xml version="1.0" encoding="UTF-8" standalone="no"?>
<!DOCTYPE svg PUBLIC "-//W3C//DTD SVG 1.1//EN"
 "http://www.w3.org/Graphics/SVG/1.1/DTD/svg11.dtd">
<!-- Generated by graphviz version 2.26.3 (20100126.1600)
 -->
<!-- Title: interface~~json_create_string~~CallsGraph Pages: 1 -->
<svg width="641pt" height="143pt"
 viewBox="0.00 0.00 641.00 142.64" xmlns="http://www.w3.org/2000/svg" xmlns:xlink="http://www.w3.org/1999/xlink">
<g id="graph1" class="graph" transform="scale(0.859249 0.859249) rotate(0) translate(4 162)">
<title>interface~~json_create_string~~CallsGraph</title>
<polygon fill="white" stroke="white" points="-4,5 -4,-162 743,-162 743,5 -4,5"/>
<!-- interface~json_create_string -->
<g id="node1" class="node"><title>interface~json_create_string</title>
<polygon fill="none" stroke="black" points="100,-93 4.26326e-14,-93 0,-67 100,-67 100,-93"/>
<text text-anchor="middle" x="50" y="-77.55" font-family="Helvetica,sans-Serif" font-size="10.50">json_create_string</text>
</g>
<!-- proc~wrap_json_value_create_string -->
<g id="node2" class="node"><title>proc~wrap_json_value_create_string</title>
<a xlink:href="../proc/wrap_json_value_create_string.html" xlink:title="wrap_json_value_create_string">
<polygon fill="#d9534f" stroke="#d9534f" points="297,-73 137,-73 137,-47 297,-47 297,-73"/>
<text text-anchor="middle" x="217" y="-57.55" font-family="Helvetica,sans-Serif" font-size="10.50" fill="white">wrap_json_value_create_string</text>
</a>
</g>
<!-- interface~json_create_string&#45;&gt;proc~wrap_json_value_create_string -->
<g id="edge16" class="edge"><title>interface~json_create_string&#45;&gt;proc~wrap_json_value_create_string</title>
<path fill="none" stroke="black" stroke-dasharray="5,2" d="M100.106,-73.9993C108.412,-73.0045 117.247,-71.9465 126.195,-70.8749"/>
<polygon fill="black" stroke="black" points="126.809,-74.3264 136.322,-69.662 125.977,-67.376 126.809,-74.3264"/>
</g>
<!-- proc~json_value_create_string -->
<g id="node3" class="node"><title>proc~json_value_create_string</title>
<a xlink:href="../proc/json_value_create_string.html" xlink:title="json_value_create_string">
<polygon fill="#d9534f" stroke="#d9534f" points="466,-114 334,-114 334,-88 466,-88 466,-114"/>
<text text-anchor="middle" x="400" y="-98.55" font-family="Helvetica,sans-Serif" font-size="10.50" fill="white">json_value_create_string</text>
</a>
</g>
<!-- interface~json_create_string&#45;&gt;proc~json_value_create_string -->
<g id="edge18" class="edge"><title>interface~json_create_string&#45;&gt;proc~json_value_create_string</title>
<path fill="none" stroke="black" stroke-dasharray="5,2" d="M100.146,-83.0088C158.578,-86.5147 255.76,-92.3456 323.598,-96.4159"/>
<polygon fill="black" stroke="black" points="323.613,-99.923 333.804,-97.0283 324.032,-92.9355 323.613,-99.923"/>
</g>
<!-- proc~wrap_json_value_create_string&#45;&gt;proc~json_value_create_string -->
<g id="edge8" class="edge"><title>proc~wrap_json_value_create_string&#45;&gt;proc~json_value_create_string</title>
<path fill="none" stroke="black" d="M275.154,-73.029C293.163,-77.0638 313.168,-81.5459 331.794,-85.7189"/>
<polygon fill="black" stroke="black" points="331.16,-89.1636 341.684,-87.9346 332.691,-82.3329 331.16,-89.1636"/>
</g>
<!-- interface~to_unicode -->
<g id="node4" class="node"><title>interface~to_unicode</title>
<a xlink:href="../interface/to_unicode.html" xlink:title="to_unicode">
<polygon fill="#a7506f" stroke="#a7506f" points="432,-70 368,-70 368,-44 432,-44 432,-70"/>
<text text-anchor="middle" x="400" y="-54.55" font-family="Helvetica,sans-Serif" font-size="10.50" fill="white">to_unicode</text>
</a>
</g>
<!-- proc~wrap_json_value_create_string&#45;&gt;interface~to_unicode -->
<g id="edge6" class="edge"><title>proc~wrap_json_value_create_string&#45;&gt;interface~to_unicode</title>
<path fill="none" stroke="black" d="M297.533,-58.6798C318.054,-58.3434 339.321,-57.9947 357.126,-57.7028"/>
<polygon fill="black" stroke="black" points="357.236,-61.2016 367.178,-57.5381 357.122,-54.2026 357.236,-61.2016"/>
</g>
<!-- proc~json_value_create -->
<g id="node11" class="node"><title>proc~json_value_create</title>
<a xlink:href="../proc/json_value_create.html" xlink:title="json_value_create">
<polygon fill="#d9534f" stroke="#d9534f" points="602,-158 502,-158 502,-132 602,-132 602,-158"/>
<text text-anchor="middle" x="552" y="-142.55" font-family="Helvetica,sans-Serif" font-size="10.50" fill="white">json_value_create</text>
</a>
</g>
<!-- proc~json_value_create_string&#45;&gt;proc~json_value_create -->
<g id="edge12" class="edge"><title>proc~json_value_create_string&#45;&gt;proc~json_value_create</title>
<path fill="none" stroke="black" d="M445.193,-114.082C461.507,-118.805 480.099,-124.187 497.149,-129.122"/>
<polygon fill="black" stroke="black" points="496.402,-132.549 506.981,-131.968 498.348,-125.825 496.402,-132.549"/>
</g>
<!-- proc~to_string -->
<g id="node12" class="node"><title>proc~to_string</title>
<a xlink:href="../proc/to_string.html" xlink:title="to_string">
<polygon fill="#d9534f" stroke="#d9534f" points="579,-114 525,-114 525,-88 579,-88 579,-114"/>
<text text-anchor="middle" x="552" y="-98.55" font-family="Helvetica,sans-Serif" font-size="10.50" fill="white">to_string</text>
</a>
</g>
<!-- proc~json_value_create_string&#45;&gt;proc~to_string -->
<g id="edge14" class="edge"><title>proc~json_value_create_string&#45;&gt;proc~to_string</title>
<path fill="none" stroke="black" d="M466.227,-101C482.836,-101 500.079,-101 514.71,-101"/>
<polygon fill="black" stroke="black" points="514.856,-104.5 524.856,-101 514.856,-97.5001 514.856,-104.5"/>
</g>
<!-- proc~to_uni_vec -->
<g id="node5" class="node"><title>proc~to_uni_vec</title>
<a xlink:href="../proc/to_uni_vec.html" xlink:title="to_uni_vec">
<polygon fill="#d94e8f" stroke="#d94e8f" points="584,-70 520,-70 520,-44 584,-44 584,-70"/>
<text text-anchor="middle" x="552" y="-54.55" font-family="Helvetica,sans-Serif" font-size="10.50" fill="white">to_uni_vec</text>
</a>
</g>
<!-- interface~to_unicode&#45;&gt;proc~to_uni_vec -->
<g id="edge2" class="edge"><title>interface~to_unicode&#45;&gt;proc~to_uni_vec</title>
<path fill="none" stroke="black" stroke-dasharray="5,2" d="M432.608,-57C455.201,-57 485.488,-57 509.903,-57"/>
<polygon fill="black" stroke="black" points="509.968,-60.5001 519.968,-57 509.968,-53.5001 509.968,-60.5001"/>
</g>
<!-- proc~to_uni -->
<g id="node6" class="node"><title>proc~to_uni</title>
<a xlink:href="../proc/to_uni.html" xlink:title="to_uni">
<polygon fill="#d94e8f" stroke="#d94e8f" points="579,-26 525,-26 525,-1.24345e-14 579,-3.55271e-15 579,-26"/>
<text text-anchor="middle" x="552" y="-10.55" font-family="Helvetica,sans-Serif" font-size="10.50" fill="white">to_uni</text>
</a>
</g>
<!-- interface~to_unicode&#45;&gt;proc~to_uni -->
<g id="edge4" class="edge"><title>interface~to_unicode&#45;&gt;proc~to_uni</title>
<path fill="none" stroke="black" stroke-dasharray="5,2" d="M432.608,-47.5609C456.682,-40.5921 489.491,-31.0946 514.625,-23.8192"/>
<polygon fill="black" stroke="black" points="515.901,-27.0936 524.533,-20.9509 513.954,-20.3696 515.901,-27.0936"/>
</g>
<!-- proc~destroy_json_data -->
<g id="node13" class="node"><title>proc~destroy_json_data</title>
<a xlink:href="../proc/destroy_json_data.html" xlink:title="destroy_json_data">
<polygon fill="#d9534f" stroke="#d9534f" points="738,-114 638,-114 638,-88 738,-88 738,-114"/>
<text text-anchor="middle" x="688" y="-98.55" font-family="Helvetica,sans-Serif" font-size="10.50" fill="white">destroy_json_data</text>
</a>
</g>
<!-- proc~to_string&#45;&gt;proc~destroy_json_data -->
<g id="edge10" class="edge"><title>proc~to_string&#45;&gt;proc~destroy_json_data</title>
<path fill="none" stroke="black" d="M579.195,-101C593.06,-101 610.518,-101 627.366,-101"/>
<polygon fill="black" stroke="black" points="627.739,-104.5 637.739,-101 627.739,-97.5001 627.739,-104.5"/>
</g>
</g>
</svg>
