<?xml version="1.0" encoding="UTF-8" standalone="no"?>
<!DOCTYPE svg PUBLIC "-//W3C//DTD SVG 1.1//EN"
 "http://www.w3.org/Graphics/SVG/1.1/DTD/svg11.dtd">
<!-- Generated by graphviz version 2.26.3 (20100126.1600)
 -->
<!-- Title: interface~~json_print~~CallsGraph Pages: 1 -->
<svg width="641pt" height="188pt"
 viewBox="0.00 0.00 641.00 188.31" xmlns="http://www.w3.org/2000/svg" xmlns:xlink="http://www.w3.org/1999/xlink">
<g id="graph1" class="graph" transform="scale(0.738479 0.738479) rotate(0) translate(4 251)">
<title>interface~~json_print~~CallsGraph</title>
<polygon fill="white" stroke="white" points="-4,5 -4,-251 865,-251 865,5 -4,5"/>
<!-- interface~json_print -->
<g id="node1" class="node"><title>interface~json_print</title>
<polygon fill="none" stroke="black" points="59,-71 1,-71 1,-45 59,-45 59,-71"/>
<text text-anchor="middle" x="30" y="-55.55" font-family="Helvetica,sans-Serif" font-size="10.50">json_print</text>
</g>
<!-- proc~json_print_1 -->
<g id="node2" class="node"><title>proc~json_print_1</title>
<a xlink:href="../proc/json_print_1.html" xlink:title="json_print_1">
<polygon fill="#d9534f" stroke="#d9534f" points="167,-115 97,-115 97,-89 167,-89 167,-115"/>
<text text-anchor="middle" x="132" y="-99.55" font-family="Helvetica,sans-Serif" font-size="10.50" fill="white">json_print_1</text>
</a>
</g>
<!-- interface~json_print&#45;&gt;proc~json_print_1 -->
<g id="edge36" class="edge"><title>interface~json_print&#45;&gt;proc~json_print_1</title>
<path fill="none" stroke="black" stroke-dasharray="5,2" d="M59.5026,-70.7266C69.7871,-75.1631 81.4992,-80.2154 92.4655,-84.9459"/>
<polygon fill="black" stroke="black" points="91.2874,-88.2494 101.856,-88.9966 94.0601,-81.8219 91.2874,-88.2494"/>
</g>
<!-- proc~json_print_2 -->
<g id="node3" class="node"><title>proc~json_print_2</title>
<a xlink:href="../proc/json_print_2.html" xlink:title="json_print_2">
<polygon fill="#d9534f" stroke="#d9534f" points="167,-71 97,-71 97,-45 167,-45 167,-71"/>
<text text-anchor="middle" x="132" y="-55.55" font-family="Helvetica,sans-Serif" font-size="10.50" fill="white">json_print_2</text>
</a>
</g>
<!-- interface~json_print&#45;&gt;proc~json_print_2 -->
<g id="edge38" class="edge"><title>interface~json_print&#45;&gt;proc~json_print_2</title>
<path fill="none" stroke="black" stroke-dasharray="5,2" d="M59.5026,-51.814C67.8814,-51.3476 77.2076,-51.1705 86.3062,-51.2826"/>
<polygon fill="black" stroke="black" points="86.336,-54.7843 96.4193,-51.532 86.5087,-47.7864 86.336,-54.7843"/>
</g>
<!-- interface~throw_exception -->
<g id="node4" class="node"><title>interface~throw_exception</title>
<a xlink:href="../interface/throw_exception.html" xlink:title="throw_exception">
<polygon fill="#a7506f" stroke="#a7506f" points="424,-71 334,-71 334,-45 424,-45 424,-71"/>
<text text-anchor="middle" x="379" y="-55.55" font-family="Helvetica,sans-Serif" font-size="10.50" fill="white">throw_exception</text>
</a>
</g>
<!-- proc~json_print_1&#45;&gt;interface~throw_exception -->
<g id="edge28" class="edge"><title>proc~json_print_1&#45;&gt;interface~throw_exception</title>
<path fill="none" stroke="black" d="M167.652,-95.649C208.437,-88.3836 275.725,-76.3971 323.41,-67.9026"/>
<polygon fill="black" stroke="black" points="324.041,-71.3455 333.272,-66.1459 322.813,-64.454 324.041,-71.3455"/>
</g>
<!-- proc~json_value_print -->
<g id="node5" class="node"><title>proc~json_value_print</title>
<a xlink:href="../proc/json_value_print.html" xlink:title="json_value_print">
<polygon fill="#d9534f" stroke="#d9534f" points="295,-156 205,-156 205,-130 295,-130 295,-156"/>
<text text-anchor="middle" x="250" y="-140.55" font-family="Helvetica,sans-Serif" font-size="10.50" fill="white">json_value_print</text>
</a>
</g>
<!-- proc~json_print_1&#45;&gt;proc~json_value_print -->
<g id="edge30" class="edge"><title>proc~json_print_1&#45;&gt;proc~json_value_print</title>
<path fill="none" stroke="black" d="M167.724,-114.413C178.747,-118.243 191.061,-122.521 202.736,-126.578"/>
<polygon fill="black" stroke="black" points="201.755,-129.942 212.35,-129.918 204.052,-123.33 201.755,-129.942"/>
</g>
<!-- proc~json_print_2&#45;&gt;interface~json_print -->
<g id="edge34" class="edge"><title>proc~json_print_2&#45;&gt;interface~json_print</title>
<path fill="none" stroke="black" d="M96.4193,-64.468C87.7529,-64.7942 78.4307,-64.8374 69.5906,-64.5976"/>
<polygon fill="black" stroke="black" points="69.637,-61.0966 59.5026,-64.186 69.3516,-68.0908 69.637,-61.0966"/>
</g>
<!-- proc~json_print_2&#45;&gt;interface~throw_exception -->
<g id="edge32" class="edge"><title>proc~json_print_2&#45;&gt;interface~throw_exception</title>
<path fill="none" stroke="black" d="M167.652,-58C208.352,-58 275.444,-58 323.111,-58"/>
<polygon fill="black" stroke="black" points="323.272,-61.5001 333.272,-58 323.272,-54.5001 323.272,-61.5001"/>
</g>
<!-- proc~json_throw_exception -->
<g id="node6" class="node"><title>proc~json_throw_exception</title>
<a xlink:href="../proc/json_throw_exception.html" xlink:title="json_throw_exception">
<polygon fill="#d9534f" stroke="#d9534f" points="760,-92 644,-92 644,-66 760,-66 760,-92"/>
<text text-anchor="middle" x="702" y="-76.55" font-family="Helvetica,sans-Serif" font-size="10.50" fill="white">json_throw_exception</text>
</a>
</g>
<!-- interface~throw_exception&#45;&gt;proc~json_throw_exception -->
<g id="edge10" class="edge"><title>interface~throw_exception&#45;&gt;proc~json_throw_exception</title>
<path fill="none" stroke="black" stroke-dasharray="5,2" d="M424.593,-60.9642C479.035,-64.5038 570.618,-70.4582 633.566,-74.5507"/>
<polygon fill="black" stroke="black" points="633.595,-78.0599 643.802,-75.2162 634.05,-71.0747 633.595,-78.0599"/>
</g>
<!-- proc~wrap_json_throw_exception -->
<g id="node7" class="node"><title>proc~wrap_json_throw_exception</title>
<a xlink:href="../proc/wrap_json_throw_exception.html" xlink:title="wrap_json_throw_exception">
<polygon fill="#d9534f" stroke="#d9534f" points="607,-51 463,-51 463,-25 607,-25 607,-51"/>
<text text-anchor="middle" x="535" y="-35.55" font-family="Helvetica,sans-Serif" font-size="10.50" fill="white">wrap_json_throw_exception</text>
</a>
</g>
<!-- interface~throw_exception&#45;&gt;proc~wrap_json_throw_exception -->
<g id="edge12" class="edge"><title>interface~throw_exception&#45;&gt;proc~wrap_json_throw_exception</title>
<path fill="none" stroke="black" stroke-dasharray="5,2" d="M424.541,-52.1614C433.352,-51.0318 442.835,-49.8161 452.41,-48.5884"/>
<polygon fill="black" stroke="black" points="452.925,-52.0512 462.398,-47.3079 452.034,-45.108 452.925,-52.0512"/>
</g>
<!-- proc~json_value_print&#45;&gt;interface~throw_exception -->
<g id="edge22" class="edge"><title>proc~json_value_print&#45;&gt;interface~throw_exception</title>
<path fill="none" stroke="black" d="M271.57,-129.965C279.454,-124.936 288.317,-118.962 296,-113 313.148,-99.6935 313.963,-92.0735 332,-80 334.096,-78.5968 336.296,-77.2373 338.552,-75.9289"/>
<polygon fill="black" stroke="black" points="340.283,-78.972 347.43,-71.1501 336.965,-72.8083 340.283,-78.972"/>
</g>
<!-- proc~json_value_print&#45;&gt;proc~json_value_print -->
<g id="edge26" class="edge"><title>proc~json_value_print&#45;&gt;proc~json_value_print</title>
<path fill="none" stroke="black" d="M230.036,-156.06C223.986,-165.1 230.641,-174 250,-174 261.797,-174 268.877,-170.695 271.238,-166.067"/>
<polygon fill="black" stroke="black" points="274.699,-165.538 269.964,-156.06 267.755,-166.422 274.699,-165.538"/>
</g>
<!-- none~write_it -->
<g id="node17" class="node"><title>none~write_it</title>
<polygon fill="#d9534f" stroke="#d9534f" points="406,-203 352,-203 352,-177 406,-177 406,-203"/>
<text text-anchor="middle" x="379" y="-187.55" font-family="Helvetica,sans-Serif" font-size="10.50" fill="white">write_it</text>
</g>
<!-- proc~json_value_print&#45;&gt;none~write_it -->
<g id="edge16" class="edge"><title>proc~json_value_print&#45;&gt;none~write_it</title>
<path fill="none" stroke="black" d="M285.934,-156.092C303.546,-162.509 324.72,-170.224 342.419,-176.672"/>
<polygon fill="black" stroke="black" points="341.255,-179.973 351.849,-180.108 343.652,-173.396 341.255,-179.973"/>
</g>
<!-- proc~real_to_string -->
<g id="node18" class="node"><title>proc~real_to_string</title>
<a xlink:href="../proc/real_to_string.html" xlink:title="real_to_string">
<polygon fill="#d9534f" stroke="#d9534f" points="418,-159 340,-159 340,-133 418,-133 418,-159"/>
<text text-anchor="middle" x="379" y="-143.55" font-family="Helvetica,sans-Serif" font-size="10.50" fill="white">real_to_string</text>
</a>
</g>
<!-- proc~json_value_print&#45;&gt;proc~real_to_string -->
<g id="edge18" class="edge"><title>proc~json_value_print&#45;&gt;proc~real_to_string</title>
<path fill="none" stroke="black" d="M295.844,-144.066C306.71,-144.319 318.349,-144.59 329.375,-144.846"/>
<polygon fill="black" stroke="black" points="329.634,-148.353 339.713,-145.086 329.797,-141.355 329.634,-148.353"/>
</g>
<!-- proc~json_count -->
<g id="node19" class="node"><title>proc~json_count</title>
<a xlink:href="../proc/json_count.html" xlink:title="json_count">
<polygon fill="#d94e8f" stroke="#d94e8f" points="411,-115 347,-115 347,-89 411,-89 411,-115"/>
<text text-anchor="middle" x="379" y="-99.55" font-family="Helvetica,sans-Serif" font-size="10.50" fill="white">json_count</text>
</a>
</g>
<!-- proc~json_value_print&#45;&gt;proc~json_count -->
<g id="edge20" class="edge"><title>proc~json_value_print&#45;&gt;proc~json_count</title>
<path fill="none" stroke="black" d="M291.171,-129.915C305.789,-125.269 322.255,-120.035 336.946,-115.366"/>
<polygon fill="black" stroke="black" points="338.318,-118.602 346.788,-112.238 336.198,-111.931 338.318,-118.602"/>
</g>
<!-- proc~integer_to_string -->
<g id="node20" class="node"><title>proc~integer_to_string</title>
<a xlink:href="../proc/integer_to_string.html" xlink:title="integer_to_string">
<polygon fill="#d9534f" stroke="#d9534f" points="425,-247 333,-247 333,-221 425,-221 425,-247"/>
<text text-anchor="middle" x="379" y="-231.55" font-family="Helvetica,sans-Serif" font-size="10.50" fill="white">integer_to_string</text>
</a>
</g>
<!-- proc~json_value_print&#45;&gt;proc~integer_to_string -->
<g id="edge24" class="edge"><title>proc~json_value_print&#45;&gt;proc~integer_to_string</title>
<path fill="none" stroke="black" d="M263.348,-156.153C278.9,-171.003 305.818,-195.268 332,-212 334.27,-213.451 336.652,-214.863 339.087,-216.226"/>
<polygon fill="black" stroke="black" points="337.56,-219.377 348.041,-220.924 340.812,-213.178 337.56,-219.377"/>
</g>
<!-- proc~wrap_json_throw_exception&#45;&gt;proc~json_throw_exception -->
<g id="edge6" class="edge"><title>proc~wrap_json_throw_exception&#45;&gt;proc~json_throw_exception</title>
<path fill="none" stroke="black" d="M588.299,-51.0854C604.346,-55.0251 622.113,-59.3871 638.741,-63.4693"/>
<polygon fill="black" stroke="black" points="638.375,-66.9833 648.921,-65.9686 640.044,-60.1852 638.375,-66.9833"/>
</g>
<!-- interface~to_unicode -->
<g id="node8" class="node"><title>interface~to_unicode</title>
<a xlink:href="../interface/to_unicode.html" xlink:title="to_unicode">
<polygon fill="#a7506f" stroke="#a7506f" points="734,-48 670,-48 670,-22 734,-22 734,-48"/>
<text text-anchor="middle" x="702" y="-32.55" font-family="Helvetica,sans-Serif" font-size="10.50" fill="white">to_unicode</text>
</a>
</g>
<!-- proc~wrap_json_throw_exception&#45;&gt;interface~to_unicode -->
<g id="edge8" class="edge"><title>proc~wrap_json_throw_exception&#45;&gt;interface~to_unicode</title>
<path fill="none" stroke="black" d="M607.763,-36.6929C625.188,-36.3799 643.248,-36.0554 658.839,-35.7754"/>
<polygon fill="black" stroke="black" points="659.264,-39.2684 669.199,-35.5892 659.138,-32.2695 659.264,-39.2684"/>
</g>
<!-- proc~to_uni_vec -->
<g id="node9" class="node"><title>proc~to_uni_vec</title>
<a xlink:href="../proc/to_uni_vec.html" xlink:title="to_uni_vec">
<polygon fill="#d94e8f" stroke="#d94e8f" points="860,-70 796,-70 796,-44 860,-44 860,-70"/>
<text text-anchor="middle" x="828" y="-54.55" font-family="Helvetica,sans-Serif" font-size="10.50" fill="white">to_uni_vec</text>
</a>
</g>
<!-- interface~to_unicode&#45;&gt;proc~to_uni_vec -->
<g id="edge2" class="edge"><title>interface~to_unicode&#45;&gt;proc~to_uni_vec</title>
<path fill="none" stroke="black" stroke-dasharray="5,2" d="M734.776,-40.7228C750.355,-43.443 769.166,-46.7274 785.798,-49.6314"/>
<polygon fill="black" stroke="black" points="785.371,-53.1097 795.824,-51.382 786.575,-46.214 785.371,-53.1097"/>
</g>
<!-- proc~to_uni -->
<g id="node10" class="node"><title>proc~to_uni</title>
<a xlink:href="../proc/to_uni.html" xlink:title="to_uni">
<polygon fill="#d94e8f" stroke="#d94e8f" points="855,-26 801,-26 801,-1.24345e-14 855,-3.55271e-15 855,-26"/>
<text text-anchor="middle" x="828" y="-10.55" font-family="Helvetica,sans-Serif" font-size="10.50" fill="white">to_uni</text>
</a>
</g>
<!-- interface~to_unicode&#45;&gt;proc~to_uni -->
<g id="edge4" class="edge"><title>interface~to_unicode&#45;&gt;proc~to_uni</title>
<path fill="none" stroke="black" stroke-dasharray="5,2" d="M734.776,-29.2772C751.965,-26.276 773.088,-22.5878 790.878,-19.4816"/>
<polygon fill="black" stroke="black" points="791.664,-22.8974 800.913,-17.7295 790.46,-16.0017 791.664,-22.8974"/>
</g>
<!-- proc~compact_real_string -->
<g id="node21" class="node"><title>proc~compact_real_string</title>
<a xlink:href="../proc/compact_real_string.html" xlink:title="compact_real_string">
<polygon fill="#d9534f" stroke="#d9534f" points="589,-159 481,-159 481,-133 589,-133 589,-159"/>
<text text-anchor="middle" x="535" y="-143.55" font-family="Helvetica,sans-Serif" font-size="10.50" fill="white">compact_real_string</text>
</a>
</g>
<!-- proc~real_to_string&#45;&gt;proc~compact_real_string -->
<g id="edge14" class="edge"><title>proc~real_to_string&#45;&gt;proc~compact_real_string</title>
<path fill="none" stroke="black" d="M418.365,-146C434.06,-146 452.545,-146 470.117,-146"/>
<polygon fill="black" stroke="black" points="470.329,-149.5 480.329,-146 470.329,-142.5 470.329,-149.5"/>
</g>
</g>
</svg>
