<?xml version="1.0" encoding="UTF-8" standalone="no"?>
<!DOCTYPE svg PUBLIC "-//W3C//DTD SVG 1.1//EN"
 "http://www.w3.org/Graphics/SVG/1.1/DTD/svg11.dtd">
<!-- Generated by graphviz version 2.26.3 (20100126.1600)
 -->
<!-- Title: interface~~to_unicode~~CallsGraph Pages: 1 -->
<svg width="174pt" height="78pt"
 viewBox="0.00 0.00 174.00 78.00" xmlns="http://www.w3.org/2000/svg" xmlns:xlink="http://www.w3.org/1999/xlink">
<g id="graph1" class="graph" transform="scale(1 1) rotate(0) translate(4 74)">
<title>interface~~to_unicode~~CallsGraph</title>
<polygon fill="white" stroke="white" points="-4,5 -4,-74 171,-74 171,5 -4,5"/>
<!-- interface~to_unicode -->
<g id="node1" class="node"><title>interface~to_unicode</title>
<polygon fill="none" stroke="black" points="65,-48 1,-48 1,-22 65,-22 65,-48"/>
<text text-anchor="middle" x="33" y="-32.55" font-family="Helvetica,sans-Serif" font-size="10.50">to_unicode</text>
</g>
<!-- proc~to_uni_vec -->
<g id="node2" class="node"><title>proc~to_uni_vec</title>
<a xlink:href="../proc/to_uni_vec.html" xlink:title="to_uni_vec">
<polygon fill="#d94e8f" stroke="#d94e8f" points="166,-70 102,-70 102,-44 166,-44 166,-70"/>
<text text-anchor="middle" x="134" y="-54.55" font-family="Helvetica,sans-Serif" font-size="10.50" fill="white">to_uni_vec</text>
</a>
</g>
<!-- interface~to_unicode&#45;&gt;proc~to_uni_vec -->
<g id="edge2" class="edge"><title>interface~to_unicode&#45;&gt;proc~to_uni_vec</title>
<path fill="none" stroke="black" stroke-dasharray="5,2" d="M65.513,-42.082C73.9765,-43.9256 83.2154,-45.938 92.0897,-47.871"/>
<polygon fill="black" stroke="black" points="91.3775,-51.2979 101.893,-50.0065 92.8674,-44.4583 91.3775,-51.2979"/>
</g>
<!-- proc~to_uni -->
<g id="node3" class="node"><title>proc~to_uni</title>
<a xlink:href="../proc/to_uni.html" xlink:title="to_uni">
<polygon fill="#d94e8f" stroke="#d94e8f" points="161,-26 107,-26 107,-1.24345e-14 161,-3.55271e-15 161,-26"/>
<text text-anchor="middle" x="134" y="-10.55" font-family="Helvetica,sans-Serif" font-size="10.50" fill="white">to_uni</text>
</a>
</g>
<!-- interface~to_unicode&#45;&gt;proc~to_uni -->
<g id="edge4" class="edge"><title>interface~to_unicode&#45;&gt;proc~to_uni</title>
<path fill="none" stroke="black" stroke-dasharray="5,2" d="M65.513,-27.918C75.547,-25.7323 86.6709,-23.3093 96.985,-21.0627"/>
<polygon fill="black" stroke="black" points="97.9328,-24.4384 106.959,-18.8902 96.4429,-17.5988 97.9328,-24.4384"/>
</g>
</g>
</svg>
