<?xml version="1.0" encoding="UTF-8" standalone="no"?>
<!DOCTYPE svg PUBLIC "-//W3C//DTD SVG 1.1//EN"
 "http://www.w3.org/Graphics/SVG/1.1/DTD/svg11.dtd">
<!-- Generated by graphviz version 2.26.3 (20100126.1600)
 -->
<!-- Title: interface~~json_remove~~CallsGraph Pages: 1 -->
<svg width="502pt" height="52pt"
 viewBox="0.00 0.00 502.00 52.00" xmlns="http://www.w3.org/2000/svg" xmlns:xlink="http://www.w3.org/1999/xlink">
<g id="graph1" class="graph" transform="scale(1 1) rotate(0) translate(4 48)">
<title>interface~~json_remove~~CallsGraph</title>
<polygon fill="white" stroke="white" points="-4,5 -4,-48 499,-48 499,5 -4,5"/>
<!-- interface~json_remove -->
<g id="node1" class="node"><title>interface~json_remove</title>
<polygon fill="none" stroke="black" points="74,-26 3.55271e-14,-26 0,-1.24345e-14 74,-3.55271e-15 74,-26"/>
<text text-anchor="middle" x="37" y="-10.55" font-family="Helvetica,sans-Serif" font-size="10.50">json_remove</text>
</g>
<!-- proc~json_value_remove -->
<g id="node2" class="node"><title>proc~json_value_remove</title>
<a xlink:href="../proc/json_value_remove.html" xlink:title="json_value_remove">
<polygon fill="#d9534f" stroke="#d9534f" points="216,-26 110,-26 110,-1.24345e-14 216,-3.55271e-15 216,-26"/>
<text text-anchor="middle" x="163" y="-10.55" font-family="Helvetica,sans-Serif" font-size="10.50" fill="white">json_value_remove</text>
</a>
</g>
<!-- interface~json_remove&#45;&gt;proc~json_value_remove -->
<g id="edge8" class="edge"><title>interface~json_remove&#45;&gt;proc~json_value_remove</title>
<path fill="none" stroke="black" stroke-dasharray="5,2" d="M74.1227,-13C82.1576,-13 90.8723,-13 99.5973,-13"/>
<polygon fill="black" stroke="black" points="99.8044,-16.5001 109.804,-13 99.8043,-9.5001 99.8044,-16.5001"/>
</g>
<!-- proc~json_value_destroy -->
<g id="node3" class="node"><title>proc~json_value_destroy</title>
<a xlink:href="../proc/json_value_destroy.html" xlink:title="json_value_destroy">
<polygon fill="#d9534f" stroke="#d9534f" points="357,-26 253,-26 253,-1.24345e-14 357,-3.55271e-15 357,-26"/>
<text text-anchor="middle" x="305" y="-10.55" font-family="Helvetica,sans-Serif" font-size="10.50" fill="white">json_value_destroy</text>
</a>
</g>
<!-- proc~json_value_remove&#45;&gt;proc~json_value_destroy -->
<g id="edge6" class="edge"><title>proc~json_value_remove&#45;&gt;proc~json_value_destroy</title>
<path fill="none" stroke="black" d="M216.28,-13C224.764,-13 233.609,-13 242.287,-13"/>
<polygon fill="black" stroke="black" points="242.366,-16.5001 252.366,-13 242.366,-9.5001 242.366,-16.5001"/>
</g>
<!-- proc~json_value_destroy&#45;&gt;proc~json_value_destroy -->
<g id="edge4" class="edge"><title>proc~json_value_destroy&#45;&gt;proc~json_value_destroy</title>
<path fill="none" stroke="black" d="M281.652,-26.0602C274.577,-35.0996 282.359,-44 305,-44 318.797,-44 327.076,-40.6949 329.838,-36.0674"/>
<polygon fill="black" stroke="black" points="333.283,-35.4357 328.348,-26.0602 326.359,-36.4666 333.283,-35.4357"/>
</g>
<!-- proc~destroy_json_data -->
<g id="node4" class="node"><title>proc~destroy_json_data</title>
<a xlink:href="../proc/destroy_json_data.html" xlink:title="destroy_json_data">
<polygon fill="#d9534f" stroke="#d9534f" points="494,-26 394,-26 394,-1.24345e-14 494,-3.55271e-15 494,-26"/>
<text text-anchor="middle" x="444" y="-10.55" font-family="Helvetica,sans-Serif" font-size="10.50" fill="white">destroy_json_data</text>
</a>
</g>
<!-- proc~json_value_destroy&#45;&gt;proc~destroy_json_data -->
<g id="edge2" class="edge"><title>proc~json_value_destroy&#45;&gt;proc~destroy_json_data</title>
<path fill="none" stroke="black" d="M357.55,-13C366.06,-13 374.93,-13 383.608,-13"/>
<polygon fill="black" stroke="black" points="383.674,-16.5001 393.673,-13 383.673,-9.5001 383.674,-16.5001"/>
</g>
</g>
</svg>
