<?xml version="1.0" encoding="UTF-8" standalone="no"?>
<!DOCTYPE svg PUBLIC "-//W3C//DTD SVG 1.1//EN"
 "http://www.w3.org/Graphics/SVG/1.1/DTD/svg11.dtd">
<!-- Generated by graphviz version 2.26.3 (20100126.1600)
 -->
<!-- Title: interface~~throw_exception~~CallsGraph Pages: 1 -->
<svg width="534pt" height="100pt"
 viewBox="0.00 0.00 534.00 100.00" xmlns="http://www.w3.org/2000/svg" xmlns:xlink="http://www.w3.org/1999/xlink">
<g id="graph1" class="graph" transform="scale(1 1) rotate(0) translate(4 96)">
<title>interface~~throw_exception~~CallsGraph</title>
<polygon fill="white" stroke="white" points="-4,5 -4,-96 531,-96 531,5 -4,5"/>
<!-- interface~throw_exception -->
<g id="node1" class="node"><title>interface~throw_exception</title>
<polygon fill="none" stroke="black" points="91,-71 1,-71 1,-45 91,-45 91,-71"/>
<text text-anchor="middle" x="46" y="-55.55" font-family="Helvetica,sans-Serif" font-size="10.50">throw_exception</text>
</g>
<!-- proc~json_throw_exception -->
<g id="node2" class="node"><title>proc~json_throw_exception</title>
<a xlink:href="../proc/json_throw_exception.html" xlink:title="json_throw_exception">
<polygon fill="#d9534f" stroke="#d9534f" points="426,-92 310,-92 310,-66 426,-66 426,-92"/>
<text text-anchor="middle" x="368" y="-76.55" font-family="Helvetica,sans-Serif" font-size="10.50" fill="white">json_throw_exception</text>
</a>
</g>
<!-- interface~throw_exception&#45;&gt;proc~json_throw_exception -->
<g id="edge10" class="edge"><title>interface~throw_exception&#45;&gt;proc~json_throw_exception</title>
<path fill="none" stroke="black" stroke-dasharray="5,2" d="M91.7928,-60.9865C146.069,-64.5262 237.029,-70.4584 299.647,-74.5422"/>
<polygon fill="black" stroke="black" points="299.623,-78.048 309.83,-75.2063 300.079,-71.0628 299.623,-78.048"/>
</g>
<!-- proc~wrap_json_throw_exception -->
<g id="node3" class="node"><title>proc~wrap_json_throw_exception</title>
<a xlink:href="../proc/wrap_json_throw_exception.html" xlink:title="wrap_json_throw_exception">
<polygon fill="#d9534f" stroke="#d9534f" points="273,-51 129,-51 129,-25 273,-25 273,-51"/>
<text text-anchor="middle" x="201" y="-35.55" font-family="Helvetica,sans-Serif" font-size="10.50" fill="white">wrap_json_throw_exception</text>
</a>
</g>
<!-- interface~throw_exception&#45;&gt;proc~wrap_json_throw_exception -->
<g id="edge12" class="edge"><title>interface~throw_exception&#45;&gt;proc~wrap_json_throw_exception</title>
<path fill="none" stroke="black" stroke-dasharray="5,2" d="M91.6668,-52.1075C100.126,-51.0159 109.199,-49.8453 118.367,-48.6623"/>
<polygon fill="black" stroke="black" points="118.859,-52.1279 128.329,-47.3769 117.963,-45.1855 118.859,-52.1279"/>
</g>
<!-- proc~wrap_json_throw_exception&#45;&gt;proc~json_throw_exception -->
<g id="edge6" class="edge"><title>proc~wrap_json_throw_exception&#45;&gt;proc~json_throw_exception</title>
<path fill="none" stroke="black" d="M254.299,-51.0854C270.346,-55.0251 288.113,-59.3871 304.741,-63.4693"/>
<polygon fill="black" stroke="black" points="304.375,-66.9833 314.921,-65.9686 306.044,-60.1852 304.375,-66.9833"/>
</g>
<!-- interface~to_unicode -->
<g id="node4" class="node"><title>interface~to_unicode</title>
<a xlink:href="../interface/to_unicode.html" xlink:title="to_unicode">
<polygon fill="#a7506f" stroke="#a7506f" points="400,-48 336,-48 336,-22 400,-22 400,-48"/>
<text text-anchor="middle" x="368" y="-32.55" font-family="Helvetica,sans-Serif" font-size="10.50" fill="white">to_unicode</text>
</a>
</g>
<!-- proc~wrap_json_throw_exception&#45;&gt;interface~to_unicode -->
<g id="edge8" class="edge"><title>proc~wrap_json_throw_exception&#45;&gt;interface~to_unicode</title>
<path fill="none" stroke="black" d="M273.763,-36.6929C291.188,-36.3799 309.248,-36.0554 324.839,-35.7754"/>
<polygon fill="black" stroke="black" points="325.264,-39.2684 335.199,-35.5892 325.138,-32.2695 325.264,-39.2684"/>
</g>
<!-- proc~to_uni_vec -->
<g id="node5" class="node"><title>proc~to_uni_vec</title>
<a xlink:href="../proc/to_uni_vec.html" xlink:title="to_uni_vec">
<polygon fill="#d94e8f" stroke="#d94e8f" points="526,-70 462,-70 462,-44 526,-44 526,-70"/>
<text text-anchor="middle" x="494" y="-54.55" font-family="Helvetica,sans-Serif" font-size="10.50" fill="white">to_uni_vec</text>
</a>
</g>
<!-- interface~to_unicode&#45;&gt;proc~to_uni_vec -->
<g id="edge2" class="edge"><title>interface~to_unicode&#45;&gt;proc~to_uni_vec</title>
<path fill="none" stroke="black" stroke-dasharray="5,2" d="M400.776,-40.7228C416.355,-43.443 435.166,-46.7274 451.798,-49.6314"/>
<polygon fill="black" stroke="black" points="451.371,-53.1097 461.824,-51.382 452.575,-46.214 451.371,-53.1097"/>
</g>
<!-- proc~to_uni -->
<g id="node6" class="node"><title>proc~to_uni</title>
<a xlink:href="../proc/to_uni.html" xlink:title="to_uni">
<polygon fill="#d94e8f" stroke="#d94e8f" points="521,-26 467,-26 467,-1.24345e-14 521,-3.55271e-15 521,-26"/>
<text text-anchor="middle" x="494" y="-10.55" font-family="Helvetica,sans-Serif" font-size="10.50" fill="white">to_uni</text>
</a>
</g>
<!-- interface~to_unicode&#45;&gt;proc~to_uni -->
<g id="edge4" class="edge"><title>interface~to_unicode&#45;&gt;proc~to_uni</title>
<path fill="none" stroke="black" stroke-dasharray="5,2" d="M400.776,-29.2772C417.965,-26.276 439.088,-22.5878 456.878,-19.4816"/>
<polygon fill="black" stroke="black" points="457.664,-22.8974 466.913,-17.7295 456.46,-16.0017 457.664,-22.8974"/>
</g>
</g>
</svg>
