<?xml version="1.0" encoding="UTF-8" standalone="no"?>
<!DOCTYPE svg PUBLIC "-//W3C//DTD SVG 1.1//EN"
 "http://www.w3.org/Graphics/SVG/1.1/DTD/svg11.dtd">
<!-- Generated by graphviz version 2.26.3 (20100126.1600)
 -->
<!-- Title: interface~~json_get_child~~CallsGraph Pages: 1 -->
<svg width="641pt" height="71pt"
 viewBox="0.00 0.00 641.00 71.29" xmlns="http://www.w3.org/2000/svg" xmlns:xlink="http://www.w3.org/1999/xlink">
<g id="graph1" class="graph" transform="scale(0.589154 0.589154) rotate(0) translate(4 117)">
<title>interface~~json_get_child~~CallsGraph</title>
<polygon fill="white" stroke="white" points="-4,5 -4,-117 1085,-117 1085,5 -4,5"/>
<!-- interface~json_get_child -->
<g id="node1" class="node"><title>interface~json_get_child</title>
<polygon fill="none" stroke="black" points="81,-72 1,-72 1,-46 81,-46 81,-72"/>
<text text-anchor="middle" x="41" y="-56.55" font-family="Helvetica,sans-Serif" font-size="10.50">json_get_child</text>
</g>
<!-- proc~json_value_get_by_index -->
<g id="node2" class="node"><title>proc~json_value_get_by_index</title>
<a xlink:href="../proc/json_value_get_by_index.html" xlink:title="json_value_get_by_index">
<polygon fill="#d9534f" stroke="#d9534f" points="500,-113 368,-113 368,-87 500,-87 500,-113"/>
<text text-anchor="middle" x="434" y="-97.55" font-family="Helvetica,sans-Serif" font-size="10.50" fill="white">json_value_get_by_index</text>
</a>
</g>
<!-- interface~json_get_child&#45;&gt;proc~json_value_get_by_index -->
<g id="edge24" class="edge"><title>interface~json_get_child&#45;&gt;proc~json_value_get_by_index</title>
<path fill="none" stroke="black" stroke-dasharray="5,2" d="M81.6934,-65.8328C93.3931,-67.6639 106.184,-69.5386 118,-71 199.481,-81.0778 293.183,-89.2499 357.265,-94.3199"/>
<polygon fill="black" stroke="black" points="357.046,-97.8133 367.289,-95.1068 357.594,-90.8348 357.046,-97.8133"/>
</g>
<!-- proc~json_value_get_by_name_chars -->
<g id="node3" class="node"><title>proc~json_value_get_by_name_chars</title>
<a xlink:href="../proc/json_value_get_by_name_chars.html" xlink:title="json_value_get_by_name_chars">
<polygon fill="#d9534f" stroke="#d9534f" points="517,-69 351,-69 351,-43 517,-43 517,-69"/>
<text text-anchor="middle" x="434" y="-53.55" font-family="Helvetica,sans-Serif" font-size="10.50" fill="white">json_value_get_by_name_chars</text>
</a>
</g>
<!-- interface~json_get_child&#45;&gt;proc~json_value_get_by_name_chars -->
<g id="edge26" class="edge"><title>interface~json_get_child&#45;&gt;proc~json_value_get_by_name_chars</title>
<path fill="none" stroke="black" stroke-dasharray="5,2" d="M81.5777,-58.6902C142.104,-58.2282 257.715,-57.3457 340.01,-56.7175"/>
<polygon fill="black" stroke="black" points="340.154,-60.2166 350.127,-56.6403 340.1,-53.2168 340.154,-60.2166"/>
</g>
<!-- proc~wrap_json_value_get_by_name_chars -->
<g id="node4" class="node"><title>proc~wrap_json_value_get_by_name_chars</title>
<a xlink:href="../proc/wrap_json_value_get_by_name_chars.html" xlink:title="wrap_json_value_get_by_name_chars">
<polygon fill="#d9534f" stroke="#d9534f" points="314,-31 118,-31 118,-5 314,-5 314,-31"/>
<text text-anchor="middle" x="216" y="-15.55" font-family="Helvetica,sans-Serif" font-size="10.50" fill="white">wrap_json_value_get_by_name_chars</text>
</a>
</g>
<!-- interface~json_get_child&#45;&gt;proc~wrap_json_value_get_by_name_chars -->
<g id="edge28" class="edge"><title>interface~json_get_child&#45;&gt;proc~wrap_json_value_get_by_name_chars</title>
<path fill="none" stroke="black" stroke-dasharray="5,2" d="M81.5884,-49.4907C102.085,-44.6886 127.458,-38.744 150.619,-33.3179"/>
<polygon fill="black" stroke="black" points="151.451,-36.7179 160.388,-31.029 149.854,-29.9024 151.451,-36.7179"/>
</g>
<!-- interface~throw_exception -->
<g id="node5" class="node"><title>interface~throw_exception</title>
<a xlink:href="../interface/throw_exception.html" xlink:title="throw_exception">
<polygon fill="#a7506f" stroke="#a7506f" points="645,-113 555,-113 555,-87 645,-87 645,-113"/>
<text text-anchor="middle" x="600" y="-97.55" font-family="Helvetica,sans-Serif" font-size="10.50" fill="white">throw_exception</text>
</a>
</g>
<!-- proc~json_value_get_by_index&#45;&gt;interface~throw_exception -->
<g id="edge14" class="edge"><title>proc~json_value_get_by_index&#45;&gt;interface~throw_exception</title>
<path fill="none" stroke="black" d="M500.562,-100C514.938,-100 529.999,-100 543.925,-100"/>
<polygon fill="black" stroke="black" points="544.324,-103.5 554.324,-100 544.324,-96.5001 544.324,-103.5"/>
</g>
<!-- proc~json_value_get_by_name_chars&#45;&gt;interface~throw_exception -->
<g id="edge16" class="edge"><title>proc~json_value_get_by_name_chars&#45;&gt;interface~throw_exception</title>
<path fill="none" stroke="black" d="M484.205,-69.0967C495.336,-72.0149 507.071,-75.1028 518,-78 526.592,-80.2777 535.686,-82.7031 544.569,-85.0802"/>
<polygon fill="black" stroke="black" points="543.906,-88.5258 554.471,-87.7331 545.717,-81.7643 543.906,-88.5258"/>
</g>
<!-- proc~json_count -->
<g id="node18" class="node"><title>proc~json_count</title>
<a xlink:href="../proc/json_count.html" xlink:title="json_count">
<polygon fill="#d94e8f" stroke="#d94e8f" points="632,-69 568,-69 568,-43 632,-43 632,-69"/>
<text text-anchor="middle" x="600" y="-53.55" font-family="Helvetica,sans-Serif" font-size="10.50" fill="white">json_count</text>
</a>
</g>
<!-- proc~json_value_get_by_name_chars&#45;&gt;proc~json_count -->
<g id="edge18" class="edge"><title>proc~json_value_get_by_name_chars&#45;&gt;proc~json_count</title>
<path fill="none" stroke="black" d="M517.973,-56C531.656,-56 545.304,-56 557.429,-56"/>
<polygon fill="black" stroke="black" points="557.655,-59.5001 567.655,-56 557.655,-52.5001 557.655,-59.5001"/>
</g>
<!-- proc~wrap_json_value_get_by_name_chars&#45;&gt;proc~json_value_get_by_name_chars -->
<g id="edge22" class="edge"><title>proc~wrap_json_value_get_by_name_chars&#45;&gt;proc~json_value_get_by_name_chars</title>
<path fill="none" stroke="black" d="M290.718,-31.0243C309.611,-34.3175 330.033,-37.8774 349.376,-41.2491"/>
<polygon fill="black" stroke="black" points="348.927,-44.7234 359.379,-42.9927 350.129,-37.8274 348.927,-44.7234"/>
</g>
<!-- interface~to_unicode -->
<g id="node8" class="node"><title>interface~to_unicode</title>
<a xlink:href="../interface/to_unicode.html" xlink:title="to_unicode">
<polygon fill="#a7506f" stroke="#a7506f" points="954,-48 890,-48 890,-22 954,-22 954,-48"/>
<text text-anchor="middle" x="922" y="-32.55" font-family="Helvetica,sans-Serif" font-size="10.50" fill="white">to_unicode</text>
</a>
</g>
<!-- proc~wrap_json_value_get_by_name_chars&#45;&gt;interface~to_unicode -->
<g id="edge20" class="edge"><title>proc~wrap_json_value_get_by_name_chars&#45;&gt;interface~to_unicode</title>
<path fill="none" stroke="black" d="M314.166,-20.3638C470.161,-24.12 768.321,-31.2995 879.134,-33.9678"/>
<polygon fill="black" stroke="black" points="879.18,-37.4699 889.262,-34.2117 879.349,-30.4719 879.18,-37.4699"/>
</g>
<!-- proc~json_throw_exception -->
<g id="node6" class="node"><title>proc~json_throw_exception</title>
<a xlink:href="../proc/json_throw_exception.html" xlink:title="json_throw_exception">
<polygon fill="#d9534f" stroke="#d9534f" points="980,-102 864,-102 864,-76 980,-76 980,-102"/>
<text text-anchor="middle" x="922" y="-86.55" font-family="Helvetica,sans-Serif" font-size="10.50" fill="white">json_throw_exception</text>
</a>
</g>
<!-- interface~throw_exception&#45;&gt;proc~json_throw_exception -->
<g id="edge10" class="edge"><title>interface~throw_exception&#45;&gt;proc~json_throw_exception</title>
<path fill="none" stroke="black" stroke-dasharray="5,2" d="M645.793,-98.4357C700.069,-96.5815 791.029,-93.4742 853.647,-91.3351"/>
<polygon fill="black" stroke="black" points="853.955,-94.8267 863.83,-90.9872 853.716,-87.8307 853.955,-94.8267"/>
</g>
<!-- proc~wrap_json_throw_exception -->
<g id="node7" class="node"><title>proc~wrap_json_throw_exception</title>
<a xlink:href="../proc/wrap_json_throw_exception.html" xlink:title="wrap_json_throw_exception">
<polygon fill="#d9534f" stroke="#d9534f" points="827,-72 683,-72 683,-46 827,-46 827,-72"/>
<text text-anchor="middle" x="755" y="-56.55" font-family="Helvetica,sans-Serif" font-size="10.50" fill="white">wrap_json_throw_exception</text>
</a>
</g>
<!-- interface~throw_exception&#45;&gt;proc~wrap_json_throw_exception -->
<g id="edge12" class="edge"><title>interface~throw_exception&#45;&gt;proc~wrap_json_throw_exception</title>
<path fill="none" stroke="black" stroke-dasharray="5,2" d="M645.667,-87.9204C661.27,-83.793 678.958,-79.1144 695.489,-74.7415"/>
<polygon fill="black" stroke="black" points="696.832,-78.0069 705.604,-72.066 695.042,-71.2396 696.832,-78.0069"/>
</g>
<!-- proc~wrap_json_throw_exception&#45;&gt;proc~json_throw_exception -->
<g id="edge6" class="edge"><title>proc~wrap_json_throw_exception&#45;&gt;proc~json_throw_exception</title>
<path fill="none" stroke="black" d="M827.763,-72.0712C836.418,-73.626 845.229,-75.2089 853.817,-76.7516"/>
<polygon fill="black" stroke="black" points="853.312,-80.2167 863.773,-78.54 854.549,-73.327 853.312,-80.2167"/>
</g>
<!-- proc~wrap_json_throw_exception&#45;&gt;interface~to_unicode -->
<g id="edge8" class="edge"><title>proc~wrap_json_throw_exception&#45;&gt;interface~to_unicode</title>
<path fill="none" stroke="black" d="M827.763,-48.5431C845.356,-46.0147 863.596,-43.3935 879.288,-41.1383"/>
<polygon fill="black" stroke="black" points="879.799,-44.6009 889.199,-39.7139 878.803,-37.6721 879.799,-44.6009"/>
</g>
<!-- proc~to_uni_vec -->
<g id="node9" class="node"><title>proc~to_uni_vec</title>
<a xlink:href="../proc/to_uni_vec.html" xlink:title="to_uni_vec">
<polygon fill="#d94e8f" stroke="#d94e8f" points="1080,-70 1016,-70 1016,-44 1080,-44 1080,-70"/>
<text text-anchor="middle" x="1048" y="-54.55" font-family="Helvetica,sans-Serif" font-size="10.50" fill="white">to_uni_vec</text>
</a>
</g>
<!-- interface~to_unicode&#45;&gt;proc~to_uni_vec -->
<g id="edge2" class="edge"><title>interface~to_unicode&#45;&gt;proc~to_uni_vec</title>
<path fill="none" stroke="black" stroke-dasharray="5,2" d="M954.776,-40.7228C970.355,-43.443 989.166,-46.7274 1005.8,-49.6314"/>
<polygon fill="black" stroke="black" points="1005.37,-53.1097 1015.82,-51.382 1006.58,-46.214 1005.37,-53.1097"/>
</g>
<!-- proc~to_uni -->
<g id="node10" class="node"><title>proc~to_uni</title>
<a xlink:href="../proc/to_uni.html" xlink:title="to_uni">
<polygon fill="#d94e8f" stroke="#d94e8f" points="1075,-26 1021,-26 1021,-1.24345e-14 1075,-3.55271e-15 1075,-26"/>
<text text-anchor="middle" x="1048" y="-10.55" font-family="Helvetica,sans-Serif" font-size="10.50" fill="white">to_uni</text>
</a>
</g>
<!-- interface~to_unicode&#45;&gt;proc~to_uni -->
<g id="edge4" class="edge"><title>interface~to_unicode&#45;&gt;proc~to_uni</title>
<path fill="none" stroke="black" stroke-dasharray="5,2" d="M954.776,-29.2772C971.965,-26.276 993.088,-22.5878 1010.88,-19.4816"/>
<polygon fill="black" stroke="black" points="1011.66,-22.8974 1020.91,-17.7295 1010.46,-16.0017 1011.66,-22.8974"/>
</g>
</g>
</svg>
