<?xml version="1.0" encoding="UTF-8" standalone="no"?>
<!DOCTYPE svg PUBLIC "-//W3C//DTD SVG 1.1//EN"
 "http://www.w3.org/Graphics/SVG/1.1/DTD/svg11.dtd">
<!-- Generated by graphviz version 2.26.3 (20100126.1600)
 -->
<!-- Title: interface~~json_print_to_string~~CallsGraph Pages: 1 -->
<svg width="641pt" height="142pt"
 viewBox="0.00 0.00 641.00 142.44" xmlns="http://www.w3.org/2000/svg" xmlns:xlink="http://www.w3.org/1999/xlink">
<g id="graph1" class="graph" transform="scale(0.671908 0.671908) rotate(0) translate(4 208)">
<title>interface~~json_print_to_string~~CallsGraph</title>
<polygon fill="white" stroke="white" points="-4,5 -4,-208 951,-208 951,5 -4,5"/>
<!-- interface~json_print_to_string -->
<g id="node1" class="node"><title>interface~json_print_to_string</title>
<polygon fill="none" stroke="black" points="106,-116 3.55271e-14,-116 0,-90 106,-90 106,-116"/>
<text text-anchor="middle" x="53" y="-100.55" font-family="Helvetica,sans-Serif" font-size="10.50">json_print_to_string</text>
</g>
<!-- proc~json_value_to_string -->
<g id="node2" class="node"><title>proc~json_value_to_string</title>
<a xlink:href="../proc/json_value_to_string.html" xlink:title="json_value_to_string">
<polygon fill="#d9534f" stroke="#d9534f" points="253,-116 143,-116 143,-90 253,-90 253,-116"/>
<text text-anchor="middle" x="198" y="-100.55" font-family="Helvetica,sans-Serif" font-size="10.50" fill="white">json_value_to_string</text>
</a>
</g>
<!-- interface~json_print_to_string&#45;&gt;proc~json_value_to_string -->
<g id="edge30" class="edge"><title>interface~json_print_to_string&#45;&gt;proc~json_value_to_string</title>
<path fill="none" stroke="black" stroke-dasharray="5,2" d="M106.169,-103C114.651,-103 123.513,-103 132.244,-103"/>
<polygon fill="black" stroke="black" points="132.403,-106.5 142.402,-103 132.402,-99.5001 132.403,-106.5"/>
</g>
<!-- proc~json_value_print -->
<g id="node3" class="node"><title>proc~json_value_print</title>
<a xlink:href="../proc/json_value_print.html" xlink:title="json_value_print">
<polygon fill="#d9534f" stroke="#d9534f" points="381,-116 291,-116 291,-90 381,-90 381,-116"/>
<text text-anchor="middle" x="336" y="-100.55" font-family="Helvetica,sans-Serif" font-size="10.50" fill="white">json_value_print</text>
</a>
</g>
<!-- proc~json_value_to_string&#45;&gt;proc~json_value_print -->
<g id="edge28" class="edge"><title>proc~json_value_to_string&#45;&gt;proc~json_value_print</title>
<path fill="none" stroke="black" d="M253.732,-103C262.442,-103 271.445,-103 280.158,-103"/>
<polygon fill="black" stroke="black" points="280.217,-106.5 290.217,-103 280.217,-99.5001 280.217,-106.5"/>
</g>
<!-- proc~json_value_print&#45;&gt;proc~json_value_print -->
<g id="edge26" class="edge"><title>proc~json_value_print&#45;&gt;proc~json_value_print</title>
<path fill="none" stroke="black" d="M314.344,-116.06C307.781,-125.1 315,-134 336,-134 348.797,-134 356.476,-130.695 359.038,-126.067"/>
<polygon fill="black" stroke="black" points="362.491,-125.487 357.656,-116.06 355.557,-126.445 362.491,-125.487"/>
</g>
<!-- none~write_it -->
<g id="node4" class="node"><title>none~write_it</title>
<polygon fill="#d9534f" stroke="#d9534f" points="492,-204 438,-204 438,-178 492,-178 492,-204"/>
<text text-anchor="middle" x="465" y="-188.55" font-family="Helvetica,sans-Serif" font-size="10.50" fill="white">write_it</text>
</g>
<!-- proc~json_value_print&#45;&gt;none~write_it -->
<g id="edge16" class="edge"><title>proc~json_value_print&#45;&gt;none~write_it</title>
<path fill="none" stroke="black" d="M350.02,-116.04C365.747,-130.236 392.417,-153.041 418,-169 421.344,-171.086 424.918,-173.102 428.546,-175.01"/>
<polygon fill="black" stroke="black" points="427.061,-178.181 437.572,-179.512 430.185,-171.917 427.061,-178.181"/>
</g>
<!-- proc~real_to_string -->
<g id="node5" class="node"><title>proc~real_to_string</title>
<a xlink:href="../proc/real_to_string.html" xlink:title="real_to_string">
<polygon fill="#d9534f" stroke="#d9534f" points="504,-160 426,-160 426,-134 504,-134 504,-160"/>
<text text-anchor="middle" x="465" y="-144.55" font-family="Helvetica,sans-Serif" font-size="10.50" fill="white">real_to_string</text>
</a>
</g>
<!-- proc~json_value_print&#45;&gt;proc~real_to_string -->
<g id="edge18" class="edge"><title>proc~json_value_print&#45;&gt;proc~real_to_string</title>
<path fill="none" stroke="black" d="M374.355,-116.082C387.751,-120.652 402.959,-125.839 417.039,-130.641"/>
<polygon fill="black" stroke="black" points="415.976,-133.976 426.57,-133.892 418.235,-127.351 415.976,-133.976"/>
</g>
<!-- proc~json_count -->
<g id="node6" class="node"><title>proc~json_count</title>
<a xlink:href="../proc/json_count.html" xlink:title="json_count">
<polygon fill="#d94e8f" stroke="#d94e8f" points="497,-116 433,-116 433,-90 497,-90 497,-116"/>
<text text-anchor="middle" x="465" y="-100.55" font-family="Helvetica,sans-Serif" font-size="10.50" fill="white">json_count</text>
</a>
</g>
<!-- proc~json_value_print&#45;&gt;proc~json_count -->
<g id="edge20" class="edge"><title>proc~json_value_print&#45;&gt;proc~json_count</title>
<path fill="none" stroke="black" d="M381.844,-103C395.101,-103 409.509,-103 422.549,-103"/>
<polygon fill="black" stroke="black" points="422.666,-106.5 432.666,-103 422.666,-99.5001 422.666,-106.5"/>
</g>
<!-- interface~throw_exception -->
<g id="node7" class="node"><title>interface~throw_exception</title>
<a xlink:href="../interface/throw_exception.html" xlink:title="throw_exception">
<polygon fill="#a7506f" stroke="#a7506f" points="510,-72 420,-72 420,-46 510,-46 510,-72"/>
<text text-anchor="middle" x="465" y="-56.55" font-family="Helvetica,sans-Serif" font-size="10.50" fill="white">throw_exception</text>
</a>
</g>
<!-- proc~json_value_print&#45;&gt;interface~throw_exception -->
<g id="edge22" class="edge"><title>proc~json_value_print&#45;&gt;interface~throw_exception</title>
<path fill="none" stroke="black" d="M374.355,-89.9177C387.751,-85.3484 402.959,-80.1614 417.039,-75.3589"/>
<polygon fill="black" stroke="black" points="418.235,-78.6488 426.57,-72.1079 415.976,-72.0236 418.235,-78.6488"/>
</g>
<!-- proc~integer_to_string -->
<g id="node8" class="node"><title>proc~integer_to_string</title>
<a xlink:href="../proc/integer_to_string.html" xlink:title="integer_to_string">
<polygon fill="#d9534f" stroke="#d9534f" points="511,-28 419,-28 419,-2 511,-2 511,-28"/>
<text text-anchor="middle" x="465" y="-12.55" font-family="Helvetica,sans-Serif" font-size="10.50" fill="white">integer_to_string</text>
</a>
</g>
<!-- proc~json_value_print&#45;&gt;proc~integer_to_string -->
<g id="edge24" class="edge"><title>proc~json_value_print&#45;&gt;proc~integer_to_string</title>
<path fill="none" stroke="black" d="M350.02,-89.9598C365.747,-75.7639 392.417,-52.9594 418,-37 420.286,-35.5739 422.679,-34.1808 425.124,-32.8324"/>
<polygon fill="black" stroke="black" points="426.84,-35.8848 434.098,-28.1663 423.611,-29.6741 426.84,-35.8848"/>
</g>
<!-- proc~compact_real_string -->
<g id="node9" class="node"><title>proc~compact_real_string</title>
<a xlink:href="../proc/compact_real_string.html" xlink:title="compact_real_string">
<polygon fill="#d9534f" stroke="#d9534f" points="675,-160 567,-160 567,-134 675,-134 675,-160"/>
<text text-anchor="middle" x="621" y="-144.55" font-family="Helvetica,sans-Serif" font-size="10.50" fill="white">compact_real_string</text>
</a>
</g>
<!-- proc~real_to_string&#45;&gt;proc~compact_real_string -->
<g id="edge2" class="edge"><title>proc~real_to_string&#45;&gt;proc~compact_real_string</title>
<path fill="none" stroke="black" d="M504.365,-147C520.06,-147 538.545,-147 556.117,-147"/>
<polygon fill="black" stroke="black" points="556.329,-150.5 566.329,-147 556.329,-143.5 556.329,-150.5"/>
</g>
<!-- proc~json_throw_exception -->
<g id="node11" class="node"><title>proc~json_throw_exception</title>
<a xlink:href="../proc/json_throw_exception.html" xlink:title="json_throw_exception">
<polygon fill="#d9534f" stroke="#d9534f" points="846,-92 730,-92 730,-66 846,-66 846,-92"/>
<text text-anchor="middle" x="788" y="-76.55" font-family="Helvetica,sans-Serif" font-size="10.50" fill="white">json_throw_exception</text>
</a>
</g>
<!-- interface~throw_exception&#45;&gt;proc~json_throw_exception -->
<g id="edge12" class="edge"><title>interface~throw_exception&#45;&gt;proc~json_throw_exception</title>
<path fill="none" stroke="black" stroke-dasharray="5,2" d="M510.593,-61.8231C565.035,-65.1941 656.618,-70.8649 719.566,-74.7626"/>
<polygon fill="black" stroke="black" points="719.604,-78.2716 729.802,-75.3964 720.037,-71.285 719.604,-78.2716"/>
</g>
<!-- proc~wrap_json_throw_exception -->
<g id="node12" class="node"><title>proc~wrap_json_throw_exception</title>
<a xlink:href="../proc/wrap_json_throw_exception.html" xlink:title="wrap_json_throw_exception">
<polygon fill="#d9534f" stroke="#d9534f" points="693,-51 549,-51 549,-25 693,-25 693,-51"/>
<text text-anchor="middle" x="621" y="-35.55" font-family="Helvetica,sans-Serif" font-size="10.50" fill="white">wrap_json_throw_exception</text>
</a>
</g>
<!-- interface~throw_exception&#45;&gt;proc~wrap_json_throw_exception -->
<g id="edge14" class="edge"><title>interface~throw_exception&#45;&gt;proc~wrap_json_throw_exception</title>
<path fill="none" stroke="black" stroke-dasharray="5,2" d="M510.541,-52.8695C519.352,-51.6834 528.835,-50.4069 538.41,-49.1178"/>
<polygon fill="black" stroke="black" points="538.955,-52.5762 548.398,-47.7733 538.021,-45.6388 538.955,-52.5762"/>
</g>
<!-- proc~wrap_json_throw_exception&#45;&gt;proc~json_throw_exception -->
<g id="edge8" class="edge"><title>proc~wrap_json_throw_exception&#45;&gt;proc~json_throw_exception</title>
<path fill="none" stroke="black" d="M674.299,-51.0854C690.346,-55.0251 708.113,-59.3871 724.741,-63.4693"/>
<polygon fill="black" stroke="black" points="724.375,-66.9833 734.921,-65.9686 726.044,-60.1852 724.375,-66.9833"/>
</g>
<!-- interface~to_unicode -->
<g id="node13" class="node"><title>interface~to_unicode</title>
<a xlink:href="../interface/to_unicode.html" xlink:title="to_unicode">
<polygon fill="#a7506f" stroke="#a7506f" points="820,-48 756,-48 756,-22 820,-22 820,-48"/>
<text text-anchor="middle" x="788" y="-32.55" font-family="Helvetica,sans-Serif" font-size="10.50" fill="white">to_unicode</text>
</a>
</g>
<!-- proc~wrap_json_throw_exception&#45;&gt;interface~to_unicode -->
<g id="edge10" class="edge"><title>proc~wrap_json_throw_exception&#45;&gt;interface~to_unicode</title>
<path fill="none" stroke="black" d="M693.763,-36.6929C711.188,-36.3799 729.248,-36.0554 744.839,-35.7754"/>
<polygon fill="black" stroke="black" points="745.264,-39.2684 755.199,-35.5892 745.138,-32.2695 745.264,-39.2684"/>
</g>
<!-- proc~to_uni_vec -->
<g id="node14" class="node"><title>proc~to_uni_vec</title>
<a xlink:href="../proc/to_uni_vec.html" xlink:title="to_uni_vec">
<polygon fill="#d94e8f" stroke="#d94e8f" points="946,-70 882,-70 882,-44 946,-44 946,-70"/>
<text text-anchor="middle" x="914" y="-54.55" font-family="Helvetica,sans-Serif" font-size="10.50" fill="white">to_uni_vec</text>
</a>
</g>
<!-- interface~to_unicode&#45;&gt;proc~to_uni_vec -->
<g id="edge4" class="edge"><title>interface~to_unicode&#45;&gt;proc~to_uni_vec</title>
<path fill="none" stroke="black" stroke-dasharray="5,2" d="M820.776,-40.7228C836.355,-43.443 855.166,-46.7274 871.798,-49.6314"/>
<polygon fill="black" stroke="black" points="871.371,-53.1097 881.824,-51.382 872.575,-46.214 871.371,-53.1097"/>
</g>
<!-- proc~to_uni -->
<g id="node15" class="node"><title>proc~to_uni</title>
<a xlink:href="../proc/to_uni.html" xlink:title="to_uni">
<polygon fill="#d94e8f" stroke="#d94e8f" points="941,-26 887,-26 887,-1.24345e-14 941,-3.55271e-15 941,-26"/>
<text text-anchor="middle" x="914" y="-10.55" font-family="Helvetica,sans-Serif" font-size="10.50" fill="white">to_uni</text>
</a>
</g>
<!-- interface~to_unicode&#45;&gt;proc~to_uni -->
<g id="edge6" class="edge"><title>interface~to_unicode&#45;&gt;proc~to_uni</title>
<path fill="none" stroke="black" stroke-dasharray="5,2" d="M820.776,-29.2772C837.965,-26.276 859.088,-22.5878 876.878,-19.4816"/>
<polygon fill="black" stroke="black" points="877.664,-22.8974 886.913,-17.7295 876.46,-16.0017 877.664,-22.8974"/>
</g>
</g>
</svg>
