<?xml version="1.0" encoding="UTF-8" standalone="no"?>
<!DOCTYPE svg PUBLIC "-//W3C//DTD SVG 1.1//EN"
 "http://www.w3.org/Graphics/SVG/1.1/DTD/svg11.dtd">
<!-- Generated by graphviz version 2.26.3 (20100126.1600)
 -->
<!-- Title: module~~graph~~ModuleGraph Pages: 1 -->
<svg width="356pt" height="738pt"
 viewBox="0.00 0.00 356.00 738.00" xmlns="http://www.w3.org/2000/svg" xmlns:xlink="http://www.w3.org/1999/xlink">
<g id="graph1" class="graph" transform="scale(1 1) rotate(0) translate(4 734)">
<title>module~~graph~~ModuleGraph</title>
<polygon fill="white" stroke="white" points="-4,5 -4,-734 353,-734 353,5 -4,5"/>
<!-- module~jf_test_10_mod -->
<g id="node1" class="node"><title>module~jf_test_10_mod</title>
<a xlink:href="../module/jf_test_10_mod.html" xlink:title="jf_test_10_mod">
<polygon fill="#337ab7" stroke="#337ab7" points="231,-466 145,-466 145,-440 231,-440 231,-466"/>
<text text-anchor="middle" x="188" y="-450.55" font-family="Helvetica,sans-Serif" font-size="10.50" fill="white">jf_test_10_mod</text>
</a>
</g>
<!-- program~jf_test_10 -->
<g id="node30" class="node"><title>program~jf_test_10</title>
<a xlink:href="../program/jf_test_10.html" xlink:title="jf_test_10">
<polygon fill="#f0ad4e" stroke="#f0ad4e" points="347,-466 289,-466 289,-440 347,-440 347,-466"/>
<text text-anchor="middle" x="318" y="-450.55" font-family="Helvetica,sans-Serif" font-size="10.50" fill="white">jf_test_10</text>
</a>
</g>
<!-- module~jf_test_10_mod&#45;&gt;program~jf_test_10 -->
<g id="edge90" class="edge"><title>module~jf_test_10_mod&#45;&gt;program~jf_test_10</title>
<path fill="none" stroke="black" stroke-dasharray="5,2" d="M231.288,-453C246.385,-453 263.247,-453 278.059,-453"/>
<polygon fill="black" stroke="black" points="278.427,-456.5 288.427,-453 278.427,-449.5 278.427,-456.5"/>
</g>
<!-- module~jf_test_1_mod -->
<g id="node2" class="node"><title>module~jf_test_1_mod</title>
<a xlink:href="../module/jf_test_1_mod.html" xlink:title="jf_test_1_mod">
<polygon fill="#337ab7" stroke="#337ab7" points="228,-422 148,-422 148,-396 228,-396 228,-422"/>
<text text-anchor="middle" x="188" y="-406.55" font-family="Helvetica,sans-Serif" font-size="10.50" fill="white">jf_test_1_mod</text>
</a>
</g>
<!-- program~jf_test_1 -->
<g id="node29" class="node"><title>program~jf_test_1</title>
<a xlink:href="../program/jf_test_1.html" xlink:title="jf_test_1">
<polygon fill="#f0ad4e" stroke="#f0ad4e" points="345,-422 291,-422 291,-396 345,-396 345,-422"/>
<text text-anchor="middle" x="318" y="-406.55" font-family="Helvetica,sans-Serif" font-size="10.50" fill="white">jf_test_1</text>
</a>
</g>
<!-- module~jf_test_1_mod&#45;&gt;program~jf_test_1 -->
<g id="edge88" class="edge"><title>module~jf_test_1_mod&#45;&gt;program~jf_test_1</title>
<path fill="none" stroke="black" stroke-dasharray="5,2" d="M228.065,-409C244.711,-409 263.929,-409 280.315,-409"/>
<polygon fill="black" stroke="black" points="280.619,-412.5 290.619,-409 280.619,-405.5 280.619,-412.5"/>
</g>
<!-- module~jf_test_11_mod -->
<g id="node3" class="node"><title>module~jf_test_11_mod</title>
<a xlink:href="../module/jf_test_11_mod.html" xlink:title="jf_test_11_mod">
<polygon fill="#337ab7" stroke="#337ab7" points="231,-378 145,-378 145,-352 231,-352 231,-378"/>
<text text-anchor="middle" x="188" y="-362.55" font-family="Helvetica,sans-Serif" font-size="10.50" fill="white">jf_test_11_mod</text>
</a>
</g>
<!-- program~jf_test_11 -->
<g id="node20" class="node"><title>program~jf_test_11</title>
<a xlink:href="../program/jf_test_11.html" xlink:title="jf_test_11">
<polygon fill="#f0ad4e" stroke="#f0ad4e" points="347,-378 289,-378 289,-352 347,-352 347,-378"/>
<text text-anchor="middle" x="318" y="-362.55" font-family="Helvetica,sans-Serif" font-size="10.50" fill="white">jf_test_11</text>
</a>
</g>
<!-- module~jf_test_11_mod&#45;&gt;program~jf_test_11 -->
<g id="edge68" class="edge"><title>module~jf_test_11_mod&#45;&gt;program~jf_test_11</title>
<path fill="none" stroke="black" stroke-dasharray="5,2" d="M231.288,-365C246.385,-365 263.247,-365 278.059,-365"/>
<polygon fill="black" stroke="black" points="278.427,-368.5 288.427,-365 278.427,-361.5 278.427,-368.5"/>
</g>
<!-- module~jf_test_4_mod -->
<g id="node4" class="node"><title>module~jf_test_4_mod</title>
<a xlink:href="../module/jf_test_4_mod.html" xlink:title="jf_test_4_mod">
<polygon fill="#337ab7" stroke="#337ab7" points="228,-334 148,-334 148,-308 228,-308 228,-334"/>
<text text-anchor="middle" x="188" y="-318.55" font-family="Helvetica,sans-Serif" font-size="10.50" fill="white">jf_test_4_mod</text>
</a>
</g>
<!-- program~jf_test_4 -->
<g id="node23" class="node"><title>program~jf_test_4</title>
<a xlink:href="../program/jf_test_4.html" xlink:title="jf_test_4">
<polygon fill="#f0ad4e" stroke="#f0ad4e" points="345,-334 291,-334 291,-308 345,-308 345,-334"/>
<text text-anchor="middle" x="318" y="-318.55" font-family="Helvetica,sans-Serif" font-size="10.50" fill="white">jf_test_4</text>
</a>
</g>
<!-- module~jf_test_4_mod&#45;&gt;program~jf_test_4 -->
<g id="edge76" class="edge"><title>module~jf_test_4_mod&#45;&gt;program~jf_test_4</title>
<path fill="none" stroke="black" stroke-dasharray="5,2" d="M228.065,-321C244.711,-321 263.929,-321 280.315,-321"/>
<polygon fill="black" stroke="black" points="280.619,-324.5 290.619,-321 280.619,-317.5 280.619,-324.5"/>
</g>
<!-- module~jf_test_14_mod -->
<g id="node5" class="node"><title>module~jf_test_14_mod</title>
<a xlink:href="../module/jf_test_14_mod.html" xlink:title="jf_test_14_mod">
<polygon fill="#337ab7" stroke="#337ab7" points="231,-290 145,-290 145,-264 231,-264 231,-290"/>
<text text-anchor="middle" x="188" y="-274.55" font-family="Helvetica,sans-Serif" font-size="10.50" fill="white">jf_test_14_mod</text>
</a>
</g>
<!-- program~jf_test_14 -->
<g id="node24" class="node"><title>program~jf_test_14</title>
<a xlink:href="../program/jf_test_14.html" xlink:title="jf_test_14">
<polygon fill="#f0ad4e" stroke="#f0ad4e" points="347,-290 289,-290 289,-264 347,-264 347,-290"/>
<text text-anchor="middle" x="318" y="-274.55" font-family="Helvetica,sans-Serif" font-size="10.50" fill="white">jf_test_14</text>
</a>
</g>
<!-- module~jf_test_14_mod&#45;&gt;program~jf_test_14 -->
<g id="edge78" class="edge"><title>module~jf_test_14_mod&#45;&gt;program~jf_test_14</title>
<path fill="none" stroke="black" stroke-dasharray="5,2" d="M231.288,-277C246.385,-277 263.247,-277 278.059,-277"/>
<polygon fill="black" stroke="black" points="278.427,-280.5 288.427,-277 278.427,-273.5 278.427,-280.5"/>
</g>
<!-- module~jf_test_9_mod -->
<g id="node6" class="node"><title>module~jf_test_9_mod</title>
<a xlink:href="../module/jf_test_9_mod.html" xlink:title="jf_test_9_mod">
<polygon fill="#337ab7" stroke="#337ab7" points="228,-246 148,-246 148,-220 228,-220 228,-246"/>
<text text-anchor="middle" x="188" y="-230.55" font-family="Helvetica,sans-Serif" font-size="10.50" fill="white">jf_test_9_mod</text>
</a>
</g>
<!-- program~jf_test_9 -->
<g id="node26" class="node"><title>program~jf_test_9</title>
<a xlink:href="../program/jf_test_9.html" xlink:title="jf_test_9">
<polygon fill="#f0ad4e" stroke="#f0ad4e" points="345,-246 291,-246 291,-220 345,-220 345,-246"/>
<text text-anchor="middle" x="318" y="-230.55" font-family="Helvetica,sans-Serif" font-size="10.50" fill="white">jf_test_9</text>
</a>
</g>
<!-- module~jf_test_9_mod&#45;&gt;program~jf_test_9 -->
<g id="edge82" class="edge"><title>module~jf_test_9_mod&#45;&gt;program~jf_test_9</title>
<path fill="none" stroke="black" stroke-dasharray="5,2" d="M228.065,-233C244.711,-233 263.929,-233 280.315,-233"/>
<polygon fill="black" stroke="black" points="280.619,-236.5 290.619,-233 280.619,-229.5 280.619,-236.5"/>
</g>
<!-- module~jf_test_12_mod -->
<g id="node7" class="node"><title>module~jf_test_12_mod</title>
<a xlink:href="../module/jf_test_12_mod.html" xlink:title="jf_test_12_mod">
<polygon fill="#337ab7" stroke="#337ab7" points="231,-158 145,-158 145,-132 231,-132 231,-158"/>
<text text-anchor="middle" x="188" y="-142.55" font-family="Helvetica,sans-Serif" font-size="10.50" fill="white">jf_test_12_mod</text>
</a>
</g>
<!-- program~jf_test_12 -->
<g id="node21" class="node"><title>program~jf_test_12</title>
<a xlink:href="../program/jf_test_12.html" xlink:title="jf_test_12">
<polygon fill="#f0ad4e" stroke="#f0ad4e" points="347,-158 289,-158 289,-132 347,-132 347,-158"/>
<text text-anchor="middle" x="318" y="-142.55" font-family="Helvetica,sans-Serif" font-size="10.50" fill="white">jf_test_12</text>
</a>
</g>
<!-- module~jf_test_12_mod&#45;&gt;program~jf_test_12 -->
<g id="edge70" class="edge"><title>module~jf_test_12_mod&#45;&gt;program~jf_test_12</title>
<path fill="none" stroke="black" stroke-dasharray="5,2" d="M231.288,-145C246.385,-145 263.247,-145 278.059,-145"/>
<polygon fill="black" stroke="black" points="278.427,-148.5 288.427,-145 278.427,-141.5 278.427,-148.5"/>
</g>
<!-- module~jf_test_8_mod -->
<g id="node8" class="node"><title>module~jf_test_8_mod</title>
<a xlink:href="../module/jf_test_8_mod.html" xlink:title="jf_test_8_mod">
<polygon fill="#337ab7" stroke="#337ab7" points="228,-114 148,-114 148,-88 228,-88 228,-114"/>
<text text-anchor="middle" x="188" y="-98.55" font-family="Helvetica,sans-Serif" font-size="10.50" fill="white">jf_test_8_mod</text>
</a>
</g>
<!-- program~jf_test_8 -->
<g id="node25" class="node"><title>program~jf_test_8</title>
<a xlink:href="../program/jf_test_8.html" xlink:title="jf_test_8">
<polygon fill="#f0ad4e" stroke="#f0ad4e" points="345,-114 291,-114 291,-88 345,-88 345,-114"/>
<text text-anchor="middle" x="318" y="-98.55" font-family="Helvetica,sans-Serif" font-size="10.50" fill="white">jf_test_8</text>
</a>
</g>
<!-- module~jf_test_8_mod&#45;&gt;program~jf_test_8 -->
<g id="edge80" class="edge"><title>module~jf_test_8_mod&#45;&gt;program~jf_test_8</title>
<path fill="none" stroke="black" stroke-dasharray="5,2" d="M228.065,-101C244.711,-101 263.929,-101 280.315,-101"/>
<polygon fill="black" stroke="black" points="280.619,-104.5 290.619,-101 280.619,-97.5001 280.619,-104.5"/>
</g>
<!-- module~jf_test_5_mod -->
<g id="node9" class="node"><title>module~jf_test_5_mod</title>
<a xlink:href="../module/jf_test_5_mod.html" xlink:title="jf_test_5_mod">
<polygon fill="#337ab7" stroke="#337ab7" points="228,-70 148,-70 148,-44 228,-44 228,-70"/>
<text text-anchor="middle" x="188" y="-54.55" font-family="Helvetica,sans-Serif" font-size="10.50" fill="white">jf_test_5_mod</text>
</a>
</g>
<!-- program~jf_test_5 -->
<g id="node16" class="node"><title>program~jf_test_5</title>
<a xlink:href="../program/jf_test_5.html" xlink:title="jf_test_5">
<polygon fill="#f0ad4e" stroke="#f0ad4e" points="345,-70 291,-70 291,-44 345,-44 345,-70"/>
<text text-anchor="middle" x="318" y="-54.55" font-family="Helvetica,sans-Serif" font-size="10.50" fill="white">jf_test_5</text>
</a>
</g>
<!-- module~jf_test_5_mod&#45;&gt;program~jf_test_5 -->
<g id="edge60" class="edge"><title>module~jf_test_5_mod&#45;&gt;program~jf_test_5</title>
<path fill="none" stroke="black" stroke-dasharray="5,2" d="M228.065,-57C244.711,-57 263.929,-57 280.315,-57"/>
<polygon fill="black" stroke="black" points="280.619,-60.5001 290.619,-57 280.619,-53.5001 280.619,-60.5001"/>
</g>
<!-- module~jf_test_7_mod -->
<g id="node10" class="node"><title>module~jf_test_7_mod</title>
<a xlink:href="../module/jf_test_7_mod.html" xlink:title="jf_test_7_mod">
<polygon fill="#337ab7" stroke="#337ab7" points="228,-686 148,-686 148,-660 228,-660 228,-686"/>
<text text-anchor="middle" x="188" y="-670.55" font-family="Helvetica,sans-Serif" font-size="10.50" fill="white">jf_test_7_mod</text>
</a>
</g>
<!-- program~jf_test_7 -->
<g id="node28" class="node"><title>program~jf_test_7</title>
<a xlink:href="../program/jf_test_7.html" xlink:title="jf_test_7">
<polygon fill="#f0ad4e" stroke="#f0ad4e" points="345,-686 291,-686 291,-660 345,-660 345,-686"/>
<text text-anchor="middle" x="318" y="-670.55" font-family="Helvetica,sans-Serif" font-size="10.50" fill="white">jf_test_7</text>
</a>
</g>
<!-- module~jf_test_7_mod&#45;&gt;program~jf_test_7 -->
<g id="edge86" class="edge"><title>module~jf_test_7_mod&#45;&gt;program~jf_test_7</title>
<path fill="none" stroke="black" stroke-dasharray="5,2" d="M228.065,-673C244.711,-673 263.929,-673 280.315,-673"/>
<polygon fill="black" stroke="black" points="280.619,-676.5 290.619,-673 280.619,-669.5 280.619,-676.5"/>
</g>
<!-- module~jf_test_6_mod -->
<g id="node11" class="node"><title>module~jf_test_6_mod</title>
<a xlink:href="../module/jf_test_6_mod.html" xlink:title="jf_test_6_mod">
<polygon fill="#337ab7" stroke="#337ab7" points="228,-642 148,-642 148,-616 228,-616 228,-642"/>
<text text-anchor="middle" x="188" y="-626.55" font-family="Helvetica,sans-Serif" font-size="10.50" fill="white">jf_test_6_mod</text>
</a>
</g>
<!-- program~jf_test_6 -->
<g id="node19" class="node"><title>program~jf_test_6</title>
<a xlink:href="../program/jf_test_6.html" xlink:title="jf_test_6">
<polygon fill="#f0ad4e" stroke="#f0ad4e" points="345,-642 291,-642 291,-616 345,-616 345,-642"/>
<text text-anchor="middle" x="318" y="-626.55" font-family="Helvetica,sans-Serif" font-size="10.50" fill="white">jf_test_6</text>
</a>
</g>
<!-- module~jf_test_6_mod&#45;&gt;program~jf_test_6 -->
<g id="edge66" class="edge"><title>module~jf_test_6_mod&#45;&gt;program~jf_test_6</title>
<path fill="none" stroke="black" stroke-dasharray="5,2" d="M228.065,-629C244.711,-629 263.929,-629 280.315,-629"/>
<polygon fill="black" stroke="black" points="280.619,-632.5 290.619,-629 280.619,-625.5 280.619,-632.5"/>
</g>
<!-- module~jf_test_13_mod -->
<g id="node12" class="node"><title>module~jf_test_13_mod</title>
<a xlink:href="../module/jf_test_13_mod.html" xlink:title="jf_test_13_mod">
<polygon fill="#337ab7" stroke="#337ab7" points="231,-598 145,-598 145,-572 231,-572 231,-598"/>
<text text-anchor="middle" x="188" y="-582.55" font-family="Helvetica,sans-Serif" font-size="10.50" fill="white">jf_test_13_mod</text>
</a>
</g>
<!-- program~jf_test_13 -->
<g id="node17" class="node"><title>program~jf_test_13</title>
<a xlink:href="../program/jf_test_13.html" xlink:title="jf_test_13">
<polygon fill="#f0ad4e" stroke="#f0ad4e" points="347,-598 289,-598 289,-572 347,-572 347,-598"/>
<text text-anchor="middle" x="318" y="-582.55" font-family="Helvetica,sans-Serif" font-size="10.50" fill="white">jf_test_13</text>
</a>
</g>
<!-- module~jf_test_13_mod&#45;&gt;program~jf_test_13 -->
<g id="edge62" class="edge"><title>module~jf_test_13_mod&#45;&gt;program~jf_test_13</title>
<path fill="none" stroke="black" stroke-dasharray="5,2" d="M231.288,-585C246.385,-585 263.247,-585 278.059,-585"/>
<polygon fill="black" stroke="black" points="278.427,-588.5 288.427,-585 278.427,-581.5 278.427,-588.5"/>
</g>
<!-- module~jf_test_3_mod -->
<g id="node13" class="node"><title>module~jf_test_3_mod</title>
<a xlink:href="../module/jf_test_3_mod.html" xlink:title="jf_test_3_mod">
<polygon fill="#337ab7" stroke="#337ab7" points="228,-554 148,-554 148,-528 228,-528 228,-554"/>
<text text-anchor="middle" x="188" y="-538.55" font-family="Helvetica,sans-Serif" font-size="10.50" fill="white">jf_test_3_mod</text>
</a>
</g>
<!-- program~jf_test_3 -->
<g id="node27" class="node"><title>program~jf_test_3</title>
<a xlink:href="../program/jf_test_3.html" xlink:title="jf_test_3">
<polygon fill="#f0ad4e" stroke="#f0ad4e" points="345,-554 291,-554 291,-528 345,-528 345,-554"/>
<text text-anchor="middle" x="318" y="-538.55" font-family="Helvetica,sans-Serif" font-size="10.50" fill="white">jf_test_3</text>
</a>
</g>
<!-- module~jf_test_3_mod&#45;&gt;program~jf_test_3 -->
<g id="edge84" class="edge"><title>module~jf_test_3_mod&#45;&gt;program~jf_test_3</title>
<path fill="none" stroke="black" stroke-dasharray="5,2" d="M228.065,-541C244.711,-541 263.929,-541 280.315,-541"/>
<polygon fill="black" stroke="black" points="280.619,-544.5 290.619,-541 280.619,-537.5 280.619,-544.5"/>
</g>
<!-- module~jf_test_2_mod -->
<g id="node14" class="node"><title>module~jf_test_2_mod</title>
<a xlink:href="../module/jf_test_2_mod.html" xlink:title="jf_test_2_mod">
<polygon fill="#337ab7" stroke="#337ab7" points="228,-510 148,-510 148,-484 228,-484 228,-510"/>
<text text-anchor="middle" x="188" y="-494.55" font-family="Helvetica,sans-Serif" font-size="10.50" fill="white">jf_test_2_mod</text>
</a>
</g>
<!-- program~jf_test_2 -->
<g id="node15" class="node"><title>program~jf_test_2</title>
<a xlink:href="../program/jf_test_2.html" xlink:title="jf_test_2">
<polygon fill="#f0ad4e" stroke="#f0ad4e" points="345,-510 291,-510 291,-484 345,-484 345,-510"/>
<text text-anchor="middle" x="318" y="-494.55" font-family="Helvetica,sans-Serif" font-size="10.50" fill="white">jf_test_2</text>
</a>
</g>
<!-- module~jf_test_2_mod&#45;&gt;program~jf_test_2 -->
<g id="edge58" class="edge"><title>module~jf_test_2_mod&#45;&gt;program~jf_test_2</title>
<path fill="none" stroke="black" stroke-dasharray="5,2" d="M228.065,-497C244.711,-497 263.929,-497 280.315,-497"/>
<polygon fill="black" stroke="black" points="280.619,-500.5 290.619,-497 280.619,-493.5 280.619,-500.5"/>
</g>
<!-- program~test_iso_10646_support -->
<g id="node18" class="node"><title>program~test_iso_10646_support</title>
<a xlink:href="../program/test_iso_10646_support.html" xlink:title="test_iso_10646_support">
<polygon fill="#f0ad4e" stroke="#f0ad4e" points="251,-730 125,-730 125,-704 251,-704 251,-730"/>
<text text-anchor="middle" x="188" y="-714.55" font-family="Helvetica,sans-Serif" font-size="10.50" fill="white">test_iso_10646_support</text>
</a>
</g>
<!-- program~example2 -->
<g id="node22" class="node"><title>program~example2</title>
<a xlink:href="../program/example2.html" xlink:title="example2">
<polygon fill="#f0ad4e" stroke="#f0ad4e" points="217,-202 159,-202 159,-176 217,-176 217,-202"/>
<text text-anchor="middle" x="188" y="-186.55" font-family="Helvetica,sans-Serif" font-size="10.50" fill="white">example2</text>
</a>
</g>
<!-- program~example1 -->
<g id="node31" class="node"><title>program~example1</title>
<a xlink:href="../program/example1.html" xlink:title="example1">
<polygon fill="#f0ad4e" stroke="#f0ad4e" points="217,-26 159,-26 159,-1.24345e-14 217,-3.55271e-15 217,-26"/>
<text text-anchor="middle" x="188" y="-10.55" font-family="Helvetica,sans-Serif" font-size="10.50" fill="white">example1</text>
</a>
</g>
<!-- json_module -->
<g id="node32" class="node"><title>json_module</title>
<polygon fill="#337ab7" stroke="#337ab7" points="80,-345 8,-345 8,-319 80,-319 80,-345"/>
<text text-anchor="middle" x="44" y="-329.55" font-family="Helvetica,sans-Serif" font-size="10.50" fill="white">json_module</text>
</g>
<!-- json_module&#45;&gt;module~jf_test_10_mod -->
<g id="edge2" class="edge"><title>json_module&#45;&gt;module~jf_test_10_mod</title>
<path fill="none" stroke="black" stroke-dasharray="5,2" d="M65.2425,-345.144C73.0219,-350.636 81.502,-357.491 88,-365 109.864,-390.267 98.4716,-409.442 124,-431 127.477,-433.936 131.367,-436.488 135.466,-438.703"/>
<polygon fill="black" stroke="black" points="134.152,-441.953 144.691,-443.037 137.128,-435.617 134.152,-441.953"/>
</g>
<!-- json_module&#45;&gt;module~jf_test_1_mod -->
<g id="edge6" class="edge"><title>json_module&#45;&gt;module~jf_test_1_mod</title>
<path fill="none" stroke="black" stroke-dasharray="5,2" d="M61.7272,-345.025C81.2167,-359.192 111.431,-380.668 124,-387 128.54,-389.287 133.373,-391.43 138.271,-393.411"/>
<polygon fill="black" stroke="black" points="137.119,-396.718 147.71,-397.018 139.618,-390.179 137.119,-396.718"/>
</g>
<!-- json_module&#45;&gt;module~jf_test_11_mod -->
<g id="edge10" class="edge"><title>json_module&#45;&gt;module~jf_test_11_mod</title>
<path fill="none" stroke="black" stroke-dasharray="5,2" d="M80.7099,-340.413C97.2321,-344.199 117.048,-348.74 135.129,-352.884"/>
<polygon fill="black" stroke="black" points="134.434,-356.315 144.964,-355.138 135.998,-349.492 134.434,-356.315"/>
</g>
<!-- json_module&#45;&gt;module~jf_test_4_mod -->
<g id="edge14" class="edge"><title>json_module&#45;&gt;module~jf_test_4_mod</title>
<path fill="none" stroke="black" stroke-dasharray="5,2" d="M80.7099,-329.196C98.0055,-327.875 118.911,-326.278 137.656,-324.846"/>
<polygon fill="black" stroke="black" points="138.107,-328.322 147.812,-324.07 137.574,-321.342 138.107,-328.322"/>
</g>
<!-- json_module&#45;&gt;module~jf_test_14_mod -->
<g id="edge18" class="edge"><title>json_module&#45;&gt;module~jf_test_14_mod</title>
<path fill="none" stroke="black" stroke-dasharray="5,2" d="M74.5996,-318.872C89.4324,-312.638 107.556,-305.212 124,-299 128.889,-297.153 134.012,-295.284 139.139,-293.456"/>
<polygon fill="black" stroke="black" points="140.672,-296.627 148.945,-290.007 138.35,-290.023 140.672,-296.627"/>
</g>
<!-- json_module&#45;&gt;module~jf_test_9_mod -->
<g id="edge22" class="edge"><title>json_module&#45;&gt;module~jf_test_9_mod</title>
<path fill="none" stroke="black" stroke-dasharray="5,2" d="M54.557,-318.745C68.7084,-301.78 95.3816,-272.495 124,-255 128.459,-252.274 133.301,-249.831 138.259,-247.655"/>
<polygon fill="black" stroke="black" points="139.889,-250.772 147.863,-243.796 137.279,-244.277 139.889,-250.772"/>
</g>
<!-- json_module&#45;&gt;module~jf_test_12_mod -->
<g id="edge26" class="edge"><title>json_module&#45;&gt;module~jf_test_12_mod</title>
<path fill="none" stroke="black" stroke-dasharray="5,2" d="M46.7532,-318.766C53.8879,-287.727 75.8754,-209.655 124,-167 127.457,-163.936 131.361,-161.295 135.494,-159.018"/>
<polygon fill="black" stroke="black" points="137.286,-162.042 144.821,-154.594 134.286,-155.717 137.286,-162.042"/>
</g>
<!-- json_module&#45;&gt;module~jf_test_8_mod -->
<g id="edge30" class="edge"><title>json_module&#45;&gt;module~jf_test_8_mod</title>
<path fill="none" stroke="black" stroke-dasharray="5,2" d="M45.2234,-318.897C49.3137,-282.524 65.741,-179.284 124,-123 128.222,-118.921 133.235,-115.596 138.568,-112.886"/>
<polygon fill="black" stroke="black" points="139.992,-116.083 147.763,-108.882 137.197,-109.666 139.992,-116.083"/>
</g>
<!-- json_module&#45;&gt;module~jf_test_5_mod -->
<g id="edge34" class="edge"><title>json_module&#45;&gt;module~jf_test_5_mod</title>
<path fill="none" stroke="black" stroke-dasharray="5,2" d="M46.5103,-318.988C55.7312,-272.411 89.018,-114.862 124,-79 128.152,-74.7435 133.164,-71.3101 138.533,-68.5408"/>
<polygon fill="black" stroke="black" points="140.059,-71.6937 147.818,-64.4791 137.253,-65.2805 140.059,-71.6937"/>
</g>
<!-- json_module&#45;&gt;module~jf_test_7_mod -->
<g id="edge38" class="edge"><title>json_module&#45;&gt;module~jf_test_7_mod</title>
<path fill="none" stroke="black" stroke-dasharray="5,2" d="M68.6823,-345.27C76.057,-350.451 83.3956,-357.074 88,-365 152.352,-475.78 43.1981,-551.58 124,-651 127.893,-655.79 132.883,-659.54 138.356,-662.476"/>
<polygon fill="black" stroke="black" points="137.352,-665.858 147.914,-666.687 140.174,-659.452 137.352,-665.858"/>
</g>
<!-- json_module&#45;&gt;module~jf_test_6_mod -->
<g id="edge42" class="edge"><title>json_module&#45;&gt;module~jf_test_6_mod</title>
<path fill="none" stroke="black" stroke-dasharray="5,2" d="M68.1179,-345.009C75.6382,-350.242 83.2091,-356.962 88,-365 143.672,-458.407 54.4746,-523.391 124,-607 127.898,-611.688 132.846,-615.379 138.257,-618.285"/>
<polygon fill="black" stroke="black" points="137.137,-621.617 147.698,-622.472 139.975,-615.218 137.137,-621.617"/>
</g>
<!-- json_module&#45;&gt;module~jf_test_13_mod -->
<g id="edge46" class="edge"><title>json_module&#45;&gt;module~jf_test_13_mod</title>
<path fill="none" stroke="black" stroke-dasharray="5,2" d="M67.9708,-345.098C75.4794,-350.338 83.0804,-357.04 88,-365 135.023,-441.085 65.7134,-495.157 124,-563 127.273,-566.81 131.238,-569.961 135.572,-572.567"/>
<polygon fill="black" stroke="black" points="134.37,-575.877 144.884,-577.186 137.481,-569.607 134.37,-575.877"/>
</g>
<!-- json_module&#45;&gt;module~jf_test_3_mod -->
<g id="edge50" class="edge"><title>json_module&#45;&gt;module~jf_test_3_mod</title>
<path fill="none" stroke="black" stroke-dasharray="5,2" d="M67.7461,-345.241C75.2367,-350.492 82.8838,-357.165 88,-365 126.43,-423.854 76.8818,-466.841 124,-519 128.036,-523.468 133.022,-527.029 138.414,-529.867"/>
<polygon fill="black" stroke="black" points="137.216,-533.164 147.778,-533.993 140.038,-526.758 137.216,-533.164"/>
</g>
<!-- json_module&#45;&gt;module~jf_test_2_mod -->
<g id="edge54" class="edge"><title>json_module&#45;&gt;module~jf_test_2_mod</title>
<path fill="none" stroke="black" stroke-dasharray="5,2" d="M66.9075,-345.181C74.5075,-350.505 82.438,-357.239 88,-365 117.964,-406.813 87.8964,-438.358 124,-475 128.173,-479.236 133.198,-482.656 138.574,-485.419"/>
<polygon fill="black" stroke="black" points="137.3,-488.682 147.865,-489.474 140.1,-482.266 137.3,-488.682"/>
</g>
<!-- json_module&#45;&gt;program~example2 -->
<g id="edge72" class="edge"><title>json_module&#45;&gt;program~example2</title>
<path fill="none" stroke="black" stroke-dasharray="5,2" d="M49.3316,-318.644C59.8843,-293.863 85.7687,-240.602 124,-211 131.222,-205.408 139.96,-201.183 148.627,-198.012"/>
<polygon fill="black" stroke="black" points="149.874,-201.287 158.298,-194.861 147.706,-194.631 149.874,-201.287"/>
</g>
<!-- json_module&#45;&gt;program~example1 -->
<g id="edge92" class="edge"><title>json_module&#45;&gt;program~example1</title>
<path fill="none" stroke="black" stroke-dasharray="5,2" d="M45.8699,-318.932C53.5023,-267.272 83.8087,-78.0208 124,-35 130.538,-28.0015 139.402,-23.2293 148.447,-19.9752"/>
<polygon fill="black" stroke="black" points="149.678,-23.2592 158.231,-17.0065 147.646,-16.5607 149.678,-23.2592"/>
</g>
<!-- iso_fortran_env -->
<g id="node34" class="node"><title>iso_fortran_env</title>
<a xlink:href="https://gcc.gnu.org/onlinedocs/gfortran/ISO_005fFORTRAN_005fENV.html" xlink:title="iso_fortran_env">
<polygon fill="#337ab7" stroke="#337ab7" points="87,-400 1,-400 1,-374 87,-374 87,-400"/>
<text text-anchor="middle" x="44" y="-384.55" font-family="Helvetica,sans-Serif" font-size="10.50" fill="white">iso_fortran_env</text>
</a>
</g>
<!-- iso_fortran_env&#45;&gt;module~jf_test_10_mod -->
<g id="edge4" class="edge"><title>iso_fortran_env&#45;&gt;module~jf_test_10_mod</title>
<path fill="none" stroke="black" stroke-dasharray="5,2" d="M65.556,-400.18C81.3717,-409.52 103.565,-421.948 124,-431 128.161,-432.843 132.528,-434.632 136.944,-436.341"/>
<polygon fill="black" stroke="black" points="136.033,-439.737 146.626,-439.945 138.475,-433.177 136.033,-439.737"/>
</g>
<!-- iso_fortran_env&#45;&gt;module~jf_test_1_mod -->
<g id="edge8" class="edge"><title>iso_fortran_env&#45;&gt;module~jf_test_1_mod</title>
<path fill="none" stroke="black" stroke-dasharray="5,2" d="M87.5955,-393.66C103.499,-396.09 121.605,-398.856 138.021,-401.364"/>
<polygon fill="black" stroke="black" points="137.576,-404.837 147.99,-402.887 138.633,-397.917 137.576,-404.837"/>
</g>
<!-- iso_fortran_env&#45;&gt;module~jf_test_11_mod -->
<g id="edge12" class="edge"><title>iso_fortran_env&#45;&gt;module~jf_test_11_mod</title>
<path fill="none" stroke="black" stroke-dasharray="5,2" d="M87.5955,-380.34C102.399,-378.078 119.11,-375.525 134.59,-373.16"/>
<polygon fill="black" stroke="black" points="135.196,-376.608 144.553,-371.638 134.139,-369.688 135.196,-376.608"/>
</g>
<!-- iso_fortran_env&#45;&gt;module~jf_test_4_mod -->
<g id="edge16" class="edge"><title>iso_fortran_env&#45;&gt;module~jf_test_4_mod</title>
<path fill="none" stroke="black" stroke-dasharray="5,2" d="M65.556,-373.82C81.3717,-364.48 103.565,-352.052 124,-343 128.648,-340.941 133.553,-338.95 138.495,-337.062"/>
<polygon fill="black" stroke="black" points="139.812,-340.307 147.987,-333.569 137.394,-333.738 139.812,-340.307"/>
</g>
<!-- iso_fortran_env&#45;&gt;module~jf_test_14_mod -->
<g id="edge20" class="edge"><title>iso_fortran_env&#45;&gt;module~jf_test_14_mod</title>
<path fill="none" stroke="black" stroke-dasharray="5,2" d="M64.4839,-373.891C72.3416,-368.309 81.0754,-361.382 88,-354 107.987,-332.692 100.941,-316.939 124,-299 127.538,-296.247 131.444,-293.826 135.528,-291.699"/>
<polygon fill="black" stroke="black" points="137.054,-294.85 144.683,-287.499 134.134,-288.488 137.054,-294.85"/>
</g>
<!-- iso_fortran_env&#45;&gt;module~jf_test_9_mod -->
<g id="edge24" class="edge"><title>iso_fortran_env&#45;&gt;module~jf_test_9_mod</title>
<path fill="none" stroke="black" stroke-dasharray="5,2" d="M66.7679,-373.717C74.3547,-368.383 82.3127,-361.67 88,-354 115.886,-316.392 90.6028,-287.812 124,-255 128.188,-250.885 133.179,-247.539 138.501,-244.817"/>
<polygon fill="black" stroke="black" points="139.925,-248.015 147.685,-240.802 137.12,-241.601 139.925,-248.015"/>
</g>
<!-- iso_fortran_env&#45;&gt;module~jf_test_12_mod -->
<g id="edge28" class="edge"><title>iso_fortran_env&#45;&gt;module~jf_test_12_mod</title>
<path fill="none" stroke="black" stroke-dasharray="5,2" d="M67.9239,-373.873C75.4287,-368.63 83.0393,-361.935 88,-354 132.868,-282.234 68.514,-230.912 124,-167 127.379,-163.107 131.48,-159.903 135.956,-157.265"/>
<polygon fill="black" stroke="black" points="137.5,-160.406 144.935,-152.858 134.416,-154.122 137.5,-160.406"/>
</g>
<!-- iso_fortran_env&#45;&gt;module~jf_test_8_mod -->
<g id="edge32" class="edge"><title>iso_fortran_env&#45;&gt;module~jf_test_8_mod</title>
<path fill="none" stroke="black" stroke-dasharray="5,2" d="M68.0861,-373.972C75.6039,-368.738 83.1813,-362.022 88,-354 141.506,-264.93 57.2887,-202.662 124,-123 127.914,-118.326 132.871,-114.643 138.288,-111.741"/>
<polygon fill="black" stroke="black" points="140.007,-114.807 147.733,-107.558 137.172,-108.407 140.007,-114.807"/>
</g>
<!-- iso_fortran_env&#45;&gt;module~jf_test_5_mod -->
<g id="edge36" class="edge"><title>iso_fortran_env&#45;&gt;module~jf_test_5_mod</title>
<path fill="none" stroke="black" stroke-dasharray="5,2" d="M68.6593,-373.717C76.0325,-368.534 83.376,-361.915 88,-354 150.18,-247.567 46.0198,-174.464 124,-79 127.905,-74.22 132.902,-70.4754 138.378,-67.5424"/>
<polygon fill="black" stroke="black" points="140.197,-70.5658 147.94,-63.3334 137.377,-64.1591 140.197,-70.5658"/>
</g>
<!-- iso_fortran_env&#45;&gt;module~jf_test_7_mod -->
<g id="edge40" class="edge"><title>iso_fortran_env&#45;&gt;module~jf_test_7_mod</title>
<path fill="none" stroke="black" stroke-dasharray="5,2" d="M46.3702,-400.239C55.2328,-448.4 87.7744,-613.414 124,-651 128.126,-655.281 133.123,-658.73 138.483,-661.507"/>
<polygon fill="black" stroke="black" points="137.196,-664.765 147.76,-665.577 140.008,-658.354 137.196,-664.765"/>
</g>
<!-- iso_fortran_env&#45;&gt;module~jf_test_6_mod -->
<g id="edge44" class="edge"><title>iso_fortran_env&#45;&gt;module~jf_test_6_mod</title>
<path fill="none" stroke="black" stroke-dasharray="5,2" d="M44.948,-400.232C48.359,-437.986 63.2647,-547.329 124,-607 128.188,-611.115 133.179,-614.461 138.501,-617.183"/>
<polygon fill="black" stroke="black" points="137.12,-620.399 147.685,-621.198 139.925,-613.985 137.12,-620.399"/>
</g>
<!-- iso_fortran_env&#45;&gt;module~jf_test_13_mod -->
<g id="edge48" class="edge"><title>iso_fortran_env&#45;&gt;module~jf_test_13_mod</title>
<path fill="none" stroke="black" stroke-dasharray="5,2" d="M46.2892,-400.135C52.6135,-432.531 73.3275,-516.951 124,-563 127.418,-566.106 131.296,-568.778 135.411,-571.074"/>
<polygon fill="black" stroke="black" points="134.183,-574.366 144.714,-575.526 137.205,-568.052 134.183,-574.366"/>
</g>
<!-- iso_fortran_env&#45;&gt;module~jf_test_3_mod -->
<g id="edge52" class="edge"><title>iso_fortran_env&#45;&gt;module~jf_test_3_mod</title>
<path fill="none" stroke="black" stroke-dasharray="5,2" d="M48.5329,-400.326C58.1962,-426.782 83.3199,-486.203 124,-519 128.345,-522.503 133.281,-525.463 138.439,-527.962"/>
<polygon fill="black" stroke="black" points="137.311,-531.285 147.883,-531.978 140.05,-524.844 137.311,-531.285"/>
</g>
<!-- iso_fortran_env&#45;&gt;module~jf_test_2_mod -->
<g id="edge56" class="edge"><title>iso_fortran_env&#45;&gt;module~jf_test_2_mod</title>
<path fill="none" stroke="black" stroke-dasharray="5,2" d="M52.7573,-400.261C66.0158,-419.363 92.9543,-454.569 124,-475 128.539,-477.987 133.527,-480.613 138.654,-482.911"/>
<polygon fill="black" stroke="black" points="137.382,-486.172 147.964,-486.699 140.021,-479.688 137.382,-486.172"/>
</g>
<!-- iso_fortran_env&#45;&gt;program~test_iso_10646_support -->
<g id="edge64" class="edge"><title>iso_fortran_env&#45;&gt;program~test_iso_10646_support</title>
<path fill="none" stroke="black" stroke-dasharray="5,2" d="M45.7515,-400.185C53.039,-453.213 82.5258,-650.204 124,-695 124.92,-695.994 125.888,-696.943 126.896,-697.85"/>
<polygon fill="black" stroke="black" points="125.181,-700.931 135.324,-703.992 129.304,-695.274 125.181,-700.931"/>
</g>
<!-- iso_fortran_env&#45;&gt;program~example2 -->
<g id="edge74" class="edge"><title>iso_fortran_env&#45;&gt;program~example2</title>
<path fill="none" stroke="black" stroke-dasharray="5,2" d="M67.6703,-373.709C75.1548,-368.454 82.8174,-361.791 88,-354 124.297,-299.431 79.6553,-259.258 124,-211 130.539,-203.884 139.482,-199.07 148.61,-195.813"/>
<polygon fill="black" stroke="black" points="149.908,-199.078 158.483,-192.854 147.899,-192.372 149.908,-199.078"/>
</g>
</g>
</svg>
