<?xml version="1.0" encoding="UTF-8" standalone="no"?>
<!DOCTYPE svg PUBLIC "-//W3C//DTD SVG 1.1//EN"
 "http://www.w3.org/Graphics/SVG/1.1/DTD/svg11.dtd">
<!-- Generated by graphviz version 2.26.3 (20100126.1600)
 -->
<!-- Title: module~~graph~~ModuleGraph Pages: 1 -->
<svg width="478pt" height="694pt"
 viewBox="0.00 0.00 478.00 694.00" xmlns="http://www.w3.org/2000/svg" xmlns:xlink="http://www.w3.org/1999/xlink">
<g id="graph1" class="graph" transform="scale(1 1) rotate(0) translate(4 690)">
<title>module~~graph~~ModuleGraph</title>
<polygon fill="white" stroke="white" points="-4,5 -4,-690 475,-690 475,5 -4,5"/>
<!-- module~jf_test_7_mod -->
<g id="node1" class="node"><title>module~jf_test_7_mod</title>
<a xlink:href="../module/jf_test_7_mod.html" xlink:title="jf_test_7_mod">
<polygon fill="#337ab7" stroke="#337ab7" points="371,-686 291,-686 291,-660 371,-660 371,-686"/>
<text text-anchor="middle" x="331" y="-670.55" font-family="Helvetica,sans-Serif" font-size="10.50" fill="white">jf_test_7_mod</text>
</a>
</g>
<!-- program~jf_test_7 -->
<g id="node21" class="node"><title>program~jf_test_7</title>
<a xlink:href="../program/jf_test_7.html" xlink:title="jf_test_7">
<polygon fill="#f0ad4e" stroke="#f0ad4e" points="467,-686 413,-686 413,-660 467,-660 467,-686"/>
<text text-anchor="middle" x="440" y="-670.55" font-family="Helvetica,sans-Serif" font-size="10.50" fill="white">jf_test_7</text>
</a>
</g>
<!-- module~jf_test_7_mod&#45;&gt;program~jf_test_7 -->
<g id="edge70" class="edge"><title>module~jf_test_7_mod&#45;&gt;program~jf_test_7</title>
<path fill="none" stroke="black" stroke-dasharray="5,2" d="M371.278,-673C381.54,-673 392.526,-673 402.635,-673"/>
<polygon fill="black" stroke="black" points="402.787,-676.5 412.787,-673 402.787,-669.5 402.787,-676.5"/>
</g>
<!-- module~jf_test_13_mod -->
<g id="node2" class="node"><title>module~jf_test_13_mod</title>
<a xlink:href="../module/jf_test_13_mod.html" xlink:title="jf_test_13_mod">
<polygon fill="#337ab7" stroke="#337ab7" points="374,-642 288,-642 288,-616 374,-616 374,-642"/>
<text text-anchor="middle" x="331" y="-626.55" font-family="Helvetica,sans-Serif" font-size="10.50" fill="white">jf_test_13_mod</text>
</a>
</g>
<!-- program~jf_test_13 -->
<g id="node22" class="node"><title>program~jf_test_13</title>
<a xlink:href="../program/jf_test_13.html" xlink:title="jf_test_13">
<polygon fill="#f0ad4e" stroke="#f0ad4e" points="469,-642 411,-642 411,-616 469,-616 469,-642"/>
<text text-anchor="middle" x="440" y="-626.55" font-family="Helvetica,sans-Serif" font-size="10.50" fill="white">jf_test_13</text>
</a>
</g>
<!-- module~jf_test_13_mod&#45;&gt;program~jf_test_13 -->
<g id="edge72" class="edge"><title>module~jf_test_13_mod&#45;&gt;program~jf_test_13</title>
<path fill="none" stroke="black" stroke-dasharray="5,2" d="M374.08,-629C382.71,-629 391.74,-629 400.252,-629"/>
<polygon fill="black" stroke="black" points="400.314,-632.5 410.314,-629 400.314,-625.5 400.314,-632.5"/>
</g>
<!-- module~json_module -->
<g id="node3" class="node"><title>module~json_module</title>
<a xlink:href="../module/json_module.html" xlink:title="json_module">
<polygon fill="#337ab7" stroke="#337ab7" points="224,-334 152,-334 152,-308 224,-308 224,-334"/>
<text text-anchor="middle" x="188" y="-318.55" font-family="Helvetica,sans-Serif" font-size="10.50" fill="white">json_module</text>
</a>
</g>
<!-- module~json_module&#45;&gt;module~jf_test_7_mod -->
<g id="edge4" class="edge"><title>module~json_module&#45;&gt;module~jf_test_7_mod</title>
<path fill="none" stroke="black" stroke-dasharray="5,2" d="M192.281,-334.471C202.698,-367.32 230.123,-454.192 252,-527 268.514,-581.959 251.461,-606.749 288,-651 288.607,-651.736 289.246,-652.449 289.911,-653.141"/>
<polygon fill="black" stroke="black" points="287.959,-656.07 297.891,-659.76 292.428,-650.682 287.959,-656.07"/>
</g>
<!-- module~json_module&#45;&gt;module~jf_test_13_mod -->
<g id="edge8" class="edge"><title>module~json_module&#45;&gt;module~jf_test_13_mod</title>
<path fill="none" stroke="black" stroke-dasharray="5,2" d="M192.025,-334.348C208.252,-387.868 268.9,-585.096 288,-607 288.744,-607.853 289.529,-608.678 290.349,-609.474"/>
<polygon fill="black" stroke="black" points="288.473,-612.452 298.491,-615.899 292.809,-606.957 288.473,-612.452"/>
</g>
<!-- module~jf_test_3_mod -->
<g id="node4" class="node"><title>module~jf_test_3_mod</title>
<a xlink:href="../module/jf_test_3_mod.html" xlink:title="jf_test_3_mod">
<polygon fill="#337ab7" stroke="#337ab7" points="371,-598 291,-598 291,-572 371,-572 371,-598"/>
<text text-anchor="middle" x="331" y="-582.55" font-family="Helvetica,sans-Serif" font-size="10.50" fill="white">jf_test_3_mod</text>
</a>
</g>
<!-- module~json_module&#45;&gt;module~jf_test_3_mod -->
<g id="edge14" class="edge"><title>module~json_module&#45;&gt;module~jf_test_3_mod</title>
<path fill="none" stroke="black" stroke-dasharray="5,2" d="M190.156,-334.267C197.207,-373.809 222.978,-492.482 288,-563 288.767,-563.832 289.573,-564.638 290.412,-565.417"/>
<polygon fill="black" stroke="black" points="288.6,-568.438 298.666,-571.742 292.857,-562.882 288.6,-568.438"/>
</g>
<!-- module~jf_test_10_mod -->
<g id="node5" class="node"><title>module~jf_test_10_mod</title>
<a xlink:href="../module/jf_test_10_mod.html" xlink:title="jf_test_10_mod">
<polygon fill="#337ab7" stroke="#337ab7" points="374,-554 288,-554 288,-528 374,-528 374,-554"/>
<text text-anchor="middle" x="331" y="-538.55" font-family="Helvetica,sans-Serif" font-size="10.50" fill="white">jf_test_10_mod</text>
</a>
</g>
<!-- module~json_module&#45;&gt;module~jf_test_10_mod -->
<g id="edge18" class="edge"><title>module~json_module&#45;&gt;module~jf_test_10_mod</title>
<path fill="none" stroke="black" stroke-dasharray="5,2" d="M191.551,-334.272C201.393,-368.821 232.051,-462.758 288,-519 288.931,-519.936 289.911,-520.841 290.929,-521.714"/>
<polygon fill="black" stroke="black" points="289.183,-524.77 299.337,-527.794 293.285,-519.097 289.183,-524.77"/>
</g>
<!-- module~jf_test_9_mod -->
<g id="node6" class="node"><title>module~jf_test_9_mod</title>
<a xlink:href="../module/jf_test_9_mod.html" xlink:title="jf_test_9_mod">
<polygon fill="#337ab7" stroke="#337ab7" points="371,-510 291,-510 291,-484 371,-484 371,-510"/>
<text text-anchor="middle" x="331" y="-494.55" font-family="Helvetica,sans-Serif" font-size="10.50" fill="white">jf_test_9_mod</text>
</a>
</g>
<!-- module~json_module&#45;&gt;module~jf_test_9_mod -->
<g id="edge22" class="edge"><title>module~json_module&#45;&gt;module~jf_test_9_mod</title>
<path fill="none" stroke="black" stroke-dasharray="5,2" d="M193.659,-334.185C206.596,-363.023 240.893,-432.512 288,-475 289.284,-476.158 290.641,-477.273 292.049,-478.343"/>
<polygon fill="black" stroke="black" points="290.282,-481.371 300.549,-483.985 294.153,-475.539 290.282,-481.371"/>
</g>
<!-- module~jf_test_12_mod -->
<g id="node7" class="node"><title>module~jf_test_12_mod</title>
<a xlink:href="../module/jf_test_12_mod.html" xlink:title="jf_test_12_mod">
<polygon fill="#337ab7" stroke="#337ab7" points="374,-466 288,-466 288,-440 374,-440 374,-466"/>
<text text-anchor="middle" x="331" y="-450.55" font-family="Helvetica,sans-Serif" font-size="10.50" fill="white">jf_test_12_mod</text>
</a>
</g>
<!-- module~json_module&#45;&gt;module~jf_test_12_mod -->
<g id="edge26" class="edge"><title>module~json_module&#45;&gt;module~jf_test_12_mod</title>
<path fill="none" stroke="black" stroke-dasharray="5,2" d="M197.523,-334.276C213.976,-356.5 249.665,-401.679 288,-431 289.599,-432.223 291.275,-433.409 293.002,-434.556"/>
<polygon fill="black" stroke="black" points="291.543,-437.764 301.912,-439.94 295.163,-431.773 291.543,-437.764"/>
</g>
<!-- module~jf_test_6_mod -->
<g id="node8" class="node"><title>module~jf_test_6_mod</title>
<a xlink:href="../module/jf_test_6_mod.html" xlink:title="jf_test_6_mod">
<polygon fill="#337ab7" stroke="#337ab7" points="371,-422 291,-422 291,-396 371,-396 371,-422"/>
<text text-anchor="middle" x="331" y="-406.55" font-family="Helvetica,sans-Serif" font-size="10.50" fill="white">jf_test_6_mod</text>
</a>
</g>
<!-- module~json_module&#45;&gt;module~jf_test_6_mod -->
<g id="edge30" class="edge"><title>module~json_module&#45;&gt;module~jf_test_6_mod</title>
<path fill="none" stroke="black" stroke-dasharray="5,2" d="M206.408,-334.037C226.18,-347.829 258.713,-369.914 288,-387 290.363,-388.379 292.822,-389.763 295.314,-391.13"/>
<polygon fill="black" stroke="black" points="293.902,-394.343 304.373,-395.957 297.194,-388.165 293.902,-394.343"/>
</g>
<!-- module~jf_test_1_mod -->
<g id="node9" class="node"><title>module~jf_test_1_mod</title>
<a xlink:href="../module/jf_test_1_mod.html" xlink:title="jf_test_1_mod">
<polygon fill="#337ab7" stroke="#337ab7" points="371,-334 291,-334 291,-308 371,-308 371,-334"/>
<text text-anchor="middle" x="331" y="-318.55" font-family="Helvetica,sans-Serif" font-size="10.50" fill="white">jf_test_1_mod</text>
</a>
</g>
<!-- module~json_module&#45;&gt;module~jf_test_1_mod -->
<g id="edge34" class="edge"><title>module~json_module&#45;&gt;module~jf_test_1_mod</title>
<path fill="none" stroke="black" stroke-dasharray="5,2" d="M224.826,-321C241.784,-321 262.176,-321 280.536,-321"/>
<polygon fill="black" stroke="black" points="280.78,-324.5 290.78,-321 280.78,-317.5 280.78,-324.5"/>
</g>
<!-- module~jf_test_4_mod -->
<g id="node10" class="node"><title>module~jf_test_4_mod</title>
<a xlink:href="../module/jf_test_4_mod.html" xlink:title="jf_test_4_mod">
<polygon fill="#337ab7" stroke="#337ab7" points="371,-290 291,-290 291,-264 371,-264 371,-290"/>
<text text-anchor="middle" x="331" y="-274.55" font-family="Helvetica,sans-Serif" font-size="10.50" fill="white">jf_test_4_mod</text>
</a>
</g>
<!-- module~json_module&#45;&gt;module~jf_test_4_mod -->
<g id="edge38" class="edge"><title>module~json_module&#45;&gt;module~jf_test_4_mod</title>
<path fill="none" stroke="black" stroke-dasharray="5,2" d="M224.826,-309.669C241.942,-304.403 262.555,-298.06 281.048,-292.37"/>
<polygon fill="black" stroke="black" points="282.252,-295.662 290.78,-289.375 280.193,-288.971 282.252,-295.662"/>
</g>
<!-- module~jf_test_11_mod -->
<g id="node11" class="node"><title>module~jf_test_11_mod</title>
<a xlink:href="../module/jf_test_11_mod.html" xlink:title="jf_test_11_mod">
<polygon fill="#337ab7" stroke="#337ab7" points="374,-246 288,-246 288,-220 374,-220 374,-246"/>
<text text-anchor="middle" x="331" y="-230.55" font-family="Helvetica,sans-Serif" font-size="10.50" fill="white">jf_test_11_mod</text>
</a>
</g>
<!-- module~json_module&#45;&gt;module~jf_test_11_mod -->
<g id="edge42" class="edge"><title>module~json_module&#45;&gt;module~jf_test_11_mod</title>
<path fill="none" stroke="black" stroke-dasharray="5,2" d="M206.408,-307.963C226.18,-294.171 258.713,-272.086 288,-255 290.363,-253.621 292.822,-252.237 295.314,-250.87"/>
<polygon fill="black" stroke="black" points="297.194,-253.835 304.373,-246.043 293.902,-247.657 297.194,-253.835"/>
</g>
<!-- module~jf_test_2_mod -->
<g id="node12" class="node"><title>module~jf_test_2_mod</title>
<a xlink:href="../module/jf_test_2_mod.html" xlink:title="jf_test_2_mod">
<polygon fill="#337ab7" stroke="#337ab7" points="371,-202 291,-202 291,-176 371,-176 371,-202"/>
<text text-anchor="middle" x="331" y="-186.55" font-family="Helvetica,sans-Serif" font-size="10.50" fill="white">jf_test_2_mod</text>
</a>
</g>
<!-- module~json_module&#45;&gt;module~jf_test_2_mod -->
<g id="edge46" class="edge"><title>module~json_module&#45;&gt;module~jf_test_2_mod</title>
<path fill="none" stroke="black" stroke-dasharray="5,2" d="M197.523,-307.724C213.976,-285.5 249.665,-240.321 288,-211 289.599,-209.777 291.275,-208.591 293.002,-207.444"/>
<polygon fill="black" stroke="black" points="295.163,-210.227 301.912,-202.06 291.543,-204.236 295.163,-210.227"/>
</g>
<!-- module~jf_test_14_mod -->
<g id="node13" class="node"><title>module~jf_test_14_mod</title>
<a xlink:href="../module/jf_test_14_mod.html" xlink:title="jf_test_14_mod">
<polygon fill="#337ab7" stroke="#337ab7" points="374,-158 288,-158 288,-132 374,-132 374,-158"/>
<text text-anchor="middle" x="331" y="-142.55" font-family="Helvetica,sans-Serif" font-size="10.50" fill="white">jf_test_14_mod</text>
</a>
</g>
<!-- module~json_module&#45;&gt;module~jf_test_14_mod -->
<g id="edge50" class="edge"><title>module~json_module&#45;&gt;module~jf_test_14_mod</title>
<path fill="none" stroke="black" stroke-dasharray="5,2" d="M193.659,-307.815C206.596,-278.977 240.893,-209.488 288,-167 289.284,-165.842 290.641,-164.727 292.049,-163.657"/>
<polygon fill="black" stroke="black" points="294.153,-166.461 300.549,-158.015 290.282,-160.629 294.153,-166.461"/>
</g>
<!-- module~jf_test_8_mod -->
<g id="node14" class="node"><title>module~jf_test_8_mod</title>
<a xlink:href="../module/jf_test_8_mod.html" xlink:title="jf_test_8_mod">
<polygon fill="#337ab7" stroke="#337ab7" points="371,-114 291,-114 291,-88 371,-88 371,-114"/>
<text text-anchor="middle" x="331" y="-98.55" font-family="Helvetica,sans-Serif" font-size="10.50" fill="white">jf_test_8_mod</text>
</a>
</g>
<!-- module~json_module&#45;&gt;module~jf_test_8_mod -->
<g id="edge54" class="edge"><title>module~json_module&#45;&gt;module~jf_test_8_mod</title>
<path fill="none" stroke="black" stroke-dasharray="5,2" d="M195.622,-307.72C207.962,-286.054 232.863,-241.635 252,-203 269.306,-168.062 261.129,-151.251 288,-123 288.91,-122.043 289.871,-121.121 290.873,-120.232"/>
<polygon fill="black" stroke="black" points="293.242,-122.834 299.199,-114.072 289.078,-117.206 293.242,-122.834"/>
</g>
<!-- module~jf_test_5_mod -->
<g id="node15" class="node"><title>module~jf_test_5_mod</title>
<a xlink:href="../module/jf_test_5_mod.html" xlink:title="jf_test_5_mod">
<polygon fill="#337ab7" stroke="#337ab7" points="371,-70 291,-70 291,-44 371,-44 371,-70"/>
<text text-anchor="middle" x="331" y="-54.55" font-family="Helvetica,sans-Serif" font-size="10.50" fill="white">jf_test_5_mod</text>
</a>
</g>
<!-- module~json_module&#45;&gt;module~jf_test_5_mod -->
<g id="edge58" class="edge"><title>module~json_module&#45;&gt;module~jf_test_5_mod</title>
<path fill="none" stroke="black" stroke-dasharray="5,2" d="M196.473,-307.661C209.772,-286.271 235.706,-242.666 252,-203 273.805,-149.917 251.461,-123.251 288,-79 288.607,-78.2645 289.246,-77.5509 289.911,-76.8587"/>
<polygon fill="black" stroke="black" points="292.428,-79.3181 297.891,-70.2401 287.959,-73.9301 292.428,-79.3181"/>
</g>
<!-- program~example1 -->
<g id="node19" class="node"><title>program~example1</title>
<a xlink:href="../program/example1.html" xlink:title="example1">
<polygon fill="#f0ad4e" stroke="#f0ad4e" points="360,-378 302,-378 302,-352 360,-352 360,-378"/>
<text text-anchor="middle" x="331" y="-362.55" font-family="Helvetica,sans-Serif" font-size="10.50" fill="white">example1</text>
</a>
</g>
<!-- module~json_module&#45;&gt;program~example1 -->
<g id="edge66" class="edge"><title>module~json_module&#45;&gt;program~example1</title>
<path fill="none" stroke="black" stroke-dasharray="5,2" d="M224.826,-332.331C245.165,-338.589 270.444,-346.367 291.233,-352.764"/>
<polygon fill="black" stroke="black" points="290.449,-356.185 301.036,-355.78 292.508,-349.494 290.449,-356.185"/>
</g>
<!-- program~example2 -->
<g id="node25" class="node"><title>program~example2</title>
<a xlink:href="../program/example2.html" xlink:title="example2">
<polygon fill="#f0ad4e" stroke="#f0ad4e" points="360,-26 302,-26 302,-1.24345e-14 360,-3.55271e-15 360,-26"/>
<text text-anchor="middle" x="331" y="-10.55" font-family="Helvetica,sans-Serif" font-size="10.50" fill="white">example2</text>
</a>
</g>
<!-- module~json_module&#45;&gt;program~example2 -->
<g id="edge80" class="edge"><title>module~json_module&#45;&gt;program~example2</title>
<path fill="none" stroke="black" stroke-dasharray="5,2" d="M196.812,-307.793C210.575,-286.584 237.134,-243.222 252,-203 278.473,-131.374 241.514,-95.5821 288,-35 289.41,-33.1622 291.017,-31.4648 292.761,-29.899"/>
<polygon fill="black" stroke="black" points="295.065,-32.5519 301.106,-23.8486 290.956,-26.8847 295.065,-32.5519"/>
</g>
<!-- program~jf_test_3 -->
<g id="node29" class="node"><title>program~jf_test_3</title>
<a xlink:href="../program/jf_test_3.html" xlink:title="jf_test_3">
<polygon fill="#f0ad4e" stroke="#f0ad4e" points="467,-598 413,-598 413,-572 467,-572 467,-598"/>
<text text-anchor="middle" x="440" y="-582.55" font-family="Helvetica,sans-Serif" font-size="10.50" fill="white">jf_test_3</text>
</a>
</g>
<!-- module~jf_test_3_mod&#45;&gt;program~jf_test_3 -->
<g id="edge88" class="edge"><title>module~jf_test_3_mod&#45;&gt;program~jf_test_3</title>
<path fill="none" stroke="black" stroke-dasharray="5,2" d="M371.278,-585C381.54,-585 392.526,-585 402.635,-585"/>
<polygon fill="black" stroke="black" points="402.787,-588.5 412.787,-585 402.787,-581.5 402.787,-588.5"/>
</g>
<!-- program~jf_test_10 -->
<g id="node16" class="node"><title>program~jf_test_10</title>
<a xlink:href="../program/jf_test_10.html" xlink:title="jf_test_10">
<polygon fill="#f0ad4e" stroke="#f0ad4e" points="469,-554 411,-554 411,-528 469,-528 469,-554"/>
<text text-anchor="middle" x="440" y="-538.55" font-family="Helvetica,sans-Serif" font-size="10.50" fill="white">jf_test_10</text>
</a>
</g>
<!-- module~jf_test_10_mod&#45;&gt;program~jf_test_10 -->
<g id="edge60" class="edge"><title>module~jf_test_10_mod&#45;&gt;program~jf_test_10</title>
<path fill="none" stroke="black" stroke-dasharray="5,2" d="M374.08,-541C382.71,-541 391.74,-541 400.252,-541"/>
<polygon fill="black" stroke="black" points="400.314,-544.5 410.314,-541 400.314,-537.5 400.314,-544.5"/>
</g>
<!-- program~jf_test_9 -->
<g id="node30" class="node"><title>program~jf_test_9</title>
<a xlink:href="../program/jf_test_9.html" xlink:title="jf_test_9">
<polygon fill="#f0ad4e" stroke="#f0ad4e" points="467,-510 413,-510 413,-484 467,-484 467,-510"/>
<text text-anchor="middle" x="440" y="-494.55" font-family="Helvetica,sans-Serif" font-size="10.50" fill="white">jf_test_9</text>
</a>
</g>
<!-- module~jf_test_9_mod&#45;&gt;program~jf_test_9 -->
<g id="edge90" class="edge"><title>module~jf_test_9_mod&#45;&gt;program~jf_test_9</title>
<path fill="none" stroke="black" stroke-dasharray="5,2" d="M371.278,-497C381.54,-497 392.526,-497 402.635,-497"/>
<polygon fill="black" stroke="black" points="402.787,-500.5 412.787,-497 402.787,-493.5 402.787,-500.5"/>
</g>
<!-- program~jf_test_12 -->
<g id="node26" class="node"><title>program~jf_test_12</title>
<a xlink:href="../program/jf_test_12.html" xlink:title="jf_test_12">
<polygon fill="#f0ad4e" stroke="#f0ad4e" points="469,-466 411,-466 411,-440 469,-440 469,-466"/>
<text text-anchor="middle" x="440" y="-450.55" font-family="Helvetica,sans-Serif" font-size="10.50" fill="white">jf_test_12</text>
</a>
</g>
<!-- module~jf_test_12_mod&#45;&gt;program~jf_test_12 -->
<g id="edge82" class="edge"><title>module~jf_test_12_mod&#45;&gt;program~jf_test_12</title>
<path fill="none" stroke="black" stroke-dasharray="5,2" d="M374.08,-453C382.71,-453 391.74,-453 400.252,-453"/>
<polygon fill="black" stroke="black" points="400.314,-456.5 410.314,-453 400.314,-449.5 400.314,-456.5"/>
</g>
<!-- program~jf_test_6 -->
<g id="node32" class="node"><title>program~jf_test_6</title>
<a xlink:href="../program/jf_test_6.html" xlink:title="jf_test_6">
<polygon fill="#f0ad4e" stroke="#f0ad4e" points="467,-422 413,-422 413,-396 467,-396 467,-422"/>
<text text-anchor="middle" x="440" y="-406.55" font-family="Helvetica,sans-Serif" font-size="10.50" fill="white">jf_test_6</text>
</a>
</g>
<!-- module~jf_test_6_mod&#45;&gt;program~jf_test_6 -->
<g id="edge94" class="edge"><title>module~jf_test_6_mod&#45;&gt;program~jf_test_6</title>
<path fill="none" stroke="black" stroke-dasharray="5,2" d="M371.278,-409C381.54,-409 392.526,-409 402.635,-409"/>
<polygon fill="black" stroke="black" points="402.787,-412.5 412.787,-409 402.787,-405.5 402.787,-412.5"/>
</g>
<!-- program~jf_test_1 -->
<g id="node27" class="node"><title>program~jf_test_1</title>
<a xlink:href="../program/jf_test_1.html" xlink:title="jf_test_1">
<polygon fill="#f0ad4e" stroke="#f0ad4e" points="467,-334 413,-334 413,-308 467,-308 467,-334"/>
<text text-anchor="middle" x="440" y="-318.55" font-family="Helvetica,sans-Serif" font-size="10.50" fill="white">jf_test_1</text>
</a>
</g>
<!-- module~jf_test_1_mod&#45;&gt;program~jf_test_1 -->
<g id="edge84" class="edge"><title>module~jf_test_1_mod&#45;&gt;program~jf_test_1</title>
<path fill="none" stroke="black" stroke-dasharray="5,2" d="M371.278,-321C381.54,-321 392.526,-321 402.635,-321"/>
<polygon fill="black" stroke="black" points="402.787,-324.5 412.787,-321 402.787,-317.5 402.787,-324.5"/>
</g>
<!-- program~jf_test_4 -->
<g id="node31" class="node"><title>program~jf_test_4</title>
<a xlink:href="../program/jf_test_4.html" xlink:title="jf_test_4">
<polygon fill="#f0ad4e" stroke="#f0ad4e" points="467,-290 413,-290 413,-264 467,-264 467,-290"/>
<text text-anchor="middle" x="440" y="-274.55" font-family="Helvetica,sans-Serif" font-size="10.50" fill="white">jf_test_4</text>
</a>
</g>
<!-- module~jf_test_4_mod&#45;&gt;program~jf_test_4 -->
<g id="edge92" class="edge"><title>module~jf_test_4_mod&#45;&gt;program~jf_test_4</title>
<path fill="none" stroke="black" stroke-dasharray="5,2" d="M371.278,-277C381.54,-277 392.526,-277 402.635,-277"/>
<polygon fill="black" stroke="black" points="402.787,-280.5 412.787,-277 402.787,-273.5 402.787,-280.5"/>
</g>
<!-- program~jf_test_11 -->
<g id="node18" class="node"><title>program~jf_test_11</title>
<a xlink:href="../program/jf_test_11.html" xlink:title="jf_test_11">
<polygon fill="#f0ad4e" stroke="#f0ad4e" points="469,-246 411,-246 411,-220 469,-220 469,-246"/>
<text text-anchor="middle" x="440" y="-230.55" font-family="Helvetica,sans-Serif" font-size="10.50" fill="white">jf_test_11</text>
</a>
</g>
<!-- module~jf_test_11_mod&#45;&gt;program~jf_test_11 -->
<g id="edge64" class="edge"><title>module~jf_test_11_mod&#45;&gt;program~jf_test_11</title>
<path fill="none" stroke="black" stroke-dasharray="5,2" d="M374.08,-233C382.71,-233 391.74,-233 400.252,-233"/>
<polygon fill="black" stroke="black" points="400.314,-236.5 410.314,-233 400.314,-229.5 400.314,-236.5"/>
</g>
<!-- program~jf_test_2 -->
<g id="node23" class="node"><title>program~jf_test_2</title>
<a xlink:href="../program/jf_test_2.html" xlink:title="jf_test_2">
<polygon fill="#f0ad4e" stroke="#f0ad4e" points="467,-202 413,-202 413,-176 467,-176 467,-202"/>
<text text-anchor="middle" x="440" y="-186.55" font-family="Helvetica,sans-Serif" font-size="10.50" fill="white">jf_test_2</text>
</a>
</g>
<!-- module~jf_test_2_mod&#45;&gt;program~jf_test_2 -->
<g id="edge74" class="edge"><title>module~jf_test_2_mod&#45;&gt;program~jf_test_2</title>
<path fill="none" stroke="black" stroke-dasharray="5,2" d="M371.278,-189C381.54,-189 392.526,-189 402.635,-189"/>
<polygon fill="black" stroke="black" points="402.787,-192.5 412.787,-189 402.787,-185.5 402.787,-192.5"/>
</g>
<!-- program~jf_test_14 -->
<g id="node20" class="node"><title>program~jf_test_14</title>
<a xlink:href="../program/jf_test_14.html" xlink:title="jf_test_14">
<polygon fill="#f0ad4e" stroke="#f0ad4e" points="469,-158 411,-158 411,-132 469,-132 469,-158"/>
<text text-anchor="middle" x="440" y="-142.55" font-family="Helvetica,sans-Serif" font-size="10.50" fill="white">jf_test_14</text>
</a>
</g>
<!-- module~jf_test_14_mod&#45;&gt;program~jf_test_14 -->
<g id="edge68" class="edge"><title>module~jf_test_14_mod&#45;&gt;program~jf_test_14</title>
<path fill="none" stroke="black" stroke-dasharray="5,2" d="M374.08,-145C382.71,-145 391.74,-145 400.252,-145"/>
<polygon fill="black" stroke="black" points="400.314,-148.5 410.314,-145 400.314,-141.5 400.314,-148.5"/>
</g>
<!-- program~jf_test_8 -->
<g id="node17" class="node"><title>program~jf_test_8</title>
<a xlink:href="../program/jf_test_8.html" xlink:title="jf_test_8">
<polygon fill="#f0ad4e" stroke="#f0ad4e" points="467,-114 413,-114 413,-88 467,-88 467,-114"/>
<text text-anchor="middle" x="440" y="-98.55" font-family="Helvetica,sans-Serif" font-size="10.50" fill="white">jf_test_8</text>
</a>
</g>
<!-- module~jf_test_8_mod&#45;&gt;program~jf_test_8 -->
<g id="edge62" class="edge"><title>module~jf_test_8_mod&#45;&gt;program~jf_test_8</title>
<path fill="none" stroke="black" stroke-dasharray="5,2" d="M371.278,-101C381.54,-101 392.526,-101 402.635,-101"/>
<polygon fill="black" stroke="black" points="402.787,-104.5 412.787,-101 402.787,-97.5001 402.787,-104.5"/>
</g>
<!-- program~jf_test_5 -->
<g id="node24" class="node"><title>program~jf_test_5</title>
<a xlink:href="../program/jf_test_5.html" xlink:title="jf_test_5">
<polygon fill="#f0ad4e" stroke="#f0ad4e" points="467,-70 413,-70 413,-44 467,-44 467,-70"/>
<text text-anchor="middle" x="440" y="-54.55" font-family="Helvetica,sans-Serif" font-size="10.50" fill="white">jf_test_5</text>
</a>
</g>
<!-- module~jf_test_5_mod&#45;&gt;program~jf_test_5 -->
<g id="edge76" class="edge"><title>module~jf_test_5_mod&#45;&gt;program~jf_test_5</title>
<path fill="none" stroke="black" stroke-dasharray="5,2" d="M371.278,-57C381.54,-57 392.526,-57 402.635,-57"/>
<polygon fill="black" stroke="black" points="402.787,-60.5001 412.787,-57 402.787,-53.5001 402.787,-60.5001"/>
</g>
<!-- program~test_iso_10646_support -->
<g id="node28" class="node"><title>program~test_iso_10646_support</title>
<a xlink:href="../program/test_iso_10646_support.html" xlink:title="test_iso_10646_support">
<polygon fill="#f0ad4e" stroke="#f0ad4e" points="251,-161 125,-161 125,-135 251,-135 251,-161"/>
<text text-anchor="middle" x="188" y="-145.55" font-family="Helvetica,sans-Serif" font-size="10.50" fill="white">test_iso_10646_support</text>
</a>
</g>
<!-- iso_fortran_env -->
<g id="node33" class="node"><title>iso_fortran_env</title>
<a xlink:href="https://gcc.gnu.org/onlinedocs/gfortran/ISO_005fFORTRAN_005fENV.html" xlink:title="iso_fortran_env">
<polygon fill="#337ab7" stroke="#337ab7" points="87,-268 1,-268 1,-242 87,-242 87,-268"/>
<text text-anchor="middle" x="44" y="-252.55" font-family="Helvetica,sans-Serif" font-size="10.50" fill="white">iso_fortran_env</text>
</a>
</g>
<!-- iso_fortran_env&#45;&gt;module~jf_test_7_mod -->
<g id="edge2" class="edge"><title>iso_fortran_env&#45;&gt;module~jf_test_7_mod</title>
<path fill="none" stroke="black" stroke-dasharray="5,2" d="M188,-541C244.252,-575.657 235.52,-610.86 288,-651 289.599,-652.223 291.275,-653.409 293.002,-654.556"/>
<polygon fill="black" stroke="black" points="291.543,-657.764 301.912,-659.94 295.163,-651.773 291.543,-657.764"/>
</g>
<!-- iso_fortran_env&#45;&gt;module~jf_test_13_mod -->
<g id="edge6" class="edge"><title>iso_fortran_env&#45;&gt;module~jf_test_13_mod</title>
<path fill="none" stroke="black" stroke-dasharray="5,2" d="M188,-541C233.338,-568.933 242.004,-580.165 288,-607 290.363,-608.379 292.822,-609.763 295.314,-611.13"/>
<polygon fill="black" stroke="black" points="293.902,-614.343 304.373,-615.957 297.194,-608.165 293.902,-614.343"/>
</g>
<!-- iso_fortran_env&#45;&gt;module~json_module -->
<g id="edge10" class="edge"><title>iso_fortran_env&#45;&gt;module~json_module</title>
<path fill="none" stroke="black" stroke-dasharray="5,2" d="M72.4498,-268.039C94.7365,-278.254 125.941,-292.556 150.305,-303.723"/>
<polygon fill="black" stroke="black" points="149.06,-307.003 159.609,-307.988 151.977,-300.639 149.06,-307.003"/>
</g>
<!-- iso_fortran_env&#45;&gt;module~jf_test_3_mod -->
<g id="edge12" class="edge"><title>iso_fortran_env&#45;&gt;module~jf_test_3_mod</title>
<path fill="none" stroke="black" stroke-dasharray="5,2" d="M188,-541C216.388,-558.49 252.261,-569.503 280.975,-576.137"/>
<polygon fill="black" stroke="black" points="280.291,-579.57 290.81,-578.304 281.797,-572.734 280.291,-579.57"/>
</g>
<!-- iso_fortran_env&#45;&gt;module~jf_test_10_mod -->
<g id="edge16" class="edge"><title>iso_fortran_env&#45;&gt;module~jf_test_10_mod</title>
<path fill="none" stroke="black" stroke-dasharray="5,2" d="M188,-541C214.355,-557.237 248.961,-557.658 277.528,-553.817"/>
<polygon fill="black" stroke="black" points="278.408,-557.222 287.753,-552.23 277.334,-550.305 278.408,-557.222"/>
</g>
<!-- iso_fortran_env&#45;&gt;module~jf_test_9_mod -->
<g id="edge20" class="edge"><title>iso_fortran_env&#45;&gt;module~jf_test_9_mod</title>
<path fill="none" stroke="black" stroke-dasharray="5,2" d="M188,-541C206.068,-552.132 259.328,-531.128 295.496,-514.476"/>
<polygon fill="black" stroke="black" points="297.175,-517.555 304.745,-510.142 294.205,-511.216 297.175,-517.555"/>
</g>
<!-- iso_fortran_env&#45;&gt;module~jf_test_12_mod -->
<g id="edge24" class="edge"><title>iso_fortran_env&#45;&gt;module~jf_test_12_mod</title>
<path fill="none" stroke="black" stroke-dasharray="5,2" d="M188,-541C233.338,-568.933 242.004,-501.835 288,-475 290.363,-473.621 292.822,-472.237 295.314,-470.87"/>
<polygon fill="black" stroke="black" points="297.194,-473.835 304.373,-466.043 293.902,-467.657 297.194,-473.835"/>
</g>
<!-- iso_fortran_env&#45;&gt;module~jf_test_6_mod -->
<g id="edge28" class="edge"><title>iso_fortran_env&#45;&gt;module~jf_test_6_mod</title>
<path fill="none" stroke="black" stroke-dasharray="5,2" d="M45.8063,-268.157C53.0926,-315.478 85.0581,-477.577 188,-541"/>
<path fill="none" stroke="black" stroke-dasharray="5,2" d="M188,-541C244.252,-575.657 235.52,-471.14 288,-431 289.599,-429.777 291.275,-428.591 293.002,-427.444"/>
<polygon fill="black" stroke="black" points="295.163,-430.227 301.912,-422.06 291.543,-424.236 295.163,-430.227"/>
</g>
<!-- iso_fortran_env&#45;&gt;module~jf_test_1_mod -->
<g id="edge32" class="edge"><title>iso_fortran_env&#45;&gt;module~jf_test_1_mod</title>
<path fill="none" stroke="black" stroke-dasharray="5,2" d="M188,-189C251.29,-170.03 235.52,-258.86 288,-299 289.599,-300.223 291.275,-301.409 293.002,-302.556"/>
<polygon fill="black" stroke="black" points="291.543,-305.764 301.912,-307.94 295.163,-299.773 291.543,-305.764"/>
</g>
<!-- iso_fortran_env&#45;&gt;module~jf_test_4_mod -->
<g id="edge36" class="edge"><title>iso_fortran_env&#45;&gt;module~jf_test_4_mod</title>
<path fill="none" stroke="black" stroke-dasharray="5,2" d="M188,-189C239.01,-173.711 242.004,-228.165 288,-255 290.363,-256.379 292.822,-257.763 295.314,-259.13"/>
<polygon fill="black" stroke="black" points="293.902,-262.343 304.373,-263.957 297.194,-256.165 293.902,-262.343"/>
</g>
<!-- iso_fortran_env&#45;&gt;module~jf_test_11_mod -->
<g id="edge40" class="edge"><title>iso_fortran_env&#45;&gt;module~jf_test_11_mod</title>
<path fill="none" stroke="black" stroke-dasharray="5,2" d="M188,-189C207.616,-183.121 257.316,-201.175 292.601,-215.912"/>
<polygon fill="black" stroke="black" points="291.561,-219.273 302.133,-219.958 294.295,-212.829 291.561,-219.273"/>
</g>
<!-- iso_fortran_env&#45;&gt;module~jf_test_2_mod -->
<g id="edge44" class="edge"><title>iso_fortran_env&#45;&gt;module~jf_test_2_mod</title>
<path fill="none" stroke="black" stroke-dasharray="5,2" d="M188,-189C217.838,-180.057 252.779,-179.88 280.653,-182.025"/>
<polygon fill="black" stroke="black" points="280.692,-185.542 290.964,-182.947 281.316,-178.57 280.692,-185.542"/>
</g>
<!-- iso_fortran_env&#45;&gt;module~jf_test_14_mod -->
<g id="edge48" class="edge"><title>iso_fortran_env&#45;&gt;module~jf_test_14_mod</title>
<path fill="none" stroke="black" stroke-dasharray="5,2" d="M188,-189C216.422,-180.481 223.632,-178.699 252,-170 261.187,-167.183 270.958,-164.134 280.383,-161.166"/>
<polygon fill="black" stroke="black" points="281.56,-164.465 290.041,-158.115 279.451,-157.79 281.56,-164.465"/>
</g>
<!-- iso_fortran_env&#45;&gt;module~jf_test_8_mod -->
<g id="edge52" class="edge"><title>iso_fortran_env&#45;&gt;module~jf_test_8_mod</title>
<path fill="none" stroke="black" stroke-dasharray="5,2" d="M188,-189C216.422,-180.481 227.559,-186.824 252,-170 273.674,-155.081 267.791,-139.851 288,-123 289.497,-121.751 291.077,-120.548 292.713,-119.392"/>
<polygon fill="black" stroke="black" points="294.638,-122.316 301.224,-114.018 290.9,-116.398 294.638,-122.316"/>
</g>
<!-- iso_fortran_env&#45;&gt;module~jf_test_5_mod -->
<g id="edge56" class="edge"><title>iso_fortran_env&#45;&gt;module~jf_test_5_mod</title>
<path fill="none" stroke="black" stroke-dasharray="5,2" d="M188,-189C216.422,-180.481 230.115,-190.036 252,-170 284.08,-140.629 258.759,-111.198 288,-79 288.761,-78.162 289.561,-77.3511 290.395,-76.5669"/>
<polygon fill="black" stroke="black" points="292.844,-79.0976 298.619,-70.2149 288.565,-73.5577 292.844,-79.0976"/>
</g>
<!-- iso_fortran_env&#45;&gt;program~example2 -->
<g id="edge78" class="edge"><title>iso_fortran_env&#45;&gt;program~example2</title>
<path fill="none" stroke="black" stroke-dasharray="5,2" d="M67.1641,-241.937C94.9845,-226.833 143.48,-202.344 188,-189"/>
<path fill="none" stroke="black" stroke-dasharray="5,2" d="M188,-189C216.422,-180.481 231.315,-191.272 252,-170 295.29,-125.481 248.99,-83.3141 288,-35 289.455,-33.1976 291.097,-31.5281 292.868,-29.9836"/>
<polygon fill="black" stroke="black" points="295.17,-32.6414 301.286,-23.9898 291.11,-26.9394 295.17,-32.6414"/>
</g>
<!-- iso_fortran_env&#45;&gt;program~test_iso_10646_support -->
<g id="edge86" class="edge"><title>iso_fortran_env&#45;&gt;program~test_iso_10646_support</title>
<path fill="none" stroke="black" stroke-dasharray="5,2" d="M54.3939,-241.805C68.5695,-224.528 95.4821,-194.19 124,-175 129.253,-171.465 135.043,-168.245 140.929,-165.359"/>
<polygon fill="black" stroke="black" points="142.569,-168.457 150.193,-161.101 139.645,-162.096 142.569,-168.457"/>
</g>
</g>
</svg>
