<?xml version="1.0" encoding="UTF-8" standalone="no"?>
<!DOCTYPE svg PUBLIC "-//W3C//DTD SVG 1.1//EN"
 "http://www.w3.org/Graphics/SVG/1.1/DTD/svg11.dtd">
<!-- Generated by graphviz version 2.26.3 (20100126.1600)
 -->
<!-- Title: module~~json_module~~UsedByGraph Pages: 1 -->
<svg width="300pt" height="694pt"
 viewBox="0.00 0.00 300.00 694.00" xmlns="http://www.w3.org/2000/svg" xmlns:xlink="http://www.w3.org/1999/xlink">
<g id="graph1" class="graph" transform="scale(1 1) rotate(0) translate(4 690)">
<title>module~~json_module~~UsedByGraph</title>
<polygon fill="white" stroke="white" points="-4,5 -4,-690 297,-690 297,5 -4,5"/>
<!-- module~json_module -->
<g id="node1" class="node"><title>module~json_module</title>
<polygon fill="none" stroke="black" points="73,-356 1,-356 1,-330 73,-330 73,-356"/>
<text text-anchor="middle" x="37" y="-340.55" font-family="Helvetica,sans-Serif" font-size="10.50">json_module</text>
</g>
<!-- module~jf_test_10_mod -->
<g id="node2" class="node"><title>module~jf_test_10_mod</title>
<a xlink:href="../module/jf_test_10_mod.html" xlink:title="jf_test_10_mod">
<polygon fill="#337ab7" stroke="#337ab7" points="196,-686 110,-686 110,-660 196,-660 196,-686"/>
<text text-anchor="middle" x="153" y="-670.55" font-family="Helvetica,sans-Serif" font-size="10.50" fill="white">jf_test_10_mod</text>
</a>
</g>
<!-- module~json_module&#45;&gt;module~jf_test_10_mod -->
<g id="edge30" class="edge"><title>module~json_module&#45;&gt;module~jf_test_10_mod</title>
<path fill="none" stroke="black" stroke-dasharray="5,2" d="M38.6184,-356.018C45.3467,-408.399 72.5153,-603.227 110,-651 110.589,-651.75 111.21,-652.478 111.86,-653.182"/>
<polygon fill="black" stroke="black" points="109.849,-656.066 119.73,-659.89 114.389,-650.739 109.849,-656.066"/>
</g>
<!-- module~jf_test_14_mod -->
<g id="node3" class="node"><title>module~jf_test_14_mod</title>
<a xlink:href="../module/jf_test_14_mod.html" xlink:title="jf_test_14_mod">
<polygon fill="#337ab7" stroke="#337ab7" points="196,-642 110,-642 110,-616 196,-616 196,-642"/>
<text text-anchor="middle" x="153" y="-626.55" font-family="Helvetica,sans-Serif" font-size="10.50" fill="white">jf_test_14_mod</text>
</a>
</g>
<!-- module~json_module&#45;&gt;module~jf_test_14_mod -->
<g id="edge32" class="edge"><title>module~json_module&#45;&gt;module~jf_test_14_mod</title>
<path fill="none" stroke="black" stroke-dasharray="5,2" d="M39.1833,-356.068C47.3418,-403.63 77.2535,-566.821 110,-607 110.603,-607.739 111.237,-608.457 111.898,-609.152"/>
<polygon fill="black" stroke="black" points="109.931,-612.069 119.85,-615.794 114.418,-606.697 109.931,-612.069"/>
</g>
<!-- module~jf_test_5_mod -->
<g id="node4" class="node"><title>module~jf_test_5_mod</title>
<a xlink:href="../module/jf_test_5_mod.html" xlink:title="jf_test_5_mod">
<polygon fill="#337ab7" stroke="#337ab7" points="193,-598 113,-598 113,-572 193,-572 193,-598"/>
<text text-anchor="middle" x="153" y="-582.55" font-family="Helvetica,sans-Serif" font-size="10.50" fill="white">jf_test_5_mod</text>
</a>
</g>
<!-- module~json_module&#45;&gt;module~jf_test_5_mod -->
<g id="edge34" class="edge"><title>module~json_module&#45;&gt;module~jf_test_5_mod</title>
<path fill="none" stroke="black" stroke-dasharray="5,2" d="M37.9401,-356.069C41.2339,-392.928 55.2317,-499.17 110,-563 110.737,-563.859 111.516,-564.689 112.331,-565.49"/>
<polygon fill="black" stroke="black" points="110.436,-568.455 120.44,-571.943 114.794,-562.978 110.436,-568.455"/>
</g>
<!-- module~jf_test_9_mod -->
<g id="node5" class="node"><title>module~jf_test_9_mod</title>
<a xlink:href="../module/jf_test_9_mod.html" xlink:title="jf_test_9_mod">
<polygon fill="#337ab7" stroke="#337ab7" points="193,-554 113,-554 113,-528 193,-528 193,-554"/>
<text text-anchor="middle" x="153" y="-538.55" font-family="Helvetica,sans-Serif" font-size="10.50" fill="white">jf_test_9_mod</text>
</a>
</g>
<!-- module~json_module&#45;&gt;module~jf_test_9_mod -->
<g id="edge36" class="edge"><title>module~json_module&#45;&gt;module~jf_test_9_mod</title>
<path fill="none" stroke="black" stroke-dasharray="5,2" d="M39.2337,-356.163C45.2358,-387.902 64.4468,-469.662 110,-519 110.768,-519.832 111.574,-520.637 112.413,-521.416"/>
<polygon fill="black" stroke="black" points="110.603,-524.438 120.67,-527.738 114.858,-518.88 110.603,-524.438"/>
</g>
<!-- module~jf_test_4_mod -->
<g id="node6" class="node"><title>module~jf_test_4_mod</title>
<a xlink:href="../module/jf_test_4_mod.html" xlink:title="jf_test_4_mod">
<polygon fill="#337ab7" stroke="#337ab7" points="193,-510 113,-510 113,-484 193,-484 193,-510"/>
<text text-anchor="middle" x="153" y="-494.55" font-family="Helvetica,sans-Serif" font-size="10.50" fill="white">jf_test_4_mod</text>
</a>
</g>
<!-- module~json_module&#45;&gt;module~jf_test_4_mod -->
<g id="edge38" class="edge"><title>module~json_module&#45;&gt;module~jf_test_4_mod</title>
<path fill="none" stroke="black" stroke-dasharray="5,2" d="M41.3489,-356.259C50.3985,-382.077 73.5013,-439.66 110,-475 111.092,-476.057 112.245,-477.075 113.444,-478.054"/>
<polygon fill="black" stroke="black" points="111.688,-481.096 121.892,-483.948 115.694,-475.355 111.688,-481.096"/>
</g>
<!-- program~example2 -->
<g id="node7" class="node"><title>program~example2</title>
<a xlink:href="../program/example2.html" xlink:title="example2">
<polygon fill="#f0ad4e" stroke="#f0ad4e" points="182,-466 124,-466 124,-440 182,-440 182,-466"/>
<text text-anchor="middle" x="153" y="-450.55" font-family="Helvetica,sans-Serif" font-size="10.50" fill="white">example2</text>
</a>
</g>
<!-- module~json_module&#45;&gt;program~example2 -->
<g id="edge40" class="edge"><title>module~json_module&#45;&gt;program~example2</title>
<path fill="none" stroke="black" stroke-dasharray="5,2" d="M45.3147,-356.064C57.6305,-374.609 82.2734,-408.78 110,-431 111.521,-432.219 113.121,-433.398 114.772,-434.535"/>
<polygon fill="black" stroke="black" points="112.992,-437.549 123.334,-439.848 116.683,-431.601 112.992,-437.549"/>
</g>
<!-- module~jf_test_11_mod -->
<g id="node8" class="node"><title>module~jf_test_11_mod</title>
<a xlink:href="../module/jf_test_11_mod.html" xlink:title="jf_test_11_mod">
<polygon fill="#337ab7" stroke="#337ab7" points="196,-422 110,-422 110,-396 196,-396 196,-422"/>
<text text-anchor="middle" x="153" y="-406.55" font-family="Helvetica,sans-Serif" font-size="10.50" fill="white">jf_test_11_mod</text>
</a>
</g>
<!-- module~json_module&#45;&gt;module~jf_test_11_mod -->
<g id="edge42" class="edge"><title>module~json_module&#45;&gt;module~jf_test_11_mod</title>
<path fill="none" stroke="black" stroke-dasharray="5,2" d="M57.8569,-356.099C72.3358,-365.062 92.1546,-377.073 110,-387 112.391,-388.33 114.871,-389.678 117.378,-391.019"/>
<polygon fill="black" stroke="black" points="115.987,-394.241 126.468,-395.791 119.241,-388.044 115.987,-394.241"/>
</g>
<!-- module~jf_test_8_mod -->
<g id="node9" class="node"><title>module~jf_test_8_mod</title>
<a xlink:href="../module/jf_test_8_mod.html" xlink:title="jf_test_8_mod">
<polygon fill="#337ab7" stroke="#337ab7" points="193,-378 113,-378 113,-352 193,-352 193,-378"/>
<text text-anchor="middle" x="153" y="-362.55" font-family="Helvetica,sans-Serif" font-size="10.50" fill="white">jf_test_8_mod</text>
</a>
</g>
<!-- module~json_module&#45;&gt;module~jf_test_8_mod -->
<g id="edge44" class="edge"><title>module~json_module&#45;&gt;module~jf_test_8_mod</title>
<path fill="none" stroke="black" stroke-dasharray="5,2" d="M73.7031,-349.961C82.9646,-351.717 93.0674,-353.633 102.865,-355.492"/>
<polygon fill="black" stroke="black" points="102.44,-358.973 112.917,-357.398 103.744,-352.096 102.44,-358.973"/>
</g>
<!-- module~jf_test_2_mod -->
<g id="node10" class="node"><title>module~jf_test_2_mod</title>
<a xlink:href="../module/jf_test_2_mod.html" xlink:title="jf_test_2_mod">
<polygon fill="#337ab7" stroke="#337ab7" points="193,-334 113,-334 113,-308 193,-308 193,-334"/>
<text text-anchor="middle" x="153" y="-318.55" font-family="Helvetica,sans-Serif" font-size="10.50" fill="white">jf_test_2_mod</text>
</a>
</g>
<!-- module~json_module&#45;&gt;module~jf_test_2_mod -->
<g id="edge46" class="edge"><title>module~json_module&#45;&gt;module~jf_test_2_mod</title>
<path fill="none" stroke="black" stroke-dasharray="5,2" d="M73.7031,-336.039C82.9646,-334.283 93.0674,-332.367 102.865,-330.508"/>
<polygon fill="black" stroke="black" points="103.744,-333.904 112.917,-328.602 102.44,-327.027 103.744,-333.904"/>
</g>
<!-- module~jf_test_1_mod -->
<g id="node11" class="node"><title>module~jf_test_1_mod</title>
<a xlink:href="../module/jf_test_1_mod.html" xlink:title="jf_test_1_mod">
<polygon fill="#337ab7" stroke="#337ab7" points="193,-290 113,-290 113,-264 193,-264 193,-290"/>
<text text-anchor="middle" x="153" y="-274.55" font-family="Helvetica,sans-Serif" font-size="10.50" fill="white">jf_test_1_mod</text>
</a>
</g>
<!-- module~json_module&#45;&gt;module~jf_test_1_mod -->
<g id="edge48" class="edge"><title>module~json_module&#45;&gt;module~jf_test_1_mod</title>
<path fill="none" stroke="black" stroke-dasharray="5,2" d="M57.8569,-329.901C72.3358,-320.938 92.1546,-308.927 110,-299 112.391,-297.67 114.871,-296.322 117.378,-294.981"/>
<polygon fill="black" stroke="black" points="119.241,-297.956 126.468,-290.209 115.987,-291.759 119.241,-297.956"/>
</g>
<!-- module~jf_test_6_mod -->
<g id="node12" class="node"><title>module~jf_test_6_mod</title>
<a xlink:href="../module/jf_test_6_mod.html" xlink:title="jf_test_6_mod">
<polygon fill="#337ab7" stroke="#337ab7" points="193,-246 113,-246 113,-220 193,-220 193,-246"/>
<text text-anchor="middle" x="153" y="-230.55" font-family="Helvetica,sans-Serif" font-size="10.50" fill="white">jf_test_6_mod</text>
</a>
</g>
<!-- module~json_module&#45;&gt;module~jf_test_6_mod -->
<g id="edge50" class="edge"><title>module~json_module&#45;&gt;module~jf_test_6_mod</title>
<path fill="none" stroke="black" stroke-dasharray="5,2" d="M45.3147,-329.936C57.6305,-311.391 82.2734,-277.22 110,-255 111.521,-253.781 113.121,-252.602 114.772,-251.465"/>
<polygon fill="black" stroke="black" points="116.683,-254.399 123.334,-246.152 112.992,-248.451 116.683,-254.399"/>
</g>
<!-- module~jf_test_3_mod -->
<g id="node13" class="node"><title>module~jf_test_3_mod</title>
<a xlink:href="../module/jf_test_3_mod.html" xlink:title="jf_test_3_mod">
<polygon fill="#337ab7" stroke="#337ab7" points="193,-202 113,-202 113,-176 193,-176 193,-202"/>
<text text-anchor="middle" x="153" y="-186.55" font-family="Helvetica,sans-Serif" font-size="10.50" fill="white">jf_test_3_mod</text>
</a>
</g>
<!-- module~json_module&#45;&gt;module~jf_test_3_mod -->
<g id="edge52" class="edge"><title>module~json_module&#45;&gt;module~jf_test_3_mod</title>
<path fill="none" stroke="black" stroke-dasharray="5,2" d="M41.3489,-329.741C50.3985,-303.923 73.5013,-246.34 110,-211 111.092,-209.943 112.245,-208.925 113.444,-207.946"/>
<polygon fill="black" stroke="black" points="115.694,-210.645 121.892,-202.052 111.688,-204.904 115.694,-210.645"/>
</g>
<!-- program~example1 -->
<g id="node14" class="node"><title>program~example1</title>
<a xlink:href="../program/example1.html" xlink:title="example1">
<polygon fill="#f0ad4e" stroke="#f0ad4e" points="182,-158 124,-158 124,-132 182,-132 182,-158"/>
<text text-anchor="middle" x="153" y="-142.55" font-family="Helvetica,sans-Serif" font-size="10.50" fill="white">example1</text>
</a>
</g>
<!-- module~json_module&#45;&gt;program~example1 -->
<g id="edge54" class="edge"><title>module~json_module&#45;&gt;program~example1</title>
<path fill="none" stroke="black" stroke-dasharray="5,2" d="M39.2337,-329.837C45.2358,-298.098 64.4468,-216.338 110,-167 111.525,-165.348 113.203,-163.801 114.984,-162.354"/>
<polygon fill="black" stroke="black" points="117.038,-165.19 123.305,-156.647 113.078,-159.417 117.038,-165.19"/>
</g>
<!-- module~jf_test_13_mod -->
<g id="node15" class="node"><title>module~jf_test_13_mod</title>
<a xlink:href="../module/jf_test_13_mod.html" xlink:title="jf_test_13_mod">
<polygon fill="#337ab7" stroke="#337ab7" points="196,-114 110,-114 110,-88 196,-88 196,-114"/>
<text text-anchor="middle" x="153" y="-98.55" font-family="Helvetica,sans-Serif" font-size="10.50" fill="white">jf_test_13_mod</text>
</a>
</g>
<!-- module~json_module&#45;&gt;module~jf_test_13_mod -->
<g id="edge56" class="edge"><title>module~json_module&#45;&gt;module~jf_test_13_mod</title>
<path fill="none" stroke="black" stroke-dasharray="5,2" d="M37.9401,-329.931C41.2339,-293.072 55.2317,-186.83 110,-123 110.737,-122.141 111.516,-121.311 112.331,-120.51"/>
<polygon fill="black" stroke="black" points="114.794,-123.022 120.44,-114.057 110.436,-117.545 114.794,-123.022"/>
</g>
<!-- module~jf_test_7_mod -->
<g id="node16" class="node"><title>module~jf_test_7_mod</title>
<a xlink:href="../module/jf_test_7_mod.html" xlink:title="jf_test_7_mod">
<polygon fill="#337ab7" stroke="#337ab7" points="193,-70 113,-70 113,-44 193,-44 193,-70"/>
<text text-anchor="middle" x="153" y="-54.55" font-family="Helvetica,sans-Serif" font-size="10.50" fill="white">jf_test_7_mod</text>
</a>
</g>
<!-- module~json_module&#45;&gt;module~jf_test_7_mod -->
<g id="edge58" class="edge"><title>module~json_module&#45;&gt;module~jf_test_7_mod</title>
<path fill="none" stroke="black" stroke-dasharray="5,2" d="M39.1833,-329.932C47.3418,-282.37 77.2535,-119.179 110,-79 110.603,-78.2606 111.237,-77.5435 111.898,-76.8481"/>
<polygon fill="black" stroke="black" points="114.418,-79.3032 119.85,-70.2064 109.931,-73.9307 114.418,-79.3032"/>
</g>
<!-- module~jf_test_12_mod -->
<g id="node17" class="node"><title>module~jf_test_12_mod</title>
<a xlink:href="../module/jf_test_12_mod.html" xlink:title="jf_test_12_mod">
<polygon fill="#337ab7" stroke="#337ab7" points="196,-26 110,-26 110,-1.24345e-14 196,-3.55271e-15 196,-26"/>
<text text-anchor="middle" x="153" y="-10.55" font-family="Helvetica,sans-Serif" font-size="10.50" fill="white">jf_test_12_mod</text>
</a>
</g>
<!-- module~json_module&#45;&gt;module~jf_test_12_mod -->
<g id="edge60" class="edge"><title>module~json_module&#45;&gt;module~jf_test_12_mod</title>
<path fill="none" stroke="black" stroke-dasharray="5,2" d="M38.6184,-329.982C45.3467,-277.601 72.5153,-82.7731 110,-35 110.589,-34.2496 111.21,-33.5224 111.86,-32.8179"/>
<polygon fill="black" stroke="black" points="114.389,-35.2609 119.73,-26.1103 109.849,-29.9335 114.389,-35.2609"/>
</g>
<!-- program~jf_test_10 -->
<g id="node18" class="node"><title>program~jf_test_10</title>
<a xlink:href="../program/jf_test_10.html" xlink:title="jf_test_10">
<polygon fill="#f0ad4e" stroke="#f0ad4e" points="291,-686 233,-686 233,-660 291,-660 291,-686"/>
<text text-anchor="middle" x="262" y="-670.55" font-family="Helvetica,sans-Serif" font-size="10.50" fill="white">jf_test_10</text>
</a>
</g>
<!-- module~jf_test_10_mod&#45;&gt;program~jf_test_10 -->
<g id="edge2" class="edge"><title>module~jf_test_10_mod&#45;&gt;program~jf_test_10</title>
<path fill="none" stroke="black" stroke-dasharray="5,2" d="M196.08,-673C204.71,-673 213.74,-673 222.252,-673"/>
<polygon fill="black" stroke="black" points="222.314,-676.5 232.314,-673 222.314,-669.5 222.314,-676.5"/>
</g>
<!-- program~jf_test_14 -->
<g id="node20" class="node"><title>program~jf_test_14</title>
<a xlink:href="../program/jf_test_14.html" xlink:title="jf_test_14">
<polygon fill="#f0ad4e" stroke="#f0ad4e" points="291,-642 233,-642 233,-616 291,-616 291,-642"/>
<text text-anchor="middle" x="262" y="-626.55" font-family="Helvetica,sans-Serif" font-size="10.50" fill="white">jf_test_14</text>
</a>
</g>
<!-- module~jf_test_14_mod&#45;&gt;program~jf_test_14 -->
<g id="edge4" class="edge"><title>module~jf_test_14_mod&#45;&gt;program~jf_test_14</title>
<path fill="none" stroke="black" stroke-dasharray="5,2" d="M196.08,-629C204.71,-629 213.74,-629 222.252,-629"/>
<polygon fill="black" stroke="black" points="222.314,-632.5 232.314,-629 222.314,-625.5 222.314,-632.5"/>
</g>
<!-- program~jf_test_5 -->
<g id="node22" class="node"><title>program~jf_test_5</title>
<a xlink:href="../program/jf_test_5.html" xlink:title="jf_test_5">
<polygon fill="#f0ad4e" stroke="#f0ad4e" points="289,-598 235,-598 235,-572 289,-572 289,-598"/>
<text text-anchor="middle" x="262" y="-582.55" font-family="Helvetica,sans-Serif" font-size="10.50" fill="white">jf_test_5</text>
</a>
</g>
<!-- module~jf_test_5_mod&#45;&gt;program~jf_test_5 -->
<g id="edge6" class="edge"><title>module~jf_test_5_mod&#45;&gt;program~jf_test_5</title>
<path fill="none" stroke="black" stroke-dasharray="5,2" d="M193.278,-585C203.54,-585 214.526,-585 224.635,-585"/>
<polygon fill="black" stroke="black" points="224.787,-588.5 234.787,-585 224.787,-581.5 224.787,-588.5"/>
</g>
<!-- program~jf_test_9 -->
<g id="node24" class="node"><title>program~jf_test_9</title>
<a xlink:href="../program/jf_test_9.html" xlink:title="jf_test_9">
<polygon fill="#f0ad4e" stroke="#f0ad4e" points="289,-554 235,-554 235,-528 289,-528 289,-554"/>
<text text-anchor="middle" x="262" y="-538.55" font-family="Helvetica,sans-Serif" font-size="10.50" fill="white">jf_test_9</text>
</a>
</g>
<!-- module~jf_test_9_mod&#45;&gt;program~jf_test_9 -->
<g id="edge8" class="edge"><title>module~jf_test_9_mod&#45;&gt;program~jf_test_9</title>
<path fill="none" stroke="black" stroke-dasharray="5,2" d="M193.278,-541C203.54,-541 214.526,-541 224.635,-541"/>
<polygon fill="black" stroke="black" points="224.787,-544.5 234.787,-541 224.787,-537.5 224.787,-544.5"/>
</g>
<!-- program~jf_test_4 -->
<g id="node26" class="node"><title>program~jf_test_4</title>
<a xlink:href="../program/jf_test_4.html" xlink:title="jf_test_4">
<polygon fill="#f0ad4e" stroke="#f0ad4e" points="289,-510 235,-510 235,-484 289,-484 289,-510"/>
<text text-anchor="middle" x="262" y="-494.55" font-family="Helvetica,sans-Serif" font-size="10.50" fill="white">jf_test_4</text>
</a>
</g>
<!-- module~jf_test_4_mod&#45;&gt;program~jf_test_4 -->
<g id="edge10" class="edge"><title>module~jf_test_4_mod&#45;&gt;program~jf_test_4</title>
<path fill="none" stroke="black" stroke-dasharray="5,2" d="M193.278,-497C203.54,-497 214.526,-497 224.635,-497"/>
<polygon fill="black" stroke="black" points="224.787,-500.5 234.787,-497 224.787,-493.5 224.787,-500.5"/>
</g>
<!-- program~jf_test_11 -->
<g id="node28" class="node"><title>program~jf_test_11</title>
<a xlink:href="../program/jf_test_11.html" xlink:title="jf_test_11">
<polygon fill="#f0ad4e" stroke="#f0ad4e" points="291,-422 233,-422 233,-396 291,-396 291,-422"/>
<text text-anchor="middle" x="262" y="-406.55" font-family="Helvetica,sans-Serif" font-size="10.50" fill="white">jf_test_11</text>
</a>
</g>
<!-- module~jf_test_11_mod&#45;&gt;program~jf_test_11 -->
<g id="edge12" class="edge"><title>module~jf_test_11_mod&#45;&gt;program~jf_test_11</title>
<path fill="none" stroke="black" stroke-dasharray="5,2" d="M196.08,-409C204.71,-409 213.74,-409 222.252,-409"/>
<polygon fill="black" stroke="black" points="222.314,-412.5 232.314,-409 222.314,-405.5 222.314,-412.5"/>
</g>
<!-- program~jf_test_8 -->
<g id="node30" class="node"><title>program~jf_test_8</title>
<a xlink:href="../program/jf_test_8.html" xlink:title="jf_test_8">
<polygon fill="#f0ad4e" stroke="#f0ad4e" points="289,-378 235,-378 235,-352 289,-352 289,-378"/>
<text text-anchor="middle" x="262" y="-362.55" font-family="Helvetica,sans-Serif" font-size="10.50" fill="white">jf_test_8</text>
</a>
</g>
<!-- module~jf_test_8_mod&#45;&gt;program~jf_test_8 -->
<g id="edge14" class="edge"><title>module~jf_test_8_mod&#45;&gt;program~jf_test_8</title>
<path fill="none" stroke="black" stroke-dasharray="5,2" d="M193.278,-365C203.54,-365 214.526,-365 224.635,-365"/>
<polygon fill="black" stroke="black" points="224.787,-368.5 234.787,-365 224.787,-361.5 224.787,-368.5"/>
</g>
<!-- program~jf_test_2 -->
<g id="node32" class="node"><title>program~jf_test_2</title>
<a xlink:href="../program/jf_test_2.html" xlink:title="jf_test_2">
<polygon fill="#f0ad4e" stroke="#f0ad4e" points="289,-334 235,-334 235,-308 289,-308 289,-334"/>
<text text-anchor="middle" x="262" y="-318.55" font-family="Helvetica,sans-Serif" font-size="10.50" fill="white">jf_test_2</text>
</a>
</g>
<!-- module~jf_test_2_mod&#45;&gt;program~jf_test_2 -->
<g id="edge16" class="edge"><title>module~jf_test_2_mod&#45;&gt;program~jf_test_2</title>
<path fill="none" stroke="black" stroke-dasharray="5,2" d="M193.278,-321C203.54,-321 214.526,-321 224.635,-321"/>
<polygon fill="black" stroke="black" points="224.787,-324.5 234.787,-321 224.787,-317.5 224.787,-324.5"/>
</g>
<!-- program~jf_test_1 -->
<g id="node34" class="node"><title>program~jf_test_1</title>
<a xlink:href="../program/jf_test_1.html" xlink:title="jf_test_1">
<polygon fill="#f0ad4e" stroke="#f0ad4e" points="289,-290 235,-290 235,-264 289,-264 289,-290"/>
<text text-anchor="middle" x="262" y="-274.55" font-family="Helvetica,sans-Serif" font-size="10.50" fill="white">jf_test_1</text>
</a>
</g>
<!-- module~jf_test_1_mod&#45;&gt;program~jf_test_1 -->
<g id="edge18" class="edge"><title>module~jf_test_1_mod&#45;&gt;program~jf_test_1</title>
<path fill="none" stroke="black" stroke-dasharray="5,2" d="M193.278,-277C203.54,-277 214.526,-277 224.635,-277"/>
<polygon fill="black" stroke="black" points="224.787,-280.5 234.787,-277 224.787,-273.5 224.787,-280.5"/>
</g>
<!-- program~jf_test_6 -->
<g id="node36" class="node"><title>program~jf_test_6</title>
<a xlink:href="../program/jf_test_6.html" xlink:title="jf_test_6">
<polygon fill="#f0ad4e" stroke="#f0ad4e" points="289,-246 235,-246 235,-220 289,-220 289,-246"/>
<text text-anchor="middle" x="262" y="-230.55" font-family="Helvetica,sans-Serif" font-size="10.50" fill="white">jf_test_6</text>
</a>
</g>
<!-- module~jf_test_6_mod&#45;&gt;program~jf_test_6 -->
<g id="edge20" class="edge"><title>module~jf_test_6_mod&#45;&gt;program~jf_test_6</title>
<path fill="none" stroke="black" stroke-dasharray="5,2" d="M193.278,-233C203.54,-233 214.526,-233 224.635,-233"/>
<polygon fill="black" stroke="black" points="224.787,-236.5 234.787,-233 224.787,-229.5 224.787,-236.5"/>
</g>
<!-- program~jf_test_3 -->
<g id="node38" class="node"><title>program~jf_test_3</title>
<a xlink:href="../program/jf_test_3.html" xlink:title="jf_test_3">
<polygon fill="#f0ad4e" stroke="#f0ad4e" points="289,-202 235,-202 235,-176 289,-176 289,-202"/>
<text text-anchor="middle" x="262" y="-186.55" font-family="Helvetica,sans-Serif" font-size="10.50" fill="white">jf_test_3</text>
</a>
</g>
<!-- module~jf_test_3_mod&#45;&gt;program~jf_test_3 -->
<g id="edge22" class="edge"><title>module~jf_test_3_mod&#45;&gt;program~jf_test_3</title>
<path fill="none" stroke="black" stroke-dasharray="5,2" d="M193.278,-189C203.54,-189 214.526,-189 224.635,-189"/>
<polygon fill="black" stroke="black" points="224.787,-192.5 234.787,-189 224.787,-185.5 224.787,-192.5"/>
</g>
<!-- program~jf_test_13 -->
<g id="node40" class="node"><title>program~jf_test_13</title>
<a xlink:href="../program/jf_test_13.html" xlink:title="jf_test_13">
<polygon fill="#f0ad4e" stroke="#f0ad4e" points="291,-114 233,-114 233,-88 291,-88 291,-114"/>
<text text-anchor="middle" x="262" y="-98.55" font-family="Helvetica,sans-Serif" font-size="10.50" fill="white">jf_test_13</text>
</a>
</g>
<!-- module~jf_test_13_mod&#45;&gt;program~jf_test_13 -->
<g id="edge24" class="edge"><title>module~jf_test_13_mod&#45;&gt;program~jf_test_13</title>
<path fill="none" stroke="black" stroke-dasharray="5,2" d="M196.08,-101C204.71,-101 213.74,-101 222.252,-101"/>
<polygon fill="black" stroke="black" points="222.314,-104.5 232.314,-101 222.314,-97.5001 222.314,-104.5"/>
</g>
<!-- program~jf_test_7 -->
<g id="node42" class="node"><title>program~jf_test_7</title>
<a xlink:href="../program/jf_test_7.html" xlink:title="jf_test_7">
<polygon fill="#f0ad4e" stroke="#f0ad4e" points="289,-70 235,-70 235,-44 289,-44 289,-70"/>
<text text-anchor="middle" x="262" y="-54.55" font-family="Helvetica,sans-Serif" font-size="10.50" fill="white">jf_test_7</text>
</a>
</g>
<!-- module~jf_test_7_mod&#45;&gt;program~jf_test_7 -->
<g id="edge26" class="edge"><title>module~jf_test_7_mod&#45;&gt;program~jf_test_7</title>
<path fill="none" stroke="black" stroke-dasharray="5,2" d="M193.278,-57C203.54,-57 214.526,-57 224.635,-57"/>
<polygon fill="black" stroke="black" points="224.787,-60.5001 234.787,-57 224.787,-53.5001 224.787,-60.5001"/>
</g>
<!-- program~jf_test_12 -->
<g id="node44" class="node"><title>program~jf_test_12</title>
<a xlink:href="../program/jf_test_12.html" xlink:title="jf_test_12">
<polygon fill="#f0ad4e" stroke="#f0ad4e" points="291,-26 233,-26 233,-1.24345e-14 291,-3.55271e-15 291,-26"/>
<text text-anchor="middle" x="262" y="-10.55" font-family="Helvetica,sans-Serif" font-size="10.50" fill="white">jf_test_12</text>
</a>
</g>
<!-- module~jf_test_12_mod&#45;&gt;program~jf_test_12 -->
<g id="edge28" class="edge"><title>module~jf_test_12_mod&#45;&gt;program~jf_test_12</title>
<path fill="none" stroke="black" stroke-dasharray="5,2" d="M196.08,-13C204.71,-13 213.74,-13 222.252,-13"/>
<polygon fill="black" stroke="black" points="222.314,-16.5001 232.314,-13 222.314,-9.5001 222.314,-16.5001"/>
</g>
</g>
</svg>
