<?xml version="1.0" encoding="UTF-8" standalone="no"?>
<!DOCTYPE svg PUBLIC "-//W3C//DTD SVG 1.1//EN"
 "http://www.w3.org/Graphics/SVG/1.1/DTD/svg11.dtd">
<!-- Generated by graphviz version 2.26.3 (20100126.1600)
 -->
<!-- Title: proc~~json_file_get_object~~CalledByGraph Pages: 1 -->
<svg width="288pt" height="34pt"
 viewBox="0.00 0.00 288.00 34.00" xmlns="http://www.w3.org/2000/svg" xmlns:xlink="http://www.w3.org/1999/xlink">
<g id="graph1" class="graph" transform="scale(1 1) rotate(0) translate(4 30)">
<title>proc~~json_file_get_object~~CalledByGraph</title>
<polygon fill="white" stroke="white" points="-4,5 -4,-30 285,-30 285,5 -4,5"/>
<!-- proc~json_file_get_object -->
<g id="node1" class="node"><title>proc~json_file_get_object</title>
<polygon fill="none" stroke="black" points="279,-26 173,-26 173,-1.24345e-14 279,-3.55271e-15 279,-26"/>
<text text-anchor="middle" x="226" y="-10.55" font-family="Helvetica,sans-Serif" font-size="10.50">json_file_get_object</text>
</g>
<!-- proc~wrap_json_file_get_object -->
<g id="node2" class="node"><title>proc~wrap_json_file_get_object</title>
<a xlink:href="../proc/wrap_json_file_get_object.html" xlink:title="wrap_json_file_get_object">
<polygon fill="#d9534f" stroke="#d9534f" points="136,-26 7.10543e-14,-26 0,-1.24345e-14 136,-3.55271e-15 136,-26"/>
<text text-anchor="middle" x="68" y="-10.55" font-family="Helvetica,sans-Serif" font-size="10.50" fill="white">wrap_json_file_get_object</text>
</a>
</g>
<!-- proc~wrap_json_file_get_object&#45;&gt;proc~json_file_get_object -->
<g id="edge2" class="edge"><title>proc~wrap_json_file_get_object&#45;&gt;proc~json_file_get_object</title>
<path fill="none" stroke="black" d="M136.382,-13C144.92,-13 153.627,-13 162.094,-13"/>
<polygon fill="black" stroke="black" points="162.274,-16.5001 172.274,-13 162.274,-9.5001 162.274,-16.5001"/>
</g>
</g>
</svg>
