<?xml version="1.0" encoding="UTF-8" standalone="no"?>
<!DOCTYPE svg PUBLIC "-//W3C//DTD SVG 1.1//EN"
 "http://www.w3.org/Graphics/SVG/1.1/DTD/svg11.dtd">
<!-- Generated by graphviz version 2.26.3 (20100126.1600)
 -->
<!-- Title: proc~~wrap_json_value_remove_if_present~~CalledByGraph Pages: 1 -->
<svg width="546pt" height="34pt"
 viewBox="0.00 0.00 546.00 34.00" xmlns="http://www.w3.org/2000/svg" xmlns:xlink="http://www.w3.org/1999/xlink">
<g id="graph1" class="graph" transform="scale(1 1) rotate(0) translate(4 30)">
<title>proc~~wrap_json_value_remove_if_present~~CalledByGraph</title>
<polygon fill="white" stroke="white" points="-4,5 -4,-30 543,-30 543,5 -4,5"/>
<!-- proc~wrap_json_value_remove_if_present -->
<g id="node1" class="node"><title>proc~wrap_json_value_remove_if_present</title>
<polygon fill="none" stroke="black" points="538,-26 350,-26 350,-1.24345e-14 538,-3.55271e-15 538,-26"/>
<text text-anchor="middle" x="444" y="-10.55" font-family="Helvetica,sans-Serif" font-size="10.50">wrap_json_value_remove_if_present</text>
</g>
<!-- interface~json_remove_if_present -->
<g id="node2" class="node"><title>interface~json_remove_if_present</title>
<a xlink:href="../interface/json_remove_if_present.html" xlink:title="json_remove_if_present">
<polygon fill="#a7506f" stroke="#a7506f" points="313,-26 187,-26 187,-1.24345e-14 313,-3.55271e-15 313,-26"/>
<text text-anchor="middle" x="250" y="-10.55" font-family="Helvetica,sans-Serif" font-size="10.50" fill="white">json_remove_if_present</text>
</a>
</g>
<!-- interface~json_remove_if_present&#45;&gt;proc~wrap_json_value_remove_if_present -->
<g id="edge6" class="edge"><title>interface~json_remove_if_present&#45;&gt;proc~wrap_json_value_remove_if_present</title>
<path fill="none" stroke="black" stroke-dasharray="5,2" d="M313.523,-13C321.953,-13 330.768,-13 339.666,-13"/>
<polygon fill="black" stroke="black" points="339.731,-16.5001 349.73,-13 339.73,-9.5001 339.731,-16.5001"/>
</g>
<!-- proc~test_10 -->
<g id="node3" class="node"><title>proc~test_10</title>
<a xlink:href="../proc/test_10.html" xlink:title="test_10">
<polygon fill="#d9534f" stroke="#d9534f" points="150,-26 96,-26 96,-1.24345e-14 150,-3.55271e-15 150,-26"/>
<text text-anchor="middle" x="123" y="-10.55" font-family="Helvetica,sans-Serif" font-size="10.50" fill="white">test_10</text>
</a>
</g>
<!-- proc~test_10&#45;&gt;interface~json_remove_if_present -->
<g id="edge4" class="edge"><title>proc~test_10&#45;&gt;interface~json_remove_if_present</title>
<path fill="none" stroke="black" d="M150.245,-13C158.059,-13 166.975,-13 176.189,-13"/>
<polygon fill="black" stroke="black" points="176.266,-16.5001 186.266,-13 176.266,-9.5001 176.266,-16.5001"/>
</g>
<!-- program~jf_test_10 -->
<g id="node4" class="node"><title>program~jf_test_10</title>
<a xlink:href="../program/jf_test_10.html" xlink:title="jf_test_10">
<polygon fill="#f0ad4e" stroke="#f0ad4e" points="59,-26 1,-26 1,-1.24345e-14 59,-3.55271e-15 59,-26"/>
<text text-anchor="middle" x="30" y="-10.55" font-family="Helvetica,sans-Serif" font-size="10.50" fill="white">jf_test_10</text>
</a>
</g>
<!-- program~jf_test_10&#45;&gt;proc~test_10 -->
<g id="edge2" class="edge"><title>program~jf_test_10&#45;&gt;proc~test_10</title>
<path fill="none" stroke="black" d="M59.6815,-13C67.9202,-13 76.973,-13 85.5921,-13"/>
<polygon fill="black" stroke="black" points="85.8066,-16.5001 95.8065,-13 85.8065,-9.5001 85.8066,-16.5001"/>
</g>
</g>
</svg>
