<?xml version="1.0" encoding="UTF-8" standalone="no"?>
<!DOCTYPE svg PUBLIC "-//W3C//DTD SVG 1.1//EN"
 "http://www.w3.org/Graphics/SVG/1.1/DTD/svg11.dtd">
<!-- Generated by graphviz version 2.26.3 (20100126.1600)
 -->
<!-- Title: proc~~wrap_json_value_get_by_name_chars~~CallsGraph Pages: 1 -->
<svg width="641pt" height="87pt"
 viewBox="0.00 0.00 641.00 86.57" xmlns="http://www.w3.org/2000/svg" xmlns:xlink="http://www.w3.org/1999/xlink">
<g id="graph1" class="graph" transform="scale(0.660825 0.660825) rotate(0) translate(4 127)">
<title>proc~~wrap_json_value_get_by_name_chars~~CallsGraph</title>
<polygon fill="white" stroke="white" points="-4,5 -4,-127 967,-127 967,5 -4,5"/>
<!-- proc~wrap_json_value_get_by_name_chars -->
<g id="node1" class="node"><title>proc~wrap_json_value_get_by_name_chars</title>
<polygon fill="none" stroke="black" points="196,-90 8.52651e-14,-90 0,-64 196,-64 196,-90"/>
<text text-anchor="middle" x="98" y="-74.55" font-family="Helvetica,sans-Serif" font-size="10.50">wrap_json_value_get_by_name_chars</text>
</g>
<!-- interface~to_unicode -->
<g id="node2" class="node"><title>interface~to_unicode</title>
<a xlink:href="../interface/to_unicode.html" xlink:title="to_unicode">
<polygon fill="#a7506f" stroke="#a7506f" points="836,-101 772,-101 772,-75 836,-75 836,-101"/>
<text text-anchor="middle" x="804" y="-85.55" font-family="Helvetica,sans-Serif" font-size="10.50" fill="white">to_unicode</text>
</a>
</g>
<!-- proc~wrap_json_value_get_by_name_chars&#45;&gt;interface~to_unicode -->
<g id="edge18" class="edge"><title>proc~wrap_json_value_get_by_name_chars&#45;&gt;interface~to_unicode</title>
<path fill="none" stroke="black" d="M196.166,-78.5295C352.161,-80.96 650.321,-85.6056 761.134,-87.3321"/>
<polygon fill="black" stroke="black" points="761.208,-90.8336 771.262,-87.4899 761.318,-83.8345 761.208,-90.8336"/>
</g>
<!-- proc~json_value_get_by_name_chars -->
<g id="node3" class="node"><title>proc~json_value_get_by_name_chars</title>
<a xlink:href="../proc/json_value_get_by_name_chars.html" xlink:title="json_value_get_by_name_chars">
<polygon fill="#d9534f" stroke="#d9534f" points="399,-70 233,-70 233,-44 399,-44 399,-70"/>
<text text-anchor="middle" x="316" y="-54.55" font-family="Helvetica,sans-Serif" font-size="10.50" fill="white">json_value_get_by_name_chars</text>
</a>
</g>
<!-- proc~wrap_json_value_get_by_name_chars&#45;&gt;proc~json_value_get_by_name_chars -->
<g id="edge20" class="edge"><title>proc~wrap_json_value_get_by_name_chars&#45;&gt;proc~json_value_get_by_name_chars</title>
<path fill="none" stroke="black" d="M196.159,-67.9946C204.85,-67.1973 213.634,-66.3914 222.287,-65.5975"/>
<polygon fill="black" stroke="black" points="222.733,-69.0714 232.372,-64.6723 222.094,-62.1006 222.733,-69.0714"/>
</g>
<!-- proc~to_uni_vec -->
<g id="node4" class="node"><title>proc~to_uni_vec</title>
<a xlink:href="../proc/to_uni_vec.html" xlink:title="to_uni_vec">
<polygon fill="#d94e8f" stroke="#d94e8f" points="962,-123 898,-123 898,-97 962,-97 962,-123"/>
<text text-anchor="middle" x="930" y="-107.55" font-family="Helvetica,sans-Serif" font-size="10.50" fill="white">to_uni_vec</text>
</a>
</g>
<!-- interface~to_unicode&#45;&gt;proc~to_uni_vec -->
<g id="edge2" class="edge"><title>interface~to_unicode&#45;&gt;proc~to_uni_vec</title>
<path fill="none" stroke="black" stroke-dasharray="5,2" d="M836.776,-93.7228C852.355,-96.443 871.166,-99.7274 887.798,-102.631"/>
<polygon fill="black" stroke="black" points="887.371,-106.11 897.824,-104.382 888.575,-99.214 887.371,-106.11"/>
</g>
<!-- proc~to_uni -->
<g id="node5" class="node"><title>proc~to_uni</title>
<a xlink:href="../proc/to_uni.html" xlink:title="to_uni">
<polygon fill="#d94e8f" stroke="#d94e8f" points="957,-79 903,-79 903,-53 957,-53 957,-79"/>
<text text-anchor="middle" x="930" y="-63.55" font-family="Helvetica,sans-Serif" font-size="10.50" fill="white">to_uni</text>
</a>
</g>
<!-- interface~to_unicode&#45;&gt;proc~to_uni -->
<g id="edge4" class="edge"><title>interface~to_unicode&#45;&gt;proc~to_uni</title>
<path fill="none" stroke="black" stroke-dasharray="5,2" d="M836.776,-82.2772C853.965,-79.276 875.088,-75.5878 892.878,-72.4816"/>
<polygon fill="black" stroke="black" points="893.664,-75.8974 902.913,-70.7295 892.46,-69.0017 893.664,-75.8974"/>
</g>
<!-- interface~throw_exception -->
<g id="node8" class="node"><title>interface~throw_exception</title>
<a xlink:href="../interface/throw_exception.html" xlink:title="throw_exception">
<polygon fill="#a7506f" stroke="#a7506f" points="527,-70 437,-70 437,-44 527,-44 527,-70"/>
<text text-anchor="middle" x="482" y="-54.55" font-family="Helvetica,sans-Serif" font-size="10.50" fill="white">throw_exception</text>
</a>
</g>
<!-- proc~json_value_get_by_name_chars&#45;&gt;interface~throw_exception -->
<g id="edge14" class="edge"><title>proc~json_value_get_by_name_chars&#45;&gt;interface~throw_exception</title>
<path fill="none" stroke="black" d="M399.973,-57C408.891,-57 417.795,-57 426.272,-57"/>
<polygon fill="black" stroke="black" points="426.372,-60.5001 436.372,-57 426.372,-53.5001 426.372,-60.5001"/>
</g>
<!-- proc~json_count -->
<g id="node9" class="node"><title>proc~json_count</title>
<a xlink:href="../proc/json_count.html" xlink:title="json_count">
<polygon fill="#d94e8f" stroke="#d94e8f" points="514,-26 450,-26 450,-1.24345e-14 514,-3.55271e-15 514,-26"/>
<text text-anchor="middle" x="482" y="-10.55" font-family="Helvetica,sans-Serif" font-size="10.50" fill="white">json_count</text>
</a>
</g>
<!-- proc~json_value_get_by_name_chars&#45;&gt;proc~json_count -->
<g id="edge16" class="edge"><title>proc~json_value_get_by_name_chars&#45;&gt;proc~json_count</title>
<path fill="none" stroke="black" d="M365.356,-43.9177C389.166,-37.6066 417.422,-30.117 440.16,-24.0901"/>
<polygon fill="black" stroke="black" points="441.09,-27.4645 449.86,-21.5191 439.297,-20.6981 441.09,-27.4645"/>
</g>
<!-- proc~json_throw_exception -->
<g id="node10" class="node"><title>proc~json_throw_exception</title>
<a xlink:href="../proc/json_throw_exception.html" xlink:title="json_throw_exception">
<polygon fill="#d9534f" stroke="#d9534f" points="862,-48 746,-48 746,-22 862,-22 862,-48"/>
<text text-anchor="middle" x="804" y="-32.55" font-family="Helvetica,sans-Serif" font-size="10.50" fill="white">json_throw_exception</text>
</a>
</g>
<!-- interface~throw_exception&#45;&gt;proc~json_throw_exception -->
<g id="edge10" class="edge"><title>interface~throw_exception&#45;&gt;proc~json_throw_exception</title>
<path fill="none" stroke="black" stroke-dasharray="5,2" d="M522.449,-43.8955C535.559,-40.2578 550.264,-36.8107 564,-35 621.464,-27.4254 687.341,-28.0826 735.522,-30.2621"/>
<polygon fill="black" stroke="black" points="735.367,-33.7586 745.525,-30.7478 735.706,-26.7668 735.367,-33.7586"/>
</g>
<!-- proc~wrap_json_throw_exception -->
<g id="node11" class="node"><title>proc~wrap_json_throw_exception</title>
<a xlink:href="../proc/wrap_json_throw_exception.html" xlink:title="wrap_json_throw_exception">
<polygon fill="#d9534f" stroke="#d9534f" points="709,-70 565,-70 565,-44 709,-44 709,-70"/>
<text text-anchor="middle" x="637" y="-54.55" font-family="Helvetica,sans-Serif" font-size="10.50" fill="white">wrap_json_throw_exception</text>
</a>
</g>
<!-- interface~throw_exception&#45;&gt;proc~wrap_json_throw_exception -->
<g id="edge12" class="edge"><title>interface~throw_exception&#45;&gt;proc~wrap_json_throw_exception</title>
<path fill="none" stroke="black" stroke-dasharray="5,2" d="M527.667,-57C536.036,-57 545.006,-57 554.075,-57"/>
<polygon fill="black" stroke="black" points="554.329,-60.5001 564.329,-57 554.329,-53.5001 554.329,-60.5001"/>
</g>
<!-- proc~wrap_json_throw_exception&#45;&gt;interface~to_unicode -->
<g id="edge8" class="edge"><title>proc~wrap_json_throw_exception&#45;&gt;interface~to_unicode</title>
<path fill="none" stroke="black" d="M707.339,-70.0569C725.794,-73.4827 745.129,-77.0718 761.614,-80.132"/>
<polygon fill="black" stroke="black" points="761.006,-83.5789 771.477,-81.9628 762.284,-76.6964 761.006,-83.5789"/>
</g>
<!-- proc~wrap_json_throw_exception&#45;&gt;proc~json_throw_exception -->
<g id="edge6" class="edge"><title>proc~wrap_json_throw_exception&#45;&gt;proc~json_throw_exception</title>
<path fill="none" stroke="black" d="M709.763,-47.4145C718.418,-46.2743 727.229,-45.1135 735.817,-43.9822"/>
<polygon fill="black" stroke="black" points="736.316,-47.4468 745.773,-42.6706 735.401,-40.5068 736.316,-47.4468"/>
</g>
</g>
</svg>
