<?xml version="1.0" encoding="UTF-8" standalone="no"?>
<!DOCTYPE svg PUBLIC "-//W3C//DTD SVG 1.1//EN"
 "http://www.w3.org/Graphics/SVG/1.1/DTD/svg11.dtd">
<!-- Generated by graphviz version 2.26.3 (20100126.1600)
 -->
<!-- Title: proc~~push_char~~CallsGraph Pages: 1 -->
<svg width="636pt" height="123pt"
 viewBox="0.00 0.00 636.00 123.00" xmlns="http://www.w3.org/2000/svg" xmlns:xlink="http://www.w3.org/1999/xlink">
<g id="graph1" class="graph" transform="scale(1 1) rotate(0) translate(4 119)">
<title>proc~~push_char~~CallsGraph</title>
<polygon fill="white" stroke="white" points="-4,5 -4,-119 633,-119 633,5 -4,5"/>
<!-- proc~push_char -->
<g id="node1" class="node"><title>proc~push_char</title>
<polygon fill="none" stroke="black" points="63,-93 1,-93 1,-67 63,-67 63,-93"/>
<text text-anchor="middle" x="32" y="-77.55" font-family="Helvetica,sans-Serif" font-size="10.50">push_char</text>
</g>
<!-- proc~integer_to_string -->
<g id="node2" class="node"><title>proc~integer_to_string</title>
<a xlink:href="../proc/integer_to_string.html" xlink:title="integer_to_string">
<polygon fill="#d9534f" stroke="#d9534f" points="193,-115 101,-115 101,-89 193,-89 193,-115"/>
<text text-anchor="middle" x="147" y="-99.55" font-family="Helvetica,sans-Serif" font-size="10.50" fill="white">integer_to_string</text>
</a>
</g>
<!-- proc~push_char&#45;&gt;proc~integer_to_string -->
<g id="edge14" class="edge"><title>proc~push_char&#45;&gt;proc~integer_to_string</title>
<path fill="none" stroke="black" d="M63.7287,-86.0698C72.0287,-87.6577 81.232,-89.4183 90.4045,-91.173"/>
<polygon fill="black" stroke="black" points="89.822,-94.625 100.302,-93.0664 91.1373,-87.7497 89.822,-94.625"/>
</g>
<!-- interface~throw_exception -->
<g id="node3" class="node"><title>interface~throw_exception</title>
<a xlink:href="../interface/throw_exception.html" xlink:title="throw_exception">
<polygon fill="#a7506f" stroke="#a7506f" points="192,-71 102,-71 102,-45 192,-45 192,-71"/>
<text text-anchor="middle" x="147" y="-55.55" font-family="Helvetica,sans-Serif" font-size="10.50" fill="white">throw_exception</text>
</a>
</g>
<!-- proc~push_char&#45;&gt;interface~throw_exception -->
<g id="edge16" class="edge"><title>proc~push_char&#45;&gt;interface~throw_exception</title>
<path fill="none" stroke="black" d="M63.7287,-73.9302C72.224,-72.305 81.6655,-70.4988 91.052,-68.7031"/>
<polygon fill="black" stroke="black" points="92.0039,-72.0845 101.168,-66.7678 90.6886,-65.2092 92.0039,-72.0845"/>
</g>
<!-- proc~json_throw_exception -->
<g id="node4" class="node"><title>proc~json_throw_exception</title>
<a xlink:href="../proc/json_throw_exception.html" xlink:title="json_throw_exception">
<polygon fill="#d9534f" stroke="#d9534f" points="528,-92 412,-92 412,-66 528,-66 528,-92"/>
<text text-anchor="middle" x="470" y="-76.55" font-family="Helvetica,sans-Serif" font-size="10.50" fill="white">json_throw_exception</text>
</a>
</g>
<!-- interface~throw_exception&#45;&gt;proc~json_throw_exception -->
<g id="edge10" class="edge"><title>interface~throw_exception&#45;&gt;proc~json_throw_exception</title>
<path fill="none" stroke="black" stroke-dasharray="5,2" d="M192.593,-60.9642C247.035,-64.5038 338.618,-70.4582 401.566,-74.5507"/>
<polygon fill="black" stroke="black" points="401.595,-78.0599 411.802,-75.2162 402.05,-71.0747 401.595,-78.0599"/>
</g>
<!-- proc~wrap_json_throw_exception -->
<g id="node5" class="node"><title>proc~wrap_json_throw_exception</title>
<a xlink:href="../proc/wrap_json_throw_exception.html" xlink:title="wrap_json_throw_exception">
<polygon fill="#d9534f" stroke="#d9534f" points="375,-51 231,-51 231,-25 375,-25 375,-51"/>
<text text-anchor="middle" x="303" y="-35.55" font-family="Helvetica,sans-Serif" font-size="10.50" fill="white">wrap_json_throw_exception</text>
</a>
</g>
<!-- interface~throw_exception&#45;&gt;proc~wrap_json_throw_exception -->
<g id="edge12" class="edge"><title>interface~throw_exception&#45;&gt;proc~wrap_json_throw_exception</title>
<path fill="none" stroke="black" stroke-dasharray="5,2" d="M192.541,-52.1614C201.352,-51.0318 210.835,-49.8161 220.41,-48.5884"/>
<polygon fill="black" stroke="black" points="220.925,-52.0512 230.398,-47.3079 220.034,-45.108 220.925,-52.0512"/>
</g>
<!-- proc~wrap_json_throw_exception&#45;&gt;proc~json_throw_exception -->
<g id="edge6" class="edge"><title>proc~wrap_json_throw_exception&#45;&gt;proc~json_throw_exception</title>
<path fill="none" stroke="black" d="M356.299,-51.0854C372.346,-55.0251 390.113,-59.3871 406.741,-63.4693"/>
<polygon fill="black" stroke="black" points="406.375,-66.9833 416.921,-65.9686 408.044,-60.1852 406.375,-66.9833"/>
</g>
<!-- interface~to_unicode -->
<g id="node6" class="node"><title>interface~to_unicode</title>
<a xlink:href="../interface/to_unicode.html" xlink:title="to_unicode">
<polygon fill="#a7506f" stroke="#a7506f" points="502,-48 438,-48 438,-22 502,-22 502,-48"/>
<text text-anchor="middle" x="470" y="-32.55" font-family="Helvetica,sans-Serif" font-size="10.50" fill="white">to_unicode</text>
</a>
</g>
<!-- proc~wrap_json_throw_exception&#45;&gt;interface~to_unicode -->
<g id="edge8" class="edge"><title>proc~wrap_json_throw_exception&#45;&gt;interface~to_unicode</title>
<path fill="none" stroke="black" d="M375.763,-36.6929C393.188,-36.3799 411.248,-36.0554 426.839,-35.7754"/>
<polygon fill="black" stroke="black" points="427.264,-39.2684 437.199,-35.5892 427.138,-32.2695 427.264,-39.2684"/>
</g>
<!-- proc~to_uni_vec -->
<g id="node7" class="node"><title>proc~to_uni_vec</title>
<a xlink:href="../proc/to_uni_vec.html" xlink:title="to_uni_vec">
<polygon fill="#d94e8f" stroke="#d94e8f" points="628,-70 564,-70 564,-44 628,-44 628,-70"/>
<text text-anchor="middle" x="596" y="-54.55" font-family="Helvetica,sans-Serif" font-size="10.50" fill="white">to_uni_vec</text>
</a>
</g>
<!-- interface~to_unicode&#45;&gt;proc~to_uni_vec -->
<g id="edge2" class="edge"><title>interface~to_unicode&#45;&gt;proc~to_uni_vec</title>
<path fill="none" stroke="black" stroke-dasharray="5,2" d="M502.776,-40.7228C518.355,-43.443 537.166,-46.7274 553.798,-49.6314"/>
<polygon fill="black" stroke="black" points="553.371,-53.1097 563.824,-51.382 554.575,-46.214 553.371,-53.1097"/>
</g>
<!-- proc~to_uni -->
<g id="node8" class="node"><title>proc~to_uni</title>
<a xlink:href="../proc/to_uni.html" xlink:title="to_uni">
<polygon fill="#d94e8f" stroke="#d94e8f" points="623,-26 569,-26 569,-1.24345e-14 623,-3.55271e-15 623,-26"/>
<text text-anchor="middle" x="596" y="-10.55" font-family="Helvetica,sans-Serif" font-size="10.50" fill="white">to_uni</text>
</a>
</g>
<!-- interface~to_unicode&#45;&gt;proc~to_uni -->
<g id="edge4" class="edge"><title>interface~to_unicode&#45;&gt;proc~to_uni</title>
<path fill="none" stroke="black" stroke-dasharray="5,2" d="M502.776,-29.2772C519.965,-26.276 541.088,-22.5878 558.878,-19.4816"/>
<polygon fill="black" stroke="black" points="559.664,-22.8974 568.913,-17.7295 558.46,-16.0017 559.664,-22.8974"/>
</g>
</g>
</svg>
