<?xml version="1.0" encoding="UTF-8" standalone="no"?>
<!DOCTYPE svg PUBLIC "-//W3C//DTD SVG 1.1//EN"
 "http://www.w3.org/Graphics/SVG/1.1/DTD/svg11.dtd">
<!-- Generated by graphviz version 2.26.3 (20100126.1600)
 -->
<!-- Title: proc~~wrap_json_value_create_object~~CallsGraph Pages: 1 -->
<svg width="614pt" height="166pt"
 viewBox="0.00 0.00 614.00 166.00" xmlns="http://www.w3.org/2000/svg" xmlns:xlink="http://www.w3.org/1999/xlink">
<g id="graph1" class="graph" transform="scale(1 1) rotate(0) translate(4 162)">
<title>proc~~wrap_json_value_create_object~~CallsGraph</title>
<polygon fill="white" stroke="white" points="-4,5 -4,-162 611,-162 611,5 -4,5"/>
<!-- proc~wrap_json_value_create_object -->
<g id="node1" class="node"><title>proc~wrap_json_value_create_object</title>
<polygon fill="none" stroke="black" points="163,-92 1,-92 1,-66 163,-66 163,-92"/>
<text text-anchor="middle" x="82" y="-76.55" font-family="Helvetica,sans-Serif" font-size="10.50">wrap_json_value_create_object</text>
</g>
<!-- interface~to_unicode -->
<g id="node2" class="node"><title>interface~to_unicode</title>
<a xlink:href="../interface/to_unicode.html" xlink:title="to_unicode">
<polygon fill="#a7506f" stroke="#a7506f" points="299,-114 235,-114 235,-88 299,-88 299,-114"/>
<text text-anchor="middle" x="267" y="-98.55" font-family="Helvetica,sans-Serif" font-size="10.50" fill="white">to_unicode</text>
</a>
</g>
<!-- proc~wrap_json_value_create_object&#45;&gt;interface~to_unicode -->
<g id="edge12" class="edge"><title>proc~wrap_json_value_create_object&#45;&gt;interface~to_unicode</title>
<path fill="none" stroke="black" d="M163.682,-88.7136C184.558,-91.1961 206.179,-93.7673 224.214,-95.9119"/>
<polygon fill="black" stroke="black" points="224.041,-99.416 234.385,-97.1214 224.868,-92.465 224.041,-99.416"/>
</g>
<!-- proc~json_value_create_object -->
<g id="node3" class="node"><title>proc~json_value_create_object</title>
<a xlink:href="../proc/json_value_create_object.html" xlink:title="json_value_create_object">
<polygon fill="#d9534f" stroke="#d9534f" points="334,-70 200,-70 200,-44 334,-44 334,-70"/>
<text text-anchor="middle" x="267" y="-54.55" font-family="Helvetica,sans-Serif" font-size="10.50" fill="white">json_value_create_object</text>
</a>
</g>
<!-- proc~wrap_json_value_create_object&#45;&gt;proc~json_value_create_object -->
<g id="edge14" class="edge"><title>proc~wrap_json_value_create_object&#45;&gt;proc~json_value_create_object</title>
<path fill="none" stroke="black" d="M163.682,-69.2864C172.379,-68.2523 181.204,-67.2027 189.846,-66.175"/>
<polygon fill="black" stroke="black" points="190.371,-69.6374 199.888,-64.9809 189.544,-62.6863 190.371,-69.6374"/>
</g>
<!-- proc~to_uni_vec -->
<g id="node4" class="node"><title>proc~to_uni_vec</title>
<a xlink:href="../proc/to_uni_vec.html" xlink:title="to_uni_vec">
<polygon fill="#d94e8f" stroke="#d94e8f" points="452,-158 388,-158 388,-132 452,-132 452,-158"/>
<text text-anchor="middle" x="420" y="-142.55" font-family="Helvetica,sans-Serif" font-size="10.50" fill="white">to_uni_vec</text>
</a>
</g>
<!-- interface~to_unicode&#45;&gt;proc~to_uni_vec -->
<g id="edge2" class="edge"><title>interface~to_unicode&#45;&gt;proc~to_uni_vec</title>
<path fill="none" stroke="black" stroke-dasharray="5,2" d="M299.822,-110.439C322.665,-117.008 353.323,-125.825 377.955,-132.909"/>
<polygon fill="black" stroke="black" points="377.179,-136.327 387.757,-135.728 379.114,-129.6 377.179,-136.327"/>
</g>
<!-- proc~to_uni -->
<g id="node5" class="node"><title>proc~to_uni</title>
<a xlink:href="../proc/to_uni.html" xlink:title="to_uni">
<polygon fill="#d94e8f" stroke="#d94e8f" points="447,-114 393,-114 393,-88 447,-88 447,-114"/>
<text text-anchor="middle" x="420" y="-98.55" font-family="Helvetica,sans-Serif" font-size="10.50" fill="white">to_uni</text>
</a>
</g>
<!-- interface~to_unicode&#45;&gt;proc~to_uni -->
<g id="edge4" class="edge"><title>interface~to_unicode&#45;&gt;proc~to_uni</title>
<path fill="none" stroke="black" stroke-dasharray="5,2" d="M299.822,-101C324.101,-101 357.205,-101 382.523,-101"/>
<polygon fill="black" stroke="black" points="382.848,-104.5 392.848,-101 382.848,-97.5001 382.848,-104.5"/>
</g>
<!-- proc~json_value_create -->
<g id="node8" class="node"><title>proc~json_value_create</title>
<a xlink:href="../proc/json_value_create.html" xlink:title="json_value_create">
<polygon fill="#d9534f" stroke="#d9534f" points="470,-70 370,-70 370,-44 470,-44 470,-70"/>
<text text-anchor="middle" x="420" y="-54.55" font-family="Helvetica,sans-Serif" font-size="10.50" fill="white">json_value_create</text>
</a>
</g>
<!-- proc~json_value_create_object&#45;&gt;proc~json_value_create -->
<g id="edge8" class="edge"><title>proc~json_value_create_object&#45;&gt;proc~json_value_create</title>
<path fill="none" stroke="black" d="M334.108,-57C342.67,-57 351.392,-57 359.835,-57"/>
<polygon fill="black" stroke="black" points="359.967,-60.5001 369.967,-57 359.967,-53.5001 359.967,-60.5001"/>
</g>
<!-- proc~to_object -->
<g id="node9" class="node"><title>proc~to_object</title>
<a xlink:href="../proc/to_object.html" xlink:title="to_object">
<polygon fill="#d9534f" stroke="#d9534f" points="448,-26 392,-26 392,-1.24345e-14 448,-3.55271e-15 448,-26"/>
<text text-anchor="middle" x="420" y="-10.55" font-family="Helvetica,sans-Serif" font-size="10.50" fill="white">to_object</text>
</a>
</g>
<!-- proc~json_value_create_object&#45;&gt;proc~to_object -->
<g id="edge10" class="edge"><title>proc~json_value_create_object&#45;&gt;proc~to_object</title>
<path fill="none" stroke="black" d="M312.491,-43.9177C334.595,-37.5609 360.857,-30.0085 381.891,-23.9593"/>
<polygon fill="black" stroke="black" points="383.113,-27.2499 391.756,-21.1224 381.179,-20.5226 383.113,-27.2499"/>
</g>
<!-- proc~destroy_json_data -->
<g id="node10" class="node"><title>proc~destroy_json_data</title>
<a xlink:href="../proc/destroy_json_data.html" xlink:title="destroy_json_data">
<polygon fill="#d9534f" stroke="#d9534f" points="606,-26 506,-26 506,-1.24345e-14 606,-3.55271e-15 606,-26"/>
<text text-anchor="middle" x="556" y="-10.55" font-family="Helvetica,sans-Serif" font-size="10.50" fill="white">destroy_json_data</text>
</a>
</g>
<!-- proc~to_object&#45;&gt;proc~destroy_json_data -->
<g id="edge6" class="edge"><title>proc~to_object&#45;&gt;proc~destroy_json_data</title>
<path fill="none" stroke="black" d="M448.179,-13C461.967,-13 479.128,-13 495.675,-13"/>
<polygon fill="black" stroke="black" points="495.863,-16.5001 505.863,-13 495.863,-9.5001 495.863,-16.5001"/>
</g>
</g>
</svg>
