<?xml version="1.0" encoding="UTF-8" standalone="no"?>
<!DOCTYPE svg PUBLIC "-//W3C//DTD SVG 1.1//EN"
 "http://www.w3.org/Graphics/SVG/1.1/DTD/svg11.dtd">
<!-- Generated by graphviz version 2.26.3 (20100126.1600)
 -->
<!-- Title: proc~~json_value_destroy~~CallsGraph Pages: 1 -->
<svg width="250pt" height="52pt"
 viewBox="0.00 0.00 250.00 52.00" xmlns="http://www.w3.org/2000/svg" xmlns:xlink="http://www.w3.org/1999/xlink">
<g id="graph1" class="graph" transform="scale(1 1) rotate(0) translate(4 48)">
<title>proc~~json_value_destroy~~CallsGraph</title>
<polygon fill="white" stroke="white" points="-4,5 -4,-48 247,-48 247,5 -4,5"/>
<!-- proc~json_value_destroy -->
<g id="node1" class="node"><title>proc~json_value_destroy</title>
<polygon fill="none" stroke="black" points="105,-26 1,-26 1,-1.24345e-14 105,-3.55271e-15 105,-26"/>
<text text-anchor="middle" x="53" y="-10.55" font-family="Helvetica,sans-Serif" font-size="10.50">json_value_destroy</text>
</g>
<!-- proc~json_value_destroy&#45;&gt;proc~json_value_destroy -->
<g id="edge4" class="edge"><title>proc~json_value_destroy&#45;&gt;proc~json_value_destroy</title>
<path fill="none" stroke="black" d="M29.6519,-26.0602C22.5767,-35.0996 30.3594,-44 53,-44 66.7966,-44 75.076,-40.6949 77.838,-36.0674"/>
<polygon fill="black" stroke="black" points="81.2826,-35.4357 76.3481,-26.0602 74.3589,-36.4666 81.2826,-35.4357"/>
</g>
<!-- proc~destroy_json_data -->
<g id="node2" class="node"><title>proc~destroy_json_data</title>
<a xlink:href="../proc/destroy_json_data.html" xlink:title="destroy_json_data">
<polygon fill="#d9534f" stroke="#d9534f" points="242,-26 142,-26 142,-1.24345e-14 242,-3.55271e-15 242,-26"/>
<text text-anchor="middle" x="192" y="-10.55" font-family="Helvetica,sans-Serif" font-size="10.50" fill="white">destroy_json_data</text>
</a>
</g>
<!-- proc~json_value_destroy&#45;&gt;proc~destroy_json_data -->
<g id="edge2" class="edge"><title>proc~json_value_destroy&#45;&gt;proc~destroy_json_data</title>
<path fill="none" stroke="black" d="M105.55,-13C114.06,-13 122.93,-13 131.608,-13"/>
<polygon fill="black" stroke="black" points="131.674,-16.5001 141.673,-13 131.673,-9.5001 131.674,-16.5001"/>
</g>
</g>
</svg>
