<?xml version="1.0" encoding="UTF-8" standalone="no"?>
<!DOCTYPE svg PUBLIC "-//W3C//DTD SVG 1.1//EN"
 "http://www.w3.org/Graphics/SVG/1.1/DTD/svg11.dtd">
<!-- Generated by graphviz version 2.26.3 (20100126.1600)
 -->
<!-- Title: proc~~json_file_move_pointer~~CallsGraph Pages: 1 -->
<svg width="641pt" height="92pt"
 viewBox="0.00 0.00 641.00 92.36" xmlns="http://www.w3.org/2000/svg" xmlns:xlink="http://www.w3.org/1999/xlink">
<g id="graph1" class="graph" transform="scale(0.923631 0.923631) rotate(0) translate(4 96)">
<title>proc~~json_file_move_pointer~~CallsGraph</title>
<polygon fill="white" stroke="white" points="-4,5 -4,-96 691,-96 691,5 -4,5"/>
<!-- proc~json_file_move_pointer -->
<g id="node1" class="node"><title>proc~json_file_move_pointer</title>
<polygon fill="none" stroke="black" points="123,-71 1,-71 1,-45 123,-45 123,-71"/>
<text text-anchor="middle" x="62" y="-55.55" font-family="Helvetica,sans-Serif" font-size="10.50">json_file_move_pointer</text>
</g>
<!-- interface~throw_exception -->
<g id="node2" class="node"><title>interface~throw_exception</title>
<a xlink:href="../interface/throw_exception.html" xlink:title="throw_exception">
<polygon fill="#a7506f" stroke="#a7506f" points="251,-71 161,-71 161,-45 251,-45 251,-71"/>
<text text-anchor="middle" x="206" y="-55.55" font-family="Helvetica,sans-Serif" font-size="10.50" fill="white">throw_exception</text>
</a>
</g>
<!-- proc~json_file_move_pointer&#45;&gt;interface~throw_exception -->
<g id="edge14" class="edge"><title>proc~json_file_move_pointer&#45;&gt;interface~throw_exception</title>
<path fill="none" stroke="black" d="M123.905,-58C132.576,-58 141.446,-58 149.999,-58"/>
<polygon fill="black" stroke="black" points="150.24,-61.5001 160.24,-58 150.24,-54.5001 150.24,-61.5001"/>
</g>
<!-- proc~json_throw_exception -->
<g id="node3" class="node"><title>proc~json_throw_exception</title>
<a xlink:href="../proc/json_throw_exception.html" xlink:title="json_throw_exception">
<polygon fill="#d9534f" stroke="#d9534f" points="586,-92 470,-92 470,-66 586,-66 586,-92"/>
<text text-anchor="middle" x="528" y="-76.55" font-family="Helvetica,sans-Serif" font-size="10.50" fill="white">json_throw_exception</text>
</a>
</g>
<!-- interface~throw_exception&#45;&gt;proc~json_throw_exception -->
<g id="edge10" class="edge"><title>interface~throw_exception&#45;&gt;proc~json_throw_exception</title>
<path fill="none" stroke="black" stroke-dasharray="5,2" d="M251.793,-60.9865C306.069,-64.5262 397.029,-70.4584 459.647,-74.5422"/>
<polygon fill="black" stroke="black" points="459.623,-78.048 469.83,-75.2063 460.079,-71.0628 459.623,-78.048"/>
</g>
<!-- proc~wrap_json_throw_exception -->
<g id="node4" class="node"><title>proc~wrap_json_throw_exception</title>
<a xlink:href="../proc/wrap_json_throw_exception.html" xlink:title="wrap_json_throw_exception">
<polygon fill="#d9534f" stroke="#d9534f" points="433,-51 289,-51 289,-25 433,-25 433,-51"/>
<text text-anchor="middle" x="361" y="-35.55" font-family="Helvetica,sans-Serif" font-size="10.50" fill="white">wrap_json_throw_exception</text>
</a>
</g>
<!-- interface~throw_exception&#45;&gt;proc~wrap_json_throw_exception -->
<g id="edge12" class="edge"><title>interface~throw_exception&#45;&gt;proc~wrap_json_throw_exception</title>
<path fill="none" stroke="black" stroke-dasharray="5,2" d="M251.667,-52.1075C260.126,-51.0159 269.199,-49.8453 278.367,-48.6623"/>
<polygon fill="black" stroke="black" points="278.859,-52.1279 288.329,-47.3769 277.963,-45.1855 278.859,-52.1279"/>
</g>
<!-- proc~wrap_json_throw_exception&#45;&gt;proc~json_throw_exception -->
<g id="edge6" class="edge"><title>proc~wrap_json_throw_exception&#45;&gt;proc~json_throw_exception</title>
<path fill="none" stroke="black" d="M414.299,-51.0854C430.346,-55.0251 448.113,-59.3871 464.741,-63.4693"/>
<polygon fill="black" stroke="black" points="464.375,-66.9833 474.921,-65.9686 466.044,-60.1852 464.375,-66.9833"/>
</g>
<!-- interface~to_unicode -->
<g id="node5" class="node"><title>interface~to_unicode</title>
<a xlink:href="../interface/to_unicode.html" xlink:title="to_unicode">
<polygon fill="#a7506f" stroke="#a7506f" points="560,-48 496,-48 496,-22 560,-22 560,-48"/>
<text text-anchor="middle" x="528" y="-32.55" font-family="Helvetica,sans-Serif" font-size="10.50" fill="white">to_unicode</text>
</a>
</g>
<!-- proc~wrap_json_throw_exception&#45;&gt;interface~to_unicode -->
<g id="edge8" class="edge"><title>proc~wrap_json_throw_exception&#45;&gt;interface~to_unicode</title>
<path fill="none" stroke="black" d="M433.763,-36.6929C451.188,-36.3799 469.248,-36.0554 484.839,-35.7754"/>
<polygon fill="black" stroke="black" points="485.264,-39.2684 495.199,-35.5892 485.138,-32.2695 485.264,-39.2684"/>
</g>
<!-- proc~to_uni_vec -->
<g id="node6" class="node"><title>proc~to_uni_vec</title>
<a xlink:href="../proc/to_uni_vec.html" xlink:title="to_uni_vec">
<polygon fill="#d94e8f" stroke="#d94e8f" points="686,-70 622,-70 622,-44 686,-44 686,-70"/>
<text text-anchor="middle" x="654" y="-54.55" font-family="Helvetica,sans-Serif" font-size="10.50" fill="white">to_uni_vec</text>
</a>
</g>
<!-- interface~to_unicode&#45;&gt;proc~to_uni_vec -->
<g id="edge2" class="edge"><title>interface~to_unicode&#45;&gt;proc~to_uni_vec</title>
<path fill="none" stroke="black" stroke-dasharray="5,2" d="M560.776,-40.7228C576.355,-43.443 595.166,-46.7274 611.798,-49.6314"/>
<polygon fill="black" stroke="black" points="611.371,-53.1097 621.824,-51.382 612.575,-46.214 611.371,-53.1097"/>
</g>
<!-- proc~to_uni -->
<g id="node7" class="node"><title>proc~to_uni</title>
<a xlink:href="../proc/to_uni.html" xlink:title="to_uni">
<polygon fill="#d94e8f" stroke="#d94e8f" points="681,-26 627,-26 627,-1.24345e-14 681,-3.55271e-15 681,-26"/>
<text text-anchor="middle" x="654" y="-10.55" font-family="Helvetica,sans-Serif" font-size="10.50" fill="white">to_uni</text>
</a>
</g>
<!-- interface~to_unicode&#45;&gt;proc~to_uni -->
<g id="edge4" class="edge"><title>interface~to_unicode&#45;&gt;proc~to_uni</title>
<path fill="none" stroke="black" stroke-dasharray="5,2" d="M560.776,-29.2772C577.965,-26.276 599.088,-22.5878 616.878,-19.4816"/>
<polygon fill="black" stroke="black" points="617.664,-22.8974 626.913,-17.7295 616.46,-16.0017 617.664,-22.8974"/>
</g>
</g>
</svg>
