<?xml version="1.0" encoding="UTF-8" standalone="no"?>
<!DOCTYPE svg PUBLIC "-//W3C//DTD SVG 1.1//EN"
 "http://www.w3.org/Graphics/SVG/1.1/DTD/svg11.dtd">
<!-- Generated by graphviz version 2.26.3 (20100126.1600)
 -->
<!-- Title: proc~~json_value_create_array~~CallsGraph Pages: 1 -->
<svg width="410pt" height="78pt"
 viewBox="0.00 0.00 410.00 78.00" xmlns="http://www.w3.org/2000/svg" xmlns:xlink="http://www.w3.org/1999/xlink">
<g id="graph1" class="graph" transform="scale(1 1) rotate(0) translate(4 74)">
<title>proc~~json_value_create_array~~CallsGraph</title>
<polygon fill="white" stroke="white" points="-4,5 -4,-74 407,-74 407,5 -4,5"/>
<!-- proc~json_value_create_array -->
<g id="node1" class="node"><title>proc~json_value_create_array</title>
<polygon fill="none" stroke="black" points="130,-48 5.68434e-14,-48 0,-22 130,-22 130,-48"/>
<text text-anchor="middle" x="65" y="-32.55" font-family="Helvetica,sans-Serif" font-size="10.50">json_value_create_array</text>
</g>
<!-- proc~json_value_create -->
<g id="node2" class="node"><title>proc~json_value_create</title>
<a xlink:href="../proc/json_value_create.html" xlink:title="json_value_create">
<polygon fill="#d9534f" stroke="#d9534f" points="266,-70 166,-70 166,-44 266,-44 266,-70"/>
<text text-anchor="middle" x="216" y="-54.55" font-family="Helvetica,sans-Serif" font-size="10.50" fill="white">json_value_create</text>
</a>
</g>
<!-- proc~json_value_create_array&#45;&gt;proc~json_value_create -->
<g id="edge4" class="edge"><title>proc~json_value_create_array&#45;&gt;proc~json_value_create</title>
<path fill="none" stroke="black" d="M130.353,-44.5216C138.739,-45.7435 147.296,-46.9901 155.599,-48.1998"/>
<polygon fill="black" stroke="black" points="155.171,-51.6744 165.572,-49.6528 156.181,-44.7476 155.171,-51.6744"/>
</g>
<!-- proc~to_array -->
<g id="node3" class="node"><title>proc~to_array</title>
<a xlink:href="../proc/to_array.html" xlink:title="to_array">
<polygon fill="#d9534f" stroke="#d9534f" points="243,-26 189,-26 189,-1.24345e-14 243,-3.55271e-15 243,-26"/>
<text text-anchor="middle" x="216" y="-10.55" font-family="Helvetica,sans-Serif" font-size="10.50" fill="white">to_array</text>
</a>
</g>
<!-- proc~json_value_create_array&#45;&gt;proc~to_array -->
<g id="edge6" class="edge"><title>proc~json_value_create_array&#45;&gt;proc~to_array</title>
<path fill="none" stroke="black" d="M130.353,-25.4784C146.9,-23.0675 164.11,-20.5601 178.725,-18.4308"/>
<polygon fill="black" stroke="black" points="179.47,-21.8592 188.861,-16.954 178.461,-14.9324 179.47,-21.8592"/>
</g>
<!-- proc~destroy_json_data -->
<g id="node4" class="node"><title>proc~destroy_json_data</title>
<a xlink:href="../proc/destroy_json_data.html" xlink:title="destroy_json_data">
<polygon fill="#d9534f" stroke="#d9534f" points="402,-26 302,-26 302,-1.24345e-14 402,-3.55271e-15 402,-26"/>
<text text-anchor="middle" x="352" y="-10.55" font-family="Helvetica,sans-Serif" font-size="10.50" fill="white">destroy_json_data</text>
</a>
</g>
<!-- proc~to_array&#45;&gt;proc~destroy_json_data -->
<g id="edge2" class="edge"><title>proc~to_array&#45;&gt;proc~destroy_json_data</title>
<path fill="none" stroke="black" d="M243.195,-13C257.06,-13 274.518,-13 291.366,-13"/>
<polygon fill="black" stroke="black" points="291.739,-16.5001 301.739,-13 291.739,-9.5001 291.739,-16.5001"/>
</g>
</g>
</svg>
