<?xml version="1.0" encoding="UTF-8" standalone="no"?>
<!DOCTYPE svg PUBLIC "-//W3C//DTD SVG 1.1//EN"
 "http://www.w3.org/Graphics/SVG/1.1/DTD/svg11.dtd">
<!-- Generated by graphviz version 2.26.3 (20100126.1600)
 -->
<!-- Title: proc~~json_file_variable_info~~CallsGraph Pages: 1 -->
<svg width="318pt" height="34pt"
 viewBox="0.00 0.00 318.00 34.00" xmlns="http://www.w3.org/2000/svg" xmlns:xlink="http://www.w3.org/1999/xlink">
<g id="graph1" class="graph" transform="scale(1 1) rotate(0) translate(4 30)">
<title>proc~~json_file_variable_info~~CallsGraph</title>
<polygon fill="white" stroke="white" points="-4,5 -4,-30 315,-30 315,5 -4,5"/>
<!-- proc~json_file_variable_info -->
<g id="node1" class="node"><title>proc~json_file_variable_info</title>
<polygon fill="none" stroke="black" points="118,-26 4.26326e-14,-26 0,-1.24345e-14 118,-3.55271e-15 118,-26"/>
<text text-anchor="middle" x="59" y="-10.55" font-family="Helvetica,sans-Serif" font-size="10.50">json_file_variable_info</text>
</g>
<!-- proc~json_info -->
<g id="node2" class="node"><title>proc~json_info</title>
<a xlink:href="../proc/json_info.html" xlink:title="json_info">
<polygon fill="#d9534f" stroke="#d9534f" points="209,-26 155,-26 155,-1.24345e-14 209,-3.55271e-15 209,-26"/>
<text text-anchor="middle" x="182" y="-10.55" font-family="Helvetica,sans-Serif" font-size="10.50" fill="white">json_info</text>
</a>
</g>
<!-- proc~json_file_variable_info&#45;&gt;proc~json_info -->
<g id="edge4" class="edge"><title>proc~json_file_variable_info&#45;&gt;proc~json_info</title>
<path fill="none" stroke="black" d="M118.338,-13C127.052,-13 135.824,-13 143.953,-13"/>
<polygon fill="black" stroke="black" points="144.209,-16.5001 154.209,-13 144.209,-9.5001 144.209,-16.5001"/>
</g>
<!-- proc~json_count -->
<g id="node3" class="node"><title>proc~json_count</title>
<a xlink:href="../proc/json_count.html" xlink:title="json_count">
<polygon fill="#d94e8f" stroke="#d94e8f" points="310,-26 246,-26 246,-1.24345e-14 310,-3.55271e-15 310,-26"/>
<text text-anchor="middle" x="278" y="-10.55" font-family="Helvetica,sans-Serif" font-size="10.50" fill="white">json_count</text>
</a>
</g>
<!-- proc~json_info&#45;&gt;proc~json_count -->
<g id="edge2" class="edge"><title>proc~json_info&#45;&gt;proc~json_count</title>
<path fill="none" stroke="black" d="M209.51,-13C217.634,-13 226.722,-13 235.555,-13"/>
<polygon fill="black" stroke="black" points="235.735,-16.5001 245.735,-13 235.735,-9.5001 235.735,-16.5001"/>
</g>
</g>
</svg>
