<?xml version="1.0" encoding="UTF-8" standalone="no"?>
<!DOCTYPE svg PUBLIC "-//W3C//DTD SVG 1.1//EN"
 "http://www.w3.org/Graphics/SVG/1.1/DTD/svg11.dtd">
<!-- Generated by graphviz version 2.26.3 (20100126.1600)
 -->
<!-- Title: proc~~json_value_print~~CallsGraph Pages: 1 -->
<svg width="641pt" height="205pt"
 viewBox="0.00 0.00 641.00 204.66" xmlns="http://www.w3.org/2000/svg" xmlns:xlink="http://www.w3.org/1999/xlink">
<g id="graph1" class="graph" transform="scale(0.965361 0.965361) rotate(0) translate(4 208)">
<title>proc~~json_value_print~~CallsGraph</title>
<polygon fill="white" stroke="white" points="-4,5 -4,-208 661,-208 661,5 -4,5"/>
<!-- proc~json_value_print -->
<g id="node1" class="node"><title>proc~json_value_print</title>
<polygon fill="none" stroke="black" points="91,-116 1,-116 1,-90 91,-90 91,-116"/>
<text text-anchor="middle" x="46" y="-100.55" font-family="Helvetica,sans-Serif" font-size="10.50">json_value_print</text>
</g>
<!-- proc~json_value_print&#45;&gt;proc~json_value_print -->
<g id="edge26" class="edge"><title>proc~json_value_print&#45;&gt;proc~json_value_print</title>
<path fill="none" stroke="black" d="M24.3438,-116.06C17.7812,-125.1 25,-134 46,-134 58.7969,-134 66.4762,-130.695 69.0381,-126.067"/>
<polygon fill="black" stroke="black" points="72.4913,-125.487 67.6562,-116.06 65.5571,-126.445 72.4913,-125.487"/>
</g>
<!-- none~write_it -->
<g id="node2" class="node"><title>none~write_it</title>
<polygon fill="#d9534f" stroke="#d9534f" points="202,-204 148,-204 148,-178 202,-178 202,-204"/>
<text text-anchor="middle" x="175" y="-188.55" font-family="Helvetica,sans-Serif" font-size="10.50" fill="white">write_it</text>
</g>
<!-- proc~json_value_print&#45;&gt;none~write_it -->
<g id="edge16" class="edge"><title>proc~json_value_print&#45;&gt;none~write_it</title>
<path fill="none" stroke="black" d="M60.0198,-116.04C75.7474,-130.236 102.417,-153.041 128,-169 131.344,-171.086 134.918,-173.102 138.546,-175.01"/>
<polygon fill="black" stroke="black" points="137.061,-178.181 147.572,-179.512 140.185,-171.917 137.061,-178.181"/>
</g>
<!-- proc~real_to_string -->
<g id="node3" class="node"><title>proc~real_to_string</title>
<a xlink:href="../proc/real_to_string.html" xlink:title="real_to_string">
<polygon fill="#d9534f" stroke="#d9534f" points="214,-160 136,-160 136,-134 214,-134 214,-160"/>
<text text-anchor="middle" x="175" y="-144.55" font-family="Helvetica,sans-Serif" font-size="10.50" fill="white">real_to_string</text>
</a>
</g>
<!-- proc~json_value_print&#45;&gt;proc~real_to_string -->
<g id="edge18" class="edge"><title>proc~json_value_print&#45;&gt;proc~real_to_string</title>
<path fill="none" stroke="black" d="M84.355,-116.082C97.7512,-120.652 112.959,-125.839 127.039,-130.641"/>
<polygon fill="black" stroke="black" points="125.976,-133.976 136.57,-133.892 128.235,-127.351 125.976,-133.976"/>
</g>
<!-- proc~json_count -->
<g id="node4" class="node"><title>proc~json_count</title>
<a xlink:href="../proc/json_count.html" xlink:title="json_count">
<polygon fill="#d94e8f" stroke="#d94e8f" points="207,-116 143,-116 143,-90 207,-90 207,-116"/>
<text text-anchor="middle" x="175" y="-100.55" font-family="Helvetica,sans-Serif" font-size="10.50" fill="white">json_count</text>
</a>
</g>
<!-- proc~json_value_print&#45;&gt;proc~json_count -->
<g id="edge20" class="edge"><title>proc~json_value_print&#45;&gt;proc~json_count</title>
<path fill="none" stroke="black" d="M91.8438,-103C105.101,-103 119.509,-103 132.549,-103"/>
<polygon fill="black" stroke="black" points="132.666,-106.5 142.666,-103 132.666,-99.5001 132.666,-106.5"/>
</g>
<!-- interface~throw_exception -->
<g id="node5" class="node"><title>interface~throw_exception</title>
<a xlink:href="../interface/throw_exception.html" xlink:title="throw_exception">
<polygon fill="#a7506f" stroke="#a7506f" points="220,-72 130,-72 130,-46 220,-46 220,-72"/>
<text text-anchor="middle" x="175" y="-56.55" font-family="Helvetica,sans-Serif" font-size="10.50" fill="white">throw_exception</text>
</a>
</g>
<!-- proc~json_value_print&#45;&gt;interface~throw_exception -->
<g id="edge22" class="edge"><title>proc~json_value_print&#45;&gt;interface~throw_exception</title>
<path fill="none" stroke="black" d="M84.355,-89.9177C97.7512,-85.3484 112.959,-80.1614 127.039,-75.3589"/>
<polygon fill="black" stroke="black" points="128.235,-78.6488 136.57,-72.1079 125.976,-72.0236 128.235,-78.6488"/>
</g>
<!-- proc~integer_to_string -->
<g id="node6" class="node"><title>proc~integer_to_string</title>
<a xlink:href="../proc/integer_to_string.html" xlink:title="integer_to_string">
<polygon fill="#d9534f" stroke="#d9534f" points="221,-28 129,-28 129,-2 221,-2 221,-28"/>
<text text-anchor="middle" x="175" y="-12.55" font-family="Helvetica,sans-Serif" font-size="10.50" fill="white">integer_to_string</text>
</a>
</g>
<!-- proc~json_value_print&#45;&gt;proc~integer_to_string -->
<g id="edge24" class="edge"><title>proc~json_value_print&#45;&gt;proc~integer_to_string</title>
<path fill="none" stroke="black" d="M60.0198,-89.9598C75.7474,-75.7639 102.417,-52.9594 128,-37 130.286,-35.5739 132.679,-34.1808 135.124,-32.8324"/>
<polygon fill="black" stroke="black" points="136.84,-35.8848 144.098,-28.1663 133.611,-29.6741 136.84,-35.8848"/>
</g>
<!-- proc~compact_real_string -->
<g id="node7" class="node"><title>proc~compact_real_string</title>
<a xlink:href="../proc/compact_real_string.html" xlink:title="compact_real_string">
<polygon fill="#d9534f" stroke="#d9534f" points="385,-160 277,-160 277,-134 385,-134 385,-160"/>
<text text-anchor="middle" x="331" y="-144.55" font-family="Helvetica,sans-Serif" font-size="10.50" fill="white">compact_real_string</text>
</a>
</g>
<!-- proc~real_to_string&#45;&gt;proc~compact_real_string -->
<g id="edge2" class="edge"><title>proc~real_to_string&#45;&gt;proc~compact_real_string</title>
<path fill="none" stroke="black" d="M214.365,-147C230.06,-147 248.545,-147 266.117,-147"/>
<polygon fill="black" stroke="black" points="266.329,-150.5 276.329,-147 266.329,-143.5 266.329,-150.5"/>
</g>
<!-- proc~json_throw_exception -->
<g id="node9" class="node"><title>proc~json_throw_exception</title>
<a xlink:href="../proc/json_throw_exception.html" xlink:title="json_throw_exception">
<polygon fill="#d9534f" stroke="#d9534f" points="556,-92 440,-92 440,-66 556,-66 556,-92"/>
<text text-anchor="middle" x="498" y="-76.55" font-family="Helvetica,sans-Serif" font-size="10.50" fill="white">json_throw_exception</text>
</a>
</g>
<!-- interface~throw_exception&#45;&gt;proc~json_throw_exception -->
<g id="edge12" class="edge"><title>interface~throw_exception&#45;&gt;proc~json_throw_exception</title>
<path fill="none" stroke="black" stroke-dasharray="5,2" d="M220.593,-61.8231C275.035,-65.1941 366.618,-70.8649 429.566,-74.7626"/>
<polygon fill="black" stroke="black" points="429.604,-78.2716 439.802,-75.3964 430.037,-71.285 429.604,-78.2716"/>
</g>
<!-- proc~wrap_json_throw_exception -->
<g id="node10" class="node"><title>proc~wrap_json_throw_exception</title>
<a xlink:href="../proc/wrap_json_throw_exception.html" xlink:title="wrap_json_throw_exception">
<polygon fill="#d9534f" stroke="#d9534f" points="403,-51 259,-51 259,-25 403,-25 403,-51"/>
<text text-anchor="middle" x="331" y="-35.55" font-family="Helvetica,sans-Serif" font-size="10.50" fill="white">wrap_json_throw_exception</text>
</a>
</g>
<!-- interface~throw_exception&#45;&gt;proc~wrap_json_throw_exception -->
<g id="edge14" class="edge"><title>interface~throw_exception&#45;&gt;proc~wrap_json_throw_exception</title>
<path fill="none" stroke="black" stroke-dasharray="5,2" d="M220.541,-52.8695C229.352,-51.6834 238.835,-50.4069 248.41,-49.1178"/>
<polygon fill="black" stroke="black" points="248.955,-52.5762 258.398,-47.7733 248.021,-45.6388 248.955,-52.5762"/>
</g>
<!-- proc~wrap_json_throw_exception&#45;&gt;proc~json_throw_exception -->
<g id="edge8" class="edge"><title>proc~wrap_json_throw_exception&#45;&gt;proc~json_throw_exception</title>
<path fill="none" stroke="black" d="M384.299,-51.0854C400.346,-55.0251 418.113,-59.3871 434.741,-63.4693"/>
<polygon fill="black" stroke="black" points="434.375,-66.9833 444.921,-65.9686 436.044,-60.1852 434.375,-66.9833"/>
</g>
<!-- interface~to_unicode -->
<g id="node11" class="node"><title>interface~to_unicode</title>
<a xlink:href="../interface/to_unicode.html" xlink:title="to_unicode">
<polygon fill="#a7506f" stroke="#a7506f" points="530,-48 466,-48 466,-22 530,-22 530,-48"/>
<text text-anchor="middle" x="498" y="-32.55" font-family="Helvetica,sans-Serif" font-size="10.50" fill="white">to_unicode</text>
</a>
</g>
<!-- proc~wrap_json_throw_exception&#45;&gt;interface~to_unicode -->
<g id="edge10" class="edge"><title>proc~wrap_json_throw_exception&#45;&gt;interface~to_unicode</title>
<path fill="none" stroke="black" d="M403.763,-36.6929C421.188,-36.3799 439.248,-36.0554 454.839,-35.7754"/>
<polygon fill="black" stroke="black" points="455.264,-39.2684 465.199,-35.5892 455.138,-32.2695 455.264,-39.2684"/>
</g>
<!-- proc~to_uni_vec -->
<g id="node12" class="node"><title>proc~to_uni_vec</title>
<a xlink:href="../proc/to_uni_vec.html" xlink:title="to_uni_vec">
<polygon fill="#d94e8f" stroke="#d94e8f" points="656,-70 592,-70 592,-44 656,-44 656,-70"/>
<text text-anchor="middle" x="624" y="-54.55" font-family="Helvetica,sans-Serif" font-size="10.50" fill="white">to_uni_vec</text>
</a>
</g>
<!-- interface~to_unicode&#45;&gt;proc~to_uni_vec -->
<g id="edge4" class="edge"><title>interface~to_unicode&#45;&gt;proc~to_uni_vec</title>
<path fill="none" stroke="black" stroke-dasharray="5,2" d="M530.776,-40.7228C546.355,-43.443 565.166,-46.7274 581.798,-49.6314"/>
<polygon fill="black" stroke="black" points="581.371,-53.1097 591.824,-51.382 582.575,-46.214 581.371,-53.1097"/>
</g>
<!-- proc~to_uni -->
<g id="node13" class="node"><title>proc~to_uni</title>
<a xlink:href="../proc/to_uni.html" xlink:title="to_uni">
<polygon fill="#d94e8f" stroke="#d94e8f" points="651,-26 597,-26 597,-1.24345e-14 651,-3.55271e-15 651,-26"/>
<text text-anchor="middle" x="624" y="-10.55" font-family="Helvetica,sans-Serif" font-size="10.50" fill="white">to_uni</text>
</a>
</g>
<!-- interface~to_unicode&#45;&gt;proc~to_uni -->
<g id="edge6" class="edge"><title>interface~to_unicode&#45;&gt;proc~to_uni</title>
<path fill="none" stroke="black" stroke-dasharray="5,2" d="M530.776,-29.2772C547.965,-26.276 569.088,-22.5878 586.878,-19.4816"/>
<polygon fill="black" stroke="black" points="587.664,-22.8974 596.913,-17.7295 586.46,-16.0017 587.664,-22.8974"/>
</g>
</g>
</svg>
