<?xml version="1.0" encoding="UTF-8" standalone="no"?>
<!DOCTYPE svg PUBLIC "-//W3C//DTD SVG 1.1//EN"
 "http://www.w3.org/Graphics/SVG/1.1/DTD/svg11.dtd">
<!-- Generated by graphviz version 2.26.3 (20100126.1600)
 -->
<!-- Title: proc~~get_current_line_from_file_sequential~~CalledByGraph Pages: 1 -->
<svg width="641pt" height="94pt"
 viewBox="0.00 0.00 641.00 94.16" xmlns="http://www.w3.org/2000/svg" xmlns:xlink="http://www.w3.org/1999/xlink">
<g id="graph1" class="graph" transform="scale(0.567257 0.567257) rotate(0) translate(4 162)">
<title>proc~~get_current_line_from_file_sequential~~CalledByGraph</title>
<polygon fill="white" stroke="white" points="-4,5 -4,-162 1127,-162 1127,5 -4,5"/>
<!-- proc~get_current_line_from_file_sequential -->
<g id="node1" class="node"><title>proc~get_current_line_from_file_sequential</title>
<polygon fill="none" stroke="black" points="1122,-108 930,-108 930,-82 1122,-82 1122,-108"/>
<text text-anchor="middle" x="1026" y="-92.55" font-family="Helvetica,sans-Serif" font-size="10.50">get_current_line_from_file_sequential</text>
</g>
<!-- proc~annotate_invalid_json -->
<g id="node2" class="node"><title>proc~annotate_invalid_json</title>
<a xlink:href="../proc/annotate_invalid_json.html" xlink:title="annotate_invalid_json">
<polygon fill="#d9534f" stroke="#d9534f" points="894,-108 778,-108 778,-82 894,-82 894,-108"/>
<text text-anchor="middle" x="836" y="-92.55" font-family="Helvetica,sans-Serif" font-size="10.50" fill="white">annotate_invalid_json</text>
</a>
</g>
<!-- proc~annotate_invalid_json&#45;&gt;proc~get_current_line_from_file_sequential -->
<g id="edge28" class="edge"><title>proc~annotate_invalid_json&#45;&gt;proc~get_current_line_from_file_sequential</title>
<path fill="none" stroke="black" d="M894.039,-95C902.196,-95 910.785,-95 919.504,-95"/>
<polygon fill="black" stroke="black" points="919.782,-98.5001 929.782,-95 919.782,-91.5001 919.782,-98.5001"/>
</g>
<!-- proc~json_parse_file -->
<g id="node3" class="node"><title>proc~json_parse_file</title>
<a xlink:href="../proc/json_parse_file.html" xlink:title="json_parse_file">
<polygon fill="#d9534f" stroke="#d9534f" points="735,-130 651,-130 651,-104 735,-104 735,-130"/>
<text text-anchor="middle" x="693" y="-114.55" font-family="Helvetica,sans-Serif" font-size="10.50" fill="white">json_parse_file</text>
</a>
</g>
<!-- proc~json_parse_file&#45;&gt;proc~annotate_invalid_json -->
<g id="edge24" class="edge"><title>proc~json_parse_file&#45;&gt;proc~annotate_invalid_json</title>
<path fill="none" stroke="black" d="M735.518,-110.459C745.666,-108.898 756.752,-107.192 767.736,-105.502"/>
<polygon fill="black" stroke="black" points="768.413,-108.939 777.765,-103.959 767.349,-102.021 768.413,-108.939"/>
</g>
<!-- proc~json_parse_string -->
<g id="node4" class="node"><title>proc~json_parse_string</title>
<a xlink:href="../proc/json_parse_string.html" xlink:title="json_parse_string">
<polygon fill="#d9534f" stroke="#d9534f" points="741,-86 645,-86 645,-60 741,-60 741,-86"/>
<text text-anchor="middle" x="693" y="-70.55" font-family="Helvetica,sans-Serif" font-size="10.50" fill="white">json_parse_string</text>
</a>
</g>
<!-- proc~json_parse_string&#45;&gt;proc~annotate_invalid_json -->
<g id="edge26" class="edge"><title>proc~json_parse_string&#45;&gt;proc~annotate_invalid_json</title>
<path fill="none" stroke="black" d="M741.813,-80.5096C750.129,-81.789 758.901,-83.1387 767.613,-84.4789"/>
<polygon fill="black" stroke="black" points="767.363,-87.9816 777.779,-86.043 768.428,-81.063 767.363,-87.9816"/>
</g>
<!-- interface~json_parse -->
<g id="node5" class="node"><title>interface~json_parse</title>
<a xlink:href="../interface/json_parse.html" xlink:title="json_parse">
<polygon fill="#a7506f" stroke="#a7506f" points="443,-92 379,-92 379,-66 443,-66 443,-92"/>
<text text-anchor="middle" x="411" y="-76.55" font-family="Helvetica,sans-Serif" font-size="10.50" fill="white">json_parse</text>
</a>
</g>
<!-- interface~json_parse&#45;&gt;proc~json_parse_file -->
<g id="edge16" class="edge"><title>interface~json_parse&#45;&gt;proc~json_parse_file</title>
<path fill="none" stroke="black" stroke-dasharray="5,2" d="M443.61,-84.4183C455.099,-86.269 468.112,-88.2994 480,-90 534.486,-97.7945 596.983,-105.58 640.121,-110.774"/>
<polygon fill="black" stroke="black" points="639.763,-114.256 650.108,-111.972 640.596,-107.306 639.763,-114.256"/>
</g>
<!-- interface~json_parse&#45;&gt;proc~json_parse_string -->
<g id="edge22" class="edge"><title>interface~json_parse&#45;&gt;proc~json_parse_string</title>
<path fill="none" stroke="black" stroke-dasharray="5,2" d="M443.624,-78.3059C490.195,-77.315 576.484,-75.4791 634.326,-74.2484"/>
<polygon fill="black" stroke="black" points="634.499,-77.7456 644.422,-74.0336 634.35,-70.7472 634.499,-77.7456"/>
</g>
<!-- proc~wrap_json_parse_string -->
<g id="node21" class="node"><title>proc~wrap_json_parse_string</title>
<a xlink:href="../proc/wrap_json_parse_string.html" xlink:title="wrap_json_parse_string">
<polygon fill="#d9534f" stroke="#d9534f" points="607,-51 481,-51 481,-25 607,-25 607,-51"/>
<text text-anchor="middle" x="544" y="-35.55" font-family="Helvetica,sans-Serif" font-size="10.50" fill="white">wrap_json_parse_string</text>
</a>
</g>
<!-- interface~json_parse&#45;&gt;proc~wrap_json_parse_string -->
<g id="edge18" class="edge"><title>interface~json_parse&#45;&gt;proc~wrap_json_parse_string</title>
<path fill="none" stroke="black" stroke-dasharray="5,2" d="M443.535,-68.9703C458.056,-64.4941 475.529,-59.1075 491.803,-54.0908"/>
<polygon fill="black" stroke="black" points="493.219,-57.317 501.744,-51.0263 491.156,-50.6276 493.219,-57.317"/>
</g>
<!-- proc~test_14 -->
<g id="node6" class="node"><title>proc~test_14</title>
<a xlink:href="../proc/test_14.html" xlink:title="test_14">
<polygon fill="#d9534f" stroke="#d9534f" points="300,-158 246,-158 246,-132 300,-132 300,-158"/>
<text text-anchor="middle" x="273" y="-142.55" font-family="Helvetica,sans-Serif" font-size="10.50" fill="white">test_14</text>
</a>
</g>
<!-- proc~test_14&#45;&gt;interface~json_parse -->
<g id="edge8" class="edge"><title>proc~test_14&#45;&gt;interface~json_parse</title>
<path fill="none" stroke="black" d="M300.155,-138.106C313.122,-134.373 328.679,-129.241 342,-123 356.804,-116.064 372.241,-106.473 384.75,-98.0158"/>
<polygon fill="black" stroke="black" points="387.055,-100.678 393.29,-92.1121 383.074,-94.9194 387.055,-100.678"/>
</g>
<!-- proc~test_8 -->
<g id="node7" class="node"><title>proc~test_8</title>
<a xlink:href="../proc/test_8.html" xlink:title="test_8">
<polygon fill="#d9534f" stroke="#d9534f" points="300,-114 246,-114 246,-88 300,-88 300,-114"/>
<text text-anchor="middle" x="273" y="-98.55" font-family="Helvetica,sans-Serif" font-size="10.50" fill="white">test_8</text>
</a>
</g>
<!-- proc~test_8&#45;&gt;interface~json_parse -->
<g id="edge10" class="edge"><title>proc~test_8&#45;&gt;interface~json_parse</title>
<path fill="none" stroke="black" d="M300.264,-96.6535C319.658,-93.5617 346.098,-89.3467 368.279,-85.8106"/>
<polygon fill="black" stroke="black" points="369.127,-89.2196 378.452,-84.1889 368.025,-82.3069 369.127,-89.2196"/>
</g>
<!-- proc~json_file_load -->
<g id="node8" class="node"><title>proc~json_file_load</title>
<a xlink:href="../proc/json_file_load.html" xlink:title="json_file_load">
<polygon fill="#d9534f" stroke="#d9534f" points="312,-70 234,-70 234,-44 312,-44 312,-70"/>
<text text-anchor="middle" x="273" y="-54.55" font-family="Helvetica,sans-Serif" font-size="10.50" fill="white">json_file_load</text>
</a>
</g>
<!-- proc~json_file_load&#45;&gt;interface~json_parse -->
<g id="edge12" class="edge"><title>proc~json_file_load&#45;&gt;interface~json_parse</title>
<path fill="none" stroke="black" d="M312.176,-63.2455C329.71,-66.0407 350.425,-69.3432 368.349,-72.2006"/>
<polygon fill="black" stroke="black" points="367.831,-75.6622 378.258,-73.7802 368.933,-68.7494 367.831,-75.6622"/>
</g>
<!-- proc~json_file_load_from_string -->
<g id="node9" class="node"><title>proc~json_file_load_from_string</title>
<a xlink:href="../proc/json_file_load_from_string.html" xlink:title="json_file_load_from_string">
<polygon fill="#d9534f" stroke="#d9534f" points="342,-26 204,-26 204,-1.24345e-14 342,-3.55271e-15 342,-26"/>
<text text-anchor="middle" x="273" y="-10.55" font-family="Helvetica,sans-Serif" font-size="10.50" fill="white">json_file_load_from_string</text>
</a>
</g>
<!-- proc~json_file_load_from_string&#45;&gt;interface~json_parse -->
<g id="edge14" class="edge"><title>proc~json_file_load_from_string&#45;&gt;interface~json_parse</title>
<path fill="none" stroke="black" d="M319.657,-26.0557C327.254,-28.6968 334.941,-31.6926 342,-35 356.804,-41.9363 372.241,-51.5269 384.75,-59.9842"/>
<polygon fill="black" stroke="black" points="383.074,-63.0806 393.29,-65.8879 387.055,-57.3225 383.074,-63.0806"/>
</g>
<!-- program~jf_test_14 -->
<g id="node10" class="node"><title>program~jf_test_14</title>
<a xlink:href="../program/jf_test_14.html" xlink:title="jf_test_14">
<polygon fill="#f0ad4e" stroke="#f0ad4e" points="113,-158 55,-158 55,-132 113,-132 113,-158"/>
<text text-anchor="middle" x="84" y="-142.55" font-family="Helvetica,sans-Serif" font-size="10.50" fill="white">jf_test_14</text>
</a>
</g>
<!-- program~jf_test_14&#45;&gt;proc~test_14 -->
<g id="edge2" class="edge"><title>program~jf_test_14&#45;&gt;proc~test_14</title>
<path fill="none" stroke="black" d="M113.531,-145C146.509,-145 199.947,-145 235.765,-145"/>
<polygon fill="black" stroke="black" points="235.82,-148.5 245.82,-145 235.82,-141.5 235.82,-148.5"/>
</g>
<!-- program~jf_test_8 -->
<g id="node12" class="node"><title>program~jf_test_8</title>
<a xlink:href="../program/jf_test_8.html" xlink:title="jf_test_8">
<polygon fill="#f0ad4e" stroke="#f0ad4e" points="111,-114 57,-114 57,-88 111,-88 111,-114"/>
<text text-anchor="middle" x="84" y="-98.55" font-family="Helvetica,sans-Serif" font-size="10.50" fill="white">jf_test_8</text>
</a>
</g>
<!-- program~jf_test_8&#45;&gt;proc~test_8 -->
<g id="edge4" class="edge"><title>program~jf_test_8&#45;&gt;proc~test_8</title>
<path fill="none" stroke="black" d="M111.079,-101C143.78,-101 198.956,-101 235.676,-101"/>
<polygon fill="black" stroke="black" points="235.971,-104.5 245.971,-101 235.971,-97.5001 235.971,-104.5"/>
</g>
<!-- proc~wrap_json_file_load_from_string -->
<g id="node14" class="node"><title>proc~wrap_json_file_load_from_string</title>
<a xlink:href="../proc/wrap_json_file_load_from_string.html" xlink:title="wrap_json_file_load_from_string">
<polygon fill="#d9534f" stroke="#d9534f" points="167,-26 1,-26 1,-1.24345e-14 167,-3.55271e-15 167,-26"/>
<text text-anchor="middle" x="84" y="-10.55" font-family="Helvetica,sans-Serif" font-size="10.50" fill="white">wrap_json_file_load_from_string</text>
</a>
</g>
<!-- proc~wrap_json_file_load_from_string&#45;&gt;proc~json_file_load_from_string -->
<g id="edge6" class="edge"><title>proc~wrap_json_file_load_from_string&#45;&gt;proc~json_file_load_from_string</title>
<path fill="none" stroke="black" d="M167.724,-13C176.382,-13 185.162,-13 193.769,-13"/>
<polygon fill="black" stroke="black" points="193.775,-16.5001 203.775,-13 193.775,-9.5001 193.775,-16.5001"/>
</g>
<!-- proc~wrap_json_parse_string&#45;&gt;proc~json_parse_string -->
<g id="edge20" class="edge"><title>proc~wrap_json_parse_string&#45;&gt;proc~json_parse_string</title>
<path fill="none" stroke="black" d="M599.482,-51.0327C610.873,-53.7084 622.9,-56.5335 634.397,-59.2341"/>
<polygon fill="black" stroke="black" points="633.799,-62.6889 644.334,-61.5685 635.4,-55.8744 633.799,-62.6889"/>
</g>
</g>
</svg>
