<?xml version="1.0" encoding="UTF-8" standalone="no"?>
<!DOCTYPE svg PUBLIC "-//W3C//DTD SVG 1.1//EN"
 "http://www.w3.org/Graphics/SVG/1.1/DTD/svg11.dtd">
<!-- Generated by graphviz version 2.26.3 (20100126.1600)
 -->
<!-- Title: proc~~pop_char~~CalledByGraph Pages: 1 -->
<svg width="641pt" height="126pt"
 viewBox="0.00 0.00 641.00 126.25" xmlns="http://www.w3.org/2000/svg" xmlns:xlink="http://www.w3.org/1999/xlink">
<g id="graph1" class="graph" transform="scale(0.538655 0.538655) rotate(0) translate(4 230.386)">
<title>proc~~pop_char~~CalledByGraph</title>
<polygon fill="white" stroke="white" points="-4,5 -4,-230.386 1187,-230.386 1187,5 -4,5"/>
<!-- proc~pop_char -->
<g id="node1" class="node"><title>proc~pop_char</title>
<polygon fill="none" stroke="black" points="1182,-128 1124,-128 1124,-102 1182,-102 1182,-128"/>
<text text-anchor="middle" x="1153" y="-112.55" font-family="Helvetica,sans-Serif" font-size="10.50">pop_char</text>
</g>
<!-- proc~parse_value -->
<g id="node2" class="node"><title>proc~parse_value</title>
<a xlink:href="../proc/parse_value.html" xlink:title="parse_value">
<polygon fill="#d9534f" stroke="#d9534f" points="849,-128 779,-128 779,-102 849,-102 849,-128"/>
<text text-anchor="middle" x="814" y="-112.55" font-family="Helvetica,sans-Serif" font-size="10.50" fill="white">parse_value</text>
</a>
</g>
<!-- proc~parse_value&#45;&gt;proc~pop_char -->
<g id="edge46" class="edge"><title>proc~parse_value&#45;&gt;proc~pop_char</title>
<path fill="none" stroke="black" d="M821.213,-128.201C832.312,-146.994 855.529,-180.76 886,-195 967.351,-233.017 1007.38,-238.552 1088,-199 1113.89,-186.297 1132.41,-157.761 1142.9,-137.48"/>
<polygon fill="black" stroke="black" points="1146.14,-138.813 1147.4,-128.293 1139.86,-135.733 1146.14,-138.813"/>
</g>
<!-- proc~parse_string -->
<g id="node3" class="node"><title>proc~parse_string</title>
<a xlink:href="../proc/parse_string.html" xlink:title="parse_string">
<polygon fill="#d9534f" stroke="#d9534f" points="1078,-190 1006,-190 1006,-164 1078,-164 1078,-190"/>
<text text-anchor="middle" x="1042" y="-174.55" font-family="Helvetica,sans-Serif" font-size="10.50" fill="white">parse_string</text>
</a>
</g>
<!-- proc~parse_value&#45;&gt;proc~parse_string -->
<g id="edge32" class="edge"><title>proc~parse_value&#45;&gt;proc~parse_string</title>
<path fill="none" stroke="black" d="M824.299,-128.016C836.974,-142.881 860.036,-166.385 886,-176 921.179,-189.027 963.958,-188.25 995.815,-184.793"/>
<polygon fill="black" stroke="black" points="996.243,-188.267 1005.75,-183.591 995.402,-181.318 996.243,-188.267"/>
</g>
<!-- proc~parse_number -->
<g id="node4" class="node"><title>proc~parse_number</title>
<a xlink:href="../proc/parse_number.html" xlink:title="parse_number">
<polygon fill="#d9534f" stroke="#d9534f" points="1083,-108 1001,-108 1001,-82 1083,-82 1083,-108"/>
<text text-anchor="middle" x="1042" y="-92.55" font-family="Helvetica,sans-Serif" font-size="10.50" fill="white">parse_number</text>
</a>
</g>
<!-- proc~parse_value&#45;&gt;proc~parse_number -->
<g id="edge36" class="edge"><title>proc~parse_value&#45;&gt;proc~parse_number</title>
<path fill="none" stroke="black" d="M849.625,-111.875C887.54,-108.549 947.874,-103.257 990.86,-99.486"/>
<polygon fill="black" stroke="black" points="991.187,-102.971 1000.84,-98.6103 990.575,-95.9976 991.187,-102.971"/>
</g>
<!-- proc~parse_object -->
<g id="node5" class="node"><title>proc~parse_object</title>
<a xlink:href="../proc/parse_object.html" xlink:title="parse_object">
<polygon fill="#d9534f" stroke="#d9534f" points="960,-149 886,-149 886,-123 960,-123 960,-149"/>
<text text-anchor="middle" x="923" y="-133.55" font-family="Helvetica,sans-Serif" font-size="10.50" fill="white">parse_object</text>
</a>
</g>
<!-- proc~parse_value&#45;&gt;proc~parse_object -->
<g id="edge38" class="edge"><title>proc~parse_value&#45;&gt;proc~parse_object</title>
<path fill="none" stroke="black" d="M849.691,-115.497C858.907,-116.895 868.941,-118.739 878.544,-120.788"/>
<polygon fill="black" stroke="black" points="877.819,-124.212 888.343,-122.987 879.353,-117.382 877.819,-124.212"/>
</g>
<!-- proc~parse_array -->
<g id="node6" class="node"><title>proc~parse_array</title>
<a xlink:href="../proc/parse_array.html" xlink:title="parse_array">
<polygon fill="#d9534f" stroke="#d9534f" points="958,-67 888,-67 888,-41 958,-41 958,-67"/>
<text text-anchor="middle" x="923" y="-51.55" font-family="Helvetica,sans-Serif" font-size="10.50" fill="white">parse_array</text>
</a>
</g>
<!-- proc~parse_value&#45;&gt;proc~parse_array -->
<g id="edge42" class="edge"><title>proc~parse_value&#45;&gt;proc~parse_array</title>
<path fill="none" stroke="black" d="M828.7,-101.985C841.665,-93.1023 861.237,-81.5343 879.196,-71.881"/>
<polygon fill="black" stroke="black" points="881.182,-74.7906 888.397,-67.0318 877.919,-68.598 881.182,-74.7906"/>
</g>
<!-- proc~parse_for_chars -->
<g id="node7" class="node"><title>proc~parse_for_chars</title>
<a xlink:href="../proc/parse_for_chars.html" xlink:title="parse_for_chars">
<polygon fill="#d9534f" stroke="#d9534f" points="1087,-26 997,-26 997,-1.24345e-14 1087,-3.55271e-15 1087,-26"/>
<text text-anchor="middle" x="1042" y="-10.55" font-family="Helvetica,sans-Serif" font-size="10.50" fill="white">parse_for_chars</text>
</a>
</g>
<!-- proc~parse_value&#45;&gt;proc~parse_for_chars -->
<g id="edge44" class="edge"><title>proc~parse_value&#45;&gt;proc~parse_for_chars</title>
<path fill="none" stroke="black" d="M821.069,-101.976C832.145,-82.9895 855.515,-48.2106 886,-32 916.516,-15.7729 955.031,-10.953 986.155,-10.2243"/>
<polygon fill="black" stroke="black" points="986.44,-13.7218 996.405,-10.1234 986.371,-6.7221 986.44,-13.7218"/>
</g>
<!-- proc~parse_string&#45;&gt;proc~pop_char -->
<g id="edge48" class="edge"><title>proc~parse_string&#45;&gt;proc~pop_char</title>
<path fill="none" stroke="black" d="M1065.54,-163.851C1081.58,-154.892 1103.03,-142.914 1120.66,-133.061"/>
<polygon fill="black" stroke="black" points="1122.47,-136.062 1129.49,-128.13 1119.06,-129.951 1122.47,-136.062"/>
</g>
<!-- proc~parse_number&#45;&gt;proc~pop_char -->
<g id="edge50" class="edge"><title>proc~parse_number&#45;&gt;proc~pop_char</title>
<path fill="none" stroke="black" d="M1083.02,-102.39C1093.1,-104.207 1103.87,-106.148 1113.86,-107.948"/>
<polygon fill="black" stroke="black" points="1113.47,-111.434 1123.93,-109.763 1114.71,-104.545 1113.47,-111.434"/>
</g>
<!-- proc~parse_object&#45;&gt;proc~pop_char -->
<g id="edge52" class="edge"><title>proc~parse_object&#45;&gt;proc~pop_char</title>
<path fill="none" stroke="black" d="M960.209,-132.603C1002.38,-128.753 1070.81,-122.504 1113.79,-118.58"/>
<polygon fill="black" stroke="black" points="1114.23,-122.055 1123.87,-117.66 1113.59,-115.084 1114.23,-122.055"/>
</g>
<!-- proc~parse_object&#45;&gt;proc~parse_value -->
<g id="edge26" class="edge"><title>proc~parse_object&#45;&gt;proc~parse_value</title>
<path fill="none" stroke="black" d="M885.909,-135.288C877.182,-133.934 867.789,-132.197 858.765,-130.278"/>
<polygon fill="black" stroke="black" points="859.311,-126.813 848.788,-128.043 857.781,-133.644 859.311,-126.813"/>
</g>
<!-- proc~parse_object&#45;&gt;proc~parse_string -->
<g id="edge34" class="edge"><title>proc~parse_object&#45;&gt;proc~parse_string</title>
<path fill="none" stroke="black" d="M960,-148.748C971.407,-152.678 984.108,-157.054 996.041,-161.165"/>
<polygon fill="black" stroke="black" points="995.244,-164.593 1005.84,-164.541 997.525,-157.975 995.244,-164.593"/>
</g>
<!-- proc~parse_object&#45;&gt;proc~parse_object -->
<g id="edge40" class="edge"><title>proc~parse_object&#45;&gt;proc~parse_object</title>
<path fill="none" stroke="black" d="M904.728,-149.06C899.19,-158.1 905.281,-167 923,-167 933.797,-167 940.277,-163.695 942.438,-159.067"/>
<polygon fill="black" stroke="black" points="945.906,-158.588 941.272,-149.06 938.953,-159.398 945.906,-158.588"/>
</g>
<!-- proc~parse_array&#45;&gt;proc~pop_char -->
<g id="edge54" class="edge"><title>proc~parse_array&#45;&gt;proc~pop_char</title>
<path fill="none" stroke="black" d="M958.172,-53.4633C992.312,-53.9934 1045.11,-57.6281 1088,-73 1102.61,-78.238 1117.28,-87.3038 1128.97,-95.6751"/>
<polygon fill="black" stroke="black" points="1127.17,-98.6991 1137.28,-101.866 1131.35,-93.0854 1127.17,-98.6991"/>
</g>
<!-- proc~parse_array&#45;&gt;proc~parse_value -->
<g id="edge30" class="edge"><title>proc~parse_array&#45;&gt;proc~parse_value</title>
<path fill="none" stroke="black" d="M908.214,-67.0741C895.284,-75.9245 875.83,-87.4238 857.951,-97.0398"/>
<polygon fill="black" stroke="black" points="856,-94.1117 848.788,-101.873 859.266,-100.303 856,-94.1117"/>
</g>
<!-- proc~parse_for_chars&#45;&gt;proc~pop_char -->
<g id="edge56" class="edge"><title>proc~parse_for_chars&#45;&gt;proc~pop_char</title>
<path fill="none" stroke="black" d="M1067.81,-26.1695C1074.68,-30.1899 1081.88,-34.9079 1088,-40 1107.11,-55.8961 1125.33,-77.6974 1137.59,-93.6983"/>
<polygon fill="black" stroke="black" points="1134.95,-96.0176 1143.75,-101.917 1140.55,-91.8169 1134.95,-96.0176"/>
</g>
<!-- proc~json_parse_string -->
<g id="node8" class="node"><title>proc~json_parse_string</title>
<a xlink:href="../proc/json_parse_string.html" xlink:title="json_parse_string">
<polygon fill="#d9534f" stroke="#d9534f" points="741,-150 645,-150 645,-124 741,-124 741,-150"/>
<text text-anchor="middle" x="693" y="-134.55" font-family="Helvetica,sans-Serif" font-size="10.50" fill="white">json_parse_string</text>
</a>
</g>
<!-- proc~json_parse_string&#45;&gt;proc~parse_value -->
<g id="edge24" class="edge"><title>proc~json_parse_string&#45;&gt;proc~parse_value</title>
<path fill="none" stroke="black" d="M741.518,-128.179C750.308,-126.58 759.449,-124.918 768.159,-123.335"/>
<polygon fill="black" stroke="black" points="768.926,-126.753 778.139,-121.52 767.674,-119.866 768.926,-126.753"/>
</g>
<!-- proc~json_parse_file -->
<g id="node9" class="node"><title>proc~json_parse_file</title>
<a xlink:href="../proc/json_parse_file.html" xlink:title="json_parse_file">
<polygon fill="#d9534f" stroke="#d9534f" points="735,-106 651,-106 651,-80 735,-80 735,-106"/>
<text text-anchor="middle" x="693" y="-90.55" font-family="Helvetica,sans-Serif" font-size="10.50" fill="white">json_parse_file</text>
</a>
</g>
<!-- proc~json_parse_file&#45;&gt;proc~parse_value -->
<g id="edge28" class="edge"><title>proc~json_parse_file&#45;&gt;proc~parse_value</title>
<path fill="none" stroke="black" d="M735.66,-100.756C746.179,-102.669 757.487,-104.725 768.15,-106.664"/>
<polygon fill="black" stroke="black" points="767.664,-110.132 778.128,-108.478 768.916,-103.245 767.664,-110.132"/>
</g>
<!-- proc~wrap_json_parse_string -->
<g id="node10" class="node"><title>proc~wrap_json_parse_string</title>
<a xlink:href="../proc/wrap_json_parse_string.html" xlink:title="wrap_json_parse_string">
<polygon fill="#d9534f" stroke="#d9534f" points="607,-185 481,-185 481,-159 607,-159 607,-185"/>
<text text-anchor="middle" x="544" y="-169.55" font-family="Helvetica,sans-Serif" font-size="10.50" fill="white">wrap_json_parse_string</text>
</a>
</g>
<!-- proc~wrap_json_parse_string&#45;&gt;proc~json_parse_string -->
<g id="edge18" class="edge"><title>proc~wrap_json_parse_string&#45;&gt;proc~json_parse_string</title>
<path fill="none" stroke="black" d="M599.482,-158.967C610.873,-156.292 622.9,-153.467 634.397,-150.766"/>
<polygon fill="black" stroke="black" points="635.4,-154.126 644.334,-148.432 633.799,-147.311 635.4,-154.126"/>
</g>
<!-- interface~json_parse -->
<g id="node11" class="node"><title>interface~json_parse</title>
<a xlink:href="../interface/json_parse.html" xlink:title="json_parse">
<polygon fill="#a7506f" stroke="#a7506f" points="443,-144 379,-144 379,-118 443,-118 443,-144"/>
<text text-anchor="middle" x="411" y="-128.55" font-family="Helvetica,sans-Serif" font-size="10.50" fill="white">json_parse</text>
</a>
</g>
<!-- interface~json_parse&#45;&gt;proc~json_parse_string -->
<g id="edge20" class="edge"><title>interface~json_parse&#45;&gt;proc~json_parse_string</title>
<path fill="none" stroke="black" stroke-dasharray="5,2" d="M443.624,-131.694C490.195,-132.685 576.484,-134.521 634.326,-135.752"/>
<polygon fill="black" stroke="black" points="634.35,-139.253 644.422,-135.966 634.499,-132.254 634.35,-139.253"/>
</g>
<!-- interface~json_parse&#45;&gt;proc~json_parse_file -->
<g id="edge22" class="edge"><title>interface~json_parse&#45;&gt;proc~json_parse_file</title>
<path fill="none" stroke="black" stroke-dasharray="5,2" d="M443.624,-126.604C491.768,-120.116 582.358,-107.909 640.086,-100.13"/>
<polygon fill="black" stroke="black" points="640.67,-103.583 650.113,-98.7791 639.735,-96.646 640.67,-103.583"/>
</g>
<!-- interface~json_parse&#45;&gt;proc~wrap_json_parse_string -->
<g id="edge16" class="edge"><title>interface~json_parse&#45;&gt;proc~wrap_json_parse_string</title>
<path fill="none" stroke="black" stroke-dasharray="5,2" d="M443.535,-141.03C458.056,-145.506 475.529,-150.892 491.803,-155.909"/>
<polygon fill="black" stroke="black" points="491.156,-159.372 501.744,-158.974 493.219,-152.683 491.156,-159.372"/>
</g>
<!-- proc~test_14 -->
<g id="node12" class="node"><title>proc~test_14</title>
<a xlink:href="../proc/test_14.html" xlink:title="test_14">
<polygon fill="#d9534f" stroke="#d9534f" points="300,-210 246,-210 246,-184 300,-184 300,-210"/>
<text text-anchor="middle" x="273" y="-194.55" font-family="Helvetica,sans-Serif" font-size="10.50" fill="white">test_14</text>
</a>
</g>
<!-- proc~test_14&#45;&gt;interface~json_parse -->
<g id="edge8" class="edge"><title>proc~test_14&#45;&gt;interface~json_parse</title>
<path fill="none" stroke="black" d="M300.155,-190.106C313.122,-186.373 328.679,-181.241 342,-175 356.804,-168.064 372.241,-158.473 384.75,-150.016"/>
<polygon fill="black" stroke="black" points="387.055,-152.678 393.29,-144.112 383.074,-146.919 387.055,-152.678"/>
</g>
<!-- proc~test_8 -->
<g id="node13" class="node"><title>proc~test_8</title>
<a xlink:href="../proc/test_8.html" xlink:title="test_8">
<polygon fill="#d9534f" stroke="#d9534f" points="300,-166 246,-166 246,-140 300,-140 300,-166"/>
<text text-anchor="middle" x="273" y="-150.55" font-family="Helvetica,sans-Serif" font-size="10.50" fill="white">test_8</text>
</a>
</g>
<!-- proc~test_8&#45;&gt;interface~json_parse -->
<g id="edge10" class="edge"><title>proc~test_8&#45;&gt;interface~json_parse</title>
<path fill="none" stroke="black" d="M300.264,-148.654C319.658,-145.562 346.098,-141.347 368.279,-137.811"/>
<polygon fill="black" stroke="black" points="369.127,-141.22 378.452,-136.189 368.025,-134.307 369.127,-141.22"/>
</g>
<!-- proc~json_file_load -->
<g id="node14" class="node"><title>proc~json_file_load</title>
<a xlink:href="../proc/json_file_load.html" xlink:title="json_file_load">
<polygon fill="#d9534f" stroke="#d9534f" points="312,-122 234,-122 234,-96 312,-96 312,-122"/>
<text text-anchor="middle" x="273" y="-106.55" font-family="Helvetica,sans-Serif" font-size="10.50" fill="white">json_file_load</text>
</a>
</g>
<!-- proc~json_file_load&#45;&gt;interface~json_parse -->
<g id="edge12" class="edge"><title>proc~json_file_load&#45;&gt;interface~json_parse</title>
<path fill="none" stroke="black" d="M312.176,-115.245C329.71,-118.041 350.425,-121.343 368.349,-124.201"/>
<polygon fill="black" stroke="black" points="367.831,-127.662 378.258,-125.78 368.933,-120.749 367.831,-127.662"/>
</g>
<!-- proc~json_file_load_from_string -->
<g id="node15" class="node"><title>proc~json_file_load_from_string</title>
<a xlink:href="../proc/json_file_load_from_string.html" xlink:title="json_file_load_from_string">
<polygon fill="#d9534f" stroke="#d9534f" points="342,-78 204,-78 204,-52 342,-52 342,-78"/>
<text text-anchor="middle" x="273" y="-62.55" font-family="Helvetica,sans-Serif" font-size="10.50" fill="white">json_file_load_from_string</text>
</a>
</g>
<!-- proc~json_file_load_from_string&#45;&gt;interface~json_parse -->
<g id="edge14" class="edge"><title>proc~json_file_load_from_string&#45;&gt;interface~json_parse</title>
<path fill="none" stroke="black" d="M319.657,-78.0557C327.254,-80.6968 334.941,-83.6926 342,-87 356.804,-93.9363 372.241,-103.527 384.75,-111.984"/>
<polygon fill="black" stroke="black" points="383.074,-115.081 393.29,-117.888 387.055,-109.322 383.074,-115.081"/>
</g>
<!-- program~jf_test_14 -->
<g id="node16" class="node"><title>program~jf_test_14</title>
<a xlink:href="../program/jf_test_14.html" xlink:title="jf_test_14">
<polygon fill="#f0ad4e" stroke="#f0ad4e" points="113,-210 55,-210 55,-184 113,-184 113,-210"/>
<text text-anchor="middle" x="84" y="-194.55" font-family="Helvetica,sans-Serif" font-size="10.50" fill="white">jf_test_14</text>
</a>
</g>
<!-- program~jf_test_14&#45;&gt;proc~test_14 -->
<g id="edge2" class="edge"><title>program~jf_test_14&#45;&gt;proc~test_14</title>
<path fill="none" stroke="black" d="M113.531,-197C146.509,-197 199.947,-197 235.765,-197"/>
<polygon fill="black" stroke="black" points="235.82,-200.5 245.82,-197 235.82,-193.5 235.82,-200.5"/>
</g>
<!-- program~jf_test_8 -->
<g id="node18" class="node"><title>program~jf_test_8</title>
<a xlink:href="../program/jf_test_8.html" xlink:title="jf_test_8">
<polygon fill="#f0ad4e" stroke="#f0ad4e" points="111,-166 57,-166 57,-140 111,-140 111,-166"/>
<text text-anchor="middle" x="84" y="-150.55" font-family="Helvetica,sans-Serif" font-size="10.50" fill="white">jf_test_8</text>
</a>
</g>
<!-- program~jf_test_8&#45;&gt;proc~test_8 -->
<g id="edge4" class="edge"><title>program~jf_test_8&#45;&gt;proc~test_8</title>
<path fill="none" stroke="black" d="M111.079,-153C143.78,-153 198.956,-153 235.676,-153"/>
<polygon fill="black" stroke="black" points="235.971,-156.5 245.971,-153 235.971,-149.5 235.971,-156.5"/>
</g>
<!-- proc~wrap_json_file_load_from_string -->
<g id="node20" class="node"><title>proc~wrap_json_file_load_from_string</title>
<a xlink:href="../proc/wrap_json_file_load_from_string.html" xlink:title="wrap_json_file_load_from_string">
<polygon fill="#d9534f" stroke="#d9534f" points="167,-78 1,-78 1,-52 167,-52 167,-78"/>
<text text-anchor="middle" x="84" y="-62.55" font-family="Helvetica,sans-Serif" font-size="10.50" fill="white">wrap_json_file_load_from_string</text>
</a>
</g>
<!-- proc~wrap_json_file_load_from_string&#45;&gt;proc~json_file_load_from_string -->
<g id="edge6" class="edge"><title>proc~wrap_json_file_load_from_string&#45;&gt;proc~json_file_load_from_string</title>
<path fill="none" stroke="black" d="M167.724,-65C176.382,-65 185.162,-65 193.769,-65"/>
<polygon fill="black" stroke="black" points="193.775,-68.5001 203.775,-65 193.775,-61.5001 193.775,-68.5001"/>
</g>
</g>
</svg>
