<?xml version="1.0" encoding="UTF-8" standalone="no"?>
<!DOCTYPE svg PUBLIC "-//W3C//DTD SVG 1.1//EN"
 "http://www.w3.org/Graphics/SVG/1.1/DTD/svg11.dtd">
<!-- Generated by graphviz version 2.26.3 (20100126.1600)
 -->
<!-- Title: proc~~rename~~CallsGraph Pages: 1 -->
<svg width="170pt" height="122pt"
 viewBox="0.00 0.00 170.00 122.00" xmlns="http://www.w3.org/2000/svg" xmlns:xlink="http://www.w3.org/1999/xlink">
<g id="graph1" class="graph" transform="scale(1 1) rotate(0) translate(4 118)">
<title>proc~~rename~~CallsGraph</title>
<polygon fill="white" stroke="white" points="-4,5 -4,-118 167,-118 167,5 -4,5"/>
<!-- proc~rename -->
<g id="node1" class="node"><title>proc~rename</title>
<polygon fill="none" stroke="black" points="54,-70 2.13163e-14,-70 0,-44 54,-44 54,-70"/>
<text text-anchor="middle" x="27" y="-54.55" font-family="Helvetica,sans-Serif" font-size="10.50">rename</text>
</g>
<!-- json_get -->
<g id="node2" class="node"><title>json_get</title>
<polygon fill="#777777" stroke="#777777" points="153,-114 99,-114 99,-88 153,-88 153,-114"/>
<text text-anchor="middle" x="126" y="-98.55" font-family="Helvetica,sans-Serif" font-size="10.50" fill="white">json_get</text>
</g>
<!-- proc~rename&#45;&gt;json_get -->
<g id="edge2" class="edge"><title>proc~rename&#45;&gt;json_get</title>
<path fill="none" stroke="black" d="M54.0522,-69.0232C65.0746,-73.9221 77.9811,-79.6583 89.796,-84.9093"/>
<polygon fill="black" stroke="black" points="88.4209,-88.1282 98.9805,-88.9913 91.2639,-81.7316 88.4209,-88.1282"/>
</g>
<!-- json_info -->
<g id="node3" class="node"><title>json_info</title>
<polygon fill="#777777" stroke="#777777" points="153,-70 99,-70 99,-44 153,-44 153,-70"/>
<text text-anchor="middle" x="126" y="-54.55" font-family="Helvetica,sans-Serif" font-size="10.50" fill="white">json_info</text>
</g>
<!-- proc~rename&#45;&gt;json_info -->
<g id="edge4" class="edge"><title>proc~rename&#45;&gt;json_info</title>
<path fill="none" stroke="black" d="M54.0522,-57C64.5719,-57 76.8077,-57 88.1729,-57"/>
<polygon fill="black" stroke="black" points="88.2914,-60.5001 98.2913,-57 88.2913,-53.5001 88.2914,-60.5001"/>
</g>
<!-- json_update -->
<g id="node4" class="node"><title>json_update</title>
<polygon fill="#777777" stroke="#777777" points="161,-26 91,-26 91,-1.24345e-14 161,-3.55271e-15 161,-26"/>
<text text-anchor="middle" x="126" y="-10.55" font-family="Helvetica,sans-Serif" font-size="10.50" fill="white">json_update</text>
</g>
<!-- proc~rename&#45;&gt;json_update -->
<g id="edge6" class="edge"><title>proc~rename&#45;&gt;json_update</title>
<path fill="none" stroke="black" d="M54.0522,-44.9768C64.2364,-40.4505 76.0291,-35.2093 87.0831,-30.2964"/>
<polygon fill="black" stroke="black" points="88.8314,-33.3495 96.548,-26.0898 85.9884,-26.9529 88.8314,-33.3495"/>
</g>
</g>
</svg>
