<?xml version="1.0" encoding="UTF-8" standalone="no"?>
<!DOCTYPE svg PUBLIC "-//W3C//DTD SVG 1.1//EN"
 "http://www.w3.org/Graphics/SVG/1.1/DTD/svg11.dtd">
<!-- Generated by graphviz version 2.26.3 (20100126.1600)
 -->
<!-- Title: proc~~json_print_1~~CallsGraph Pages: 1 -->
<svg width="641pt" height="191pt"
 viewBox="0.00 0.00 641.00 190.97" xmlns="http://www.w3.org/2000/svg" xmlns:xlink="http://www.w3.org/1999/xlink">
<g id="graph1" class="graph" transform="scale(0.830311 0.830311) rotate(0) translate(4 226)">
<title>proc~~json_print_1~~CallsGraph</title>
<polygon fill="white" stroke="white" points="-4,5 -4,-226 769,-226 769,5 -4,5"/>
<!-- proc~json_print_1 -->
<g id="node1" class="node"><title>proc~json_print_1</title>
<polygon fill="none" stroke="black" points="71,-157 1,-157 1,-131 71,-131 71,-157"/>
<text text-anchor="middle" x="36" y="-141.55" font-family="Helvetica,sans-Serif" font-size="10.50">json_print_1</text>
</g>
<!-- interface~throw_exception -->
<g id="node2" class="node"><title>interface~throw_exception</title>
<a xlink:href="../interface/throw_exception.html" xlink:title="throw_exception">
<polygon fill="#a7506f" stroke="#a7506f" points="328,-202 238,-202 238,-176 328,-176 328,-202"/>
<text text-anchor="middle" x="283" y="-186.55" font-family="Helvetica,sans-Serif" font-size="10.50" fill="white">throw_exception</text>
</a>
</g>
<!-- proc~json_print_1&#45;&gt;interface~throw_exception -->
<g id="edge28" class="edge"><title>proc~json_print_1&#45;&gt;interface~throw_exception</title>
<path fill="none" stroke="black" d="M71.6521,-150.495C112.437,-157.926 179.725,-170.185 227.41,-178.872"/>
<polygon fill="black" stroke="black" points="226.806,-182.32 237.272,-180.669 228.061,-175.433 226.806,-182.32"/>
</g>
<!-- proc~json_value_print -->
<g id="node3" class="node"><title>proc~json_value_print</title>
<a xlink:href="../proc/json_value_print.html" xlink:title="json_value_print">
<polygon fill="#d9534f" stroke="#d9534f" points="199,-121 109,-121 109,-95 199,-95 199,-121"/>
<text text-anchor="middle" x="154" y="-105.55" font-family="Helvetica,sans-Serif" font-size="10.50" fill="white">json_value_print</text>
</a>
</g>
<!-- proc~json_print_1&#45;&gt;proc~json_value_print -->
<g id="edge30" class="edge"><title>proc~json_print_1&#45;&gt;proc~json_value_print</title>
<path fill="none" stroke="black" d="M71.7241,-133.101C81.1826,-130.215 91.5915,-127.04 101.732,-123.946"/>
<polygon fill="black" stroke="black" points="102.788,-127.283 111.332,-121.017 100.745,-120.588 102.788,-127.283"/>
</g>
<!-- proc~json_throw_exception -->
<g id="node4" class="node"><title>proc~json_throw_exception</title>
<a xlink:href="../proc/json_throw_exception.html" xlink:title="json_throw_exception">
<polygon fill="#d9534f" stroke="#d9534f" points="664,-222 548,-222 548,-196 664,-196 664,-222"/>
<text text-anchor="middle" x="606" y="-206.55" font-family="Helvetica,sans-Serif" font-size="10.50" fill="white">json_throw_exception</text>
</a>
</g>
<!-- interface~throw_exception&#45;&gt;proc~json_throw_exception -->
<g id="edge10" class="edge"><title>interface~throw_exception&#45;&gt;proc~json_throw_exception</title>
<path fill="none" stroke="black" stroke-dasharray="5,2" d="M328.593,-191.823C383.035,-195.194 474.618,-200.865 537.566,-204.763"/>
<polygon fill="black" stroke="black" points="537.604,-208.272 547.802,-205.396 538.037,-201.285 537.604,-208.272"/>
</g>
<!-- proc~wrap_json_throw_exception -->
<g id="node5" class="node"><title>proc~wrap_json_throw_exception</title>
<a xlink:href="../proc/wrap_json_throw_exception.html" xlink:title="wrap_json_throw_exception">
<polygon fill="#d9534f" stroke="#d9534f" points="511,-181 367,-181 367,-155 511,-155 511,-181"/>
<text text-anchor="middle" x="439" y="-165.55" font-family="Helvetica,sans-Serif" font-size="10.50" fill="white">wrap_json_throw_exception</text>
</a>
</g>
<!-- interface~throw_exception&#45;&gt;proc~wrap_json_throw_exception -->
<g id="edge12" class="edge"><title>interface~throw_exception&#45;&gt;proc~wrap_json_throw_exception</title>
<path fill="none" stroke="black" stroke-dasharray="5,2" d="M328.541,-182.869C337.352,-181.683 346.835,-180.407 356.41,-179.118"/>
<polygon fill="black" stroke="black" points="356.955,-182.576 366.398,-177.773 356.021,-175.639 356.955,-182.576"/>
</g>
<!-- proc~json_value_print&#45;&gt;interface~throw_exception -->
<g id="edge22" class="edge"><title>proc~json_value_print&#45;&gt;interface~throw_exception</title>
<path fill="none" stroke="black" d="M170.343,-121.152C186.467,-133.787 212.102,-152.974 236,-167 238.477,-168.454 241.065,-169.886 243.699,-171.281"/>
<polygon fill="black" stroke="black" points="242.232,-174.461 252.735,-175.849 245.39,-168.214 242.232,-174.461"/>
</g>
<!-- proc~json_value_print&#45;&gt;proc~json_value_print -->
<g id="edge26" class="edge"><title>proc~json_value_print&#45;&gt;proc~json_value_print</title>
<path fill="none" stroke="black" d="M134.036,-121.06C127.986,-130.1 134.641,-139 154,-139 165.797,-139 172.877,-135.695 175.238,-131.067"/>
<polygon fill="black" stroke="black" points="178.699,-130.538 173.964,-121.06 171.755,-131.422 178.699,-130.538"/>
</g>
<!-- none~write_it -->
<g id="node15" class="node"><title>none~write_it</title>
<polygon fill="#d9534f" stroke="#d9534f" points="310,-158 256,-158 256,-132 310,-132 310,-158"/>
<text text-anchor="middle" x="283" y="-142.55" font-family="Helvetica,sans-Serif" font-size="10.50" fill="white">write_it</text>
</g>
<!-- proc~json_value_print&#45;&gt;none~write_it -->
<g id="edge16" class="edge"><title>proc~json_value_print&#45;&gt;none~write_it</title>
<path fill="none" stroke="black" d="M199.481,-121.045C214.804,-125.44 231.701,-130.286 246.264,-134.463"/>
<polygon fill="black" stroke="black" points="245.348,-137.842 255.925,-137.234 247.278,-131.113 245.348,-137.842"/>
</g>
<!-- proc~real_to_string -->
<g id="node16" class="node"><title>proc~real_to_string</title>
<a xlink:href="../proc/real_to_string.html" xlink:title="real_to_string">
<polygon fill="#d9534f" stroke="#d9534f" points="322,-114 244,-114 244,-88 322,-88 322,-114"/>
<text text-anchor="middle" x="283" y="-98.55" font-family="Helvetica,sans-Serif" font-size="10.50" fill="white">real_to_string</text>
</a>
</g>
<!-- proc~json_value_print&#45;&gt;proc~real_to_string -->
<g id="edge18" class="edge"><title>proc~json_value_print&#45;&gt;proc~real_to_string</title>
<path fill="none" stroke="black" d="M199.844,-105.512C210.822,-104.917 222.589,-104.278 233.716,-103.674"/>
<polygon fill="black" stroke="black" points="233.917,-107.169 243.713,-103.132 233.538,-100.179 233.917,-107.169"/>
</g>
<!-- proc~json_count -->
<g id="node17" class="node"><title>proc~json_count</title>
<a xlink:href="../proc/json_count.html" xlink:title="json_count">
<polygon fill="#d94e8f" stroke="#d94e8f" points="315,-70 251,-70 251,-44 315,-44 315,-70"/>
<text text-anchor="middle" x="283" y="-54.55" font-family="Helvetica,sans-Serif" font-size="10.50" fill="white">json_count</text>
</a>
</g>
<!-- proc~json_value_print&#45;&gt;proc~json_count -->
<g id="edge20" class="edge"><title>proc~json_value_print&#45;&gt;proc~json_count</title>
<path fill="none" stroke="black" d="M186.886,-94.9986C203.388,-88.4746 223.557,-80.5006 241.151,-73.5449"/>
<polygon fill="black" stroke="black" points="242.608,-76.7326 250.621,-69.8011 240.034,-70.2228 242.608,-76.7326"/>
</g>
<!-- proc~integer_to_string -->
<g id="node18" class="node"><title>proc~integer_to_string</title>
<a xlink:href="../proc/integer_to_string.html" xlink:title="integer_to_string">
<polygon fill="#d9534f" stroke="#d9534f" points="329,-26 237,-26 237,-1.24345e-14 329,-3.55271e-15 329,-26"/>
<text text-anchor="middle" x="283" y="-10.55" font-family="Helvetica,sans-Serif" font-size="10.50" fill="white">integer_to_string</text>
</a>
</g>
<!-- proc~json_value_print&#45;&gt;proc~integer_to_string -->
<g id="edge24" class="edge"><title>proc~json_value_print&#45;&gt;proc~integer_to_string</title>
<path fill="none" stroke="black" d="M166.384,-94.8558C181.661,-79.1693 208.943,-52.8274 236,-35 238.106,-33.6121 240.314,-32.2646 242.576,-30.9652"/>
<polygon fill="black" stroke="black" points="244.302,-34.0118 251.469,-26.209 241,-27.8392 244.302,-34.0118"/>
</g>
<!-- proc~wrap_json_throw_exception&#45;&gt;proc~json_throw_exception -->
<g id="edge6" class="edge"><title>proc~wrap_json_throw_exception&#45;&gt;proc~json_throw_exception</title>
<path fill="none" stroke="black" d="M492.299,-181.085C508.346,-185.025 526.113,-189.387 542.741,-193.469"/>
<polygon fill="black" stroke="black" points="542.375,-196.983 552.921,-195.969 544.044,-190.185 542.375,-196.983"/>
</g>
<!-- interface~to_unicode -->
<g id="node6" class="node"><title>interface~to_unicode</title>
<a xlink:href="../interface/to_unicode.html" xlink:title="to_unicode">
<polygon fill="#a7506f" stroke="#a7506f" points="638,-178 574,-178 574,-152 638,-152 638,-178"/>
<text text-anchor="middle" x="606" y="-162.55" font-family="Helvetica,sans-Serif" font-size="10.50" fill="white">to_unicode</text>
</a>
</g>
<!-- proc~wrap_json_throw_exception&#45;&gt;interface~to_unicode -->
<g id="edge8" class="edge"><title>proc~wrap_json_throw_exception&#45;&gt;interface~to_unicode</title>
<path fill="none" stroke="black" d="M511.763,-166.693C529.188,-166.38 547.248,-166.055 562.839,-165.775"/>
<polygon fill="black" stroke="black" points="563.264,-169.268 573.199,-165.589 563.138,-162.27 563.264,-169.268"/>
</g>
<!-- proc~to_uni_vec -->
<g id="node7" class="node"><title>proc~to_uni_vec</title>
<a xlink:href="../proc/to_uni_vec.html" xlink:title="to_uni_vec">
<polygon fill="#d94e8f" stroke="#d94e8f" points="764,-200 700,-200 700,-174 764,-174 764,-200"/>
<text text-anchor="middle" x="732" y="-184.55" font-family="Helvetica,sans-Serif" font-size="10.50" fill="white">to_uni_vec</text>
</a>
</g>
<!-- interface~to_unicode&#45;&gt;proc~to_uni_vec -->
<g id="edge2" class="edge"><title>interface~to_unicode&#45;&gt;proc~to_uni_vec</title>
<path fill="none" stroke="black" stroke-dasharray="5,2" d="M638.776,-170.723C654.355,-173.443 673.166,-176.727 689.798,-179.631"/>
<polygon fill="black" stroke="black" points="689.371,-183.11 699.824,-181.382 690.575,-176.214 689.371,-183.11"/>
</g>
<!-- proc~to_uni -->
<g id="node8" class="node"><title>proc~to_uni</title>
<a xlink:href="../proc/to_uni.html" xlink:title="to_uni">
<polygon fill="#d94e8f" stroke="#d94e8f" points="759,-156 705,-156 705,-130 759,-130 759,-156"/>
<text text-anchor="middle" x="732" y="-140.55" font-family="Helvetica,sans-Serif" font-size="10.50" fill="white">to_uni</text>
</a>
</g>
<!-- interface~to_unicode&#45;&gt;proc~to_uni -->
<g id="edge4" class="edge"><title>interface~to_unicode&#45;&gt;proc~to_uni</title>
<path fill="none" stroke="black" stroke-dasharray="5,2" d="M638.776,-159.277C655.965,-156.276 677.088,-152.588 694.878,-149.482"/>
<polygon fill="black" stroke="black" points="695.664,-152.897 704.913,-147.729 694.46,-146.002 695.664,-152.897"/>
</g>
<!-- proc~compact_real_string -->
<g id="node19" class="node"><title>proc~compact_real_string</title>
<a xlink:href="../proc/compact_real_string.html" xlink:title="compact_real_string">
<polygon fill="#d9534f" stroke="#d9534f" points="493,-114 385,-114 385,-88 493,-88 493,-114"/>
<text text-anchor="middle" x="439" y="-98.55" font-family="Helvetica,sans-Serif" font-size="10.50" fill="white">compact_real_string</text>
</a>
</g>
<!-- proc~real_to_string&#45;&gt;proc~compact_real_string -->
<g id="edge14" class="edge"><title>proc~real_to_string&#45;&gt;proc~compact_real_string</title>
<path fill="none" stroke="black" d="M322.365,-101C338.06,-101 356.545,-101 374.117,-101"/>
<polygon fill="black" stroke="black" points="374.329,-104.5 384.329,-101 374.329,-97.5001 374.329,-104.5"/>
</g>
</g>
</svg>
