<?xml version="1.0" encoding="UTF-8" standalone="no"?>
<!DOCTYPE svg PUBLIC "-//W3C//DTD SVG 1.1//EN"
 "http://www.w3.org/Graphics/SVG/1.1/DTD/svg11.dtd">
<!-- Generated by graphviz version 2.26.3 (20100126.1600)
 -->
<!-- Title: proc~~string_to_integer~~CallsGraph Pages: 1 -->
<svg width="641pt" height="97pt"
 viewBox="0.00 0.00 641.00 96.54" xmlns="http://www.w3.org/2000/svg" xmlns:xlink="http://www.w3.org/1999/xlink">
<g id="graph1" class="graph" transform="scale(0.965361 0.965361) rotate(0) translate(4 96)">
<title>proc~~string_to_integer~~CallsGraph</title>
<polygon fill="white" stroke="white" points="-4,5 -4,-96 661,-96 661,5 -4,5"/>
<!-- proc~string_to_integer -->
<g id="node1" class="node"><title>proc~string_to_integer</title>
<polygon fill="none" stroke="black" points="93,-71 1,-71 1,-45 93,-45 93,-71"/>
<text text-anchor="middle" x="47" y="-55.55" font-family="Helvetica,sans-Serif" font-size="10.50">string_to_integer</text>
</g>
<!-- interface~throw_exception -->
<g id="node2" class="node"><title>interface~throw_exception</title>
<a xlink:href="../interface/throw_exception.html" xlink:title="throw_exception">
<polygon fill="#a7506f" stroke="#a7506f" points="221,-71 131,-71 131,-45 221,-45 221,-71"/>
<text text-anchor="middle" x="176" y="-55.55" font-family="Helvetica,sans-Serif" font-size="10.50" fill="white">throw_exception</text>
</a>
</g>
<!-- proc~string_to_integer&#45;&gt;interface~throw_exception -->
<g id="edge14" class="edge"><title>proc~string_to_integer&#45;&gt;interface~throw_exception</title>
<path fill="none" stroke="black" d="M93.572,-58C102.183,-58 111.256,-58 120.11,-58"/>
<polygon fill="black" stroke="black" points="120.361,-61.5001 130.361,-58 120.361,-54.5001 120.361,-61.5001"/>
</g>
<!-- proc~json_throw_exception -->
<g id="node3" class="node"><title>proc~json_throw_exception</title>
<a xlink:href="../proc/json_throw_exception.html" xlink:title="json_throw_exception">
<polygon fill="#d9534f" stroke="#d9534f" points="556,-92 440,-92 440,-66 556,-66 556,-92"/>
<text text-anchor="middle" x="498" y="-76.55" font-family="Helvetica,sans-Serif" font-size="10.50" fill="white">json_throw_exception</text>
</a>
</g>
<!-- interface~throw_exception&#45;&gt;proc~json_throw_exception -->
<g id="edge10" class="edge"><title>interface~throw_exception&#45;&gt;proc~json_throw_exception</title>
<path fill="none" stroke="black" stroke-dasharray="5,2" d="M221.793,-60.9865C276.069,-64.5262 367.029,-70.4584 429.647,-74.5422"/>
<polygon fill="black" stroke="black" points="429.623,-78.048 439.83,-75.2063 430.079,-71.0628 429.623,-78.048"/>
</g>
<!-- proc~wrap_json_throw_exception -->
<g id="node4" class="node"><title>proc~wrap_json_throw_exception</title>
<a xlink:href="../proc/wrap_json_throw_exception.html" xlink:title="wrap_json_throw_exception">
<polygon fill="#d9534f" stroke="#d9534f" points="403,-51 259,-51 259,-25 403,-25 403,-51"/>
<text text-anchor="middle" x="331" y="-35.55" font-family="Helvetica,sans-Serif" font-size="10.50" fill="white">wrap_json_throw_exception</text>
</a>
</g>
<!-- interface~throw_exception&#45;&gt;proc~wrap_json_throw_exception -->
<g id="edge12" class="edge"><title>interface~throw_exception&#45;&gt;proc~wrap_json_throw_exception</title>
<path fill="none" stroke="black" stroke-dasharray="5,2" d="M221.667,-52.1075C230.126,-51.0159 239.199,-49.8453 248.367,-48.6623"/>
<polygon fill="black" stroke="black" points="248.859,-52.1279 258.329,-47.3769 247.963,-45.1855 248.859,-52.1279"/>
</g>
<!-- proc~wrap_json_throw_exception&#45;&gt;proc~json_throw_exception -->
<g id="edge6" class="edge"><title>proc~wrap_json_throw_exception&#45;&gt;proc~json_throw_exception</title>
<path fill="none" stroke="black" d="M384.299,-51.0854C400.346,-55.0251 418.113,-59.3871 434.741,-63.4693"/>
<polygon fill="black" stroke="black" points="434.375,-66.9833 444.921,-65.9686 436.044,-60.1852 434.375,-66.9833"/>
</g>
<!-- interface~to_unicode -->
<g id="node5" class="node"><title>interface~to_unicode</title>
<a xlink:href="../interface/to_unicode.html" xlink:title="to_unicode">
<polygon fill="#a7506f" stroke="#a7506f" points="530,-48 466,-48 466,-22 530,-22 530,-48"/>
<text text-anchor="middle" x="498" y="-32.55" font-family="Helvetica,sans-Serif" font-size="10.50" fill="white">to_unicode</text>
</a>
</g>
<!-- proc~wrap_json_throw_exception&#45;&gt;interface~to_unicode -->
<g id="edge8" class="edge"><title>proc~wrap_json_throw_exception&#45;&gt;interface~to_unicode</title>
<path fill="none" stroke="black" d="M403.763,-36.6929C421.188,-36.3799 439.248,-36.0554 454.839,-35.7754"/>
<polygon fill="black" stroke="black" points="455.264,-39.2684 465.199,-35.5892 455.138,-32.2695 455.264,-39.2684"/>
</g>
<!-- proc~to_uni_vec -->
<g id="node6" class="node"><title>proc~to_uni_vec</title>
<a xlink:href="../proc/to_uni_vec.html" xlink:title="to_uni_vec">
<polygon fill="#d94e8f" stroke="#d94e8f" points="656,-70 592,-70 592,-44 656,-44 656,-70"/>
<text text-anchor="middle" x="624" y="-54.55" font-family="Helvetica,sans-Serif" font-size="10.50" fill="white">to_uni_vec</text>
</a>
</g>
<!-- interface~to_unicode&#45;&gt;proc~to_uni_vec -->
<g id="edge2" class="edge"><title>interface~to_unicode&#45;&gt;proc~to_uni_vec</title>
<path fill="none" stroke="black" stroke-dasharray="5,2" d="M530.776,-40.7228C546.355,-43.443 565.166,-46.7274 581.798,-49.6314"/>
<polygon fill="black" stroke="black" points="581.371,-53.1097 591.824,-51.382 582.575,-46.214 581.371,-53.1097"/>
</g>
<!-- proc~to_uni -->
<g id="node7" class="node"><title>proc~to_uni</title>
<a xlink:href="../proc/to_uni.html" xlink:title="to_uni">
<polygon fill="#d94e8f" stroke="#d94e8f" points="651,-26 597,-26 597,-1.24345e-14 651,-3.55271e-15 651,-26"/>
<text text-anchor="middle" x="624" y="-10.55" font-family="Helvetica,sans-Serif" font-size="10.50" fill="white">to_uni</text>
</a>
</g>
<!-- interface~to_unicode&#45;&gt;proc~to_uni -->
<g id="edge4" class="edge"><title>interface~to_unicode&#45;&gt;proc~to_uni</title>
<path fill="none" stroke="black" stroke-dasharray="5,2" d="M530.776,-29.2772C547.965,-26.276 569.088,-22.5878 586.878,-19.4816"/>
<polygon fill="black" stroke="black" points="587.664,-22.8974 596.913,-17.7295 586.46,-16.0017 587.664,-22.8974"/>
</g>
</g>
</svg>
