<?xml version="1.0" encoding="UTF-8" standalone="no"?>
<!DOCTYPE svg PUBLIC "-//W3C//DTD SVG 1.1//EN"
 "http://www.w3.org/Graphics/SVG/1.1/DTD/svg11.dtd">
<!-- Generated by graphviz version 2.26.3 (20100126.1600)
 -->
<!-- Title: proc~~wrap_json_value_create_double~~CallsGraph Pages: 1 -->
<svg width="622pt" height="166pt"
 viewBox="0.00 0.00 622.00 166.00" xmlns="http://www.w3.org/2000/svg" xmlns:xlink="http://www.w3.org/1999/xlink">
<g id="graph1" class="graph" transform="scale(1 1) rotate(0) translate(4 162)">
<title>proc~~wrap_json_value_create_double~~CallsGraph</title>
<polygon fill="white" stroke="white" points="-4,5 -4,-162 619,-162 619,5 -4,5"/>
<!-- proc~wrap_json_value_create_double -->
<g id="node1" class="node"><title>proc~wrap_json_value_create_double</title>
<polygon fill="none" stroke="black" points="167,-92 1,-92 1,-66 167,-66 167,-92"/>
<text text-anchor="middle" x="84" y="-76.55" font-family="Helvetica,sans-Serif" font-size="10.50">wrap_json_value_create_double</text>
</g>
<!-- interface~to_unicode -->
<g id="node2" class="node"><title>interface~to_unicode</title>
<a xlink:href="../interface/to_unicode.html" xlink:title="to_unicode">
<polygon fill="#a7506f" stroke="#a7506f" points="305,-114 241,-114 241,-88 305,-88 305,-114"/>
<text text-anchor="middle" x="273" y="-98.55" font-family="Helvetica,sans-Serif" font-size="10.50" fill="white">to_unicode</text>
</a>
</g>
<!-- proc~wrap_json_value_create_double&#45;&gt;interface~to_unicode -->
<g id="edge12" class="edge"><title>proc~wrap_json_value_create_double&#45;&gt;interface~to_unicode</title>
<path fill="none" stroke="black" d="M167.724,-88.7456C189.284,-91.2553 211.603,-93.8532 230.111,-96.0076"/>
<polygon fill="black" stroke="black" points="229.915,-99.5083 240.252,-97.1881 230.724,-92.5553 229.915,-99.5083"/>
</g>
<!-- proc~json_value_create_double -->
<g id="node3" class="node"><title>proc~json_value_create_double</title>
<a xlink:href="../proc/json_value_create_double.html" xlink:title="json_value_create_double">
<polygon fill="#d9534f" stroke="#d9534f" points="342,-70 204,-70 204,-44 342,-44 342,-70"/>
<text text-anchor="middle" x="273" y="-54.55" font-family="Helvetica,sans-Serif" font-size="10.50" fill="white">json_value_create_double</text>
</a>
</g>
<!-- proc~wrap_json_value_create_double&#45;&gt;proc~json_value_create_double -->
<g id="edge14" class="edge"><title>proc~wrap_json_value_create_double&#45;&gt;proc~json_value_create_double</title>
<path fill="none" stroke="black" d="M167.724,-69.2544C176.382,-68.2466 185.162,-67.2245 193.769,-66.2227"/>
<polygon fill="black" stroke="black" points="194.247,-69.6908 203.775,-65.0579 193.437,-62.7377 194.247,-69.6908"/>
</g>
<!-- proc~to_uni_vec -->
<g id="node4" class="node"><title>proc~to_uni_vec</title>
<a xlink:href="../proc/to_uni_vec.html" xlink:title="to_uni_vec">
<polygon fill="#d94e8f" stroke="#d94e8f" points="460,-158 396,-158 396,-132 460,-132 460,-158"/>
<text text-anchor="middle" x="428" y="-142.55" font-family="Helvetica,sans-Serif" font-size="10.50" fill="white">to_uni_vec</text>
</a>
</g>
<!-- interface~to_unicode&#45;&gt;proc~to_uni_vec -->
<g id="edge2" class="edge"><title>interface~to_unicode&#45;&gt;proc~to_uni_vec</title>
<path fill="none" stroke="black" stroke-dasharray="5,2" d="M305.872,-110.331C329.328,-116.99 361.06,-125.998 386.299,-133.162"/>
<polygon fill="black" stroke="black" points="385.396,-136.544 395.972,-135.908 387.308,-129.81 385.396,-136.544"/>
</g>
<!-- proc~to_uni -->
<g id="node5" class="node"><title>proc~to_uni</title>
<a xlink:href="../proc/to_uni.html" xlink:title="to_uni">
<polygon fill="#d94e8f" stroke="#d94e8f" points="455,-114 401,-114 401,-88 455,-88 455,-114"/>
<text text-anchor="middle" x="428" y="-98.55" font-family="Helvetica,sans-Serif" font-size="10.50" fill="white">to_uni</text>
</a>
</g>
<!-- interface~to_unicode&#45;&gt;proc~to_uni -->
<g id="edge4" class="edge"><title>interface~to_unicode&#45;&gt;proc~to_uni</title>
<path fill="none" stroke="black" stroke-dasharray="5,2" d="M305.872,-101C330.709,-101 364.822,-101 390.683,-101"/>
<polygon fill="black" stroke="black" points="390.857,-104.5 400.857,-101 390.857,-97.5001 390.857,-104.5"/>
</g>
<!-- proc~json_value_create -->
<g id="node8" class="node"><title>proc~json_value_create</title>
<a xlink:href="../proc/json_value_create.html" xlink:title="json_value_create">
<polygon fill="#d9534f" stroke="#d9534f" points="478,-70 378,-70 378,-44 478,-44 478,-70"/>
<text text-anchor="middle" x="428" y="-54.55" font-family="Helvetica,sans-Serif" font-size="10.50" fill="white">json_value_create</text>
</a>
</g>
<!-- proc~json_value_create_double&#45;&gt;proc~json_value_create -->
<g id="edge8" class="edge"><title>proc~json_value_create_double&#45;&gt;proc~json_value_create</title>
<path fill="none" stroke="black" d="M342.34,-57C350.728,-57 359.244,-57 367.491,-57"/>
<polygon fill="black" stroke="black" points="367.763,-60.5001 377.763,-57 367.763,-53.5001 367.763,-60.5001"/>
</g>
<!-- proc~to_double -->
<g id="node9" class="node"><title>proc~to_double</title>
<a xlink:href="../proc/to_double.html" xlink:title="to_double">
<polygon fill="#d9534f" stroke="#d9534f" points="458,-26 398,-26 398,-1.24345e-14 458,-3.55271e-15 458,-26"/>
<text text-anchor="middle" x="428" y="-10.55" font-family="Helvetica,sans-Serif" font-size="10.50" fill="white">to_double</text>
</a>
</g>
<!-- proc~json_value_create_double&#45;&gt;proc~to_double -->
<g id="edge10" class="edge"><title>proc~json_value_create_double&#45;&gt;proc~to_double</title>
<path fill="none" stroke="black" d="M319.085,-43.9177C341.118,-37.6632 367.228,-30.2513 388.36,-24.2526"/>
<polygon fill="black" stroke="black" points="389.325,-27.6169 397.99,-21.5191 387.414,-20.883 389.325,-27.6169"/>
</g>
<!-- proc~destroy_json_data -->
<g id="node10" class="node"><title>proc~destroy_json_data</title>
<a xlink:href="../proc/destroy_json_data.html" xlink:title="destroy_json_data">
<polygon fill="#d9534f" stroke="#d9534f" points="614,-26 514,-26 514,-1.24345e-14 614,-3.55271e-15 614,-26"/>
<text text-anchor="middle" x="564" y="-10.55" font-family="Helvetica,sans-Serif" font-size="10.50" fill="white">destroy_json_data</text>
</a>
</g>
<!-- proc~to_double&#45;&gt;proc~destroy_json_data -->
<g id="edge6" class="edge"><title>proc~to_double&#45;&gt;proc~destroy_json_data</title>
<path fill="none" stroke="black" d="M458.183,-13C471.599,-13 487.896,-13 503.639,-13"/>
<polygon fill="black" stroke="black" points="503.869,-16.5001 513.869,-13 503.869,-9.5001 503.869,-16.5001"/>
</g>
</g>
</svg>
