<?xml version="1.0" encoding="UTF-8" standalone="no"?>
<!DOCTYPE svg PUBLIC "-//W3C//DTD SVG 1.1//EN"
 "http://www.w3.org/Graphics/SVG/1.1/DTD/svg11.dtd">
<!-- Generated by graphviz version 2.26.3 (20100126.1600)
 -->
<!-- Title: proc~~integer_to_string~~CalledByGraph Pages: 1 -->
<svg width="641pt" height="188pt"
 viewBox="0.00 0.00 641.00 187.73" xmlns="http://www.w3.org/2000/svg" xmlns:xlink="http://www.w3.org/1999/xlink">
<g id="graph1" class="graph" transform="scale(0.486343 0.486343) rotate(0) translate(4 382)">
<title>proc~~integer_to_string~~CalledByGraph</title>
<polygon fill="white" stroke="white" points="-4,5 -4,-382 1315,-382 1315,5 -4,5"/>
<!-- proc~integer_to_string -->
<g id="node1" class="node"><title>proc~integer_to_string</title>
<polygon fill="none" stroke="black" points="1309,-183 1217,-183 1217,-157 1309,-157 1309,-183"/>
<text text-anchor="middle" x="1263" y="-167.55" font-family="Helvetica,sans-Serif" font-size="10.50">integer_to_string</text>
</g>
<!-- proc~annotate_invalid_json -->
<g id="node2" class="node"><title>proc~annotate_invalid_json</title>
<a xlink:href="../proc/annotate_invalid_json.html" xlink:title="annotate_invalid_json">
<polygon fill="#d9534f" stroke="#d9534f" points="962,-115 846,-115 846,-89 962,-89 962,-115"/>
<text text-anchor="middle" x="904" y="-99.55" font-family="Helvetica,sans-Serif" font-size="10.50" fill="white">annotate_invalid_json</text>
</a>
</g>
<!-- proc~annotate_invalid_json&#45;&gt;proc~integer_to_string -->
<g id="edge92" class="edge"><title>proc~annotate_invalid_json&#45;&gt;proc~integer_to_string</title>
<path fill="none" stroke="black" d="M930.388,-88.9004C948.824,-80.5042 974.286,-70.3856 998,-66 1033.84,-59.3724 1044.77,-56.6874 1080,-66 1141.94,-82.3721 1204.88,-125.102 1238.39,-150.405"/>
<polygon fill="black" stroke="black" points="1236.58,-153.43 1246.65,-156.74 1240.84,-147.876 1236.58,-153.43"/>
</g>
<!-- proc~push_char -->
<g id="node3" class="node"><title>proc~push_char</title>
<a xlink:href="../proc/push_char.html" xlink:title="push_char">
<polygon fill="#d9534f" stroke="#d9534f" points="1179,-183 1117,-183 1117,-157 1179,-157 1179,-183"/>
<text text-anchor="middle" x="1148" y="-167.55" font-family="Helvetica,sans-Serif" font-size="10.50" fill="white">push_char</text>
</a>
</g>
<!-- proc~push_char&#45;&gt;proc~integer_to_string -->
<g id="edge94" class="edge"><title>proc~push_char&#45;&gt;proc~integer_to_string</title>
<path fill="none" stroke="black" d="M1179.73,-170C1187.94,-170 1197.04,-170 1206.11,-170"/>
<polygon fill="black" stroke="black" points="1206.3,-173.5 1216.3,-170 1206.3,-166.5 1206.3,-173.5"/>
</g>
<!-- proc~json_value_print -->
<g id="node4" class="node"><title>proc~json_value_print</title>
<a xlink:href="../proc/json_value_print.html" xlink:title="json_value_print">
<polygon fill="#d9534f" stroke="#d9534f" points="806,-290 716,-290 716,-264 806,-264 806,-290"/>
<text text-anchor="middle" x="761" y="-274.55" font-family="Helvetica,sans-Serif" font-size="10.50" fill="white">json_value_print</text>
</a>
</g>
<!-- proc~json_value_print&#45;&gt;proc~integer_to_string -->
<g id="edge96" class="edge"><title>proc~json_value_print&#45;&gt;proc~integer_to_string</title>
<path fill="none" stroke="black" d="M806.721,-278.77C869.405,-280.06 985.072,-278.356 1080,-254 1136.57,-239.485 1197.25,-208.139 1232.57,-188.113"/>
<polygon fill="black" stroke="black" points="1234.49,-191.05 1241.42,-183.035 1231,-184.98 1234.49,-191.05"/>
</g>
<!-- proc~json_value_print&#45;&gt;proc~json_value_print -->
<g id="edge88" class="edge"><title>proc~json_value_print&#45;&gt;proc~json_value_print</title>
<path fill="none" stroke="black" d="M736.975,-290.06C729.695,-299.1 737.703,-308 761,-308 775.197,-308 783.716,-304.695 786.558,-300.067"/>
<polygon fill="black" stroke="black" points="789.999,-299.415 785.025,-290.06 783.08,-300.475 789.999,-299.415"/>
</g>
<!-- proc~json_parse_file -->
<g id="node5" class="node"><title>proc~json_parse_file</title>
<a xlink:href="../proc/json_parse_file.html" xlink:title="json_parse_file">
<polygon fill="#d9534f" stroke="#d9534f" points="803,-159 719,-159 719,-133 803,-133 803,-159"/>
<text text-anchor="middle" x="761" y="-143.55" font-family="Helvetica,sans-Serif" font-size="10.50" fill="white">json_parse_file</text>
</a>
</g>
<!-- proc~json_parse_file&#45;&gt;proc~annotate_invalid_json -->
<g id="edge24" class="edge"><title>proc~json_parse_file&#45;&gt;proc~annotate_invalid_json</title>
<path fill="none" stroke="black" d="M803.518,-132.918C818.653,-128.261 835.875,-122.962 851.733,-118.082"/>
<polygon fill="black" stroke="black" points="852.871,-121.394 861.399,-115.108 850.812,-114.704 852.871,-121.394"/>
</g>
<!-- proc~parse_value -->
<g id="node29" class="node"><title>proc~parse_value</title>
<a xlink:href="../proc/parse_value.html" xlink:title="parse_value">
<polygon fill="#d9534f" stroke="#d9534f" points="939,-162 869,-162 869,-136 939,-136 939,-162"/>
<text text-anchor="middle" x="904" y="-146.55" font-family="Helvetica,sans-Serif" font-size="10.50" fill="white">parse_value</text>
</a>
</g>
<!-- proc~json_parse_file&#45;&gt;proc~parse_value -->
<g id="edge38" class="edge"><title>proc~json_parse_file&#45;&gt;proc~parse_value</title>
<path fill="none" stroke="black" d="M803.518,-146.892C820.723,-147.253 840.624,-147.67 858.153,-148.038"/>
<polygon fill="black" stroke="black" points="858.09,-151.538 868.162,-148.248 858.237,-144.539 858.09,-151.538"/>
</g>
<!-- proc~json_parse_string -->
<g id="node6" class="node"><title>proc~json_parse_string</title>
<a xlink:href="../proc/json_parse_string.html" xlink:title="json_parse_string">
<polygon fill="#d9534f" stroke="#d9534f" points="809,-115 713,-115 713,-89 809,-89 809,-115"/>
<text text-anchor="middle" x="761" y="-99.55" font-family="Helvetica,sans-Serif" font-size="10.50" fill="white">json_parse_string</text>
</a>
</g>
<!-- proc~json_parse_string&#45;&gt;proc~annotate_invalid_json -->
<g id="edge26" class="edge"><title>proc~json_parse_string&#45;&gt;proc~annotate_invalid_json</title>
<path fill="none" stroke="black" d="M809.813,-102C818.129,-102 826.901,-102 835.613,-102"/>
<polygon fill="black" stroke="black" points="835.779,-105.5 845.779,-102 835.779,-98.5001 835.779,-105.5"/>
</g>
<!-- proc~json_parse_string&#45;&gt;proc~parse_value -->
<g id="edge34" class="edge"><title>proc~json_parse_string&#45;&gt;proc~parse_value</title>
<path fill="none" stroke="black" d="M800.833,-115.092C818.767,-120.986 840.031,-127.975 858.58,-134.072"/>
<polygon fill="black" stroke="black" points="857.691,-137.464 868.284,-137.261 859.877,-130.814 857.691,-137.464"/>
</g>
<!-- interface~json_parse -->
<g id="node7" class="node"><title>interface~json_parse</title>
<a xlink:href="../interface/json_parse.html" xlink:title="json_parse">
<polygon fill="#a7506f" stroke="#a7506f" points="473,-114 409,-114 409,-88 473,-88 473,-114"/>
<text text-anchor="middle" x="441" y="-98.55" font-family="Helvetica,sans-Serif" font-size="10.50" fill="white">json_parse</text>
</a>
</g>
<!-- interface~json_parse&#45;&gt;proc~json_parse_file -->
<g id="edge16" class="edge"><title>interface~json_parse&#45;&gt;proc~json_parse_file</title>
<path fill="none" stroke="black" stroke-dasharray="5,2" d="M473.724,-110.641C492.882,-115.938 517.632,-122.188 540,-126 597.077,-135.727 663.307,-140.927 708.271,-143.562"/>
<polygon fill="black" stroke="black" points="708.195,-147.063 718.377,-144.132 708.59,-140.074 708.195,-147.063"/>
</g>
<!-- interface~json_parse&#45;&gt;proc~json_parse_string -->
<g id="edge22" class="edge"><title>interface~json_parse&#45;&gt;proc~json_parse_string</title>
<path fill="none" stroke="black" stroke-dasharray="5,2" d="M473.774,-93.0905C492.949,-88.8706 517.699,-84.1206 540,-82 600.173,-76.278 615.959,-75.0315 676,-82 685.179,-83.0653 694.805,-84.7571 704.146,-86.7168"/>
<polygon fill="black" stroke="black" points="703.615,-90.1838 714.135,-88.9313 705.13,-83.3497 703.615,-90.1838"/>
</g>
<!-- proc~wrap_json_parse_string -->
<g id="node23" class="node"><title>proc~wrap_json_parse_string</title>
<a xlink:href="../proc/wrap_json_parse_string.html" xlink:title="wrap_json_parse_string">
<polygon fill="#d9534f" stroke="#d9534f" points="671,-117 545,-117 545,-91 671,-91 671,-117"/>
<text text-anchor="middle" x="608" y="-101.55" font-family="Helvetica,sans-Serif" font-size="10.50" fill="white">wrap_json_parse_string</text>
</a>
</g>
<!-- interface~json_parse&#45;&gt;proc~wrap_json_parse_string -->
<g id="edge18" class="edge"><title>interface~json_parse&#45;&gt;proc~wrap_json_parse_string</title>
<path fill="none" stroke="black" stroke-dasharray="5,2" d="M473.596,-101.586C490.968,-101.898 513.094,-102.295 534.355,-102.677"/>
<polygon fill="black" stroke="black" points="534.308,-106.177 544.369,-102.857 534.434,-99.1778 534.308,-106.177"/>
</g>
<!-- proc~test_14 -->
<g id="node8" class="node"><title>proc~test_14</title>
<a xlink:href="../proc/test_14.html" xlink:title="test_14">
<polygon fill="#d9534f" stroke="#d9534f" points="300,-114 246,-114 246,-88 300,-88 300,-114"/>
<text text-anchor="middle" x="273" y="-98.55" font-family="Helvetica,sans-Serif" font-size="10.50" fill="white">test_14</text>
</a>
</g>
<!-- proc~test_14&#45;&gt;interface~json_parse -->
<g id="edge8" class="edge"><title>proc~test_14&#45;&gt;interface~json_parse</title>
<path fill="none" stroke="black" d="M300.366,-101C326.93,-101 367.639,-101 398.434,-101"/>
<polygon fill="black" stroke="black" points="398.463,-104.5 408.463,-101 398.463,-97.5001 398.463,-104.5"/>
</g>
<!-- interface~json_print -->
<g id="node47" class="node"><title>interface~json_print</title>
<a xlink:href="../interface/json_print.html" xlink:title="json_print">
<polygon fill="#a7506f" stroke="#a7506f" points="470,-246 412,-246 412,-220 470,-220 470,-246"/>
<text text-anchor="middle" x="441" y="-230.55" font-family="Helvetica,sans-Serif" font-size="10.50" fill="white">json_print</text>
</a>
</g>
<!-- proc~test_14&#45;&gt;interface~json_print -->
<g id="edge64" class="edge"><title>proc~test_14&#45;&gt;interface~json_print</title>
<path fill="none" stroke="black" d="M300.333,-106.185C313.637,-109.56 329.43,-114.884 342,-123 378.333,-146.459 409.688,-186.626 426.903,-211.387"/>
<polygon fill="black" stroke="black" points="424.073,-213.449 432.589,-219.753 429.863,-209.514 424.073,-213.449"/>
</g>
<!-- proc~test_8 -->
<g id="node9" class="node"><title>proc~test_8</title>
<a xlink:href="../proc/test_8.html" xlink:title="test_8">
<polygon fill="#d9534f" stroke="#d9534f" points="300,-158 246,-158 246,-132 300,-132 300,-158"/>
<text text-anchor="middle" x="273" y="-142.55" font-family="Helvetica,sans-Serif" font-size="10.50" fill="white">test_8</text>
</a>
</g>
<!-- proc~test_8&#45;&gt;interface~json_parse -->
<g id="edge10" class="edge"><title>proc~test_8&#45;&gt;interface~json_parse</title>
<path fill="none" stroke="black" d="M300.366,-137.833C326.93,-130.875 367.639,-120.214 398.434,-112.148"/>
<polygon fill="black" stroke="black" points="399.676,-115.441 408.463,-109.522 397.903,-108.669 399.676,-115.441"/>
</g>
<!-- proc~test_8&#45;&gt;interface~json_print -->
<g id="edge66" class="edge"><title>proc~test_8&#45;&gt;interface~json_print</title>
<path fill="none" stroke="black" d="M300.211,-151.775C313.191,-155.48 328.743,-160.623 342,-167 368.918,-179.947 397.013,-199.326 416.367,-213.739"/>
<polygon fill="black" stroke="black" points="414.265,-216.537 424.353,-219.775 418.486,-210.953 414.265,-216.537"/>
</g>
<!-- proc~json_file_load -->
<g id="node10" class="node"><title>proc~json_file_load</title>
<a xlink:href="../proc/json_file_load.html" xlink:title="json_file_load">
<polygon fill="#d9534f" stroke="#d9534f" points="312,-26 234,-26 234,-1.24345e-14 312,-3.55271e-15 312,-26"/>
<text text-anchor="middle" x="273" y="-10.55" font-family="Helvetica,sans-Serif" font-size="10.50" fill="white">json_file_load</text>
</a>
</g>
<!-- proc~json_file_load&#45;&gt;interface~json_parse -->
<g id="edge12" class="edge"><title>proc~json_file_load&#45;&gt;interface~json_parse</title>
<path fill="none" stroke="black" d="M312.059,-23.3644C322.036,-26.5736 332.595,-30.4765 342,-35 368.918,-47.9474 397.013,-67.3258 416.367,-81.7391"/>
<polygon fill="black" stroke="black" points="414.265,-84.5374 424.353,-87.7748 418.486,-78.953 414.265,-84.5374"/>
</g>
<!-- proc~json_file_load_from_string -->
<g id="node11" class="node"><title>proc~json_file_load_from_string</title>
<a xlink:href="../proc/json_file_load_from_string.html" xlink:title="json_file_load_from_string">
<polygon fill="#d9534f" stroke="#d9534f" points="342,-70 204,-70 204,-44 342,-44 342,-70"/>
<text text-anchor="middle" x="273" y="-54.55" font-family="Helvetica,sans-Serif" font-size="10.50" fill="white">json_file_load_from_string</text>
</a>
</g>
<!-- proc~json_file_load_from_string&#45;&gt;interface~json_parse -->
<g id="edge14" class="edge"><title>proc~json_file_load_from_string&#45;&gt;interface~json_parse</title>
<path fill="none" stroke="black" d="M322.951,-70.0823C347.047,-76.3934 375.644,-83.883 398.656,-89.9099"/>
<polygon fill="black" stroke="black" points="397.912,-93.333 408.473,-92.4809 399.686,-86.5614 397.912,-93.333"/>
</g>
<!-- program~jf_test_14 -->
<g id="node12" class="node"><title>program~jf_test_14</title>
<a xlink:href="../program/jf_test_14.html" xlink:title="jf_test_14">
<polygon fill="#f0ad4e" stroke="#f0ad4e" points="113,-114 55,-114 55,-88 113,-88 113,-114"/>
<text text-anchor="middle" x="84" y="-98.55" font-family="Helvetica,sans-Serif" font-size="10.50" fill="white">jf_test_14</text>
</a>
</g>
<!-- program~jf_test_14&#45;&gt;proc~test_14 -->
<g id="edge2" class="edge"><title>program~jf_test_14&#45;&gt;proc~test_14</title>
<path fill="none" stroke="black" d="M113.531,-101C146.509,-101 199.947,-101 235.765,-101"/>
<polygon fill="black" stroke="black" points="235.82,-104.5 245.82,-101 235.82,-97.5001 235.82,-104.5"/>
</g>
<!-- program~jf_test_8 -->
<g id="node14" class="node"><title>program~jf_test_8</title>
<a xlink:href="../program/jf_test_8.html" xlink:title="jf_test_8">
<polygon fill="#f0ad4e" stroke="#f0ad4e" points="111,-158 57,-158 57,-132 111,-132 111,-158"/>
<text text-anchor="middle" x="84" y="-142.55" font-family="Helvetica,sans-Serif" font-size="10.50" fill="white">jf_test_8</text>
</a>
</g>
<!-- program~jf_test_8&#45;&gt;proc~test_8 -->
<g id="edge4" class="edge"><title>program~jf_test_8&#45;&gt;proc~test_8</title>
<path fill="none" stroke="black" d="M111.079,-145C143.78,-145 198.956,-145 235.676,-145"/>
<polygon fill="black" stroke="black" points="235.971,-148.5 245.971,-145 235.971,-141.5 235.971,-148.5"/>
</g>
<!-- proc~wrap_json_file_load_from_string -->
<g id="node16" class="node"><title>proc~wrap_json_file_load_from_string</title>
<a xlink:href="../proc/wrap_json_file_load_from_string.html" xlink:title="wrap_json_file_load_from_string">
<polygon fill="#d9534f" stroke="#d9534f" points="167,-70 1,-70 1,-44 167,-44 167,-70"/>
<text text-anchor="middle" x="84" y="-54.55" font-family="Helvetica,sans-Serif" font-size="10.50" fill="white">wrap_json_file_load_from_string</text>
</a>
</g>
<!-- proc~wrap_json_file_load_from_string&#45;&gt;proc~json_file_load_from_string -->
<g id="edge6" class="edge"><title>proc~wrap_json_file_load_from_string&#45;&gt;proc~json_file_load_from_string</title>
<path fill="none" stroke="black" d="M167.724,-57C176.382,-57 185.162,-57 193.769,-57"/>
<polygon fill="black" stroke="black" points="193.775,-60.5001 203.775,-57 193.775,-53.5001 193.775,-60.5001"/>
</g>
<!-- proc~wrap_json_parse_string&#45;&gt;proc~json_parse_string -->
<g id="edge20" class="edge"><title>proc~wrap_json_parse_string&#45;&gt;proc~json_parse_string</title>
<path fill="none" stroke="black" d="M671.557,-103.169C681.672,-103.037 692.098,-102.901 702.1,-102.77"/>
<polygon fill="black" stroke="black" points="702.385,-106.267 712.339,-102.636 702.294,-99.2672 702.385,-106.267"/>
</g>
<!-- proc~parse_value&#45;&gt;proc~push_char -->
<g id="edge44" class="edge"><title>proc~parse_value&#45;&gt;proc~push_char</title>
<path fill="none" stroke="black" d="M939.783,-159.898C957.173,-164.641 978.484,-169.647 998,-172 1034.18,-176.362 1043.56,-172.536 1080,-172 1088.4,-171.877 1097.37,-171.667 1105.96,-171.43"/>
<polygon fill="black" stroke="black" points="1106.28,-174.922 1116.18,-171.129 1106.08,-167.925 1106.28,-174.922"/>
</g>
<!-- proc~parse_number -->
<g id="node30" class="node"><title>proc~parse_number</title>
<a xlink:href="../proc/parse_number.html" xlink:title="parse_number">
<polygon fill="#d9534f" stroke="#d9534f" points="1080,-163 998,-163 998,-137 1080,-137 1080,-163"/>
<text text-anchor="middle" x="1039" y="-147.55" font-family="Helvetica,sans-Serif" font-size="10.50" fill="white">parse_number</text>
</a>
</g>
<!-- proc~parse_value&#45;&gt;proc~parse_number -->
<g id="edge42" class="edge"><title>proc~parse_value&#45;&gt;proc~parse_number</title>
<path fill="none" stroke="black" d="M939.823,-149.265C954.433,-149.374 971.603,-149.501 987.514,-149.619"/>
<polygon fill="black" stroke="black" points="987.722,-153.12 997.748,-149.694 987.774,-146.12 987.722,-153.12"/>
</g>
<!-- proc~parse_object -->
<g id="node31" class="node"><title>proc~parse_object</title>
<a xlink:href="../proc/parse_object.html" xlink:title="parse_object">
<polygon fill="#d9534f" stroke="#d9534f" points="1076,-101 1002,-101 1002,-75 1076,-75 1076,-101"/>
<text text-anchor="middle" x="1039" y="-85.55" font-family="Helvetica,sans-Serif" font-size="10.50" fill="white">parse_object</text>
</a>
</g>
<!-- proc~parse_value&#45;&gt;proc~parse_object -->
<g id="edge28" class="edge"><title>proc~parse_value&#45;&gt;proc~parse_object</title>
<path fill="none" stroke="black" d="M917.88,-135.968C929.662,-129.164 946.996,-121.739 962,-115 971.895,-110.555 982.456,-105.695 992.485,-101.237"/>
<polygon fill="black" stroke="black" points="994.143,-104.332 1001.9,-97.1135 991.334,-97.9206 994.143,-104.332"/>
</g>
<!-- proc~parse_array -->
<g id="node32" class="node"><title>proc~parse_array</title>
<a xlink:href="../proc/parse_array.html" xlink:title="parse_array">
<polygon fill="#d9534f" stroke="#d9534f" points="1074,-245 1004,-245 1004,-219 1074,-219 1074,-245"/>
<text text-anchor="middle" x="1039" y="-229.55" font-family="Helvetica,sans-Serif" font-size="10.50" fill="white">parse_array</text>
</a>
</g>
<!-- proc~parse_value&#45;&gt;proc~parse_array -->
<g id="edge32" class="edge"><title>proc~parse_value&#45;&gt;proc~parse_array</title>
<path fill="none" stroke="black" d="M934.634,-162.073C959.495,-175.871 993.981,-197.263 1016.39,-212.907"/>
<polygon fill="black" stroke="black" points="1014.46,-215.827 1024.63,-218.802 1018.53,-210.135 1014.46,-215.827"/>
</g>
<!-- proc~parse_number&#45;&gt;proc~push_char -->
<g id="edge46" class="edge"><title>proc~parse_number&#45;&gt;proc~push_char</title>
<path fill="none" stroke="black" d="M1080.21,-157.561C1088.69,-159.118 1097.64,-160.759 1106.15,-162.321"/>
<polygon fill="black" stroke="black" points="1105.78,-165.812 1116.25,-164.174 1107.05,-158.927 1105.78,-165.812"/>
</g>
<!-- proc~parse_object&#45;&gt;proc~parse_value -->
<g id="edge36" class="edge"><title>proc~parse_object&#45;&gt;proc~parse_value</title>
<path fill="none" stroke="black" d="M1025.43,-101.044C1010.09,-110.806 984.346,-122.963 962,-133 957.837,-134.87 953.494,-136.793 949.14,-138.663"/>
<polygon fill="black" stroke="black" points="947.529,-135.543 939.656,-142.633 950.232,-142 947.529,-135.543"/>
</g>
<!-- proc~parse_object&#45;&gt;proc~parse_object -->
<g id="edge30" class="edge"><title>proc~parse_object&#45;&gt;proc~parse_object</title>
<path fill="none" stroke="black" d="M1020.73,-101.06C1015.19,-110.1 1021.28,-119 1039,-119 1049.8,-119 1056.28,-115.695 1058.44,-111.067"/>
<polygon fill="black" stroke="black" points="1061.91,-110.588 1057.27,-101.06 1054.95,-111.398 1061.91,-110.588"/>
</g>
<!-- proc~parse_array&#45;&gt;proc~parse_value -->
<g id="edge40" class="edge"><title>proc~parse_array&#45;&gt;proc~parse_value</title>
<path fill="none" stroke="black" d="M1008.31,-218.895C983.38,-205.056 948.8,-183.599 926.412,-167.956"/>
<polygon fill="black" stroke="black" points="928.359,-165.045 918.192,-162.065 924.281,-170.735 928.359,-165.045"/>
</g>
<!-- proc~json_print_1 -->
<g id="node43" class="node"><title>proc~json_print_1</title>
<a xlink:href="../proc/json_print_1.html" xlink:title="json_print_1">
<polygon fill="#d9534f" stroke="#d9534f" points="643,-290 573,-290 573,-264 643,-264 643,-290"/>
<text text-anchor="middle" x="608" y="-274.55" font-family="Helvetica,sans-Serif" font-size="10.50" fill="white">json_print_1</text>
</a>
</g>
<!-- proc~json_print_1&#45;&gt;proc~json_value_print -->
<g id="edge82" class="edge"><title>proc~json_print_1&#45;&gt;proc~json_value_print</title>
<path fill="none" stroke="black" d="M643.872,-277C662.157,-277 684.805,-277 705.298,-277"/>
<polygon fill="black" stroke="black" points="705.469,-280.5 715.469,-277 705.469,-273.5 705.469,-280.5"/>
</g>
<!-- proc~json_file_print_1 -->
<g id="node44" class="node"><title>proc~json_file_print_1</title>
<a xlink:href="../proc/json_file_print_1.html" xlink:title="json_file_print_1">
<polygon fill="#d9534f" stroke="#d9534f" points="653,-378 563,-378 563,-352 653,-352 653,-378"/>
<text text-anchor="middle" x="608" y="-362.55" font-family="Helvetica,sans-Serif" font-size="10.50" fill="white">json_file_print_1</text>
</a>
</g>
<!-- proc~json_file_print_1&#45;&gt;proc~json_value_print -->
<g id="edge84" class="edge"><title>proc~json_file_print_1&#45;&gt;proc~json_value_print</title>
<path fill="none" stroke="black" d="M653.53,-352.704C661.221,-349.945 668.98,-346.713 676,-343 699.486,-330.576 723.109,-311.588 739.469,-297.163"/>
<polygon fill="black" stroke="black" points="742.231,-299.386 747.323,-290.095 737.549,-294.183 742.231,-299.386"/>
</g>
<!-- proc~json_value_to_string -->
<g id="node45" class="node"><title>proc~json_value_to_string</title>
<a xlink:href="../proc/json_value_to_string.html" xlink:title="json_value_to_string">
<polygon fill="#d9534f" stroke="#d9534f" points="663,-334 553,-334 553,-308 663,-308 663,-334"/>
<text text-anchor="middle" x="608" y="-318.55" font-family="Helvetica,sans-Serif" font-size="10.50" fill="white">json_value_to_string</text>
</a>
</g>
<!-- proc~json_value_to_string&#45;&gt;proc~json_value_print -->
<g id="edge86" class="edge"><title>proc~json_value_to_string&#45;&gt;proc~json_value_print</title>
<path fill="none" stroke="black" d="M653.491,-307.918C669.911,-303.195 688.626,-297.813 705.788,-292.878"/>
<polygon fill="black" stroke="black" points="707.041,-296.159 715.684,-290.032 705.107,-289.432 707.041,-296.159"/>
</g>
<!-- proc~json_file_print_to_console -->
<g id="node46" class="node"><title>proc~json_file_print_to_console</title>
<a xlink:href="../proc/json_file_print_to_console.html" xlink:title="json_file_print_to_console">
<polygon fill="#d9534f" stroke="#d9534f" points="676,-202 540,-202 540,-176 676,-176 676,-202"/>
<text text-anchor="middle" x="608" y="-186.55" font-family="Helvetica,sans-Serif" font-size="10.50" fill="white">json_file_print_to_console</text>
</a>
</g>
<!-- proc~json_file_print_to_console&#45;&gt;proc~json_value_print -->
<g id="edge90" class="edge"><title>proc~json_file_print_to_console&#45;&gt;proc~json_value_print</title>
<path fill="none" stroke="black" d="M655.694,-202.085C662.669,-204.665 669.639,-207.635 676,-211 699.486,-223.424 723.109,-242.412 739.469,-256.837"/>
<polygon fill="black" stroke="black" points="737.549,-259.817 747.323,-263.905 742.231,-254.614 737.549,-259.817"/>
</g>
<!-- interface~json_print&#45;&gt;proc~json_print_1 -->
<g id="edge74" class="edge"><title>interface~json_print&#45;&gt;proc~json_print_1</title>
<path fill="none" stroke="black" stroke-dasharray="5,2" d="M470.856,-240.866C496.285,-247.566 533.225,-257.299 562.361,-264.975"/>
<polygon fill="black" stroke="black" points="561.749,-268.433 572.31,-267.597 563.532,-261.664 561.749,-268.433"/>
</g>
<!-- proc~json_print_2 -->
<g id="node52" class="node"><title>proc~json_print_2</title>
<a xlink:href="../proc/json_print_2.html" xlink:title="json_print_2">
<polygon fill="#d9534f" stroke="#d9534f" points="643,-246 573,-246 573,-220 643,-220 643,-246"/>
<text text-anchor="middle" x="608" y="-230.55" font-family="Helvetica,sans-Serif" font-size="10.50" fill="white">json_print_2</text>
</a>
</g>
<!-- interface~json_print&#45;&gt;proc~json_print_2 -->
<g id="edge54" class="edge"><title>interface~json_print&#45;&gt;proc~json_print_2</title>
<path fill="none" stroke="black" stroke-dasharray="5,2" d="M470.856,-227.684C496.174,-226.087 532.902,-225.824 561.979,-226.895"/>
<polygon fill="black" stroke="black" points="562.166,-230.406 572.31,-227.35 562.474,-223.413 562.166,-230.406"/>
</g>
<!-- program~example2 -->
<g id="node48" class="node"><title>program~example2</title>
<a xlink:href="../program/example2.html" xlink:title="example2">
<polygon fill="#f0ad4e" stroke="#f0ad4e" points="302,-202 244,-202 244,-176 302,-176 302,-202"/>
<text text-anchor="middle" x="273" y="-186.55" font-family="Helvetica,sans-Serif" font-size="10.50" fill="white">example2</text>
</a>
</g>
<!-- program~example2&#45;&gt;interface~json_print -->
<g id="edge58" class="edge"><title>program~example2&#45;&gt;interface~json_print</title>
<path fill="none" stroke="black" d="M302.648,-196.765C330.153,-203.969 371.284,-214.741 401.553,-222.669"/>
<polygon fill="black" stroke="black" points="400.806,-226.091 411.366,-225.239 402.579,-219.319 400.806,-226.091"/>
</g>
<!-- proc~test_4 -->
<g id="node49" class="node"><title>proc~test_4</title>
<a xlink:href="../proc/test_4.html" xlink:title="test_4">
<polygon fill="#d9534f" stroke="#d9534f" points="300,-378 246,-378 246,-352 300,-352 300,-378"/>
<text text-anchor="middle" x="273" y="-362.55" font-family="Helvetica,sans-Serif" font-size="10.50" fill="white">test_4</text>
</a>
</g>
<!-- proc~test_4&#45;&gt;interface~json_print -->
<g id="edge60" class="edge"><title>proc~test_4&#45;&gt;interface~json_print</title>
<path fill="none" stroke="black" d="M300.164,-360.15C313.58,-356.844 329.521,-351.48 342,-343 362.898,-328.799 361.265,-317.93 378,-299 391.815,-283.373 408.085,-266.362 420.63,-253.523"/>
<polygon fill="black" stroke="black" points="423.393,-255.705 427.905,-246.119 418.4,-250.799 423.393,-255.705"/>
</g>
<!-- interface~json_print_to_string -->
<g id="node74" class="node"><title>interface~json_print_to_string</title>
<a xlink:href="../interface/json_print_to_string.html" xlink:title="json_print_to_string">
<polygon fill="#a7506f" stroke="#a7506f" points="494,-334 388,-334 388,-308 494,-308 494,-334"/>
<text text-anchor="middle" x="441" y="-318.55" font-family="Helvetica,sans-Serif" font-size="10.50" fill="white">json_print_to_string</text>
</a>
</g>
<!-- proc~test_4&#45;&gt;interface~json_print_to_string -->
<g id="edge78" class="edge"><title>proc~test_4&#45;&gt;interface~json_print_to_string</title>
<path fill="none" stroke="black" d="M300.366,-357.833C322.227,-352.107 353.669,-343.873 381.28,-336.641"/>
<polygon fill="black" stroke="black" points="382.468,-339.948 391.255,-334.028 380.695,-333.176 382.468,-339.948"/>
</g>
<!-- proc~test_12 -->
<g id="node50" class="node"><title>proc~test_12</title>
<a xlink:href="../proc/test_12.html" xlink:title="test_12">
<polygon fill="#d9534f" stroke="#d9534f" points="300,-334 246,-334 246,-308 300,-308 300,-334"/>
<text text-anchor="middle" x="273" y="-318.55" font-family="Helvetica,sans-Serif" font-size="10.50" fill="white">test_12</text>
</a>
</g>
<!-- proc~test_12&#45;&gt;interface~json_print -->
<g id="edge62" class="edge"><title>proc~test_12&#45;&gt;interface~json_print</title>
<path fill="none" stroke="black" d="M300.211,-314.225C313.191,-310.52 328.743,-305.377 342,-299 368.918,-286.053 397.013,-266.674 416.367,-252.261"/>
<polygon fill="black" stroke="black" points="418.486,-255.047 424.353,-246.225 414.265,-249.463 418.486,-255.047"/>
</g>
<!-- proc~test_7 -->
<g id="node51" class="node"><title>proc~test_7</title>
<a xlink:href="../proc/test_7.html" xlink:title="test_7">
<polygon fill="#d9534f" stroke="#d9534f" points="300,-290 246,-290 246,-264 300,-264 300,-290"/>
<text text-anchor="middle" x="273" y="-274.55" font-family="Helvetica,sans-Serif" font-size="10.50" fill="white">test_7</text>
</a>
</g>
<!-- proc~test_7&#45;&gt;interface~json_print -->
<g id="edge68" class="edge"><title>proc~test_7&#45;&gt;interface~json_print</title>
<path fill="none" stroke="black" d="M300.366,-269.833C327.765,-262.657 370.213,-251.54 401.309,-243.395"/>
<polygon fill="black" stroke="black" points="402.595,-246.677 411.382,-240.757 400.821,-239.905 402.595,-246.677"/>
</g>
<!-- proc~json_print_2&#45;&gt;interface~json_print -->
<g id="edge70" class="edge"><title>proc~json_print_2&#45;&gt;interface~json_print</title>
<path fill="none" stroke="black" d="M572.31,-238.65C545.518,-240.043 508.821,-240.113 481.032,-238.861"/>
<polygon fill="black" stroke="black" points="481.029,-235.356 470.856,-238.316 480.655,-242.346 481.029,-235.356"/>
</g>
<!-- proc~test_2 -->
<g id="node53" class="node"><title>proc~test_2</title>
<a xlink:href="../proc/test_2.html" xlink:title="test_2">
<polygon fill="#d9534f" stroke="#d9534f" points="300,-246 246,-246 246,-220 300,-220 300,-246"/>
<text text-anchor="middle" x="273" y="-230.55" font-family="Helvetica,sans-Serif" font-size="10.50" fill="white">test_2</text>
</a>
</g>
<!-- proc~test_2&#45;&gt;interface~json_print -->
<g id="edge72" class="edge"><title>proc~test_2&#45;&gt;interface~json_print</title>
<path fill="none" stroke="black" d="M300.366,-233C327.765,-233 370.213,-233 401.309,-233"/>
<polygon fill="black" stroke="black" points="401.382,-236.5 411.382,-233 401.382,-229.5 401.382,-236.5"/>
</g>
<!-- program~jf_test_4 -->
<g id="node54" class="node"><title>program~jf_test_4</title>
<a xlink:href="../program/jf_test_4.html" xlink:title="jf_test_4">
<polygon fill="#f0ad4e" stroke="#f0ad4e" points="111,-378 57,-378 57,-352 111,-352 111,-378"/>
<text text-anchor="middle" x="84" y="-362.55" font-family="Helvetica,sans-Serif" font-size="10.50" fill="white">jf_test_4</text>
</a>
</g>
<!-- program~jf_test_4&#45;&gt;proc~test_4 -->
<g id="edge48" class="edge"><title>program~jf_test_4&#45;&gt;proc~test_4</title>
<path fill="none" stroke="black" d="M111.079,-365C143.78,-365 198.956,-365 235.676,-365"/>
<polygon fill="black" stroke="black" points="235.971,-368.5 245.971,-365 235.971,-361.5 235.971,-368.5"/>
</g>
<!-- program~jf_test_12 -->
<g id="node56" class="node"><title>program~jf_test_12</title>
<a xlink:href="../program/jf_test_12.html" xlink:title="jf_test_12">
<polygon fill="#f0ad4e" stroke="#f0ad4e" points="113,-334 55,-334 55,-308 113,-308 113,-334"/>
<text text-anchor="middle" x="84" y="-318.55" font-family="Helvetica,sans-Serif" font-size="10.50" fill="white">jf_test_12</text>
</a>
</g>
<!-- program~jf_test_12&#45;&gt;proc~test_12 -->
<g id="edge50" class="edge"><title>program~jf_test_12&#45;&gt;proc~test_12</title>
<path fill="none" stroke="black" d="M113.531,-321C146.509,-321 199.947,-321 235.765,-321"/>
<polygon fill="black" stroke="black" points="235.82,-324.5 245.82,-321 235.82,-317.5 235.82,-324.5"/>
</g>
<!-- program~jf_test_7 -->
<g id="node58" class="node"><title>program~jf_test_7</title>
<a xlink:href="../program/jf_test_7.html" xlink:title="jf_test_7">
<polygon fill="#f0ad4e" stroke="#f0ad4e" points="111,-290 57,-290 57,-264 111,-264 111,-290"/>
<text text-anchor="middle" x="84" y="-274.55" font-family="Helvetica,sans-Serif" font-size="10.50" fill="white">jf_test_7</text>
</a>
</g>
<!-- program~jf_test_7&#45;&gt;proc~test_7 -->
<g id="edge52" class="edge"><title>program~jf_test_7&#45;&gt;proc~test_7</title>
<path fill="none" stroke="black" d="M111.079,-277C143.78,-277 198.956,-277 235.676,-277"/>
<polygon fill="black" stroke="black" points="235.971,-280.5 245.971,-277 235.971,-273.5 235.971,-280.5"/>
</g>
<!-- program~jf_test_2 -->
<g id="node61" class="node"><title>program~jf_test_2</title>
<a xlink:href="../program/jf_test_2.html" xlink:title="jf_test_2">
<polygon fill="#f0ad4e" stroke="#f0ad4e" points="111,-246 57,-246 57,-220 111,-220 111,-246"/>
<text text-anchor="middle" x="84" y="-230.55" font-family="Helvetica,sans-Serif" font-size="10.50" fill="white">jf_test_2</text>
</a>
</g>
<!-- program~jf_test_2&#45;&gt;proc~test_2 -->
<g id="edge56" class="edge"><title>program~jf_test_2&#45;&gt;proc~test_2</title>
<path fill="none" stroke="black" d="M111.079,-233C143.78,-233 198.956,-233 235.676,-233"/>
<polygon fill="black" stroke="black" points="235.971,-236.5 245.971,-233 235.971,-229.5 235.971,-236.5"/>
</g>
<!-- proc~json_file_print_to_string -->
<g id="node72" class="node"><title>proc~json_file_print_to_string</title>
<a xlink:href="../proc/json_file_print_to_string.html" xlink:title="json_file_print_to_string">
<polygon fill="#d9534f" stroke="#d9534f" points="504,-378 378,-378 378,-352 504,-352 504,-378"/>
<text text-anchor="middle" x="441" y="-362.55" font-family="Helvetica,sans-Serif" font-size="10.50" fill="white">json_file_print_to_string</text>
</a>
</g>
<!-- proc~json_file_print_to_string&#45;&gt;proc~json_value_to_string -->
<g id="edge76" class="edge"><title>proc~json_file_print_to_string&#45;&gt;proc~json_value_to_string</title>
<path fill="none" stroke="black" d="M490.653,-351.918C508.911,-347.107 529.768,-341.612 548.785,-336.602"/>
<polygon fill="black" stroke="black" points="549.76,-339.964 558.538,-334.032 547.976,-333.195 549.76,-339.964"/>
</g>
<!-- interface~json_print_to_string&#45;&gt;proc~json_value_to_string -->
<g id="edge80" class="edge"><title>interface~json_print_to_string&#45;&gt;proc~json_value_to_string</title>
<path fill="none" stroke="black" stroke-dasharray="5,2" d="M494.299,-321C509.49,-321 526.222,-321 542.07,-321"/>
<polygon fill="black" stroke="black" points="542.332,-324.5 552.332,-321 542.332,-317.5 542.332,-324.5"/>
</g>
</g>
</svg>
