<?xml version="1.0" encoding="UTF-8" standalone="no"?>
<!DOCTYPE svg PUBLIC "-//W3C//DTD SVG 1.1//EN"
 "http://www.w3.org/Graphics/SVG/1.1/DTD/svg11.dtd">
<!-- Generated by graphviz version 2.26.3 (20100126.1600)
 -->
<!-- Title: proc~~json_initialize~~CallsGraph Pages: 1 -->
<svg width="641pt" height="95pt"
 viewBox="0.00 0.00 641.00 95.39" xmlns="http://www.w3.org/2000/svg" xmlns:xlink="http://www.w3.org/1999/xlink">
<g id="graph1" class="graph" transform="scale(0.953869 0.953869) rotate(0) translate(4 96)">
<title>proc~~json_initialize~~CallsGraph</title>
<polygon fill="white" stroke="white" points="-4,5 -4,-96 669,-96 669,5 -4,5"/>
<!-- proc~json_initialize -->
<g id="node1" class="node"><title>proc~json_initialize</title>
<polygon fill="none" stroke="black" points="76,-50 3.55271e-14,-50 0,-24 76,-24 76,-50"/>
<text text-anchor="middle" x="38" y="-34.55" font-family="Helvetica,sans-Serif" font-size="10.50">json_initialize</text>
</g>
<!-- interface~throw_exception -->
<g id="node2" class="node"><title>interface~throw_exception</title>
<a xlink:href="../interface/throw_exception.html" xlink:title="throw_exception">
<polygon fill="#a7506f" stroke="#a7506f" points="216,-72 126,-72 126,-46 216,-46 216,-72"/>
<text text-anchor="middle" x="171" y="-56.55" font-family="Helvetica,sans-Serif" font-size="10.50" fill="white">throw_exception</text>
</a>
</g>
<!-- proc~json_initialize&#45;&gt;interface~throw_exception -->
<g id="edge14" class="edge"><title>proc~json_initialize&#45;&gt;interface~throw_exception</title>
<path fill="none" stroke="black" d="M76.1125,-43.3043C88.3461,-45.3279 102.158,-47.6126 115.38,-49.7996"/>
<polygon fill="black" stroke="black" points="114.902,-53.2682 125.339,-51.4471 116.045,-46.362 114.902,-53.2682"/>
</g>
<!-- proc~json_clear_exceptions -->
<g id="node3" class="node"><title>proc~json_clear_exceptions</title>
<a xlink:href="../proc/json_clear_exceptions.html" xlink:title="json_clear_exceptions">
<polygon fill="#d9534f" stroke="#d9534f" points="230,-28 112,-28 112,-2 230,-2 230,-28"/>
<text text-anchor="middle" x="171" y="-12.55" font-family="Helvetica,sans-Serif" font-size="10.50" fill="white">json_clear_exceptions</text>
</a>
</g>
<!-- proc~json_initialize&#45;&gt;proc~json_clear_exceptions -->
<g id="edge16" class="edge"><title>proc~json_initialize&#45;&gt;proc~json_clear_exceptions</title>
<path fill="none" stroke="black" d="M76.1125,-30.6957C84.1993,-29.358 92.9756,-27.9063 101.815,-26.4441"/>
<polygon fill="black" stroke="black" points="102.494,-29.8794 111.789,-24.7943 101.352,-22.9733 102.494,-29.8794"/>
</g>
<!-- proc~json_throw_exception -->
<g id="node4" class="node"><title>proc~json_throw_exception</title>
<a xlink:href="../proc/json_throw_exception.html" xlink:title="json_throw_exception">
<polygon fill="#d9534f" stroke="#d9534f" points="564,-92 448,-92 448,-66 564,-66 564,-92"/>
<text text-anchor="middle" x="506" y="-76.55" font-family="Helvetica,sans-Serif" font-size="10.50" fill="white">json_throw_exception</text>
</a>
</g>
<!-- interface~throw_exception&#45;&gt;proc~json_throw_exception -->
<g id="edge10" class="edge"><title>interface~throw_exception&#45;&gt;proc~json_throw_exception</title>
<path fill="none" stroke="black" stroke-dasharray="5,2" d="M216.528,-61.7181C273.5,-65.1194 371.591,-70.9756 437.607,-74.9168"/>
<polygon fill="black" stroke="black" points="437.724,-78.43 447.915,-75.5323 438.142,-71.4424 437.724,-78.43"/>
</g>
<!-- proc~wrap_json_throw_exception -->
<g id="node5" class="node"><title>proc~wrap_json_throw_exception</title>
<a xlink:href="../proc/wrap_json_throw_exception.html" xlink:title="wrap_json_throw_exception">
<polygon fill="#d9534f" stroke="#d9534f" points="411,-51 267,-51 267,-25 411,-25 411,-51"/>
<text text-anchor="middle" x="339" y="-35.55" font-family="Helvetica,sans-Serif" font-size="10.50" fill="white">wrap_json_throw_exception</text>
</a>
</g>
<!-- interface~throw_exception&#45;&gt;proc~wrap_json_throw_exception -->
<g id="edge12" class="edge"><title>interface~throw_exception&#45;&gt;proc~wrap_json_throw_exception</title>
<path fill="none" stroke="black" stroke-dasharray="5,2" d="M216.907,-53.2617C229.061,-51.7423 242.566,-50.0543 256.035,-48.3706"/>
<polygon fill="black" stroke="black" points="256.816,-51.8003 266.305,-47.0869 255.948,-44.8543 256.816,-51.8003"/>
</g>
<!-- proc~wrap_json_throw_exception&#45;&gt;proc~json_throw_exception -->
<g id="edge6" class="edge"><title>proc~wrap_json_throw_exception&#45;&gt;proc~json_throw_exception</title>
<path fill="none" stroke="black" d="M392.299,-51.0854C408.346,-55.0251 426.113,-59.3871 442.741,-63.4693"/>
<polygon fill="black" stroke="black" points="442.375,-66.9833 452.921,-65.9686 444.044,-60.1852 442.375,-66.9833"/>
</g>
<!-- interface~to_unicode -->
<g id="node6" class="node"><title>interface~to_unicode</title>
<a xlink:href="../interface/to_unicode.html" xlink:title="to_unicode">
<polygon fill="#a7506f" stroke="#a7506f" points="538,-48 474,-48 474,-22 538,-22 538,-48"/>
<text text-anchor="middle" x="506" y="-32.55" font-family="Helvetica,sans-Serif" font-size="10.50" fill="white">to_unicode</text>
</a>
</g>
<!-- proc~wrap_json_throw_exception&#45;&gt;interface~to_unicode -->
<g id="edge8" class="edge"><title>proc~wrap_json_throw_exception&#45;&gt;interface~to_unicode</title>
<path fill="none" stroke="black" d="M411.763,-36.6929C429.188,-36.3799 447.248,-36.0554 462.839,-35.7754"/>
<polygon fill="black" stroke="black" points="463.264,-39.2684 473.199,-35.5892 463.138,-32.2695 463.264,-39.2684"/>
</g>
<!-- proc~to_uni_vec -->
<g id="node7" class="node"><title>proc~to_uni_vec</title>
<a xlink:href="../proc/to_uni_vec.html" xlink:title="to_uni_vec">
<polygon fill="#d94e8f" stroke="#d94e8f" points="664,-70 600,-70 600,-44 664,-44 664,-70"/>
<text text-anchor="middle" x="632" y="-54.55" font-family="Helvetica,sans-Serif" font-size="10.50" fill="white">to_uni_vec</text>
</a>
</g>
<!-- interface~to_unicode&#45;&gt;proc~to_uni_vec -->
<g id="edge2" class="edge"><title>interface~to_unicode&#45;&gt;proc~to_uni_vec</title>
<path fill="none" stroke="black" stroke-dasharray="5,2" d="M538.776,-40.7228C554.355,-43.443 573.166,-46.7274 589.798,-49.6314"/>
<polygon fill="black" stroke="black" points="589.371,-53.1097 599.824,-51.382 590.575,-46.214 589.371,-53.1097"/>
</g>
<!-- proc~to_uni -->
<g id="node8" class="node"><title>proc~to_uni</title>
<a xlink:href="../proc/to_uni.html" xlink:title="to_uni">
<polygon fill="#d94e8f" stroke="#d94e8f" points="659,-26 605,-26 605,-1.24345e-14 659,-3.55271e-15 659,-26"/>
<text text-anchor="middle" x="632" y="-10.55" font-family="Helvetica,sans-Serif" font-size="10.50" fill="white">to_uni</text>
</a>
</g>
<!-- interface~to_unicode&#45;&gt;proc~to_uni -->
<g id="edge4" class="edge"><title>interface~to_unicode&#45;&gt;proc~to_uni</title>
<path fill="none" stroke="black" stroke-dasharray="5,2" d="M538.776,-29.2772C555.965,-26.276 577.088,-22.5878 594.878,-19.4816"/>
<polygon fill="black" stroke="black" points="595.664,-22.8974 604.913,-17.7295 594.46,-16.0017 595.664,-22.8974"/>
</g>
</g>
</svg>
