<?xml version="1.0" encoding="UTF-8" standalone="no"?>
<!DOCTYPE svg PUBLIC "-//W3C//DTD SVG 1.1//EN"
 "http://www.w3.org/Graphics/SVG/1.1/DTD/svg11.dtd">
<!-- Generated by graphviz version 2.26.3 (20100126.1600)
 -->
<!-- Title: proc~~json_value_create_double~~CalledByGraph Pages: 1 -->
<svg width="641pt" height="51pt"
 viewBox="0.00 0.00 641.00 51.05" xmlns="http://www.w3.org/2000/svg" xmlns:xlink="http://www.w3.org/1999/xlink">
<g id="graph1" class="graph" transform="scale(0.945428 0.945428) rotate(0) translate(4 50)">
<title>proc~~json_value_create_double~~CalledByGraph</title>
<polygon fill="white" stroke="white" points="-4,5 -4,-50 675,-50 675,5 -4,5"/>
<!-- proc~json_value_create_double -->
<g id="node1" class="node"><title>proc~json_value_create_double</title>
<polygon fill="none" stroke="black" points="670,-46 532,-46 532,-20 670,-20 670,-46"/>
<text text-anchor="middle" x="601" y="-30.55" font-family="Helvetica,sans-Serif" font-size="10.50">json_value_create_double</text>
</g>
<!-- proc~wrap_json_value_create_double -->
<g id="node2" class="node"><title>proc~wrap_json_value_create_double</title>
<a xlink:href="../proc/wrap_json_value_create_double.html" xlink:title="wrap_json_value_create_double">
<polygon fill="#d9534f" stroke="#d9534f" points="495,-26 329,-26 329,-1.24345e-14 495,-3.55271e-15 495,-26"/>
<text text-anchor="middle" x="412" y="-10.55" font-family="Helvetica,sans-Serif" font-size="10.50" fill="white">wrap_json_value_create_double</text>
</a>
</g>
<!-- proc~wrap_json_value_create_double&#45;&gt;proc~json_value_create_double -->
<g id="edge8" class="edge"><title>proc~wrap_json_value_create_double&#45;&gt;proc~json_value_create_double</title>
<path fill="none" stroke="black" d="M495.724,-21.8596C504.382,-22.7758 513.162,-23.705 521.769,-24.6158"/>
<polygon fill="black" stroke="black" points="521.462,-28.1028 531.775,-25.6746 522.199,-21.1416 521.462,-28.1028"/>
</g>
<!-- interface~json_create_double -->
<g id="node3" class="node"><title>interface~json_create_double</title>
<a xlink:href="../interface/json_create_double.html" xlink:title="json_create_double">
<polygon fill="#a7506f" stroke="#a7506f" points="292,-46 186,-46 186,-20 292,-20 292,-46"/>
<text text-anchor="middle" x="239" y="-30.55" font-family="Helvetica,sans-Serif" font-size="10.50" fill="white">json_create_double</text>
</a>
</g>
<!-- interface~json_create_double&#45;&gt;proc~json_value_create_double -->
<g id="edge10" class="edge"><title>interface~json_create_double&#45;&gt;proc~json_value_create_double</title>
<path fill="none" stroke="black" stroke-dasharray="5,2" d="M292.177,-34.3903C303.971,-34.6442 316.409,-34.8698 328,-35 402.662,-35.8388 421.337,-35.711 496,-35 504.321,-34.9208 513.012,-34.8062 521.678,-34.6714"/>
<polygon fill="black" stroke="black" points="521.873,-38.1688 531.814,-34.5049 521.758,-31.1697 521.873,-38.1688"/>
</g>
<!-- interface~json_create_double&#45;&gt;proc~wrap_json_value_create_double -->
<g id="edge6" class="edge"><title>interface~json_create_double&#45;&gt;proc~wrap_json_value_create_double</title>
<path fill="none" stroke="black" stroke-dasharray="5,2" d="M292.317,-26.8361C300.613,-25.8771 309.388,-24.8627 318.265,-23.8364"/>
<polygon fill="black" stroke="black" points="318.78,-27.3003 328.312,-22.6749 317.976,-20.3466 318.78,-27.3003"/>
</g>
<!-- proc~test_10 -->
<g id="node4" class="node"><title>proc~test_10</title>
<a xlink:href="../proc/test_10.html" xlink:title="test_10">
<polygon fill="#d9534f" stroke="#d9534f" points="150,-46 96,-46 96,-20 150,-20 150,-46"/>
<text text-anchor="middle" x="123" y="-30.55" font-family="Helvetica,sans-Serif" font-size="10.50" fill="white">test_10</text>
</a>
</g>
<!-- proc~test_10&#45;&gt;interface~json_create_double -->
<g id="edge4" class="edge"><title>proc~test_10&#45;&gt;interface~json_create_double</title>
<path fill="none" stroke="black" d="M150.197,-33C157.982,-33 166.809,-33 175.805,-33"/>
<polygon fill="black" stroke="black" points="175.986,-36.5001 185.986,-33 175.986,-29.5001 175.986,-36.5001"/>
</g>
<!-- program~jf_test_10 -->
<g id="node5" class="node"><title>program~jf_test_10</title>
<a xlink:href="../program/jf_test_10.html" xlink:title="jf_test_10">
<polygon fill="#f0ad4e" stroke="#f0ad4e" points="59,-46 1,-46 1,-20 59,-20 59,-46"/>
<text text-anchor="middle" x="30" y="-30.55" font-family="Helvetica,sans-Serif" font-size="10.50" fill="white">jf_test_10</text>
</a>
</g>
<!-- program~jf_test_10&#45;&gt;proc~test_10 -->
<g id="edge2" class="edge"><title>program~jf_test_10&#45;&gt;proc~test_10</title>
<path fill="none" stroke="black" d="M59.6815,-33C67.9202,-33 76.973,-33 85.5921,-33"/>
<polygon fill="black" stroke="black" points="85.8066,-36.5001 95.8065,-33 85.8065,-29.5001 85.8066,-36.5001"/>
</g>
</g>
</svg>
