<?xml version="1.0" encoding="UTF-8" standalone="no"?>
<!DOCTYPE svg PUBLIC "-//W3C//DTD SVG 1.1//EN"
 "http://www.w3.org/Graphics/SVG/1.1/DTD/svg11.dtd">
<!-- Generated by graphviz version 2.26.3 (20100126.1600)
 -->
<!-- Title: proc~~json_file_get_object~~CallsGraph Pages: 1 -->
<svg width="641pt" height="84pt"
 viewBox="0.00 0.00 641.00 83.75" xmlns="http://www.w3.org/2000/svg" xmlns:xlink="http://www.w3.org/1999/xlink">
<g id="graph1" class="graph" transform="scale(0.457204 0.457204) rotate(0) translate(4 179.183)">
<title>proc~~json_file_get_object~~CallsGraph</title>
<polygon fill="white" stroke="white" points="-4,5 -4,-179.183 1399,-179.183 1399,5 -4,5"/>
<!-- proc~json_file_get_object -->
<g id="node1" class="node"><title>proc~json_file_get_object</title>
<polygon fill="none" stroke="black" points="107,-131 1,-131 1,-105 107,-105 107,-131"/>
<text text-anchor="middle" x="54" y="-115.55" font-family="Helvetica,sans-Serif" font-size="10.50">json_file_get_object</text>
</g>
<!-- proc~json_get_by_path -->
<g id="node2" class="node"><title>proc~json_get_by_path</title>
<a xlink:href="../proc/json_get_by_path.html" xlink:title="json_get_by_path">
<polygon fill="#d9534f" stroke="#d9534f" points="241,-131 145,-131 145,-105 241,-105 241,-131"/>
<text text-anchor="middle" x="193" y="-115.55" font-family="Helvetica,sans-Serif" font-size="10.50" fill="white">json_get_by_path</text>
</a>
</g>
<!-- proc~json_file_get_object&#45;&gt;proc~json_get_by_path -->
<g id="edge40" class="edge"><title>proc~json_file_get_object&#45;&gt;proc~json_get_by_path</title>
<path fill="none" stroke="black" d="M107.741,-118C116.417,-118 125.438,-118 134.225,-118"/>
<polygon fill="black" stroke="black" points="134.398,-121.5 144.398,-118 134.398,-114.5 134.398,-121.5"/>
</g>
<!-- interface~throw_exception -->
<g id="node3" class="node"><title>interface~throw_exception</title>
<a xlink:href="../interface/throw_exception.html" xlink:title="throw_exception">
<polygon fill="#a7506f" stroke="#a7506f" points="959,-113 869,-113 869,-87 959,-87 959,-113"/>
<text text-anchor="middle" x="914" y="-97.55" font-family="Helvetica,sans-Serif" font-size="10.50" fill="white">throw_exception</text>
</a>
</g>
<!-- proc~json_get_by_path&#45;&gt;interface~throw_exception -->
<g id="edge32" class="edge"><title>proc~json_get_by_path&#45;&gt;interface~throw_exception</title>
<path fill="none" stroke="black" d="M236.849,-131.079C249.995,-134.67 264.506,-138.311 278,-141 345.688,-154.489 363.125,-156.546 432,-161 609.587,-172.483 661.245,-193.117 832,-143 850.776,-137.489 870.238,-127.496 885.487,-118.53"/>
<polygon fill="black" stroke="black" points="887.657,-121.307 894.393,-113.129 884.028,-115.321 887.657,-121.307"/>
</g>
<!-- interface~json_get_child -->
<g id="node4" class="node"><title>interface~json_get_child</title>
<a xlink:href="../interface/json_get_child.html" xlink:title="json_get_child">
<polygon fill="#a7506f" stroke="#a7506f" points="377,-111 297,-111 297,-85 377,-85 377,-111"/>
<text text-anchor="middle" x="337" y="-95.55" font-family="Helvetica,sans-Serif" font-size="10.50" fill="white">json_get_child</text>
</a>
</g>
<!-- proc~json_get_by_path&#45;&gt;interface~json_get_child -->
<g id="edge34" class="edge"><title>proc~json_get_by_path&#45;&gt;interface~json_get_child</title>
<path fill="none" stroke="black" d="M241.752,-111.229C256.065,-109.241 271.751,-107.062 286.19,-105.057"/>
<polygon fill="black" stroke="black" points="287.021,-108.475 296.445,-103.633 286.058,-101.542 287.021,-108.475"/>
</g>
<!-- proc~json_clear_exceptions -->
<g id="node5" class="node"><title>proc~json_clear_exceptions</title>
<a xlink:href="../proc/json_clear_exceptions.html" xlink:title="json_clear_exceptions">
<polygon fill="#d9534f" stroke="#d9534f" points="396,-67 278,-67 278,-41 396,-41 396,-67"/>
<text text-anchor="middle" x="337" y="-51.55" font-family="Helvetica,sans-Serif" font-size="10.50" fill="white">json_clear_exceptions</text>
</a>
</g>
<!-- proc~json_get_by_path&#45;&gt;proc~json_clear_exceptions -->
<g id="edge36" class="edge"><title>proc~json_get_by_path&#45;&gt;proc~json_clear_exceptions</title>
<path fill="none" stroke="black" d="M217.975,-104.82C234.746,-96.179 257.451,-84.8805 278,-76 282.119,-74.2199 286.434,-72.4451 290.776,-70.7195"/>
<polygon fill="black" stroke="black" points="292.204,-73.9197 300.26,-67.038 289.671,-67.3941 292.204,-73.9197"/>
</g>
<!-- proc~string_to_integer -->
<g id="node6" class="node"><title>proc~string_to_integer</title>
<a xlink:href="../proc/string_to_integer.html" xlink:title="string_to_integer">
<polygon fill="#d94e8f" stroke="#d94e8f" points="576,-152 484,-152 484,-126 576,-126 576,-152"/>
<text text-anchor="middle" x="530" y="-136.55" font-family="Helvetica,sans-Serif" font-size="10.50" fill="white">string_to_integer</text>
</a>
</g>
<!-- proc~json_get_by_path&#45;&gt;proc~string_to_integer -->
<g id="edge38" class="edge"><title>proc~json_get_by_path&#45;&gt;proc~string_to_integer</title>
<path fill="none" stroke="black" d="M241.643,-121.031C302.979,-124.853 408.245,-131.413 473.205,-135.461"/>
<polygon fill="black" stroke="black" points="473.073,-138.959 483.271,-136.088 473.508,-131.973 473.073,-138.959"/>
</g>
<!-- proc~json_throw_exception -->
<g id="node7" class="node"><title>proc~json_throw_exception</title>
<a xlink:href="../proc/json_throw_exception.html" xlink:title="json_throw_exception">
<polygon fill="#d9534f" stroke="#d9534f" points="1294,-102 1178,-102 1178,-76 1294,-76 1294,-102"/>
<text text-anchor="middle" x="1236" y="-86.55" font-family="Helvetica,sans-Serif" font-size="10.50" fill="white">json_throw_exception</text>
</a>
</g>
<!-- interface~throw_exception&#45;&gt;proc~json_throw_exception -->
<g id="edge10" class="edge"><title>interface~throw_exception&#45;&gt;proc~json_throw_exception</title>
<path fill="none" stroke="black" stroke-dasharray="5,2" d="M959.793,-98.4357C1014.07,-96.5815 1105.03,-93.4742 1167.65,-91.3351"/>
<polygon fill="black" stroke="black" points="1167.95,-94.8267 1177.83,-90.9872 1167.72,-87.8307 1167.95,-94.8267"/>
</g>
<!-- proc~wrap_json_throw_exception -->
<g id="node8" class="node"><title>proc~wrap_json_throw_exception</title>
<a xlink:href="../proc/wrap_json_throw_exception.html" xlink:title="wrap_json_throw_exception">
<polygon fill="#d9534f" stroke="#d9534f" points="1141,-72 997,-72 997,-46 1141,-46 1141,-72"/>
<text text-anchor="middle" x="1069" y="-56.55" font-family="Helvetica,sans-Serif" font-size="10.50" fill="white">wrap_json_throw_exception</text>
</a>
</g>
<!-- interface~throw_exception&#45;&gt;proc~wrap_json_throw_exception -->
<g id="edge12" class="edge"><title>interface~throw_exception&#45;&gt;proc~wrap_json_throw_exception</title>
<path fill="none" stroke="black" stroke-dasharray="5,2" d="M959.667,-87.9204C975.27,-83.793 992.958,-79.1144 1009.49,-74.7415"/>
<polygon fill="black" stroke="black" points="1010.83,-78.0069 1019.6,-72.066 1009.04,-71.2396 1010.83,-78.0069"/>
</g>
<!-- proc~json_value_get_by_index -->
<g id="node18" class="node"><title>proc~json_value_get_by_index</title>
<a xlink:href="../proc/json_value_get_by_index.html" xlink:title="json_value_get_by_index">
<polygon fill="#d9534f" stroke="#d9534f" points="814,-113 682,-113 682,-87 814,-87 814,-113"/>
<text text-anchor="middle" x="748" y="-97.55" font-family="Helvetica,sans-Serif" font-size="10.50" fill="white">json_value_get_by_index</text>
</a>
</g>
<!-- interface~json_get_child&#45;&gt;proc~json_value_get_by_index -->
<g id="edge24" class="edge"><title>interface~json_get_child&#45;&gt;proc~json_value_get_by_index</title>
<path fill="none" stroke="black" stroke-dasharray="5,2" d="M377.533,-98.1972C445.715,-98.529 584.413,-99.204 671.41,-99.6273"/>
<polygon fill="black" stroke="black" points="671.476,-103.128 681.493,-99.6764 671.51,-96.1276 671.476,-103.128"/>
</g>
<!-- proc~json_value_get_by_name_chars -->
<g id="node19" class="node"><title>proc~json_value_get_by_name_chars</title>
<a xlink:href="../proc/json_value_get_by_name_chars.html" xlink:title="json_value_get_by_name_chars">
<polygon fill="#d9534f" stroke="#d9534f" points="831,-69 665,-69 665,-43 831,-43 831,-69"/>
<text text-anchor="middle" x="748" y="-53.55" font-family="Helvetica,sans-Serif" font-size="10.50" fill="white">json_value_get_by_name_chars</text>
</a>
</g>
<!-- interface~json_get_child&#45;&gt;proc~json_value_get_by_name_chars -->
<g id="edge26" class="edge"><title>interface~json_get_child&#45;&gt;proc~json_value_get_by_name_chars</title>
<path fill="none" stroke="black" stroke-dasharray="5,2" d="M377.533,-93.8579C441.332,-87.3384 566.872,-74.5094 654.023,-65.6034"/>
<polygon fill="black" stroke="black" points="654.596,-69.0632 664.189,-64.5647 653.885,-62.0995 654.596,-69.0632"/>
</g>
<!-- proc~wrap_json_value_get_by_name_chars -->
<g id="node20" class="node"><title>proc~wrap_json_value_get_by_name_chars</title>
<a xlink:href="../proc/wrap_json_value_get_by_name_chars.html" xlink:title="wrap_json_value_get_by_name_chars">
<polygon fill="#d9534f" stroke="#d9534f" points="628,-32 432,-32 432,-6 628,-6 628,-32"/>
<text text-anchor="middle" x="530" y="-16.55" font-family="Helvetica,sans-Serif" font-size="10.50" fill="white">wrap_json_value_get_by_name_chars</text>
</a>
</g>
<!-- interface~json_get_child&#45;&gt;proc~wrap_json_value_get_by_name_chars -->
<g id="edge28" class="edge"><title>interface~json_get_child&#45;&gt;proc~wrap_json_value_get_by_name_chars</title>
<path fill="none" stroke="black" stroke-dasharray="5,2" d="M377.507,-84.9782C383.863,-82.3482 390.232,-79.3471 396,-76 414.014,-65.5462 413.544,-55.6507 432,-46 439.982,-41.8263 448.677,-38.2437 457.482,-35.1822"/>
<polygon fill="black" stroke="black" points="458.631,-38.4893 467.053,-32.0616 456.46,-31.8342 458.631,-38.4893"/>
</g>
<!-- proc~string_to_integer&#45;&gt;interface~throw_exception -->
<g id="edge30" class="edge"><title>proc~string_to_integer&#45;&gt;interface~throw_exception</title>
<path fill="none" stroke="black" d="M576.623,-139.338C636.225,-139.093 742.43,-136.379 832,-122 841.823,-120.423 852.167,-118.148 862.074,-115.653"/>
<polygon fill="black" stroke="black" points="863.016,-119.025 871.8,-113.102 861.24,-112.254 863.016,-119.025"/>
</g>
<!-- proc~wrap_json_throw_exception&#45;&gt;proc~json_throw_exception -->
<g id="edge6" class="edge"><title>proc~wrap_json_throw_exception&#45;&gt;proc~json_throw_exception</title>
<path fill="none" stroke="black" d="M1141.76,-72.0712C1150.42,-73.626 1159.23,-75.2089 1167.82,-76.7516"/>
<polygon fill="black" stroke="black" points="1167.31,-80.2167 1177.77,-78.54 1168.55,-73.327 1167.31,-80.2167"/>
</g>
<!-- interface~to_unicode -->
<g id="node9" class="node"><title>interface~to_unicode</title>
<a xlink:href="../interface/to_unicode.html" xlink:title="to_unicode">
<polygon fill="#a7506f" stroke="#a7506f" points="1268,-48 1204,-48 1204,-22 1268,-22 1268,-48"/>
<text text-anchor="middle" x="1236" y="-32.55" font-family="Helvetica,sans-Serif" font-size="10.50" fill="white">to_unicode</text>
</a>
</g>
<!-- proc~wrap_json_throw_exception&#45;&gt;interface~to_unicode -->
<g id="edge8" class="edge"><title>proc~wrap_json_throw_exception&#45;&gt;interface~to_unicode</title>
<path fill="none" stroke="black" d="M1141.76,-48.5431C1159.36,-46.0147 1177.6,-43.3935 1193.29,-41.1383"/>
<polygon fill="black" stroke="black" points="1193.8,-44.6009 1203.2,-39.7139 1192.8,-37.6721 1193.8,-44.6009"/>
</g>
<!-- proc~to_uni_vec -->
<g id="node10" class="node"><title>proc~to_uni_vec</title>
<a xlink:href="../proc/to_uni_vec.html" xlink:title="to_uni_vec">
<polygon fill="#d94e8f" stroke="#d94e8f" points="1394,-70 1330,-70 1330,-44 1394,-44 1394,-70"/>
<text text-anchor="middle" x="1362" y="-54.55" font-family="Helvetica,sans-Serif" font-size="10.50" fill="white">to_uni_vec</text>
</a>
</g>
<!-- interface~to_unicode&#45;&gt;proc~to_uni_vec -->
<g id="edge2" class="edge"><title>interface~to_unicode&#45;&gt;proc~to_uni_vec</title>
<path fill="none" stroke="black" stroke-dasharray="5,2" d="M1268.78,-40.7228C1284.36,-43.443 1303.17,-46.7274 1319.8,-49.6314"/>
<polygon fill="black" stroke="black" points="1319.37,-53.1097 1329.82,-51.382 1320.58,-46.214 1319.37,-53.1097"/>
</g>
<!-- proc~to_uni -->
<g id="node11" class="node"><title>proc~to_uni</title>
<a xlink:href="../proc/to_uni.html" xlink:title="to_uni">
<polygon fill="#d94e8f" stroke="#d94e8f" points="1389,-26 1335,-26 1335,-1.24345e-14 1389,-3.55271e-15 1389,-26"/>
<text text-anchor="middle" x="1362" y="-10.55" font-family="Helvetica,sans-Serif" font-size="10.50" fill="white">to_uni</text>
</a>
</g>
<!-- interface~to_unicode&#45;&gt;proc~to_uni -->
<g id="edge4" class="edge"><title>interface~to_unicode&#45;&gt;proc~to_uni</title>
<path fill="none" stroke="black" stroke-dasharray="5,2" d="M1268.78,-29.2772C1285.97,-26.276 1307.09,-22.5878 1324.88,-19.4816"/>
<polygon fill="black" stroke="black" points="1325.66,-22.8974 1334.91,-17.7295 1324.46,-16.0017 1325.66,-22.8974"/>
</g>
<!-- proc~json_value_get_by_index&#45;&gt;interface~throw_exception -->
<g id="edge14" class="edge"><title>proc~json_value_get_by_index&#45;&gt;interface~throw_exception</title>
<path fill="none" stroke="black" d="M814.562,-100C828.938,-100 843.999,-100 857.925,-100"/>
<polygon fill="black" stroke="black" points="858.324,-103.5 868.324,-100 858.324,-96.5001 858.324,-103.5"/>
</g>
<!-- proc~json_value_get_by_name_chars&#45;&gt;interface~throw_exception -->
<g id="edge16" class="edge"><title>proc~json_value_get_by_name_chars&#45;&gt;interface~throw_exception</title>
<path fill="none" stroke="black" d="M798.205,-69.0967C809.336,-72.0149 821.071,-75.1028 832,-78 840.592,-80.2777 849.686,-82.7031 858.569,-85.0802"/>
<polygon fill="black" stroke="black" points="857.906,-88.5258 868.471,-87.7331 859.717,-81.7643 857.906,-88.5258"/>
</g>
<!-- proc~json_count -->
<g id="node22" class="node"><title>proc~json_count</title>
<a xlink:href="../proc/json_count.html" xlink:title="json_count">
<polygon fill="#d94e8f" stroke="#d94e8f" points="946,-69 882,-69 882,-43 946,-43 946,-69"/>
<text text-anchor="middle" x="914" y="-53.55" font-family="Helvetica,sans-Serif" font-size="10.50" fill="white">json_count</text>
</a>
</g>
<!-- proc~json_value_get_by_name_chars&#45;&gt;proc~json_count -->
<g id="edge18" class="edge"><title>proc~json_value_get_by_name_chars&#45;&gt;proc~json_count</title>
<path fill="none" stroke="black" d="M831.973,-56C845.656,-56 859.304,-56 871.429,-56"/>
<polygon fill="black" stroke="black" points="871.655,-59.5001 881.655,-56 871.655,-52.5001 871.655,-59.5001"/>
</g>
<!-- proc~wrap_json_value_get_by_name_chars&#45;&gt;interface~to_unicode -->
<g id="edge20" class="edge"><title>proc~wrap_json_value_get_by_name_chars&#45;&gt;interface~to_unicode</title>
<path fill="none" stroke="black" d="M628.166,-21.2247C784.161,-24.76 1082.32,-31.5172 1193.13,-34.0285"/>
<polygon fill="black" stroke="black" points="1193.18,-37.5305 1203.26,-34.2581 1193.34,-30.5323 1193.18,-37.5305"/>
</g>
<!-- proc~wrap_json_value_get_by_name_chars&#45;&gt;proc~json_value_get_by_name_chars -->
<g id="edge22" class="edge"><title>proc~wrap_json_value_get_by_name_chars&#45;&gt;proc~json_value_get_by_name_chars</title>
<path fill="none" stroke="black" d="M606.859,-32.0448C624.442,-35.0291 643.251,-38.2214 661.218,-41.271"/>
<polygon fill="black" stroke="black" points="660.656,-44.7255 671.101,-42.9483 661.827,-37.8242 660.656,-44.7255"/>
</g>
</g>
</svg>
