<?xml version="1.0" encoding="UTF-8" standalone="no"?>
<!DOCTYPE svg PUBLIC "-//W3C//DTD SVG 1.1//EN"
 "http://www.w3.org/Graphics/SVG/1.1/DTD/svg11.dtd">
<!-- Generated by graphviz version 2.26.3 (20100126.1600)
 -->
<!-- Title: proc~~json_print_error_message~~CallsGraph Pages: 1 -->
<svg width="302pt" height="78pt"
 viewBox="0.00 0.00 302.00 78.00" xmlns="http://www.w3.org/2000/svg" xmlns:xlink="http://www.w3.org/1999/xlink">
<g id="graph1" class="graph" transform="scale(1 1) rotate(0) translate(4 74)">
<title>proc~~json_print_error_message~~CallsGraph</title>
<polygon fill="white" stroke="white" points="-4,5 -4,-74 299,-74 299,5 -4,5"/>
<!-- proc~json_print_error_message -->
<g id="node1" class="node"><title>proc~json_print_error_message</title>
<polygon fill="none" stroke="black" points="138,-48 7.10543e-14,-48 0,-22 138,-22 138,-48"/>
<text text-anchor="middle" x="69" y="-32.55" font-family="Helvetica,sans-Serif" font-size="10.50">json_print_error_message</text>
</g>
<!-- proc~json_check_for_errors -->
<g id="node2" class="node"><title>proc~json_check_for_errors</title>
<a xlink:href="../proc/json_check_for_errors.html" xlink:title="json_check_for_errors">
<polygon fill="#d9534f" stroke="#d9534f" points="293,-70 175,-70 175,-44 293,-44 293,-70"/>
<text text-anchor="middle" x="234" y="-54.55" font-family="Helvetica,sans-Serif" font-size="10.50" fill="white">json_check_for_errors</text>
</a>
</g>
<!-- proc~json_print_error_message&#45;&gt;proc~json_check_for_errors -->
<g id="edge2" class="edge"><title>proc~json_print_error_message&#45;&gt;proc~json_check_for_errors</title>
<path fill="none" stroke="black" d="M138.019,-44.2025C146.715,-45.3619 155.616,-46.5487 164.321,-47.7095"/>
<polygon fill="black" stroke="black" points="164.053,-51.2046 174.428,-49.057 164.978,-44.266 164.053,-51.2046"/>
</g>
<!-- proc~json_clear_exceptions -->
<g id="node3" class="node"><title>proc~json_clear_exceptions</title>
<a xlink:href="../proc/json_clear_exceptions.html" xlink:title="json_clear_exceptions">
<polygon fill="#d9534f" stroke="#d9534f" points="293,-26 175,-26 175,-1.24345e-14 293,-3.55271e-15 293,-26"/>
<text text-anchor="middle" x="234" y="-10.55" font-family="Helvetica,sans-Serif" font-size="10.50" fill="white">json_clear_exceptions</text>
</a>
</g>
<!-- proc~json_print_error_message&#45;&gt;proc~json_clear_exceptions -->
<g id="edge4" class="edge"><title>proc~json_print_error_message&#45;&gt;proc~json_clear_exceptions</title>
<path fill="none" stroke="black" d="M138.019,-25.7975C146.937,-24.6084 156.072,-23.3904 164.99,-22.2013"/>
<polygon fill="black" stroke="black" points="165.495,-25.6651 174.945,-20.8741 164.57,-18.7265 165.495,-25.6651"/>
</g>
</g>
</svg>
