<?xml version="1.0" encoding="UTF-8" standalone="no"?>
<!DOCTYPE svg PUBLIC "-//W3C//DTD SVG 1.1//EN"
 "http://www.w3.org/Graphics/SVG/1.1/DTD/svg11.dtd">
<!-- Generated by graphviz version 2.26.3 (20100126.1600)
 -->
<!-- Title: proc~~json_print_2~~CallsGraph Pages: 1 -->
<svg width="641pt" height="151pt"
 viewBox="0.00 0.00 641.00 151.06" xmlns="http://www.w3.org/2000/svg" xmlns:xlink="http://www.w3.org/1999/xlink">
<g id="graph1" class="graph" transform="scale(0.656762 0.656762) rotate(0) translate(4 226)">
<title>proc~~json_print_2~~CallsGraph</title>
<polygon fill="white" stroke="white" points="-4,5 -4,-226 973,-226 973,5 -4,5"/>
<!-- proc~json_print_2 -->
<g id="node1" class="node"><title>proc~json_print_2</title>
<polygon fill="none" stroke="black" points="71,-170 1,-170 1,-144 71,-144 71,-170"/>
<text text-anchor="middle" x="36" y="-154.55" font-family="Helvetica,sans-Serif" font-size="10.50">json_print_2</text>
</g>
<!-- interface~throw_exception -->
<g id="node2" class="node"><title>interface~throw_exception</title>
<a xlink:href="../interface/throw_exception.html" xlink:title="throw_exception">
<polygon fill="#a7506f" stroke="#a7506f" points="532,-202 442,-202 442,-176 532,-176 532,-202"/>
<text text-anchor="middle" x="487" y="-186.55" font-family="Helvetica,sans-Serif" font-size="10.50" fill="white">throw_exception</text>
</a>
</g>
<!-- proc~json_print_2&#45;&gt;interface~throw_exception -->
<g id="edge36" class="edge"><title>proc~json_print_2&#45;&gt;interface~throw_exception</title>
<path fill="none" stroke="black" d="M71.8059,-170.023C83.2199,-173.608 96.0025,-177.046 108,-179 221.701,-197.52 357.079,-195.391 431.351,-192.191"/>
<polygon fill="black" stroke="black" points="431.585,-195.684 441.417,-191.734 431.268,-188.691 431.585,-195.684"/>
</g>
<!-- interface~json_print -->
<g id="node3" class="node"><title>interface~json_print</title>
<a xlink:href="../interface/json_print.html" xlink:title="json_print">
<polygon fill="#a7506f" stroke="#a7506f" points="167,-170 109,-170 109,-144 167,-144 167,-170"/>
<text text-anchor="middle" x="138" y="-154.55" font-family="Helvetica,sans-Serif" font-size="10.50" fill="white">json_print</text>
</a>
</g>
<!-- proc~json_print_2&#45;&gt;interface~json_print -->
<g id="edge38" class="edge"><title>proc~json_print_2&#45;&gt;interface~json_print</title>
<path fill="none" stroke="black" d="M71.6747,-150.529C80.2633,-150.207 89.4911,-150.164 98.2527,-150.398"/>
<polygon fill="black" stroke="black" points="98.1248,-153.896 108.257,-150.801 98.4063,-146.901 98.1248,-153.896"/>
</g>
<!-- proc~json_throw_exception -->
<g id="node4" class="node"><title>proc~json_throw_exception</title>
<a xlink:href="../proc/json_throw_exception.html" xlink:title="json_throw_exception">
<polygon fill="#d9534f" stroke="#d9534f" points="868,-222 752,-222 752,-196 868,-196 868,-222"/>
<text text-anchor="middle" x="810" y="-206.55" font-family="Helvetica,sans-Serif" font-size="10.50" fill="white">json_throw_exception</text>
</a>
</g>
<!-- interface~throw_exception&#45;&gt;proc~json_throw_exception -->
<g id="edge10" class="edge"><title>interface~throw_exception&#45;&gt;proc~json_throw_exception</title>
<path fill="none" stroke="black" stroke-dasharray="5,2" d="M532.593,-191.823C587.035,-195.194 678.618,-200.865 741.566,-204.763"/>
<polygon fill="black" stroke="black" points="741.604,-208.272 751.802,-205.396 742.037,-201.285 741.604,-208.272"/>
</g>
<!-- proc~wrap_json_throw_exception -->
<g id="node5" class="node"><title>proc~wrap_json_throw_exception</title>
<a xlink:href="../proc/wrap_json_throw_exception.html" xlink:title="wrap_json_throw_exception">
<polygon fill="#d9534f" stroke="#d9534f" points="715,-181 571,-181 571,-155 715,-155 715,-181"/>
<text text-anchor="middle" x="643" y="-165.55" font-family="Helvetica,sans-Serif" font-size="10.50" fill="white">wrap_json_throw_exception</text>
</a>
</g>
<!-- interface~throw_exception&#45;&gt;proc~wrap_json_throw_exception -->
<g id="edge12" class="edge"><title>interface~throw_exception&#45;&gt;proc~wrap_json_throw_exception</title>
<path fill="none" stroke="black" stroke-dasharray="5,2" d="M532.541,-182.869C541.352,-181.683 550.835,-180.407 560.41,-179.118"/>
<polygon fill="black" stroke="black" points="560.955,-182.576 570.398,-177.773 560.021,-175.639 560.955,-182.576"/>
</g>
<!-- interface~json_print&#45;&gt;proc~json_print_2 -->
<g id="edge34" class="edge"><title>interface~json_print&#45;&gt;proc~json_print_2</title>
<path fill="none" stroke="black" stroke-dasharray="5,2" d="M108.257,-163.199C99.9408,-163.656 90.7054,-163.828 81.6936,-163.717"/>
<polygon fill="black" stroke="black" points="81.7576,-160.218 71.6747,-163.471 81.5857,-167.216 81.7576,-160.218"/>
</g>
<!-- proc~json_print_1 -->
<g id="node15" class="node"><title>proc~json_print_1</title>
<a xlink:href="../proc/json_print_1.html" xlink:title="json_print_1">
<polygon fill="#d9534f" stroke="#d9534f" points="275,-170 205,-170 205,-144 275,-144 275,-170"/>
<text text-anchor="middle" x="240" y="-154.55" font-family="Helvetica,sans-Serif" font-size="10.50" fill="white">json_print_1</text>
</a>
</g>
<!-- interface~json_print&#45;&gt;proc~json_print_1 -->
<g id="edge32" class="edge"><title>interface~json_print&#45;&gt;proc~json_print_1</title>
<path fill="none" stroke="black" stroke-dasharray="5,2" d="M167.503,-157C175.881,-157 185.208,-157 194.306,-157"/>
<polygon fill="black" stroke="black" points="194.419,-160.5 204.419,-157 194.419,-153.5 194.419,-160.5"/>
</g>
<!-- proc~wrap_json_throw_exception&#45;&gt;proc~json_throw_exception -->
<g id="edge6" class="edge"><title>proc~wrap_json_throw_exception&#45;&gt;proc~json_throw_exception</title>
<path fill="none" stroke="black" d="M696.299,-181.085C712.346,-185.025 730.113,-189.387 746.741,-193.469"/>
<polygon fill="black" stroke="black" points="746.375,-196.983 756.921,-195.969 748.044,-190.185 746.375,-196.983"/>
</g>
<!-- interface~to_unicode -->
<g id="node6" class="node"><title>interface~to_unicode</title>
<a xlink:href="../interface/to_unicode.html" xlink:title="to_unicode">
<polygon fill="#a7506f" stroke="#a7506f" points="842,-178 778,-178 778,-152 842,-152 842,-178"/>
<text text-anchor="middle" x="810" y="-162.55" font-family="Helvetica,sans-Serif" font-size="10.50" fill="white">to_unicode</text>
</a>
</g>
<!-- proc~wrap_json_throw_exception&#45;&gt;interface~to_unicode -->
<g id="edge8" class="edge"><title>proc~wrap_json_throw_exception&#45;&gt;interface~to_unicode</title>
<path fill="none" stroke="black" d="M715.763,-166.693C733.188,-166.38 751.248,-166.055 766.839,-165.775"/>
<polygon fill="black" stroke="black" points="767.264,-169.268 777.199,-165.589 767.138,-162.27 767.264,-169.268"/>
</g>
<!-- proc~to_uni_vec -->
<g id="node7" class="node"><title>proc~to_uni_vec</title>
<a xlink:href="../proc/to_uni_vec.html" xlink:title="to_uni_vec">
<polygon fill="#d94e8f" stroke="#d94e8f" points="968,-200 904,-200 904,-174 968,-174 968,-200"/>
<text text-anchor="middle" x="936" y="-184.55" font-family="Helvetica,sans-Serif" font-size="10.50" fill="white">to_uni_vec</text>
</a>
</g>
<!-- interface~to_unicode&#45;&gt;proc~to_uni_vec -->
<g id="edge2" class="edge"><title>interface~to_unicode&#45;&gt;proc~to_uni_vec</title>
<path fill="none" stroke="black" stroke-dasharray="5,2" d="M842.776,-170.723C858.355,-173.443 877.166,-176.727 893.798,-179.631"/>
<polygon fill="black" stroke="black" points="893.371,-183.11 903.824,-181.382 894.575,-176.214 893.371,-183.11"/>
</g>
<!-- proc~to_uni -->
<g id="node8" class="node"><title>proc~to_uni</title>
<a xlink:href="../proc/to_uni.html" xlink:title="to_uni">
<polygon fill="#d94e8f" stroke="#d94e8f" points="963,-156 909,-156 909,-130 963,-130 963,-156"/>
<text text-anchor="middle" x="936" y="-140.55" font-family="Helvetica,sans-Serif" font-size="10.50" fill="white">to_uni</text>
</a>
</g>
<!-- interface~to_unicode&#45;&gt;proc~to_uni -->
<g id="edge4" class="edge"><title>interface~to_unicode&#45;&gt;proc~to_uni</title>
<path fill="none" stroke="black" stroke-dasharray="5,2" d="M842.776,-159.277C859.965,-156.276 881.088,-152.588 898.878,-149.482"/>
<polygon fill="black" stroke="black" points="899.664,-152.897 908.913,-147.729 898.46,-146.002 899.664,-152.897"/>
</g>
<!-- proc~json_print_1&#45;&gt;interface~throw_exception -->
<g id="edge28" class="edge"><title>proc~json_print_1&#45;&gt;interface~throw_exception</title>
<path fill="none" stroke="black" d="M275.652,-161.619C316.352,-166.892 383.444,-175.584 431.111,-181.759"/>
<polygon fill="black" stroke="black" points="430.905,-185.262 441.272,-183.076 431.804,-178.32 430.905,-185.262"/>
</g>
<!-- proc~json_value_print -->
<g id="node16" class="node"><title>proc~json_value_print</title>
<a xlink:href="../proc/json_value_print.html" xlink:title="json_value_print">
<polygon fill="#d9534f" stroke="#d9534f" points="403,-114 313,-114 313,-88 403,-88 403,-114"/>
<text text-anchor="middle" x="358" y="-98.55" font-family="Helvetica,sans-Serif" font-size="10.50" fill="white">json_value_print</text>
</a>
</g>
<!-- proc~json_print_1&#45;&gt;proc~json_value_print -->
<g id="edge30" class="edge"><title>proc~json_print_1&#45;&gt;proc~json_value_print</title>
<path fill="none" stroke="black" d="M267.666,-143.87C283.644,-136.288 303.942,-126.655 321.247,-118.442"/>
<polygon fill="black" stroke="black" points="322.974,-121.497 330.508,-114.047 319.973,-115.173 322.974,-121.497"/>
</g>
<!-- proc~json_value_print&#45;&gt;interface~throw_exception -->
<g id="edge22" class="edge"><title>proc~json_value_print&#45;&gt;interface~throw_exception</title>
<path fill="none" stroke="black" d="M372.02,-114.04C387.747,-128.236 414.417,-151.041 440,-167 442.286,-168.426 444.679,-169.819 447.124,-171.168"/>
<polygon fill="black" stroke="black" points="445.611,-174.326 456.098,-175.834 448.84,-168.115 445.611,-174.326"/>
</g>
<!-- proc~json_value_print&#45;&gt;proc~json_value_print -->
<g id="edge26" class="edge"><title>proc~json_value_print&#45;&gt;proc~json_value_print</title>
<path fill="none" stroke="black" d="M338.036,-114.06C331.986,-123.1 338.641,-132 358,-132 369.797,-132 376.877,-128.695 379.238,-124.067"/>
<polygon fill="black" stroke="black" points="382.699,-123.538 377.964,-114.06 375.755,-124.422 382.699,-123.538"/>
</g>
<!-- none~write_it -->
<g id="node17" class="node"><title>none~write_it</title>
<polygon fill="#d9534f" stroke="#d9534f" points="514,-158 460,-158 460,-132 514,-132 514,-158"/>
<text text-anchor="middle" x="487" y="-142.55" font-family="Helvetica,sans-Serif" font-size="10.50" fill="white">write_it</text>
</g>
<!-- proc~json_value_print&#45;&gt;none~write_it -->
<g id="edge16" class="edge"><title>proc~json_value_print&#45;&gt;none~write_it</title>
<path fill="none" stroke="black" d="M396.355,-114.082C413.366,-119.885 433.298,-126.683 450.132,-132.425"/>
<polygon fill="black" stroke="black" points="449.047,-135.753 459.641,-135.668 451.306,-129.127 449.047,-135.753"/>
</g>
<!-- proc~real_to_string -->
<g id="node18" class="node"><title>proc~real_to_string</title>
<a xlink:href="../proc/real_to_string.html" xlink:title="real_to_string">
<polygon fill="#d9534f" stroke="#d9534f" points="526,-114 448,-114 448,-88 526,-88 526,-114"/>
<text text-anchor="middle" x="487" y="-98.55" font-family="Helvetica,sans-Serif" font-size="10.50" fill="white">real_to_string</text>
</a>
</g>
<!-- proc~json_value_print&#45;&gt;proc~real_to_string -->
<g id="edge18" class="edge"><title>proc~json_value_print&#45;&gt;proc~real_to_string</title>
<path fill="none" stroke="black" d="M403.844,-101C414.71,-101 426.349,-101 437.375,-101"/>
<polygon fill="black" stroke="black" points="437.713,-104.5 447.713,-101 437.713,-97.5001 437.713,-104.5"/>
</g>
<!-- proc~json_count -->
<g id="node19" class="node"><title>proc~json_count</title>
<a xlink:href="../proc/json_count.html" xlink:title="json_count">
<polygon fill="#d94e8f" stroke="#d94e8f" points="519,-70 455,-70 455,-44 519,-44 519,-70"/>
<text text-anchor="middle" x="487" y="-54.55" font-family="Helvetica,sans-Serif" font-size="10.50" fill="white">json_count</text>
</a>
</g>
<!-- proc~json_value_print&#45;&gt;proc~json_count -->
<g id="edge20" class="edge"><title>proc~json_value_print&#45;&gt;proc~json_count</title>
<path fill="none" stroke="black" d="M396.355,-87.9177C411.731,-82.6732 429.493,-76.6148 445.198,-71.2582"/>
<polygon fill="black" stroke="black" points="446.336,-74.5681 454.67,-68.0272 444.076,-67.9429 446.336,-74.5681"/>
</g>
<!-- proc~integer_to_string -->
<g id="node20" class="node"><title>proc~integer_to_string</title>
<a xlink:href="../proc/integer_to_string.html" xlink:title="integer_to_string">
<polygon fill="#d9534f" stroke="#d9534f" points="533,-26 441,-26 441,-1.24345e-14 533,-3.55271e-15 533,-26"/>
<text text-anchor="middle" x="487" y="-10.55" font-family="Helvetica,sans-Serif" font-size="10.50" fill="white">integer_to_string</text>
</a>
</g>
<!-- proc~json_value_print&#45;&gt;proc~integer_to_string -->
<g id="edge24" class="edge"><title>proc~json_value_print&#45;&gt;proc~integer_to_string</title>
<path fill="none" stroke="black" d="M372.02,-87.9598C387.747,-73.7639 414.417,-50.9594 440,-35 442.286,-33.5739 444.679,-32.1808 447.124,-30.8324"/>
<polygon fill="black" stroke="black" points="448.84,-33.8848 456.098,-26.1663 445.611,-27.6741 448.84,-33.8848"/>
</g>
<!-- proc~compact_real_string -->
<g id="node21" class="node"><title>proc~compact_real_string</title>
<a xlink:href="../proc/compact_real_string.html" xlink:title="compact_real_string">
<polygon fill="#d9534f" stroke="#d9534f" points="697,-114 589,-114 589,-88 697,-88 697,-114"/>
<text text-anchor="middle" x="643" y="-98.55" font-family="Helvetica,sans-Serif" font-size="10.50" fill="white">compact_real_string</text>
</a>
</g>
<!-- proc~real_to_string&#45;&gt;proc~compact_real_string -->
<g id="edge14" class="edge"><title>proc~real_to_string&#45;&gt;proc~compact_real_string</title>
<path fill="none" stroke="black" d="M526.365,-101C542.06,-101 560.545,-101 578.117,-101"/>
<polygon fill="black" stroke="black" points="578.329,-104.5 588.329,-101 578.329,-97.5001 578.329,-104.5"/>
</g>
</g>
</svg>
