<?xml version="1.0" encoding="UTF-8" standalone="no"?>
<!DOCTYPE svg PUBLIC "-//W3C//DTD SVG 1.1//EN"
 "http://www.w3.org/Graphics/SVG/1.1/DTD/svg11.dtd">
<!-- Generated by graphviz version 2.26.3 (20100126.1600)
 -->
<!-- Title: proc~~json_get_logical_with_path~~CallsGraph Pages: 1 -->
<svg width="641pt" height="126pt"
 viewBox="0.00 0.00 641.00 125.70" xmlns="http://www.w3.org/2000/svg" xmlns:xlink="http://www.w3.org/1999/xlink">
<g id="graph1" class="graph" transform="scale(0.446379 0.446379) rotate(0) translate(4 277.597)">
<title>proc~~json_get_logical_with_path~~CallsGraph</title>
<polygon fill="white" stroke="white" points="-4,5 -4,-277.597 1433,-277.597 1433,5 -4,5"/>
<!-- proc~json_get_logical_with_path -->
<g id="node1" class="node"><title>proc~json_get_logical_with_path</title>
<polygon fill="none" stroke="black" points="141,-191 1,-191 1,-165 141,-165 141,-191"/>
<text text-anchor="middle" x="71" y="-175.55" font-family="Helvetica,sans-Serif" font-size="10.50">json_get_logical_with_path</text>
</g>
<!-- proc~json_get_logical -->
<g id="node2" class="node"><title>proc~json_get_logical</title>
<a xlink:href="../proc/json_get_logical.html" xlink:title="json_get_logical">
<polygon fill="#d9534f" stroke="#d9534f" points="826,-231 738,-231 738,-205 826,-205 826,-231"/>
<text text-anchor="middle" x="782" y="-215.55" font-family="Helvetica,sans-Serif" font-size="10.50" fill="white">json_get_logical</text>
</a>
</g>
<!-- proc~json_get_logical_with_path&#45;&gt;proc~json_get_logical -->
<g id="edge42" class="edge"><title>proc~json_get_logical_with_path&#45;&gt;proc~json_get_logical</title>
<path fill="none" stroke="black" d="M141.773,-181.982C283.555,-189.958 599.712,-207.745 727.171,-214.915"/>
<polygon fill="black" stroke="black" points="727.284,-218.427 737.465,-215.495 727.677,-211.438 727.284,-218.427"/>
</g>
<!-- proc~json_get_by_path -->
<g id="node3" class="node"><title>proc~json_get_by_path</title>
<a xlink:href="../proc/json_get_by_path.html" xlink:title="json_get_by_path">
<polygon fill="#d9534f" stroke="#d9534f" points="275,-152 179,-152 179,-126 275,-126 275,-152"/>
<text text-anchor="middle" x="227" y="-136.55" font-family="Helvetica,sans-Serif" font-size="10.50" fill="white">json_get_by_path</text>
</a>
</g>
<!-- proc~json_get_logical_with_path&#45;&gt;proc~json_get_by_path -->
<g id="edge44" class="edge"><title>proc~json_get_logical_with_path&#45;&gt;proc~json_get_by_path</title>
<path fill="none" stroke="black" d="M123.38,-164.905C137.835,-161.291 153.612,-157.347 168.395,-153.651"/>
<polygon fill="black" stroke="black" points="169.591,-156.96 178.443,-151.139 167.893,-150.169 169.591,-156.96"/>
</g>
<!-- proc~json_clear_exceptions -->
<g id="node4" class="node"><title>proc~json_clear_exceptions</title>
<a xlink:href="../proc/json_clear_exceptions.html" xlink:title="json_clear_exceptions">
<polygon fill="#d9534f" stroke="#d9534f" points="430,-66 312,-66 312,-40 430,-40 430,-66"/>
<text text-anchor="middle" x="371" y="-50.55" font-family="Helvetica,sans-Serif" font-size="10.50" fill="white">json_clear_exceptions</text>
</a>
</g>
<!-- proc~json_get_logical_with_path&#45;&gt;proc~json_clear_exceptions -->
<g id="edge46" class="edge"><title>proc~json_get_logical_with_path&#45;&gt;proc~json_clear_exceptions</title>
<path fill="none" stroke="black" d="M91.2774,-164.822C112.34,-151.526 146.554,-131.012 178,-117 222.143,-97.331 274.266,-80.3965 313.211,-68.8965"/>
<polygon fill="black" stroke="black" points="314.197,-72.2546 322.815,-66.0915 312.235,-65.5353 314.197,-72.2546"/>
</g>
<!-- interface~throw_exception -->
<g id="node5" class="node"><title>interface~throw_exception</title>
<a xlink:href="../interface/throw_exception.html" xlink:title="throw_exception">
<polygon fill="#a7506f" stroke="#a7506f" points="993,-152 903,-152 903,-126 993,-126 993,-152"/>
<text text-anchor="middle" x="948" y="-136.55" font-family="Helvetica,sans-Serif" font-size="10.50" fill="white">throw_exception</text>
</a>
</g>
<!-- proc~json_get_logical_with_path&#45;&gt;interface~throw_exception -->
<g id="edge48" class="edge"><title>proc~json_get_logical_with_path&#45;&gt;interface~throw_exception</title>
<path fill="none" stroke="black" d="M99.2715,-191.014C151.678,-213.911 267.959,-259 371,-259 371,-259 371,-259 564,-259 698.488,-259 746.453,-301.607 866,-240 899.351,-222.813 923.946,-185.405 937.106,-161.255"/>
<polygon fill="black" stroke="black" points="940.353,-162.598 941.887,-152.115 934.151,-159.353 940.353,-162.598"/>
</g>
<!-- proc~json_get_logical&#45;&gt;interface~throw_exception -->
<g id="edge2" class="edge"><title>proc~json_get_logical&#45;&gt;interface~throw_exception</title>
<path fill="none" stroke="black" d="M826.84,-205.904C839.74,-201.809 853.654,-196.783 866,-191 885.524,-181.854 906.007,-168.868 921.618,-158.161"/>
<polygon fill="black" stroke="black" points="924.007,-160.761 930.202,-152.166 919.999,-155.022 924.007,-160.761"/>
</g>
<!-- proc~json_get_by_path&#45;&gt;proc~json_clear_exceptions -->
<g id="edge30" class="edge"><title>proc~json_get_by_path&#45;&gt;proc~json_clear_exceptions</title>
<path fill="none" stroke="black" d="M241.749,-125.783C258.019,-111.727 285.431,-89.5544 312,-75 315.209,-73.2422 318.587,-71.568 322.036,-69.9856"/>
<polygon fill="black" stroke="black" points="323.458,-73.1841 331.26,-66.0168 320.691,-66.7539 323.458,-73.1841"/>
</g>
<!-- proc~json_get_by_path&#45;&gt;interface~throw_exception -->
<g id="edge26" class="edge"><title>proc~json_get_by_path&#45;&gt;interface~throw_exception</title>
<path fill="none" stroke="black" d="M275.866,-148.004C287.662,-149.913 300.253,-151.731 312,-153 556.799,-179.435 621.112,-178.597 866,-153 874.466,-152.115 883.38,-150.896 892.087,-149.542"/>
<polygon fill="black" stroke="black" points="892.864,-152.962 902.174,-147.905 891.742,-146.053 892.864,-152.962"/>
</g>
<!-- interface~json_get_child -->
<g id="node7" class="node"><title>interface~json_get_child</title>
<a xlink:href="../interface/json_get_child.html" xlink:title="json_get_child">
<polygon fill="#a7506f" stroke="#a7506f" points="411,-110 331,-110 331,-84 411,-84 411,-110"/>
<text text-anchor="middle" x="371" y="-94.55" font-family="Helvetica,sans-Serif" font-size="10.50" fill="white">json_get_child</text>
</a>
</g>
<!-- proc~json_get_by_path&#45;&gt;interface~json_get_child -->
<g id="edge28" class="edge"><title>proc~json_get_by_path&#45;&gt;interface~json_get_child</title>
<path fill="none" stroke="black" d="M271.773,-125.941C287.225,-121.434 304.639,-116.355 320.516,-111.725"/>
<polygon fill="black" stroke="black" points="321.552,-115.068 330.172,-108.908 319.592,-108.348 321.552,-115.068"/>
</g>
<!-- proc~string_to_integer -->
<g id="node8" class="node"><title>proc~string_to_integer</title>
<a xlink:href="../proc/string_to_integer.html" xlink:title="string_to_integer">
<polygon fill="#d94e8f" stroke="#d94e8f" points="610,-152 518,-152 518,-126 610,-126 610,-152"/>
<text text-anchor="middle" x="564" y="-136.55" font-family="Helvetica,sans-Serif" font-size="10.50" fill="white">string_to_integer</text>
</a>
</g>
<!-- proc~json_get_by_path&#45;&gt;proc~string_to_integer -->
<g id="edge32" class="edge"><title>proc~json_get_by_path&#45;&gt;proc~string_to_integer</title>
<path fill="none" stroke="black" d="M275.643,-139C336.979,-139 442.245,-139 507.205,-139"/>
<polygon fill="black" stroke="black" points="507.271,-142.5 517.271,-139 507.271,-135.5 507.271,-142.5"/>
</g>
<!-- proc~json_throw_exception -->
<g id="node31" class="node"><title>proc~json_throw_exception</title>
<a xlink:href="../proc/json_throw_exception.html" xlink:title="json_throw_exception">
<polygon fill="#d9534f" stroke="#d9534f" points="1328,-131 1212,-131 1212,-105 1328,-105 1328,-131"/>
<text text-anchor="middle" x="1270" y="-115.55" font-family="Helvetica,sans-Serif" font-size="10.50" fill="white">json_throw_exception</text>
</a>
</g>
<!-- interface~throw_exception&#45;&gt;proc~json_throw_exception -->
<g id="edge38" class="edge"><title>interface~throw_exception&#45;&gt;proc~json_throw_exception</title>
<path fill="none" stroke="black" stroke-dasharray="5,2" d="M993.793,-136.014C1048.07,-132.474 1139.03,-126.542 1201.65,-122.458"/>
<polygon fill="black" stroke="black" points="1202.08,-125.937 1211.83,-121.794 1201.62,-118.952 1202.08,-125.937"/>
</g>
<!-- proc~wrap_json_throw_exception -->
<g id="node32" class="node"><title>proc~wrap_json_throw_exception</title>
<a xlink:href="../proc/wrap_json_throw_exception.html" xlink:title="wrap_json_throw_exception">
<polygon fill="#d9534f" stroke="#d9534f" points="1175,-111 1031,-111 1031,-85 1175,-85 1175,-111"/>
<text text-anchor="middle" x="1103" y="-95.55" font-family="Helvetica,sans-Serif" font-size="10.50" fill="white">wrap_json_throw_exception</text>
</a>
</g>
<!-- interface~throw_exception&#45;&gt;proc~wrap_json_throw_exception -->
<g id="edge40" class="edge"><title>interface~throw_exception&#45;&gt;proc~wrap_json_throw_exception</title>
<path fill="none" stroke="black" stroke-dasharray="5,2" d="M993.667,-126.92C1009.27,-122.793 1026.96,-118.114 1043.49,-113.742"/>
<polygon fill="black" stroke="black" points="1044.83,-117.007 1053.6,-111.066 1043.04,-110.24 1044.83,-117.007"/>
</g>
<!-- proc~json_value_get_by_index -->
<g id="node9" class="node"><title>proc~json_value_get_by_index</title>
<a xlink:href="../proc/json_value_get_by_index.html" xlink:title="json_value_get_by_index">
<polygon fill="#d9534f" stroke="#d9534f" points="630,-108 498,-108 498,-82 630,-82 630,-108"/>
<text text-anchor="middle" x="564" y="-92.55" font-family="Helvetica,sans-Serif" font-size="10.50" fill="white">json_value_get_by_index</text>
</a>
</g>
<!-- interface~json_get_child&#45;&gt;proc~json_value_get_by_index -->
<g id="edge18" class="edge"><title>interface~json_get_child&#45;&gt;proc~json_value_get_by_index</title>
<path fill="none" stroke="black" stroke-dasharray="5,2" d="M411.93,-96.5759C433.812,-96.3491 461.475,-96.0624 487.191,-95.796"/>
<polygon fill="black" stroke="black" points="487.347,-99.2946 497.31,-95.6911 487.274,-92.295 487.347,-99.2946"/>
</g>
<!-- proc~json_value_get_by_name_chars -->
<g id="node10" class="node"><title>proc~json_value_get_by_name_chars</title>
<a xlink:href="../proc/json_value_get_by_name_chars.html" xlink:title="json_value_get_by_name_chars">
<polygon fill="#d9534f" stroke="#d9534f" points="865,-67 699,-67 699,-41 865,-41 865,-67"/>
<text text-anchor="middle" x="782" y="-51.55" font-family="Helvetica,sans-Serif" font-size="10.50" fill="white">json_value_get_by_name_chars</text>
</a>
</g>
<!-- interface~json_get_child&#45;&gt;proc~json_value_get_by_name_chars -->
<g id="edge20" class="edge"><title>interface~json_get_child&#45;&gt;proc~json_value_get_by_name_chars</title>
<path fill="none" stroke="black" stroke-dasharray="5,2" d="M411.804,-84.9064C428.465,-80.4377 448.013,-75.7876 466,-73 540.085,-61.5186 624.936,-56.8782 688.047,-55.0483"/>
<polygon fill="black" stroke="black" points="688.478,-58.538 698.38,-54.7681 688.289,-51.5406 688.478,-58.538"/>
</g>
<!-- proc~wrap_json_value_get_by_name_chars -->
<g id="node11" class="node"><title>proc~wrap_json_value_get_by_name_chars</title>
<a xlink:href="../proc/wrap_json_value_get_by_name_chars.html" xlink:title="wrap_json_value_get_by_name_chars">
<polygon fill="#d9534f" stroke="#d9534f" points="662,-26 466,-26 466,-1.24345e-14 662,-3.55271e-15 662,-26"/>
<text text-anchor="middle" x="564" y="-10.55" font-family="Helvetica,sans-Serif" font-size="10.50" fill="white">wrap_json_value_get_by_name_chars</text>
</a>
</g>
<!-- interface~json_get_child&#45;&gt;proc~wrap_json_value_get_by_name_chars -->
<g id="edge22" class="edge"><title>interface~json_get_child&#45;&gt;proc~wrap_json_value_get_by_name_chars</title>
<path fill="none" stroke="black" stroke-dasharray="5,2" d="M411.738,-84.3582C418.065,-81.6808 424.365,-78.5654 430,-75 448.858,-63.0687 446.635,-51.0896 466,-40 473.21,-35.8712 481.082,-32.3479 489.129,-29.347"/>
<polygon fill="black" stroke="black" points="490.322,-32.6378 498.627,-26.0591 488.032,-26.0229 490.322,-32.6378"/>
</g>
<!-- proc~string_to_integer&#45;&gt;interface~throw_exception -->
<g id="edge24" class="edge"><title>proc~string_to_integer&#45;&gt;interface~throw_exception</title>
<path fill="none" stroke="black" d="M610.702,-139C681.525,-139 815.868,-139 891.891,-139"/>
<polygon fill="black" stroke="black" points="892.219,-142.5 902.219,-139 892.219,-135.5 892.219,-142.5"/>
</g>
<!-- proc~json_value_get_by_index&#45;&gt;interface~throw_exception -->
<g id="edge4" class="edge"><title>proc~json_value_get_by_index&#45;&gt;interface~throw_exception</title>
<path fill="none" stroke="black" d="M630.888,-102.664C704.876,-111.142 822.768,-124.651 892.051,-132.589"/>
<polygon fill="black" stroke="black" points="891.99,-136.105 902.324,-133.766 892.787,-129.151 891.99,-136.105"/>
</g>
<!-- proc~json_value_get_by_name_chars&#45;&gt;interface~throw_exception -->
<g id="edge6" class="edge"><title>proc~json_value_get_by_name_chars&#45;&gt;interface~throw_exception</title>
<path fill="none" stroke="black" d="M825.157,-67.1146C838.538,-71.7856 853.14,-77.5174 866,-84 886.148,-94.1564 907.255,-108.409 923.008,-119.86"/>
<polygon fill="black" stroke="black" points="921.047,-122.762 931.169,-125.89 925.206,-117.132 921.047,-122.762"/>
</g>
<!-- proc~json_count -->
<g id="node13" class="node"><title>proc~json_count</title>
<a xlink:href="../proc/json_count.html" xlink:title="json_count">
<polygon fill="#d94e8f" stroke="#d94e8f" points="980,-67 916,-67 916,-41 980,-41 980,-67"/>
<text text-anchor="middle" x="948" y="-51.55" font-family="Helvetica,sans-Serif" font-size="10.50" fill="white">json_count</text>
</a>
</g>
<!-- proc~json_value_get_by_name_chars&#45;&gt;proc~json_count -->
<g id="edge8" class="edge"><title>proc~json_value_get_by_name_chars&#45;&gt;proc~json_count</title>
<path fill="none" stroke="black" d="M865.973,-54C879.656,-54 893.304,-54 905.429,-54"/>
<polygon fill="black" stroke="black" points="905.655,-57.5001 915.655,-54 905.655,-50.5001 905.655,-57.5001"/>
</g>
<!-- proc~wrap_json_value_get_by_name_chars&#45;&gt;proc~json_value_get_by_name_chars -->
<g id="edge16" class="edge"><title>proc~wrap_json_value_get_by_name_chars&#45;&gt;proc~json_value_get_by_name_chars</title>
<path fill="none" stroke="black" d="M633.276,-26.029C655.323,-30.1754 679.881,-34.7941 702.586,-39.0644"/>
<polygon fill="black" stroke="black" points="702.055,-42.5258 712.53,-40.9346 703.349,-35.6465 702.055,-42.5258"/>
</g>
<!-- interface~to_unicode -->
<g id="node16" class="node"><title>interface~to_unicode</title>
<a xlink:href="../interface/to_unicode.html" xlink:title="to_unicode">
<polygon fill="#a7506f" stroke="#a7506f" points="1302,-57 1238,-57 1238,-31 1302,-31 1302,-57"/>
<text text-anchor="middle" x="1270" y="-41.55" font-family="Helvetica,sans-Serif" font-size="10.50" fill="white">to_unicode</text>
</a>
</g>
<!-- proc~wrap_json_value_get_by_name_chars&#45;&gt;interface~to_unicode -->
<g id="edge14" class="edge"><title>proc~wrap_json_value_get_by_name_chars&#45;&gt;interface~to_unicode</title>
<path fill="none" stroke="black" d="M662.166,-17.3104C818.161,-24.16 1116.32,-37.2521 1227.13,-42.1178"/>
<polygon fill="black" stroke="black" points="1227.12,-45.6204 1237.26,-42.5625 1227.42,-38.6271 1227.12,-45.6204"/>
</g>
<!-- proc~to_uni_vec -->
<g id="node17" class="node"><title>proc~to_uni_vec</title>
<a xlink:href="../proc/to_uni_vec.html" xlink:title="to_uni_vec">
<polygon fill="#d94e8f" stroke="#d94e8f" points="1428,-79 1364,-79 1364,-53 1428,-53 1428,-79"/>
<text text-anchor="middle" x="1396" y="-63.55" font-family="Helvetica,sans-Serif" font-size="10.50" fill="white">to_uni_vec</text>
</a>
</g>
<!-- interface~to_unicode&#45;&gt;proc~to_uni_vec -->
<g id="edge10" class="edge"><title>interface~to_unicode&#45;&gt;proc~to_uni_vec</title>
<path fill="none" stroke="black" stroke-dasharray="5,2" d="M1302.78,-49.7228C1318.36,-52.443 1337.17,-55.7274 1353.8,-58.6314"/>
<polygon fill="black" stroke="black" points="1353.37,-62.1097 1363.82,-60.382 1354.58,-55.214 1353.37,-62.1097"/>
</g>
<!-- proc~to_uni -->
<g id="node18" class="node"><title>proc~to_uni</title>
<a xlink:href="../proc/to_uni.html" xlink:title="to_uni">
<polygon fill="#d94e8f" stroke="#d94e8f" points="1423,-35 1369,-35 1369,-9 1423,-9 1423,-35"/>
<text text-anchor="middle" x="1396" y="-19.55" font-family="Helvetica,sans-Serif" font-size="10.50" fill="white">to_uni</text>
</a>
</g>
<!-- interface~to_unicode&#45;&gt;proc~to_uni -->
<g id="edge12" class="edge"><title>interface~to_unicode&#45;&gt;proc~to_uni</title>
<path fill="none" stroke="black" stroke-dasharray="5,2" d="M1302.78,-38.2772C1319.97,-35.276 1341.09,-31.5878 1358.88,-28.4816"/>
<polygon fill="black" stroke="black" points="1359.66,-31.8974 1368.91,-26.7295 1358.46,-25.0017 1359.66,-31.8974"/>
</g>
<!-- proc~wrap_json_throw_exception&#45;&gt;interface~to_unicode -->
<g id="edge36" class="edge"><title>proc~wrap_json_throw_exception&#45;&gt;interface~to_unicode</title>
<path fill="none" stroke="black" d="M1143.43,-84.9281C1169.02,-76.6524 1202.05,-65.9728 1227.95,-57.5979"/>
<polygon fill="black" stroke="black" points="1229.06,-60.9178 1237.49,-54.5108 1226.9,-54.2574 1229.06,-60.9178"/>
</g>
<!-- proc~wrap_json_throw_exception&#45;&gt;proc~json_throw_exception -->
<g id="edge34" class="edge"><title>proc~wrap_json_throw_exception&#45;&gt;proc~json_throw_exception</title>
<path fill="none" stroke="black" d="M1175.76,-106.714C1184.42,-107.751 1193.23,-108.806 1201.82,-109.834"/>
<polygon fill="black" stroke="black" points="1201.43,-113.313 1211.77,-111.027 1202.26,-106.362 1201.43,-113.313"/>
</g>
</g>
</svg>
