<?xml version="1.0" encoding="UTF-8" standalone="no"?>
<!DOCTYPE svg PUBLIC "-//W3C//DTD SVG 1.1//EN"
 "http://www.w3.org/Graphics/SVG/1.1/DTD/svg11.dtd">
<!-- Generated by graphviz version 2.26.3 (20100126.1600)
 -->
<!-- Title: proc~~json_value_create_object~~CallsGraph Pages: 1 -->
<svg width="414pt" height="78pt"
 viewBox="0.00 0.00 414.00 78.00" xmlns="http://www.w3.org/2000/svg" xmlns:xlink="http://www.w3.org/1999/xlink">
<g id="graph1" class="graph" transform="scale(1 1) rotate(0) translate(4 74)">
<title>proc~~json_value_create_object~~CallsGraph</title>
<polygon fill="white" stroke="white" points="-4,5 -4,-74 411,-74 411,5 -4,5"/>
<!-- proc~json_value_create_object -->
<g id="node1" class="node"><title>proc~json_value_create_object</title>
<polygon fill="none" stroke="black" points="134,-48 5.68434e-14,-48 0,-22 134,-22 134,-48"/>
<text text-anchor="middle" x="67" y="-32.55" font-family="Helvetica,sans-Serif" font-size="10.50">json_value_create_object</text>
</g>
<!-- proc~json_value_create -->
<g id="node2" class="node"><title>proc~json_value_create</title>
<a xlink:href="../proc/json_value_create.html" xlink:title="json_value_create">
<polygon fill="#d9534f" stroke="#d9534f" points="270,-70 170,-70 170,-44 270,-44 270,-70"/>
<text text-anchor="middle" x="220" y="-54.55" font-family="Helvetica,sans-Serif" font-size="10.50" fill="white">json_value_create</text>
</a>
</g>
<!-- proc~json_value_create_object&#45;&gt;proc~json_value_create -->
<g id="edge4" class="edge"><title>proc~json_value_create_object&#45;&gt;proc~json_value_create</title>
<path fill="none" stroke="black" d="M134.108,-44.6495C142.67,-45.8807 151.392,-47.1348 159.835,-48.3489"/>
<polygon fill="black" stroke="black" points="159.57,-51.8467 169.967,-49.8057 160.567,-44.9179 159.57,-51.8467"/>
</g>
<!-- proc~to_object -->
<g id="node3" class="node"><title>proc~to_object</title>
<a xlink:href="../proc/to_object.html" xlink:title="to_object">
<polygon fill="#d9534f" stroke="#d9534f" points="248,-26 192,-26 192,-1.24345e-14 248,-3.55271e-15 248,-26"/>
<text text-anchor="middle" x="220" y="-10.55" font-family="Helvetica,sans-Serif" font-size="10.50" fill="white">to_object</text>
</a>
</g>
<!-- proc~json_value_create_object&#45;&gt;proc~to_object -->
<g id="edge6" class="edge"><title>proc~json_value_create_object&#45;&gt;proc~to_object</title>
<path fill="none" stroke="black" d="M134.108,-25.3505C150.39,-23.0093 167.247,-20.5853 181.671,-18.5113"/>
<polygon fill="black" stroke="black" points="182.301,-21.9569 191.701,-17.0692 181.304,-15.0282 182.301,-21.9569"/>
</g>
<!-- proc~destroy_json_data -->
<g id="node4" class="node"><title>proc~destroy_json_data</title>
<a xlink:href="../proc/destroy_json_data.html" xlink:title="destroy_json_data">
<polygon fill="#d9534f" stroke="#d9534f" points="406,-26 306,-26 306,-1.24345e-14 406,-3.55271e-15 406,-26"/>
<text text-anchor="middle" x="356" y="-10.55" font-family="Helvetica,sans-Serif" font-size="10.50" fill="white">destroy_json_data</text>
</a>
</g>
<!-- proc~to_object&#45;&gt;proc~destroy_json_data -->
<g id="edge2" class="edge"><title>proc~to_object&#45;&gt;proc~destroy_json_data</title>
<path fill="none" stroke="black" d="M248.179,-13C261.967,-13 279.128,-13 295.675,-13"/>
<polygon fill="black" stroke="black" points="295.863,-16.5001 305.863,-13 295.863,-9.5001 295.863,-16.5001"/>
</g>
</g>
</svg>
