<?xml version="1.0" encoding="UTF-8" standalone="no"?>
<!DOCTYPE svg PUBLIC "-//W3C//DTD SVG 1.1//EN"
 "http://www.w3.org/Graphics/SVG/1.1/DTD/svg11.dtd">
<!-- Generated by graphviz version 2.26.3 (20100126.1600)
 -->
<!-- Title: proc~~to_array~~CallsGraph Pages: 1 -->
<svg width="198pt" height="34pt"
 viewBox="0.00 0.00 198.00 34.00" xmlns="http://www.w3.org/2000/svg" xmlns:xlink="http://www.w3.org/1999/xlink">
<g id="graph1" class="graph" transform="scale(1 1) rotate(0) translate(4 30)">
<title>proc~~to_array~~CallsGraph</title>
<polygon fill="white" stroke="white" points="-4,5 -4,-30 195,-30 195,5 -4,5"/>
<!-- proc~to_array -->
<g id="node1" class="node"><title>proc~to_array</title>
<polygon fill="none" stroke="black" points="54,-26 2.13163e-14,-26 0,-1.24345e-14 54,-3.55271e-15 54,-26"/>
<text text-anchor="middle" x="27" y="-10.55" font-family="Helvetica,sans-Serif" font-size="10.50">to_array</text>
</g>
<!-- proc~destroy_json_data -->
<g id="node2" class="node"><title>proc~destroy_json_data</title>
<a xlink:href="../proc/destroy_json_data.html" xlink:title="destroy_json_data">
<polygon fill="#d9534f" stroke="#d9534f" points="190,-26 90,-26 90,-1.24345e-14 190,-3.55271e-15 190,-26"/>
<text text-anchor="middle" x="140" y="-10.55" font-family="Helvetica,sans-Serif" font-size="10.50" fill="white">destroy_json_data</text>
</a>
</g>
<!-- proc~to_array&#45;&gt;proc~destroy_json_data -->
<g id="edge2" class="edge"><title>proc~to_array&#45;&gt;proc~destroy_json_data</title>
<path fill="none" stroke="black" d="M54.0663,-13C61.8464,-13 70.6595,-13 79.6035,-13"/>
<polygon fill="black" stroke="black" points="79.7091,-16.5001 89.709,-13 79.709,-9.5001 79.7091,-16.5001"/>
</g>
</g>
</svg>
