<?xml version="1.0" encoding="UTF-8" standalone="no"?>
<!DOCTYPE svg PUBLIC "-//W3C//DTD SVG 1.1//EN"
 "http://www.w3.org/Graphics/SVG/1.1/DTD/svg11.dtd">
<!-- Generated by graphviz version 2.26.3 (20100126.1600)
 -->
<!-- Title: proc~~json_value_to_string~~CallsGraph Pages: 1 -->
<svg width="641pt" height="167pt"
 viewBox="0.00 0.00 641.00 167.35" xmlns="http://www.w3.org/2000/svg" xmlns:xlink="http://www.w3.org/1999/xlink">
<g id="graph1" class="graph" transform="scale(0.789409 0.789409) rotate(0) translate(4 208)">
<title>proc~~json_value_to_string~~CallsGraph</title>
<polygon fill="white" stroke="white" points="-4,5 -4,-208 809,-208 809,5 -4,5"/>
<!-- proc~json_value_to_string -->
<g id="node1" class="node"><title>proc~json_value_to_string</title>
<polygon fill="none" stroke="black" points="111,-116 1,-116 1,-90 111,-90 111,-116"/>
<text text-anchor="middle" x="56" y="-100.55" font-family="Helvetica,sans-Serif" font-size="10.50">json_value_to_string</text>
</g>
<!-- proc~json_value_print -->
<g id="node2" class="node"><title>proc~json_value_print</title>
<a xlink:href="../proc/json_value_print.html" xlink:title="json_value_print">
<polygon fill="#d9534f" stroke="#d9534f" points="239,-116 149,-116 149,-90 239,-90 239,-116"/>
<text text-anchor="middle" x="194" y="-100.55" font-family="Helvetica,sans-Serif" font-size="10.50" fill="white">json_value_print</text>
</a>
</g>
<!-- proc~json_value_to_string&#45;&gt;proc~json_value_print -->
<g id="edge28" class="edge"><title>proc~json_value_to_string&#45;&gt;proc~json_value_print</title>
<path fill="none" stroke="black" d="M111.732,-103C120.442,-103 129.445,-103 138.158,-103"/>
<polygon fill="black" stroke="black" points="138.217,-106.5 148.217,-103 138.217,-99.5001 138.217,-106.5"/>
</g>
<!-- proc~json_value_print&#45;&gt;proc~json_value_print -->
<g id="edge26" class="edge"><title>proc~json_value_print&#45;&gt;proc~json_value_print</title>
<path fill="none" stroke="black" d="M172.344,-116.06C165.781,-125.1 173,-134 194,-134 206.797,-134 214.476,-130.695 217.038,-126.067"/>
<polygon fill="black" stroke="black" points="220.491,-125.487 215.656,-116.06 213.557,-126.445 220.491,-125.487"/>
</g>
<!-- none~write_it -->
<g id="node3" class="node"><title>none~write_it</title>
<polygon fill="#d9534f" stroke="#d9534f" points="350,-204 296,-204 296,-178 350,-178 350,-204"/>
<text text-anchor="middle" x="323" y="-188.55" font-family="Helvetica,sans-Serif" font-size="10.50" fill="white">write_it</text>
</g>
<!-- proc~json_value_print&#45;&gt;none~write_it -->
<g id="edge16" class="edge"><title>proc~json_value_print&#45;&gt;none~write_it</title>
<path fill="none" stroke="black" d="M208.02,-116.04C223.747,-130.236 250.417,-153.041 276,-169 279.344,-171.086 282.918,-173.102 286.546,-175.01"/>
<polygon fill="black" stroke="black" points="285.061,-178.181 295.572,-179.512 288.185,-171.917 285.061,-178.181"/>
</g>
<!-- proc~real_to_string -->
<g id="node4" class="node"><title>proc~real_to_string</title>
<a xlink:href="../proc/real_to_string.html" xlink:title="real_to_string">
<polygon fill="#d9534f" stroke="#d9534f" points="362,-160 284,-160 284,-134 362,-134 362,-160"/>
<text text-anchor="middle" x="323" y="-144.55" font-family="Helvetica,sans-Serif" font-size="10.50" fill="white">real_to_string</text>
</a>
</g>
<!-- proc~json_value_print&#45;&gt;proc~real_to_string -->
<g id="edge18" class="edge"><title>proc~json_value_print&#45;&gt;proc~real_to_string</title>
<path fill="none" stroke="black" d="M232.355,-116.082C245.751,-120.652 260.959,-125.839 275.039,-130.641"/>
<polygon fill="black" stroke="black" points="273.976,-133.976 284.57,-133.892 276.235,-127.351 273.976,-133.976"/>
</g>
<!-- proc~json_count -->
<g id="node5" class="node"><title>proc~json_count</title>
<a xlink:href="../proc/json_count.html" xlink:title="json_count">
<polygon fill="#d94e8f" stroke="#d94e8f" points="355,-116 291,-116 291,-90 355,-90 355,-116"/>
<text text-anchor="middle" x="323" y="-100.55" font-family="Helvetica,sans-Serif" font-size="10.50" fill="white">json_count</text>
</a>
</g>
<!-- proc~json_value_print&#45;&gt;proc~json_count -->
<g id="edge20" class="edge"><title>proc~json_value_print&#45;&gt;proc~json_count</title>
<path fill="none" stroke="black" d="M239.844,-103C253.101,-103 267.509,-103 280.549,-103"/>
<polygon fill="black" stroke="black" points="280.666,-106.5 290.666,-103 280.666,-99.5001 280.666,-106.5"/>
</g>
<!-- interface~throw_exception -->
<g id="node6" class="node"><title>interface~throw_exception</title>
<a xlink:href="../interface/throw_exception.html" xlink:title="throw_exception">
<polygon fill="#a7506f" stroke="#a7506f" points="368,-72 278,-72 278,-46 368,-46 368,-72"/>
<text text-anchor="middle" x="323" y="-56.55" font-family="Helvetica,sans-Serif" font-size="10.50" fill="white">throw_exception</text>
</a>
</g>
<!-- proc~json_value_print&#45;&gt;interface~throw_exception -->
<g id="edge22" class="edge"><title>proc~json_value_print&#45;&gt;interface~throw_exception</title>
<path fill="none" stroke="black" d="M232.355,-89.9177C245.751,-85.3484 260.959,-80.1614 275.039,-75.3589"/>
<polygon fill="black" stroke="black" points="276.235,-78.6488 284.57,-72.1079 273.976,-72.0236 276.235,-78.6488"/>
</g>
<!-- proc~integer_to_string -->
<g id="node7" class="node"><title>proc~integer_to_string</title>
<a xlink:href="../proc/integer_to_string.html" xlink:title="integer_to_string">
<polygon fill="#d9534f" stroke="#d9534f" points="369,-28 277,-28 277,-2 369,-2 369,-28"/>
<text text-anchor="middle" x="323" y="-12.55" font-family="Helvetica,sans-Serif" font-size="10.50" fill="white">integer_to_string</text>
</a>
</g>
<!-- proc~json_value_print&#45;&gt;proc~integer_to_string -->
<g id="edge24" class="edge"><title>proc~json_value_print&#45;&gt;proc~integer_to_string</title>
<path fill="none" stroke="black" d="M208.02,-89.9598C223.747,-75.7639 250.417,-52.9594 276,-37 278.286,-35.5739 280.679,-34.1808 283.124,-32.8324"/>
<polygon fill="black" stroke="black" points="284.84,-35.8848 292.098,-28.1663 281.611,-29.6741 284.84,-35.8848"/>
</g>
<!-- proc~compact_real_string -->
<g id="node8" class="node"><title>proc~compact_real_string</title>
<a xlink:href="../proc/compact_real_string.html" xlink:title="compact_real_string">
<polygon fill="#d9534f" stroke="#d9534f" points="533,-160 425,-160 425,-134 533,-134 533,-160"/>
<text text-anchor="middle" x="479" y="-144.55" font-family="Helvetica,sans-Serif" font-size="10.50" fill="white">compact_real_string</text>
</a>
</g>
<!-- proc~real_to_string&#45;&gt;proc~compact_real_string -->
<g id="edge2" class="edge"><title>proc~real_to_string&#45;&gt;proc~compact_real_string</title>
<path fill="none" stroke="black" d="M362.365,-147C378.06,-147 396.545,-147 414.117,-147"/>
<polygon fill="black" stroke="black" points="414.329,-150.5 424.329,-147 414.329,-143.5 414.329,-150.5"/>
</g>
<!-- proc~json_throw_exception -->
<g id="node10" class="node"><title>proc~json_throw_exception</title>
<a xlink:href="../proc/json_throw_exception.html" xlink:title="json_throw_exception">
<polygon fill="#d9534f" stroke="#d9534f" points="704,-92 588,-92 588,-66 704,-66 704,-92"/>
<text text-anchor="middle" x="646" y="-76.55" font-family="Helvetica,sans-Serif" font-size="10.50" fill="white">json_throw_exception</text>
</a>
</g>
<!-- interface~throw_exception&#45;&gt;proc~json_throw_exception -->
<g id="edge12" class="edge"><title>interface~throw_exception&#45;&gt;proc~json_throw_exception</title>
<path fill="none" stroke="black" stroke-dasharray="5,2" d="M368.593,-61.8231C423.035,-65.1941 514.618,-70.8649 577.566,-74.7626"/>
<polygon fill="black" stroke="black" points="577.604,-78.2716 587.802,-75.3964 578.037,-71.285 577.604,-78.2716"/>
</g>
<!-- proc~wrap_json_throw_exception -->
<g id="node11" class="node"><title>proc~wrap_json_throw_exception</title>
<a xlink:href="../proc/wrap_json_throw_exception.html" xlink:title="wrap_json_throw_exception">
<polygon fill="#d9534f" stroke="#d9534f" points="551,-51 407,-51 407,-25 551,-25 551,-51"/>
<text text-anchor="middle" x="479" y="-35.55" font-family="Helvetica,sans-Serif" font-size="10.50" fill="white">wrap_json_throw_exception</text>
</a>
</g>
<!-- interface~throw_exception&#45;&gt;proc~wrap_json_throw_exception -->
<g id="edge14" class="edge"><title>interface~throw_exception&#45;&gt;proc~wrap_json_throw_exception</title>
<path fill="none" stroke="black" stroke-dasharray="5,2" d="M368.541,-52.8695C377.352,-51.6834 386.835,-50.4069 396.41,-49.1178"/>
<polygon fill="black" stroke="black" points="396.955,-52.5762 406.398,-47.7733 396.021,-45.6388 396.955,-52.5762"/>
</g>
<!-- proc~wrap_json_throw_exception&#45;&gt;proc~json_throw_exception -->
<g id="edge8" class="edge"><title>proc~wrap_json_throw_exception&#45;&gt;proc~json_throw_exception</title>
<path fill="none" stroke="black" d="M532.299,-51.0854C548.346,-55.0251 566.113,-59.3871 582.741,-63.4693"/>
<polygon fill="black" stroke="black" points="582.375,-66.9833 592.921,-65.9686 584.044,-60.1852 582.375,-66.9833"/>
</g>
<!-- interface~to_unicode -->
<g id="node12" class="node"><title>interface~to_unicode</title>
<a xlink:href="../interface/to_unicode.html" xlink:title="to_unicode">
<polygon fill="#a7506f" stroke="#a7506f" points="678,-48 614,-48 614,-22 678,-22 678,-48"/>
<text text-anchor="middle" x="646" y="-32.55" font-family="Helvetica,sans-Serif" font-size="10.50" fill="white">to_unicode</text>
</a>
</g>
<!-- proc~wrap_json_throw_exception&#45;&gt;interface~to_unicode -->
<g id="edge10" class="edge"><title>proc~wrap_json_throw_exception&#45;&gt;interface~to_unicode</title>
<path fill="none" stroke="black" d="M551.763,-36.6929C569.188,-36.3799 587.248,-36.0554 602.839,-35.7754"/>
<polygon fill="black" stroke="black" points="603.264,-39.2684 613.199,-35.5892 603.138,-32.2695 603.264,-39.2684"/>
</g>
<!-- proc~to_uni_vec -->
<g id="node13" class="node"><title>proc~to_uni_vec</title>
<a xlink:href="../proc/to_uni_vec.html" xlink:title="to_uni_vec">
<polygon fill="#d94e8f" stroke="#d94e8f" points="804,-70 740,-70 740,-44 804,-44 804,-70"/>
<text text-anchor="middle" x="772" y="-54.55" font-family="Helvetica,sans-Serif" font-size="10.50" fill="white">to_uni_vec</text>
</a>
</g>
<!-- interface~to_unicode&#45;&gt;proc~to_uni_vec -->
<g id="edge4" class="edge"><title>interface~to_unicode&#45;&gt;proc~to_uni_vec</title>
<path fill="none" stroke="black" stroke-dasharray="5,2" d="M678.776,-40.7228C694.355,-43.443 713.166,-46.7274 729.798,-49.6314"/>
<polygon fill="black" stroke="black" points="729.371,-53.1097 739.824,-51.382 730.575,-46.214 729.371,-53.1097"/>
</g>
<!-- proc~to_uni -->
<g id="node14" class="node"><title>proc~to_uni</title>
<a xlink:href="../proc/to_uni.html" xlink:title="to_uni">
<polygon fill="#d94e8f" stroke="#d94e8f" points="799,-26 745,-26 745,-1.24345e-14 799,-3.55271e-15 799,-26"/>
<text text-anchor="middle" x="772" y="-10.55" font-family="Helvetica,sans-Serif" font-size="10.50" fill="white">to_uni</text>
</a>
</g>
<!-- interface~to_unicode&#45;&gt;proc~to_uni -->
<g id="edge6" class="edge"><title>interface~to_unicode&#45;&gt;proc~to_uni</title>
<path fill="none" stroke="black" stroke-dasharray="5,2" d="M678.776,-29.2772C695.965,-26.276 717.088,-22.5878 734.878,-19.4816"/>
<polygon fill="black" stroke="black" points="735.664,-22.8974 744.913,-17.7295 734.46,-16.0017 735.664,-22.8974"/>
</g>
</g>
</svg>
