<?xml version="1.0" encoding="UTF-8" standalone="no"?>
<!DOCTYPE svg PUBLIC "-//W3C//DTD SVG 1.1//EN"
 "http://www.w3.org/Graphics/SVG/1.1/DTD/svg11.dtd">
<!-- Generated by graphviz version 2.26.3 (20100126.1600)
 -->
<!-- Title: proc~~wrap_json_throw_exception~~CallsGraph Pages: 1 -->
<svg width="406pt" height="100pt"
 viewBox="0.00 0.00 406.00 100.00" xmlns="http://www.w3.org/2000/svg" xmlns:xlink="http://www.w3.org/1999/xlink">
<g id="graph1" class="graph" transform="scale(1 1) rotate(0) translate(4 96)">
<title>proc~~wrap_json_throw_exception~~CallsGraph</title>
<polygon fill="white" stroke="white" points="-4,5 -4,-96 403,-96 403,5 -4,5"/>
<!-- proc~wrap_json_throw_exception -->
<g id="node1" class="node"><title>proc~wrap_json_throw_exception</title>
<polygon fill="none" stroke="black" points="145,-70 1,-70 1,-44 145,-44 145,-70"/>
<text text-anchor="middle" x="73" y="-54.55" font-family="Helvetica,sans-Serif" font-size="10.50">wrap_json_throw_exception</text>
</g>
<!-- proc~json_throw_exception -->
<g id="node2" class="node"><title>proc~json_throw_exception</title>
<a xlink:href="../proc/json_throw_exception.html" xlink:title="json_throw_exception">
<polygon fill="#d9534f" stroke="#d9534f" points="298,-92 182,-92 182,-66 298,-66 298,-92"/>
<text text-anchor="middle" x="240" y="-76.55" font-family="Helvetica,sans-Serif" font-size="10.50" fill="white">json_throw_exception</text>
</a>
</g>
<!-- proc~wrap_json_throw_exception&#45;&gt;proc~json_throw_exception -->
<g id="edge6" class="edge"><title>proc~wrap_json_throw_exception&#45;&gt;proc~json_throw_exception</title>
<path fill="none" stroke="black" d="M145.763,-66.5855C154.418,-67.7257 163.229,-68.8865 171.817,-70.0178"/>
<polygon fill="black" stroke="black" points="171.401,-73.4932 181.773,-71.3294 172.316,-66.5532 171.401,-73.4932"/>
</g>
<!-- interface~to_unicode -->
<g id="node3" class="node"><title>interface~to_unicode</title>
<a xlink:href="../interface/to_unicode.html" xlink:title="to_unicode">
<polygon fill="#a7506f" stroke="#a7506f" points="272,-48 208,-48 208,-22 272,-22 272,-48"/>
<text text-anchor="middle" x="240" y="-32.55" font-family="Helvetica,sans-Serif" font-size="10.50" fill="white">to_unicode</text>
</a>
</g>
<!-- proc~wrap_json_throw_exception&#45;&gt;interface~to_unicode -->
<g id="edge8" class="edge"><title>proc~wrap_json_throw_exception&#45;&gt;interface~to_unicode</title>
<path fill="none" stroke="black" d="M145.763,-47.4145C163.188,-45.1189 181.248,-42.7398 196.839,-40.6859"/>
<polygon fill="black" stroke="black" points="197.742,-44.0972 207.199,-39.3211 196.828,-37.1572 197.742,-44.0972"/>
</g>
<!-- proc~to_uni_vec -->
<g id="node4" class="node"><title>proc~to_uni_vec</title>
<a xlink:href="../proc/to_uni_vec.html" xlink:title="to_uni_vec">
<polygon fill="#d94e8f" stroke="#d94e8f" points="398,-70 334,-70 334,-44 398,-44 398,-70"/>
<text text-anchor="middle" x="366" y="-54.55" font-family="Helvetica,sans-Serif" font-size="10.50" fill="white">to_uni_vec</text>
</a>
</g>
<!-- interface~to_unicode&#45;&gt;proc~to_uni_vec -->
<g id="edge2" class="edge"><title>interface~to_unicode&#45;&gt;proc~to_uni_vec</title>
<path fill="none" stroke="black" stroke-dasharray="5,2" d="M272.776,-40.7228C288.355,-43.443 307.166,-46.7274 323.798,-49.6314"/>
<polygon fill="black" stroke="black" points="323.371,-53.1097 333.824,-51.382 324.575,-46.214 323.371,-53.1097"/>
</g>
<!-- proc~to_uni -->
<g id="node5" class="node"><title>proc~to_uni</title>
<a xlink:href="../proc/to_uni.html" xlink:title="to_uni">
<polygon fill="#d94e8f" stroke="#d94e8f" points="393,-26 339,-26 339,-1.24345e-14 393,-3.55271e-15 393,-26"/>
<text text-anchor="middle" x="366" y="-10.55" font-family="Helvetica,sans-Serif" font-size="10.50" fill="white">to_uni</text>
</a>
</g>
<!-- interface~to_unicode&#45;&gt;proc~to_uni -->
<g id="edge4" class="edge"><title>interface~to_unicode&#45;&gt;proc~to_uni</title>
<path fill="none" stroke="black" stroke-dasharray="5,2" d="M272.776,-29.2772C289.965,-26.276 311.088,-22.5878 328.878,-19.4816"/>
<polygon fill="black" stroke="black" points="329.664,-22.8974 338.913,-17.7295 328.46,-16.0017 329.664,-22.8974"/>
</g>
</g>
</svg>
