<?xml version="1.0" encoding="UTF-8" standalone="no"?>
<!DOCTYPE svg PUBLIC "-//W3C//DTD SVG 1.1//EN"
 "http://www.w3.org/Graphics/SVG/1.1/DTD/svg11.dtd">
<!-- Generated by graphviz version 2.26.3 (20100126.1600)
 -->
<!-- Title: proc~~parse_array~~CalledByGraph Pages: 1 -->
<svg width="641pt" height="110pt"
 viewBox="0.00 0.00 641.00 109.92" xmlns="http://www.w3.org/2000/svg" xmlns:xlink="http://www.w3.org/1999/xlink">
<g id="graph1" class="graph" transform="scale(0.66219 0.66219) rotate(0) translate(4 162)">
<title>proc~~parse_array~~CalledByGraph</title>
<polygon fill="white" stroke="white" points="-4,5 -4,-162 965,-162 965,5 -4,5"/>
<!-- proc~parse_array -->
<g id="node1" class="node"><title>proc~parse_array</title>
<polygon fill="none" stroke="black" points="728,-136 658,-136 658,-110 728,-110 728,-136"/>
<text text-anchor="middle" x="693" y="-120.55" font-family="Helvetica,sans-Serif" font-size="10.50">parse_array</text>
</g>
<!-- proc~parse_value -->
<g id="node2" class="node"><title>proc~parse_value</title>
<a xlink:href="../proc/parse_value.html" xlink:title="parse_value">
<polygon fill="#d9534f" stroke="#d9534f" points="849,-114 779,-114 779,-88 849,-88 849,-114"/>
<text text-anchor="middle" x="814" y="-98.55" font-family="Helvetica,sans-Serif" font-size="10.50" fill="white">parse_value</text>
</a>
</g>
<!-- proc~parse_array&#45;&gt;proc~parse_value -->
<g id="edge34" class="edge"><title>proc~parse_array&#45;&gt;proc~parse_value</title>
<path fill="none" stroke="black" d="M728.323,-110.376C740.886,-107.512 755.211,-104.787 768.505,-102.71"/>
<polygon fill="black" stroke="black" points="769.037,-106.169 778.423,-101.256 768.021,-99.2434 769.037,-106.169"/>
</g>
<!-- proc~parse_value&#45;&gt;proc~parse_array -->
<g id="edge36" class="edge"><title>proc~parse_value&#45;&gt;proc~parse_array</title>
<path fill="none" stroke="black" d="M778.423,-113.681C765.837,-116.544 751.507,-119.263 738.227,-121.332"/>
<polygon fill="black" stroke="black" points="737.713,-117.87 728.323,-122.779 738.724,-124.796 737.713,-117.87"/>
</g>
<!-- proc~parse_object -->
<g id="node4" class="node"><title>proc~parse_object</title>
<a xlink:href="../proc/parse_object.html" xlink:title="parse_object">
<polygon fill="#d9534f" stroke="#d9534f" points="960,-114 886,-114 886,-88 960,-88 960,-114"/>
<text text-anchor="middle" x="923" y="-98.55" font-family="Helvetica,sans-Serif" font-size="10.50" fill="white">parse_object</text>
</a>
</g>
<!-- proc~parse_value&#45;&gt;proc~parse_object -->
<g id="edge22" class="edge"><title>proc~parse_value&#45;&gt;proc~parse_object</title>
<path fill="none" stroke="black" d="M849.691,-94.6208C857.991,-94.2809 866.955,-94.1747 875.67,-94.3022"/>
<polygon fill="black" stroke="black" points="875.645,-97.8026 885.731,-94.5593 875.824,-90.8049 875.645,-97.8026"/>
</g>
<!-- proc~json_parse_string -->
<g id="node3" class="node"><title>proc~json_parse_string</title>
<a xlink:href="../proc/json_parse_string.html" xlink:title="json_parse_string">
<polygon fill="#d9534f" stroke="#d9534f" points="741,-92 645,-92 645,-66 741,-66 741,-92"/>
<text text-anchor="middle" x="693" y="-76.55" font-family="Helvetica,sans-Serif" font-size="10.50" fill="white">json_parse_string</text>
</a>
</g>
<!-- proc~json_parse_string&#45;&gt;proc~parse_value -->
<g id="edge28" class="edge"><title>proc~json_parse_string&#45;&gt;proc~parse_value</title>
<path fill="none" stroke="black" d="M741.518,-87.8215C750.308,-89.4196 759.449,-91.0817 768.159,-92.6653"/>
<polygon fill="black" stroke="black" points="767.674,-96.1344 778.139,-94.4797 768.926,-89.2473 767.674,-96.1344"/>
</g>
<!-- proc~parse_object&#45;&gt;proc~parse_value -->
<g id="edge30" class="edge"><title>proc~parse_object&#45;&gt;proc~parse_value</title>
<path fill="none" stroke="black" d="M885.731,-107.441C877.442,-107.748 868.56,-107.826 859.968,-107.676"/>
<polygon fill="black" stroke="black" points="859.788,-104.169 849.691,-107.379 859.585,-111.166 859.788,-104.169"/>
</g>
<!-- proc~parse_object&#45;&gt;proc~parse_object -->
<g id="edge24" class="edge"><title>proc~parse_object&#45;&gt;proc~parse_object</title>
<path fill="none" stroke="black" d="M904.728,-114.06C899.19,-123.1 905.281,-132 923,-132 933.797,-132 940.277,-128.695 942.438,-124.067"/>
<polygon fill="black" stroke="black" points="945.906,-123.588 941.272,-114.06 938.953,-124.398 945.906,-123.588"/>
</g>
<!-- proc~json_parse_file -->
<g id="node5" class="node"><title>proc~json_parse_file</title>
<a xlink:href="../proc/json_parse_file.html" xlink:title="json_parse_file">
<polygon fill="#d9534f" stroke="#d9534f" points="586,-48 502,-48 502,-22 586,-22 586,-48"/>
<text text-anchor="middle" x="544" y="-32.55" font-family="Helvetica,sans-Serif" font-size="10.50" fill="white">json_parse_file</text>
</a>
</g>
<!-- proc~json_parse_file&#45;&gt;proc~parse_value -->
<g id="edge32" class="edge"><title>proc~json_parse_file&#45;&gt;proc~parse_value</title>
<path fill="none" stroke="black" d="M586.88,-34.4404C627.792,-35.132 690.622,-39.4246 742,-57 758.668,-62.7017 775.563,-72.7552 788.795,-81.8142"/>
<polygon fill="black" stroke="black" points="787.14,-84.9316 797.322,-87.8611 791.189,-79.2216 787.14,-84.9316"/>
</g>
<!-- proc~wrap_json_parse_string -->
<g id="node6" class="node"><title>proc~wrap_json_parse_string</title>
<a xlink:href="../proc/wrap_json_parse_string.html" xlink:title="wrap_json_parse_string">
<polygon fill="#d9534f" stroke="#d9534f" points="607,-92 481,-92 481,-66 607,-66 607,-92"/>
<text text-anchor="middle" x="544" y="-76.55" font-family="Helvetica,sans-Serif" font-size="10.50" fill="white">wrap_json_parse_string</text>
</a>
</g>
<!-- proc~wrap_json_parse_string&#45;&gt;proc~json_parse_string -->
<g id="edge18" class="edge"><title>proc~wrap_json_parse_string&#45;&gt;proc~json_parse_string</title>
<path fill="none" stroke="black" d="M607.622,-79C616.49,-79 625.569,-79 634.341,-79"/>
<polygon fill="black" stroke="black" points="634.466,-82.5001 644.466,-79 634.466,-75.5001 634.466,-82.5001"/>
</g>
<!-- interface~json_parse -->
<g id="node7" class="node"><title>interface~json_parse</title>
<a xlink:href="../interface/json_parse.html" xlink:title="json_parse">
<polygon fill="#a7506f" stroke="#a7506f" points="443,-92 379,-92 379,-66 443,-66 443,-92"/>
<text text-anchor="middle" x="411" y="-76.55" font-family="Helvetica,sans-Serif" font-size="10.50" fill="white">json_parse</text>
</a>
</g>
<!-- interface~json_parse&#45;&gt;proc~json_parse_string -->
<g id="edge20" class="edge"><title>interface~json_parse&#45;&gt;proc~json_parse_string</title>
<path fill="none" stroke="black" stroke-dasharray="5,2" d="M443.842,-91.7484C455.124,-95.5127 467.949,-99.1253 480,-101 536.213,-109.745 551.567,-108.185 608,-101 618.883,-99.6145 630.364,-97.2693 641.248,-94.6135"/>
<polygon fill="black" stroke="black" points="642.221,-97.9771 651.041,-92.1057 640.485,-91.1959 642.221,-97.9771"/>
</g>
<!-- interface~json_parse&#45;&gt;proc~json_parse_file -->
<g id="edge26" class="edge"><title>interface~json_parse&#45;&gt;proc~json_parse_file</title>
<path fill="none" stroke="black" stroke-dasharray="5,2" d="M443.535,-68.2364C458.964,-63.1322 477.727,-56.9248 494.842,-51.2627"/>
<polygon fill="black" stroke="black" points="496.297,-54.4681 504.692,-48.0043 494.098,-47.8223 496.297,-54.4681"/>
</g>
<!-- interface~json_parse&#45;&gt;proc~wrap_json_parse_string -->
<g id="edge16" class="edge"><title>interface~json_parse&#45;&gt;proc~wrap_json_parse_string</title>
<path fill="none" stroke="black" stroke-dasharray="5,2" d="M443.535,-79C451.724,-79 460.853,-79 470.175,-79"/>
<polygon fill="black" stroke="black" points="470.333,-82.5001 480.333,-79 470.333,-75.5001 470.333,-82.5001"/>
</g>
<!-- proc~test_14 -->
<g id="node8" class="node"><title>proc~test_14</title>
<a xlink:href="../proc/test_14.html" xlink:title="test_14">
<polygon fill="#d9534f" stroke="#d9534f" points="300,-158 246,-158 246,-132 300,-132 300,-158"/>
<text text-anchor="middle" x="273" y="-142.55" font-family="Helvetica,sans-Serif" font-size="10.50" fill="white">test_14</text>
</a>
</g>
<!-- proc~test_14&#45;&gt;interface~json_parse -->
<g id="edge8" class="edge"><title>proc~test_14&#45;&gt;interface~json_parse</title>
<path fill="none" stroke="black" d="M300.155,-138.106C313.122,-134.373 328.679,-129.241 342,-123 356.804,-116.064 372.241,-106.473 384.75,-98.0158"/>
<polygon fill="black" stroke="black" points="387.055,-100.678 393.29,-92.1121 383.074,-94.9194 387.055,-100.678"/>
</g>
<!-- proc~test_8 -->
<g id="node9" class="node"><title>proc~test_8</title>
<a xlink:href="../proc/test_8.html" xlink:title="test_8">
<polygon fill="#d9534f" stroke="#d9534f" points="300,-114 246,-114 246,-88 300,-88 300,-114"/>
<text text-anchor="middle" x="273" y="-98.55" font-family="Helvetica,sans-Serif" font-size="10.50" fill="white">test_8</text>
</a>
</g>
<!-- proc~test_8&#45;&gt;interface~json_parse -->
<g id="edge10" class="edge"><title>proc~test_8&#45;&gt;interface~json_parse</title>
<path fill="none" stroke="black" d="M300.264,-96.6535C319.658,-93.5617 346.098,-89.3467 368.279,-85.8106"/>
<polygon fill="black" stroke="black" points="369.127,-89.2196 378.452,-84.1889 368.025,-82.3069 369.127,-89.2196"/>
</g>
<!-- proc~json_file_load -->
<g id="node10" class="node"><title>proc~json_file_load</title>
<a xlink:href="../proc/json_file_load.html" xlink:title="json_file_load">
<polygon fill="#d9534f" stroke="#d9534f" points="312,-70 234,-70 234,-44 312,-44 312,-70"/>
<text text-anchor="middle" x="273" y="-54.55" font-family="Helvetica,sans-Serif" font-size="10.50" fill="white">json_file_load</text>
</a>
</g>
<!-- proc~json_file_load&#45;&gt;interface~json_parse -->
<g id="edge12" class="edge"><title>proc~json_file_load&#45;&gt;interface~json_parse</title>
<path fill="none" stroke="black" d="M312.176,-63.2455C329.71,-66.0407 350.425,-69.3432 368.349,-72.2006"/>
<polygon fill="black" stroke="black" points="367.831,-75.6622 378.258,-73.7802 368.933,-68.7494 367.831,-75.6622"/>
</g>
<!-- proc~json_file_load_from_string -->
<g id="node11" class="node"><title>proc~json_file_load_from_string</title>
<a xlink:href="../proc/json_file_load_from_string.html" xlink:title="json_file_load_from_string">
<polygon fill="#d9534f" stroke="#d9534f" points="342,-26 204,-26 204,-1.24345e-14 342,-3.55271e-15 342,-26"/>
<text text-anchor="middle" x="273" y="-10.55" font-family="Helvetica,sans-Serif" font-size="10.50" fill="white">json_file_load_from_string</text>
</a>
</g>
<!-- proc~json_file_load_from_string&#45;&gt;interface~json_parse -->
<g id="edge14" class="edge"><title>proc~json_file_load_from_string&#45;&gt;interface~json_parse</title>
<path fill="none" stroke="black" d="M319.657,-26.0557C327.254,-28.6968 334.941,-31.6926 342,-35 356.804,-41.9363 372.241,-51.5269 384.75,-59.9842"/>
<polygon fill="black" stroke="black" points="383.074,-63.0806 393.29,-65.8879 387.055,-57.3225 383.074,-63.0806"/>
</g>
<!-- program~jf_test_14 -->
<g id="node12" class="node"><title>program~jf_test_14</title>
<a xlink:href="../program/jf_test_14.html" xlink:title="jf_test_14">
<polygon fill="#f0ad4e" stroke="#f0ad4e" points="113,-158 55,-158 55,-132 113,-132 113,-158"/>
<text text-anchor="middle" x="84" y="-142.55" font-family="Helvetica,sans-Serif" font-size="10.50" fill="white">jf_test_14</text>
</a>
</g>
<!-- program~jf_test_14&#45;&gt;proc~test_14 -->
<g id="edge2" class="edge"><title>program~jf_test_14&#45;&gt;proc~test_14</title>
<path fill="none" stroke="black" d="M113.531,-145C146.509,-145 199.947,-145 235.765,-145"/>
<polygon fill="black" stroke="black" points="235.82,-148.5 245.82,-145 235.82,-141.5 235.82,-148.5"/>
</g>
<!-- program~jf_test_8 -->
<g id="node14" class="node"><title>program~jf_test_8</title>
<a xlink:href="../program/jf_test_8.html" xlink:title="jf_test_8">
<polygon fill="#f0ad4e" stroke="#f0ad4e" points="111,-114 57,-114 57,-88 111,-88 111,-114"/>
<text text-anchor="middle" x="84" y="-98.55" font-family="Helvetica,sans-Serif" font-size="10.50" fill="white">jf_test_8</text>
</a>
</g>
<!-- program~jf_test_8&#45;&gt;proc~test_8 -->
<g id="edge4" class="edge"><title>program~jf_test_8&#45;&gt;proc~test_8</title>
<path fill="none" stroke="black" d="M111.079,-101C143.78,-101 198.956,-101 235.676,-101"/>
<polygon fill="black" stroke="black" points="235.971,-104.5 245.971,-101 235.971,-97.5001 235.971,-104.5"/>
</g>
<!-- proc~wrap_json_file_load_from_string -->
<g id="node16" class="node"><title>proc~wrap_json_file_load_from_string</title>
<a xlink:href="../proc/wrap_json_file_load_from_string.html" xlink:title="wrap_json_file_load_from_string">
<polygon fill="#d9534f" stroke="#d9534f" points="167,-26 1,-26 1,-1.24345e-14 167,-3.55271e-15 167,-26"/>
<text text-anchor="middle" x="84" y="-10.55" font-family="Helvetica,sans-Serif" font-size="10.50" fill="white">wrap_json_file_load_from_string</text>
</a>
</g>
<!-- proc~wrap_json_file_load_from_string&#45;&gt;proc~json_file_load_from_string -->
<g id="edge6" class="edge"><title>proc~wrap_json_file_load_from_string&#45;&gt;proc~json_file_load_from_string</title>
<path fill="none" stroke="black" d="M167.724,-13C176.382,-13 185.162,-13 193.769,-13"/>
<polygon fill="black" stroke="black" points="193.775,-16.5001 203.775,-13 193.775,-9.5001 193.775,-16.5001"/>
</g>
</g>
</svg>
