<?xml version="1.0" encoding="UTF-8" standalone="no"?>
<!DOCTYPE svg PUBLIC "-//W3C//DTD SVG 1.1//EN"
 "http://www.w3.org/Graphics/SVG/1.1/DTD/svg11.dtd">
<!-- Generated by graphviz version 2.26.3 (20100126.1600)
 -->
<!-- Title: proc~~json_get_by_path~~CallsGraph Pages: 1 -->
<svg width="641pt" height="93pt"
 viewBox="0.00 0.00 641.00 93.34" xmlns="http://www.w3.org/2000/svg" xmlns:xlink="http://www.w3.org/1999/xlink">
<g id="graph1" class="graph" transform="scale(0.509539 0.509539) rotate(0) translate(4 179.183)">
<title>proc~~json_get_by_path~~CallsGraph</title>
<polygon fill="white" stroke="white" points="-4,5 -4,-179.183 1255,-179.183 1255,5 -4,5"/>
<!-- proc~json_get_by_path -->
<g id="node1" class="node"><title>proc~json_get_by_path</title>
<polygon fill="none" stroke="black" points="97,-131 1,-131 1,-105 97,-105 97,-131"/>
<text text-anchor="middle" x="49" y="-115.55" font-family="Helvetica,sans-Serif" font-size="10.50">json_get_by_path</text>
</g>
<!-- interface~throw_exception -->
<g id="node2" class="node"><title>interface~throw_exception</title>
<a xlink:href="../interface/throw_exception.html" xlink:title="throw_exception">
<polygon fill="#a7506f" stroke="#a7506f" points="815,-113 725,-113 725,-87 815,-87 815,-113"/>
<text text-anchor="middle" x="770" y="-97.55" font-family="Helvetica,sans-Serif" font-size="10.50" fill="white">throw_exception</text>
</a>
</g>
<!-- proc~json_get_by_path&#45;&gt;interface~throw_exception -->
<g id="edge32" class="edge"><title>proc~json_get_by_path&#45;&gt;interface~throw_exception</title>
<path fill="none" stroke="black" d="M92.8488,-131.079C105.995,-134.67 120.506,-138.311 134,-141 201.688,-154.489 219.125,-156.546 288,-161 465.587,-172.483 517.245,-193.117 688,-143 706.776,-137.489 726.238,-127.496 741.487,-118.53"/>
<polygon fill="black" stroke="black" points="743.657,-121.307 750.393,-113.129 740.028,-115.321 743.657,-121.307"/>
</g>
<!-- interface~json_get_child -->
<g id="node3" class="node"><title>interface~json_get_child</title>
<a xlink:href="../interface/json_get_child.html" xlink:title="json_get_child">
<polygon fill="#a7506f" stroke="#a7506f" points="233,-111 153,-111 153,-85 233,-85 233,-111"/>
<text text-anchor="middle" x="193" y="-95.55" font-family="Helvetica,sans-Serif" font-size="10.50" fill="white">json_get_child</text>
</a>
</g>
<!-- proc~json_get_by_path&#45;&gt;interface~json_get_child -->
<g id="edge34" class="edge"><title>proc~json_get_by_path&#45;&gt;interface~json_get_child</title>
<path fill="none" stroke="black" d="M97.7518,-111.229C112.065,-109.241 127.751,-107.062 142.19,-105.057"/>
<polygon fill="black" stroke="black" points="143.021,-108.475 152.445,-103.633 142.058,-101.542 143.021,-108.475"/>
</g>
<!-- proc~json_clear_exceptions -->
<g id="node4" class="node"><title>proc~json_clear_exceptions</title>
<a xlink:href="../proc/json_clear_exceptions.html" xlink:title="json_clear_exceptions">
<polygon fill="#d9534f" stroke="#d9534f" points="252,-67 134,-67 134,-41 252,-41 252,-67"/>
<text text-anchor="middle" x="193" y="-51.55" font-family="Helvetica,sans-Serif" font-size="10.50" fill="white">json_clear_exceptions</text>
</a>
</g>
<!-- proc~json_get_by_path&#45;&gt;proc~json_clear_exceptions -->
<g id="edge36" class="edge"><title>proc~json_get_by_path&#45;&gt;proc~json_clear_exceptions</title>
<path fill="none" stroke="black" d="M73.9754,-104.82C90.7461,-96.179 113.451,-84.8805 134,-76 138.119,-74.2199 142.434,-72.4451 146.776,-70.7195"/>
<polygon fill="black" stroke="black" points="148.204,-73.9197 156.26,-67.038 145.671,-67.3941 148.204,-73.9197"/>
</g>
<!-- proc~string_to_integer -->
<g id="node5" class="node"><title>proc~string_to_integer</title>
<a xlink:href="../proc/string_to_integer.html" xlink:title="string_to_integer">
<polygon fill="#d94e8f" stroke="#d94e8f" points="432,-152 340,-152 340,-126 432,-126 432,-152"/>
<text text-anchor="middle" x="386" y="-136.55" font-family="Helvetica,sans-Serif" font-size="10.50" fill="white">string_to_integer</text>
</a>
</g>
<!-- proc~json_get_by_path&#45;&gt;proc~string_to_integer -->
<g id="edge38" class="edge"><title>proc~json_get_by_path&#45;&gt;proc~string_to_integer</title>
<path fill="none" stroke="black" d="M97.6428,-121.031C158.979,-124.853 264.245,-131.413 329.205,-135.461"/>
<polygon fill="black" stroke="black" points="329.073,-138.959 339.271,-136.088 329.508,-131.973 329.073,-138.959"/>
</g>
<!-- proc~json_throw_exception -->
<g id="node6" class="node"><title>proc~json_throw_exception</title>
<a xlink:href="../proc/json_throw_exception.html" xlink:title="json_throw_exception">
<polygon fill="#d9534f" stroke="#d9534f" points="1150,-102 1034,-102 1034,-76 1150,-76 1150,-102"/>
<text text-anchor="middle" x="1092" y="-86.55" font-family="Helvetica,sans-Serif" font-size="10.50" fill="white">json_throw_exception</text>
</a>
</g>
<!-- interface~throw_exception&#45;&gt;proc~json_throw_exception -->
<g id="edge10" class="edge"><title>interface~throw_exception&#45;&gt;proc~json_throw_exception</title>
<path fill="none" stroke="black" stroke-dasharray="5,2" d="M815.793,-98.4357C870.069,-96.5815 961.029,-93.4742 1023.65,-91.3351"/>
<polygon fill="black" stroke="black" points="1023.95,-94.8267 1033.83,-90.9872 1023.72,-87.8307 1023.95,-94.8267"/>
</g>
<!-- proc~wrap_json_throw_exception -->
<g id="node7" class="node"><title>proc~wrap_json_throw_exception</title>
<a xlink:href="../proc/wrap_json_throw_exception.html" xlink:title="wrap_json_throw_exception">
<polygon fill="#d9534f" stroke="#d9534f" points="997,-72 853,-72 853,-46 997,-46 997,-72"/>
<text text-anchor="middle" x="925" y="-56.55" font-family="Helvetica,sans-Serif" font-size="10.50" fill="white">wrap_json_throw_exception</text>
</a>
</g>
<!-- interface~throw_exception&#45;&gt;proc~wrap_json_throw_exception -->
<g id="edge12" class="edge"><title>interface~throw_exception&#45;&gt;proc~wrap_json_throw_exception</title>
<path fill="none" stroke="black" stroke-dasharray="5,2" d="M815.667,-87.9204C831.27,-83.793 848.958,-79.1144 865.489,-74.7415"/>
<polygon fill="black" stroke="black" points="866.832,-78.0069 875.604,-72.066 865.042,-71.2396 866.832,-78.0069"/>
</g>
<!-- proc~json_value_get_by_index -->
<g id="node17" class="node"><title>proc~json_value_get_by_index</title>
<a xlink:href="../proc/json_value_get_by_index.html" xlink:title="json_value_get_by_index">
<polygon fill="#d9534f" stroke="#d9534f" points="670,-113 538,-113 538,-87 670,-87 670,-113"/>
<text text-anchor="middle" x="604" y="-97.55" font-family="Helvetica,sans-Serif" font-size="10.50" fill="white">json_value_get_by_index</text>
</a>
</g>
<!-- interface~json_get_child&#45;&gt;proc~json_value_get_by_index -->
<g id="edge24" class="edge"><title>interface~json_get_child&#45;&gt;proc~json_value_get_by_index</title>
<path fill="none" stroke="black" stroke-dasharray="5,2" d="M233.533,-98.1972C301.715,-98.529 440.413,-99.204 527.41,-99.6273"/>
<polygon fill="black" stroke="black" points="527.476,-103.128 537.493,-99.6764 527.51,-96.1276 527.476,-103.128"/>
</g>
<!-- proc~json_value_get_by_name_chars -->
<g id="node18" class="node"><title>proc~json_value_get_by_name_chars</title>
<a xlink:href="../proc/json_value_get_by_name_chars.html" xlink:title="json_value_get_by_name_chars">
<polygon fill="#d9534f" stroke="#d9534f" points="687,-69 521,-69 521,-43 687,-43 687,-69"/>
<text text-anchor="middle" x="604" y="-53.55" font-family="Helvetica,sans-Serif" font-size="10.50" fill="white">json_value_get_by_name_chars</text>
</a>
</g>
<!-- interface~json_get_child&#45;&gt;proc~json_value_get_by_name_chars -->
<g id="edge26" class="edge"><title>interface~json_get_child&#45;&gt;proc~json_value_get_by_name_chars</title>
<path fill="none" stroke="black" stroke-dasharray="5,2" d="M233.533,-93.8579C297.332,-87.3384 422.872,-74.5094 510.023,-65.6034"/>
<polygon fill="black" stroke="black" points="510.596,-69.0632 520.189,-64.5647 509.885,-62.0995 510.596,-69.0632"/>
</g>
<!-- proc~wrap_json_value_get_by_name_chars -->
<g id="node19" class="node"><title>proc~wrap_json_value_get_by_name_chars</title>
<a xlink:href="../proc/wrap_json_value_get_by_name_chars.html" xlink:title="wrap_json_value_get_by_name_chars">
<polygon fill="#d9534f" stroke="#d9534f" points="484,-32 288,-32 288,-6 484,-6 484,-32"/>
<text text-anchor="middle" x="386" y="-16.55" font-family="Helvetica,sans-Serif" font-size="10.50" fill="white">wrap_json_value_get_by_name_chars</text>
</a>
</g>
<!-- interface~json_get_child&#45;&gt;proc~wrap_json_value_get_by_name_chars -->
<g id="edge28" class="edge"><title>interface~json_get_child&#45;&gt;proc~wrap_json_value_get_by_name_chars</title>
<path fill="none" stroke="black" stroke-dasharray="5,2" d="M233.507,-84.9782C239.863,-82.3482 246.232,-79.3471 252,-76 270.014,-65.5462 269.544,-55.6507 288,-46 295.982,-41.8263 304.677,-38.2437 313.482,-35.1822"/>
<polygon fill="black" stroke="black" points="314.631,-38.4893 323.053,-32.0616 312.46,-31.8342 314.631,-38.4893"/>
</g>
<!-- proc~string_to_integer&#45;&gt;interface~throw_exception -->
<g id="edge30" class="edge"><title>proc~string_to_integer&#45;&gt;interface~throw_exception</title>
<path fill="none" stroke="black" d="M432.623,-139.338C492.225,-139.093 598.43,-136.379 688,-122 697.823,-120.423 708.167,-118.148 718.074,-115.653"/>
<polygon fill="black" stroke="black" points="719.016,-119.025 727.8,-113.102 717.24,-112.254 719.016,-119.025"/>
</g>
<!-- proc~wrap_json_throw_exception&#45;&gt;proc~json_throw_exception -->
<g id="edge6" class="edge"><title>proc~wrap_json_throw_exception&#45;&gt;proc~json_throw_exception</title>
<path fill="none" stroke="black" d="M997.763,-72.0712C1006.42,-73.626 1015.23,-75.2089 1023.82,-76.7516"/>
<polygon fill="black" stroke="black" points="1023.31,-80.2167 1033.77,-78.54 1024.55,-73.327 1023.31,-80.2167"/>
</g>
<!-- interface~to_unicode -->
<g id="node8" class="node"><title>interface~to_unicode</title>
<a xlink:href="../interface/to_unicode.html" xlink:title="to_unicode">
<polygon fill="#a7506f" stroke="#a7506f" points="1124,-48 1060,-48 1060,-22 1124,-22 1124,-48"/>
<text text-anchor="middle" x="1092" y="-32.55" font-family="Helvetica,sans-Serif" font-size="10.50" fill="white">to_unicode</text>
</a>
</g>
<!-- proc~wrap_json_throw_exception&#45;&gt;interface~to_unicode -->
<g id="edge8" class="edge"><title>proc~wrap_json_throw_exception&#45;&gt;interface~to_unicode</title>
<path fill="none" stroke="black" d="M997.763,-48.5431C1015.36,-46.0147 1033.6,-43.3935 1049.29,-41.1383"/>
<polygon fill="black" stroke="black" points="1049.8,-44.6009 1059.2,-39.7139 1048.8,-37.6721 1049.8,-44.6009"/>
</g>
<!-- proc~to_uni_vec -->
<g id="node9" class="node"><title>proc~to_uni_vec</title>
<a xlink:href="../proc/to_uni_vec.html" xlink:title="to_uni_vec">
<polygon fill="#d94e8f" stroke="#d94e8f" points="1250,-70 1186,-70 1186,-44 1250,-44 1250,-70"/>
<text text-anchor="middle" x="1218" y="-54.55" font-family="Helvetica,sans-Serif" font-size="10.50" fill="white">to_uni_vec</text>
</a>
</g>
<!-- interface~to_unicode&#45;&gt;proc~to_uni_vec -->
<g id="edge2" class="edge"><title>interface~to_unicode&#45;&gt;proc~to_uni_vec</title>
<path fill="none" stroke="black" stroke-dasharray="5,2" d="M1124.78,-40.7228C1140.36,-43.443 1159.17,-46.7274 1175.8,-49.6314"/>
<polygon fill="black" stroke="black" points="1175.37,-53.1097 1185.82,-51.382 1176.58,-46.214 1175.37,-53.1097"/>
</g>
<!-- proc~to_uni -->
<g id="node10" class="node"><title>proc~to_uni</title>
<a xlink:href="../proc/to_uni.html" xlink:title="to_uni">
<polygon fill="#d94e8f" stroke="#d94e8f" points="1245,-26 1191,-26 1191,-1.24345e-14 1245,-3.55271e-15 1245,-26"/>
<text text-anchor="middle" x="1218" y="-10.55" font-family="Helvetica,sans-Serif" font-size="10.50" fill="white">to_uni</text>
</a>
</g>
<!-- interface~to_unicode&#45;&gt;proc~to_uni -->
<g id="edge4" class="edge"><title>interface~to_unicode&#45;&gt;proc~to_uni</title>
<path fill="none" stroke="black" stroke-dasharray="5,2" d="M1124.78,-29.2772C1141.97,-26.276 1163.09,-22.5878 1180.88,-19.4816"/>
<polygon fill="black" stroke="black" points="1181.66,-22.8974 1190.91,-17.7295 1180.46,-16.0017 1181.66,-22.8974"/>
</g>
<!-- proc~json_value_get_by_index&#45;&gt;interface~throw_exception -->
<g id="edge14" class="edge"><title>proc~json_value_get_by_index&#45;&gt;interface~throw_exception</title>
<path fill="none" stroke="black" d="M670.562,-100C684.938,-100 699.999,-100 713.925,-100"/>
<polygon fill="black" stroke="black" points="714.324,-103.5 724.324,-100 714.324,-96.5001 714.324,-103.5"/>
</g>
<!-- proc~json_value_get_by_name_chars&#45;&gt;interface~throw_exception -->
<g id="edge16" class="edge"><title>proc~json_value_get_by_name_chars&#45;&gt;interface~throw_exception</title>
<path fill="none" stroke="black" d="M654.205,-69.0967C665.336,-72.0149 677.071,-75.1028 688,-78 696.592,-80.2777 705.686,-82.7031 714.569,-85.0802"/>
<polygon fill="black" stroke="black" points="713.906,-88.5258 724.471,-87.7331 715.717,-81.7643 713.906,-88.5258"/>
</g>
<!-- proc~json_count -->
<g id="node21" class="node"><title>proc~json_count</title>
<a xlink:href="../proc/json_count.html" xlink:title="json_count">
<polygon fill="#d94e8f" stroke="#d94e8f" points="802,-69 738,-69 738,-43 802,-43 802,-69"/>
<text text-anchor="middle" x="770" y="-53.55" font-family="Helvetica,sans-Serif" font-size="10.50" fill="white">json_count</text>
</a>
</g>
<!-- proc~json_value_get_by_name_chars&#45;&gt;proc~json_count -->
<g id="edge18" class="edge"><title>proc~json_value_get_by_name_chars&#45;&gt;proc~json_count</title>
<path fill="none" stroke="black" d="M687.973,-56C701.656,-56 715.304,-56 727.429,-56"/>
<polygon fill="black" stroke="black" points="727.655,-59.5001 737.655,-56 727.655,-52.5001 727.655,-59.5001"/>
</g>
<!-- proc~wrap_json_value_get_by_name_chars&#45;&gt;interface~to_unicode -->
<g id="edge20" class="edge"><title>proc~wrap_json_value_get_by_name_chars&#45;&gt;interface~to_unicode</title>
<path fill="none" stroke="black" d="M484.166,-21.2247C640.161,-24.76 938.321,-31.5172 1049.13,-34.0285"/>
<polygon fill="black" stroke="black" points="1049.18,-37.5305 1059.26,-34.2581 1049.34,-30.5323 1049.18,-37.5305"/>
</g>
<!-- proc~wrap_json_value_get_by_name_chars&#45;&gt;proc~json_value_get_by_name_chars -->
<g id="edge22" class="edge"><title>proc~wrap_json_value_get_by_name_chars&#45;&gt;proc~json_value_get_by_name_chars</title>
<path fill="none" stroke="black" d="M462.859,-32.0448C480.442,-35.0291 499.251,-38.2214 517.218,-41.271"/>
<polygon fill="black" stroke="black" points="516.656,-44.7255 527.101,-42.9483 517.827,-37.8242 516.656,-44.7255"/>
</g>
</g>
</svg>
