<?xml version="1.0" encoding="UTF-8" standalone="no"?>
<!DOCTYPE svg PUBLIC "-//W3C//DTD SVG 1.1//EN"
 "http://www.w3.org/Graphics/SVG/1.1/DTD/svg11.dtd">
<!-- Generated by graphviz version 2.26.3 (20100126.1600)
 -->
<!-- Title: proc~~to_integer~~CallsGraph Pages: 1 -->
<svg width="206pt" height="34pt"
 viewBox="0.00 0.00 206.00 34.00" xmlns="http://www.w3.org/2000/svg" xmlns:xlink="http://www.w3.org/1999/xlink">
<g id="graph1" class="graph" transform="scale(1 1) rotate(0) translate(4 30)">
<title>proc~~to_integer~~CallsGraph</title>
<polygon fill="white" stroke="white" points="-4,5 -4,-30 203,-30 203,5 -4,5"/>
<!-- proc~to_integer -->
<g id="node1" class="node"><title>proc~to_integer</title>
<polygon fill="none" stroke="black" points="61,-26 1,-26 1,-1.24345e-14 61,-3.55271e-15 61,-26"/>
<text text-anchor="middle" x="31" y="-10.55" font-family="Helvetica,sans-Serif" font-size="10.50">to_integer</text>
</g>
<!-- proc~destroy_json_data -->
<g id="node2" class="node"><title>proc~destroy_json_data</title>
<a xlink:href="../proc/destroy_json_data.html" xlink:title="destroy_json_data">
<polygon fill="#d9534f" stroke="#d9534f" points="198,-26 98,-26 98,-1.24345e-14 198,-3.55271e-15 198,-26"/>
<text text-anchor="middle" x="148" y="-10.55" font-family="Helvetica,sans-Serif" font-size="10.50" fill="white">destroy_json_data</text>
</a>
</g>
<!-- proc~to_integer&#45;&gt;proc~destroy_json_data -->
<g id="edge2" class="edge"><title>proc~to_integer&#45;&gt;proc~destroy_json_data</title>
<path fill="none" stroke="black" d="M61.7404,-13C69.7095,-13 78.5733,-13 87.4993,-13"/>
<polygon fill="black" stroke="black" points="87.5591,-16.5001 97.5591,-13 87.5591,-9.5001 87.5591,-16.5001"/>
</g>
</g>
</svg>
