<?xml version="1.0" encoding="UTF-8" standalone="no"?>
<!DOCTYPE svg PUBLIC "-//W3C//DTD SVG 1.1//EN"
 "http://www.w3.org/Graphics/SVG/1.1/DTD/svg11.dtd">
<!-- Generated by graphviz version 2.26.3 (20100126.1600)
 -->
<!-- Title: proc~~wrap_json_value_create_null~~CalledByGraph Pages: 1 -->
<svg width="474pt" height="34pt"
 viewBox="0.00 0.00 474.00 34.00" xmlns="http://www.w3.org/2000/svg" xmlns:xlink="http://www.w3.org/1999/xlink">
<g id="graph1" class="graph" transform="scale(1 1) rotate(0) translate(4 30)">
<title>proc~~wrap_json_value_create_null~~CalledByGraph</title>
<polygon fill="white" stroke="white" points="-4,5 -4,-30 471,-30 471,5 -4,5"/>
<!-- proc~wrap_json_value_create_null -->
<g id="node1" class="node"><title>proc~wrap_json_value_create_null</title>
<polygon fill="none" stroke="black" points="465,-26 315,-26 315,-1.24345e-14 465,-3.55271e-15 465,-26"/>
<text text-anchor="middle" x="390" y="-10.55" font-family="Helvetica,sans-Serif" font-size="10.50">wrap_json_value_create_null</text>
</g>
<!-- interface~json_create_null -->
<g id="node2" class="node"><title>interface~json_create_null</title>
<a xlink:href="../interface/json_create_null.html" xlink:title="json_create_null">
<polygon fill="#a7506f" stroke="#a7506f" points="277,-26 187,-26 187,-1.24345e-14 277,-3.55271e-15 277,-26"/>
<text text-anchor="middle" x="232" y="-10.55" font-family="Helvetica,sans-Serif" font-size="10.50" fill="white">json_create_null</text>
</a>
</g>
<!-- interface~json_create_null&#45;&gt;proc~wrap_json_value_create_null -->
<g id="edge6" class="edge"><title>interface~json_create_null&#45;&gt;proc~wrap_json_value_create_null</title>
<path fill="none" stroke="black" stroke-dasharray="5,2" d="M277.7,-13C286.044,-13 294.994,-13 304.067,-13"/>
<polygon fill="black" stroke="black" points="304.337,-16.5001 314.337,-13 304.337,-9.5001 304.337,-16.5001"/>
</g>
<!-- proc~test_10 -->
<g id="node3" class="node"><title>proc~test_10</title>
<a xlink:href="../proc/test_10.html" xlink:title="test_10">
<polygon fill="#d9534f" stroke="#d9534f" points="150,-26 96,-26 96,-1.24345e-14 150,-3.55271e-15 150,-26"/>
<text text-anchor="middle" x="123" y="-10.55" font-family="Helvetica,sans-Serif" font-size="10.50" fill="white">test_10</text>
</a>
</g>
<!-- proc~test_10&#45;&gt;interface~json_create_null -->
<g id="edge4" class="edge"><title>proc~test_10&#45;&gt;interface~json_create_null</title>
<path fill="none" stroke="black" d="M150.224,-13C158.196,-13 167.217,-13 176.282,-13"/>
<polygon fill="black" stroke="black" points="176.483,-16.5001 186.483,-13 176.483,-9.5001 176.483,-16.5001"/>
</g>
<!-- program~jf_test_10 -->
<g id="node4" class="node"><title>program~jf_test_10</title>
<a xlink:href="../program/jf_test_10.html" xlink:title="jf_test_10">
<polygon fill="#f0ad4e" stroke="#f0ad4e" points="59,-26 1,-26 1,-1.24345e-14 59,-3.55271e-15 59,-26"/>
<text text-anchor="middle" x="30" y="-10.55" font-family="Helvetica,sans-Serif" font-size="10.50" fill="white">jf_test_10</text>
</a>
</g>
<!-- program~jf_test_10&#45;&gt;proc~test_10 -->
<g id="edge2" class="edge"><title>program~jf_test_10&#45;&gt;proc~test_10</title>
<path fill="none" stroke="black" d="M59.6815,-13C67.9202,-13 76.973,-13 85.5921,-13"/>
<polygon fill="black" stroke="black" points="85.8066,-16.5001 95.8065,-13 85.8065,-9.5001 85.8066,-16.5001"/>
</g>
</g>
</svg>
