<?xml version="1.0" encoding="UTF-8" standalone="no"?>
<!DOCTYPE svg PUBLIC "-//W3C//DTD SVG 1.1//EN"
 "http://www.w3.org/Graphics/SVG/1.1/DTD/svg11.dtd">
<!-- Generated by graphviz version 2.26.3 (20100126.1600)
 -->
<!-- Title: proc~~json_value_remove_if_present~~CalledByGraph Pages: 1 -->
<svg width="641pt" height="47pt"
 viewBox="0.00 0.00 641.00 46.65" xmlns="http://www.w3.org/2000/svg" xmlns:xlink="http://www.w3.org/1999/xlink">
<g id="graph1" class="graph" transform="scale(0.863881 0.863881) rotate(0) translate(4 50)">
<title>proc~~json_value_remove_if_present~~CalledByGraph</title>
<polygon fill="white" stroke="white" points="-4,5 -4,-50 739,-50 739,5 -4,5"/>
<!-- proc~json_value_remove_if_present -->
<g id="node1" class="node"><title>proc~json_value_remove_if_present</title>
<polygon fill="none" stroke="black" points="733,-46 575,-46 575,-20 733,-20 733,-46"/>
<text text-anchor="middle" x="654" y="-30.55" font-family="Helvetica,sans-Serif" font-size="10.50">json_value_remove_if_present</text>
</g>
<!-- proc~wrap_json_value_remove_if_present -->
<g id="node2" class="node"><title>proc~wrap_json_value_remove_if_present</title>
<a xlink:href="../proc/wrap_json_value_remove_if_present.html" xlink:title="wrap_json_value_remove_if_present">
<polygon fill="#d9534f" stroke="#d9534f" points="538,-26 350,-26 350,-1.24345e-14 538,-3.55271e-15 538,-26"/>
<text text-anchor="middle" x="444" y="-10.55" font-family="Helvetica,sans-Serif" font-size="10.50" fill="white">wrap_json_value_remove_if_present</text>
</a>
</g>
<!-- proc~wrap_json_value_remove_if_present&#45;&gt;proc~json_value_remove_if_present -->
<g id="edge8" class="edge"><title>proc~wrap_json_value_remove_if_present&#45;&gt;proc~json_value_remove_if_present</title>
<path fill="none" stroke="black" d="M538.25,-21.9762C546.949,-22.8047 555.748,-23.6426 564.404,-24.467"/>
<polygon fill="black" stroke="black" points="564.198,-27.9632 574.485,-25.4271 564.862,-20.9947 564.198,-27.9632"/>
</g>
<!-- interface~json_remove_if_present -->
<g id="node3" class="node"><title>interface~json_remove_if_present</title>
<a xlink:href="../interface/json_remove_if_present.html" xlink:title="json_remove_if_present">
<polygon fill="#a7506f" stroke="#a7506f" points="313,-46 187,-46 187,-20 313,-20 313,-46"/>
<text text-anchor="middle" x="250" y="-30.55" font-family="Helvetica,sans-Serif" font-size="10.50" fill="white">json_remove_if_present</text>
</a>
</g>
<!-- interface~json_remove_if_present&#45;&gt;proc~json_value_remove_if_present -->
<g id="edge10" class="edge"><title>interface~json_remove_if_present&#45;&gt;proc~json_value_remove_if_present</title>
<path fill="none" stroke="black" stroke-dasharray="5,2" d="M313.746,-34.4656C325.787,-34.6884 338.279,-34.8828 350,-35 433.551,-35.8354 454.448,-35.7202 538,-35 546.561,-34.9262 555.477,-34.8218 564.393,-34.6989"/>
<polygon fill="black" stroke="black" points="564.494,-38.1979 574.442,-34.5531 564.393,-31.1987 564.494,-38.1979"/>
</g>
<!-- interface~json_remove_if_present&#45;&gt;proc~wrap_json_value_remove_if_present -->
<g id="edge6" class="edge"><title>interface~json_remove_if_present&#45;&gt;proc~wrap_json_value_remove_if_present</title>
<path fill="none" stroke="black" stroke-dasharray="5,2" d="M313.523,-26.4513C321.953,-25.5821 330.768,-24.6734 339.666,-23.7561"/>
<polygon fill="black" stroke="black" points="340.142,-27.2256 349.73,-22.7185 339.424,-20.2625 340.142,-27.2256"/>
</g>
<!-- proc~test_10 -->
<g id="node4" class="node"><title>proc~test_10</title>
<a xlink:href="../proc/test_10.html" xlink:title="test_10">
<polygon fill="#d9534f" stroke="#d9534f" points="150,-46 96,-46 96,-20 150,-20 150,-46"/>
<text text-anchor="middle" x="123" y="-30.55" font-family="Helvetica,sans-Serif" font-size="10.50" fill="white">test_10</text>
</a>
</g>
<!-- proc~test_10&#45;&gt;interface~json_remove_if_present -->
<g id="edge4" class="edge"><title>proc~test_10&#45;&gt;interface~json_remove_if_present</title>
<path fill="none" stroke="black" d="M150.245,-33C158.059,-33 166.975,-33 176.189,-33"/>
<polygon fill="black" stroke="black" points="176.266,-36.5001 186.266,-33 176.266,-29.5001 176.266,-36.5001"/>
</g>
<!-- program~jf_test_10 -->
<g id="node5" class="node"><title>program~jf_test_10</title>
<a xlink:href="../program/jf_test_10.html" xlink:title="jf_test_10">
<polygon fill="#f0ad4e" stroke="#f0ad4e" points="59,-46 1,-46 1,-20 59,-20 59,-46"/>
<text text-anchor="middle" x="30" y="-30.55" font-family="Helvetica,sans-Serif" font-size="10.50" fill="white">jf_test_10</text>
</a>
</g>
<!-- program~jf_test_10&#45;&gt;proc~test_10 -->
<g id="edge2" class="edge"><title>program~jf_test_10&#45;&gt;proc~test_10</title>
<path fill="none" stroke="black" d="M59.6815,-33C67.9202,-33 76.973,-33 85.5921,-33"/>
<polygon fill="black" stroke="black" points="85.8066,-36.5001 95.8065,-33 85.8065,-29.5001 85.8066,-36.5001"/>
</g>
</g>
</svg>
