<?xml version="1.0" encoding="UTF-8" standalone="no"?>
<!DOCTYPE svg PUBLIC "-//W3C//DTD SVG 1.1//EN"
 "http://www.w3.org/Graphics/SVG/1.1/DTD/svg11.dtd">
<!-- Generated by graphviz version 2.26.3 (20100126.1600)
 -->
<!-- Title: proc~~ucs4_comp_default~~CalledByGraph Pages: 1 -->
<svg width="224pt" height="34pt"
 viewBox="0.00 0.00 224.00 34.00" xmlns="http://www.w3.org/2000/svg" xmlns:xlink="http://www.w3.org/1999/xlink">
<g id="graph1" class="graph" transform="scale(1 1) rotate(0) translate(4 30)">
<title>proc~~ucs4_comp_default~~CalledByGraph</title>
<polygon fill="white" stroke="white" points="-4,5 -4,-30 221,-30 221,5 -4,5"/>
<!-- proc~ucs4_comp_default -->
<g id="node1" class="node"><title>proc~ucs4_comp_default</title>
<polygon fill="none" stroke="black" points="216,-26 110,-26 110,-1.24345e-14 216,-3.55271e-15 216,-26"/>
<text text-anchor="middle" x="163" y="-10.55" font-family="Helvetica,sans-Serif" font-size="10.50">ucs4_comp_default</text>
</g>
<!-- interface~operator(==) -->
<g id="node2" class="node"><title>interface~operator(==)</title>
<a xlink:href="../interface/operator%28%3D%3D%29.html" xlink:title="operator(==)">
<polygon fill="#a7506f" stroke="#a7506f" points="73,-26 1,-26 1,-1.24345e-14 73,-3.55271e-15 73,-26"/>
<text text-anchor="middle" x="37" y="-10.55" font-family="Helvetica,sans-Serif" font-size="10.50" fill="white">operator(==)</text>
</a>
</g>
<!-- interface~operator(==)&#45;&gt;proc~ucs4_comp_default -->
<g id="edge2" class="edge"><title>interface~operator(==)&#45;&gt;proc~ucs4_comp_default</title>
<path fill="none" stroke="black" stroke-dasharray="5,2" d="M73.7831,-13C81.8232,-13 90.5567,-13 99.308,-13"/>
<polygon fill="black" stroke="black" points="99.549,-16.5001 109.549,-13 99.5489,-9.5001 99.549,-16.5001"/>
</g>
</g>
</svg>
