<?xml version="1.0" encoding="UTF-8" standalone="no"?>
<!DOCTYPE svg PUBLIC "-//W3C//DTD SVG 1.1//EN"
 "http://www.w3.org/Graphics/SVG/1.1/DTD/svg11.dtd">
<!-- Generated by graphviz version 2.26.3 (20100126.1600)
 -->
<!-- Title: proc~~json_file_variable_info~~CalledByGraph Pages: 1 -->
<svg width="310pt" height="34pt"
 viewBox="0.00 0.00 310.00 34.00" xmlns="http://www.w3.org/2000/svg" xmlns:xlink="http://www.w3.org/1999/xlink">
<g id="graph1" class="graph" transform="scale(1 1) rotate(0) translate(4 30)">
<title>proc~~json_file_variable_info~~CalledByGraph</title>
<polygon fill="white" stroke="white" points="-4,5 -4,-30 307,-30 307,5 -4,5"/>
<!-- proc~json_file_variable_info -->
<g id="node1" class="node"><title>proc~json_file_variable_info</title>
<polygon fill="none" stroke="black" points="302,-26 184,-26 184,-1.24345e-14 302,-3.55271e-15 302,-26"/>
<text text-anchor="middle" x="243" y="-10.55" font-family="Helvetica,sans-Serif" font-size="10.50">json_file_variable_info</text>
</g>
<!-- proc~wrap_json_file_variable_info -->
<g id="node2" class="node"><title>proc~wrap_json_file_variable_info</title>
<a xlink:href="../proc/wrap_json_file_variable_info.html" xlink:title="wrap_json_file_variable_info">
<polygon fill="#d9534f" stroke="#d9534f" points="148,-26 7.10543e-14,-26 0,-1.24345e-14 148,-3.55271e-15 148,-26"/>
<text text-anchor="middle" x="74" y="-10.55" font-family="Helvetica,sans-Serif" font-size="10.50" fill="white">wrap_json_file_variable_info</text>
</a>
</g>
<!-- proc~wrap_json_file_variable_info&#45;&gt;proc~json_file_variable_info -->
<g id="edge2" class="edge"><title>proc~wrap_json_file_variable_info&#45;&gt;proc~json_file_variable_info</title>
<path fill="none" stroke="black" d="M148.126,-13C156.638,-13 165.292,-13 173.737,-13"/>
<polygon fill="black" stroke="black" points="173.91,-16.5001 183.91,-13 173.91,-9.5001 173.91,-16.5001"/>
</g>
</g>
</svg>
