<?xml version="1.0" encoding="UTF-8" standalone="no"?>
<!DOCTYPE svg PUBLIC "-//W3C//DTD SVG 1.1//EN"
 "http://www.w3.org/Graphics/SVG/1.1/DTD/svg11.dtd">
<!-- Generated by graphviz version 2.26.3 (20100126.1600)
 -->
<!-- Title: proc~~string_to_double~~CallsGraph Pages: 1 -->
<svg width="641pt" height="97pt"
 viewBox="0.00 0.00 641.00 96.83" xmlns="http://www.w3.org/2000/svg" xmlns:xlink="http://www.w3.org/1999/xlink">
<g id="graph1" class="graph" transform="scale(0.968278 0.968278) rotate(0) translate(4 96)">
<title>proc~~string_to_double~~CallsGraph</title>
<polygon fill="white" stroke="white" points="-4,5 -4,-96 659,-96 659,5 -4,5"/>
<!-- proc~string_to_double -->
<g id="node1" class="node"><title>proc~string_to_double</title>
<polygon fill="none" stroke="black" points="92,-71 4.26326e-14,-71 0,-45 92,-45 92,-71"/>
<text text-anchor="middle" x="46" y="-55.55" font-family="Helvetica,sans-Serif" font-size="10.50">string_to_double</text>
</g>
<!-- interface~throw_exception -->
<g id="node2" class="node"><title>interface~throw_exception</title>
<a xlink:href="../interface/throw_exception.html" xlink:title="throw_exception">
<polygon fill="#a7506f" stroke="#a7506f" points="219,-71 129,-71 129,-45 219,-45 219,-71"/>
<text text-anchor="middle" x="174" y="-55.55" font-family="Helvetica,sans-Serif" font-size="10.50" fill="white">throw_exception</text>
</a>
</g>
<!-- proc~string_to_double&#45;&gt;interface~throw_exception -->
<g id="edge14" class="edge"><title>proc~string_to_double&#45;&gt;interface~throw_exception</title>
<path fill="none" stroke="black" d="M92.2109,-58C100.652,-58 109.541,-58 118.225,-58"/>
<polygon fill="black" stroke="black" points="118.286,-61.5001 128.286,-58 118.286,-54.5001 118.286,-61.5001"/>
</g>
<!-- proc~json_throw_exception -->
<g id="node3" class="node"><title>proc~json_throw_exception</title>
<a xlink:href="../proc/json_throw_exception.html" xlink:title="json_throw_exception">
<polygon fill="#d9534f" stroke="#d9534f" points="554,-92 438,-92 438,-66 554,-66 554,-92"/>
<text text-anchor="middle" x="496" y="-76.55" font-family="Helvetica,sans-Serif" font-size="10.50" fill="white">json_throw_exception</text>
</a>
</g>
<!-- interface~throw_exception&#45;&gt;proc~json_throw_exception -->
<g id="edge10" class="edge"><title>interface~throw_exception&#45;&gt;proc~json_throw_exception</title>
<path fill="none" stroke="black" stroke-dasharray="5,2" d="M219.793,-60.9865C274.069,-64.5262 365.029,-70.4584 427.647,-74.5422"/>
<polygon fill="black" stroke="black" points="427.623,-78.048 437.83,-75.2063 428.079,-71.0628 427.623,-78.048"/>
</g>
<!-- proc~wrap_json_throw_exception -->
<g id="node4" class="node"><title>proc~wrap_json_throw_exception</title>
<a xlink:href="../proc/wrap_json_throw_exception.html" xlink:title="wrap_json_throw_exception">
<polygon fill="#d9534f" stroke="#d9534f" points="401,-51 257,-51 257,-25 401,-25 401,-51"/>
<text text-anchor="middle" x="329" y="-35.55" font-family="Helvetica,sans-Serif" font-size="10.50" fill="white">wrap_json_throw_exception</text>
</a>
</g>
<!-- interface~throw_exception&#45;&gt;proc~wrap_json_throw_exception -->
<g id="edge12" class="edge"><title>interface~throw_exception&#45;&gt;proc~wrap_json_throw_exception</title>
<path fill="none" stroke="black" stroke-dasharray="5,2" d="M219.667,-52.1075C228.126,-51.0159 237.199,-49.8453 246.367,-48.6623"/>
<polygon fill="black" stroke="black" points="246.859,-52.1279 256.329,-47.3769 245.963,-45.1855 246.859,-52.1279"/>
</g>
<!-- proc~wrap_json_throw_exception&#45;&gt;proc~json_throw_exception -->
<g id="edge6" class="edge"><title>proc~wrap_json_throw_exception&#45;&gt;proc~json_throw_exception</title>
<path fill="none" stroke="black" d="M382.299,-51.0854C398.346,-55.0251 416.113,-59.3871 432.741,-63.4693"/>
<polygon fill="black" stroke="black" points="432.375,-66.9833 442.921,-65.9686 434.044,-60.1852 432.375,-66.9833"/>
</g>
<!-- interface~to_unicode -->
<g id="node5" class="node"><title>interface~to_unicode</title>
<a xlink:href="../interface/to_unicode.html" xlink:title="to_unicode">
<polygon fill="#a7506f" stroke="#a7506f" points="528,-48 464,-48 464,-22 528,-22 528,-48"/>
<text text-anchor="middle" x="496" y="-32.55" font-family="Helvetica,sans-Serif" font-size="10.50" fill="white">to_unicode</text>
</a>
</g>
<!-- proc~wrap_json_throw_exception&#45;&gt;interface~to_unicode -->
<g id="edge8" class="edge"><title>proc~wrap_json_throw_exception&#45;&gt;interface~to_unicode</title>
<path fill="none" stroke="black" d="M401.763,-36.6929C419.188,-36.3799 437.248,-36.0554 452.839,-35.7754"/>
<polygon fill="black" stroke="black" points="453.264,-39.2684 463.199,-35.5892 453.138,-32.2695 453.264,-39.2684"/>
</g>
<!-- proc~to_uni_vec -->
<g id="node6" class="node"><title>proc~to_uni_vec</title>
<a xlink:href="../proc/to_uni_vec.html" xlink:title="to_uni_vec">
<polygon fill="#d94e8f" stroke="#d94e8f" points="654,-70 590,-70 590,-44 654,-44 654,-70"/>
<text text-anchor="middle" x="622" y="-54.55" font-family="Helvetica,sans-Serif" font-size="10.50" fill="white">to_uni_vec</text>
</a>
</g>
<!-- interface~to_unicode&#45;&gt;proc~to_uni_vec -->
<g id="edge2" class="edge"><title>interface~to_unicode&#45;&gt;proc~to_uni_vec</title>
<path fill="none" stroke="black" stroke-dasharray="5,2" d="M528.776,-40.7228C544.355,-43.443 563.166,-46.7274 579.798,-49.6314"/>
<polygon fill="black" stroke="black" points="579.371,-53.1097 589.824,-51.382 580.575,-46.214 579.371,-53.1097"/>
</g>
<!-- proc~to_uni -->
<g id="node7" class="node"><title>proc~to_uni</title>
<a xlink:href="../proc/to_uni.html" xlink:title="to_uni">
<polygon fill="#d94e8f" stroke="#d94e8f" points="649,-26 595,-26 595,-1.24345e-14 649,-3.55271e-15 649,-26"/>
<text text-anchor="middle" x="622" y="-10.55" font-family="Helvetica,sans-Serif" font-size="10.50" fill="white">to_uni</text>
</a>
</g>
<!-- interface~to_unicode&#45;&gt;proc~to_uni -->
<g id="edge4" class="edge"><title>interface~to_unicode&#45;&gt;proc~to_uni</title>
<path fill="none" stroke="black" stroke-dasharray="5,2" d="M528.776,-29.2772C545.965,-26.276 567.088,-22.5878 584.878,-19.4816"/>
<polygon fill="black" stroke="black" points="585.664,-22.8974 594.913,-17.7295 584.46,-16.0017 585.664,-22.8974"/>
</g>
</g>
</svg>
