<?xml version="1.0" encoding="UTF-8" standalone="no"?>
<!DOCTYPE svg PUBLIC "-//W3C//DTD SVG 1.1//EN"
 "http://www.w3.org/Graphics/SVG/1.1/DTD/svg11.dtd">
<!-- Generated by graphviz version 2.26.3 (20100126.1600)
 -->
<!-- Title: proc~~json_value_create_null~~CallsGraph Pages: 1 -->
<svg width="402pt" height="78pt"
 viewBox="0.00 0.00 402.00 78.00" xmlns="http://www.w3.org/2000/svg" xmlns:xlink="http://www.w3.org/1999/xlink">
<g id="graph1" class="graph" transform="scale(1 1) rotate(0) translate(4 74)">
<title>proc~~json_value_create_null~~CallsGraph</title>
<polygon fill="white" stroke="white" points="-4,5 -4,-74 399,-74 399,5 -4,5"/>
<!-- proc~json_value_create_null -->
<g id="node1" class="node"><title>proc~json_value_create_null</title>
<polygon fill="none" stroke="black" points="122,-48 5.68434e-14,-48 7.10543e-15,-22 122,-22 122,-48"/>
<text text-anchor="middle" x="61" y="-32.55" font-family="Helvetica,sans-Serif" font-size="10.50">json_value_create_null</text>
</g>
<!-- proc~json_value_create -->
<g id="node2" class="node"><title>proc~json_value_create</title>
<a xlink:href="../proc/json_value_create.html" xlink:title="json_value_create">
<polygon fill="#d9534f" stroke="#d9534f" points="258,-70 158,-70 158,-44 258,-44 258,-70"/>
<text text-anchor="middle" x="208" y="-54.55" font-family="Helvetica,sans-Serif" font-size="10.50" fill="white">json_value_create</text>
</a>
</g>
<!-- proc~json_value_create_null&#45;&gt;proc~json_value_create -->
<g id="edge4" class="edge"><title>proc~json_value_create_null&#45;&gt;proc~json_value_create</title>
<path fill="none" stroke="black" d="M122.064,-44.1389C130.476,-45.3978 139.112,-46.6903 147.514,-47.9477"/>
<polygon fill="black" stroke="black" points="147.207,-51.4406 157.615,-49.4594 148.243,-44.5177 147.207,-51.4406"/>
</g>
<!-- proc~to_null -->
<g id="node3" class="node"><title>proc~to_null</title>
<a xlink:href="../proc/to_null.html" xlink:title="to_null">
<polygon fill="#d9534f" stroke="#d9534f" points="235,-26 181,-26 181,-1.24345e-14 235,-3.55271e-15 235,-26"/>
<text text-anchor="middle" x="208" y="-10.55" font-family="Helvetica,sans-Serif" font-size="10.50" fill="white">to_null</text>
</a>
</g>
<!-- proc~json_value_create_null&#45;&gt;proc~to_null -->
<g id="edge6" class="edge"><title>proc~json_value_create_null&#45;&gt;proc~to_null</title>
<path fill="none" stroke="black" d="M122.064,-25.8611C138.568,-23.3912 155.933,-20.7923 170.7,-18.5823"/>
<polygon fill="black" stroke="black" points="171.573,-21.9908 180.944,-17.0492 170.536,-15.0679 171.573,-21.9908"/>
</g>
<!-- proc~destroy_json_data -->
<g id="node4" class="node"><title>proc~destroy_json_data</title>
<a xlink:href="../proc/destroy_json_data.html" xlink:title="destroy_json_data">
<polygon fill="#d9534f" stroke="#d9534f" points="394,-26 294,-26 294,-1.24345e-14 394,-3.55271e-15 394,-26"/>
<text text-anchor="middle" x="344" y="-10.55" font-family="Helvetica,sans-Serif" font-size="10.50" fill="white">destroy_json_data</text>
</a>
</g>
<!-- proc~to_null&#45;&gt;proc~destroy_json_data -->
<g id="edge2" class="edge"><title>proc~to_null&#45;&gt;proc~destroy_json_data</title>
<path fill="none" stroke="black" d="M235.195,-13C249.06,-13 266.518,-13 283.366,-13"/>
<polygon fill="black" stroke="black" points="283.739,-16.5001 293.739,-13 283.739,-9.5001 283.739,-16.5001"/>
</g>
</g>
</svg>
