<?xml version="1.0" encoding="UTF-8" standalone="no"?>
<!DOCTYPE svg PUBLIC "-//W3C//DTD SVG 1.1//EN"
 "http://www.w3.org/Graphics/SVG/1.1/DTD/svg11.dtd">
<!-- Generated by graphviz version 2.26.3 (20100126.1600)
 -->
<!-- Title: proc~~wrap_json_value_create_double~~CalledByGraph Pages: 1 -->
<svg width="504pt" height="34pt"
 viewBox="0.00 0.00 504.00 34.00" xmlns="http://www.w3.org/2000/svg" xmlns:xlink="http://www.w3.org/1999/xlink">
<g id="graph1" class="graph" transform="scale(1 1) rotate(0) translate(4 30)">
<title>proc~~wrap_json_value_create_double~~CalledByGraph</title>
<polygon fill="white" stroke="white" points="-4,5 -4,-30 501,-30 501,5 -4,5"/>
<!-- proc~wrap_json_value_create_double -->
<g id="node1" class="node"><title>proc~wrap_json_value_create_double</title>
<polygon fill="none" stroke="black" points="495,-26 329,-26 329,-1.24345e-14 495,-3.55271e-15 495,-26"/>
<text text-anchor="middle" x="412" y="-10.55" font-family="Helvetica,sans-Serif" font-size="10.50">wrap_json_value_create_double</text>
</g>
<!-- interface~json_create_double -->
<g id="node2" class="node"><title>interface~json_create_double</title>
<a xlink:href="../interface/json_create_double.html" xlink:title="json_create_double">
<polygon fill="#a7506f" stroke="#a7506f" points="292,-26 186,-26 186,-1.24345e-14 292,-3.55271e-15 292,-26"/>
<text text-anchor="middle" x="239" y="-10.55" font-family="Helvetica,sans-Serif" font-size="10.50" fill="white">json_create_double</text>
</a>
</g>
<!-- interface~json_create_double&#45;&gt;proc~wrap_json_value_create_double -->
<g id="edge6" class="edge"><title>interface~json_create_double&#45;&gt;proc~wrap_json_value_create_double</title>
<path fill="none" stroke="black" stroke-dasharray="5,2" d="M292.317,-13C300.613,-13 309.388,-13 318.265,-13"/>
<polygon fill="black" stroke="black" points="318.312,-16.5001 328.312,-13 318.312,-9.5001 318.312,-16.5001"/>
</g>
<!-- proc~test_10 -->
<g id="node3" class="node"><title>proc~test_10</title>
<a xlink:href="../proc/test_10.html" xlink:title="test_10">
<polygon fill="#d9534f" stroke="#d9534f" points="150,-26 96,-26 96,-1.24345e-14 150,-3.55271e-15 150,-26"/>
<text text-anchor="middle" x="123" y="-10.55" font-family="Helvetica,sans-Serif" font-size="10.50" fill="white">test_10</text>
</a>
</g>
<!-- proc~test_10&#45;&gt;interface~json_create_double -->
<g id="edge4" class="edge"><title>proc~test_10&#45;&gt;interface~json_create_double</title>
<path fill="none" stroke="black" d="M150.197,-13C157.982,-13 166.809,-13 175.805,-13"/>
<polygon fill="black" stroke="black" points="175.986,-16.5001 185.986,-13 175.986,-9.5001 175.986,-16.5001"/>
</g>
<!-- program~jf_test_10 -->
<g id="node4" class="node"><title>program~jf_test_10</title>
<a xlink:href="../program/jf_test_10.html" xlink:title="jf_test_10">
<polygon fill="#f0ad4e" stroke="#f0ad4e" points="59,-26 1,-26 1,-1.24345e-14 59,-3.55271e-15 59,-26"/>
<text text-anchor="middle" x="30" y="-10.55" font-family="Helvetica,sans-Serif" font-size="10.50" fill="white">jf_test_10</text>
</a>
</g>
<!-- program~jf_test_10&#45;&gt;proc~test_10 -->
<g id="edge2" class="edge"><title>program~jf_test_10&#45;&gt;proc~test_10</title>
<path fill="none" stroke="black" d="M59.6815,-13C67.9202,-13 76.973,-13 85.5921,-13"/>
<polygon fill="black" stroke="black" points="85.8066,-16.5001 95.8065,-13 85.8065,-9.5001 85.8066,-16.5001"/>
</g>
</g>
</svg>
