<?xml version="1.0" encoding="UTF-8" standalone="no"?>
<!DOCTYPE svg PUBLIC "-//W3C//DTD SVG 1.1//EN"
 "http://www.w3.org/Graphics/SVG/1.1/DTD/svg11.dtd">
<!-- Generated by graphviz version 2.26.3 (20100126.1600)
 -->
<!-- Title: proc~~annotate_invalid_json~~CallsGraph Pages: 1 -->
<svg width="352pt" height="122pt"
 viewBox="0.00 0.00 352.00 122.00" xmlns="http://www.w3.org/2000/svg" xmlns:xlink="http://www.w3.org/1999/xlink">
<g id="graph1" class="graph" transform="scale(1 1) rotate(0) translate(4 118)">
<title>proc~~annotate_invalid_json~~CallsGraph</title>
<polygon fill="white" stroke="white" points="-4,5 -4,-118 349,-118 349,5 -4,5"/>
<!-- proc~annotate_invalid_json -->
<g id="node1" class="node"><title>proc~annotate_invalid_json</title>
<polygon fill="none" stroke="black" points="116,-70 4.9738e-14,-70 0,-44 116,-44 116,-70"/>
<text text-anchor="middle" x="58" y="-54.55" font-family="Helvetica,sans-Serif" font-size="10.50">annotate_invalid_json</text>
</g>
<!-- proc~integer_to_string -->
<g id="node2" class="node"><title>proc~integer_to_string</title>
<a xlink:href="../proc/integer_to_string.html" xlink:title="integer_to_string">
<polygon fill="#d9534f" stroke="#d9534f" points="294,-114 202,-114 202,-88 294,-88 294,-114"/>
<text text-anchor="middle" x="248" y="-98.55" font-family="Helvetica,sans-Serif" font-size="10.50" fill="white">integer_to_string</text>
</a>
</g>
<!-- proc~annotate_invalid_json&#45;&gt;proc~integer_to_string -->
<g id="edge2" class="edge"><title>proc~annotate_invalid_json&#45;&gt;proc~integer_to_string</title>
<path fill="none" stroke="black" d="M113.66,-70.0717C126.265,-73.0194 139.591,-76.1259 152,-79 164.618,-81.9224 178.174,-85.0416 191.009,-87.9852"/>
<polygon fill="black" stroke="black" points="190.586,-91.479 201.115,-90.3012 192.149,-84.6558 190.586,-91.479"/>
</g>
<!-- proc~get_current_line_from_file_stream -->
<g id="node3" class="node"><title>proc~get_current_line_from_file_stream</title>
<a xlink:href="../proc/get_current_line_from_file_stream.html" xlink:title="get_current_line_from_file_stream">
<polygon fill="#d9534f" stroke="#d9534f" points="336,-70 160,-70 160,-44 336,-44 336,-70"/>
<text text-anchor="middle" x="248" y="-54.55" font-family="Helvetica,sans-Serif" font-size="10.50" fill="white">get_current_line_from_file_stream</text>
</a>
</g>
<!-- proc~annotate_invalid_json&#45;&gt;proc~get_current_line_from_file_stream -->
<g id="edge4" class="edge"><title>proc~annotate_invalid_json&#45;&gt;proc~get_current_line_from_file_stream</title>
<path fill="none" stroke="black" d="M116.039,-57C126.758,-57 138.222,-57 149.749,-57"/>
<polygon fill="black" stroke="black" points="149.879,-60.5001 159.879,-57 149.879,-53.5001 149.879,-60.5001"/>
</g>
<!-- proc~get_current_line_from_file_sequential -->
<g id="node4" class="node"><title>proc~get_current_line_from_file_sequential</title>
<a xlink:href="../proc/get_current_line_from_file_sequential.html" xlink:title="get_current_line_from_file_sequential">
<polygon fill="#d9534f" stroke="#d9534f" points="344,-26 152,-26 152,-1.24345e-14 344,-3.55271e-15 344,-26"/>
<text text-anchor="middle" x="248" y="-10.55" font-family="Helvetica,sans-Serif" font-size="10.50" fill="white">get_current_line_from_file_sequential</text>
</a>
</g>
<!-- proc~annotate_invalid_json&#45;&gt;proc~get_current_line_from_file_sequential -->
<g id="edge6" class="edge"><title>proc~annotate_invalid_json&#45;&gt;proc~get_current_line_from_file_sequential</title>
<path fill="none" stroke="black" d="M113.66,-43.9283C126.265,-40.9806 139.591,-37.8741 152,-35 161.334,-32.8382 171.182,-30.5687 180.87,-28.3422"/>
<polygon fill="black" stroke="black" points="181.918,-31.6928 190.882,-26.0439 180.352,-24.8703 181.918,-31.6928"/>
</g>
</g>
</svg>
