<?xml version="1.0" encoding="UTF-8" standalone="no"?>
<!DOCTYPE svg PUBLIC "-//W3C//DTD SVG 1.1//EN"
 "http://www.w3.org/Graphics/SVG/1.1/DTD/svg11.dtd">
<!-- Generated by graphviz version 2.26.3 (20100126.1600)
 -->
<!-- Title: proc~~json_file_get_double~~CalledByGraph Pages: 1 -->
<svg width="296pt" height="34pt"
 viewBox="0.00 0.00 296.00 34.00" xmlns="http://www.w3.org/2000/svg" xmlns:xlink="http://www.w3.org/1999/xlink">
<g id="graph1" class="graph" transform="scale(1 1) rotate(0) translate(4 30)">
<title>proc~~json_file_get_double~~CalledByGraph</title>
<polygon fill="white" stroke="white" points="-4,5 -4,-30 293,-30 293,5 -4,5"/>
<!-- proc~json_file_get_double -->
<g id="node1" class="node"><title>proc~json_file_get_double</title>
<polygon fill="none" stroke="black" points="287,-26 177,-26 177,-1.24345e-14 287,-3.55271e-15 287,-26"/>
<text text-anchor="middle" x="232" y="-10.55" font-family="Helvetica,sans-Serif" font-size="10.50">json_file_get_double</text>
</g>
<!-- proc~wrap_json_file_get_double -->
<g id="node2" class="node"><title>proc~wrap_json_file_get_double</title>
<a xlink:href="../proc/wrap_json_file_get_double.html" xlink:title="wrap_json_file_get_double">
<polygon fill="#d9534f" stroke="#d9534f" points="140,-26 7.10543e-14,-26 0,-1.24345e-14 140,-3.55271e-15 140,-26"/>
<text text-anchor="middle" x="70" y="-10.55" font-family="Helvetica,sans-Serif" font-size="10.50" fill="white">wrap_json_file_get_double</text>
</a>
</g>
<!-- proc~wrap_json_file_get_double&#45;&gt;proc~json_file_get_double -->
<g id="edge2" class="edge"><title>proc~wrap_json_file_get_double&#45;&gt;proc~json_file_get_double</title>
<path fill="none" stroke="black" d="M140.113,-13C148.841,-13 157.74,-13 166.396,-13"/>
<polygon fill="black" stroke="black" points="166.421,-16.5001 176.421,-13 166.421,-9.5001 166.421,-16.5001"/>
</g>
</g>
</svg>
