<?xml version="1.0" encoding="UTF-8" standalone="no"?>
<!DOCTYPE svg PUBLIC "-//W3C//DTD SVG 1.1//EN"
 "http://www.w3.org/Graphics/SVG/1.1/DTD/svg11.dtd">
<!-- Generated by graphviz version 2.26.3 (20100126.1600)
 -->
<!-- Title: proc~~json_value_remove~~CallsGraph Pages: 1 -->
<svg width="392pt" height="52pt"
 viewBox="0.00 0.00 392.00 52.00" xmlns="http://www.w3.org/2000/svg" xmlns:xlink="http://www.w3.org/1999/xlink">
<g id="graph1" class="graph" transform="scale(1 1) rotate(0) translate(4 48)">
<title>proc~~json_value_remove~~CallsGraph</title>
<polygon fill="white" stroke="white" points="-4,5 -4,-48 389,-48 389,5 -4,5"/>
<!-- proc~json_value_remove -->
<g id="node1" class="node"><title>proc~json_value_remove</title>
<polygon fill="none" stroke="black" points="106,-26 3.55271e-14,-26 0,-1.24345e-14 106,-3.55271e-15 106,-26"/>
<text text-anchor="middle" x="53" y="-10.55" font-family="Helvetica,sans-Serif" font-size="10.50">json_value_remove</text>
</g>
<!-- proc~json_value_destroy -->
<g id="node2" class="node"><title>proc~json_value_destroy</title>
<a xlink:href="../proc/json_value_destroy.html" xlink:title="json_value_destroy">
<polygon fill="#d9534f" stroke="#d9534f" points="247,-26 143,-26 143,-1.24345e-14 247,-3.55271e-15 247,-26"/>
<text text-anchor="middle" x="195" y="-10.55" font-family="Helvetica,sans-Serif" font-size="10.50" fill="white">json_value_destroy</text>
</a>
</g>
<!-- proc~json_value_remove&#45;&gt;proc~json_value_destroy -->
<g id="edge6" class="edge"><title>proc~json_value_remove&#45;&gt;proc~json_value_destroy</title>
<path fill="none" stroke="black" d="M106.28,-13C114.764,-13 123.609,-13 132.287,-13"/>
<polygon fill="black" stroke="black" points="132.366,-16.5001 142.366,-13 132.366,-9.5001 132.366,-16.5001"/>
</g>
<!-- proc~json_value_destroy&#45;&gt;proc~json_value_destroy -->
<g id="edge4" class="edge"><title>proc~json_value_destroy&#45;&gt;proc~json_value_destroy</title>
<path fill="none" stroke="black" d="M171.652,-26.0602C164.577,-35.0996 172.359,-44 195,-44 208.797,-44 217.076,-40.6949 219.838,-36.0674"/>
<polygon fill="black" stroke="black" points="223.283,-35.4357 218.348,-26.0602 216.359,-36.4666 223.283,-35.4357"/>
</g>
<!-- proc~destroy_json_data -->
<g id="node3" class="node"><title>proc~destroy_json_data</title>
<a xlink:href="../proc/destroy_json_data.html" xlink:title="destroy_json_data">
<polygon fill="#d9534f" stroke="#d9534f" points="384,-26 284,-26 284,-1.24345e-14 384,-3.55271e-15 384,-26"/>
<text text-anchor="middle" x="334" y="-10.55" font-family="Helvetica,sans-Serif" font-size="10.50" fill="white">destroy_json_data</text>
</a>
</g>
<!-- proc~json_value_destroy&#45;&gt;proc~destroy_json_data -->
<g id="edge2" class="edge"><title>proc~json_value_destroy&#45;&gt;proc~destroy_json_data</title>
<path fill="none" stroke="black" d="M247.55,-13C256.06,-13 264.93,-13 273.608,-13"/>
<polygon fill="black" stroke="black" points="273.674,-16.5001 283.673,-13 273.673,-9.5001 273.674,-16.5001"/>
</g>
</g>
</svg>
