<?xml version="1.0" encoding="UTF-8" standalone="no"?>
<!DOCTYPE svg PUBLIC "-//W3C//DTD SVG 1.1//EN"
 "http://www.w3.org/Graphics/SVG/1.1/DTD/svg11.dtd">
<!-- Generated by graphviz version 2.26.3 (20100126.1600)
 -->
<!-- Title: proc~~wrap_json_get_array_with_path~~CallsGraph Pages: 1 -->
<svg width="641pt" height="115pt"
 viewBox="0.00 0.00 641.00 114.87" xmlns="http://www.w3.org/2000/svg" xmlns:xlink="http://www.w3.org/1999/xlink">
<g id="graph1" class="graph" transform="scale(0.39277 0.39277) rotate(0) translate(4 288.46)">
<title>proc~~wrap_json_get_array_with_path~~CallsGraph</title>
<polygon fill="white" stroke="white" points="-4,5 -4,-288.46 1629,-288.46 1629,5 -4,5"/>
<!-- proc~wrap_json_get_array_with_path -->
<g id="node1" class="node"><title>proc~wrap_json_get_array_with_path</title>
<polygon fill="none" stroke="black" points="165,-248.46 1,-248.46 1,-222.46 165,-222.46 165,-248.46"/>
<text text-anchor="middle" x="83" y="-233.01" font-family="Helvetica,sans-Serif" font-size="10.50">wrap_json_get_array_with_path</text>
</g>
<!-- interface~to_unicode -->
<g id="node2" class="node"><title>interface~to_unicode</title>
<a xlink:href="../interface/to_unicode.html" xlink:title="to_unicode">
<polygon fill="#a7506f" stroke="#a7506f" points="1498,-171.46 1434,-171.46 1434,-145.46 1498,-145.46 1498,-171.46"/>
<text text-anchor="middle" x="1466" y="-156.01" font-family="Helvetica,sans-Serif" font-size="10.50" fill="white">to_unicode</text>
</a>
</g>
<!-- proc~wrap_json_get_array_with_path&#45;&gt;interface~to_unicode -->
<g id="edge52" class="edge"><title>proc~wrap_json_get_array_with_path&#45;&gt;interface~to_unicode</title>
<path fill="none" stroke="black" d="M138.598,-248.462C205.636,-262.979 321.914,-284.46 423,-284.46 423,-284.46 423,-284.46 1144,-284.46 1260.33,-284.46 1385.06,-212.258 1438.81,-177.166"/>
<polygon fill="black" stroke="black" points="1441,-179.91 1447.41,-171.47 1437.14,-174.074 1441,-179.91"/>
</g>
<!-- proc~json_get_array_with_path -->
<g id="node3" class="node"><title>proc~json_get_array_with_path</title>
<a xlink:href="../proc/json_get_array_with_path.html" xlink:title="json_get_array_with_path">
<polygon fill="#d9534f" stroke="#d9534f" points="338,-199.46 202,-199.46 202,-173.46 338,-173.46 338,-199.46"/>
<text text-anchor="middle" x="270" y="-184.01" font-family="Helvetica,sans-Serif" font-size="10.50" fill="white">json_get_array_with_path</text>
</a>
</g>
<!-- proc~wrap_json_get_array_with_path&#45;&gt;proc~json_get_array_with_path -->
<g id="edge54" class="edge"><title>proc~wrap_json_get_array_with_path&#45;&gt;proc~json_get_array_with_path</title>
<path fill="none" stroke="black" d="M132.622,-222.458C156.502,-216.2 185.322,-208.648 210.385,-202.081"/>
<polygon fill="black" stroke="black" points="211.36,-205.444 220.147,-199.523 209.586,-198.672 211.36,-205.444"/>
</g>
<!-- proc~to_uni_vec -->
<g id="node4" class="node"><title>proc~to_uni_vec</title>
<a xlink:href="../proc/to_uni_vec.html" xlink:title="to_uni_vec">
<polygon fill="#d94e8f" stroke="#d94e8f" points="1624,-193.46 1560,-193.46 1560,-167.46 1624,-167.46 1624,-193.46"/>
<text text-anchor="middle" x="1592" y="-178.01" font-family="Helvetica,sans-Serif" font-size="10.50" fill="white">to_uni_vec</text>
</a>
</g>
<!-- interface~to_unicode&#45;&gt;proc~to_uni_vec -->
<g id="edge2" class="edge"><title>interface~to_unicode&#45;&gt;proc~to_uni_vec</title>
<path fill="none" stroke="black" stroke-dasharray="5,2" d="M1498.78,-164.183C1514.36,-166.903 1533.17,-170.187 1549.8,-173.091"/>
<polygon fill="black" stroke="black" points="1549.37,-176.57 1559.82,-174.842 1550.58,-169.674 1549.37,-176.57"/>
</g>
<!-- proc~to_uni -->
<g id="node5" class="node"><title>proc~to_uni</title>
<a xlink:href="../proc/to_uni.html" xlink:title="to_uni">
<polygon fill="#d94e8f" stroke="#d94e8f" points="1619,-149.46 1565,-149.46 1565,-123.46 1619,-123.46 1619,-149.46"/>
<text text-anchor="middle" x="1592" y="-134.01" font-family="Helvetica,sans-Serif" font-size="10.50" fill="white">to_uni</text>
</a>
</g>
<!-- interface~to_unicode&#45;&gt;proc~to_uni -->
<g id="edge4" class="edge"><title>interface~to_unicode&#45;&gt;proc~to_uni</title>
<path fill="none" stroke="black" stroke-dasharray="5,2" d="M1498.78,-152.737C1515.97,-149.736 1537.09,-146.048 1554.88,-142.942"/>
<polygon fill="black" stroke="black" points="1555.66,-146.357 1564.91,-141.189 1554.46,-139.462 1555.66,-146.357"/>
</g>
<!-- proc~json_get_by_path -->
<g id="node8" class="node"><title>proc~json_get_by_path</title>
<a xlink:href="../proc/json_get_by_path.html" xlink:title="json_get_by_path">
<polygon fill="#d9534f" stroke="#d9534f" points="471,-155.46 375,-155.46 375,-129.46 471,-129.46 471,-155.46"/>
<text text-anchor="middle" x="423" y="-140.01" font-family="Helvetica,sans-Serif" font-size="10.50" fill="white">json_get_by_path</text>
</a>
</g>
<!-- proc~json_get_array_with_path&#45;&gt;proc~json_get_by_path -->
<g id="edge44" class="edge"><title>proc~json_get_array_with_path&#45;&gt;proc~json_get_by_path</title>
<path fill="none" stroke="black" d="M315.491,-173.378C331.911,-168.655 350.626,-163.273 367.788,-158.338"/>
<polygon fill="black" stroke="black" points="369.041,-161.619 377.684,-155.492 367.107,-154.892 369.041,-161.619"/>
</g>
<!-- proc~json_get_array -->
<g id="node9" class="node"><title>proc~json_get_array</title>
<a xlink:href="../proc/json_get_array.html" xlink:title="json_get_array">
<polygon fill="#d9534f" stroke="#d9534f" points="1020,-256.46 936,-256.46 936,-230.46 1020,-230.46 1020,-256.46"/>
<text text-anchor="middle" x="978" y="-241.01" font-family="Helvetica,sans-Serif" font-size="10.50" fill="white">json_get_array</text>
</a>
</g>
<!-- proc~json_get_array_with_path&#45;&gt;proc~json_get_array -->
<g id="edge46" class="edge"><title>proc~json_get_array_with_path&#45;&gt;proc~json_get_array</title>
<path fill="none" stroke="black" d="M338.177,-196.26C350.102,-197.796 362.401,-199.268 374,-200.46 577.676,-221.398 821.043,-235.366 925.817,-240.85"/>
<polygon fill="black" stroke="black" points="925.648,-244.346 935.816,-241.37 926.011,-237.355 925.648,-244.346"/>
</g>
<!-- proc~json_clear_exceptions -->
<g id="node10" class="node"><title>proc~json_clear_exceptions</title>
<a xlink:href="../proc/json_clear_exceptions.html" xlink:title="json_clear_exceptions">
<polygon fill="#d9534f" stroke="#d9534f" points="626,-199.46 508,-199.46 508,-173.46 626,-173.46 626,-199.46"/>
<text text-anchor="middle" x="567" y="-184.01" font-family="Helvetica,sans-Serif" font-size="10.50" fill="white">json_clear_exceptions</text>
</a>
</g>
<!-- proc~json_get_array_with_path&#45;&gt;proc~json_clear_exceptions -->
<g id="edge48" class="edge"><title>proc~json_get_array_with_path&#45;&gt;proc~json_clear_exceptions</title>
<path fill="none" stroke="black" d="M338.138,-186.46C385.944,-186.46 449.65,-186.46 497.709,-186.46"/>
<polygon fill="black" stroke="black" points="497.716,-189.96 507.716,-186.46 497.716,-182.96 497.716,-189.96"/>
</g>
<!-- interface~throw_exception -->
<g id="node11" class="node"><title>interface~throw_exception</title>
<a xlink:href="../interface/throw_exception.html" xlink:title="throw_exception">
<polygon fill="#a7506f" stroke="#a7506f" points="1189,-112.46 1099,-112.46 1099,-86.46 1189,-86.46 1189,-112.46"/>
<text text-anchor="middle" x="1144" y="-97.01" font-family="Helvetica,sans-Serif" font-size="10.50" fill="white">throw_exception</text>
</a>
</g>
<!-- proc~json_get_array_with_path&#45;&gt;interface~throw_exception -->
<g id="edge50" class="edge"><title>proc~json_get_array_with_path&#45;&gt;interface~throw_exception</title>
<path fill="none" stroke="black" d="M280.596,-173.381C316.177,-131.043 436.499,-0.459968 567,-0.459968 567,-0.459968 567,-0.459968 760,-0.459968 895.514,-0.459968 935.795,6.89952 1062,-42.46 1084.21,-51.1451 1106.22,-66.9496 1121.84,-79.7173"/>
<polygon fill="black" stroke="black" points="1119.91,-82.6718 1129.82,-86.4335 1124.42,-77.3162 1119.91,-82.6718"/>
</g>
<!-- proc~json_get_by_path&#45;&gt;proc~json_clear_exceptions -->
<g id="edge28" class="edge"><title>proc~json_get_by_path&#45;&gt;proc~json_clear_exceptions</title>
<path fill="none" stroke="black" d="M465.815,-155.542C481.056,-160.199 498.398,-165.498 514.367,-170.378"/>
<polygon fill="black" stroke="black" points="513.515,-173.777 524.101,-173.352 515.561,-167.083 513.515,-173.777"/>
</g>
<!-- proc~json_get_by_path&#45;&gt;interface~throw_exception -->
<g id="edge24" class="edge"><title>proc~json_get_by_path&#45;&gt;interface~throw_exception</title>
<path fill="none" stroke="black" d="M469.073,-129.367C481.625,-126.121 495.272,-122.882 508,-120.46 719.278,-80.2626 977.007,-89.0569 1088.36,-95.5774"/>
<polygon fill="black" stroke="black" points="1088.17,-99.0718 1098.36,-96.1799 1088.59,-92.0845 1088.17,-99.0718"/>
</g>
<!-- interface~json_get_child -->
<g id="node12" class="node"><title>interface~json_get_child</title>
<a xlink:href="../interface/json_get_child.html" xlink:title="json_get_child">
<polygon fill="#a7506f" stroke="#a7506f" points="607,-155.46 527,-155.46 527,-129.46 607,-129.46 607,-155.46"/>
<text text-anchor="middle" x="567" y="-140.01" font-family="Helvetica,sans-Serif" font-size="10.50" fill="white">json_get_child</text>
</a>
</g>
<!-- proc~json_get_by_path&#45;&gt;interface~json_get_child -->
<g id="edge26" class="edge"><title>proc~json_get_by_path&#45;&gt;interface~json_get_child</title>
<path fill="none" stroke="black" d="M471.752,-142.46C486.065,-142.46 501.751,-142.46 516.19,-142.46"/>
<polygon fill="black" stroke="black" points="516.445,-145.96 526.445,-142.46 516.445,-138.96 516.445,-145.96"/>
</g>
<!-- proc~string_to_integer -->
<g id="node13" class="node"><title>proc~string_to_integer</title>
<a xlink:href="../proc/string_to_integer.html" xlink:title="string_to_integer">
<polygon fill="#d94e8f" stroke="#d94e8f" points="806,-54.46 714,-54.46 714,-28.46 806,-28.46 806,-54.46"/>
<text text-anchor="middle" x="760" y="-39.01" font-family="Helvetica,sans-Serif" font-size="10.50" fill="white">string_to_integer</text>
</a>
</g>
<!-- proc~json_get_by_path&#45;&gt;proc~string_to_integer -->
<g id="edge30" class="edge"><title>proc~json_get_by_path&#45;&gt;proc~string_to_integer</title>
<path fill="none" stroke="black" d="M433.468,-129.332C448.099,-112.046 476.439,-82.2347 508,-68.46 570.759,-41.0688 650.342,-37.0024 703.101,-38.0246"/>
<polygon fill="black" stroke="black" points="703.194,-41.5281 713.282,-38.2915 703.378,-34.5305 703.194,-41.5281"/>
</g>
<!-- proc~json_get_array&#45;&gt;interface~throw_exception -->
<g id="edge32" class="edge"><title>proc~json_get_array&#45;&gt;interface~throw_exception</title>
<path fill="none" stroke="black" d="M1020.3,-238.537C1034.51,-235.35 1049.83,-230.102 1062,-221.46 1097.76,-196.058 1122.47,-149.766 1134.84,-122.089"/>
<polygon fill="black" stroke="black" points="1138.1,-123.376 1138.84,-112.807 1131.67,-120.606 1138.1,-123.376"/>
</g>
<!-- proc~json_count -->
<g id="node18" class="node"><title>proc~json_count</title>
<a xlink:href="../proc/json_count.html" xlink:title="json_count">
<polygon fill="#d94e8f" stroke="#d94e8f" points="1176,-234.46 1112,-234.46 1112,-208.46 1176,-208.46 1176,-234.46"/>
<text text-anchor="middle" x="1144" y="-219.01" font-family="Helvetica,sans-Serif" font-size="10.50" fill="white">json_count</text>
</a>
</g>
<!-- proc~json_get_array&#45;&gt;proc~json_count -->
<g id="edge34" class="edge"><title>proc~json_get_array&#45;&gt;proc~json_count</title>
<path fill="none" stroke="black" d="M1020.32,-237.852C1045.39,-234.528 1077.05,-230.333 1102.06,-227.019"/>
<polygon fill="black" stroke="black" points="1102.53,-230.487 1111.98,-225.704 1101.61,-223.548 1102.53,-230.487"/>
</g>
<!-- proc~json_throw_exception -->
<g id="node33" class="node"><title>proc~json_throw_exception</title>
<a xlink:href="../proc/json_throw_exception.html" xlink:title="json_throw_exception">
<polygon fill="#d9534f" stroke="#d9534f" points="1524,-108.46 1408,-108.46 1408,-82.46 1524,-82.46 1524,-108.46"/>
<text text-anchor="middle" x="1466" y="-93.01" font-family="Helvetica,sans-Serif" font-size="10.50" fill="white">json_throw_exception</text>
</a>
</g>
<!-- interface~throw_exception&#45;&gt;proc~json_throw_exception -->
<g id="edge40" class="edge"><title>interface~throw_exception&#45;&gt;proc~json_throw_exception</title>
<path fill="none" stroke="black" stroke-dasharray="5,2" d="M1189.53,-96.8437C1201.4,-96.2701 1214.17,-95.7482 1226,-95.46 1283.82,-94.0505 1349.5,-94.1696 1397.52,-94.574"/>
<polygon fill="black" stroke="black" points="1397.76,-98.0762 1407.79,-94.6671 1397.83,-91.0765 1397.76,-98.0762"/>
</g>
<!-- proc~wrap_json_throw_exception -->
<g id="node34" class="node"><title>proc~wrap_json_throw_exception</title>
<a xlink:href="../proc/wrap_json_throw_exception.html" xlink:title="wrap_json_throw_exception">
<polygon fill="#d9534f" stroke="#d9534f" points="1371,-130.46 1227,-130.46 1227,-104.46 1371,-104.46 1371,-130.46"/>
<text text-anchor="middle" x="1299" y="-115.01" font-family="Helvetica,sans-Serif" font-size="10.50" fill="white">wrap_json_throw_exception</text>
</a>
</g>
<!-- interface~throw_exception&#45;&gt;proc~wrap_json_throw_exception -->
<g id="edge42" class="edge"><title>interface~throw_exception&#45;&gt;proc~wrap_json_throw_exception</title>
<path fill="none" stroke="black" stroke-dasharray="5,2" d="M1189.67,-104.763C1198.13,-105.746 1207.2,-106.799 1216.37,-107.864"/>
<polygon fill="black" stroke="black" points="1215.99,-111.344 1226.33,-109.021 1216.8,-104.391 1215.99,-111.344"/>
</g>
<!-- proc~json_value_get_by_index -->
<g id="node14" class="node"><title>proc~json_value_get_by_index</title>
<a xlink:href="../proc/json_value_get_by_index.html" xlink:title="json_value_get_by_index">
<polygon fill="#d9534f" stroke="#d9534f" points="826,-136.46 694,-136.46 694,-110.46 826,-110.46 826,-136.46"/>
<text text-anchor="middle" x="760" y="-121.01" font-family="Helvetica,sans-Serif" font-size="10.50" fill="white">json_value_get_by_index</text>
</a>
</g>
<!-- interface~json_get_child&#45;&gt;proc~json_value_get_by_index -->
<g id="edge16" class="edge"><title>interface~json_get_child&#45;&gt;proc~json_value_get_by_index</title>
<path fill="none" stroke="black" stroke-dasharray="5,2" d="M607.93,-138.431C629.812,-136.276 657.475,-133.553 683.191,-131.022"/>
<polygon fill="black" stroke="black" points="683.701,-134.488 693.31,-130.025 683.015,-127.522 683.701,-134.488"/>
</g>
<!-- proc~json_value_get_by_name_chars -->
<g id="node15" class="node"><title>proc~json_value_get_by_name_chars</title>
<a xlink:href="../proc/json_value_get_by_name_chars.html" xlink:title="json_value_get_by_name_chars">
<polygon fill="#d9534f" stroke="#d9534f" points="1061,-212.46 895,-212.46 895,-186.46 1061,-186.46 1061,-212.46"/>
<text text-anchor="middle" x="978" y="-197.01" font-family="Helvetica,sans-Serif" font-size="10.50" fill="white">json_value_get_by_name_chars</text>
</a>
</g>
<!-- interface~json_get_child&#45;&gt;proc~json_value_get_by_name_chars -->
<g id="edge18" class="edge"><title>interface~json_get_child&#45;&gt;proc~json_value_get_by_name_chars</title>
<path fill="none" stroke="black" stroke-dasharray="5,2" d="M606.32,-155.55C613.013,-158.221 619.8,-161.217 626,-164.46 643.261,-173.489 643.505,-183.345 662,-189.46 733.852,-213.216 819.967,-214.284 884.142,-210.212"/>
<polygon fill="black" stroke="black" points="884.511,-213.695 894.247,-209.517 884.031,-206.711 884.511,-213.695"/>
</g>
<!-- proc~wrap_json_value_get_by_name_chars -->
<g id="node16" class="node"><title>proc~wrap_json_value_get_by_name_chars</title>
<a xlink:href="../proc/wrap_json_value_get_by_name_chars.html" xlink:title="wrap_json_value_get_by_name_chars">
<polygon fill="#d9534f" stroke="#d9534f" points="858,-180.46 662,-180.46 662,-154.46 858,-154.46 858,-180.46"/>
<text text-anchor="middle" x="760" y="-165.01" font-family="Helvetica,sans-Serif" font-size="10.50" fill="white">wrap_json_value_get_by_name_chars</text>
</a>
</g>
<!-- interface~json_get_child&#45;&gt;proc~wrap_json_value_get_by_name_chars -->
<g id="edge20" class="edge"><title>interface~json_get_child&#45;&gt;proc~wrap_json_value_get_by_name_chars</title>
<path fill="none" stroke="black" stroke-dasharray="5,2" d="M607.93,-147.762C621.001,-149.455 636.135,-151.415 651.684,-153.429"/>
<polygon fill="black" stroke="black" points="651.578,-156.945 661.945,-154.759 652.478,-150.003 651.578,-156.945"/>
</g>
<!-- proc~string_to_integer&#45;&gt;interface~throw_exception -->
<g id="edge22" class="edge"><title>proc~string_to_integer&#45;&gt;interface~throw_exception</title>
<path fill="none" stroke="black" d="M806.659,-41.7184C866.524,-42.9374 973.235,-48.1154 1062,-68.46 1076.68,-71.8252 1092.27,-77.2222 1105.87,-82.5768"/>
<polygon fill="black" stroke="black" points="1104.79,-85.918 1115.37,-86.4386 1107.43,-79.4326 1104.79,-85.918"/>
</g>
<!-- proc~json_value_get_by_index&#45;&gt;interface~throw_exception -->
<g id="edge6" class="edge"><title>proc~json_value_get_by_index&#45;&gt;interface~throw_exception</title>
<path fill="none" stroke="black" d="M826.888,-119.279C900.876,-114.655 1018.77,-107.287 1088.05,-102.957"/>
<polygon fill="black" stroke="black" points="1088.56,-106.432 1098.32,-102.315 1088.12,-99.4454 1088.56,-106.432"/>
</g>
<!-- proc~json_value_get_by_name_chars&#45;&gt;interface~throw_exception -->
<g id="edge8" class="edge"><title>proc~json_value_get_by_name_chars&#45;&gt;interface~throw_exception</title>
<path fill="none" stroke="black" d="M999.702,-186.387C1028.78,-168.869 1080.54,-137.687 1113.52,-117.819"/>
<polygon fill="black" stroke="black" points="1115.53,-120.695 1122.29,-112.536 1111.92,-114.699 1115.53,-120.695"/>
</g>
<!-- proc~json_value_get_by_name_chars&#45;&gt;proc~json_count -->
<g id="edge10" class="edge"><title>proc~json_value_get_by_name_chars&#45;&gt;proc~json_count</title>
<path fill="none" stroke="black" d="M1061.97,-210.589C1075.66,-212.402 1089.3,-214.211 1101.43,-215.818"/>
<polygon fill="black" stroke="black" points="1101.28,-219.329 1111.65,-217.173 1102.2,-212.39 1101.28,-219.329"/>
</g>
<!-- proc~wrap_json_value_get_by_name_chars&#45;&gt;interface~to_unicode -->
<g id="edge12" class="edge"><title>proc~wrap_json_value_get_by_name_chars&#45;&gt;interface~to_unicode</title>
<path fill="none" stroke="black" d="M858.166,-166.209C1014.16,-164.22 1312.32,-160.419 1423.13,-159.006"/>
<polygon fill="black" stroke="black" points="1423.31,-162.505 1433.26,-158.877 1423.22,-155.505 1423.31,-162.505"/>
</g>
<!-- proc~wrap_json_value_get_by_name_chars&#45;&gt;proc~json_value_get_by_name_chars -->
<g id="edge14" class="edge"><title>proc~wrap_json_value_get_by_name_chars&#45;&gt;proc~json_value_get_by_name_chars</title>
<path fill="none" stroke="black" d="M848.669,-180.476C860.457,-182.206 872.574,-183.985 884.441,-185.727"/>
<polygon fill="black" stroke="black" points="883.937,-189.19 894.339,-187.179 884.953,-182.264 883.937,-189.19"/>
</g>
<!-- proc~wrap_json_throw_exception&#45;&gt;interface~to_unicode -->
<g id="edge38" class="edge"><title>proc~wrap_json_throw_exception&#45;&gt;interface~to_unicode</title>
<path fill="none" stroke="black" d="M1352.3,-130.545C1375.21,-136.17 1401.62,-142.655 1423.22,-147.957"/>
<polygon fill="black" stroke="black" points="1422.54,-151.395 1433.09,-150.38 1424.21,-144.597 1422.54,-151.395"/>
</g>
<!-- proc~wrap_json_throw_exception&#45;&gt;proc~json_throw_exception -->
<g id="edge36" class="edge"><title>proc~wrap_json_throw_exception&#45;&gt;proc~json_throw_exception</title>
<path fill="none" stroke="black" d="M1371.76,-107.874C1380.42,-106.734 1389.23,-105.573 1397.82,-104.442"/>
<polygon fill="black" stroke="black" points="1398.32,-107.907 1407.77,-103.131 1397.4,-100.967 1398.32,-107.907"/>
</g>
</g>
</svg>
