<?xml version="1.0" encoding="UTF-8" standalone="no"?>
<!DOCTYPE svg PUBLIC "-//W3C//DTD SVG 1.1//EN"
 "http://www.w3.org/Graphics/SVG/1.1/DTD/svg11.dtd">
<!-- Generated by graphviz version 2.26.3 (20100126.1600)
 -->
<!-- Title: proc~~json_failed~~CalledByGraph Pages: 1 -->
<svg width="424pt" height="732pt"
 viewBox="0.00 0.00 424.00 732.00" xmlns="http://www.w3.org/2000/svg" xmlns:xlink="http://www.w3.org/1999/xlink">
<g id="graph1" class="graph" transform="scale(1 1) rotate(0) translate(4 728)">
<title>proc~~json_failed~~CalledByGraph</title>
<polygon fill="white" stroke="white" points="-4,5 -4,-728 421,-728 421,5 -4,5"/>
<!-- proc~json_failed -->
<g id="node1" class="node"><title>proc~json_failed</title>
<polygon fill="none" stroke="black" points="416,-372 352,-372 352,-346 416,-346 416,-372"/>
<text text-anchor="middle" x="384" y="-356.55" font-family="Helvetica,sans-Serif" font-size="10.50">json_failed</text>
</g>
<!-- proc~test_3 -->
<g id="node2" class="node"><title>proc~test_3</title>
<a xlink:href="../proc/test_3.html" xlink:title="test_3">
<polygon fill="#d9534f" stroke="#d9534f" points="281,-724 227,-724 227,-698 281,-698 281,-724"/>
<text text-anchor="middle" x="254" y="-708.55" font-family="Helvetica,sans-Serif" font-size="10.50" fill="white">test_3</text>
</a>
</g>
<!-- proc~test_3&#45;&gt;proc~json_failed -->
<g id="edge34" class="edge"><title>proc~test_3&#45;&gt;proc~json_failed</title>
<path fill="none" stroke="black" d="M281.224,-707.498C293.519,-704.538 307.224,-699.077 316,-689 356.395,-642.619 376.31,-449.757 382.134,-382.367"/>
<polygon fill="black" stroke="black" points="385.628,-382.583 382.977,-372.326 378.653,-381.998 385.628,-382.583"/>
</g>
<!-- proc~test_6 -->
<g id="node3" class="node"><title>proc~test_6</title>
<a xlink:href="../proc/test_6.html" xlink:title="test_6">
<polygon fill="#d9534f" stroke="#d9534f" points="281,-680 227,-680 227,-654 281,-654 281,-680"/>
<text text-anchor="middle" x="254" y="-664.55" font-family="Helvetica,sans-Serif" font-size="10.50" fill="white">test_6</text>
</a>
</g>
<!-- proc~test_6&#45;&gt;proc~json_failed -->
<g id="edge36" class="edge"><title>proc~test_6&#45;&gt;proc~json_failed</title>
<path fill="none" stroke="black" d="M281.09,-663.38C293.355,-660.393 307.072,-654.943 316,-645 351.228,-605.763 373.89,-443.528 381.32,-382.422"/>
<polygon fill="black" stroke="black" points="384.825,-382.585 382.529,-372.242 377.874,-381.759 384.825,-382.585"/>
</g>
<!-- program~example2 -->
<g id="node4" class="node"><title>program~example2</title>
<a xlink:href="../program/example2.html" xlink:title="example2">
<polygon fill="#f0ad4e" stroke="#f0ad4e" points="283,-636 225,-636 225,-610 283,-610 283,-636"/>
<text text-anchor="middle" x="254" y="-620.55" font-family="Helvetica,sans-Serif" font-size="10.50" fill="white">example2</text>
</a>
</g>
<!-- program~example2&#45;&gt;proc~json_failed -->
<g id="edge38" class="edge"><title>program~example2&#45;&gt;proc~json_failed</title>
<path fill="none" stroke="black" d="M283.759,-618.477C295.224,-615.333 307.575,-610.01 316,-601 346.187,-568.718 371.174,-436.029 380.292,-382.025"/>
<polygon fill="black" stroke="black" points="383.764,-382.48 381.947,-372.042 376.859,-381.335 383.764,-382.48"/>
</g>
<!-- proc~test_13 -->
<g id="node5" class="node"><title>proc~test_13</title>
<a xlink:href="../proc/test_13.html" xlink:title="test_13">
<polygon fill="#d9534f" stroke="#d9534f" points="281,-592 227,-592 227,-566 281,-566 281,-592"/>
<text text-anchor="middle" x="254" y="-576.55" font-family="Helvetica,sans-Serif" font-size="10.50" fill="white">test_13</text>
</a>
</g>
<!-- proc~test_13&#45;&gt;proc~json_failed -->
<g id="edge40" class="edge"><title>proc~test_13&#45;&gt;proc~json_failed</title>
<path fill="none" stroke="black" d="M281.297,-574.825C293.31,-571.722 306.76,-566.335 316,-557 364.483,-508.021 378.451,-422.973 382.434,-382.157"/>
<polygon fill="black" stroke="black" points="385.929,-382.371 383.297,-372.108 378.954,-381.772 385.929,-382.371"/>
</g>
<!-- proc~test_5 -->
<g id="node6" class="node"><title>proc~test_5</title>
<a xlink:href="../proc/test_5.html" xlink:title="test_5">
<polygon fill="#d9534f" stroke="#d9534f" points="281,-548 227,-548 227,-522 281,-522 281,-548"/>
<text text-anchor="middle" x="254" y="-532.55" font-family="Helvetica,sans-Serif" font-size="10.50" fill="white">test_5</text>
</a>
</g>
<!-- proc~test_5&#45;&gt;proc~json_failed -->
<g id="edge42" class="edge"><title>proc~test_5&#45;&gt;proc~json_failed</title>
<path fill="none" stroke="black" d="M281.255,-530.377C293.116,-527.187 306.455,-521.856 316,-513 354.498,-477.28 372.454,-415.833 379.738,-382.373"/>
<polygon fill="black" stroke="black" points="383.248,-382.673 381.813,-372.176 376.389,-381.277 383.248,-382.673"/>
</g>
<!-- none~check_errors -->
<g id="node7" class="node"><title>none~check_errors</title>
<polygon fill="#d9534f" stroke="#d9534f" points="291,-504 217,-504 217,-478 291,-478 291,-504"/>
<text text-anchor="middle" x="254" y="-488.55" font-family="Helvetica,sans-Serif" font-size="10.50" fill="white">check_errors</text>
</g>
<!-- none~check_errors&#45;&gt;proc~json_failed -->
<g id="edge44" class="edge"><title>none~check_errors&#45;&gt;proc~json_failed</title>
<path fill="none" stroke="black" d="M291.538,-482.24C300.169,-479.039 308.89,-474.739 316,-469 345.022,-445.577 365.011,-406.236 375.471,-381.498"/>
<polygon fill="black" stroke="black" points="378.733,-382.766 379.25,-372.184 372.247,-380.134 378.733,-382.766"/>
</g>
<!-- proc~test_9 -->
<g id="node8" class="node"><title>proc~test_9</title>
<a xlink:href="../proc/test_9.html" xlink:title="test_9">
<polygon fill="#d9534f" stroke="#d9534f" points="281,-460 227,-460 227,-434 281,-434 281,-460"/>
<text text-anchor="middle" x="254" y="-444.55" font-family="Helvetica,sans-Serif" font-size="10.50" fill="white">test_9</text>
</a>
</g>
<!-- proc~test_9&#45;&gt;proc~json_failed -->
<g id="edge46" class="edge"><title>proc~test_9&#45;&gt;proc~json_failed</title>
<path fill="none" stroke="black" d="M281.082,-440.162C292.379,-436.622 305.327,-431.628 316,-425 335.511,-412.883 353.964,-394.355 366.711,-380.011"/>
<polygon fill="black" stroke="black" points="369.631,-381.984 373.521,-372.129 364.335,-377.407 369.631,-381.984"/>
</g>
<!-- proc~test_10 -->
<g id="node9" class="node"><title>proc~test_10</title>
<a xlink:href="../proc/test_10.html" xlink:title="test_10">
<polygon fill="#d9534f" stroke="#d9534f" points="281,-416 227,-416 227,-390 281,-390 281,-416"/>
<text text-anchor="middle" x="254" y="-400.55" font-family="Helvetica,sans-Serif" font-size="10.50" fill="white">test_10</text>
</a>
</g>
<!-- proc~test_10&#45;&gt;proc~json_failed -->
<g id="edge48" class="edge"><title>proc~test_10&#45;&gt;proc~json_failed</title>
<path fill="none" stroke="black" d="M281.252,-393.776C298.912,-387.799 322.26,-379.897 342.236,-373.135"/>
<polygon fill="black" stroke="black" points="343.382,-376.443 351.732,-369.921 341.138,-369.812 343.382,-376.443"/>
</g>
<!-- proc~test_4 -->
<g id="node10" class="node"><title>proc~test_4</title>
<a xlink:href="../proc/test_4.html" xlink:title="test_4">
<polygon fill="#d9534f" stroke="#d9534f" points="281,-372 227,-372 227,-346 281,-346 281,-372"/>
<text text-anchor="middle" x="254" y="-356.55" font-family="Helvetica,sans-Serif" font-size="10.50" fill="white">test_4</text>
</a>
</g>
<!-- proc~test_4&#45;&gt;proc~json_failed -->
<g id="edge50" class="edge"><title>proc~test_4&#45;&gt;proc~json_failed</title>
<path fill="none" stroke="black" d="M281.252,-359C298.751,-359 321.836,-359 341.69,-359"/>
<polygon fill="black" stroke="black" points="341.732,-362.5 351.732,-359 341.732,-355.5 341.732,-362.5"/>
</g>
<!-- proc~test_14 -->
<g id="node11" class="node"><title>proc~test_14</title>
<a xlink:href="../proc/test_14.html" xlink:title="test_14">
<polygon fill="#d9534f" stroke="#d9534f" points="281,-328 227,-328 227,-302 281,-302 281,-328"/>
<text text-anchor="middle" x="254" y="-312.55" font-family="Helvetica,sans-Serif" font-size="10.50" fill="white">test_14</text>
</a>
</g>
<!-- proc~test_14&#45;&gt;proc~json_failed -->
<g id="edge52" class="edge"><title>proc~test_14&#45;&gt;proc~json_failed</title>
<path fill="none" stroke="black" d="M281.252,-324.224C298.912,-330.201 322.26,-338.103 342.236,-344.865"/>
<polygon fill="black" stroke="black" points="341.138,-348.188 351.732,-348.079 343.382,-341.557 341.138,-348.188"/>
</g>
<!-- proc~test_8 -->
<g id="node12" class="node"><title>proc~test_8</title>
<a xlink:href="../proc/test_8.html" xlink:title="test_8">
<polygon fill="#d9534f" stroke="#d9534f" points="281,-284 227,-284 227,-258 281,-258 281,-284"/>
<text text-anchor="middle" x="254" y="-268.55" font-family="Helvetica,sans-Serif" font-size="10.50" fill="white">test_8</text>
</a>
</g>
<!-- proc~test_8&#45;&gt;proc~json_failed -->
<g id="edge54" class="edge"><title>proc~test_8&#45;&gt;proc~json_failed</title>
<path fill="none" stroke="black" d="M281.082,-277.838C292.379,-281.378 305.327,-286.372 316,-293 335.511,-305.117 353.964,-323.645 366.711,-337.989"/>
<polygon fill="black" stroke="black" points="364.335,-340.593 373.521,-345.871 369.631,-336.016 364.335,-340.593"/>
</g>
<!-- proc~test_11 -->
<g id="node13" class="node"><title>proc~test_11</title>
<a xlink:href="../proc/test_11.html" xlink:title="test_11">
<polygon fill="#d9534f" stroke="#d9534f" points="281,-240 227,-240 227,-214 281,-214 281,-240"/>
<text text-anchor="middle" x="254" y="-224.55" font-family="Helvetica,sans-Serif" font-size="10.50" fill="white">test_11</text>
</a>
</g>
<!-- proc~test_11&#45;&gt;proc~json_failed -->
<g id="edge56" class="edge"><title>proc~test_11&#45;&gt;proc~json_failed</title>
<path fill="none" stroke="black" d="M281.023,-232.337C292.7,-235.658 305.957,-240.894 316,-249 345.022,-272.423 365.011,-311.764 375.471,-336.502"/>
<polygon fill="black" stroke="black" points="372.247,-337.866 379.25,-345.816 378.733,-335.234 372.247,-337.866"/>
</g>
<!-- proc~test_1 -->
<g id="node14" class="node"><title>proc~test_1</title>
<a xlink:href="../proc/test_1.html" xlink:title="test_1">
<polygon fill="#d9534f" stroke="#d9534f" points="281,-196 227,-196 227,-170 281,-170 281,-196"/>
<text text-anchor="middle" x="254" y="-180.55" font-family="Helvetica,sans-Serif" font-size="10.50" fill="white">test_1</text>
</a>
</g>
<!-- proc~test_1&#45;&gt;proc~json_failed -->
<g id="edge58" class="edge"><title>proc~test_1&#45;&gt;proc~json_failed</title>
<path fill="none" stroke="black" d="M281.255,-187.623C293.116,-190.813 306.455,-196.144 316,-205 354.498,-240.72 372.454,-302.167 379.738,-335.627"/>
<polygon fill="black" stroke="black" points="376.389,-336.723 381.813,-345.824 383.248,-335.327 376.389,-336.723"/>
</g>
<!-- proc~test_7 -->
<g id="node15" class="node"><title>proc~test_7</title>
<a xlink:href="../proc/test_7.html" xlink:title="test_7">
<polygon fill="#d9534f" stroke="#d9534f" points="281,-152 227,-152 227,-126 281,-126 281,-152"/>
<text text-anchor="middle" x="254" y="-136.55" font-family="Helvetica,sans-Serif" font-size="10.50" fill="white">test_7</text>
</a>
</g>
<!-- proc~test_7&#45;&gt;proc~json_failed -->
<g id="edge60" class="edge"><title>proc~test_7&#45;&gt;proc~json_failed</title>
<path fill="none" stroke="black" d="M281.297,-143.175C293.31,-146.278 306.76,-151.665 316,-161 364.483,-209.979 378.451,-295.027 382.434,-335.843"/>
<polygon fill="black" stroke="black" points="378.954,-336.228 383.297,-345.892 385.929,-335.629 378.954,-336.228"/>
</g>
<!-- program~example1 -->
<g id="node16" class="node"><title>program~example1</title>
<a xlink:href="../program/example1.html" xlink:title="example1">
<polygon fill="#f0ad4e" stroke="#f0ad4e" points="283,-108 225,-108 225,-82 283,-82 283,-108"/>
<text text-anchor="middle" x="254" y="-92.55" font-family="Helvetica,sans-Serif" font-size="10.50" fill="white">example1</text>
</a>
</g>
<!-- program~example1&#45;&gt;proc~json_failed -->
<g id="edge62" class="edge"><title>program~example1&#45;&gt;proc~json_failed</title>
<path fill="none" stroke="black" d="M283.759,-99.5232C295.224,-102.667 307.575,-107.99 316,-117 346.187,-149.282 371.174,-281.971 380.292,-335.975"/>
<polygon fill="black" stroke="black" points="376.859,-336.665 381.947,-345.958 383.764,-335.52 376.859,-336.665"/>
</g>
<!-- proc~test_2 -->
<g id="node17" class="node"><title>proc~test_2</title>
<a xlink:href="../proc/test_2.html" xlink:title="test_2">
<polygon fill="#d9534f" stroke="#d9534f" points="153,-47 99,-47 99,-21 153,-21 153,-47"/>
<text text-anchor="middle" x="126" y="-31.55" font-family="Helvetica,sans-Serif" font-size="10.50" fill="white">test_2</text>
</a>
</g>
<!-- proc~test_2&#45;&gt;proc~json_failed -->
<g id="edge64" class="edge"><title>proc~test_2&#45;&gt;proc~json_failed</title>
<path fill="none" stroke="black" d="M153.164,-36.0319C199.989,-40.0919 293.092,-50.7912 316,-73 353.946,-109.788 375.001,-274.243 381.659,-335.716"/>
<polygon fill="black" stroke="black" points="378.208,-336.363 382.735,-345.942 385.169,-335.63 378.208,-336.363"/>
</g>
<!-- proc~add_variables_to_input -->
<g id="node18" class="node"><title>proc~add_variables_to_input</title>
<a xlink:href="../proc/add_variables_to_input.html" xlink:title="add_variables_to_input">
<polygon fill="#d9534f" stroke="#d9534f" points="316,-26 192,-26 192,-1.24345e-14 316,-3.55271e-15 316,-26"/>
<text text-anchor="middle" x="254" y="-10.55" font-family="Helvetica,sans-Serif" font-size="10.50" fill="white">add_variables_to_input</text>
</a>
</g>
<!-- proc~test_2&#45;&gt;proc~add_variables_to_input -->
<g id="edge32" class="edge"><title>proc~test_2&#45;&gt;proc~add_variables_to_input</title>
<path fill="none" stroke="black" d="M153.146,-29.5464C161.765,-28.1322 171.738,-26.4961 181.99,-24.8142"/>
<polygon fill="black" stroke="black" points="182.568,-28.2663 191.869,-23.1934 181.434,-21.3586 182.568,-28.2663"/>
</g>
<!-- proc~add_variables_to_input&#45;&gt;proc~json_failed -->
<g id="edge66" class="edge"><title>proc~add_variables_to_input&#45;&gt;proc~json_failed</title>
<path fill="none" stroke="black" d="M298.604,-26.1329C305.189,-29.7286 311.32,-34.2723 316,-40 353.51,-85.9087 375.151,-270.126 381.788,-335.689"/>
<polygon fill="black" stroke="black" points="378.324,-336.219 382.79,-345.827 385.29,-335.531 378.324,-336.219"/>
</g>
<!-- program~jf_test_3 -->
<g id="node19" class="node"><title>program~jf_test_3</title>
<a xlink:href="../program/jf_test_3.html" xlink:title="jf_test_3">
<polygon fill="#f0ad4e" stroke="#f0ad4e" points="153,-724 99,-724 99,-698 153,-698 153,-724"/>
<text text-anchor="middle" x="126" y="-708.55" font-family="Helvetica,sans-Serif" font-size="10.50" fill="white">jf_test_3</text>
</a>
</g>
<!-- program~jf_test_3&#45;&gt;proc~test_3 -->
<g id="edge2" class="edge"><title>program~jf_test_3&#45;&gt;proc~test_3</title>
<path fill="none" stroke="black" d="M153.146,-711C171.643,-711 196.372,-711 216.713,-711"/>
<polygon fill="black" stroke="black" points="216.894,-714.5 226.894,-711 216.894,-707.5 216.894,-714.5"/>
</g>
<!-- program~jf_test_6 -->
<g id="node21" class="node"><title>program~jf_test_6</title>
<a xlink:href="../program/jf_test_6.html" xlink:title="jf_test_6">
<polygon fill="#f0ad4e" stroke="#f0ad4e" points="153,-680 99,-680 99,-654 153,-654 153,-680"/>
<text text-anchor="middle" x="126" y="-664.55" font-family="Helvetica,sans-Serif" font-size="10.50" fill="white">jf_test_6</text>
</a>
</g>
<!-- program~jf_test_6&#45;&gt;proc~test_6 -->
<g id="edge4" class="edge"><title>program~jf_test_6&#45;&gt;proc~test_6</title>
<path fill="none" stroke="black" d="M153.146,-667C171.643,-667 196.372,-667 216.713,-667"/>
<polygon fill="black" stroke="black" points="216.894,-670.5 226.894,-667 216.894,-663.5 216.894,-670.5"/>
</g>
<!-- program~jf_test_13 -->
<g id="node23" class="node"><title>program~jf_test_13</title>
<a xlink:href="../program/jf_test_13.html" xlink:title="jf_test_13">
<polygon fill="#f0ad4e" stroke="#f0ad4e" points="155,-592 97,-592 97,-566 155,-566 155,-592"/>
<text text-anchor="middle" x="126" y="-576.55" font-family="Helvetica,sans-Serif" font-size="10.50" fill="white">jf_test_13</text>
</a>
</g>
<!-- program~jf_test_13&#45;&gt;proc~test_13 -->
<g id="edge6" class="edge"><title>program~jf_test_13&#45;&gt;proc~test_13</title>
<path fill="none" stroke="black" d="M155.688,-579C173.842,-579 197.226,-579 216.634,-579"/>
<polygon fill="black" stroke="black" points="216.659,-582.5 226.659,-579 216.659,-575.5 216.659,-582.5"/>
</g>
<!-- program~jf_test_5 -->
<g id="node25" class="node"><title>program~jf_test_5</title>
<a xlink:href="../program/jf_test_5.html" xlink:title="jf_test_5">
<polygon fill="#f0ad4e" stroke="#f0ad4e" points="153,-548 99,-548 99,-522 153,-522 153,-548"/>
<text text-anchor="middle" x="126" y="-532.55" font-family="Helvetica,sans-Serif" font-size="10.50" fill="white">jf_test_5</text>
</a>
</g>
<!-- program~jf_test_5&#45;&gt;proc~test_5 -->
<g id="edge8" class="edge"><title>program~jf_test_5&#45;&gt;proc~test_5</title>
<path fill="none" stroke="black" d="M153.146,-535C171.643,-535 196.372,-535 216.713,-535"/>
<polygon fill="black" stroke="black" points="216.894,-538.5 226.894,-535 216.894,-531.5 216.894,-538.5"/>
</g>
<!-- proc~test_12 -->
<g id="node27" class="node"><title>proc~test_12</title>
<a xlink:href="../proc/test_12.html" xlink:title="test_12">
<polygon fill="#d9534f" stroke="#d9534f" points="153,-504 99,-504 99,-478 153,-478 153,-504"/>
<text text-anchor="middle" x="126" y="-488.55" font-family="Helvetica,sans-Serif" font-size="10.50" fill="white">test_12</text>
</a>
</g>
<!-- proc~test_12&#45;&gt;none~check_errors -->
<g id="edge12" class="edge"><title>proc~test_12&#45;&gt;none~check_errors</title>
<path fill="none" stroke="black" d="M153.146,-491C168.554,-491 188.285,-491 206.202,-491"/>
<polygon fill="black" stroke="black" points="206.213,-494.5 216.213,-491 206.212,-487.5 206.213,-494.5"/>
</g>
<!-- program~jf_test_12 -->
<g id="node28" class="node"><title>program~jf_test_12</title>
<a xlink:href="../program/jf_test_12.html" xlink:title="jf_test_12">
<polygon fill="#f0ad4e" stroke="#f0ad4e" points="59,-504 1,-504 1,-478 59,-478 59,-504"/>
<text text-anchor="middle" x="30" y="-488.55" font-family="Helvetica,sans-Serif" font-size="10.50" fill="white">jf_test_12</text>
</a>
</g>
<!-- program~jf_test_12&#45;&gt;proc~test_12 -->
<g id="edge10" class="edge"><title>program~jf_test_12&#45;&gt;proc~test_12</title>
<path fill="none" stroke="black" d="M59.5865,-491C68.811,-491 79.1048,-491 88.7821,-491"/>
<polygon fill="black" stroke="black" points="88.9612,-494.5 98.9612,-491 88.9612,-487.5 88.9612,-494.5"/>
</g>
<!-- program~jf_test_9 -->
<g id="node31" class="node"><title>program~jf_test_9</title>
<a xlink:href="../program/jf_test_9.html" xlink:title="jf_test_9">
<polygon fill="#f0ad4e" stroke="#f0ad4e" points="153,-460 99,-460 99,-434 153,-434 153,-460"/>
<text text-anchor="middle" x="126" y="-444.55" font-family="Helvetica,sans-Serif" font-size="10.50" fill="white">jf_test_9</text>
</a>
</g>
<!-- program~jf_test_9&#45;&gt;proc~test_9 -->
<g id="edge14" class="edge"><title>program~jf_test_9&#45;&gt;proc~test_9</title>
<path fill="none" stroke="black" d="M153.146,-447C171.643,-447 196.372,-447 216.713,-447"/>
<polygon fill="black" stroke="black" points="216.894,-450.5 226.894,-447 216.894,-443.5 216.894,-450.5"/>
</g>
<!-- program~jf_test_10 -->
<g id="node33" class="node"><title>program~jf_test_10</title>
<a xlink:href="../program/jf_test_10.html" xlink:title="jf_test_10">
<polygon fill="#f0ad4e" stroke="#f0ad4e" points="155,-416 97,-416 97,-390 155,-390 155,-416"/>
<text text-anchor="middle" x="126" y="-400.55" font-family="Helvetica,sans-Serif" font-size="10.50" fill="white">jf_test_10</text>
</a>
</g>
<!-- program~jf_test_10&#45;&gt;proc~test_10 -->
<g id="edge16" class="edge"><title>program~jf_test_10&#45;&gt;proc~test_10</title>
<path fill="none" stroke="black" d="M155.688,-403C173.842,-403 197.226,-403 216.634,-403"/>
<polygon fill="black" stroke="black" points="216.659,-406.5 226.659,-403 216.659,-399.5 216.659,-406.5"/>
</g>
<!-- program~jf_test_4 -->
<g id="node35" class="node"><title>program~jf_test_4</title>
<a xlink:href="../program/jf_test_4.html" xlink:title="jf_test_4">
<polygon fill="#f0ad4e" stroke="#f0ad4e" points="153,-372 99,-372 99,-346 153,-346 153,-372"/>
<text text-anchor="middle" x="126" y="-356.55" font-family="Helvetica,sans-Serif" font-size="10.50" fill="white">jf_test_4</text>
</a>
</g>
<!-- program~jf_test_4&#45;&gt;proc~test_4 -->
<g id="edge18" class="edge"><title>program~jf_test_4&#45;&gt;proc~test_4</title>
<path fill="none" stroke="black" d="M153.146,-359C171.643,-359 196.372,-359 216.713,-359"/>
<polygon fill="black" stroke="black" points="216.894,-362.5 226.894,-359 216.894,-355.5 216.894,-362.5"/>
</g>
<!-- program~jf_test_14 -->
<g id="node37" class="node"><title>program~jf_test_14</title>
<a xlink:href="../program/jf_test_14.html" xlink:title="jf_test_14">
<polygon fill="#f0ad4e" stroke="#f0ad4e" points="155,-328 97,-328 97,-302 155,-302 155,-328"/>
<text text-anchor="middle" x="126" y="-312.55" font-family="Helvetica,sans-Serif" font-size="10.50" fill="white">jf_test_14</text>
</a>
</g>
<!-- program~jf_test_14&#45;&gt;proc~test_14 -->
<g id="edge20" class="edge"><title>program~jf_test_14&#45;&gt;proc~test_14</title>
<path fill="none" stroke="black" d="M155.688,-315C173.842,-315 197.226,-315 216.634,-315"/>
<polygon fill="black" stroke="black" points="216.659,-318.5 226.659,-315 216.659,-311.5 216.659,-318.5"/>
</g>
<!-- program~jf_test_8 -->
<g id="node39" class="node"><title>program~jf_test_8</title>
<a xlink:href="../program/jf_test_8.html" xlink:title="jf_test_8">
<polygon fill="#f0ad4e" stroke="#f0ad4e" points="153,-284 99,-284 99,-258 153,-258 153,-284"/>
<text text-anchor="middle" x="126" y="-268.55" font-family="Helvetica,sans-Serif" font-size="10.50" fill="white">jf_test_8</text>
</a>
</g>
<!-- program~jf_test_8&#45;&gt;proc~test_8 -->
<g id="edge22" class="edge"><title>program~jf_test_8&#45;&gt;proc~test_8</title>
<path fill="none" stroke="black" d="M153.146,-271C171.643,-271 196.372,-271 216.713,-271"/>
<polygon fill="black" stroke="black" points="216.894,-274.5 226.894,-271 216.894,-267.5 216.894,-274.5"/>
</g>
<!-- program~jf_test_11 -->
<g id="node41" class="node"><title>program~jf_test_11</title>
<a xlink:href="../program/jf_test_11.html" xlink:title="jf_test_11">
<polygon fill="#f0ad4e" stroke="#f0ad4e" points="155,-240 97,-240 97,-214 155,-214 155,-240"/>
<text text-anchor="middle" x="126" y="-224.55" font-family="Helvetica,sans-Serif" font-size="10.50" fill="white">jf_test_11</text>
</a>
</g>
<!-- program~jf_test_11&#45;&gt;proc~test_11 -->
<g id="edge24" class="edge"><title>program~jf_test_11&#45;&gt;proc~test_11</title>
<path fill="none" stroke="black" d="M155.688,-227C173.842,-227 197.226,-227 216.634,-227"/>
<polygon fill="black" stroke="black" points="216.659,-230.5 226.659,-227 216.659,-223.5 216.659,-230.5"/>
</g>
<!-- program~jf_test_1 -->
<g id="node43" class="node"><title>program~jf_test_1</title>
<a xlink:href="../program/jf_test_1.html" xlink:title="jf_test_1">
<polygon fill="#f0ad4e" stroke="#f0ad4e" points="153,-196 99,-196 99,-170 153,-170 153,-196"/>
<text text-anchor="middle" x="126" y="-180.55" font-family="Helvetica,sans-Serif" font-size="10.50" fill="white">jf_test_1</text>
</a>
</g>
<!-- program~jf_test_1&#45;&gt;proc~test_1 -->
<g id="edge26" class="edge"><title>program~jf_test_1&#45;&gt;proc~test_1</title>
<path fill="none" stroke="black" d="M153.146,-183C171.643,-183 196.372,-183 216.713,-183"/>
<polygon fill="black" stroke="black" points="216.894,-186.5 226.894,-183 216.894,-179.5 216.894,-186.5"/>
</g>
<!-- program~jf_test_7 -->
<g id="node45" class="node"><title>program~jf_test_7</title>
<a xlink:href="../program/jf_test_7.html" xlink:title="jf_test_7">
<polygon fill="#f0ad4e" stroke="#f0ad4e" points="153,-152 99,-152 99,-126 153,-126 153,-152"/>
<text text-anchor="middle" x="126" y="-136.55" font-family="Helvetica,sans-Serif" font-size="10.50" fill="white">jf_test_7</text>
</a>
</g>
<!-- program~jf_test_7&#45;&gt;proc~test_7 -->
<g id="edge28" class="edge"><title>program~jf_test_7&#45;&gt;proc~test_7</title>
<path fill="none" stroke="black" d="M153.146,-139C171.643,-139 196.372,-139 216.713,-139"/>
<polygon fill="black" stroke="black" points="216.894,-142.5 226.894,-139 216.894,-135.5 216.894,-142.5"/>
</g>
<!-- program~jf_test_2 -->
<g id="node47" class="node"><title>program~jf_test_2</title>
<a xlink:href="../program/jf_test_2.html" xlink:title="jf_test_2">
<polygon fill="#f0ad4e" stroke="#f0ad4e" points="57,-47 3,-47 3,-21 57,-21 57,-47"/>
<text text-anchor="middle" x="30" y="-31.55" font-family="Helvetica,sans-Serif" font-size="10.50" fill="white">jf_test_2</text>
</a>
</g>
<!-- program~jf_test_2&#45;&gt;proc~test_2 -->
<g id="edge30" class="edge"><title>program~jf_test_2&#45;&gt;proc~test_2</title>
<path fill="none" stroke="black" d="M57.253,-34C66.9815,-34 78.118,-34 88.5542,-34"/>
<polygon fill="black" stroke="black" points="88.6789,-37.5001 98.6789,-34 88.6789,-30.5001 88.6789,-37.5001"/>
</g>
</g>
</svg>
