<?xml version="1.0" encoding="UTF-8" standalone="no"?>
<!DOCTYPE svg PUBLIC "-//W3C//DTD SVG 1.1//EN"
 "http://www.w3.org/Graphics/SVG/1.1/DTD/svg11.dtd">
<!-- Generated by graphviz version 2.26.3 (20100126.1600)
 -->
<!-- Title: proc~~json_get_array~~CallsGraph Pages: 1 -->
<svg width="641pt" height="98pt"
 viewBox="0.00 0.00 641.00 98.01" xmlns="http://www.w3.org/2000/svg" xmlns:xlink="http://www.w3.org/1999/xlink">
<g id="graph1" class="graph" transform="scale(0.980122 0.980122) rotate(0) translate(4 96)">
<title>proc~~json_get_array~~CallsGraph</title>
<polygon fill="white" stroke="white" points="-4,5 -4,-96 651,-96 651,5 -4,5"/>
<!-- proc~json_get_array -->
<g id="node1" class="node"><title>proc~json_get_array</title>
<polygon fill="none" stroke="black" points="84,-50 4.26326e-14,-50 0,-24 84,-24 84,-50"/>
<text text-anchor="middle" x="42" y="-34.55" font-family="Helvetica,sans-Serif" font-size="10.50">json_get_array</text>
</g>
<!-- interface~throw_exception -->
<g id="node2" class="node"><title>interface~throw_exception</title>
<a xlink:href="../interface/throw_exception.html" xlink:title="throw_exception">
<polygon fill="#a7506f" stroke="#a7506f" points="211,-72 121,-72 121,-46 211,-46 211,-72"/>
<text text-anchor="middle" x="166" y="-56.55" font-family="Helvetica,sans-Serif" font-size="10.50" fill="white">throw_exception</text>
</a>
</g>
<!-- proc~json_get_array&#45;&gt;interface~throw_exception -->
<g id="edge14" class="edge"><title>proc~json_get_array&#45;&gt;interface~throw_exception</title>
<path fill="none" stroke="black" d="M84.3269,-44.5096C92.7889,-46.0109 101.796,-47.609 110.623,-49.175"/>
<polygon fill="black" stroke="black" points="110.014,-52.6216 120.472,-50.9225 111.237,-45.7293 110.014,-52.6216"/>
</g>
<!-- proc~json_count -->
<g id="node3" class="node"><title>proc~json_count</title>
<a xlink:href="../proc/json_count.html" xlink:title="json_count">
<polygon fill="#d94e8f" stroke="#d94e8f" points="198,-28 134,-28 134,-2 198,-2 198,-28"/>
<text text-anchor="middle" x="166" y="-12.55" font-family="Helvetica,sans-Serif" font-size="10.50" fill="white">json_count</text>
</a>
</g>
<!-- proc~json_get_array&#45;&gt;proc~json_count -->
<g id="edge16" class="edge"><title>proc~json_get_array&#45;&gt;proc~json_count</title>
<path fill="none" stroke="black" d="M84.3269,-29.4904C97.0599,-27.2313 111.028,-24.7531 123.755,-22.495"/>
<polygon fill="black" stroke="black" points="124.415,-25.9328 133.649,-20.7396 123.192,-19.0404 124.415,-25.9328"/>
</g>
<!-- proc~json_throw_exception -->
<g id="node4" class="node"><title>proc~json_throw_exception</title>
<a xlink:href="../proc/json_throw_exception.html" xlink:title="json_throw_exception">
<polygon fill="#d9534f" stroke="#d9534f" points="546,-92 430,-92 430,-66 546,-66 546,-92"/>
<text text-anchor="middle" x="488" y="-76.55" font-family="Helvetica,sans-Serif" font-size="10.50" fill="white">json_throw_exception</text>
</a>
</g>
<!-- interface~throw_exception&#45;&gt;proc~json_throw_exception -->
<g id="edge10" class="edge"><title>interface~throw_exception&#45;&gt;proc~json_throw_exception</title>
<path fill="none" stroke="black" stroke-dasharray="5,2" d="M211.793,-61.8443C266.069,-65.2155 357.029,-70.8652 419.647,-74.7544"/>
<polygon fill="black" stroke="black" points="419.632,-78.2602 429.83,-75.3869 420.066,-71.2736 419.632,-78.2602"/>
</g>
<!-- proc~wrap_json_throw_exception -->
<g id="node5" class="node"><title>proc~wrap_json_throw_exception</title>
<a xlink:href="../proc/wrap_json_throw_exception.html" xlink:title="wrap_json_throw_exception">
<polygon fill="#d9534f" stroke="#d9534f" points="393,-51 249,-51 249,-25 393,-25 393,-51"/>
<text text-anchor="middle" x="321" y="-35.55" font-family="Helvetica,sans-Serif" font-size="10.50" fill="white">wrap_json_throw_exception</text>
</a>
</g>
<!-- interface~throw_exception&#45;&gt;proc~wrap_json_throw_exception -->
<g id="edge12" class="edge"><title>interface~throw_exception&#45;&gt;proc~wrap_json_throw_exception</title>
<path fill="none" stroke="black" stroke-dasharray="5,2" d="M211.667,-52.8129C220.126,-51.6667 229.199,-50.4376 238.367,-49.1954"/>
<polygon fill="black" stroke="black" points="238.89,-52.6567 248.329,-47.8457 237.95,-45.7201 238.89,-52.6567"/>
</g>
<!-- proc~wrap_json_throw_exception&#45;&gt;proc~json_throw_exception -->
<g id="edge6" class="edge"><title>proc~wrap_json_throw_exception&#45;&gt;proc~json_throw_exception</title>
<path fill="none" stroke="black" d="M374.299,-51.0854C390.346,-55.0251 408.113,-59.3871 424.741,-63.4693"/>
<polygon fill="black" stroke="black" points="424.375,-66.9833 434.921,-65.9686 426.044,-60.1852 424.375,-66.9833"/>
</g>
<!-- interface~to_unicode -->
<g id="node6" class="node"><title>interface~to_unicode</title>
<a xlink:href="../interface/to_unicode.html" xlink:title="to_unicode">
<polygon fill="#a7506f" stroke="#a7506f" points="520,-48 456,-48 456,-22 520,-22 520,-48"/>
<text text-anchor="middle" x="488" y="-32.55" font-family="Helvetica,sans-Serif" font-size="10.50" fill="white">to_unicode</text>
</a>
</g>
<!-- proc~wrap_json_throw_exception&#45;&gt;interface~to_unicode -->
<g id="edge8" class="edge"><title>proc~wrap_json_throw_exception&#45;&gt;interface~to_unicode</title>
<path fill="none" stroke="black" d="M393.763,-36.6929C411.188,-36.3799 429.248,-36.0554 444.839,-35.7754"/>
<polygon fill="black" stroke="black" points="445.264,-39.2684 455.199,-35.5892 445.138,-32.2695 445.264,-39.2684"/>
</g>
<!-- proc~to_uni_vec -->
<g id="node7" class="node"><title>proc~to_uni_vec</title>
<a xlink:href="../proc/to_uni_vec.html" xlink:title="to_uni_vec">
<polygon fill="#d94e8f" stroke="#d94e8f" points="646,-70 582,-70 582,-44 646,-44 646,-70"/>
<text text-anchor="middle" x="614" y="-54.55" font-family="Helvetica,sans-Serif" font-size="10.50" fill="white">to_uni_vec</text>
</a>
</g>
<!-- interface~to_unicode&#45;&gt;proc~to_uni_vec -->
<g id="edge2" class="edge"><title>interface~to_unicode&#45;&gt;proc~to_uni_vec</title>
<path fill="none" stroke="black" stroke-dasharray="5,2" d="M520.776,-40.7228C536.355,-43.443 555.166,-46.7274 571.798,-49.6314"/>
<polygon fill="black" stroke="black" points="571.371,-53.1097 581.824,-51.382 572.575,-46.214 571.371,-53.1097"/>
</g>
<!-- proc~to_uni -->
<g id="node8" class="node"><title>proc~to_uni</title>
<a xlink:href="../proc/to_uni.html" xlink:title="to_uni">
<polygon fill="#d94e8f" stroke="#d94e8f" points="641,-26 587,-26 587,-1.24345e-14 641,-3.55271e-15 641,-26"/>
<text text-anchor="middle" x="614" y="-10.55" font-family="Helvetica,sans-Serif" font-size="10.50" fill="white">to_uni</text>
</a>
</g>
<!-- interface~to_unicode&#45;&gt;proc~to_uni -->
<g id="edge4" class="edge"><title>interface~to_unicode&#45;&gt;proc~to_uni</title>
<path fill="none" stroke="black" stroke-dasharray="5,2" d="M520.776,-29.2772C537.965,-26.276 559.088,-22.5878 576.878,-19.4816"/>
<polygon fill="black" stroke="black" points="577.664,-22.8974 586.913,-17.7295 576.46,-16.0017 577.664,-22.8974"/>
</g>
</g>
</svg>
