<?xml version="1.0" encoding="UTF-8" standalone="no"?>
<!DOCTYPE svg PUBLIC "-//W3C//DTD SVG 1.1//EN"
 "http://www.w3.org/Graphics/SVG/1.1/DTD/svg11.dtd">
<!-- Generated by graphviz version 2.26.3 (20100126.1600)
 -->
<!-- Title: proc~~json_traverse~~CalledByGraph Pages: 1 -->
<svg width="272pt" height="52pt"
 viewBox="0.00 0.00 272.00 52.00" xmlns="http://www.w3.org/2000/svg" xmlns:xlink="http://www.w3.org/1999/xlink">
<g id="graph1" class="graph" transform="scale(1 1) rotate(0) translate(4 48)">
<title>proc~~json_traverse~~CalledByGraph</title>
<polygon fill="white" stroke="white" points="-4,5 -4,-48 269,-48 269,5 -4,5"/>
<!-- proc~json_traverse -->
<g id="node1" class="node"><title>proc~json_traverse</title>
<polygon fill="none" stroke="black" points="263,-26 187,-26 187,-1.24345e-14 263,-3.55271e-15 263,-26"/>
<text text-anchor="middle" x="225" y="-10.55" font-family="Helvetica,sans-Serif" font-size="10.50">json_traverse</text>
</g>
<!-- proc~json_traverse&#45;&gt;proc~json_traverse -->
<g id="edge4" class="edge"><title>proc~json_traverse&#45;&gt;proc~json_traverse</title>
<path fill="none" stroke="black" d="M207.743,-26.0602C202.513,-35.0996 208.266,-44 225,-44 235.198,-44 241.317,-40.6949 243.359,-36.0674"/>
<polygon fill="black" stroke="black" points="246.83,-35.6173 242.257,-26.0602 239.872,-36.383 246.83,-35.6173"/>
</g>
<!-- proc~test_14 -->
<g id="node2" class="node"><title>proc~test_14</title>
<a xlink:href="../proc/test_14.html" xlink:title="test_14">
<polygon fill="#d9534f" stroke="#d9534f" points="150,-26 96,-26 96,-1.24345e-14 150,-3.55271e-15 150,-26"/>
<text text-anchor="middle" x="123" y="-10.55" font-family="Helvetica,sans-Serif" font-size="10.50" fill="white">test_14</text>
</a>
</g>
<!-- proc~test_14&#45;&gt;proc~json_traverse -->
<g id="edge6" class="edge"><title>proc~test_14&#45;&gt;proc~json_traverse</title>
<path fill="none" stroke="black" d="M150.066,-13C158.128,-13 167.222,-13 176.223,-13"/>
<polygon fill="black" stroke="black" points="176.286,-16.5001 186.286,-13 176.286,-9.5001 176.286,-16.5001"/>
</g>
<!-- program~jf_test_14 -->
<g id="node3" class="node"><title>program~jf_test_14</title>
<a xlink:href="../program/jf_test_14.html" xlink:title="jf_test_14">
<polygon fill="#f0ad4e" stroke="#f0ad4e" points="59,-26 1,-26 1,-1.24345e-14 59,-3.55271e-15 59,-26"/>
<text text-anchor="middle" x="30" y="-10.55" font-family="Helvetica,sans-Serif" font-size="10.50" fill="white">jf_test_14</text>
</a>
</g>
<!-- program~jf_test_14&#45;&gt;proc~test_14 -->
<g id="edge2" class="edge"><title>program~jf_test_14&#45;&gt;proc~test_14</title>
<path fill="none" stroke="black" d="M59.6815,-13C67.9202,-13 76.973,-13 85.5921,-13"/>
<polygon fill="black" stroke="black" points="85.8066,-16.5001 95.8065,-13 85.8065,-9.5001 85.8066,-16.5001"/>
</g>
</g>
</svg>
