<?xml version="1.0" encoding="UTF-8" standalone="no"?>
<!DOCTYPE svg PUBLIC "-//W3C//DTD SVG 1.1//EN"
 "http://www.w3.org/Graphics/SVG/1.1/DTD/svg11.dtd">
<!-- Generated by graphviz version 2.26.3 (20100126.1600)
 -->
<!-- Title: proc~~json_value_get_by_index~~CallsGraph Pages: 1 -->
<svg width="641pt" height="91pt"
 viewBox="0.00 0.00 641.00 91.05" xmlns="http://www.w3.org/2000/svg" xmlns:xlink="http://www.w3.org/1999/xlink">
<g id="graph1" class="graph" transform="scale(0.910511 0.910511) rotate(0) translate(4 96)">
<title>proc~~json_value_get_by_index~~CallsGraph</title>
<polygon fill="white" stroke="white" points="-4,5 -4,-96 701,-96 701,5 -4,5"/>
<!-- proc~json_value_get_by_index -->
<g id="node1" class="node"><title>proc~json_value_get_by_index</title>
<polygon fill="none" stroke="black" points="133,-71 1,-71 1,-45 133,-45 133,-71"/>
<text text-anchor="middle" x="67" y="-55.55" font-family="Helvetica,sans-Serif" font-size="10.50">json_value_get_by_index</text>
</g>
<!-- interface~throw_exception -->
<g id="node2" class="node"><title>interface~throw_exception</title>
<a xlink:href="../interface/throw_exception.html" xlink:title="throw_exception">
<polygon fill="#a7506f" stroke="#a7506f" points="261,-71 171,-71 171,-45 261,-45 261,-71"/>
<text text-anchor="middle" x="216" y="-55.55" font-family="Helvetica,sans-Serif" font-size="10.50" fill="white">throw_exception</text>
</a>
</g>
<!-- proc~json_value_get_by_index&#45;&gt;interface~throw_exception -->
<g id="edge14" class="edge"><title>proc~json_value_get_by_index&#45;&gt;interface~throw_exception</title>
<path fill="none" stroke="black" d="M133.656,-58C142.566,-58 151.628,-58 160.324,-58"/>
<polygon fill="black" stroke="black" points="160.333,-61.5001 170.333,-58 160.333,-54.5001 160.333,-61.5001"/>
</g>
<!-- proc~json_throw_exception -->
<g id="node3" class="node"><title>proc~json_throw_exception</title>
<a xlink:href="../proc/json_throw_exception.html" xlink:title="json_throw_exception">
<polygon fill="#d9534f" stroke="#d9534f" points="596,-92 480,-92 480,-66 596,-66 596,-92"/>
<text text-anchor="middle" x="538" y="-76.55" font-family="Helvetica,sans-Serif" font-size="10.50" fill="white">json_throw_exception</text>
</a>
</g>
<!-- interface~throw_exception&#45;&gt;proc~json_throw_exception -->
<g id="edge10" class="edge"><title>interface~throw_exception&#45;&gt;proc~json_throw_exception</title>
<path fill="none" stroke="black" stroke-dasharray="5,2" d="M261.793,-60.9865C316.069,-64.5262 407.029,-70.4584 469.647,-74.5422"/>
<polygon fill="black" stroke="black" points="469.623,-78.048 479.83,-75.2063 470.079,-71.0628 469.623,-78.048"/>
</g>
<!-- proc~wrap_json_throw_exception -->
<g id="node4" class="node"><title>proc~wrap_json_throw_exception</title>
<a xlink:href="../proc/wrap_json_throw_exception.html" xlink:title="wrap_json_throw_exception">
<polygon fill="#d9534f" stroke="#d9534f" points="443,-51 299,-51 299,-25 443,-25 443,-51"/>
<text text-anchor="middle" x="371" y="-35.55" font-family="Helvetica,sans-Serif" font-size="10.50" fill="white">wrap_json_throw_exception</text>
</a>
</g>
<!-- interface~throw_exception&#45;&gt;proc~wrap_json_throw_exception -->
<g id="edge12" class="edge"><title>interface~throw_exception&#45;&gt;proc~wrap_json_throw_exception</title>
<path fill="none" stroke="black" stroke-dasharray="5,2" d="M261.667,-52.1075C270.126,-51.0159 279.199,-49.8453 288.367,-48.6623"/>
<polygon fill="black" stroke="black" points="288.859,-52.1279 298.329,-47.3769 287.963,-45.1855 288.859,-52.1279"/>
</g>
<!-- proc~wrap_json_throw_exception&#45;&gt;proc~json_throw_exception -->
<g id="edge6" class="edge"><title>proc~wrap_json_throw_exception&#45;&gt;proc~json_throw_exception</title>
<path fill="none" stroke="black" d="M424.299,-51.0854C440.346,-55.0251 458.113,-59.3871 474.741,-63.4693"/>
<polygon fill="black" stroke="black" points="474.375,-66.9833 484.921,-65.9686 476.044,-60.1852 474.375,-66.9833"/>
</g>
<!-- interface~to_unicode -->
<g id="node5" class="node"><title>interface~to_unicode</title>
<a xlink:href="../interface/to_unicode.html" xlink:title="to_unicode">
<polygon fill="#a7506f" stroke="#a7506f" points="570,-48 506,-48 506,-22 570,-22 570,-48"/>
<text text-anchor="middle" x="538" y="-32.55" font-family="Helvetica,sans-Serif" font-size="10.50" fill="white">to_unicode</text>
</a>
</g>
<!-- proc~wrap_json_throw_exception&#45;&gt;interface~to_unicode -->
<g id="edge8" class="edge"><title>proc~wrap_json_throw_exception&#45;&gt;interface~to_unicode</title>
<path fill="none" stroke="black" d="M443.763,-36.6929C461.188,-36.3799 479.248,-36.0554 494.839,-35.7754"/>
<polygon fill="black" stroke="black" points="495.264,-39.2684 505.199,-35.5892 495.138,-32.2695 495.264,-39.2684"/>
</g>
<!-- proc~to_uni_vec -->
<g id="node6" class="node"><title>proc~to_uni_vec</title>
<a xlink:href="../proc/to_uni_vec.html" xlink:title="to_uni_vec">
<polygon fill="#d94e8f" stroke="#d94e8f" points="696,-70 632,-70 632,-44 696,-44 696,-70"/>
<text text-anchor="middle" x="664" y="-54.55" font-family="Helvetica,sans-Serif" font-size="10.50" fill="white">to_uni_vec</text>
</a>
</g>
<!-- interface~to_unicode&#45;&gt;proc~to_uni_vec -->
<g id="edge2" class="edge"><title>interface~to_unicode&#45;&gt;proc~to_uni_vec</title>
<path fill="none" stroke="black" stroke-dasharray="5,2" d="M570.776,-40.7228C586.355,-43.443 605.166,-46.7274 621.798,-49.6314"/>
<polygon fill="black" stroke="black" points="621.371,-53.1097 631.824,-51.382 622.575,-46.214 621.371,-53.1097"/>
</g>
<!-- proc~to_uni -->
<g id="node7" class="node"><title>proc~to_uni</title>
<a xlink:href="../proc/to_uni.html" xlink:title="to_uni">
<polygon fill="#d94e8f" stroke="#d94e8f" points="691,-26 637,-26 637,-1.24345e-14 691,-3.55271e-15 691,-26"/>
<text text-anchor="middle" x="664" y="-10.55" font-family="Helvetica,sans-Serif" font-size="10.50" fill="white">to_uni</text>
</a>
</g>
<!-- interface~to_unicode&#45;&gt;proc~to_uni -->
<g id="edge4" class="edge"><title>interface~to_unicode&#45;&gt;proc~to_uni</title>
<path fill="none" stroke="black" stroke-dasharray="5,2" d="M570.776,-29.2772C587.965,-26.276 609.088,-22.5878 626.878,-19.4816"/>
<polygon fill="black" stroke="black" points="627.664,-22.8974 636.913,-17.7295 626.46,-16.0017 627.664,-22.8974"/>
</g>
</g>
</svg>
