<?xml version="1.0" encoding="UTF-8" standalone="no"?>
<!DOCTYPE svg PUBLIC "-//W3C//DTD SVG 1.1//EN"
 "http://www.w3.org/Graphics/SVG/1.1/DTD/svg11.dtd">
<!-- Generated by graphviz version 2.26.3 (20100126.1600)
 -->
<!-- Title: proc~~json_value_create_array~~CalledByGraph Pages: 1 -->
<svg width="641pt" height="77pt"
 viewBox="0.00 0.00 641.00 76.92" xmlns="http://www.w3.org/2000/svg" xmlns:xlink="http://www.w3.org/1999/xlink">
<g id="graph1" class="graph" transform="scale(0.986154 0.986154) rotate(0) translate(4 74)">
<title>proc~~json_value_create_array~~CalledByGraph</title>
<polygon fill="white" stroke="white" points="-4,5 -4,-74 647,-74 647,5 -4,5"/>
<!-- proc~json_value_create_array -->
<g id="node1" class="node"><title>proc~json_value_create_array</title>
<polygon fill="none" stroke="black" points="642,-48 512,-48 512,-22 642,-22 642,-48"/>
<text text-anchor="middle" x="577" y="-32.55" font-family="Helvetica,sans-Serif" font-size="10.50">json_value_create_array</text>
</g>
<!-- proc~wrap_json_value_create_array -->
<g id="node2" class="node"><title>proc~wrap_json_value_create_array</title>
<a xlink:href="../proc/wrap_json_value_create_array.html" xlink:title="wrap_json_value_create_array">
<polygon fill="#d9534f" stroke="#d9534f" points="476,-28 316,-28 316,-2 476,-2 476,-28"/>
<text text-anchor="middle" x="396" y="-12.55" font-family="Helvetica,sans-Serif" font-size="10.50" fill="white">wrap_json_value_create_array</text>
</a>
</g>
<!-- proc~wrap_json_value_create_array&#45;&gt;proc~json_value_create_array -->
<g id="edge12" class="edge"><title>proc~wrap_json_value_create_array&#45;&gt;proc~json_value_create_array</title>
<path fill="none" stroke="black" d="M476.18,-23.8596C484.65,-24.7956 493.243,-25.745 501.655,-26.6746"/>
<polygon fill="black" stroke="black" points="501.484,-30.1769 511.808,-27.7964 502.253,-23.2192 501.484,-30.1769"/>
</g>
<!-- interface~json_create_array -->
<g id="node3" class="node"><title>interface~json_create_array</title>
<a xlink:href="../interface/json_create_array.html" xlink:title="json_create_array">
<polygon fill="#a7506f" stroke="#a7506f" points="279,-48 181,-48 181,-22 279,-22 279,-48"/>
<text text-anchor="middle" x="230" y="-32.55" font-family="Helvetica,sans-Serif" font-size="10.50" fill="white">json_create_array</text>
</a>
</g>
<!-- interface~json_create_array&#45;&gt;proc~json_value_create_array -->
<g id="edge14" class="edge"><title>interface~json_create_array&#45;&gt;proc~json_value_create_array</title>
<path fill="none" stroke="black" stroke-dasharray="5,2" d="M279.566,-36.3495C291.496,-36.6199 304.202,-36.8628 316,-37 387.106,-37.8267 404.892,-37.704 476,-37 484.319,-36.9176 493.023,-36.7971 501.684,-36.6554"/>
<polygon fill="black" stroke="black" points="501.868,-40.1529 511.805,-36.4804 501.746,-33.1539 501.868,-40.1529"/>
</g>
<!-- interface~json_create_array&#45;&gt;proc~wrap_json_value_create_array -->
<g id="edge10" class="edge"><title>interface~json_create_array&#45;&gt;proc~wrap_json_value_create_array</title>
<path fill="none" stroke="black" stroke-dasharray="5,2" d="M279.805,-28.9993C288.063,-28.0045 296.844,-26.9465 305.738,-25.8749"/>
<polygon fill="black" stroke="black" points="306.296,-29.3331 315.805,-24.662 305.459,-22.3834 306.296,-29.3331"/>
</g>
<!-- proc~test_7 -->
<g id="node4" class="node"><title>proc~test_7</title>
<a xlink:href="../proc/test_7.html" xlink:title="test_7">
<polygon fill="#d9534f" stroke="#d9534f" points="144,-70 90,-70 90,-44 144,-44 144,-70"/>
<text text-anchor="middle" x="117" y="-54.55" font-family="Helvetica,sans-Serif" font-size="10.50" fill="white">test_7</text>
</a>
</g>
<!-- proc~test_7&#45;&gt;interface~json_create_array -->
<g id="edge6" class="edge"><title>proc~test_7&#45;&gt;interface~json_create_array</title>
<path fill="none" stroke="black" d="M144.066,-51.7305C152.026,-50.1808 161.067,-48.4206 170.223,-46.638"/>
<polygon fill="black" stroke="black" points="171.011,-50.0504 180.158,-44.7038 169.673,-43.1794 171.011,-50.0504"/>
</g>
<!-- proc~test_2 -->
<g id="node5" class="node"><title>proc~test_2</title>
<a xlink:href="../proc/test_2.html" xlink:title="test_2">
<polygon fill="#d9534f" stroke="#d9534f" points="144,-26 90,-26 90,-1.24345e-14 144,-3.55271e-15 144,-26"/>
<text text-anchor="middle" x="117" y="-10.55" font-family="Helvetica,sans-Serif" font-size="10.50" fill="white">test_2</text>
</a>
</g>
<!-- proc~test_2&#45;&gt;interface~json_create_array -->
<g id="edge8" class="edge"><title>proc~test_2&#45;&gt;interface~json_create_array</title>
<path fill="none" stroke="black" d="M144.066,-18.2695C152.026,-19.8192 161.067,-21.5794 170.223,-23.362"/>
<polygon fill="black" stroke="black" points="169.673,-26.8206 180.158,-25.2962 171.011,-19.9496 169.673,-26.8206"/>
</g>
<!-- program~jf_test_7 -->
<g id="node6" class="node"><title>program~jf_test_7</title>
<a xlink:href="../program/jf_test_7.html" xlink:title="jf_test_7">
<polygon fill="#f0ad4e" stroke="#f0ad4e" points="54,-70 2.13163e-14,-70 0,-44 54,-44 54,-70"/>
<text text-anchor="middle" x="27" y="-54.55" font-family="Helvetica,sans-Serif" font-size="10.50" fill="white">jf_test_7</text>
</a>
</g>
<!-- program~jf_test_7&#45;&gt;proc~test_7 -->
<g id="edge2" class="edge"><title>program~jf_test_7&#45;&gt;proc~test_7</title>
<path fill="none" stroke="black" d="M54.003,-57C62.0277,-57 70.9665,-57 79.5309,-57"/>
<polygon fill="black" stroke="black" points="79.7051,-60.5001 89.705,-57 79.705,-53.5001 79.7051,-60.5001"/>
</g>
<!-- program~jf_test_2 -->
<g id="node8" class="node"><title>program~jf_test_2</title>
<a xlink:href="../program/jf_test_2.html" xlink:title="jf_test_2">
<polygon fill="#f0ad4e" stroke="#f0ad4e" points="54,-26 2.13163e-14,-26 0,-1.24345e-14 54,-3.55271e-15 54,-26"/>
<text text-anchor="middle" x="27" y="-10.55" font-family="Helvetica,sans-Serif" font-size="10.50" fill="white">jf_test_2</text>
</a>
</g>
<!-- program~jf_test_2&#45;&gt;proc~test_2 -->
<g id="edge4" class="edge"><title>program~jf_test_2&#45;&gt;proc~test_2</title>
<path fill="none" stroke="black" d="M54.003,-13C62.0277,-13 70.9665,-13 79.5309,-13"/>
<polygon fill="black" stroke="black" points="79.7051,-16.5001 89.705,-13 79.705,-9.5001 79.7051,-16.5001"/>
</g>
</g>
</svg>
