<?xml version="1.0" encoding="UTF-8" standalone="no"?>
<!DOCTYPE svg PUBLIC "-//W3C//DTD SVG 1.1//EN"
 "http://www.w3.org/Graphics/SVG/1.1/DTD/svg11.dtd">
<!-- Generated by graphviz version 2.26.3 (20100126.1600)
 -->
<!-- Title: proc~~json_value_create_integer~~CalledByGraph Pages: 1 -->
<svg width="641pt" height="51pt"
 viewBox="0.00 0.00 641.00 50.75" xmlns="http://www.w3.org/2000/svg" xmlns:xlink="http://www.w3.org/1999/xlink">
<g id="graph1" class="graph" transform="scale(0.939883 0.939883) rotate(0) translate(4 50)">
<title>proc~~json_value_create_integer~~CalledByGraph</title>
<polygon fill="white" stroke="white" points="-4,5 -4,-50 679,-50 679,5 -4,5"/>
<!-- proc~json_value_create_integer -->
<g id="node1" class="node"><title>proc~json_value_create_integer</title>
<polygon fill="none" stroke="black" points="673,-46 535,-46 535,-20 673,-20 673,-46"/>
<text text-anchor="middle" x="604" y="-30.55" font-family="Helvetica,sans-Serif" font-size="10.50">json_value_create_integer</text>
</g>
<!-- proc~wrap_json_value_create_integer -->
<g id="node2" class="node"><title>proc~wrap_json_value_create_integer</title>
<a xlink:href="../proc/wrap_json_value_create_integer.html" xlink:title="wrap_json_value_create_integer">
<polygon fill="#d9534f" stroke="#d9534f" points="498,-26 330,-26 330,-1.24345e-14 498,-3.55271e-15 498,-26"/>
<text text-anchor="middle" x="414" y="-10.55" font-family="Helvetica,sans-Serif" font-size="10.50" fill="white">wrap_json_value_create_integer</text>
</a>
</g>
<!-- proc~wrap_json_value_create_integer&#45;&gt;proc~json_value_create_integer -->
<g id="edge8" class="edge"><title>proc~wrap_json_value_create_integer&#45;&gt;proc~json_value_create_integer</title>
<path fill="none" stroke="black" d="M498.167,-21.8596C506.87,-22.7758 515.697,-23.705 524.35,-24.6158"/>
<polygon fill="black" stroke="black" points="524.097,-28.1084 534.409,-25.6746 524.83,-21.1469 524.097,-28.1084"/>
</g>
<!-- interface~json_create_integer -->
<g id="node3" class="node"><title>interface~json_create_integer</title>
<a xlink:href="../interface/json_create_integer.html" xlink:title="json_create_integer">
<polygon fill="#a7506f" stroke="#a7506f" points="293,-46 187,-46 187,-20 293,-20 293,-46"/>
<text text-anchor="middle" x="240" y="-30.55" font-family="Helvetica,sans-Serif" font-size="10.50" fill="white">json_create_integer</text>
</a>
</g>
<!-- interface~json_create_integer&#45;&gt;proc~json_value_create_integer -->
<g id="edge10" class="edge"><title>interface~json_create_integer&#45;&gt;proc~json_value_create_integer</title>
<path fill="none" stroke="black" stroke-dasharray="5,2" d="M293.774,-34.3903C305.701,-34.6442 318.279,-34.8698 330,-35 404.662,-35.8295 423.337,-35.7043 498,-35 506.558,-34.9193 515.505,-34.8019 524.416,-34.6638"/>
<polygon fill="black" stroke="black" points="524.499,-38.163 534.44,-34.5 524.384,-31.164 524.499,-38.163"/>
</g>
<!-- interface~json_create_integer&#45;&gt;proc~wrap_json_value_create_integer -->
<g id="edge6" class="edge"><title>interface~json_create_integer&#45;&gt;proc~wrap_json_value_create_integer</title>
<path fill="none" stroke="black" stroke-dasharray="5,2" d="M293.626,-26.8361C301.969,-25.8771 310.795,-24.8627 319.724,-23.8364"/>
<polygon fill="black" stroke="black" points="320.293,-27.294 329.828,-22.6749 319.494,-20.3398 320.293,-27.294"/>
</g>
<!-- proc~test_10 -->
<g id="node4" class="node"><title>proc~test_10</title>
<a xlink:href="../proc/test_10.html" xlink:title="test_10">
<polygon fill="#d9534f" stroke="#d9534f" points="150,-46 96,-46 96,-20 150,-20 150,-46"/>
<text text-anchor="middle" x="123" y="-30.55" font-family="Helvetica,sans-Serif" font-size="10.50" fill="white">test_10</text>
</a>
</g>
<!-- proc~test_10&#45;&gt;interface~json_create_integer -->
<g id="edge4" class="edge"><title>proc~test_10&#45;&gt;interface~json_create_integer</title>
<path fill="none" stroke="black" d="M150.136,-33C158.068,-33 167.092,-33 176.29,-33"/>
<polygon fill="black" stroke="black" points="176.294,-36.5001 186.294,-33 176.294,-29.5001 176.294,-36.5001"/>
</g>
<!-- program~jf_test_10 -->
<g id="node5" class="node"><title>program~jf_test_10</title>
<a xlink:href="../program/jf_test_10.html" xlink:title="jf_test_10">
<polygon fill="#f0ad4e" stroke="#f0ad4e" points="59,-46 1,-46 1,-20 59,-20 59,-46"/>
<text text-anchor="middle" x="30" y="-30.55" font-family="Helvetica,sans-Serif" font-size="10.50" fill="white">jf_test_10</text>
</a>
</g>
<!-- program~jf_test_10&#45;&gt;proc~test_10 -->
<g id="edge2" class="edge"><title>program~jf_test_10&#45;&gt;proc~test_10</title>
<path fill="none" stroke="black" d="M59.6815,-33C67.9202,-33 76.973,-33 85.5921,-33"/>
<polygon fill="black" stroke="black" points="85.8066,-36.5001 95.8065,-33 85.8065,-29.5001 85.8066,-36.5001"/>
</g>
</g>
</svg>
