<?xml version="1.0" encoding="UTF-8" standalone="no"?>
<!DOCTYPE svg PUBLIC "-//W3C//DTD SVG 1.1//EN"
 "http://www.w3.org/Graphics/SVG/1.1/DTD/svg11.dtd">
<!-- Generated by graphviz version 2.26.3 (20100126.1600)
 -->
<!-- Title: proc~~to_double~~CallsGraph Pages: 1 -->
<svg width="204pt" height="34pt"
 viewBox="0.00 0.00 204.00 34.00" xmlns="http://www.w3.org/2000/svg" xmlns:xlink="http://www.w3.org/1999/xlink">
<g id="graph1" class="graph" transform="scale(1 1) rotate(0) translate(4 30)">
<title>proc~~to_double~~CallsGraph</title>
<polygon fill="white" stroke="white" points="-4,5 -4,-30 201,-30 201,5 -4,5"/>
<!-- proc~to_double -->
<g id="node1" class="node"><title>proc~to_double</title>
<polygon fill="none" stroke="black" points="60,-26 2.4869e-14,-26 0,-1.24345e-14 60,-3.55271e-15 60,-26"/>
<text text-anchor="middle" x="30" y="-10.55" font-family="Helvetica,sans-Serif" font-size="10.50">to_double</text>
</g>
<!-- proc~destroy_json_data -->
<g id="node2" class="node"><title>proc~destroy_json_data</title>
<a xlink:href="../proc/destroy_json_data.html" xlink:title="destroy_json_data">
<polygon fill="#d9534f" stroke="#d9534f" points="196,-26 96,-26 96,-1.24345e-14 196,-3.55271e-15 196,-26"/>
<text text-anchor="middle" x="146" y="-10.55" font-family="Helvetica,sans-Serif" font-size="10.50" fill="white">destroy_json_data</text>
</a>
</g>
<!-- proc~to_double&#45;&gt;proc~destroy_json_data -->
<g id="edge2" class="edge"><title>proc~to_double&#45;&gt;proc~destroy_json_data</title>
<path fill="none" stroke="black" d="M60.1748,-13C68.0762,-13 76.8804,-13 85.7549,-13"/>
<polygon fill="black" stroke="black" points="85.7599,-16.5001 95.7598,-13 85.7598,-9.5001 85.7599,-16.5001"/>
</g>
</g>
</svg>
