<?xml version="1.0" encoding="UTF-8" standalone="no"?>
<!DOCTYPE svg PUBLIC "-//W3C//DTD SVG 1.1//EN"
 "http://www.w3.org/Graphics/SVG/1.1/DTD/svg11.dtd">
<!-- Generated by graphviz version 2.26.3 (20100126.1600)
 -->
<!-- Title: proc~~wrap_json_value_create_integer~~CallsGraph Pages: 1 -->
<svg width="624pt" height="166pt"
 viewBox="0.00 0.00 624.00 166.00" xmlns="http://www.w3.org/2000/svg" xmlns:xlink="http://www.w3.org/1999/xlink">
<g id="graph1" class="graph" transform="scale(1 1) rotate(0) translate(4 162)">
<title>proc~~wrap_json_value_create_integer~~CallsGraph</title>
<polygon fill="white" stroke="white" points="-4,5 -4,-162 621,-162 621,5 -4,5"/>
<!-- proc~wrap_json_value_create_integer -->
<g id="node1" class="node"><title>proc~wrap_json_value_create_integer</title>
<polygon fill="none" stroke="black" points="168,-92 8.52651e-14,-92 0,-66 168,-66 168,-92"/>
<text text-anchor="middle" x="84" y="-76.55" font-family="Helvetica,sans-Serif" font-size="10.50">wrap_json_value_create_integer</text>
</g>
<!-- proc~json_value_create_integer -->
<g id="node2" class="node"><title>proc~json_value_create_integer</title>
<a xlink:href="../proc/json_value_create_integer.html" xlink:title="json_value_create_integer">
<polygon fill="#d9534f" stroke="#d9534f" points="343,-114 205,-114 205,-88 343,-88 343,-114"/>
<text text-anchor="middle" x="274" y="-98.55" font-family="Helvetica,sans-Serif" font-size="10.50" fill="white">json_value_create_integer</text>
</a>
</g>
<!-- proc~wrap_json_value_create_integer&#45;&gt;proc~json_value_create_integer -->
<g id="edge12" class="edge"><title>proc~wrap_json_value_create_integer&#45;&gt;proc~json_value_create_integer</title>
<path fill="none" stroke="black" d="M168.167,-88.7456C176.87,-89.7534 185.697,-90.7755 194.35,-91.7773"/>
<polygon fill="black" stroke="black" points="194.073,-95.2685 204.409,-92.9421 194.878,-88.315 194.073,-95.2685"/>
</g>
<!-- interface~to_unicode -->
<g id="node3" class="node"><title>interface~to_unicode</title>
<a xlink:href="../interface/to_unicode.html" xlink:title="to_unicode">
<polygon fill="#a7506f" stroke="#a7506f" points="306,-70 242,-70 242,-44 306,-44 306,-70"/>
<text text-anchor="middle" x="274" y="-54.55" font-family="Helvetica,sans-Serif" font-size="10.50" fill="white">to_unicode</text>
</a>
</g>
<!-- proc~wrap_json_value_create_integer&#45;&gt;interface~to_unicode -->
<g id="edge14" class="edge"><title>proc~wrap_json_value_create_integer&#45;&gt;interface~to_unicode</title>
<path fill="none" stroke="black" d="M168.167,-69.2544C189.942,-66.733 212.486,-64.1226 231.144,-61.9623"/>
<polygon fill="black" stroke="black" points="231.548,-65.439 241.079,-60.8119 230.743,-58.4854 231.548,-65.439"/>
</g>
<!-- proc~json_value_create -->
<g id="node4" class="node"><title>proc~json_value_create</title>
<a xlink:href="../proc/json_value_create.html" xlink:title="json_value_create">
<polygon fill="#d9534f" stroke="#d9534f" points="480,-158 380,-158 380,-132 480,-132 480,-158"/>
<text text-anchor="middle" x="430" y="-142.55" font-family="Helvetica,sans-Serif" font-size="10.50" fill="white">json_value_create</text>
</a>
</g>
<!-- proc~json_value_create_integer&#45;&gt;proc~json_value_create -->
<g id="edge4" class="edge"><title>proc~json_value_create_integer&#45;&gt;proc~json_value_create</title>
<path fill="none" stroke="black" d="M320.383,-114.082C337.125,-118.805 356.207,-124.187 373.706,-129.122"/>
<polygon fill="black" stroke="black" points="373.221,-132.622 383.796,-131.968 375.122,-125.885 373.221,-132.622"/>
</g>
<!-- proc~to_integer -->
<g id="node5" class="node"><title>proc~to_integer</title>
<a xlink:href="../proc/to_integer.html" xlink:title="to_integer">
<polygon fill="#d9534f" stroke="#d9534f" points="460,-114 400,-114 400,-88 460,-88 460,-114"/>
<text text-anchor="middle" x="430" y="-98.55" font-family="Helvetica,sans-Serif" font-size="10.50" fill="white">to_integer</text>
</a>
</g>
<!-- proc~json_value_create_integer&#45;&gt;proc~to_integer -->
<g id="edge6" class="edge"><title>proc~json_value_create_integer&#45;&gt;proc~to_integer</title>
<path fill="none" stroke="black" d="M343.787,-101C359.302,-101 375.255,-101 389.155,-101"/>
<polygon fill="black" stroke="black" points="389.342,-104.5 399.342,-101 389.342,-97.5001 389.342,-104.5"/>
</g>
<!-- proc~to_uni_vec -->
<g id="node10" class="node"><title>proc~to_uni_vec</title>
<a xlink:href="../proc/to_uni_vec.html" xlink:title="to_uni_vec">
<polygon fill="#d94e8f" stroke="#d94e8f" points="462,-70 398,-70 398,-44 462,-44 462,-70"/>
<text text-anchor="middle" x="430" y="-54.55" font-family="Helvetica,sans-Serif" font-size="10.50" fill="white">to_uni_vec</text>
</a>
</g>
<!-- interface~to_unicode&#45;&gt;proc~to_uni_vec -->
<g id="edge8" class="edge"><title>interface~to_unicode&#45;&gt;proc~to_uni_vec</title>
<path fill="none" stroke="black" stroke-dasharray="5,2" d="M306.703,-57C330.26,-57 362.254,-57 387.747,-57"/>
<polygon fill="black" stroke="black" points="387.875,-60.5001 397.875,-57 387.875,-53.5001 387.875,-60.5001"/>
</g>
<!-- proc~to_uni -->
<g id="node11" class="node"><title>proc~to_uni</title>
<a xlink:href="../proc/to_uni.html" xlink:title="to_uni">
<polygon fill="#d94e8f" stroke="#d94e8f" points="457,-26 403,-26 403,-1.24345e-14 457,-3.55271e-15 457,-26"/>
<text text-anchor="middle" x="430" y="-10.55" font-family="Helvetica,sans-Serif" font-size="10.50" fill="white">to_uni</text>
</a>
</g>
<!-- interface~to_unicode&#45;&gt;proc~to_uni -->
<g id="edge10" class="edge"><title>interface~to_unicode&#45;&gt;proc~to_uni</title>
<path fill="none" stroke="black" stroke-dasharray="5,2" d="M306.703,-47.7762C331.864,-40.6795 366.648,-30.8686 392.857,-23.4763"/>
<polygon fill="black" stroke="black" points="394.124,-26.7555 402.798,-20.6723 392.224,-20.0184 394.124,-26.7555"/>
</g>
<!-- proc~destroy_json_data -->
<g id="node6" class="node"><title>proc~destroy_json_data</title>
<a xlink:href="../proc/destroy_json_data.html" xlink:title="destroy_json_data">
<polygon fill="#d9534f" stroke="#d9534f" points="616,-114 516,-114 516,-88 616,-88 616,-114"/>
<text text-anchor="middle" x="566" y="-98.55" font-family="Helvetica,sans-Serif" font-size="10.50" fill="white">destroy_json_data</text>
</a>
</g>
<!-- proc~to_integer&#45;&gt;proc~destroy_json_data -->
<g id="edge2" class="edge"><title>proc~to_integer&#45;&gt;proc~destroy_json_data</title>
<path fill="none" stroke="black" d="M460.521,-101C473.884,-101 490.054,-101 505.677,-101"/>
<polygon fill="black" stroke="black" points="505.83,-104.5 515.829,-101 505.829,-97.5001 505.83,-104.5"/>
</g>
</g>
</svg>
