<?xml version="1.0" encoding="UTF-8" standalone="no"?>
<!DOCTYPE svg PUBLIC "-//W3C//DTD SVG 1.1//EN"
 "http://www.w3.org/Graphics/SVG/1.1/DTD/svg11.dtd">
<!-- Generated by graphviz version 2.26.3 (20100126.1600)
 -->
<!-- Title: proc~~read_file~~CallsGraph Pages: 1 -->
<svg width="156pt" height="34pt"
 viewBox="0.00 0.00 156.00 34.00" xmlns="http://www.w3.org/2000/svg" xmlns:xlink="http://www.w3.org/1999/xlink">
<g id="graph1" class="graph" transform="scale(1 1) rotate(0) translate(4 30)">
<title>proc~~read_file~~CallsGraph</title>
<polygon fill="white" stroke="white" points="-4,5 -4,-30 153,-30 153,5 -4,5"/>
<!-- proc~read_file -->
<g id="node1" class="node"><title>proc~read_file</title>
<polygon fill="none" stroke="black" points="54,-26 2.13163e-14,-26 0,-1.24345e-14 54,-3.55271e-15 54,-26"/>
<text text-anchor="middle" x="27" y="-10.55" font-family="Helvetica,sans-Serif" font-size="10.50">read_file</text>
</g>
<!-- character -->
<g id="node2" class="node"><title>character</title>
<polygon fill="#777777" stroke="#777777" points="148,-26 90,-26 90,-1.24345e-14 148,-3.55271e-15 148,-26"/>
<text text-anchor="middle" x="119" y="-10.55" font-family="Helvetica,sans-Serif" font-size="10.50" fill="white">character</text>
</g>
<!-- proc~read_file&#45;&gt;character -->
<g id="edge2" class="edge"><title>proc~read_file&#45;&gt;character</title>
<path fill="none" stroke="black" d="M54.1054,-13C62.094,-13 71.0028,-13 79.5978,-13"/>
<polygon fill="black" stroke="black" points="79.8433,-16.5001 89.8432,-13 79.8432,-9.5001 79.8433,-16.5001"/>
</g>
</g>
</svg>
