<?xml version="1.0" encoding="UTF-8" standalone="no"?>
<!DOCTYPE svg PUBLIC "-//W3C//DTD SVG 1.1//EN"
 "http://www.w3.org/Graphics/SVG/1.1/DTD/svg11.dtd">
<!-- Generated by graphviz version 2.26.3 (20100126.1600)
 -->
<!-- Title: proc~~json_file_get_logical_vec~~CalledByGraph Pages: 1 -->
<svg width="336pt" height="34pt"
 viewBox="0.00 0.00 336.00 34.00" xmlns="http://www.w3.org/2000/svg" xmlns:xlink="http://www.w3.org/1999/xlink">
<g id="graph1" class="graph" transform="scale(1 1) rotate(0) translate(4 30)">
<title>proc~~json_file_get_logical_vec~~CalledByGraph</title>
<polygon fill="white" stroke="white" points="-4,5 -4,-30 333,-30 333,5 -4,5"/>
<!-- proc~json_file_get_logical_vec -->
<g id="node1" class="node"><title>proc~json_file_get_logical_vec</title>
<polygon fill="none" stroke="black" points="327,-26 197,-26 197,-1.24345e-14 327,-3.55271e-15 327,-26"/>
<text text-anchor="middle" x="262" y="-10.55" font-family="Helvetica,sans-Serif" font-size="10.50">json_file_get_logical_vec</text>
</g>
<!-- proc~wrap_json_file_get_logical_vec -->
<g id="node2" class="node"><title>proc~wrap_json_file_get_logical_vec</title>
<a xlink:href="../proc/wrap_json_file_get_logical_vec.html" xlink:title="wrap_json_file_get_logical_vec">
<polygon fill="#d9534f" stroke="#d9534f" points="160,-26 7.10543e-14,-26 0,-1.24345e-14 160,-3.55271e-15 160,-26"/>
<text text-anchor="middle" x="80" y="-10.55" font-family="Helvetica,sans-Serif" font-size="10.50" fill="white">wrap_json_file_get_logical_vec</text>
</a>
</g>
<!-- proc~wrap_json_file_get_logical_vec&#45;&gt;proc~json_file_get_logical_vec -->
<g id="edge2" class="edge"><title>proc~wrap_json_file_get_logical_vec&#45;&gt;proc~json_file_get_logical_vec</title>
<path fill="none" stroke="black" d="M160.093,-13C168.798,-13 177.638,-13 186.289,-13"/>
<polygon fill="black" stroke="black" points="186.338,-16.5001 196.338,-13 186.337,-9.5001 186.338,-16.5001"/>
</g>
</g>
</svg>
