<?xml version="1.0" encoding="UTF-8" standalone="no"?>
<!DOCTYPE svg PUBLIC "-//W3C//DTD SVG 1.1//EN"
 "http://www.w3.org/Graphics/SVG/1.1/DTD/svg11.dtd">
<!-- Generated by graphviz version 2.26.3 (20100126.1600)
 -->
<!-- Title: proc~~json_info~~CalledByGraph Pages: 1 -->
<svg width="641pt" height="382pt"
 viewBox="0.00 0.00 641.00 381.81" xmlns="http://www.w3.org/2000/svg" xmlns:xlink="http://www.w3.org/1999/xlink">
<g id="graph1" class="graph" transform="scale(0.702851 0.702851) rotate(0) translate(4 539.23)">
<title>proc~~json_info~~CalledByGraph</title>
<polygon fill="white" stroke="white" points="-4,5 -4,-539.23 909,-539.23 909,5 -4,5"/>
<!-- proc~json_info -->
<g id="node1" class="node"><title>proc~json_info</title>
<polygon fill="none" stroke="black" points="903,-297 849,-297 849,-271 903,-271 903,-297"/>
<text text-anchor="middle" x="876" y="-281.55" font-family="Helvetica,sans-Serif" font-size="10.50">json_info</text>
</g>
<!-- proc~json_update_integer -->
<g id="node2" class="node"><title>proc~json_update_integer</title>
<a xlink:href="../proc/json_update_integer.html" xlink:title="json_update_integer">
<polygon fill="#d9534f" stroke="#d9534f" points="808,-442 698,-442 698,-416 808,-416 808,-442"/>
<text text-anchor="middle" x="753" y="-426.55" font-family="Helvetica,sans-Serif" font-size="10.50" fill="white">json_update_integer</text>
</a>
</g>
<!-- proc~json_update_integer&#45;&gt;proc~json_info -->
<g id="edge70" class="edge"><title>proc~json_update_integer&#45;&gt;proc~json_info</title>
<path fill="none" stroke="black" d="M767.124,-415.668C779.423,-403.821 797.505,-385.823 812,-369 829.866,-348.264 848.491,-323.057 861.011,-305.5"/>
<polygon fill="black" stroke="black" points="864.048,-307.267 866.965,-297.081 858.333,-303.225 864.048,-307.267"/>
</g>
<!-- proc~json_update_logical -->
<g id="node3" class="node"><title>proc~json_update_logical</title>
<a xlink:href="../proc/json_update_logical.html" xlink:title="json_update_logical">
<polygon fill="#d9534f" stroke="#d9534f" points="806,-360 700,-360 700,-334 806,-334 806,-360"/>
<text text-anchor="middle" x="753" y="-344.55" font-family="Helvetica,sans-Serif" font-size="10.50" fill="white">json_update_logical</text>
</a>
</g>
<!-- proc~json_update_logical&#45;&gt;proc~json_info -->
<g id="edge72" class="edge"><title>proc~json_update_logical&#45;&gt;proc~json_info</title>
<path fill="none" stroke="black" d="M778.486,-333.946C796.709,-324.612 821.447,-311.942 841.446,-301.698"/>
<polygon fill="black" stroke="black" points="843.242,-304.711 850.547,-297.037 840.051,-298.481 843.242,-304.711"/>
</g>
<!-- proc~test_10 -->
<g id="node4" class="node"><title>proc~test_10</title>
<a xlink:href="../proc/test_10.html" xlink:title="test_10">
<polygon fill="#d9534f" stroke="#d9534f" points="312,-518 258,-518 258,-492 312,-492 312,-518"/>
<text text-anchor="middle" x="285" y="-502.55" font-family="Helvetica,sans-Serif" font-size="10.50" fill="white">test_10</text>
</a>
</g>
<!-- proc~test_10&#45;&gt;proc~json_info -->
<g id="edge74" class="edge"><title>proc~test_10&#45;&gt;proc~json_info</title>
<path fill="none" stroke="black" d="M312.079,-511.511C396.869,-530.178 660.598,-574.953 812,-451 856.198,-414.815 869.923,-344.394 874.148,-307.63"/>
<polygon fill="black" stroke="black" points="877.661,-307.675 875.177,-297.376 870.696,-306.976 877.661,-307.675"/>
</g>
<!-- interface~json_update -->
<g id="node10" class="node"><title>interface~json_update</title>
<a xlink:href="../interface/json_update.html" xlink:title="json_update">
<polygon fill="#a7506f" stroke="#a7506f" points="457,-281 387,-281 387,-255 457,-255 457,-281"/>
<text text-anchor="middle" x="422" y="-265.55" font-family="Helvetica,sans-Serif" font-size="10.50" fill="white">json_update</text>
</a>
</g>
<!-- proc~test_10&#45;&gt;interface~json_update -->
<g id="edge24" class="edge"><title>proc~test_10&#45;&gt;interface~json_update</title>
<path fill="none" stroke="black" d="M294.265,-491.818C307.283,-473.095 331.469,-437.56 350,-406 373.398,-366.152 397.663,-317.965 411.197,-290.359"/>
<polygon fill="black" stroke="black" points="414.439,-291.696 415.676,-281.173 408.147,-288.628 414.439,-291.696"/>
</g>
<!-- proc~json_file_variable_info -->
<g id="node5" class="node"><title>proc~json_file_variable_info</title>
<a xlink:href="../proc/json_file_variable_info.html" xlink:title="json_file_variable_info">
<polygon fill="#d9534f" stroke="#d9534f" points="812,-26 694,-26 694,-1.24345e-14 812,-3.55271e-15 812,-26"/>
<text text-anchor="middle" x="753" y="-10.55" font-family="Helvetica,sans-Serif" font-size="10.50" fill="white">json_file_variable_info</text>
</a>
</g>
<!-- proc~json_file_variable_info&#45;&gt;proc~json_info -->
<g id="edge76" class="edge"><title>proc~json_file_variable_info&#45;&gt;proc~json_info</title>
<path fill="none" stroke="black" d="M794.351,-26.1373C800.977,-29.7581 807.216,-34.3092 812,-40 840.54,-73.9486 863.982,-206.919 872.527,-260.968"/>
<polygon fill="black" stroke="black" points="869.085,-261.613 874.078,-270.957 876.002,-260.539 869.085,-261.613"/>
</g>
<!-- proc~json_update_double -->
<g id="node6" class="node"><title>proc~json_update_double</title>
<a xlink:href="../proc/json_update_double.html" xlink:title="json_update_double">
<polygon fill="#d9534f" stroke="#d9534f" points="807,-297 699,-297 699,-271 807,-271 807,-297"/>
<text text-anchor="middle" x="753" y="-281.55" font-family="Helvetica,sans-Serif" font-size="10.50" fill="white">json_update_double</text>
</a>
</g>
<!-- proc~json_update_double&#45;&gt;proc~json_info -->
<g id="edge78" class="edge"><title>proc~json_update_double&#45;&gt;proc~json_info</title>
<path fill="none" stroke="black" d="M807.666,-284C818.032,-284 828.66,-284 838.353,-284"/>
<polygon fill="black" stroke="black" points="838.447,-287.5 848.447,-284 838.447,-280.5 838.447,-287.5"/>
</g>
<!-- proc~rename -->
<g id="node7" class="node"><title>proc~rename</title>
<a xlink:href="../proc/rename.html" xlink:title="rename">
<polygon fill="#d9534f" stroke="#d9534f" points="312,-94 258,-94 258,-68 312,-68 312,-94"/>
<text text-anchor="middle" x="285" y="-78.55" font-family="Helvetica,sans-Serif" font-size="10.50" fill="white">rename</text>
</a>
</g>
<!-- proc~rename&#45;&gt;proc~json_info -->
<g id="edge80" class="edge"><title>proc~rename&#45;&gt;proc~json_info</title>
<path fill="none" stroke="black" d="M312.294,-75.335C374.776,-63.4543 532.483,-39.6672 658,-73 734.19,-93.2334 757.366,-104.172 812,-161 826.979,-176.58 852.433,-230.82 866.297,-261.82"/>
<polygon fill="black" stroke="black" points="863.11,-263.267 870.363,-270.99 869.509,-260.43 863.11,-263.267"/>
</g>
<!-- proc~rename&#45;&gt;interface~json_update -->
<g id="edge30" class="edge"><title>proc~rename&#45;&gt;interface~json_update</title>
<path fill="none" stroke="black" d="M312.157,-92.7978C324.881,-99.3682 339.511,-108.549 350,-120 384.16,-157.293 405.501,-213.763 415.42,-245.067"/>
<polygon fill="black" stroke="black" points="412.08,-246.113 418.348,-254.654 418.775,-244.068 412.08,-246.113"/>
</g>
<!-- proc~json_update_string -->
<g id="node8" class="node"><title>proc~json_update_string</title>
<a xlink:href="../proc/json_update_string.html" xlink:title="json_update_string">
<polygon fill="#d9534f" stroke="#d9534f" points="804,-196 702,-196 702,-170 804,-170 804,-196"/>
<text text-anchor="middle" x="753" y="-180.55" font-family="Helvetica,sans-Serif" font-size="10.50" fill="white">json_update_string</text>
</a>
</g>
<!-- proc~json_update_string&#45;&gt;proc~json_info -->
<g id="edge82" class="edge"><title>proc~json_update_string&#45;&gt;proc~json_info</title>
<path fill="none" stroke="black" d="M769.08,-196.204C790.259,-213.595 827.674,-244.318 852.153,-264.418"/>
<polygon fill="black" stroke="black" points="849.966,-267.152 859.916,-270.793 854.409,-261.742 849.966,-267.152"/>
</g>
<!-- proc~wrap_json_update_integer -->
<g id="node9" class="node"><title>proc~wrap_json_update_integer</title>
<a xlink:href="../proc/wrap_json_update_integer.html" xlink:title="wrap_json_update_integer">
<polygon fill="#d9534f" stroke="#d9534f" points="645,-442 507,-442 507,-416 645,-416 645,-442"/>
<text text-anchor="middle" x="576" y="-426.55" font-family="Helvetica,sans-Serif" font-size="10.50" fill="white">wrap_json_update_integer</text>
</a>
</g>
<!-- proc~wrap_json_update_integer&#45;&gt;proc~json_update_integer -->
<g id="edge36" class="edge"><title>proc~wrap_json_update_integer&#45;&gt;proc~json_update_integer</title>
<path fill="none" stroke="black" d="M645.701,-429C659.5,-429 673.939,-429 687.589,-429"/>
<polygon fill="black" stroke="black" points="687.851,-432.5 697.85,-429 687.85,-425.5 687.851,-432.5"/>
</g>
<!-- interface~json_update&#45;&gt;proc~json_update_integer -->
<g id="edge38" class="edge"><title>interface~json_update&#45;&gt;proc~json_update_integer</title>
<path fill="none" stroke="black" stroke-dasharray="5,2" d="M425.133,-281.096C434.622,-319.552 464.231,-430.722 494,-451 560.887,-496.561 661.165,-467.491 715.226,-445.995"/>
<polygon fill="black" stroke="black" points="716.837,-449.117 724.764,-442.088 714.184,-442.639 716.837,-449.117"/>
</g>
<!-- interface~json_update&#45;&gt;proc~json_update_logical -->
<g id="edge44" class="edge"><title>interface~json_update&#45;&gt;proc~json_update_logical</title>
<path fill="none" stroke="black" stroke-dasharray="5,2" d="M426.779,-281.303C435.818,-304.192 457.82,-350.36 494,-369 563.677,-404.898 658.031,-381.957 711.502,-363.494"/>
<polygon fill="black" stroke="black" points="712.749,-366.765 720.995,-360.114 710.401,-360.171 712.749,-366.765"/>
</g>
<!-- interface~json_update&#45;&gt;proc~json_update_double -->
<g id="edge54" class="edge"><title>interface~json_update&#45;&gt;proc~json_update_double</title>
<path fill="none" stroke="black" stroke-dasharray="5,2" d="M457.529,-279.318C469.04,-282.46 481.949,-285.437 494,-287 559.742,-295.528 635.657,-293.239 688.227,-289.764"/>
<polygon fill="black" stroke="black" points="688.686,-293.24 698.42,-289.056 688.201,-286.257 688.686,-293.24"/>
</g>
<!-- interface~json_update&#45;&gt;proc~json_update_string -->
<g id="edge68" class="edge"><title>interface~json_update&#45;&gt;proc~json_update_string</title>
<path fill="none" stroke="black" stroke-dasharray="5,2" d="M457.282,-254.908C468.893,-250.826 481.922,-246.485 494,-243 494.303,-242.913 614.751,-215.016 691.263,-197.297"/>
<polygon fill="black" stroke="black" points="692.336,-200.641 701.288,-194.975 690.756,-193.822 692.336,-200.641"/>
</g>
<!-- interface~json_update&#45;&gt;proc~wrap_json_update_integer -->
<g id="edge34" class="edge"><title>interface~json_update&#45;&gt;proc~wrap_json_update_integer</title>
<path fill="none" stroke="black" stroke-dasharray="5,2" d="M425.476,-281.15C433.205,-307.859 454.34,-368.736 494,-402 498.306,-405.612 503.111,-408.745 508.174,-411.462"/>
<polygon fill="black" stroke="black" points="506.985,-414.772 517.518,-415.917 509.998,-408.454 506.985,-414.772"/>
</g>
<!-- proc~wrap_json_update_logical -->
<g id="node44" class="node"><title>proc~wrap_json_update_logical</title>
<a xlink:href="../proc/wrap_json_update_logical.html" xlink:title="wrap_json_update_logical">
<polygon fill="#d9534f" stroke="#d9534f" points="644,-360 508,-360 508,-334 644,-334 644,-360"/>
<text text-anchor="middle" x="576" y="-344.55" font-family="Helvetica,sans-Serif" font-size="10.50" fill="white">wrap_json_update_logical</text>
</a>
</g>
<!-- interface~json_update&#45;&gt;proc~wrap_json_update_logical -->
<g id="edge40" class="edge"><title>interface~json_update&#45;&gt;proc~wrap_json_update_logical</title>
<path fill="none" stroke="black" stroke-dasharray="5,2" d="M437.109,-281.047C451.09,-292.583 472.848,-309.208 494,-320 501.76,-323.959 510.224,-327.513 518.671,-330.64"/>
<polygon fill="black" stroke="black" points="517.568,-333.963 528.163,-333.989 519.898,-327.361 517.568,-333.963"/>
</g>
<!-- proc~wrap_json_update_double -->
<g id="node52" class="node"><title>proc~wrap_json_update_double</title>
<a xlink:href="../proc/wrap_json_update_double.html" xlink:title="wrap_json_update_double">
<polygon fill="#d9534f" stroke="#d9534f" points="645,-278 507,-278 507,-252 645,-252 645,-278"/>
<text text-anchor="middle" x="576" y="-262.55" font-family="Helvetica,sans-Serif" font-size="10.50" fill="white">wrap_json_update_double</text>
</a>
</g>
<!-- interface~json_update&#45;&gt;proc~wrap_json_update_double -->
<g id="edge50" class="edge"><title>interface~json_update&#45;&gt;proc~wrap_json_update_double</title>
<path fill="none" stroke="black" stroke-dasharray="5,2" d="M457.718,-267.304C469.259,-267.079 482.557,-266.82 495.978,-266.559"/>
<polygon fill="black" stroke="black" points="496.308,-270.053 506.237,-266.359 496.171,-263.055 496.308,-270.053"/>
</g>
<!-- proc~wrap_json_update_string -->
<g id="node56" class="node"><title>proc~wrap_json_update_string</title>
<a xlink:href="../proc/wrap_json_update_string.html" xlink:title="wrap_json_update_string">
<polygon fill="#d9534f" stroke="#d9534f" points="642,-196 510,-196 510,-170 642,-170 642,-196"/>
<text text-anchor="middle" x="576" y="-180.55" font-family="Helvetica,sans-Serif" font-size="10.50" fill="white">wrap_json_update_string</text>
</a>
</g>
<!-- interface~json_update&#45;&gt;proc~wrap_json_update_string -->
<g id="edge56" class="edge"><title>interface~json_update&#45;&gt;proc~wrap_json_update_string</title>
<path fill="none" stroke="black" stroke-dasharray="5,2" d="M435.263,-254.825C448.954,-241.859 471.439,-222.27 494,-210 501.208,-206.08 509.083,-202.602 517.009,-199.556"/>
<polygon fill="black" stroke="black" points="518.456,-202.755 526.663,-196.054 516.069,-196.174 518.456,-202.755"/>
</g>
<!-- proc~json_update_string_name_ascii -->
<g id="node57" class="node"><title>proc~json_update_string_name_ascii</title>
<a xlink:href="../proc/json_update_string_name_ascii.html" xlink:title="json_update_string_name_ascii">
<polygon fill="#d9534f" stroke="#d9534f" points="657,-152 495,-152 495,-126 657,-126 657,-152"/>
<text text-anchor="middle" x="576" y="-136.55" font-family="Helvetica,sans-Serif" font-size="10.50" fill="white">json_update_string_name_ascii</text>
</a>
</g>
<!-- interface~json_update&#45;&gt;proc~json_update_string_name_ascii -->
<g id="edge58" class="edge"><title>interface~json_update&#45;&gt;proc~json_update_string_name_ascii</title>
<path fill="none" stroke="black" stroke-dasharray="5,2" d="M427.138,-254.904C436.732,-232.197 459.566,-185.599 494,-161 496.228,-159.408 498.565,-157.932 500.982,-156.562"/>
<polygon fill="black" stroke="black" points="502.647,-159.643 510.041,-152.055 499.529,-153.376 502.647,-159.643"/>
</g>
<!-- proc~json_update_string_val_ascii -->
<g id="node58" class="node"><title>proc~json_update_string_val_ascii</title>
<a xlink:href="../proc/json_update_string_val_ascii.html" xlink:title="json_update_string_val_ascii">
<polygon fill="#d9534f" stroke="#d9534f" points="651,-108 501,-108 501,-82 651,-82 651,-108"/>
<text text-anchor="middle" x="576" y="-92.55" font-family="Helvetica,sans-Serif" font-size="10.50" fill="white">json_update_string_val_ascii</text>
</a>
</g>
<!-- interface~json_update&#45;&gt;proc~json_update_string_val_ascii -->
<g id="edge60" class="edge"><title>interface~json_update&#45;&gt;proc~json_update_string_val_ascii</title>
<path fill="none" stroke="black" stroke-dasharray="5,2" d="M424.419,-254.818C430.52,-225.417 449.349,-154.152 494,-117 495.572,-115.692 497.215,-114.461 498.915,-113.303"/>
<polygon fill="black" stroke="black" points="500.971,-116.156 507.848,-108.096 497.446,-110.108 500.971,-116.156"/>
</g>
<!-- proc~json_file_update_string -->
<g id="node11" class="node"><title>proc~json_file_update_string</title>
<a xlink:href="../proc/json_file_update_string.html" xlink:title="json_file_update_string">
<polygon fill="#d9534f" stroke="#d9534f" points="346,-397 224,-397 224,-371 346,-371 346,-397"/>
<text text-anchor="middle" x="285" y="-381.55" font-family="Helvetica,sans-Serif" font-size="10.50" fill="white">json_file_update_string</text>
</a>
</g>
<!-- proc~json_file_update_string&#45;&gt;interface~json_update -->
<g id="edge18" class="edge"><title>proc~json_file_update_string&#45;&gt;interface~json_update</title>
<path fill="none" stroke="black" d="M306.512,-370.903C319.537,-362.622 336.235,-351.366 350,-340 369.207,-324.14 389.083,-303.926 403.073,-288.956"/>
<polygon fill="black" stroke="black" points="405.986,-290.962 410.198,-281.24 400.843,-286.213 405.986,-290.962"/>
</g>
<!-- proc~json_file_update_real -->
<g id="node12" class="node"><title>proc~json_file_update_real</title>
<a xlink:href="../proc/json_file_update_real.html" xlink:title="json_file_update_real">
<polygon fill="#d9534f" stroke="#d9534f" points="342,-331 228,-331 228,-305 342,-305 342,-331"/>
<text text-anchor="middle" x="285" y="-315.55" font-family="Helvetica,sans-Serif" font-size="10.50" fill="white">json_file_update_real</text>
</a>
</g>
<!-- proc~json_file_update_real&#45;&gt;interface~json_update -->
<g id="edge20" class="edge"><title>proc~json_file_update_real&#45;&gt;interface~json_update</title>
<path fill="none" stroke="black" d="M324.628,-304.901C333.029,-302.036 341.826,-298.971 350,-296 359.643,-292.495 369.952,-288.585 379.668,-284.824"/>
<polygon fill="black" stroke="black" points="381.093,-288.025 389.14,-281.134 378.552,-281.503 381.093,-288.025"/>
</g>
<!-- proc~test_1 -->
<g id="node13" class="node"><title>proc~test_1</title>
<a xlink:href="../proc/test_1.html" xlink:title="test_1">
<polygon fill="#d9534f" stroke="#d9534f" points="312,-287 258,-287 258,-261 312,-261 312,-287"/>
<text text-anchor="middle" x="285" y="-271.55" font-family="Helvetica,sans-Serif" font-size="10.50" fill="white">test_1</text>
</a>
</g>
<!-- proc~test_1&#45;&gt;interface~json_update -->
<g id="edge22" class="edge"><title>proc~test_1&#45;&gt;interface~json_update</title>
<path fill="none" stroke="black" d="M312.067,-272.815C330.362,-272.013 354.973,-270.936 376.27,-270.003"/>
<polygon fill="black" stroke="black" points="376.58,-273.493 386.417,-269.558 376.273,-266.499 376.58,-273.493"/>
</g>
<!-- proc~json_file_update_logical -->
<g id="node14" class="node"><title>proc~json_file_update_logical</title>
<a xlink:href="../proc/json_file_update_logical.html" xlink:title="json_file_update_logical">
<polygon fill="#d9534f" stroke="#d9534f" points="348,-243 222,-243 222,-217 348,-217 348,-243"/>
<text text-anchor="middle" x="285" y="-227.55" font-family="Helvetica,sans-Serif" font-size="10.50" fill="white">json_file_update_logical</text>
</a>
</g>
<!-- proc~json_file_update_logical&#45;&gt;interface~json_update -->
<g id="edge26" class="edge"><title>proc~json_file_update_logical&#45;&gt;interface~json_update</title>
<path fill="none" stroke="black" d="M332.148,-243.077C346.612,-247.089 362.487,-251.493 376.817,-255.468"/>
<polygon fill="black" stroke="black" points="375.883,-258.84 386.455,-258.141 377.754,-252.095 375.883,-258.84"/>
</g>
<!-- proc~json_file_update_integer -->
<g id="node15" class="node"><title>proc~json_file_update_integer</title>
<a xlink:href="../proc/json_file_update_integer.html" xlink:title="json_file_update_integer">
<polygon fill="#d9534f" stroke="#d9534f" points="350,-199 220,-199 220,-173 350,-173 350,-199"/>
<text text-anchor="middle" x="285" y="-183.55" font-family="Helvetica,sans-Serif" font-size="10.50" fill="white">json_file_update_integer</text>
</a>
</g>
<!-- proc~json_file_update_integer&#45;&gt;interface~json_update -->
<g id="edge28" class="edge"><title>proc~json_file_update_integer&#45;&gt;interface~json_update</title>
<path fill="none" stroke="black" d="M330.683,-199.064C337.338,-201.648 343.971,-204.623 350,-208 369.225,-218.768 388.258,-234.933 401.923,-247.773"/>
<polygon fill="black" stroke="black" points="399.677,-250.469 409.309,-254.882 404.531,-245.425 399.677,-250.469"/>
</g>
<!-- proc~test_12 -->
<g id="node16" class="node"><title>proc~test_12</title>
<a xlink:href="../proc/test_12.html" xlink:title="test_12">
<polygon fill="#d9534f" stroke="#d9534f" points="312,-155 258,-155 258,-129 312,-129 312,-155"/>
<text text-anchor="middle" x="285" y="-139.55" font-family="Helvetica,sans-Serif" font-size="10.50" fill="white">test_12</text>
</a>
</g>
<!-- proc~test_12&#45;&gt;interface~json_update -->
<g id="edge32" class="edge"><title>proc~test_12&#45;&gt;interface~json_update</title>
<path fill="none" stroke="black" d="M312.155,-147.08C324.583,-150.386 338.963,-155.683 350,-164 378.696,-185.626 400.123,-222.093 411.85,-245.596"/>
<polygon fill="black" stroke="black" points="408.786,-247.299 416.275,-254.793 415.094,-244.265 408.786,-247.299"/>
</g>
<!-- proc~json_file_update_string_name_ascii -->
<g id="node17" class="node"><title>proc~json_file_update_string_name_ascii</title>
<a xlink:href="../proc/json_file_update_string_name_ascii.html" xlink:title="json_file_update_string_name_ascii">
<polygon fill="#d9534f" stroke="#d9534f" points="183,-463 1,-463 1,-437 183,-437 183,-463"/>
<text text-anchor="middle" x="92" y="-447.55" font-family="Helvetica,sans-Serif" font-size="10.50" fill="white">json_file_update_string_name_ascii</text>
</a>
</g>
<!-- proc~json_file_update_string_name_ascii&#45;&gt;proc~json_file_update_string -->
<g id="edge2" class="edge"><title>proc~json_file_update_string_name_ascii&#45;&gt;proc~json_file_update_string</title>
<path fill="none" stroke="black" d="M153.297,-436.937C163.634,-434.281 174.188,-431.282 184,-428 206.189,-420.578 230.235,-410.202 249.296,-401.39"/>
<polygon fill="black" stroke="black" points="250.927,-404.491 258.498,-397.079 247.957,-398.152 250.927,-404.491"/>
</g>
<!-- proc~wrap_json_file_update_string -->
<g id="node18" class="node"><title>proc~wrap_json_file_update_string</title>
<a xlink:href="../proc/wrap_json_file_update_string.html" xlink:title="wrap_json_file_update_string">
<polygon fill="#d9534f" stroke="#d9534f" points="168,-419 16,-419 16,-393 168,-393 168,-419"/>
<text text-anchor="middle" x="92" y="-403.55" font-family="Helvetica,sans-Serif" font-size="10.50" fill="white">wrap_json_file_update_string</text>
</a>
</g>
<!-- proc~wrap_json_file_update_string&#45;&gt;proc~json_file_update_string -->
<g id="edge4" class="edge"><title>proc~wrap_json_file_update_string&#45;&gt;proc~json_file_update_string</title>
<path fill="none" stroke="black" d="M168.002,-397.337C182.915,-395.637 198.512,-393.859 213.28,-392.175"/>
<polygon fill="black" stroke="black" points="213.813,-395.637 223.352,-391.027 213.02,-388.682 213.813,-395.637"/>
</g>
<!-- proc~json_file_update_string_val_ascii -->
<g id="node19" class="node"><title>proc~json_file_update_string_val_ascii</title>
<a xlink:href="../proc/json_file_update_string_val_ascii.html" xlink:title="json_file_update_string_val_ascii">
<polygon fill="#d9534f" stroke="#d9534f" points="176,-375 8,-375 8,-349 176,-349 176,-375"/>
<text text-anchor="middle" x="92" y="-359.55" font-family="Helvetica,sans-Serif" font-size="10.50" fill="white">json_file_update_string_val_ascii</text>
</a>
</g>
<!-- proc~json_file_update_string_val_ascii&#45;&gt;proc~json_file_update_string -->
<g id="edge6" class="edge"><title>proc~json_file_update_string_val_ascii&#45;&gt;proc~json_file_update_string</title>
<path fill="none" stroke="black" d="M176.653,-371.65C188.795,-373.034 201.191,-374.447 213.056,-375.799"/>
<polygon fill="black" stroke="black" points="212.995,-379.315 223.327,-376.97 213.788,-372.36 212.995,-379.315"/>
</g>
<!-- proc~wrap_json_file_update_real -->
<g id="node23" class="node"><title>proc~wrap_json_file_update_real</title>
<a xlink:href="../proc/wrap_json_file_update_real.html" xlink:title="wrap_json_file_update_real">
<polygon fill="#d9534f" stroke="#d9534f" points="164,-331 20,-331 20,-305 164,-305 164,-331"/>
<text text-anchor="middle" x="92" y="-315.55" font-family="Helvetica,sans-Serif" font-size="10.50" fill="white">wrap_json_file_update_real</text>
</a>
</g>
<!-- proc~wrap_json_file_update_real&#45;&gt;proc~json_file_update_real -->
<g id="edge8" class="edge"><title>proc~wrap_json_file_update_real&#45;&gt;proc~json_file_update_real</title>
<path fill="none" stroke="black" d="M164.141,-318C181.43,-318 199.836,-318 216.935,-318"/>
<polygon fill="black" stroke="black" points="217.39,-321.5 227.39,-318 217.39,-314.5 217.39,-321.5"/>
</g>
<!-- program~jf_test_1 -->
<g id="node25" class="node"><title>program~jf_test_1</title>
<a xlink:href="../program/jf_test_1.html" xlink:title="jf_test_1">
<polygon fill="#f0ad4e" stroke="#f0ad4e" points="119,-287 65,-287 65,-261 119,-261 119,-287"/>
<text text-anchor="middle" x="92" y="-271.55" font-family="Helvetica,sans-Serif" font-size="10.50" fill="white">jf_test_1</text>
</a>
</g>
<!-- program~jf_test_1&#45;&gt;proc~test_1 -->
<g id="edge10" class="edge"><title>program~jf_test_1&#45;&gt;proc~test_1</title>
<path fill="none" stroke="black" d="M119.243,-274C152.865,-274 210.195,-274 247.837,-274"/>
<polygon fill="black" stroke="black" points="247.896,-277.5 257.896,-274 247.896,-270.5 247.896,-277.5"/>
</g>
<!-- proc~wrap_json_file_update_logical -->
<g id="node27" class="node"><title>proc~wrap_json_file_update_logical</title>
<a xlink:href="../proc/wrap_json_file_update_logical.html" xlink:title="wrap_json_file_update_logical">
<polygon fill="#d9534f" stroke="#d9534f" points="170,-243 14,-243 14,-217 170,-217 170,-243"/>
<text text-anchor="middle" x="92" y="-227.55" font-family="Helvetica,sans-Serif" font-size="10.50" fill="white">wrap_json_file_update_logical</text>
</a>
</g>
<!-- proc~wrap_json_file_update_logical&#45;&gt;proc~json_file_update_logical -->
<g id="edge12" class="edge"><title>proc~wrap_json_file_update_logical&#45;&gt;proc~json_file_update_logical</title>
<path fill="none" stroke="black" d="M170.222,-230C183.795,-230 197.868,-230 211.314,-230"/>
<polygon fill="black" stroke="black" points="211.455,-233.5 221.455,-230 211.455,-226.5 211.455,-233.5"/>
</g>
<!-- proc~wrap_json_file_update_integer -->
<g id="node29" class="node"><title>proc~wrap_json_file_update_integer</title>
<a xlink:href="../proc/wrap_json_file_update_integer.html" xlink:title="wrap_json_file_update_integer">
<polygon fill="#d9534f" stroke="#d9534f" points="171,-199 13,-199 13,-173 171,-173 171,-199"/>
<text text-anchor="middle" x="92" y="-183.55" font-family="Helvetica,sans-Serif" font-size="10.50" fill="white">wrap_json_file_update_integer</text>
</a>
</g>
<!-- proc~wrap_json_file_update_integer&#45;&gt;proc~json_file_update_integer -->
<g id="edge14" class="edge"><title>proc~wrap_json_file_update_integer&#45;&gt;proc~json_file_update_integer</title>
<path fill="none" stroke="black" d="M171.615,-186C184.189,-186 197.157,-186 209.631,-186"/>
<polygon fill="black" stroke="black" points="209.972,-189.5 219.972,-186 209.972,-182.5 209.972,-189.5"/>
</g>
<!-- program~jf_test_12 -->
<g id="node31" class="node"><title>program~jf_test_12</title>
<a xlink:href="../program/jf_test_12.html" xlink:title="jf_test_12">
<polygon fill="#f0ad4e" stroke="#f0ad4e" points="121,-155 63,-155 63,-129 121,-129 121,-155"/>
<text text-anchor="middle" x="92" y="-139.55" font-family="Helvetica,sans-Serif" font-size="10.50" fill="white">jf_test_12</text>
</a>
</g>
<!-- program~jf_test_12&#45;&gt;proc~test_12 -->
<g id="edge16" class="edge"><title>program~jf_test_12&#45;&gt;proc~test_12</title>
<path fill="none" stroke="black" d="M121.733,-142C155.513,-142 210.702,-142 247.432,-142"/>
<polygon fill="black" stroke="black" points="247.731,-145.5 257.731,-142 247.731,-138.5 247.731,-145.5"/>
</g>
<!-- proc~wrap_json_update_logical&#45;&gt;proc~json_update_logical -->
<g id="edge42" class="edge"><title>proc~wrap_json_update_logical&#45;&gt;proc~json_update_logical</title>
<path fill="none" stroke="black" d="M644.18,-347C658.912,-347 674.439,-347 689.005,-347"/>
<polygon fill="black" stroke="black" points="689.416,-350.5 699.416,-347 689.416,-343.5 689.416,-350.5"/>
</g>
<!-- program~jf_test_10 -->
<g id="node48" class="node"><title>program~jf_test_10</title>
<a xlink:href="../program/jf_test_10.html" xlink:title="jf_test_10">
<polygon fill="#f0ad4e" stroke="#f0ad4e" points="121,-518 63,-518 63,-492 121,-492 121,-518"/>
<text text-anchor="middle" x="92" y="-502.55" font-family="Helvetica,sans-Serif" font-size="10.50" fill="white">jf_test_10</text>
</a>
</g>
<!-- program~jf_test_10&#45;&gt;proc~test_10 -->
<g id="edge46" class="edge"><title>program~jf_test_10&#45;&gt;proc~test_10</title>
<path fill="none" stroke="black" d="M121.733,-505C155.513,-505 210.702,-505 247.432,-505"/>
<polygon fill="black" stroke="black" points="247.731,-508.5 257.731,-505 247.731,-501.5 247.731,-508.5"/>
</g>
<!-- proc~wrap_json_file_variable_info -->
<g id="node50" class="node"><title>proc~wrap_json_file_variable_info</title>
<a xlink:href="../proc/wrap_json_file_variable_info.html" xlink:title="wrap_json_file_variable_info">
<polygon fill="#d9534f" stroke="#d9534f" points="650,-26 502,-26 502,-1.24345e-14 650,-3.55271e-15 650,-26"/>
<text text-anchor="middle" x="576" y="-10.55" font-family="Helvetica,sans-Serif" font-size="10.50" fill="white">wrap_json_file_variable_info</text>
</a>
</g>
<!-- proc~wrap_json_file_variable_info&#45;&gt;proc~json_file_variable_info -->
<g id="edge48" class="edge"><title>proc~wrap_json_file_variable_info&#45;&gt;proc~json_file_variable_info</title>
<path fill="none" stroke="black" d="M650.038,-13C661.208,-13 672.693,-13 683.757,-13"/>
<polygon fill="black" stroke="black" points="683.777,-16.5001 693.777,-13 683.777,-9.5001 683.777,-16.5001"/>
</g>
<!-- proc~wrap_json_update_double&#45;&gt;proc~json_update_double -->
<g id="edge52" class="edge"><title>proc~wrap_json_update_double&#45;&gt;proc~json_update_double</title>
<path fill="none" stroke="black" d="M645.701,-272.482C659.791,-273.995 674.548,-275.579 688.452,-277.071"/>
<polygon fill="black" stroke="black" points="688.087,-280.552 698.403,-278.139 688.834,-273.592 688.087,-280.552"/>
</g>
<!-- proc~wrap_json_update_string&#45;&gt;proc~json_update_string -->
<g id="edge62" class="edge"><title>proc~wrap_json_update_string&#45;&gt;proc~json_update_string</title>
<path fill="none" stroke="black" d="M642.664,-183C658.581,-183 675.503,-183 691.19,-183"/>
<polygon fill="black" stroke="black" points="691.298,-186.5 701.298,-183 691.298,-179.5 691.298,-186.5"/>
</g>
<!-- proc~json_update_string_name_ascii&#45;&gt;proc~json_update_string -->
<g id="edge64" class="edge"><title>proc~json_update_string_name_ascii&#45;&gt;proc~json_update_string</title>
<path fill="none" stroke="black" d="M628.627,-152.082C648.418,-157.002 671.091,-162.638 691.612,-167.74"/>
<polygon fill="black" stroke="black" points="690.941,-171.179 701.49,-170.195 692.63,-164.386 690.941,-171.179"/>
</g>
<!-- proc~json_update_string_val_ascii&#45;&gt;proc~json_update_string -->
<g id="edge66" class="edge"><title>proc~json_update_string_val_ascii&#45;&gt;proc~json_update_string</title>
<path fill="none" stroke="black" d="M634.673,-108.077C642.669,-110.624 650.647,-113.586 658,-117 684.379,-129.247 711.315,-148.759 729.735,-163.397"/>
<polygon fill="black" stroke="black" points="727.592,-166.165 737.567,-169.736 731.996,-160.724 727.592,-166.165"/>
</g>
</g>
</svg>
