<?xml version="1.0" encoding="UTF-8" standalone="no"?>
<!DOCTYPE svg PUBLIC "-//W3C//DTD SVG 1.1//EN"
 "http://www.w3.org/Graphics/SVG/1.1/DTD/svg11.dtd">
<!-- Generated by graphviz version 2.26.3 (20100126.1600)
 -->
<!-- Title: proc~~initialize_json_file~~CalledByGraph Pages: 1 -->
<svg width="194pt" height="34pt"
 viewBox="0.00 0.00 194.00 34.00" xmlns="http://www.w3.org/2000/svg" xmlns:xlink="http://www.w3.org/1999/xlink">
<g id="graph1" class="graph" transform="scale(1 1) rotate(0) translate(4 30)">
<title>proc~~initialize_json_file~~CalledByGraph</title>
<polygon fill="white" stroke="white" points="-4,5 -4,-30 191,-30 191,5 -4,5"/>
<!-- proc~initialize_json_file -->
<g id="node1" class="node"><title>proc~initialize_json_file</title>
<polygon fill="none" stroke="black" points="185,-26 91,-26 91,-1.24345e-14 185,-3.55271e-15 185,-26"/>
<text text-anchor="middle" x="138" y="-10.55" font-family="Helvetica,sans-Serif" font-size="10.50">initialize_json_file</text>
</g>
<!-- interface~json_file -->
<g id="node2" class="node"><title>interface~json_file</title>
<a xlink:href="../interface/json_file.html" xlink:title="json_file">
<polygon fill="#a7506f" stroke="#a7506f" points="54,-26 2.13163e-14,-26 0,-1.24345e-14 54,-3.55271e-15 54,-26"/>
<text text-anchor="middle" x="27" y="-10.55" font-family="Helvetica,sans-Serif" font-size="10.50" fill="white">json_file</text>
</a>
</g>
<!-- interface~json_file&#45;&gt;proc~initialize_json_file -->
<g id="edge2" class="edge"><title>interface~json_file&#45;&gt;proc~initialize_json_file</title>
<path fill="none" stroke="black" stroke-dasharray="5,2" d="M54.1537,-13C62.0812,-13 71.0635,-13 80.1302,-13"/>
<polygon fill="black" stroke="black" points="80.3511,-16.5001 90.3511,-13 80.351,-9.5001 80.3511,-16.5001"/>
</g>
</g>
</svg>
