<?xml version="1.0" encoding="UTF-8" standalone="no"?>
<!DOCTYPE svg PUBLIC "-//W3C//DTD SVG 1.1//EN"
 "http://www.w3.org/Graphics/SVG/1.1/DTD/svg11.dtd">
<!-- Generated by graphviz version 2.26.3 (20100126.1600)
 -->
<!-- Title: proc~~json_get_array_with_path~~CallsGraph Pages: 1 -->
<svg width="641pt" height="156pt"
 viewBox="0.00 0.00 641.00 155.54" xmlns="http://www.w3.org/2000/svg" xmlns:xlink="http://www.w3.org/1999/xlink">
<g id="graph1" class="graph" transform="scale(0.448252 0.448252) rotate(0) translate(4 343)">
<title>proc~~json_get_array_with_path~~CallsGraph</title>
<polygon fill="white" stroke="white" points="-4,5 -4,-343 1427,-343 1427,5 -4,5"/>
<!-- proc~json_get_array_with_path -->
<g id="node1" class="node"><title>proc~json_get_array_with_path</title>
<polygon fill="none" stroke="black" points="136,-200 7.10543e-14,-200 0,-174 136,-174 136,-200"/>
<text text-anchor="middle" x="68" y="-184.55" font-family="Helvetica,sans-Serif" font-size="10.50">json_get_array_with_path</text>
</g>
<!-- proc~json_get_by_path -->
<g id="node2" class="node"><title>proc~json_get_by_path</title>
<a xlink:href="../proc/json_get_by_path.html" xlink:title="json_get_by_path">
<polygon fill="#d9534f" stroke="#d9534f" points="269,-260 173,-260 173,-234 269,-234 269,-260"/>
<text text-anchor="middle" x="221" y="-244.55" font-family="Helvetica,sans-Serif" font-size="10.50" fill="white">json_get_by_path</text>
</a>
</g>
<!-- proc~json_get_array_with_path&#45;&gt;proc~json_get_by_path -->
<g id="edge44" class="edge"><title>proc~json_get_array_with_path&#45;&gt;proc~json_get_by_path</title>
<path fill="none" stroke="black" d="M101.199,-200.019C123.777,-208.873 153.859,-220.67 178.23,-230.227"/>
<polygon fill="black" stroke="black" points="177.015,-233.51 187.602,-233.903 179.57,-226.993 177.015,-233.51"/>
</g>
<!-- proc~json_get_array -->
<g id="node3" class="node"><title>proc~json_get_array</title>
<a xlink:href="../proc/json_get_array.html" xlink:title="json_get_array">
<polygon fill="#d9534f" stroke="#d9534f" points="818,-58 734,-58 734,-32 818,-32 818,-58"/>
<text text-anchor="middle" x="776" y="-42.55" font-family="Helvetica,sans-Serif" font-size="10.50" fill="white">json_get_array</text>
</a>
</g>
<!-- proc~json_get_array_with_path&#45;&gt;proc~json_get_array -->
<g id="edge46" class="edge"><title>proc~json_get_array_with_path&#45;&gt;proc~json_get_array</title>
<path fill="none" stroke="black" d="M81.8896,-173.929C100.736,-156.989 136.184,-127.868 172,-113 362.996,-33.713 615.528,-35.9683 723.453,-41.3851"/>
<polygon fill="black" stroke="black" points="723.574,-44.8965 733.746,-41.9339 723.946,-37.9064 723.574,-44.8965"/>
</g>
<!-- proc~json_clear_exceptions -->
<g id="node4" class="node"><title>proc~json_clear_exceptions</title>
<a xlink:href="../proc/json_clear_exceptions.html" xlink:title="json_clear_exceptions">
<polygon fill="#d9534f" stroke="#d9534f" points="424,-339 306,-339 306,-313 424,-313 424,-339"/>
<text text-anchor="middle" x="365" y="-323.55" font-family="Helvetica,sans-Serif" font-size="10.50" fill="white">json_clear_exceptions</text>
</a>
</g>
<!-- proc~json_get_array_with_path&#45;&gt;proc~json_clear_exceptions -->
<g id="edge48" class="edge"><title>proc~json_get_array_with_path&#45;&gt;proc~json_clear_exceptions</title>
<path fill="none" stroke="black" d="M81.2725,-200.265C99.9743,-218.259 135.853,-250.3 172,-269 210.883,-289.115 257.94,-303.195 295.854,-312.328"/>
<polygon fill="black" stroke="black" points="295.252,-315.782 305.787,-314.659 296.851,-308.967 295.252,-315.782"/>
</g>
<!-- interface~throw_exception -->
<g id="node5" class="node"><title>interface~throw_exception</title>
<a xlink:href="../interface/throw_exception.html" xlink:title="throw_exception">
<polygon fill="#a7506f" stroke="#a7506f" points="987,-143 897,-143 897,-117 987,-117 987,-143"/>
<text text-anchor="middle" x="942" y="-127.55" font-family="Helvetica,sans-Serif" font-size="10.50" fill="white">throw_exception</text>
</a>
</g>
<!-- proc~json_get_array_with_path&#45;&gt;interface~throw_exception -->
<g id="edge50" class="edge"><title>proc~json_get_array_with_path&#45;&gt;interface~throw_exception</title>
<path fill="none" stroke="black" d="M136.167,-180.02C183.724,-175.317 248.684,-169.225 306,-165 520.211,-149.211 775.491,-137.233 886.205,-132.372"/>
<polygon fill="black" stroke="black" points="886.624,-135.857 896.462,-131.924 886.319,-128.864 886.624,-135.857"/>
</g>
<!-- proc~json_get_by_path&#45;&gt;proc~json_clear_exceptions -->
<g id="edge28" class="edge"><title>proc~json_get_by_path&#45;&gt;proc~json_clear_exceptions</title>
<path fill="none" stroke="black" d="M240.869,-260.092C257.848,-271.051 283.093,-286.808 306,-299 312.147,-302.271 318.765,-305.537 325.268,-308.609"/>
<polygon fill="black" stroke="black" points="324.101,-311.926 334.646,-312.95 327.041,-305.573 324.101,-311.926"/>
</g>
<!-- proc~json_get_by_path&#45;&gt;interface~throw_exception -->
<g id="edge24" class="edge"><title>proc~json_get_by_path&#45;&gt;interface~throw_exception</title>
<path fill="none" stroke="black" d="M269.598,-250.193C379.3,-255.599 652.718,-258.889 860,-176 878.624,-168.552 898.263,-157.656 913.65,-148.337"/>
<polygon fill="black" stroke="black" points="915.509,-151.303 922.179,-143.071 911.832,-145.347 915.509,-151.303"/>
</g>
<!-- interface~json_get_child -->
<g id="node6" class="node"><title>interface~json_get_child</title>
<a xlink:href="../interface/json_get_child.html" xlink:title="json_get_child">
<polygon fill="#a7506f" stroke="#a7506f" points="405,-200 325,-200 325,-174 405,-174 405,-200"/>
<text text-anchor="middle" x="365" y="-184.55" font-family="Helvetica,sans-Serif" font-size="10.50" fill="white">json_get_child</text>
</a>
</g>
<!-- proc~json_get_by_path&#45;&gt;interface~json_get_child -->
<g id="edge26" class="edge"><title>proc~json_get_by_path&#45;&gt;interface~json_get_child</title>
<path fill="none" stroke="black" d="M252.246,-233.981C273.236,-225.235 301.115,-213.619 323.9,-204.125"/>
<polygon fill="black" stroke="black" points="325.433,-207.278 333.318,-200.201 322.741,-200.816 325.433,-207.278"/>
</g>
<!-- proc~string_to_integer -->
<g id="node7" class="node"><title>proc~string_to_integer</title>
<a xlink:href="../proc/string_to_integer.html" xlink:title="string_to_integer">
<polygon fill="#d94e8f" stroke="#d94e8f" points="604,-301 512,-301 512,-275 604,-275 604,-301"/>
<text text-anchor="middle" x="558" y="-285.55" font-family="Helvetica,sans-Serif" font-size="10.50" fill="white">string_to_integer</text>
</a>
</g>
<!-- proc~json_get_by_path&#45;&gt;proc~string_to_integer -->
<g id="edge30" class="edge"><title>proc~json_get_by_path&#45;&gt;proc~string_to_integer</title>
<path fill="none" stroke="black" d="M269.922,-255.543C281.716,-257.468 294.292,-259.41 306,-261 372.896,-270.085 450.124,-277.979 501.271,-282.846"/>
<polygon fill="black" stroke="black" points="501.174,-286.352 511.459,-283.808 501.832,-279.383 501.174,-286.352"/>
</g>
<!-- proc~json_get_array&#45;&gt;interface~throw_exception -->
<g id="edge32" class="edge"><title>proc~json_get_array&#45;&gt;interface~throw_exception</title>
<path fill="none" stroke="black" d="M818.192,-52.5764C831.943,-55.9461 847.004,-60.6318 860,-67 882.789,-78.1669 905.413,-96.2106 921.106,-110.132"/>
<polygon fill="black" stroke="black" points="918.888,-112.846 928.644,-116.978 923.594,-107.664 918.888,-112.846"/>
</g>
<!-- proc~json_count -->
<g id="node12" class="node"><title>proc~json_count</title>
<a xlink:href="../proc/json_count.html" xlink:title="json_count">
<polygon fill="#d94e8f" stroke="#d94e8f" points="974,-78 910,-78 910,-52 974,-52 974,-78"/>
<text text-anchor="middle" x="942" y="-62.55" font-family="Helvetica,sans-Serif" font-size="10.50" fill="white">json_count</text>
</a>
</g>
<!-- proc~json_get_array&#45;&gt;proc~json_count -->
<g id="edge34" class="edge"><title>proc~json_get_array&#45;&gt;proc~json_count</title>
<path fill="none" stroke="black" d="M818.318,-50.0986C843.281,-53.1062 874.767,-56.8996 899.723,-59.9064"/>
<polygon fill="black" stroke="black" points="899.634,-63.4208 909.98,-61.1422 900.471,-56.4711 899.634,-63.4208"/>
</g>
<!-- proc~json_throw_exception -->
<g id="node32" class="node"><title>proc~json_throw_exception</title>
<a xlink:href="../proc/json_throw_exception.html" xlink:title="json_throw_exception">
<polygon fill="#d9534f" stroke="#d9534f" points="1322,-122 1206,-122 1206,-96 1322,-96 1322,-122"/>
<text text-anchor="middle" x="1264" y="-106.55" font-family="Helvetica,sans-Serif" font-size="10.50" fill="white">json_throw_exception</text>
</a>
</g>
<!-- interface~throw_exception&#45;&gt;proc~json_throw_exception -->
<g id="edge40" class="edge"><title>interface~throw_exception&#45;&gt;proc~json_throw_exception</title>
<path fill="none" stroke="black" stroke-dasharray="5,2" d="M987.793,-127.014C1042.07,-123.474 1133.03,-117.542 1195.65,-113.458"/>
<polygon fill="black" stroke="black" points="1196.08,-116.937 1205.83,-112.794 1195.62,-109.952 1196.08,-116.937"/>
</g>
<!-- proc~wrap_json_throw_exception -->
<g id="node33" class="node"><title>proc~wrap_json_throw_exception</title>
<a xlink:href="../proc/wrap_json_throw_exception.html" xlink:title="wrap_json_throw_exception">
<polygon fill="#d9534f" stroke="#d9534f" points="1169,-102 1025,-102 1025,-76 1169,-76 1169,-102"/>
<text text-anchor="middle" x="1097" y="-86.55" font-family="Helvetica,sans-Serif" font-size="10.50" fill="white">wrap_json_throw_exception</text>
</a>
</g>
<!-- interface~throw_exception&#45;&gt;proc~wrap_json_throw_exception -->
<g id="edge42" class="edge"><title>interface~throw_exception&#45;&gt;proc~wrap_json_throw_exception</title>
<path fill="none" stroke="black" stroke-dasharray="5,2" d="M987.667,-117.92C1003.27,-113.793 1020.96,-109.114 1037.49,-104.742"/>
<polygon fill="black" stroke="black" points="1038.83,-108.007 1047.6,-102.066 1037.04,-101.24 1038.83,-108.007"/>
</g>
<!-- proc~json_value_get_by_index -->
<g id="node8" class="node"><title>proc~json_value_get_by_index</title>
<a xlink:href="../proc/json_value_get_by_index.html" xlink:title="json_value_get_by_index">
<polygon fill="#d9534f" stroke="#d9534f" points="624,-219 492,-219 492,-193 624,-193 624,-219"/>
<text text-anchor="middle" x="558" y="-203.55" font-family="Helvetica,sans-Serif" font-size="10.50" fill="white">json_value_get_by_index</text>
</a>
</g>
<!-- interface~json_get_child&#45;&gt;proc~json_value_get_by_index -->
<g id="edge16" class="edge"><title>interface~json_get_child&#45;&gt;proc~json_value_get_by_index</title>
<path fill="none" stroke="black" stroke-dasharray="5,2" d="M405.93,-191.029C427.812,-193.184 455.475,-195.907 481.191,-198.438"/>
<polygon fill="black" stroke="black" points="481.015,-201.938 491.31,-199.435 481.701,-194.972 481.015,-201.938"/>
</g>
<!-- proc~json_value_get_by_name_chars -->
<g id="node9" class="node"><title>proc~json_value_get_by_name_chars</title>
<a xlink:href="../proc/json_value_get_by_name_chars.html" xlink:title="json_value_get_by_name_chars">
<polygon fill="#d9534f" stroke="#d9534f" points="859,-102 693,-102 693,-76 859,-76 859,-102"/>
<text text-anchor="middle" x="776" y="-86.55" font-family="Helvetica,sans-Serif" font-size="10.50" fill="white">json_value_get_by_name_chars</text>
</a>
</g>
<!-- interface~json_get_child&#45;&gt;proc~json_value_get_by_name_chars -->
<g id="edge18" class="edge"><title>interface~json_get_child&#45;&gt;proc~json_value_get_by_name_chars</title>
<path fill="none" stroke="black" stroke-dasharray="5,2" d="M405.533,-177.335C476.929,-160.311 625.647,-124.851 711.356,-104.414"/>
<polygon fill="black" stroke="black" points="712.316,-107.783 721.232,-102.059 710.693,-100.974 712.316,-107.783"/>
</g>
<!-- proc~wrap_json_value_get_by_name_chars -->
<g id="node10" class="node"><title>proc~wrap_json_value_get_by_name_chars</title>
<a xlink:href="../proc/wrap_json_value_get_by_name_chars.html" xlink:title="wrap_json_value_get_by_name_chars">
<polygon fill="#d9534f" stroke="#d9534f" points="656,-99 460,-99 460,-73 656,-73 656,-99"/>
<text text-anchor="middle" x="558" y="-83.55" font-family="Helvetica,sans-Serif" font-size="10.50" fill="white">wrap_json_value_get_by_name_chars</text>
</a>
</g>
<!-- interface~json_get_child&#45;&gt;proc~wrap_json_value_get_by_name_chars -->
<g id="edge20" class="edge"><title>interface~json_get_child&#45;&gt;proc~wrap_json_value_get_by_name_chars</title>
<path fill="none" stroke="black" stroke-dasharray="5,2" d="M390.231,-173.796C424.424,-155.902 485.589,-123.894 523.862,-103.865"/>
<polygon fill="black" stroke="black" points="525.831,-106.785 533.068,-99.0472 522.585,-100.583 525.831,-106.785"/>
</g>
<!-- proc~string_to_integer&#45;&gt;interface~throw_exception -->
<g id="edge22" class="edge"><title>proc~string_to_integer&#45;&gt;interface~throw_exception</title>
<path fill="none" stroke="black" d="M604.641,-295.898C667.582,-304.028 780.921,-309.52 860,-261 900.301,-236.272 923.974,-183.513 934.815,-153.032"/>
<polygon fill="black" stroke="black" points="938.231,-153.857 938.12,-143.262 931.6,-151.613 938.231,-153.857"/>
</g>
<!-- proc~json_value_get_by_index&#45;&gt;interface~throw_exception -->
<g id="edge2" class="edge"><title>proc~json_value_get_by_index&#45;&gt;interface~throw_exception</title>
<path fill="none" stroke="black" d="M624.012,-192.935C698.101,-178.272 817.003,-154.739 886.497,-140.985"/>
<polygon fill="black" stroke="black" points="887.251,-144.404 896.381,-139.029 885.891,-137.537 887.251,-144.404"/>
</g>
<!-- proc~json_value_get_by_name_chars&#45;&gt;interface~throw_exception -->
<g id="edge4" class="edge"><title>proc~json_value_get_by_name_chars&#45;&gt;interface~throw_exception</title>
<path fill="none" stroke="black" d="M828.98,-102.085C847.398,-106.635 868.096,-111.747 886.697,-116.341"/>
<polygon fill="black" stroke="black" points="885.951,-119.762 896.498,-118.762 887.629,-112.966 885.951,-119.762"/>
</g>
<!-- proc~json_value_get_by_name_chars&#45;&gt;proc~json_count -->
<g id="edge6" class="edge"><title>proc~json_value_get_by_name_chars&#45;&gt;proc~json_count</title>
<path fill="none" stroke="black" d="M859.973,-76.8594C873.656,-74.8811 887.304,-72.9078 899.429,-71.1548"/>
<polygon fill="black" stroke="black" points="900.259,-74.5714 909.655,-69.6764 899.257,-67.6434 900.259,-74.5714"/>
</g>
<!-- proc~wrap_json_value_get_by_name_chars&#45;&gt;proc~json_value_get_by_name_chars -->
<g id="edge14" class="edge"><title>proc~wrap_json_value_get_by_name_chars&#45;&gt;proc~json_value_get_by_name_chars</title>
<path fill="none" stroke="black" d="M656.159,-87.3508C664.85,-87.4704 673.634,-87.5913 682.287,-87.7104"/>
<polygon fill="black" stroke="black" points="682.325,-91.2111 692.372,-87.8492 682.421,-84.2118 682.325,-91.2111"/>
</g>
<!-- interface~to_unicode -->
<g id="node15" class="node"><title>interface~to_unicode</title>
<a xlink:href="../interface/to_unicode.html" xlink:title="to_unicode">
<polygon fill="#a7506f" stroke="#a7506f" points="1296,-48 1232,-48 1232,-22 1296,-22 1296,-48"/>
<text text-anchor="middle" x="1264" y="-32.55" font-family="Helvetica,sans-Serif" font-size="10.50" fill="white">to_unicode</text>
</a>
</g>
<!-- proc~wrap_json_value_get_by_name_chars&#45;&gt;interface~to_unicode -->
<g id="edge12" class="edge"><title>proc~wrap_json_value_get_by_name_chars&#45;&gt;interface~to_unicode</title>
<path fill="none" stroke="black" d="M578.319,-72.945C603.722,-57.4725 649.098,-32.582 692,-23 885.609,20.2422 1125.28,-11.2918 1221.29,-27.2459"/>
<polygon fill="black" stroke="black" points="1220.77,-30.7061 1231.21,-28.9235 1221.93,-23.8042 1220.77,-30.7061"/>
</g>
<!-- proc~to_uni_vec -->
<g id="node16" class="node"><title>proc~to_uni_vec</title>
<a xlink:href="../proc/to_uni_vec.html" xlink:title="to_uni_vec">
<polygon fill="#d94e8f" stroke="#d94e8f" points="1422,-70 1358,-70 1358,-44 1422,-44 1422,-70"/>
<text text-anchor="middle" x="1390" y="-54.55" font-family="Helvetica,sans-Serif" font-size="10.50" fill="white">to_uni_vec</text>
</a>
</g>
<!-- interface~to_unicode&#45;&gt;proc~to_uni_vec -->
<g id="edge8" class="edge"><title>interface~to_unicode&#45;&gt;proc~to_uni_vec</title>
<path fill="none" stroke="black" stroke-dasharray="5,2" d="M1296.78,-40.7228C1312.36,-43.443 1331.17,-46.7274 1347.8,-49.6314"/>
<polygon fill="black" stroke="black" points="1347.37,-53.1097 1357.82,-51.382 1348.58,-46.214 1347.37,-53.1097"/>
</g>
<!-- proc~to_uni -->
<g id="node17" class="node"><title>proc~to_uni</title>
<a xlink:href="../proc/to_uni.html" xlink:title="to_uni">
<polygon fill="#d94e8f" stroke="#d94e8f" points="1417,-26 1363,-26 1363,-1.24345e-14 1417,-3.55271e-15 1417,-26"/>
<text text-anchor="middle" x="1390" y="-10.55" font-family="Helvetica,sans-Serif" font-size="10.50" fill="white">to_uni</text>
</a>
</g>
<!-- interface~to_unicode&#45;&gt;proc~to_uni -->
<g id="edge10" class="edge"><title>interface~to_unicode&#45;&gt;proc~to_uni</title>
<path fill="none" stroke="black" stroke-dasharray="5,2" d="M1296.78,-29.2772C1313.97,-26.276 1335.09,-22.5878 1352.88,-19.4816"/>
<polygon fill="black" stroke="black" points="1353.66,-22.8974 1362.91,-17.7295 1352.46,-16.0017 1353.66,-22.8974"/>
</g>
<!-- proc~wrap_json_throw_exception&#45;&gt;interface~to_unicode -->
<g id="edge38" class="edge"><title>proc~wrap_json_throw_exception&#45;&gt;interface~to_unicode</title>
<path fill="none" stroke="black" d="M1137.43,-75.9281C1163.02,-67.6524 1196.05,-56.9728 1221.95,-48.5979"/>
<polygon fill="black" stroke="black" points="1223.06,-51.9178 1231.49,-45.5108 1220.9,-45.2574 1223.06,-51.9178"/>
</g>
<!-- proc~wrap_json_throw_exception&#45;&gt;proc~json_throw_exception -->
<g id="edge36" class="edge"><title>proc~wrap_json_throw_exception&#45;&gt;proc~json_throw_exception</title>
<path fill="none" stroke="black" d="M1169.76,-97.7141C1178.42,-98.7506 1187.23,-99.8059 1195.82,-100.834"/>
<polygon fill="black" stroke="black" points="1195.43,-104.313 1205.77,-102.027 1196.26,-97.3623 1195.43,-104.313"/>
</g>
</g>
</svg>
