<?xml version="1.0" encoding="UTF-8" standalone="no"?>
<!DOCTYPE svg PUBLIC "-//W3C//DTD SVG 1.1//EN"
 "http://www.w3.org/Graphics/SVG/1.1/DTD/svg11.dtd">
<!-- Generated by graphviz version 2.26.3 (20100126.1600)
 -->
<!-- Title: proc~~wrap_json_value_create_string~~CallsGraph Pages: 1 -->
<svg width="610pt" height="166pt"
 viewBox="0.00 0.00 610.00 166.00" xmlns="http://www.w3.org/2000/svg" xmlns:xlink="http://www.w3.org/1999/xlink">
<g id="graph1" class="graph" transform="scale(1 1) rotate(0) translate(4 162)">
<title>proc~~wrap_json_value_create_string~~CallsGraph</title>
<polygon fill="white" stroke="white" points="-4,5 -4,-162 607,-162 607,5 -4,5"/>
<!-- proc~wrap_json_value_create_string -->
<g id="node1" class="node"><title>proc~wrap_json_value_create_string</title>
<polygon fill="none" stroke="black" points="161,-92 1,-92 1,-66 161,-66 161,-92"/>
<text text-anchor="middle" x="81" y="-76.55" font-family="Helvetica,sans-Serif" font-size="10.50">wrap_json_value_create_string</text>
</g>
<!-- interface~to_unicode -->
<g id="node2" class="node"><title>interface~to_unicode</title>
<a xlink:href="../interface/to_unicode.html" xlink:title="to_unicode">
<polygon fill="#a7506f" stroke="#a7506f" points="296,-114 232,-114 232,-88 296,-88 296,-114"/>
<text text-anchor="middle" x="264" y="-98.55" font-family="Helvetica,sans-Serif" font-size="10.50" fill="white">to_unicode</text>
</a>
</g>
<!-- proc~wrap_json_value_create_string&#45;&gt;interface~to_unicode -->
<g id="edge12" class="edge"><title>proc~wrap_json_value_create_string&#45;&gt;interface~to_unicode</title>
<path fill="none" stroke="black" d="M161.533,-88.6815C182.054,-91.1485 203.321,-93.7053 221.126,-95.8458"/>
<polygon fill="black" stroke="black" points="220.831,-99.3354 231.178,-97.0541 221.667,-92.3855 220.831,-99.3354"/>
</g>
<!-- proc~json_value_create_string -->
<g id="node3" class="node"><title>proc~json_value_create_string</title>
<a xlink:href="../proc/json_value_create_string.html" xlink:title="json_value_create_string">
<polygon fill="#d9534f" stroke="#d9534f" points="330,-70 198,-70 198,-44 330,-44 330,-70"/>
<text text-anchor="middle" x="264" y="-54.55" font-family="Helvetica,sans-Serif" font-size="10.50" fill="white">json_value_create_string</text>
</a>
</g>
<!-- proc~wrap_json_value_create_string&#45;&gt;proc~json_value_create_string -->
<g id="edge14" class="edge"><title>proc~wrap_json_value_create_string&#45;&gt;proc~json_value_create_string</title>
<path fill="none" stroke="black" d="M161.533,-69.3185C170.286,-68.2662 179.175,-67.1976 187.873,-66.1519"/>
<polygon fill="black" stroke="black" points="188.466,-69.6059 197.977,-64.9372 187.63,-62.6559 188.466,-69.6059"/>
</g>
<!-- proc~to_uni_vec -->
<g id="node4" class="node"><title>proc~to_uni_vec</title>
<a xlink:href="../proc/to_uni_vec.html" xlink:title="to_uni_vec">
<polygon fill="#d94e8f" stroke="#d94e8f" points="448,-158 384,-158 384,-132 448,-132 448,-158"/>
<text text-anchor="middle" x="416" y="-142.55" font-family="Helvetica,sans-Serif" font-size="10.50" fill="white">to_uni_vec</text>
</a>
</g>
<!-- interface~to_unicode&#45;&gt;proc~to_uni_vec -->
<g id="edge2" class="edge"><title>interface~to_unicode&#45;&gt;proc~to_uni_vec</title>
<path fill="none" stroke="black" stroke-dasharray="5,2" d="M296.608,-110.439C319.302,-117.008 349.758,-125.825 374.23,-132.909"/>
<polygon fill="black" stroke="black" points="373.389,-136.309 383.968,-135.728 375.335,-129.585 373.389,-136.309"/>
</g>
<!-- proc~to_uni -->
<g id="node5" class="node"><title>proc~to_uni</title>
<a xlink:href="../proc/to_uni.html" xlink:title="to_uni">
<polygon fill="#d94e8f" stroke="#d94e8f" points="443,-114 389,-114 389,-88 443,-88 443,-114"/>
<text text-anchor="middle" x="416" y="-98.55" font-family="Helvetica,sans-Serif" font-size="10.50" fill="white">to_uni</text>
</a>
</g>
<!-- interface~to_unicode&#45;&gt;proc~to_uni -->
<g id="edge4" class="edge"><title>interface~to_unicode&#45;&gt;proc~to_uni</title>
<path fill="none" stroke="black" stroke-dasharray="5,2" d="M296.608,-101C320.575,-101 353.2,-101 378.289,-101"/>
<polygon fill="black" stroke="black" points="378.533,-104.5 388.533,-101 378.533,-97.5001 378.533,-104.5"/>
</g>
<!-- proc~json_value_create -->
<g id="node8" class="node"><title>proc~json_value_create</title>
<a xlink:href="../proc/json_value_create.html" xlink:title="json_value_create">
<polygon fill="#d9534f" stroke="#d9534f" points="466,-70 366,-70 366,-44 466,-44 466,-70"/>
<text text-anchor="middle" x="416" y="-54.55" font-family="Helvetica,sans-Serif" font-size="10.50" fill="white">json_value_create</text>
</a>
</g>
<!-- proc~json_value_create_string&#45;&gt;proc~json_value_create -->
<g id="edge8" class="edge"><title>proc~json_value_create_string&#45;&gt;proc~json_value_create</title>
<path fill="none" stroke="black" d="M330.227,-57C338.759,-57 347.457,-57 355.883,-57"/>
<polygon fill="black" stroke="black" points="355.996,-60.5001 365.996,-57 355.996,-53.5001 355.996,-60.5001"/>
</g>
<!-- proc~to_string -->
<g id="node9" class="node"><title>proc~to_string</title>
<a xlink:href="../proc/to_string.html" xlink:title="to_string">
<polygon fill="#d9534f" stroke="#d9534f" points="443,-26 389,-26 389,-1.24345e-14 443,-3.55271e-15 443,-26"/>
<text text-anchor="middle" x="416" y="-10.55" font-family="Helvetica,sans-Serif" font-size="10.50" fill="white">to_string</text>
</a>
</g>
<!-- proc~json_value_create_string&#45;&gt;proc~to_string -->
<g id="edge10" class="edge"><title>proc~json_value_create_string&#45;&gt;proc~to_string</title>
<path fill="none" stroke="black" d="M309.193,-43.9177C331.454,-37.4738 357.959,-29.8013 378.996,-23.7116"/>
<polygon fill="black" stroke="black" points="380.209,-27.0042 388.842,-20.8616 378.263,-20.2802 380.209,-27.0042"/>
</g>
<!-- proc~destroy_json_data -->
<g id="node10" class="node"><title>proc~destroy_json_data</title>
<a xlink:href="../proc/destroy_json_data.html" xlink:title="destroy_json_data">
<polygon fill="#d9534f" stroke="#d9534f" points="602,-26 502,-26 502,-1.24345e-14 602,-3.55271e-15 602,-26"/>
<text text-anchor="middle" x="552" y="-10.55" font-family="Helvetica,sans-Serif" font-size="10.50" fill="white">destroy_json_data</text>
</a>
</g>
<!-- proc~to_string&#45;&gt;proc~destroy_json_data -->
<g id="edge6" class="edge"><title>proc~to_string&#45;&gt;proc~destroy_json_data</title>
<path fill="none" stroke="black" d="M443.195,-13C457.06,-13 474.518,-13 491.366,-13"/>
<polygon fill="black" stroke="black" points="491.739,-16.5001 501.739,-13 491.739,-9.5001 491.739,-16.5001"/>
</g>
</g>
</svg>
