<?xml version="1.0" encoding="UTF-8" standalone="no"?>
<!DOCTYPE svg PUBLIC "-//W3C//DTD SVG 1.1//EN"
 "http://www.w3.org/Graphics/SVG/1.1/DTD/svg11.dtd">
<!-- Generated by graphviz version 2.26.3 (20100126.1600)
 -->
<!-- Title: proc~~json_get_string~~CallsGraph Pages: 1 -->
<svg width="641pt" height="107pt"
 viewBox="0.00 0.00 641.00 106.51" xmlns="http://www.w3.org/2000/svg" xmlns:xlink="http://www.w3.org/1999/xlink">
<g id="graph1" class="graph" transform="scale(0.977134 0.977134) rotate(0) translate(4 105)">
<title>proc~~json_get_string~~CallsGraph</title>
<polygon fill="white" stroke="white" points="-4,5 -4,-105 653,-105 653,5 -4,5"/>
<!-- proc~json_get_string -->
<g id="node1" class="node"><title>proc~json_get_string</title>
<polygon fill="none" stroke="black" points="85,-68 1,-68 1,-42 85,-42 85,-68"/>
<text text-anchor="middle" x="43" y="-52.55" font-family="Helvetica,sans-Serif" font-size="10.50">json_get_string</text>
</g>
<!-- interface~to_unicode -->
<g id="node2" class="node"><title>interface~to_unicode</title>
<a xlink:href="../interface/to_unicode.html" xlink:title="to_unicode">
<polygon fill="#a7506f" stroke="#a7506f" points="522,-79 458,-79 458,-53 522,-53 522,-79"/>
<text text-anchor="middle" x="490" y="-63.55" font-family="Helvetica,sans-Serif" font-size="10.50" fill="white">to_unicode</text>
</a>
</g>
<!-- proc~json_get_string&#45;&gt;interface~to_unicode -->
<g id="edge14" class="edge"><title>proc~json_get_string&#45;&gt;interface~to_unicode</title>
<path fill="none" stroke="black" d="M85.6393,-56.0862C97.4189,-56.3844 110.205,-56.7065 122,-57 239.498,-59.9241 378.1,-63.2918 446.842,-64.9565"/>
<polygon fill="black" stroke="black" points="447.18,-68.4656 457.262,-65.2088 447.349,-61.4677 447.18,-68.4656"/>
</g>
<!-- interface~throw_exception -->
<g id="node3" class="node"><title>interface~throw_exception</title>
<a xlink:href="../interface/throw_exception.html" xlink:title="throw_exception">
<polygon fill="#a7506f" stroke="#a7506f" points="213,-48 123,-48 123,-22 213,-22 213,-48"/>
<text text-anchor="middle" x="168" y="-32.55" font-family="Helvetica,sans-Serif" font-size="10.50" fill="white">throw_exception</text>
</a>
</g>
<!-- proc~json_get_string&#45;&gt;interface~throw_exception -->
<g id="edge16" class="edge"><title>proc~json_get_string&#45;&gt;interface~throw_exception</title>
<path fill="none" stroke="black" d="M85.6683,-48.1731C94.1985,-46.8082 103.278,-45.3554 112.176,-43.9318"/>
<polygon fill="black" stroke="black" points="112.783,-47.3793 122.105,-42.3432 111.677,-40.4672 112.783,-47.3793"/>
</g>
<!-- proc~to_uni_vec -->
<g id="node4" class="node"><title>proc~to_uni_vec</title>
<a xlink:href="../proc/to_uni_vec.html" xlink:title="to_uni_vec">
<polygon fill="#d94e8f" stroke="#d94e8f" points="648,-101 584,-101 584,-75 648,-75 648,-101"/>
<text text-anchor="middle" x="616" y="-85.55" font-family="Helvetica,sans-Serif" font-size="10.50" fill="white">to_uni_vec</text>
</a>
</g>
<!-- interface~to_unicode&#45;&gt;proc~to_uni_vec -->
<g id="edge2" class="edge"><title>interface~to_unicode&#45;&gt;proc~to_uni_vec</title>
<path fill="none" stroke="black" stroke-dasharray="5,2" d="M522.776,-71.7228C538.355,-74.443 557.166,-77.7274 573.798,-80.6314"/>
<polygon fill="black" stroke="black" points="573.371,-84.1097 583.824,-82.382 574.575,-77.214 573.371,-84.1097"/>
</g>
<!-- proc~to_uni -->
<g id="node5" class="node"><title>proc~to_uni</title>
<a xlink:href="../proc/to_uni.html" xlink:title="to_uni">
<polygon fill="#d94e8f" stroke="#d94e8f" points="643,-57 589,-57 589,-31 643,-31 643,-57"/>
<text text-anchor="middle" x="616" y="-41.55" font-family="Helvetica,sans-Serif" font-size="10.50" fill="white">to_uni</text>
</a>
</g>
<!-- interface~to_unicode&#45;&gt;proc~to_uni -->
<g id="edge4" class="edge"><title>interface~to_unicode&#45;&gt;proc~to_uni</title>
<path fill="none" stroke="black" stroke-dasharray="5,2" d="M522.776,-60.2772C539.965,-57.276 561.088,-53.5878 578.878,-50.4816"/>
<polygon fill="black" stroke="black" points="579.664,-53.8974 588.913,-48.7295 578.46,-47.0017 579.664,-53.8974"/>
</g>
<!-- proc~json_throw_exception -->
<g id="node8" class="node"><title>proc~json_throw_exception</title>
<a xlink:href="../proc/json_throw_exception.html" xlink:title="json_throw_exception">
<polygon fill="#d9534f" stroke="#d9534f" points="548,-26 432,-26 432,-1.24345e-14 548,-3.55271e-15 548,-26"/>
<text text-anchor="middle" x="490" y="-10.55" font-family="Helvetica,sans-Serif" font-size="10.50" fill="white">json_throw_exception</text>
</a>
</g>
<!-- interface~throw_exception&#45;&gt;proc~json_throw_exception -->
<g id="edge10" class="edge"><title>interface~throw_exception&#45;&gt;proc~json_throw_exception</title>
<path fill="none" stroke="black" stroke-dasharray="5,2" d="M208.449,-21.8955C221.559,-18.2578 236.264,-14.8107 250,-13 307.464,-5.42541 373.341,-6.0826 421.522,-8.26207"/>
<polygon fill="black" stroke="black" points="421.367,-11.7586 431.525,-8.74784 421.706,-4.76682 421.367,-11.7586"/>
</g>
<!-- proc~wrap_json_throw_exception -->
<g id="node9" class="node"><title>proc~wrap_json_throw_exception</title>
<a xlink:href="../proc/wrap_json_throw_exception.html" xlink:title="wrap_json_throw_exception">
<polygon fill="#d9534f" stroke="#d9534f" points="395,-48 251,-48 251,-22 395,-22 395,-48"/>
<text text-anchor="middle" x="323" y="-32.55" font-family="Helvetica,sans-Serif" font-size="10.50" fill="white">wrap_json_throw_exception</text>
</a>
</g>
<!-- interface~throw_exception&#45;&gt;proc~wrap_json_throw_exception -->
<g id="edge12" class="edge"><title>interface~throw_exception&#45;&gt;proc~wrap_json_throw_exception</title>
<path fill="none" stroke="black" stroke-dasharray="5,2" d="M213.667,-35C222.036,-35 231.006,-35 240.075,-35"/>
<polygon fill="black" stroke="black" points="240.329,-38.5001 250.329,-35 240.329,-31.5001 240.329,-38.5001"/>
</g>
<!-- proc~wrap_json_throw_exception&#45;&gt;interface~to_unicode -->
<g id="edge8" class="edge"><title>proc~wrap_json_throw_exception&#45;&gt;interface~to_unicode</title>
<path fill="none" stroke="black" d="M393.339,-48.0569C411.794,-51.4827 431.129,-55.0718 447.614,-58.132"/>
<polygon fill="black" stroke="black" points="447.006,-61.5789 457.477,-59.9628 448.284,-54.6964 447.006,-61.5789"/>
</g>
<!-- proc~wrap_json_throw_exception&#45;&gt;proc~json_throw_exception -->
<g id="edge6" class="edge"><title>proc~wrap_json_throw_exception&#45;&gt;proc~json_throw_exception</title>
<path fill="none" stroke="black" d="M395.763,-25.4145C404.418,-24.2743 413.229,-23.1135 421.817,-21.9822"/>
<polygon fill="black" stroke="black" points="422.316,-25.4468 431.773,-20.6706 421.401,-18.5068 422.316,-25.4468"/>
</g>
</g>
</svg>
