<?xml version="1.0" encoding="UTF-8" standalone="no"?>
<!DOCTYPE svg PUBLIC "-//W3C//DTD SVG 1.1//EN"
 "http://www.w3.org/Graphics/SVG/1.1/DTD/svg11.dtd">
<!-- Generated by graphviz version 2.26.3 (20100126.1600)
 -->
<!-- Title: proc~~parse_number~~CallsGraph Pages: 1 -->
<svg width="641pt" height="224pt"
 viewBox="0.00 0.00 641.00 224.36" xmlns="http://www.w3.org/2000/svg" xmlns:xlink="http://www.w3.org/1999/xlink">
<g id="graph1" class="graph" transform="scale(0.811392 0.811392) rotate(0) translate(4 272.506)">
<title>proc~~parse_number~~CallsGraph</title>
<polygon fill="white" stroke="white" points="-4,5 -4,-272.506 787,-272.506 787,5 -4,5"/>
<!-- proc~parse_number -->
<g id="node1" class="node"><title>proc~parse_number</title>
<polygon fill="none" stroke="black" points="82,-158 4.26326e-14,-158 0,-132 82,-132 82,-158"/>
<text text-anchor="middle" x="41" y="-142.55" font-family="Helvetica,sans-Serif" font-size="10.50">parse_number</text>
</g>
<!-- interface~throw_exception -->
<g id="node2" class="node"><title>interface~throw_exception</title>
<a xlink:href="../interface/throw_exception.html" xlink:title="throw_exception">
<polygon fill="#a7506f" stroke="#a7506f" points="343,-180 253,-180 253,-154 343,-154 343,-180"/>
<text text-anchor="middle" x="298" y="-164.55" font-family="Helvetica,sans-Serif" font-size="10.50" fill="white">throw_exception</text>
</a>
</g>
<!-- proc~parse_number&#45;&gt;interface~throw_exception -->
<g id="edge26" class="edge"><title>proc~parse_number&#45;&gt;interface~throw_exception</title>
<path fill="none" stroke="black" d="M45.5877,-158.312C54.8381,-182.79 78.3012,-234.331 118,-255 155.056,-274.293 173.495,-271.209 212,-255 243.871,-241.584 269.822,-209.949 284.597,-188.5"/>
<polygon fill="black" stroke="black" points="287.615,-190.281 290.229,-180.014 281.783,-186.41 287.615,-190.281"/>
</g>
<!-- proc~pop_char -->
<g id="node3" class="node"><title>proc~pop_char</title>
<a xlink:href="../proc/pop_char.html" xlink:title="pop_char">
<polygon fill="#d94e8f" stroke="#d94e8f" points="194,-246 136,-246 136,-220 194,-220 194,-246"/>
<text text-anchor="middle" x="165" y="-230.55" font-family="Helvetica,sans-Serif" font-size="10.50" fill="white">pop_char</text>
</a>
</g>
<!-- proc~parse_number&#45;&gt;proc~pop_char -->
<g id="edge28" class="edge"><title>proc~parse_number&#45;&gt;proc~pop_char</title>
<path fill="none" stroke="black" d="M54.0192,-158.117C68.6602,-172.381 93.5922,-195.245 118,-211 120.725,-212.759 123.613,-214.458 126.564,-216.08"/>
<polygon fill="black" stroke="black" points="125.017,-219.22 135.508,-220.694 128.226,-212.999 125.017,-219.22"/>
</g>
<!-- proc~string_to_double -->
<g id="node4" class="node"><title>proc~string_to_double</title>
<a xlink:href="../proc/string_to_double.html" xlink:title="string_to_double">
<polygon fill="#d94e8f" stroke="#d94e8f" points="211,-202 119,-202 119,-176 211,-176 211,-202"/>
<text text-anchor="middle" x="165" y="-186.55" font-family="Helvetica,sans-Serif" font-size="10.50" fill="white">string_to_double</text>
</a>
</g>
<!-- proc~parse_number&#45;&gt;proc~string_to_double -->
<g id="edge30" class="edge"><title>proc~parse_number&#45;&gt;proc~string_to_double</title>
<path fill="none" stroke="black" d="M77.8684,-158.082C90.6216,-162.608 105.082,-167.739 118.507,-172.502"/>
<polygon fill="black" stroke="black" points="117.465,-175.846 128.06,-175.892 119.806,-169.249 117.465,-175.846"/>
</g>
<!-- proc~push_char -->
<g id="node5" class="node"><title>proc~push_char</title>
<a xlink:href="../proc/push_char.html" xlink:title="push_char">
<polygon fill="#d9534f" stroke="#d9534f" points="196,-114 134,-114 134,-88 196,-88 196,-114"/>
<text text-anchor="middle" x="165" y="-98.55" font-family="Helvetica,sans-Serif" font-size="10.50" fill="white">push_char</text>
</a>
</g>
<!-- proc~parse_number&#45;&gt;proc~push_char -->
<g id="edge32" class="edge"><title>proc~parse_number&#45;&gt;proc~push_char</title>
<path fill="none" stroke="black" d="M77.8684,-131.918C92.2747,-126.806 108.86,-120.921 123.669,-115.666"/>
<polygon fill="black" stroke="black" points="124.85,-118.961 133.103,-112.318 122.509,-112.364 124.85,-118.961"/>
</g>
<!-- proc~string_to_integer -->
<g id="node6" class="node"><title>proc~string_to_integer</title>
<a xlink:href="../proc/string_to_integer.html" xlink:title="string_to_integer">
<polygon fill="#d94e8f" stroke="#d94e8f" points="211,-158 119,-158 119,-132 211,-132 211,-158"/>
<text text-anchor="middle" x="165" y="-142.55" font-family="Helvetica,sans-Serif" font-size="10.50" fill="white">string_to_integer</text>
</a>
</g>
<!-- proc~parse_number&#45;&gt;proc~string_to_integer -->
<g id="edge34" class="edge"><title>proc~parse_number&#45;&gt;proc~string_to_integer</title>
<path fill="none" stroke="black" d="M82.2902,-145C90.5948,-145 99.4594,-145 108.186,-145"/>
<polygon fill="black" stroke="black" points="108.325,-148.5 118.325,-145 108.325,-141.5 108.325,-148.5"/>
</g>
<!-- proc~to_integer -->
<g id="node7" class="node"><title>proc~to_integer</title>
<a xlink:href="../proc/to_integer.html" xlink:title="to_integer">
<polygon fill="#d9534f" stroke="#d9534f" points="195,-70 135,-70 135,-44 195,-44 195,-70"/>
<text text-anchor="middle" x="165" y="-54.55" font-family="Helvetica,sans-Serif" font-size="10.50" fill="white">to_integer</text>
</a>
</g>
<!-- proc~parse_number&#45;&gt;proc~to_integer -->
<g id="edge36" class="edge"><title>proc~parse_number&#45;&gt;proc~to_integer</title>
<path fill="none" stroke="black" d="M54.0192,-131.883C68.6602,-117.619 93.5922,-94.7553 118,-79 120.264,-77.5388 122.64,-76.1187 125.072,-74.7501"/>
<polygon fill="black" stroke="black" points="126.8,-77.7953 134.017,-70.0381 123.538,-71.602 126.8,-77.7953"/>
</g>
<!-- proc~to_double -->
<g id="node8" class="node"><title>proc~to_double</title>
<a xlink:href="../proc/to_double.html" xlink:title="to_double">
<polygon fill="#d9534f" stroke="#d9534f" points="195,-26 135,-26 135,-1.24345e-14 195,-3.55271e-15 195,-26"/>
<text text-anchor="middle" x="165" y="-10.55" font-family="Helvetica,sans-Serif" font-size="10.50" fill="white">to_double</text>
</a>
</g>
<!-- proc~parse_number&#45;&gt;proc~to_double -->
<g id="edge38" class="edge"><title>proc~parse_number&#45;&gt;proc~to_double</title>
<path fill="none" stroke="black" d="M47.311,-131.808C58.6503,-109.303 84.4507,-63.1969 118,-35 120.483,-32.9132 123.197,-30.9783 126.028,-29.1937"/>
<polygon fill="black" stroke="black" points="127.754,-32.2389 134.758,-24.2899 124.325,-26.1358 127.754,-32.2389"/>
</g>
<!-- proc~json_throw_exception -->
<g id="node9" class="node"><title>proc~json_throw_exception</title>
<a xlink:href="../proc/json_throw_exception.html" xlink:title="json_throw_exception">
<polygon fill="#d9534f" stroke="#d9534f" points="682,-200 566,-200 566,-174 682,-174 682,-200"/>
<text text-anchor="middle" x="624" y="-184.55" font-family="Helvetica,sans-Serif" font-size="10.50" fill="white">json_throw_exception</text>
</a>
</g>
<!-- interface~throw_exception&#45;&gt;proc~json_throw_exception -->
<g id="edge10" class="edge"><title>interface~throw_exception&#45;&gt;proc~json_throw_exception</title>
<path fill="none" stroke="black" stroke-dasharray="5,2" d="M343.672,-169.802C398.782,-173.183 491.956,-178.899 555.641,-182.806"/>
<polygon fill="black" stroke="black" points="555.795,-186.322 565.991,-183.441 556.224,-179.335 555.795,-186.322"/>
</g>
<!-- proc~wrap_json_throw_exception -->
<g id="node10" class="node"><title>proc~wrap_json_throw_exception</title>
<a xlink:href="../proc/wrap_json_throw_exception.html" xlink:title="wrap_json_throw_exception">
<polygon fill="#d9534f" stroke="#d9534f" points="529,-159 385,-159 385,-133 529,-133 529,-159"/>
<text text-anchor="middle" x="457" y="-143.55" font-family="Helvetica,sans-Serif" font-size="10.50" fill="white">wrap_json_throw_exception</text>
</a>
</g>
<!-- interface~throw_exception&#45;&gt;proc~wrap_json_throw_exception -->
<g id="edge12" class="edge"><title>interface~throw_exception&#45;&gt;proc~wrap_json_throw_exception</title>
<path fill="none" stroke="black" stroke-dasharray="5,2" d="M343.563,-160.982C353.229,-159.706 363.72,-158.32 374.286,-156.925"/>
<polygon fill="black" stroke="black" points="374.959,-160.366 384.415,-155.587 374.043,-153.426 374.959,-160.366"/>
</g>
<!-- proc~string_to_double&#45;&gt;interface~throw_exception -->
<g id="edge14" class="edge"><title>proc~string_to_double&#45;&gt;interface~throw_exception</title>
<path fill="none" stroke="black" d="M211.144,-181.367C221.16,-179.71 231.858,-177.941 242.201,-176.23"/>
<polygon fill="black" stroke="black" points="243.093,-179.63 252.387,-174.545 241.95,-172.724 243.093,-179.63"/>
</g>
<!-- proc~push_char&#45;&gt;interface~throw_exception -->
<g id="edge18" class="edge"><title>proc~push_char&#45;&gt;interface~throw_exception</title>
<path fill="none" stroke="black" d="M193.41,-114.102C199.559,-116.993 206.012,-120.068 212,-123 229.089,-131.368 247.922,-140.961 263.597,-149.049"/>
<polygon fill="black" stroke="black" points="262.415,-152.378 272.904,-153.867 265.632,-146.162 262.415,-152.378"/>
</g>
<!-- proc~integer_to_string -->
<g id="node21" class="node"><title>proc~integer_to_string</title>
<a xlink:href="../proc/integer_to_string.html" xlink:title="integer_to_string">
<polygon fill="#d9534f" stroke="#d9534f" points="344,-114 252,-114 252,-88 344,-88 344,-114"/>
<text text-anchor="middle" x="298" y="-98.55" font-family="Helvetica,sans-Serif" font-size="10.50" fill="white">integer_to_string</text>
</a>
</g>
<!-- proc~push_char&#45;&gt;proc~integer_to_string -->
<g id="edge16" class="edge"><title>proc~push_char&#45;&gt;proc~integer_to_string</title>
<path fill="none" stroke="black" d="M196.519,-101C209.813,-101 225.715,-101 240.942,-101"/>
<polygon fill="black" stroke="black" points="241.336,-104.5 251.336,-101 241.336,-97.5001 241.336,-104.5"/>
</g>
<!-- proc~string_to_integer&#45;&gt;interface~throw_exception -->
<g id="edge20" class="edge"><title>proc~string_to_integer&#45;&gt;interface~throw_exception</title>
<path fill="none" stroke="black" d="M211.517,-152.695C221.405,-154.33 231.943,-156.073 242.138,-157.76"/>
<polygon fill="black" stroke="black" points="241.745,-161.242 252.182,-159.421 242.888,-154.336 241.745,-161.242"/>
</g>
<!-- proc~destroy_json_data -->
<g id="node25" class="node"><title>proc~destroy_json_data</title>
<a xlink:href="../proc/destroy_json_data.html" xlink:title="destroy_json_data">
<polygon fill="#d9534f" stroke="#d9534f" points="348,-48 248,-48 248,-22 348,-22 348,-48"/>
<text text-anchor="middle" x="298" y="-32.55" font-family="Helvetica,sans-Serif" font-size="10.50" fill="white">destroy_json_data</text>
</a>
</g>
<!-- proc~to_integer&#45;&gt;proc~destroy_json_data -->
<g id="edge22" class="edge"><title>proc~to_integer&#45;&gt;proc~destroy_json_data</title>
<path fill="none" stroke="black" d="M195.513,-51.9528C208.1,-49.8707 223.148,-47.3815 237.787,-44.96"/>
<polygon fill="black" stroke="black" points="238.526,-48.3855 247.821,-43.3004 237.383,-41.4793 238.526,-48.3855"/>
</g>
<!-- proc~to_double&#45;&gt;proc~destroy_json_data -->
<g id="edge24" class="edge"><title>proc~to_double&#45;&gt;proc~destroy_json_data</title>
<path fill="none" stroke="black" d="M195.18,-17.9921C207.821,-20.0831 222.988,-22.592 237.741,-25.0324"/>
<polygon fill="black" stroke="black" points="237.416,-28.5261 247.853,-26.705 238.558,-21.6199 237.416,-28.5261"/>
</g>
<!-- proc~wrap_json_throw_exception&#45;&gt;proc~json_throw_exception -->
<g id="edge6" class="edge"><title>proc~wrap_json_throw_exception&#45;&gt;proc~json_throw_exception</title>
<path fill="none" stroke="black" d="M510.299,-159.085C526.346,-163.025 544.113,-167.387 560.741,-171.469"/>
<polygon fill="black" stroke="black" points="560.375,-174.983 570.921,-173.969 562.044,-168.185 560.375,-174.983"/>
</g>
<!-- interface~to_unicode -->
<g id="node11" class="node"><title>interface~to_unicode</title>
<a xlink:href="../interface/to_unicode.html" xlink:title="to_unicode">
<polygon fill="#a7506f" stroke="#a7506f" points="656,-156 592,-156 592,-130 656,-130 656,-156"/>
<text text-anchor="middle" x="624" y="-140.55" font-family="Helvetica,sans-Serif" font-size="10.50" fill="white">to_unicode</text>
</a>
</g>
<!-- proc~wrap_json_throw_exception&#45;&gt;interface~to_unicode -->
<g id="edge8" class="edge"><title>proc~wrap_json_throw_exception&#45;&gt;interface~to_unicode</title>
<path fill="none" stroke="black" d="M529.763,-144.693C547.188,-144.38 565.248,-144.055 580.839,-143.775"/>
<polygon fill="black" stroke="black" points="581.264,-147.268 591.199,-143.589 581.138,-140.27 581.264,-147.268"/>
</g>
<!-- proc~to_uni_vec -->
<g id="node12" class="node"><title>proc~to_uni_vec</title>
<a xlink:href="../proc/to_uni_vec.html" xlink:title="to_uni_vec">
<polygon fill="#d94e8f" stroke="#d94e8f" points="782,-178 718,-178 718,-152 782,-152 782,-178"/>
<text text-anchor="middle" x="750" y="-162.55" font-family="Helvetica,sans-Serif" font-size="10.50" fill="white">to_uni_vec</text>
</a>
</g>
<!-- interface~to_unicode&#45;&gt;proc~to_uni_vec -->
<g id="edge2" class="edge"><title>interface~to_unicode&#45;&gt;proc~to_uni_vec</title>
<path fill="none" stroke="black" stroke-dasharray="5,2" d="M656.776,-148.723C672.355,-151.443 691.166,-154.727 707.798,-157.631"/>
<polygon fill="black" stroke="black" points="707.371,-161.11 717.824,-159.382 708.575,-154.214 707.371,-161.11"/>
</g>
<!-- proc~to_uni -->
<g id="node13" class="node"><title>proc~to_uni</title>
<a xlink:href="../proc/to_uni.html" xlink:title="to_uni">
<polygon fill="#d94e8f" stroke="#d94e8f" points="777,-134 723,-134 723,-108 777,-108 777,-134"/>
<text text-anchor="middle" x="750" y="-118.55" font-family="Helvetica,sans-Serif" font-size="10.50" fill="white">to_uni</text>
</a>
</g>
<!-- interface~to_unicode&#45;&gt;proc~to_uni -->
<g id="edge4" class="edge"><title>interface~to_unicode&#45;&gt;proc~to_uni</title>
<path fill="none" stroke="black" stroke-dasharray="5,2" d="M656.776,-137.277C673.965,-134.276 695.088,-130.588 712.878,-127.482"/>
<polygon fill="black" stroke="black" points="713.664,-130.897 722.913,-125.729 712.46,-124.002 713.664,-130.897"/>
</g>
</g>
</svg>
