<?xml version="1.0" encoding="UTF-8" standalone="no"?>
<!DOCTYPE svg PUBLIC "-//W3C//DTD SVG 1.1//EN"
 "http://www.w3.org/Graphics/SVG/1.1/DTD/svg11.dtd">
<!-- Generated by graphviz version 2.26.3 (20100126.1600)
 -->
<!-- Title: proc~~wrap_json_get_integer_with_path~~CallsGraph Pages: 1 -->
<svg width="641pt" height="127pt"
 viewBox="0.00 0.00 641.00 127.37" xmlns="http://www.w3.org/2000/svg" xmlns:xlink="http://www.w3.org/1999/xlink">
<g id="graph1" class="graph" transform="scale(0.388956 0.388956) rotate(0) translate(4 323.475)">
<title>proc~~wrap_json_get_integer_with_path~~CallsGraph</title>
<polygon fill="white" stroke="white" points="-4,5 -4,-323.475 1645,-323.475 1645,5 -4,5"/>
<!-- proc~wrap_json_get_integer_with_path -->
<g id="node1" class="node"><title>proc~wrap_json_get_integer_with_path</title>
<polygon fill="none" stroke="black" points="173,-262.475 1,-262.475 1,-236.475 173,-236.475 173,-262.475"/>
<text text-anchor="middle" x="87" y="-247.025" font-family="Helvetica,sans-Serif" font-size="10.50">wrap_json_get_integer_with_path</text>
</g>
<!-- interface~to_unicode -->
<g id="node2" class="node"><title>interface~to_unicode</title>
<a xlink:href="../interface/to_unicode.html" xlink:title="to_unicode">
<polygon fill="#a7506f" stroke="#a7506f" points="1514,-294.475 1450,-294.475 1450,-268.475 1514,-268.475 1514,-294.475"/>
<text text-anchor="middle" x="1482" y="-279.025" font-family="Helvetica,sans-Serif" font-size="10.50" fill="white">to_unicode</text>
</a>
</g>
<!-- proc~wrap_json_get_integer_with_path&#45;&gt;interface~to_unicode -->
<g id="edge50" class="edge"><title>proc~wrap_json_get_integer_with_path&#45;&gt;interface~to_unicode</title>
<path fill="none" stroke="black" d="M126.087,-262.478C190.52,-282.721 323.419,-319.475 439,-319.475 439,-319.475 439,-319.475 1160,-319.475 1260.57,-319.475 1377.6,-300.966 1439.13,-289.784"/>
<polygon fill="black" stroke="black" points="1440.04,-293.175 1449.24,-287.921 1438.77,-286.291 1440.04,-293.175"/>
</g>
<!-- proc~json_get_integer_with_path -->
<g id="node3" class="node"><title>proc~json_get_integer_with_path</title>
<a xlink:href="../proc/json_get_integer_with_path.html" xlink:title="json_get_integer_with_path">
<polygon fill="#d9534f" stroke="#d9534f" points="354,-192.475 210,-192.475 210,-166.475 354,-166.475 354,-192.475"/>
<text text-anchor="middle" x="282" y="-177.025" font-family="Helvetica,sans-Serif" font-size="10.50" fill="white">json_get_integer_with_path</text>
</a>
</g>
<!-- proc~wrap_json_get_integer_with_path&#45;&gt;proc~json_get_integer_with_path -->
<g id="edge52" class="edge"><title>proc~wrap_json_get_integer_with_path&#45;&gt;proc~json_get_integer_with_path</title>
<path fill="none" stroke="black" d="M123.221,-236.473C154.999,-225.065 201.382,-208.415 235.819,-196.053"/>
<polygon fill="black" stroke="black" points="237.413,-199.199 245.643,-192.527 235.048,-192.611 237.413,-199.199"/>
</g>
<!-- proc~to_uni_vec -->
<g id="node4" class="node"><title>proc~to_uni_vec</title>
<a xlink:href="../proc/to_uni_vec.html" xlink:title="to_uni_vec">
<polygon fill="#d94e8f" stroke="#d94e8f" points="1640,-316.475 1576,-316.475 1576,-290.475 1640,-290.475 1640,-316.475"/>
<text text-anchor="middle" x="1608" y="-301.025" font-family="Helvetica,sans-Serif" font-size="10.50" fill="white">to_uni_vec</text>
</a>
</g>
<!-- interface~to_unicode&#45;&gt;proc~to_uni_vec -->
<g id="edge2" class="edge"><title>interface~to_unicode&#45;&gt;proc~to_uni_vec</title>
<path fill="none" stroke="black" stroke-dasharray="5,2" d="M1514.78,-287.198C1530.36,-289.918 1549.17,-293.203 1565.8,-296.107"/>
<polygon fill="black" stroke="black" points="1565.37,-299.585 1575.82,-297.857 1566.58,-292.689 1565.37,-299.585"/>
</g>
<!-- proc~to_uni -->
<g id="node5" class="node"><title>proc~to_uni</title>
<a xlink:href="../proc/to_uni.html" xlink:title="to_uni">
<polygon fill="#d94e8f" stroke="#d94e8f" points="1635,-272.475 1581,-272.475 1581,-246.475 1635,-246.475 1635,-272.475"/>
<text text-anchor="middle" x="1608" y="-257.025" font-family="Helvetica,sans-Serif" font-size="10.50" fill="white">to_uni</text>
</a>
</g>
<!-- interface~to_unicode&#45;&gt;proc~to_uni -->
<g id="edge4" class="edge"><title>interface~to_unicode&#45;&gt;proc~to_uni</title>
<path fill="none" stroke="black" stroke-dasharray="5,2" d="M1514.78,-275.752C1531.97,-272.751 1553.09,-269.063 1570.88,-265.957"/>
<polygon fill="black" stroke="black" points="1571.66,-269.373 1580.91,-264.205 1570.46,-262.477 1571.66,-269.373"/>
</g>
<!-- proc~json_get_by_path -->
<g id="node8" class="node"><title>proc~json_get_by_path</title>
<a xlink:href="../proc/json_get_by_path.html" xlink:title="json_get_by_path">
<polygon fill="#d9534f" stroke="#d9534f" points="487,-192.475 391,-192.475 391,-166.475 487,-166.475 487,-192.475"/>
<text text-anchor="middle" x="439" y="-177.025" font-family="Helvetica,sans-Serif" font-size="10.50" fill="white">json_get_by_path</text>
</a>
</g>
<!-- proc~json_get_integer_with_path&#45;&gt;proc~json_get_by_path -->
<g id="edge42" class="edge"><title>proc~json_get_integer_with_path&#45;&gt;proc~json_get_by_path</title>
<path fill="none" stroke="black" d="M354.067,-179.475C362.778,-179.475 371.595,-179.475 380.086,-179.475"/>
<polygon fill="black" stroke="black" points="380.252,-182.975 390.252,-179.475 380.252,-175.975 380.252,-182.975"/>
</g>
<!-- proc~json_get_integer -->
<g id="node9" class="node"><title>proc~json_get_integer</title>
<a xlink:href="../proc/json_get_integer.html" xlink:title="json_get_integer">
<polygon fill="#d9534f" stroke="#d9534f" points="485,-48.4752 393,-48.4752 393,-22.4752 485,-22.4752 485,-48.4752"/>
<text text-anchor="middle" x="439" y="-33.0252" font-family="Helvetica,sans-Serif" font-size="10.50" fill="white">json_get_integer</text>
</a>
</g>
<!-- proc~json_get_integer_with_path&#45;&gt;proc~json_get_integer -->
<g id="edge44" class="edge"><title>proc~json_get_integer_with_path&#45;&gt;proc~json_get_integer</title>
<path fill="none" stroke="black" d="M291.869,-166.248C309.605,-143.111 348.871,-94.6937 390,-62.4752 394.007,-59.3363 398.427,-56.351 402.923,-53.588"/>
<polygon fill="black" stroke="black" points="404.682,-56.6139 411.574,-48.5667 401.168,-50.5599 404.682,-56.6139"/>
</g>
<!-- proc~json_clear_exceptions -->
<g id="node10" class="node"><title>proc~json_clear_exceptions</title>
<a xlink:href="../proc/json_clear_exceptions.html" xlink:title="json_clear_exceptions">
<polygon fill="#d9534f" stroke="#d9534f" points="642,-256.475 524,-256.475 524,-230.475 642,-230.475 642,-256.475"/>
<text text-anchor="middle" x="583" y="-241.025" font-family="Helvetica,sans-Serif" font-size="10.50" fill="white">json_clear_exceptions</text>
</a>
</g>
<!-- proc~json_get_integer_with_path&#45;&gt;proc~json_clear_exceptions -->
<g id="edge46" class="edge"><title>proc~json_get_integer_with_path&#45;&gt;proc~json_clear_exceptions</title>
<path fill="none" stroke="black" d="M343.275,-192.504C392.747,-203.023 462.351,-217.822 513.82,-228.766"/>
<polygon fill="black" stroke="black" points="513.352,-232.244 523.861,-230.901 514.808,-225.398 513.352,-232.244"/>
</g>
<!-- interface~throw_exception -->
<g id="node11" class="node"><title>interface~throw_exception</title>
<a xlink:href="../interface/throw_exception.html" xlink:title="throw_exception">
<polygon fill="#a7506f" stroke="#a7506f" points="1205,-168.475 1115,-168.475 1115,-142.475 1205,-142.475 1205,-168.475"/>
<text text-anchor="middle" x="1160" y="-153.025" font-family="Helvetica,sans-Serif" font-size="10.50" fill="white">throw_exception</text>
</a>
</g>
<!-- proc~json_get_integer_with_path&#45;&gt;interface~throw_exception -->
<g id="edge48" class="edge"><title>proc~json_get_integer_with_path&#45;&gt;interface~throw_exception</title>
<path fill="none" stroke="black" d="M303.775,-166.43C352.172,-138.714 473.089,-76.4752 583,-76.4752 583,-76.4752 583,-76.4752 776,-76.4752 911.704,-76.4752 947.23,-85.2148 1078,-121.475 1093.45,-125.758 1109.87,-132.172 1123.94,-138.279"/>
<polygon fill="black" stroke="black" points="1122.7,-141.558 1133.26,-142.428 1125.55,-135.163 1122.7,-141.558"/>
</g>
<!-- proc~json_get_by_path&#45;&gt;proc~json_clear_exceptions -->
<g id="edge28" class="edge"><title>proc~json_get_by_path&#45;&gt;proc~json_clear_exceptions</title>
<path fill="none" stroke="black" d="M463.975,-192.655C480.746,-201.296 503.451,-212.595 524,-221.475 528.119,-223.255 532.434,-225.03 536.776,-226.756"/>
<polygon fill="black" stroke="black" points="535.671,-230.081 546.26,-230.437 538.204,-223.556 535.671,-230.081"/>
</g>
<!-- proc~json_get_by_path&#45;&gt;interface~throw_exception -->
<g id="edge24" class="edge"><title>proc~json_get_by_path&#45;&gt;interface~throw_exception</title>
<path fill="none" stroke="black" d="M487.708,-177.854C616.736,-173.559 966.838,-161.905 1103.9,-157.343"/>
<polygon fill="black" stroke="black" points="1104.3,-160.831 1114.17,-157.001 1104.06,-153.835 1104.3,-160.831"/>
</g>
<!-- interface~json_get_child -->
<g id="node12" class="node"><title>interface~json_get_child</title>
<a xlink:href="../interface/json_get_child.html" xlink:title="json_get_child">
<polygon fill="#a7506f" stroke="#a7506f" points="623,-212.475 543,-212.475 543,-186.475 623,-186.475 623,-212.475"/>
<text text-anchor="middle" x="583" y="-197.025" font-family="Helvetica,sans-Serif" font-size="10.50" fill="white">json_get_child</text>
</a>
</g>
<!-- proc~json_get_by_path&#45;&gt;interface~json_get_child -->
<g id="edge26" class="edge"><title>proc~json_get_by_path&#45;&gt;interface~json_get_child</title>
<path fill="none" stroke="black" d="M487.752,-186.246C502.065,-188.234 517.751,-190.413 532.19,-192.418"/>
<polygon fill="black" stroke="black" points="532.058,-195.933 542.445,-193.843 533.021,-189 532.058,-195.933"/>
</g>
<!-- proc~string_to_integer -->
<g id="node13" class="node"><title>proc~string_to_integer</title>
<a xlink:href="../proc/string_to_integer.html" xlink:title="string_to_integer">
<polygon fill="#d94e8f" stroke="#d94e8f" points="822,-130.475 730,-130.475 730,-104.475 822,-104.475 822,-130.475"/>
<text text-anchor="middle" x="776" y="-115.025" font-family="Helvetica,sans-Serif" font-size="10.50" fill="white">string_to_integer</text>
</a>
</g>
<!-- proc~json_get_by_path&#45;&gt;proc~string_to_integer -->
<g id="edge30" class="edge"><title>proc~json_get_by_path&#45;&gt;proc~string_to_integer</title>
<path fill="none" stroke="black" d="M465.137,-166.445C481.621,-158.803 503.582,-149.66 524,-144.475 589.633,-127.809 667.425,-121.424 719.038,-118.981"/>
<polygon fill="black" stroke="black" points="719.483,-122.465 729.32,-118.53 719.177,-115.471 719.483,-122.465"/>
</g>
<!-- proc~json_get_integer&#45;&gt;interface~throw_exception -->
<g id="edge32" class="edge"><title>proc~json_get_integer&#45;&gt;interface~throw_exception</title>
<path fill="none" stroke="black" d="M485.28,-25.6793C594.746,-4.91574 875.569,34.1144 1078,-62.4752 1109.62,-77.5618 1134.18,-111.054 1147.87,-133.451"/>
<polygon fill="black" stroke="black" points="1144.98,-135.438 1153.07,-142.285 1151.01,-131.891 1144.98,-135.438"/>
</g>
<!-- proc~json_throw_exception -->
<g id="node32" class="node"><title>proc~json_throw_exception</title>
<a xlink:href="../proc/json_throw_exception.html" xlink:title="json_throw_exception">
<polygon fill="#d9534f" stroke="#d9534f" points="1540,-189.475 1424,-189.475 1424,-163.475 1540,-163.475 1540,-189.475"/>
<text text-anchor="middle" x="1482" y="-174.025" font-family="Helvetica,sans-Serif" font-size="10.50" fill="white">json_throw_exception</text>
</a>
</g>
<!-- interface~throw_exception&#45;&gt;proc~json_throw_exception -->
<g id="edge38" class="edge"><title>interface~throw_exception&#45;&gt;proc~json_throw_exception</title>
<path fill="none" stroke="black" stroke-dasharray="5,2" d="M1205.79,-158.462C1260.07,-162.001 1351.03,-167.934 1413.65,-172.017"/>
<polygon fill="black" stroke="black" points="1413.62,-175.523 1423.83,-172.681 1414.08,-168.538 1413.62,-175.523"/>
</g>
<!-- proc~wrap_json_throw_exception -->
<g id="node33" class="node"><title>proc~wrap_json_throw_exception</title>
<a xlink:href="../proc/wrap_json_throw_exception.html" xlink:title="wrap_json_throw_exception">
<polygon fill="#d9534f" stroke="#d9534f" points="1387,-209.475 1243,-209.475 1243,-183.475 1387,-183.475 1387,-209.475"/>
<text text-anchor="middle" x="1315" y="-194.025" font-family="Helvetica,sans-Serif" font-size="10.50" fill="white">wrap_json_throw_exception</text>
</a>
</g>
<!-- interface~throw_exception&#45;&gt;proc~wrap_json_throw_exception -->
<g id="edge40" class="edge"><title>interface~throw_exception&#45;&gt;proc~wrap_json_throw_exception</title>
<path fill="none" stroke="black" stroke-dasharray="5,2" d="M1205.67,-167.555C1221.27,-171.682 1238.96,-176.361 1255.49,-180.734"/>
<polygon fill="black" stroke="black" points="1255.04,-184.236 1265.6,-183.409 1256.83,-177.468 1255.04,-184.236"/>
</g>
<!-- proc~json_value_get_by_index -->
<g id="node14" class="node"><title>proc~json_value_get_by_index</title>
<a xlink:href="../proc/json_value_get_by_index.html" xlink:title="json_value_get_by_index">
<polygon fill="#d9534f" stroke="#d9534f" points="1060,-209.475 928,-209.475 928,-183.475 1060,-183.475 1060,-209.475"/>
<text text-anchor="middle" x="994" y="-194.025" font-family="Helvetica,sans-Serif" font-size="10.50" fill="white">json_value_get_by_index</text>
</a>
</g>
<!-- interface~json_get_child&#45;&gt;proc~json_value_get_by_index -->
<g id="edge16" class="edge"><title>interface~json_get_child&#45;&gt;proc~json_value_get_by_index</title>
<path fill="none" stroke="black" stroke-dasharray="5,2" d="M623.533,-199.179C691.715,-198.682 830.413,-197.669 917.41,-197.034"/>
<polygon fill="black" stroke="black" points="917.519,-200.534 927.493,-196.961 917.468,-193.534 917.519,-200.534"/>
</g>
<!-- proc~json_value_get_by_name_chars -->
<g id="node15" class="node"><title>proc~json_value_get_by_name_chars</title>
<a xlink:href="../proc/json_value_get_by_name_chars.html" xlink:title="json_value_get_by_name_chars">
<polygon fill="#d9534f" stroke="#d9534f" points="1077,-253.475 911,-253.475 911,-227.475 1077,-227.475 1077,-253.475"/>
<text text-anchor="middle" x="994" y="-238.025" font-family="Helvetica,sans-Serif" font-size="10.50" fill="white">json_value_get_by_name_chars</text>
</a>
</g>
<!-- interface~json_get_child&#45;&gt;proc~json_value_get_by_name_chars -->
<g id="edge18" class="edge"><title>interface~json_get_child&#45;&gt;proc~json_value_get_by_name_chars</title>
<path fill="none" stroke="black" stroke-dasharray="5,2" d="M623.646,-204.919C640.455,-207.09 660.152,-209.53 678,-211.475 752.576,-219.605 837.222,-227.291 900.126,-232.705"/>
<polygon fill="black" stroke="black" points="900.162,-236.221 910.424,-233.588 900.76,-229.247 900.162,-236.221"/>
</g>
<!-- proc~wrap_json_value_get_by_name_chars -->
<g id="node16" class="node"><title>proc~wrap_json_value_get_by_name_chars</title>
<a xlink:href="../proc/wrap_json_value_get_by_name_chars.html" xlink:title="wrap_json_value_get_by_name_chars">
<polygon fill="#d9534f" stroke="#d9534f" points="874,-288.475 678,-288.475 678,-262.475 874,-262.475 874,-288.475"/>
<text text-anchor="middle" x="776" y="-273.025" font-family="Helvetica,sans-Serif" font-size="10.50" fill="white">wrap_json_value_get_by_name_chars</text>
</a>
</g>
<!-- interface~json_get_child&#45;&gt;proc~wrap_json_value_get_by_name_chars -->
<g id="edge20" class="edge"><title>interface~json_get_child&#45;&gt;proc~wrap_json_value_get_by_name_chars</title>
<path fill="none" stroke="black" stroke-dasharray="5,2" d="M622.734,-212.502C629.315,-215.162 635.957,-218.172 642,-221.475 659.55,-231.067 660.045,-239.665 678,-248.475 686.525,-252.658 695.796,-256.276 705.123,-259.381"/>
<polygon fill="black" stroke="black" points="704.244,-262.773 714.833,-262.433 706.343,-256.095 704.244,-262.773"/>
</g>
<!-- proc~string_to_integer&#45;&gt;interface~throw_exception -->
<g id="edge22" class="edge"><title>proc~string_to_integer&#45;&gt;interface~throw_exception</title>
<path fill="none" stroke="black" d="M822.694,-119.882C882.149,-123.246 987.971,-130.236 1078,-141.475 1086.45,-142.53 1095.35,-143.841 1104.05,-145.234"/>
<polygon fill="black" stroke="black" points="1103.7,-148.723 1114.14,-146.897 1104.84,-141.817 1103.7,-148.723"/>
</g>
<!-- proc~json_value_get_by_index&#45;&gt;interface~throw_exception -->
<g id="edge6" class="edge"><title>proc~json_value_get_by_index&#45;&gt;interface~throw_exception</title>
<path fill="none" stroke="black" d="M1046.98,-183.39C1065.4,-178.841 1086.1,-173.729 1104.7,-169.134"/>
<polygon fill="black" stroke="black" points="1105.63,-172.509 1114.5,-166.714 1103.95,-165.714 1105.63,-172.509"/>
</g>
<!-- proc~json_value_get_by_name_chars&#45;&gt;interface~throw_exception -->
<g id="edge8" class="edge"><title>proc~json_value_get_by_name_chars&#45;&gt;interface~throw_exception</title>
<path fill="none" stroke="black" d="M1055.6,-227.401C1063.32,-224.88 1070.96,-221.925 1078,-218.475 1100.79,-207.308 1123.41,-189.265 1139.11,-175.343"/>
<polygon fill="black" stroke="black" points="1141.59,-177.811 1146.64,-168.498 1136.89,-172.629 1141.59,-177.811"/>
</g>
<!-- proc~json_count -->
<g id="node18" class="node"><title>proc~json_count</title>
<a xlink:href="../proc/json_count.html" xlink:title="json_count">
<polygon fill="#d94e8f" stroke="#d94e8f" points="1192,-253.475 1128,-253.475 1128,-227.475 1192,-227.475 1192,-253.475"/>
<text text-anchor="middle" x="1160" y="-238.025" font-family="Helvetica,sans-Serif" font-size="10.50" fill="white">json_count</text>
</a>
</g>
<!-- proc~json_value_get_by_name_chars&#45;&gt;proc~json_count -->
<g id="edge10" class="edge"><title>proc~json_value_get_by_name_chars&#45;&gt;proc~json_count</title>
<path fill="none" stroke="black" d="M1077.97,-240.475C1091.66,-240.475 1105.3,-240.475 1117.43,-240.475"/>
<polygon fill="black" stroke="black" points="1117.66,-243.975 1127.65,-240.475 1117.65,-236.975 1117.66,-243.975"/>
</g>
<!-- proc~wrap_json_value_get_by_name_chars&#45;&gt;interface~to_unicode -->
<g id="edge12" class="edge"><title>proc~wrap_json_value_get_by_name_chars&#45;&gt;interface~to_unicode</title>
<path fill="none" stroke="black" d="M874.166,-276.309C1030.16,-277.635 1328.32,-280.169 1439.13,-281.111"/>
<polygon fill="black" stroke="black" points="1439.23,-284.612 1449.26,-281.197 1439.29,-277.612 1439.23,-284.612"/>
</g>
<!-- proc~wrap_json_value_get_by_name_chars&#45;&gt;proc~json_value_get_by_name_chars -->
<g id="edge14" class="edge"><title>proc~wrap_json_value_get_by_name_chars&#45;&gt;proc~json_value_get_by_name_chars</title>
<path fill="none" stroke="black" d="M857.175,-262.442C872.071,-260.051 887.709,-257.54 902.873,-255.106"/>
<polygon fill="black" stroke="black" points="903.438,-258.56 912.757,-253.519 902.329,-251.648 903.438,-258.56"/>
</g>
<!-- proc~wrap_json_throw_exception&#45;&gt;interface~to_unicode -->
<g id="edge36" class="edge"><title>proc~wrap_json_throw_exception&#45;&gt;interface~to_unicode</title>
<path fill="none" stroke="black" d="M1340.73,-209.57C1369.29,-224.108 1415.54,-247.65 1447.3,-263.811"/>
<polygon fill="black" stroke="black" points="1445.74,-266.948 1456.24,-268.365 1448.92,-260.71 1445.74,-266.948"/>
</g>
<!-- proc~wrap_json_throw_exception&#45;&gt;proc~json_throw_exception -->
<g id="edge34" class="edge"><title>proc~wrap_json_throw_exception&#45;&gt;proc~json_throw_exception</title>
<path fill="none" stroke="black" d="M1387.76,-187.761C1396.42,-186.725 1405.23,-185.669 1413.82,-184.641"/>
<polygon fill="black" stroke="black" points="1414.26,-188.113 1423.77,-183.449 1413.43,-181.163 1414.26,-188.113"/>
</g>
</g>
</svg>
