<?xml version="1.0" encoding="UTF-8" standalone="no"?>
<!DOCTYPE svg PUBLIC "-//W3C//DTD SVG 1.1//EN"
 "http://www.w3.org/Graphics/SVG/1.1/DTD/svg11.dtd">
<!-- Generated by graphviz version 2.26.3 (20100126.1600)
 -->
<!-- Title: proc~~to_object~~CalledByGraph Pages: 1 -->
<svg width="641pt" height="239pt"
 viewBox="0.00 0.00 641.00 238.85" xmlns="http://www.w3.org/2000/svg" xmlns:xlink="http://www.w3.org/1999/xlink">
<g id="graph1" class="graph" transform="scale(0.555459 0.555459) rotate(0) translate(4 426)">
<title>proc~~to_object~~CalledByGraph</title>
<polygon fill="white" stroke="white" points="-4,5 -4,-426 1151,-426 1151,5 -4,5"/>
<!-- proc~to_object -->
<g id="node1" class="node"><title>proc~to_object</title>
<polygon fill="none" stroke="black" points="1137,-208 1081,-208 1081,-182 1137,-182 1137,-208"/>
<text text-anchor="middle" x="1109" y="-192.55" font-family="Helvetica,sans-Serif" font-size="10.50">to_object</text>
</g>
<!-- proc~parse_value -->
<g id="node2" class="node"><title>proc~parse_value</title>
<a xlink:href="../proc/parse_value.html" xlink:title="parse_value">
<polygon fill="#d9534f" stroke="#d9534f" points="1004,-268 934,-268 934,-242 1004,-242 1004,-268"/>
<text text-anchor="middle" x="969" y="-252.55" font-family="Helvetica,sans-Serif" font-size="10.50" fill="white">parse_value</text>
</a>
</g>
<!-- proc~parse_value&#45;&gt;proc~to_object -->
<g id="edge70" class="edge"><title>proc~parse_value&#45;&gt;proc~to_object</title>
<path fill="none" stroke="black" d="M999.378,-241.981C1020.49,-232.934 1048.77,-220.814 1071.31,-211.151"/>
<polygon fill="black" stroke="black" points="1072.78,-214.332 1080.59,-207.176 1070.02,-207.898 1072.78,-214.332"/>
</g>
<!-- proc~parse_object -->
<g id="node5" class="node"><title>proc~parse_object</title>
<a xlink:href="../proc/parse_object.html" xlink:title="parse_object">
<polygon fill="#d9534f" stroke="#d9534f" points="1146,-308 1072,-308 1072,-282 1146,-282 1146,-308"/>
<text text-anchor="middle" x="1109" y="-292.55" font-family="Helvetica,sans-Serif" font-size="10.50" fill="white">parse_object</text>
</a>
</g>
<!-- proc~parse_value&#45;&gt;proc~parse_object -->
<g id="edge22" class="edge"><title>proc~parse_value&#45;&gt;proc~parse_object</title>
<path fill="none" stroke="black" d="M1004.69,-259.227C1025.53,-264.152 1051.76,-271.637 1072.71,-278.631"/>
<polygon fill="black" stroke="black" points="1071.62,-281.959 1082.22,-281.905 1073.9,-275.34 1071.62,-281.959"/>
</g>
<!-- proc~parse_array -->
<g id="node7" class="node"><title>proc~parse_array</title>
<a xlink:href="../proc/parse_array.html" xlink:title="parse_array">
<polygon fill="#d9534f" stroke="#d9534f" points="1144,-264 1074,-264 1074,-238 1144,-238 1144,-264"/>
<text text-anchor="middle" x="1109" y="-248.55" font-family="Helvetica,sans-Serif" font-size="10.50" fill="white">parse_array</text>
</a>
</g>
<!-- proc~parse_value&#45;&gt;proc~parse_array -->
<g id="edge28" class="edge"><title>proc~parse_value&#45;&gt;proc~parse_array</title>
<path fill="none" stroke="black" d="M1004.69,-248.01C1022.68,-246.607 1044.69,-245.849 1063.85,-245.933"/>
<polygon fill="black" stroke="black" points="1063.82,-249.433 1073.86,-246.061 1063.91,-242.434 1063.82,-249.433"/>
</g>
<!-- proc~json_value_create_object -->
<g id="node3" class="node"><title>proc~json_value_create_object</title>
<a xlink:href="../proc/json_value_create_object.html" xlink:title="json_value_create_object">
<polygon fill="#d9534f" stroke="#d9534f" points="1036,-202 902,-202 902,-176 1036,-176 1036,-202"/>
<text text-anchor="middle" x="969" y="-186.55" font-family="Helvetica,sans-Serif" font-size="10.50" fill="white">json_value_create_object</text>
</a>
</g>
<!-- proc~json_value_create_object&#45;&gt;proc~to_object -->
<g id="edge72" class="edge"><title>proc~json_value_create_object&#45;&gt;proc~to_object</title>
<path fill="none" stroke="black" d="M1036.13,-191.877C1047.92,-192.382 1059.82,-192.892 1070.48,-193.349"/>
<polygon fill="black" stroke="black" points="1070.55,-196.855 1080.69,-193.787 1070.85,-189.862 1070.55,-196.855"/>
</g>
<!-- proc~json_parse_string -->
<g id="node4" class="node"><title>proc~json_parse_string</title>
<a xlink:href="../proc/json_parse_string.html" xlink:title="json_parse_string">
<polygon fill="#d9534f" stroke="#d9534f" points="832,-312 736,-312 736,-286 832,-286 832,-312"/>
<text text-anchor="middle" x="784" y="-296.55" font-family="Helvetica,sans-Serif" font-size="10.50" fill="white">json_parse_string</text>
</a>
</g>
<!-- proc~json_parse_string&#45;&gt;proc~parse_value -->
<g id="edge30" class="edge"><title>proc~json_parse_string&#45;&gt;proc~parse_value</title>
<path fill="none" stroke="black" d="M832.607,-287.44C860.734,-280.75 895.91,-272.384 923.494,-265.823"/>
<polygon fill="black" stroke="black" points="924.367,-269.213 933.286,-263.494 922.747,-262.403 924.367,-269.213"/>
</g>
<!-- proc~parse_object&#45;&gt;proc~parse_value -->
<g id="edge32" class="edge"><title>proc~parse_object&#45;&gt;proc~parse_value</title>
<path fill="none" stroke="black" d="M1071.86,-290.429C1051.25,-285.501 1025.73,-278.194 1005.26,-271.358"/>
<polygon fill="black" stroke="black" points="1006.26,-268 995.662,-268.053 1003.98,-274.618 1006.26,-268"/>
</g>
<!-- proc~parse_object&#45;&gt;proc~parse_object -->
<g id="edge24" class="edge"><title>proc~parse_object&#45;&gt;proc~parse_object</title>
<path fill="none" stroke="black" d="M1085.31,-308.06C1078.14,-317.1 1086.03,-326 1109,-326 1123,-326 1131.4,-322.695 1134.2,-318.067"/>
<polygon fill="black" stroke="black" points="1137.64,-317.425 1132.69,-308.06 1130.72,-318.471 1137.64,-317.425"/>
</g>
<!-- proc~json_parse_file -->
<g id="node6" class="node"><title>proc~json_parse_file</title>
<a xlink:href="../proc/json_parse_file.html" xlink:title="json_parse_file">
<polygon fill="#d9534f" stroke="#d9534f" points="826,-268 742,-268 742,-242 826,-242 826,-268"/>
<text text-anchor="middle" x="784" y="-252.55" font-family="Helvetica,sans-Serif" font-size="10.50" fill="white">json_parse_file</text>
</a>
</g>
<!-- proc~json_parse_file&#45;&gt;proc~parse_value -->
<g id="edge34" class="edge"><title>proc~json_parse_file&#45;&gt;proc~parse_value</title>
<path fill="none" stroke="black" d="M826.908,-255C855.839,-255 893.959,-255 923.432,-255"/>
<polygon fill="black" stroke="black" points="923.467,-258.5 933.467,-255 923.467,-251.5 923.467,-258.5"/>
</g>
<!-- proc~parse_array&#45;&gt;proc~parse_value -->
<g id="edge36" class="edge"><title>proc~parse_array&#45;&gt;proc~parse_value</title>
<path fill="none" stroke="black" d="M1073.86,-257.947C1055.95,-259.363 1033.95,-260.136 1014.74,-260.069"/>
<polygon fill="black" stroke="black" points="1014.73,-256.569 1004.69,-259.951 1014.65,-263.568 1014.73,-256.569"/>
</g>
<!-- proc~wrap_json_parse_string -->
<g id="node8" class="node"><title>proc~wrap_json_parse_string</title>
<a xlink:href="../proc/wrap_json_parse_string.html" xlink:title="wrap_json_parse_string">
<polygon fill="#d9534f" stroke="#d9534f" points="665,-311 539,-311 539,-285 665,-285 665,-311"/>
<text text-anchor="middle" x="602" y="-295.55" font-family="Helvetica,sans-Serif" font-size="10.50" fill="white">wrap_json_parse_string</text>
</a>
</g>
<!-- proc~wrap_json_parse_string&#45;&gt;proc~json_parse_string -->
<g id="edge18" class="edge"><title>proc~wrap_json_parse_string&#45;&gt;proc~json_parse_string</title>
<path fill="none" stroke="black" d="M665.655,-298.35C685.031,-298.456 706.231,-298.573 725.268,-298.677"/>
<polygon fill="black" stroke="black" points="725.279,-302.177 735.298,-298.732 725.318,-295.177 725.279,-302.177"/>
</g>
<!-- interface~json_parse -->
<g id="node9" class="node"><title>interface~json_parse</title>
<a xlink:href="../interface/json_parse.html" xlink:title="json_parse">
<polygon fill="#a7506f" stroke="#a7506f" points="472,-334 408,-334 408,-308 472,-308 472,-334"/>
<text text-anchor="middle" x="440" y="-318.55" font-family="Helvetica,sans-Serif" font-size="10.50" fill="white">json_parse</text>
</a>
</g>
<!-- interface~json_parse&#45;&gt;proc~json_parse_string -->
<g id="edge20" class="edge"><title>interface~json_parse&#45;&gt;proc~json_parse_string</title>
<path fill="none" stroke="black" stroke-dasharray="5,2" d="M472.643,-322.607C516.656,-324.374 597.42,-326.208 666,-320 685.498,-318.235 706.604,-314.931 725.501,-311.457"/>
<polygon fill="black" stroke="black" points="726.278,-314.872 735.454,-309.575 724.978,-307.994 726.278,-314.872"/>
</g>
<!-- interface~json_parse&#45;&gt;proc~json_parse_file -->
<g id="edge26" class="edge"><title>interface~json_parse&#45;&gt;proc~json_parse_file</title>
<path fill="none" stroke="black" stroke-dasharray="5,2" d="M462.525,-307.926C481.867,-297.379 510.845,-283.16 538,-276 603.143,-258.823 681.023,-254.822 731.446,-254.293"/>
<polygon fill="black" stroke="black" points="731.485,-257.793 741.463,-254.23 731.441,-250.793 731.485,-257.793"/>
</g>
<!-- interface~json_parse&#45;&gt;proc~wrap_json_parse_string -->
<g id="edge16" class="edge"><title>interface~json_parse&#45;&gt;proc~wrap_json_parse_string</title>
<path fill="none" stroke="black" stroke-dasharray="5,2" d="M472.783,-316.346C488.844,-314.065 508.882,-311.22 528.349,-308.457"/>
<polygon fill="black" stroke="black" points="529.044,-311.893 538.453,-307.022 528.06,-304.963 529.044,-311.893"/>
</g>
<!-- proc~test_14 -->
<g id="node10" class="node"><title>proc~test_14</title>
<a xlink:href="../proc/test_14.html" xlink:title="test_14">
<polygon fill="#d9534f" stroke="#d9534f" points="300,-422 246,-422 246,-396 300,-396 300,-422"/>
<text text-anchor="middle" x="273" y="-406.55" font-family="Helvetica,sans-Serif" font-size="10.50" fill="white">test_14</text>
</a>
</g>
<!-- proc~test_14&#45;&gt;interface~json_parse -->
<g id="edge8" class="edge"><title>proc~test_14&#45;&gt;interface~json_parse</title>
<path fill="none" stroke="black" d="M300.225,-402.253C313.207,-398.554 328.758,-393.408 342,-387 368.58,-374.138 396.255,-354.872 415.389,-340.471"/>
<polygon fill="black" stroke="black" points="417.725,-343.091 423.544,-334.237 413.474,-337.529 417.725,-343.091"/>
</g>
<!-- proc~test_8 -->
<g id="node11" class="node"><title>proc~test_8</title>
<a xlink:href="../proc/test_8.html" xlink:title="test_8">
<polygon fill="#d9534f" stroke="#d9534f" points="300,-378 246,-378 246,-352 300,-352 300,-378"/>
<text text-anchor="middle" x="273" y="-362.55" font-family="Helvetica,sans-Serif" font-size="10.50" fill="white">test_8</text>
</a>
</g>
<!-- proc~test_8&#45;&gt;interface~json_parse -->
<g id="edge10" class="edge"><title>proc~test_8&#45;&gt;interface~json_parse</title>
<path fill="none" stroke="black" d="M300.203,-357.833C326.526,-350.897 366.821,-340.281 397.399,-332.224"/>
<polygon fill="black" stroke="black" points="398.583,-335.532 407.362,-329.599 396.8,-328.763 398.583,-335.532"/>
</g>
<!-- proc~json_file_load -->
<g id="node12" class="node"><title>proc~json_file_load</title>
<a xlink:href="../proc/json_file_load.html" xlink:title="json_file_load">
<polygon fill="#d9534f" stroke="#d9534f" points="312,-334 234,-334 234,-308 312,-308 312,-334"/>
<text text-anchor="middle" x="273" y="-318.55" font-family="Helvetica,sans-Serif" font-size="10.50" fill="white">json_file_load</text>
</a>
</g>
<!-- proc~json_file_load&#45;&gt;interface~json_parse -->
<g id="edge12" class="edge"><title>proc~json_file_load&#45;&gt;interface~json_parse</title>
<path fill="none" stroke="black" d="M312.154,-321C337.687,-321 371.013,-321 397.237,-321"/>
<polygon fill="black" stroke="black" points="397.271,-324.5 407.271,-321 397.271,-317.5 397.271,-324.5"/>
</g>
<!-- proc~json_file_load_from_string -->
<g id="node13" class="node"><title>proc~json_file_load_from_string</title>
<a xlink:href="../proc/json_file_load_from_string.html" xlink:title="json_file_load_from_string">
<polygon fill="#d9534f" stroke="#d9534f" points="342,-290 204,-290 204,-264 342,-264 342,-290"/>
<text text-anchor="middle" x="273" y="-274.55" font-family="Helvetica,sans-Serif" font-size="10.50" fill="white">json_file_load_from_string</text>
</a>
</g>
<!-- proc~json_file_load_from_string&#45;&gt;interface~json_parse -->
<g id="edge14" class="edge"><title>proc~json_file_load_from_string&#45;&gt;interface~json_parse</title>
<path fill="none" stroke="black" d="M322.653,-290.082C346.523,-296.371 374.834,-303.831 397.668,-309.847"/>
<polygon fill="black" stroke="black" points="396.851,-313.251 407.413,-312.414 398.635,-306.482 396.851,-313.251"/>
</g>
<!-- program~jf_test_14 -->
<g id="node14" class="node"><title>program~jf_test_14</title>
<a xlink:href="../program/jf_test_14.html" xlink:title="jf_test_14">
<polygon fill="#f0ad4e" stroke="#f0ad4e" points="113,-422 55,-422 55,-396 113,-396 113,-422"/>
<text text-anchor="middle" x="84" y="-406.55" font-family="Helvetica,sans-Serif" font-size="10.50" fill="white">jf_test_14</text>
</a>
</g>
<!-- program~jf_test_14&#45;&gt;proc~test_14 -->
<g id="edge2" class="edge"><title>program~jf_test_14&#45;&gt;proc~test_14</title>
<path fill="none" stroke="black" d="M113.531,-409C146.509,-409 199.947,-409 235.765,-409"/>
<polygon fill="black" stroke="black" points="235.82,-412.5 245.82,-409 235.82,-405.5 235.82,-412.5"/>
</g>
<!-- program~jf_test_8 -->
<g id="node16" class="node"><title>program~jf_test_8</title>
<a xlink:href="../program/jf_test_8.html" xlink:title="jf_test_8">
<polygon fill="#f0ad4e" stroke="#f0ad4e" points="111,-378 57,-378 57,-352 111,-352 111,-378"/>
<text text-anchor="middle" x="84" y="-362.55" font-family="Helvetica,sans-Serif" font-size="10.50" fill="white">jf_test_8</text>
</a>
</g>
<!-- program~jf_test_8&#45;&gt;proc~test_8 -->
<g id="edge4" class="edge"><title>program~jf_test_8&#45;&gt;proc~test_8</title>
<path fill="none" stroke="black" d="M111.079,-365C143.78,-365 198.956,-365 235.676,-365"/>
<polygon fill="black" stroke="black" points="235.971,-368.5 245.971,-365 235.971,-361.5 235.971,-368.5"/>
</g>
<!-- proc~wrap_json_file_load_from_string -->
<g id="node18" class="node"><title>proc~wrap_json_file_load_from_string</title>
<a xlink:href="../proc/wrap_json_file_load_from_string.html" xlink:title="wrap_json_file_load_from_string">
<polygon fill="#d9534f" stroke="#d9534f" points="167,-290 1,-290 1,-264 167,-264 167,-290"/>
<text text-anchor="middle" x="84" y="-274.55" font-family="Helvetica,sans-Serif" font-size="10.50" fill="white">wrap_json_file_load_from_string</text>
</a>
</g>
<!-- proc~wrap_json_file_load_from_string&#45;&gt;proc~json_file_load_from_string -->
<g id="edge6" class="edge"><title>proc~wrap_json_file_load_from_string&#45;&gt;proc~json_file_load_from_string</title>
<path fill="none" stroke="black" d="M167.724,-277C176.382,-277 185.162,-277 193.769,-277"/>
<polygon fill="black" stroke="black" points="193.775,-280.5 203.775,-277 193.775,-273.5 193.775,-280.5"/>
</g>
<!-- proc~wrap_json_value_create_object -->
<g id="node35" class="node"><title>proc~wrap_json_value_create_object</title>
<a xlink:href="../proc/wrap_json_value_create_object.html" xlink:title="wrap_json_value_create_object">
<polygon fill="#d9534f" stroke="#d9534f" points="865,-161 703,-161 703,-135 865,-135 865,-161"/>
<text text-anchor="middle" x="784" y="-145.55" font-family="Helvetica,sans-Serif" font-size="10.50" fill="white">wrap_json_value_create_object</text>
</a>
</g>
<!-- proc~wrap_json_value_create_object&#45;&gt;proc~json_value_create_object -->
<g id="edge66" class="edge"><title>proc~wrap_json_value_create_object&#45;&gt;proc~json_value_create_object</title>
<path fill="none" stroke="black" d="M842.789,-161.029C860.995,-165.064 881.219,-169.546 900.049,-173.719"/>
<polygon fill="black" stroke="black" points="899.526,-177.188 910.046,-175.935 901.04,-170.354 899.526,-177.188"/>
</g>
<!-- interface~json_create_object -->
<g id="node36" class="node"><title>interface~json_create_object</title>
<a xlink:href="../interface/json_create_object.html" xlink:title="json_create_object">
<polygon fill="#a7506f" stroke="#a7506f" points="653,-161 551,-161 551,-135 653,-135 653,-161"/>
<text text-anchor="middle" x="602" y="-145.55" font-family="Helvetica,sans-Serif" font-size="10.50" fill="white">json_create_object</text>
</a>
</g>
<!-- interface~json_create_object&#45;&gt;proc~json_value_create_object -->
<g id="edge68" class="edge"><title>interface~json_create_object&#45;&gt;proc~json_value_create_object</title>
<path fill="none" stroke="black" stroke-dasharray="5,2" d="M653.639,-160.863C669.106,-164.308 686.166,-167.707 702,-170 765.514,-179.197 838.202,-184 891.683,-186.474"/>
<polygon fill="black" stroke="black" points="891.63,-189.975 901.776,-186.924 891.942,-182.982 891.63,-189.975"/>
</g>
<!-- interface~json_create_object&#45;&gt;proc~wrap_json_value_create_object -->
<g id="edge64" class="edge"><title>interface~json_create_object&#45;&gt;proc~wrap_json_value_create_object</title>
<path fill="none" stroke="black" stroke-dasharray="5,2" d="M653.667,-148C665.726,-148 678.927,-148 692.151,-148"/>
<polygon fill="black" stroke="black" points="692.25,-151.5 702.25,-148 692.25,-144.5 692.25,-151.5"/>
</g>
<!-- proc~add_variables_to_input -->
<g id="node37" class="node"><title>proc~add_variables_to_input</title>
<a xlink:href="../proc/add_variables_to_input.html" xlink:title="add_variables_to_input">
<polygon fill="#d9534f" stroke="#d9534f" points="502,-246 378,-246 378,-220 502,-220 502,-246"/>
<text text-anchor="middle" x="440" y="-230.55" font-family="Helvetica,sans-Serif" font-size="10.50" fill="white">add_variables_to_input</text>
</a>
</g>
<!-- proc~add_variables_to_input&#45;&gt;interface~json_create_object -->
<g id="edge50" class="edge"><title>proc~add_variables_to_input&#45;&gt;interface~json_create_object</title>
<path fill="none" stroke="black" d="M480.884,-219.945C488.036,-217.253 495.32,-214.24 502,-211 528.097,-198.343 555.862,-180.456 575.497,-166.974"/>
<polygon fill="black" stroke="black" points="577.699,-169.706 583.911,-161.123 573.703,-163.958 577.699,-169.706"/>
</g>
<!-- proc~test_4 -->
<g id="node38" class="node"><title>proc~test_4</title>
<a xlink:href="../proc/test_4.html" xlink:title="test_4">
<polygon fill="#d9534f" stroke="#d9534f" points="467,-202 413,-202 413,-176 467,-176 467,-202"/>
<text text-anchor="middle" x="440" y="-186.55" font-family="Helvetica,sans-Serif" font-size="10.50" fill="white">test_4</text>
</a>
</g>
<!-- proc~test_4&#45;&gt;interface~json_create_object -->
<g id="edge52" class="edge"><title>proc~test_4&#45;&gt;interface~json_create_object</title>
<path fill="none" stroke="black" d="M467.115,-182.138C487.154,-177.066 515.244,-169.957 540.606,-163.538"/>
<polygon fill="black" stroke="black" points="541.701,-166.871 550.537,-161.025 539.984,-160.085 541.701,-166.871"/>
</g>
<!-- proc~test_10 -->
<g id="node39" class="node"><title>proc~test_10</title>
<a xlink:href="../proc/test_10.html" xlink:title="test_10">
<polygon fill="#d9534f" stroke="#d9534f" points="467,-158 413,-158 413,-132 467,-132 467,-158"/>
<text text-anchor="middle" x="440" y="-142.55" font-family="Helvetica,sans-Serif" font-size="10.50" fill="white">test_10</text>
</a>
</g>
<!-- proc~test_10&#45;&gt;interface~json_create_object -->
<g id="edge54" class="edge"><title>proc~test_10&#45;&gt;interface~json_create_object</title>
<path fill="none" stroke="black" d="M467.115,-145.502C486.986,-145.87 514.774,-146.385 539.969,-146.851"/>
<polygon fill="black" stroke="black" points="540.144,-150.355 550.207,-147.041 540.274,-143.356 540.144,-150.355"/>
</g>
<!-- proc~test_12 -->
<g id="node40" class="node"><title>proc~test_12</title>
<a xlink:href="../proc/test_12.html" xlink:title="test_12">
<polygon fill="#d9534f" stroke="#d9534f" points="467,-114 413,-114 413,-88 467,-88 467,-114"/>
<text text-anchor="middle" x="440" y="-98.55" font-family="Helvetica,sans-Serif" font-size="10.50" fill="white">test_12</text>
</a>
</g>
<!-- proc~test_12&#45;&gt;interface~json_create_object -->
<g id="edge56" class="edge"><title>proc~test_12&#45;&gt;interface~json_create_object</title>
<path fill="none" stroke="black" d="M467.115,-108.867C488.935,-115.197 520.303,-124.298 547.3,-132.13"/>
<polygon fill="black" stroke="black" points="546.443,-135.526 557.022,-134.951 548.393,-128.803 546.443,-135.526"/>
</g>
<!-- proc~test_7 -->
<g id="node41" class="node"><title>proc~test_7</title>
<a xlink:href="../proc/test_7.html" xlink:title="test_7">
<polygon fill="#d9534f" stroke="#d9534f" points="467,-70 413,-70 413,-44 467,-44 467,-70"/>
<text text-anchor="middle" x="440" y="-54.55" font-family="Helvetica,sans-Serif" font-size="10.50" fill="white">test_7</text>
</a>
</g>
<!-- proc~test_7&#45;&gt;interface~json_create_object -->
<g id="edge58" class="edge"><title>proc~test_7&#45;&gt;interface~json_create_object</title>
<path fill="none" stroke="black" d="M467.193,-64.9284C478.265,-68.5936 491.016,-73.3863 502,-79 529.486,-93.048 558.226,-113.583 577.804,-128.598"/>
<polygon fill="black" stroke="black" points="575.817,-131.487 585.86,-134.862 580.114,-125.961 575.817,-131.487"/>
</g>
<!-- proc~test_2 -->
<g id="node42" class="node"><title>proc~test_2</title>
<a xlink:href="../proc/test_2.html" xlink:title="test_2">
<polygon fill="#d9534f" stroke="#d9534f" points="300,-246 246,-246 246,-220 300,-220 300,-246"/>
<text text-anchor="middle" x="273" y="-230.55" font-family="Helvetica,sans-Serif" font-size="10.50" fill="white">test_2</text>
</a>
</g>
<!-- proc~test_2&#45;&gt;interface~json_create_object -->
<g id="edge60" class="edge"><title>proc~test_2&#45;&gt;interface~json_create_object</title>
<path fill="none" stroke="black" d="M300.389,-240.361C321.435,-245.62 351.323,-252.235 378,-255 432.818,-260.681 451.448,-276.948 502,-255 541.882,-237.685 573.102,-195.76 589.438,-169.828"/>
<polygon fill="black" stroke="black" points="592.558,-171.435 594.771,-161.073 586.58,-167.793 592.558,-171.435"/>
</g>
<!-- proc~test_2&#45;&gt;proc~add_variables_to_input -->
<g id="edge38" class="edge"><title>proc~test_2&#45;&gt;proc~add_variables_to_input</title>
<path fill="none" stroke="black" d="M300.203,-233C318.561,-233 343.714,-233 367.628,-233"/>
<polygon fill="black" stroke="black" points="367.777,-236.5 377.777,-233 367.777,-229.5 367.777,-236.5"/>
</g>
<!-- program~example2 -->
<g id="node43" class="node"><title>program~example2</title>
<a xlink:href="../program/example2.html" xlink:title="example2">
<polygon fill="#f0ad4e" stroke="#f0ad4e" points="469,-26 411,-26 411,-1.24345e-14 469,-3.55271e-15 469,-26"/>
<text text-anchor="middle" x="440" y="-10.55" font-family="Helvetica,sans-Serif" font-size="10.50" fill="white">example2</text>
</a>
</g>
<!-- program~example2&#45;&gt;interface~json_create_object -->
<g id="edge62" class="edge"><title>program~example2&#45;&gt;interface~json_create_object</title>
<path fill="none" stroke="black" d="M469.517,-20.1297C480.308,-23.5724 492.249,-28.4191 502,-35 538.745,-59.7984 570.606,-101.186 587.984,-126.397"/>
<polygon fill="black" stroke="black" points="585.221,-128.559 593.714,-134.892 591.024,-124.645 585.221,-128.559"/>
</g>
<!-- program~jf_test_4 -->
<g id="node45" class="node"><title>program~jf_test_4</title>
<a xlink:href="../program/jf_test_4.html" xlink:title="jf_test_4">
<polygon fill="#f0ad4e" stroke="#f0ad4e" points="300,-202 246,-202 246,-176 300,-176 300,-202"/>
<text text-anchor="middle" x="273" y="-186.55" font-family="Helvetica,sans-Serif" font-size="10.50" fill="white">jf_test_4</text>
</a>
</g>
<!-- program~jf_test_4&#45;&gt;proc~test_4 -->
<g id="edge40" class="edge"><title>program~jf_test_4&#45;&gt;proc~test_4</title>
<path fill="none" stroke="black" d="M300.203,-189C328.104,-189 371.701,-189 402.787,-189"/>
<polygon fill="black" stroke="black" points="402.809,-192.5 412.809,-189 402.808,-185.5 402.809,-192.5"/>
</g>
<!-- program~jf_test_10 -->
<g id="node47" class="node"><title>program~jf_test_10</title>
<a xlink:href="../program/jf_test_10.html" xlink:title="jf_test_10">
<polygon fill="#f0ad4e" stroke="#f0ad4e" points="302,-158 244,-158 244,-132 302,-132 302,-158"/>
<text text-anchor="middle" x="273" y="-142.55" font-family="Helvetica,sans-Serif" font-size="10.50" fill="white">jf_test_10</text>
</a>
</g>
<!-- program~jf_test_10&#45;&gt;proc~test_10 -->
<g id="edge42" class="edge"><title>program~jf_test_10&#45;&gt;proc~test_10</title>
<path fill="none" stroke="black" d="M302.856,-145C330.803,-145 372.652,-145 402.768,-145"/>
<polygon fill="black" stroke="black" points="402.889,-148.5 412.889,-145 402.888,-141.5 402.889,-148.5"/>
</g>
<!-- program~jf_test_12 -->
<g id="node49" class="node"><title>program~jf_test_12</title>
<a xlink:href="../program/jf_test_12.html" xlink:title="jf_test_12">
<polygon fill="#f0ad4e" stroke="#f0ad4e" points="302,-114 244,-114 244,-88 302,-88 302,-114"/>
<text text-anchor="middle" x="273" y="-98.55" font-family="Helvetica,sans-Serif" font-size="10.50" fill="white">jf_test_12</text>
</a>
</g>
<!-- program~jf_test_12&#45;&gt;proc~test_12 -->
<g id="edge44" class="edge"><title>program~jf_test_12&#45;&gt;proc~test_12</title>
<path fill="none" stroke="black" d="M302.856,-101C330.803,-101 372.652,-101 402.768,-101"/>
<polygon fill="black" stroke="black" points="402.889,-104.5 412.889,-101 402.888,-97.5001 402.889,-104.5"/>
</g>
<!-- program~jf_test_7 -->
<g id="node51" class="node"><title>program~jf_test_7</title>
<a xlink:href="../program/jf_test_7.html" xlink:title="jf_test_7">
<polygon fill="#f0ad4e" stroke="#f0ad4e" points="300,-70 246,-70 246,-44 300,-44 300,-70"/>
<text text-anchor="middle" x="273" y="-54.55" font-family="Helvetica,sans-Serif" font-size="10.50" fill="white">jf_test_7</text>
</a>
</g>
<!-- program~jf_test_7&#45;&gt;proc~test_7 -->
<g id="edge46" class="edge"><title>program~jf_test_7&#45;&gt;proc~test_7</title>
<path fill="none" stroke="black" d="M300.203,-57C328.104,-57 371.701,-57 402.787,-57"/>
<polygon fill="black" stroke="black" points="402.809,-60.5001 412.809,-57 402.808,-53.5001 402.809,-60.5001"/>
</g>
<!-- program~jf_test_2 -->
<g id="node53" class="node"><title>program~jf_test_2</title>
<a xlink:href="../program/jf_test_2.html" xlink:title="jf_test_2">
<polygon fill="#f0ad4e" stroke="#f0ad4e" points="111,-246 57,-246 57,-220 111,-220 111,-246"/>
<text text-anchor="middle" x="84" y="-230.55" font-family="Helvetica,sans-Serif" font-size="10.50" fill="white">jf_test_2</text>
</a>
</g>
<!-- program~jf_test_2&#45;&gt;proc~test_2 -->
<g id="edge48" class="edge"><title>program~jf_test_2&#45;&gt;proc~test_2</title>
<path fill="none" stroke="black" d="M111.079,-233C143.78,-233 198.956,-233 235.676,-233"/>
<polygon fill="black" stroke="black" points="235.971,-236.5 245.971,-233 235.971,-229.5 235.971,-236.5"/>
</g>
</g>
</svg>
