<?xml version="1.0" encoding="UTF-8" standalone="no"?>
<!DOCTYPE svg PUBLIC "-//W3C//DTD SVG 1.1//EN"
 "http://www.w3.org/Graphics/SVG/1.1/DTD/svg11.dtd">
<!-- Generated by graphviz version 2.26.3 (20100126.1600)
 -->
<!-- Title: proc~~json_value_add_string_vec~~CallsGraph Pages: 1 -->
<svg width="641pt" height="699pt"
 viewBox="0.00 0.00 641.00 698.74" xmlns="http://www.w3.org/2000/svg" xmlns:xlink="http://www.w3.org/1999/xlink">
<g id="graph1" class="graph" transform="scale(0.683369 0.683369) rotate(0) translate(4 1018.49)">
<title>proc~~json_value_add_string_vec~~CallsGraph</title>
<polygon fill="white" stroke="white" points="-4,5 -4,-1018.49 935,-1018.49 935,5 -4,5"/>
<!-- proc~json_value_add_string_vec -->
<g id="node1" class="node"><title>proc~json_value_add_string_vec</title>
<polygon fill="none" stroke="black" points="142,-515 5.68434e-14,-515 0,-489 142,-489 142,-515"/>
<text text-anchor="middle" x="71" y="-499.55" font-family="Helvetica,sans-Serif" font-size="10.50">json_value_add_string_vec</text>
</g>
<!-- interface~json_add -->
<g id="node2" class="node"><title>interface~json_add</title>
<a xlink:href="../interface/json_add.html" xlink:title="json_add">
<polygon fill="#a7506f" stroke="#a7506f" points="234,-515 178,-515 178,-489 234,-489 234,-515"/>
<text text-anchor="middle" x="206" y="-499.55" font-family="Helvetica,sans-Serif" font-size="10.50" fill="white">json_add</text>
</a>
</g>
<!-- proc~json_value_add_string_vec&#45;&gt;interface~json_add -->
<g id="edge150" class="edge"><title>proc~json_value_add_string_vec&#45;&gt;interface~json_add</title>
<path fill="none" stroke="black" d="M142.058,-495.258C150.892,-495.3 159.644,-495.496 167.707,-495.846"/>
<polygon fill="black" stroke="black" points="167.684,-499.35 177.859,-496.396 168.063,-492.36 167.684,-499.35"/>
</g>
<!-- proc~json_value_create -->
<g id="node3" class="node"><title>proc~json_value_create</title>
<a xlink:href="../proc/json_value_create.html" xlink:title="json_value_create">
<polygon fill="#d9534f" stroke="#d9534f" points="794,-728 694,-728 694,-702 794,-702 794,-728"/>
<text text-anchor="middle" x="744" y="-712.55" font-family="Helvetica,sans-Serif" font-size="10.50" fill="white">json_value_create</text>
</a>
</g>
<!-- proc~json_value_add_string_vec&#45;&gt;proc~json_value_create -->
<g id="edge152" class="edge"><title>proc~json_value_add_string_vec&#45;&gt;proc~json_value_create</title>
<path fill="none" stroke="black" d="M72.3676,-515.053C79.4139,-574.83 117.433,-823.659 270,-920 417.062,-1012.86 535.098,-992.069 658,-869 700.969,-825.972 654.304,-783.065 694,-737 694.743,-736.138 695.526,-735.308 696.344,-734.51"/>
<polygon fill="black" stroke="black" points="698.773,-737.054 704.499,-728.14 694.464,-731.537 698.773,-737.054"/>
</g>
<!-- proc~to_array -->
<g id="node4" class="node"><title>proc~to_array</title>
<a xlink:href="../proc/to_array.html" xlink:title="to_array">
<polygon fill="#d9534f" stroke="#d9534f" points="771,-772 717,-772 717,-746 771,-746 771,-772"/>
<text text-anchor="middle" x="744" y="-756.55" font-family="Helvetica,sans-Serif" font-size="10.50" fill="white">to_array</text>
</a>
</g>
<!-- proc~json_value_add_string_vec&#45;&gt;proc~to_array -->
<g id="edge154" class="edge"><title>proc~json_value_add_string_vec&#45;&gt;proc~to_array</title>
<path fill="none" stroke="black" d="M72.3184,-515.125C77.8263,-565.124 102.348,-747.187 178,-873 207.317,-921.755 217.261,-940.665 270,-962 430.369,-1026.88 529.192,-1046.48 658,-931 702.002,-891.552 662.526,-853.017 694,-803 699.727,-793.898 707.892,-785.603 715.967,-778.729"/>
<polygon fill="black" stroke="black" points="718.308,-781.338 723.919,-772.352 713.928,-775.878 718.308,-781.338"/>
</g>
<!-- interface~json_add&#45;&gt;proc~json_value_add_string_vec -->
<g id="edge120" class="edge"><title>interface~json_add&#45;&gt;proc~json_value_add_string_vec</title>
<path fill="none" stroke="black" stroke-dasharray="5,2" d="M177.859,-507.604C170.103,-508.117 161.283,-508.458 152.112,-508.626"/>
<polygon fill="black" stroke="black" points="152.017,-505.127 142.058,-508.742 152.098,-512.127 152.017,-505.127"/>
</g>
<!-- proc~json_value_add_member -->
<g id="node5" class="node"><title>proc~json_value_add_member</title>
<a xlink:href="../proc/json_value_add_member.html" xlink:title="json_value_add_member">
<polygon fill="#d9534f" stroke="#d9534f" points="437,-678 305,-678 305,-652 437,-652 437,-678"/>
<text text-anchor="middle" x="371" y="-662.55" font-family="Helvetica,sans-Serif" font-size="10.50" fill="white">json_value_add_member</text>
</a>
</g>
<!-- interface~json_add&#45;&gt;proc~json_value_add_member -->
<g id="edge106" class="edge"><title>interface~json_add&#45;&gt;proc~json_value_add_member</title>
<path fill="none" stroke="black" stroke-dasharray="5,2" d="M207.991,-515.282C212.954,-543.495 228.598,-609.548 270,-643 277.227,-648.839 285.662,-653.216 294.52,-656.484"/>
<polygon fill="black" stroke="black" points="293.671,-659.887 304.262,-659.611 295.81,-653.222 293.671,-659.887"/>
</g>
<!-- proc~json_value_add_logical -->
<g id="node6" class="node"><title>proc~json_value_add_logical</title>
<a xlink:href="../proc/json_value_add_logical.html" xlink:title="json_value_add_logical">
<polygon fill="#d9534f" stroke="#d9534f" points="645,-860 521,-860 521,-834 645,-834 645,-860"/>
<text text-anchor="middle" x="583" y="-844.55" font-family="Helvetica,sans-Serif" font-size="10.50" fill="white">json_value_add_logical</text>
</a>
</g>
<!-- interface~json_add&#45;&gt;proc~json_value_add_logical -->
<g id="edge108" class="edge"><title>interface~json_add&#45;&gt;proc~json_value_add_logical</title>
<path fill="none" stroke="black" stroke-dasharray="5,2" d="M207.5,-515.021C214.112,-578.222 241.588,-847.984 270,-872 346.193,-936.406 472.849,-891.687 539.277,-863.974"/>
<polygon fill="black" stroke="black" points="540.779,-867.139 548.628,-860.023 538.054,-860.691 540.779,-867.139"/>
</g>
<!-- proc~wrap_json_value_add_logical -->
<g id="node7" class="node"><title>proc~wrap_json_value_add_logical</title>
<a xlink:href="../proc/wrap_json_value_add_logical.html" xlink:title="wrap_json_value_add_logical">
<polygon fill="#d9534f" stroke="#d9534f" points="447,-834 295,-834 295,-808 447,-808 447,-834"/>
<text text-anchor="middle" x="371" y="-818.55" font-family="Helvetica,sans-Serif" font-size="10.50" fill="white">wrap_json_value_add_logical</text>
</a>
</g>
<!-- interface~json_add&#45;&gt;proc~wrap_json_value_add_logical -->
<g id="edge110" class="edge"><title>interface~json_add&#45;&gt;proc~wrap_json_value_add_logical</title>
<path fill="none" stroke="black" stroke-dasharray="5,2" d="M207.101,-515.251C211.642,-566.742 230.561,-752.726 270,-794 274.485,-798.693 279.688,-802.602 285.321,-805.855"/>
<polygon fill="black" stroke="black" points="283.977,-809.096 294.485,-810.443 287.11,-802.836 283.977,-809.096"/>
</g>
<!-- proc~wrap_json_value_add_integer_vec -->
<g id="node8" class="node"><title>proc~wrap_json_value_add_integer_vec</title>
<a xlink:href="../proc/wrap_json_value_add_integer_vec.html" xlink:title="wrap_json_value_add_integer_vec">
<polygon fill="#d9534f" stroke="#d9534f" points="460,-590 282,-590 282,-564 460,-564 460,-590"/>
<text text-anchor="middle" x="371" y="-574.55" font-family="Helvetica,sans-Serif" font-size="10.50" fill="white">wrap_json_value_add_integer_vec</text>
</a>
</g>
<!-- interface~json_add&#45;&gt;proc~wrap_json_value_add_integer_vec -->
<g id="edge112" class="edge"><title>interface~json_add&#45;&gt;proc~wrap_json_value_add_integer_vec</title>
<path fill="none" stroke="black" stroke-dasharray="5,2" d="M220.194,-515.19C232.51,-525.98 251.262,-540.894 270,-550 278.754,-554.254 288.273,-557.911 297.851,-561.034"/>
<polygon fill="black" stroke="black" points="296.836,-564.383 307.423,-563.981 298.896,-557.693 296.836,-564.383"/>
</g>
<!-- proc~json_value_add_string_vec_val_ascii -->
<g id="node9" class="node"><title>proc~json_value_add_string_vec_val_ascii</title>
<a xlink:href="../proc/json_value_add_string_vec_val_ascii.html" xlink:title="json_value_add_string_vec_val_ascii">
<polygon fill="#d9534f" stroke="#d9534f" points="465,-314 277,-314 277,-288 465,-288 465,-314"/>
<text text-anchor="middle" x="371" y="-298.55" font-family="Helvetica,sans-Serif" font-size="10.50" fill="white">json_value_add_string_vec_val_ascii</text>
</a>
</g>
<!-- interface~json_add&#45;&gt;proc~json_value_add_string_vec_val_ascii -->
<g id="edge114" class="edge"><title>interface~json_add&#45;&gt;proc~json_value_add_string_vec_val_ascii</title>
<path fill="none" stroke="black" stroke-dasharray="5,2" d="M211.506,-488.933C217.337,-474.941 226.689,-452.043 234,-432 251.482,-384.07 232.089,-357.142 270,-323 271.329,-321.803 272.708,-320.665 274.131,-319.585"/>
<polygon fill="black" stroke="black" points="276.242,-322.388 282.717,-314.002 272.425,-316.52 276.242,-322.388"/>
</g>
<!-- proc~json_value_add_integer_vec -->
<g id="node10" class="node"><title>proc~json_value_add_integer_vec</title>
<a xlink:href="../proc/json_value_add_integer_vec.html" xlink:title="json_value_add_integer_vec">
<polygon fill="#d9534f" stroke="#d9534f" points="657,-772 509,-772 509,-746 657,-746 657,-772"/>
<text text-anchor="middle" x="583" y="-756.55" font-family="Helvetica,sans-Serif" font-size="10.50" fill="white">json_value_add_integer_vec</text>
</a>
</g>
<!-- interface~json_add&#45;&gt;proc~json_value_add_integer_vec -->
<g id="edge116" class="edge"><title>interface~json_add&#45;&gt;proc~json_value_add_integer_vec</title>
<path fill="none" stroke="black" stroke-dasharray="5,2" d="M208.245,-515.276C214.942,-559.196 236.427,-696.195 270,-724 332.842,-776.045 429.163,-776.13 498.352,-769.014"/>
<polygon fill="black" stroke="black" points="498.797,-772.486 508.356,-767.917 498.034,-765.528 498.797,-772.486"/>
</g>
<!-- proc~json_value_add_integer -->
<g id="node11" class="node"><title>proc~json_value_add_integer</title>
<a xlink:href="../proc/json_value_add_integer.html" xlink:title="json_value_add_integer">
<polygon fill="#d9534f" stroke="#d9534f" points="646,-270 520,-270 520,-244 646,-244 646,-270"/>
<text text-anchor="middle" x="583" y="-254.55" font-family="Helvetica,sans-Serif" font-size="10.50" fill="white">json_value_add_integer</text>
</a>
</g>
<!-- interface~json_add&#45;&gt;proc~json_value_add_integer -->
<g id="edge118" class="edge"><title>interface~json_add&#45;&gt;proc~json_value_add_integer</title>
<path fill="none" stroke="black" stroke-dasharray="5,2" d="M206.81,-488.767C210.599,-437.886 228.174,-258.985 270,-226 354.683,-159.217 495.584,-208.885 555.103,-238.993"/>
<polygon fill="black" stroke="black" points="553.784,-242.254 564.263,-243.816 557.045,-236.06 553.784,-242.254"/>
</g>
<!-- proc~wrap_json_value_add_double_vec -->
<g id="node12" class="node"><title>proc~wrap_json_value_add_double_vec</title>
<a xlink:href="../proc/wrap_json_value_add_double_vec.html" xlink:title="wrap_json_value_add_double_vec">
<polygon fill="#d9534f" stroke="#d9534f" points="460,-490 282,-490 282,-464 460,-464 460,-490"/>
<text text-anchor="middle" x="371" y="-474.55" font-family="Helvetica,sans-Serif" font-size="10.50" fill="white">wrap_json_value_add_double_vec</text>
</a>
</g>
<!-- interface~json_add&#45;&gt;proc~wrap_json_value_add_double_vec -->
<g id="edge122" class="edge"><title>interface~json_add&#45;&gt;proc~wrap_json_value_add_double_vec</title>
<path fill="none" stroke="black" stroke-dasharray="5,2" d="M234.365,-497.702C245.968,-495.944 260.131,-493.798 274.891,-491.562"/>
<polygon fill="black" stroke="black" points="275.817,-494.962 285.18,-490.003 274.769,-488.041 275.817,-494.962"/>
</g>
<!-- proc~json_value_add_string_vec_name_ascii -->
<g id="node13" class="node"><title>proc~json_value_add_string_vec_name_ascii</title>
<a xlink:href="../proc/json_value_add_string_vec_name_ascii.html" xlink:title="json_value_add_string_vec_name_ascii">
<polygon fill="#d9534f" stroke="#d9534f" points="472,-70 270,-70 270,-44 472,-44 472,-70"/>
<text text-anchor="middle" x="371" y="-54.55" font-family="Helvetica,sans-Serif" font-size="10.50" fill="white">json_value_add_string_vec_name_ascii</text>
</a>
</g>
<!-- interface~json_add&#45;&gt;proc~json_value_add_string_vec_name_ascii -->
<g id="edge124" class="edge"><title>interface~json_add&#45;&gt;proc~json_value_add_string_vec_name_ascii</title>
<path fill="none" stroke="black" stroke-dasharray="5,2" d="M207.936,-488.701C218.26,-417.858 266.501,-87.9038 270,-84 272.782,-80.8955 275.879,-78.1308 279.21,-75.6698"/>
<polygon fill="black" stroke="black" points="281.347,-78.4594 287.93,-70.1576 277.607,-72.5424 281.347,-78.4594"/>
</g>
<!-- proc~json_value_add_logical_vec -->
<g id="node14" class="node"><title>proc~json_value_add_logical_vec</title>
<a xlink:href="../proc/json_value_add_logical_vec.html" xlink:title="json_value_add_logical_vec">
<polygon fill="#d9534f" stroke="#d9534f" points="656,-816 510,-816 510,-790 656,-790 656,-816"/>
<text text-anchor="middle" x="583" y="-800.55" font-family="Helvetica,sans-Serif" font-size="10.50" fill="white">json_value_add_logical_vec</text>
</a>
</g>
<!-- interface~json_add&#45;&gt;proc~json_value_add_logical_vec -->
<g id="edge126" class="edge"><title>interface~json_add&#45;&gt;proc~json_value_add_logical_vec</title>
<path fill="none" stroke="black" stroke-dasharray="5,2" d="M206.443,-515.306C208.491,-572.272 219.241,-791.882 270,-834 339.09,-891.329 384.624,-854.627 472,-834 486.01,-830.693 490.003,-825.29 500.696,-819.51"/>
<polygon fill="black" stroke="black" points="502.293,-822.628 509.906,-815.259 499.359,-816.272 502.293,-822.628"/>
</g>
<!-- proc~json_value_add_double -->
<g id="node15" class="node"><title>proc~json_value_add_double</title>
<a xlink:href="../proc/json_value_add_double.html" xlink:title="json_value_add_double">
<polygon fill="#d9534f" stroke="#d9534f" points="646,-170 520,-170 520,-144 646,-144 646,-170"/>
<text text-anchor="middle" x="583" y="-154.55" font-family="Helvetica,sans-Serif" font-size="10.50" fill="white">json_value_add_double</text>
</a>
</g>
<!-- interface~json_add&#45;&gt;proc~json_value_add_double -->
<g id="edge128" class="edge"><title>interface~json_add&#45;&gt;proc~json_value_add_double</title>
<path fill="none" stroke="black" stroke-dasharray="5,2" d="M207.459,-488.885C215.624,-423.424 255.798,-137.94 270,-126 352.946,-56.2672 495.978,-108.191 555.632,-139.032"/>
<polygon fill="black" stroke="black" points="554.331,-142.306 564.795,-143.962 557.648,-136.141 554.331,-142.306"/>
</g>
<!-- proc~wrap_json_value_add_string -->
<g id="node16" class="node"><title>proc~wrap_json_value_add_string</title>
<a xlink:href="../proc/wrap_json_value_add_string.html" xlink:title="wrap_json_value_add_string">
<polygon fill="#d9534f" stroke="#d9534f" points="445,-358 297,-358 297,-332 445,-332 445,-358"/>
<text text-anchor="middle" x="371" y="-342.55" font-family="Helvetica,sans-Serif" font-size="10.50" fill="white">wrap_json_value_add_string</text>
</a>
</g>
<!-- interface~json_add&#45;&gt;proc~wrap_json_value_add_string -->
<g id="edge130" class="edge"><title>interface~json_add&#45;&gt;proc~wrap_json_value_add_string</title>
<path fill="none" stroke="black" stroke-dasharray="5,2" d="M211.567,-488.571C225.151,-456.069 259.642,-375.228 270,-367 275.072,-362.971 280.721,-359.641 286.685,-356.893"/>
<polygon fill="black" stroke="black" points="288.304,-360.014 296.276,-353.036 285.692,-353.519 288.304,-360.014"/>
</g>
<!-- proc~wrap_json_value_add_logical_vec -->
<g id="node17" class="node"><title>proc~wrap_json_value_add_logical_vec</title>
<a xlink:href="../proc/wrap_json_value_add_logical_vec.html" xlink:title="wrap_json_value_add_logical_vec">
<polygon fill="#d9534f" stroke="#d9534f" points="458,-634 284,-634 284,-608 458,-608 458,-634"/>
<text text-anchor="middle" x="371" y="-618.55" font-family="Helvetica,sans-Serif" font-size="10.50" fill="white">wrap_json_value_add_logical_vec</text>
</a>
</g>
<!-- interface~json_add&#45;&gt;proc~wrap_json_value_add_logical_vec -->
<g id="edge132" class="edge"><title>interface~json_add&#45;&gt;proc~wrap_json_value_add_logical_vec</title>
<path fill="none" stroke="black" stroke-dasharray="5,2" d="M210.796,-515.031C219.289,-536.189 239.05,-577.779 270,-599 272.394,-600.641 274.888,-602.163 277.46,-603.573"/>
<polygon fill="black" stroke="black" points="275.953,-606.732 286.477,-607.954 279.012,-600.436 275.953,-606.732"/>
</g>
<!-- proc~json_value_add_string -->
<g id="node18" class="node"><title>proc~json_value_add_string</title>
<a xlink:href="../proc/json_value_add_string.html" xlink:title="json_value_add_string">
<polygon fill="#d9534f" stroke="#d9534f" points="643,-494 523,-494 523,-468 643,-468 643,-494"/>
<text text-anchor="middle" x="583" y="-478.55" font-family="Helvetica,sans-Serif" font-size="10.50" fill="white">json_value_add_string</text>
</a>
</g>
<!-- interface~json_add&#45;&gt;proc~json_value_add_string -->
<g id="edge134" class="edge"><title>interface~json_add&#45;&gt;proc~json_value_add_string</title>
<path fill="none" stroke="black" stroke-dasharray="5,2" d="M234.023,-497.621C282.589,-495.581 385.496,-497.459 472,-490 485.175,-488.864 499.148,-487.069 512.576,-485.21"/>
<polygon fill="black" stroke="black" points="513.299,-488.643 522.715,-483.786 512.326,-481.711 513.299,-488.643"/>
</g>
<!-- proc~json_value_add_string_val_ascii -->
<g id="node19" class="node"><title>proc~json_value_add_string_val_ascii</title>
<a xlink:href="../proc/json_value_add_string_val_ascii.html" xlink:title="json_value_add_string_val_ascii">
<polygon fill="#d9534f" stroke="#d9534f" points="454,-446 288,-446 288,-420 454,-420 454,-446"/>
<text text-anchor="middle" x="371" y="-430.55" font-family="Helvetica,sans-Serif" font-size="10.50" fill="white">json_value_add_string_val_ascii</text>
</a>
</g>
<!-- interface~json_add&#45;&gt;proc~json_value_add_string_val_ascii -->
<g id="edge136" class="edge"><title>interface~json_add&#45;&gt;proc~json_value_add_string_val_ascii</title>
<path fill="none" stroke="black" stroke-dasharray="5,2" d="M220.137,-488.874C232.419,-478.18 251.152,-463.506 270,-455 274.735,-452.863 279.69,-450.928 284.755,-449.177"/>
<polygon fill="black" stroke="black" points="286.142,-452.408 294.603,-446.031 284.012,-445.74 286.142,-452.408"/>
</g>
<!-- proc~json_value_add_double_vec -->
<g id="node20" class="node"><title>proc~json_value_add_double_vec</title>
<a xlink:href="../proc/json_value_add_double_vec.html" xlink:title="json_value_add_double_vec">
<polygon fill="#d9534f" stroke="#d9534f" points="657,-728 509,-728 509,-702 657,-702 657,-728"/>
<text text-anchor="middle" x="583" y="-712.55" font-family="Helvetica,sans-Serif" font-size="10.50" fill="white">json_value_add_double_vec</text>
</a>
</g>
<!-- interface~json_add&#45;&gt;proc~json_value_add_double_vec -->
<g id="edge138" class="edge"><title>interface~json_add&#45;&gt;proc~json_value_add_double_vec</title>
<path fill="none" stroke="black" stroke-dasharray="5,2" d="M209.599,-515.261C218.504,-552.876 242.823,-656.756 270,-678 334.086,-728.096 429.693,-729.337 498.367,-723.415"/>
<polygon fill="black" stroke="black" points="499.089,-726.863 508.722,-722.453 498.441,-719.894 499.089,-726.863"/>
</g>
<!-- proc~wrap_json_value_add_string_vec -->
<g id="node21" class="node"><title>proc~wrap_json_value_add_string_vec</title>
<a xlink:href="../proc/wrap_json_value_add_string_vec.html" xlink:title="wrap_json_value_add_string_vec">
<polygon fill="#d9534f" stroke="#d9534f" points="457,-26 285,-26 285,-1.24345e-14 457,-3.55271e-15 457,-26"/>
<text text-anchor="middle" x="371" y="-10.55" font-family="Helvetica,sans-Serif" font-size="10.50" fill="white">wrap_json_value_add_string_vec</text>
</a>
</g>
<!-- interface~json_add&#45;&gt;proc~wrap_json_value_add_string_vec -->
<g id="edge140" class="edge"><title>interface~json_add&#45;&gt;proc~wrap_json_value_add_string_vec</title>
<path fill="none" stroke="black" stroke-dasharray="5,2" d="M206.924,-488.659C212.079,-415.943 238.194,-69.3989 270,-35 271.866,-32.9824 273.869,-31.1274 275.988,-29.4228"/>
<polygon fill="black" stroke="black" points="278.342,-32.0572 284.681,-23.568 274.432,-26.2512 278.342,-32.0572"/>
</g>
<!-- proc~json_value_add_string_name_ascii -->
<g id="node22" class="node"><title>proc~json_value_add_string_name_ascii</title>
<a xlink:href="../proc/json_value_add_string_name_ascii.html" xlink:title="json_value_add_string_name_ascii">
<polygon fill="#d9534f" stroke="#d9534f" points="461,-402 281,-402 281,-376 461,-376 461,-402"/>
<text text-anchor="middle" x="371" y="-386.55" font-family="Helvetica,sans-Serif" font-size="10.50" fill="white">json_value_add_string_name_ascii</text>
</a>
</g>
<!-- interface~json_add&#45;&gt;proc~json_value_add_string_name_ascii -->
<g id="edge142" class="edge"><title>interface~json_add&#45;&gt;proc~json_value_add_string_name_ascii</title>
<path fill="none" stroke="black" stroke-dasharray="5,2" d="M211.461,-488.791C220.503,-468.652 240.555,-430.552 270,-411 272.571,-409.293 275.252,-407.716 278.017,-406.259"/>
<polygon fill="black" stroke="black" points="279.529,-409.416 287.1,-402.005 276.56,-403.077 279.529,-409.416"/>
</g>
<!-- proc~wrap_json_value_add_integer -->
<g id="node23" class="node"><title>proc~wrap_json_value_add_integer</title>
<a xlink:href="../proc/wrap_json_value_add_integer.html" xlink:title="wrap_json_value_add_integer">
<polygon fill="#d9534f" stroke="#d9534f" points="449,-270 293,-270 293,-244 449,-244 449,-270"/>
<text text-anchor="middle" x="371" y="-254.55" font-family="Helvetica,sans-Serif" font-size="10.50" fill="white">wrap_json_value_add_integer</text>
</a>
</g>
<!-- interface~json_add&#45;&gt;proc~wrap_json_value_add_integer -->
<g id="edge144" class="edge"><title>interface~json_add&#45;&gt;proc~wrap_json_value_add_integer</title>
<path fill="none" stroke="black" stroke-dasharray="5,2" d="M207.968,-488.95C214.738,-445.773 238.404,-308.606 270,-279 274.092,-275.165 278.691,-271.939 283.61,-269.23"/>
<polygon fill="black" stroke="black" points="285.232,-272.335 292.773,-264.892 282.237,-266.008 285.232,-272.335"/>
</g>
<!-- proc~wrap_json_value_add_double -->
<g id="node24" class="node"><title>proc~wrap_json_value_add_double</title>
<a xlink:href="../proc/wrap_json_value_add_double.html" xlink:title="wrap_json_value_add_double">
<polygon fill="#d9534f" stroke="#d9534f" points="448,-170 294,-170 294,-144 448,-144 448,-170"/>
<text text-anchor="middle" x="371" y="-154.55" font-family="Helvetica,sans-Serif" font-size="10.50" fill="white">wrap_json_value_add_double</text>
</a>
</g>
<!-- interface~json_add&#45;&gt;proc~wrap_json_value_add_double -->
<g id="edge146" class="edge"><title>interface~json_add&#45;&gt;proc~wrap_json_value_add_double</title>
<path fill="none" stroke="black" stroke-dasharray="5,2" d="M207.845,-488.651C215.895,-431.2 248.506,-206.884 270,-184 274.179,-179.55 279.004,-175.804 284.232,-172.653"/>
<polygon fill="black" stroke="black" points="286.117,-175.617 293.368,-167.892 282.883,-169.409 286.117,-175.617"/>
</g>
<!-- proc~destroy_json_data -->
<g id="node26" class="node"><title>proc~destroy_json_data</title>
<a xlink:href="../proc/destroy_json_data.html" xlink:title="destroy_json_data">
<polygon fill="#d9534f" stroke="#d9534f" points="930,-482 830,-482 830,-456 930,-456 930,-482"/>
<text text-anchor="middle" x="880" y="-466.55" font-family="Helvetica,sans-Serif" font-size="10.50" fill="white">destroy_json_data</text>
</a>
</g>
<!-- proc~to_array&#45;&gt;proc~destroy_json_data -->
<g id="edge148" class="edge"><title>proc~to_array&#45;&gt;proc~destroy_json_data</title>
<path fill="none" stroke="black" d="M771.038,-751.887C779.351,-748.548 787.906,-743.764 794,-737 859.078,-664.777 874.946,-542.945 878.786,-492.234"/>
<polygon fill="black" stroke="black" points="882.296,-492.211 879.468,-482.001 875.311,-491.746 882.296,-492.211"/>
</g>
<!-- proc~json_value_add_logical&#45;&gt;interface~json_add -->
<g id="edge8" class="edge"><title>proc~json_value_add_logical&#45;&gt;interface~json_add</title>
<path fill="none" stroke="black" d="M566.282,-860.186C515.074,-892.398 358.498,-964.807 270,-890 242.074,-866.394 215.051,-605.367 207.857,-525.141"/>
<polygon fill="black" stroke="black" points="211.334,-524.721 206.975,-515.064 204.36,-525.331 211.334,-524.721"/>
</g>
<!-- proc~json_value_add_logical&#45;&gt;proc~json_value_create -->
<g id="edge4" class="edge"><title>proc~json_value_add_logical&#45;&gt;proc~json_value_create</title>
<path fill="none" stroke="black" d="M645.203,-833.824C649.826,-831.367 654.171,-828.454 658,-825 689.379,-796.697 664.513,-767.269 694,-737 695.055,-735.917 696.172,-734.884 697.34,-733.899"/>
<polygon fill="black" stroke="black" points="699.48,-736.673 705.655,-728.064 695.459,-730.943 699.48,-736.673"/>
</g>
<!-- proc~to_logical -->
<g id="node25" class="node"><title>proc~to_logical</title>
<a xlink:href="../proc/to_logical.html" xlink:title="to_logical">
<polygon fill="#d9534f" stroke="#d9534f" points="773,-838 715,-838 715,-812 773,-812 773,-838"/>
<text text-anchor="middle" x="744" y="-822.55" font-family="Helvetica,sans-Serif" font-size="10.50" fill="white">to_logical</text>
</a>
</g>
<!-- proc~json_value_add_logical&#45;&gt;proc~to_logical -->
<g id="edge6" class="edge"><title>proc~json_value_add_logical&#45;&gt;proc~to_logical</title>
<path fill="none" stroke="black" d="M645.247,-838.494C665.219,-835.765 686.773,-832.82 704.633,-830.379"/>
<polygon fill="black" stroke="black" points="705.248,-833.828 714.682,-829.006 704.3,-826.892 705.248,-833.828"/>
</g>
<!-- proc~wrap_json_value_add_logical&#45;&gt;proc~json_value_add_logical -->
<g id="edge14" class="edge"><title>proc~wrap_json_value_add_logical&#45;&gt;proc~json_value_add_logical</title>
<path fill="none" stroke="black" d="M447.537,-830.387C468.134,-832.913 490.342,-835.636 510.7,-838.133"/>
<polygon fill="black" stroke="black" points="510.492,-841.634 520.843,-839.377 511.344,-834.686 510.492,-841.634"/>
</g>
<!-- interface~to_unicode -->
<g id="node31" class="node"><title>interface~to_unicode</title>
<a xlink:href="../interface/to_unicode.html" xlink:title="to_unicode">
<polygon fill="#a7506f" stroke="#a7506f" points="615,-380 551,-380 551,-354 615,-354 615,-380"/>
<text text-anchor="middle" x="583" y="-364.55" font-family="Helvetica,sans-Serif" font-size="10.50" fill="white">to_unicode</text>
</a>
</g>
<!-- proc~wrap_json_value_add_logical&#45;&gt;interface~to_unicode -->
<g id="edge16" class="edge"><title>proc~wrap_json_value_add_logical&#45;&gt;interface~to_unicode</title>
<path fill="none" stroke="black" d="M384.42,-807.973C406.638,-785.534 450.723,-737.15 472,-687 512.067,-592.559 466.142,-552.661 508,-459 520.468,-431.101 543.657,-404.654 560.963,-387.338"/>
<polygon fill="black" stroke="black" points="563.721,-389.537 568.441,-380.052 558.836,-384.524 563.721,-389.537"/>
</g>
<!-- proc~wrap_json_value_add_integer_vec&#45;&gt;proc~json_value_add_integer_vec -->
<g id="edge18" class="edge"><title>proc~wrap_json_value_add_integer_vec&#45;&gt;proc~json_value_add_integer_vec</title>
<path fill="none" stroke="black" d="M460.014,-589.987C464.335,-592.538 468.375,-595.52 472,-599 517.724,-642.899 463.86,-691.509 508,-737 509.063,-738.096 510.178,-739.137 511.337,-740.128"/>
<polygon fill="black" stroke="black" points="509.384,-743.034 519.569,-745.95 513.426,-737.318 509.384,-743.034"/>
</g>
<!-- proc~wrap_json_value_add_integer_vec&#45;&gt;interface~to_unicode -->
<g id="edge20" class="edge"><title>proc~wrap_json_value_add_integer_vec&#45;&gt;interface~to_unicode</title>
<path fill="none" stroke="black" d="M390.598,-563.765C411.703,-549.09 445.779,-524.152 472,-499 491.835,-479.973 540.31,-420.346 566.144,-388.139"/>
<polygon fill="black" stroke="black" points="568.974,-390.204 572.491,-380.21 563.51,-385.83 568.974,-390.204"/>
</g>
<!-- proc~json_value_add_string_vec_val_ascii&#45;&gt;proc~json_value_add_string_vec -->
<g id="edge24" class="edge"><title>proc~json_value_add_string_vec_val_ascii&#45;&gt;proc~json_value_add_string_vec</title>
<path fill="none" stroke="black" d="M291.854,-314.038C284.278,-316.524 276.868,-319.481 270,-323 191.181,-363.385 119.425,-442.849 87.9006,-480.821"/>
<polygon fill="black" stroke="black" points="85.0837,-478.737 81.4527,-488.69 90.4981,-483.174 85.0837,-478.737"/>
</g>
<!-- proc~json_value_add_string_vec_val_ascii&#45;&gt;interface~to_unicode -->
<g id="edge22" class="edge"><title>proc~json_value_add_string_vec_val_ascii&#45;&gt;interface~to_unicode</title>
<path fill="none" stroke="black" d="M438.22,-314.037C449.577,-316.696 461.186,-319.703 472,-323 496.589,-330.497 523.402,-341.055 544.514,-349.95"/>
<polygon fill="black" stroke="black" points="543.214,-353.2 553.785,-353.903 545.959,-346.761 543.214,-353.2"/>
</g>
<!-- proc~json_value_add_integer_vec&#45;&gt;interface~json_add -->
<g id="edge26" class="edge"><title>proc~json_value_add_integer_vec&#45;&gt;interface~json_add</title>
<path fill="none" stroke="black" d="M551.152,-772.12C489.212,-789.614 351.47,-809.473 270,-742 236.792,-714.497 215.41,-580.16 208.468,-525.193"/>
<polygon fill="black" stroke="black" points="211.914,-524.532 207.24,-515.024 204.964,-525.372 211.914,-524.532"/>
</g>
<!-- proc~json_value_add_integer_vec&#45;&gt;proc~json_value_create -->
<g id="edge28" class="edge"><title>proc~json_value_add_integer_vec&#45;&gt;proc~json_value_create</title>
<path fill="none" stroke="black" d="M630.869,-745.918C648.391,-741.129 668.395,-735.662 686.66,-730.671"/>
<polygon fill="black" stroke="black" points="687.591,-734.044 696.315,-728.032 685.746,-727.292 687.591,-734.044"/>
</g>
<!-- proc~json_value_add_integer_vec&#45;&gt;proc~to_array -->
<g id="edge30" class="edge"><title>proc~json_value_add_integer_vec&#45;&gt;proc~to_array</title>
<path fill="none" stroke="black" d="M657.844,-759C674.76,-759 692.011,-759 706.589,-759"/>
<polygon fill="black" stroke="black" points="706.689,-762.5 716.689,-759 706.689,-755.5 706.689,-762.5"/>
</g>
<!-- proc~json_value_add_integer&#45;&gt;interface~json_add -->
<g id="edge38" class="edge"><title>proc~json_value_add_integer&#45;&gt;interface~json_add</title>
<path fill="none" stroke="black" d="M542.123,-243.971C477.005,-220.768 349.024,-181.679 270,-244 232.464,-273.602 214.459,-420.718 208.423,-478.706"/>
<polygon fill="black" stroke="black" points="204.931,-478.449 207.402,-488.752 211.895,-479.156 204.931,-478.449"/>
</g>
<!-- proc~json_value_add_integer&#45;&gt;proc~json_value_create -->
<g id="edge34" class="edge"><title>proc~json_value_add_integer&#45;&gt;proc~json_value_create</title>
<path fill="none" stroke="black" d="M598.331,-270.264C615.688,-286.19 643.437,-314.583 658,-345 695.115,-422.52 674.481,-451.299 694,-535 707.293,-592.002 726.692,-658.09 736.982,-692.125"/>
<polygon fill="black" stroke="black" points="733.726,-693.448 739.984,-701.997 740.423,-691.411 733.726,-693.448"/>
</g>
<!-- proc~to_integer -->
<g id="node45" class="node"><title>proc~to_integer</title>
<a xlink:href="../proc/to_integer.html" xlink:title="to_integer">
<polygon fill="#d9534f" stroke="#d9534f" points="774,-281 714,-281 714,-255 774,-255 774,-281"/>
<text text-anchor="middle" x="744" y="-265.55" font-family="Helvetica,sans-Serif" font-size="10.50" fill="white">to_integer</text>
</a>
</g>
<!-- proc~json_value_add_integer&#45;&gt;proc~to_integer -->
<g id="edge36" class="edge"><title>proc~json_value_add_integer&#45;&gt;proc~to_integer</title>
<path fill="none" stroke="black" d="M646.631,-261.347C665.702,-262.65 686.095,-264.044 703.265,-265.217"/>
<polygon fill="black" stroke="black" points="703.283,-268.726 713.498,-265.916 703.76,-261.742 703.283,-268.726"/>
</g>
<!-- proc~wrap_json_value_add_double_vec&#45;&gt;proc~json_value_add_double_vec -->
<g id="edge40" class="edge"><title>proc~wrap_json_value_add_double_vec&#45;&gt;proc~json_value_add_double_vec</title>
<path fill="none" stroke="black" d="M391.455,-490.038C412.98,-504.357 447.125,-528.821 472,-555 513.997,-599.2 551.91,-660.529 570.65,-692.918"/>
<polygon fill="black" stroke="black" points="567.834,-695.044 575.834,-701.99 573.911,-691.571 567.834,-695.044"/>
</g>
<!-- proc~wrap_json_value_add_double_vec&#45;&gt;interface~to_unicode -->
<g id="edge42" class="edge"><title>proc~wrap_json_value_add_double_vec&#45;&gt;interface~to_unicode</title>
<path fill="none" stroke="black" d="M448.595,-463.928C456.674,-461.444 464.621,-458.496 472,-455 507.867,-438.009 542.625,-407.469 563.418,-387.214"/>
<polygon fill="black" stroke="black" points="566.048,-389.535 570.677,-380.005 561.115,-384.569 566.048,-389.535"/>
</g>
<!-- proc~json_value_add_string_vec_name_ascii&#45;&gt;proc~json_value_add_string_vec -->
<g id="edge46" class="edge"><title>proc~json_value_add_string_vec_name_ascii&#45;&gt;proc~json_value_add_string_vec</title>
<path fill="none" stroke="black" d="M317.284,-70.045C300.648,-76.1122 283.233,-84.7812 270,-97 148.962,-208.765 92.4954,-410.2 76.1905,-478.567"/>
<polygon fill="black" stroke="black" points="72.688,-478.177 73.8366,-488.71 79.5068,-479.76 72.688,-478.177"/>
</g>
<!-- proc~json_value_add_string_vec_name_ascii&#45;&gt;interface~to_unicode -->
<g id="edge44" class="edge"><title>proc~json_value_add_string_vec_name_ascii&#45;&gt;interface~to_unicode</title>
<path fill="none" stroke="black" d="M396.536,-70.1655C419.718,-83.4365 453.086,-106.073 472,-135 508.102,-190.214 477.806,-220.346 508,-279 521.465,-305.157 544.093,-330.206 560.98,-346.843"/>
<polygon fill="black" stroke="black" points="558.649,-349.457 568.281,-353.868 563.502,-344.413 558.649,-349.457"/>
</g>
<!-- proc~json_value_add_logical_vec&#45;&gt;interface~json_add -->
<g id="edge48" class="edge"><title>proc~json_value_add_logical_vec&#45;&gt;interface~json_add</title>
<path fill="none" stroke="black" d="M560.664,-816.054C545.565,-821.377 525.302,-827.2 508,-834 491.351,-840.544 489.41,-847.89 472,-852 384.624,-872.627 339.09,-909.329 270,-852 220.059,-810.56 208.847,-597.301 206.549,-525.45"/>
<polygon fill="black" stroke="black" points="210.04,-525.076 206.252,-515.181 203.043,-525.278 210.04,-525.076"/>
</g>
<!-- proc~json_value_add_logical_vec&#45;&gt;proc~json_value_create -->
<g id="edge50" class="edge"><title>proc~json_value_add_logical_vec&#45;&gt;proc~json_value_create</title>
<path fill="none" stroke="black" d="M640.714,-789.996C646.791,-787.494 652.684,-784.523 658,-781 679.063,-767.043 673.882,-752.287 694,-737 695.81,-735.625 697.719,-734.314 699.693,-733.068"/>
<polygon fill="black" stroke="black" points="701.663,-735.976 708.658,-728.019 698.227,-729.877 701.663,-735.976"/>
</g>
<!-- proc~json_value_add_logical_vec&#45;&gt;proc~to_array -->
<g id="edge52" class="edge"><title>proc~json_value_add_logical_vec&#45;&gt;proc~to_array</title>
<path fill="none" stroke="black" d="M630.869,-789.918C655.145,-783.283 684.185,-775.347 706.765,-769.176"/>
<polygon fill="black" stroke="black" points="707.921,-772.489 716.644,-766.476 706.075,-765.736 707.921,-772.489"/>
</g>
<!-- proc~json_value_add_double&#45;&gt;interface~json_add -->
<g id="edge60" class="edge"><title>proc~json_value_add_double&#45;&gt;interface~json_add</title>
<path fill="none" stroke="black" d="M543.25,-143.984C477.994,-120.067 347.66,-78.7106 270,-144 256.847,-155.058 221.418,-400.739 209.769,-478.673"/>
<polygon fill="black" stroke="black" points="206.256,-478.497 208.228,-488.907 213.178,-479.539 206.256,-478.497"/>
</g>
<!-- proc~json_value_add_double&#45;&gt;proc~json_value_create -->
<g id="edge56" class="edge"><title>proc~json_value_add_double&#45;&gt;proc~json_value_create</title>
<path fill="none" stroke="black" d="M601.299,-170.221C619.048,-184.16 645.126,-207.839 658,-235 715.516,-356.349 667.954,-403.26 694,-535 705.296,-592.133 725.345,-657.677 736.311,-691.723"/>
<polygon fill="black" stroke="black" points="733.108,-693.192 739.529,-701.62 739.765,-691.028 733.108,-693.192"/>
</g>
<!-- proc~to_double -->
<g id="node57" class="node"><title>proc~to_double</title>
<a xlink:href="../proc/to_double.html" xlink:title="to_double">
<polygon fill="#d9534f" stroke="#d9534f" points="774,-220 714,-220 714,-194 774,-194 774,-220"/>
<text text-anchor="middle" x="744" y="-204.55" font-family="Helvetica,sans-Serif" font-size="10.50" fill="white">to_double</text>
</a>
</g>
<!-- proc~json_value_add_double&#45;&gt;proc~to_double -->
<g id="edge58" class="edge"><title>proc~json_value_add_double&#45;&gt;proc~to_double</title>
<path fill="none" stroke="black" d="M624.881,-170.006C649.365,-177.61 680.097,-187.154 704.212,-194.644"/>
<polygon fill="black" stroke="black" points="703.181,-197.988 713.77,-197.612 705.258,-191.303 703.181,-197.988"/>
</g>
<!-- proc~wrap_json_value_add_string&#45;&gt;proc~json_value_add_string -->
<g id="edge64" class="edge"><title>proc~wrap_json_value_add_string&#45;&gt;proc~json_value_add_string</title>
<path fill="none" stroke="black" d="M445.647,-356.02C454.828,-358.876 463.84,-362.472 472,-367 513.269,-389.9 548.894,-433.012 568.027,-459.156"/>
<polygon fill="black" stroke="black" points="565.426,-461.536 574.089,-467.635 571.12,-457.465 565.426,-461.536"/>
</g>
<!-- proc~wrap_json_value_add_string&#45;&gt;interface~to_unicode -->
<g id="edge62" class="edge"><title>proc~wrap_json_value_add_string&#45;&gt;interface~to_unicode</title>
<path fill="none" stroke="black" d="M445.743,-352.756C477.316,-356.033 512.951,-359.731 539.998,-362.538"/>
<polygon fill="black" stroke="black" points="539.977,-366.054 550.285,-363.605 540.7,-359.091 539.977,-366.054"/>
</g>
<!-- proc~wrap_json_value_add_logical_vec&#45;&gt;proc~json_value_add_logical_vec -->
<g id="edge68" class="edge"><title>proc~wrap_json_value_add_logical_vec&#45;&gt;proc~json_value_add_logical_vec</title>
<path fill="none" stroke="black" d="M458.616,-633.181C463.465,-635.905 467.987,-639.147 472,-643 517.724,-686.899 463.86,-735.509 508,-781 509.063,-782.096 510.178,-783.137 511.337,-784.128"/>
<polygon fill="black" stroke="black" points="509.384,-787.034 519.569,-789.95 513.426,-781.318 509.384,-787.034"/>
</g>
<!-- proc~wrap_json_value_add_logical_vec&#45;&gt;interface~to_unicode -->
<g id="edge66" class="edge"><title>proc~wrap_json_value_add_logical_vec&#45;&gt;interface~to_unicode</title>
<path fill="none" stroke="black" d="M458.631,-608.835C463.477,-606.108 467.994,-602.86 472,-599 518.267,-554.424 479.029,-516.343 508,-459 521.78,-431.725 544.761,-405.179 561.66,-387.669"/>
<polygon fill="black" stroke="black" points="564.409,-389.867 568.941,-380.29 559.426,-384.95 564.409,-389.867"/>
</g>
<!-- proc~json_value_add_string&#45;&gt;interface~json_add -->
<g id="edge72" class="edge"><title>proc~json_value_add_string&#45;&gt;interface~json_add</title>
<path fill="none" stroke="black" d="M554.859,-494.088C532.508,-500.041 500.398,-505.551 472,-508 391.072,-514.979 295.786,-513.784 244.072,-509.434"/>
<polygon fill="black" stroke="black" points="244.307,-505.941 234.023,-508.492 243.653,-512.91 244.307,-505.941"/>
</g>
<!-- proc~json_value_add_string&#45;&gt;proc~json_value_create -->
<g id="edge78" class="edge"><title>proc~json_value_add_string&#45;&gt;proc~json_value_create</title>
<path fill="none" stroke="black" d="M592.117,-494.251C618.739,-532.944 696.541,-646.022 729.247,-693.557"/>
<polygon fill="black" stroke="black" points="726.431,-695.64 734.983,-701.894 732.198,-691.672 726.431,-695.64"/>
</g>
<!-- proc~escape_string -->
<g id="node66" class="node"><title>proc~escape_string</title>
<a xlink:href="../proc/escape_string.html" xlink:title="escape_string">
<polygon fill="#d9534f" stroke="#d9534f" points="783,-526 705,-526 705,-500 783,-500 783,-526"/>
<text text-anchor="middle" x="744" y="-510.55" font-family="Helvetica,sans-Serif" font-size="10.50" fill="white">escape_string</text>
</a>
</g>
<!-- proc~json_value_add_string&#45;&gt;proc~escape_string -->
<g id="edge74" class="edge"><title>proc~json_value_add_string&#45;&gt;proc~escape_string</title>
<path fill="none" stroke="black" d="M643.409,-493.007C660.097,-496.324 678.016,-499.885 694.039,-503.07"/>
<polygon fill="black" stroke="black" points="693.773,-506.585 704.264,-505.102 695.138,-499.72 693.773,-506.585"/>
</g>
<!-- proc~to_string -->
<g id="node67" class="node"><title>proc~to_string</title>
<a xlink:href="../proc/to_string.html" xlink:title="to_string">
<polygon fill="#d9534f" stroke="#d9534f" points="771,-482 717,-482 717,-456 771,-456 771,-482"/>
<text text-anchor="middle" x="744" y="-466.55" font-family="Helvetica,sans-Serif" font-size="10.50" fill="white">to_string</text>
</a>
</g>
<!-- proc~json_value_add_string&#45;&gt;proc~to_string -->
<g id="edge76" class="edge"><title>proc~json_value_add_string&#45;&gt;proc~to_string</title>
<path fill="none" stroke="black" d="M643.409,-476.498C664.691,-474.911 687.974,-473.176 706.776,-471.774"/>
<polygon fill="black" stroke="black" points="707.286,-475.246 716.998,-471.013 706.766,-468.266 707.286,-475.246"/>
</g>
<!-- proc~json_value_add_string_val_ascii&#45;&gt;proc~json_value_add_string -->
<g id="edge82" class="edge"><title>proc~json_value_add_string_val_ascii&#45;&gt;proc~json_value_add_string</title>
<path fill="none" stroke="black" d="M431.652,-446.05C444.955,-448.958 458.959,-452.053 472,-455 486.966,-458.382 503.046,-462.1 518.193,-465.641"/>
<polygon fill="black" stroke="black" points="517.457,-469.063 527.991,-467.936 519.053,-462.247 517.457,-469.063"/>
</g>
<!-- proc~json_value_add_string_val_ascii&#45;&gt;interface~to_unicode -->
<g id="edge80" class="edge"><title>proc~json_value_add_string_val_ascii&#45;&gt;interface~to_unicode</title>
<path fill="none" stroke="black" d="M438.22,-419.963C449.577,-417.304 461.186,-414.297 472,-411 496.589,-403.503 523.402,-392.945 544.514,-384.05"/>
<polygon fill="black" stroke="black" points="545.959,-387.239 553.785,-380.097 543.214,-380.8 545.959,-387.239"/>
</g>
<!-- proc~json_value_add_double_vec&#45;&gt;interface~json_add -->
<g id="edge84" class="edge"><title>proc~json_value_add_double_vec&#45;&gt;interface~json_add</title>
<path fill="none" stroke="black" d="M549.08,-728.05C486.625,-744.091 352.313,-760.343 270,-696 242.986,-674.883 218.796,-572.119 209.761,-525.13"/>
<polygon fill="black" stroke="black" points="213.19,-524.428 207.931,-515.23 206.307,-525.7 213.19,-524.428"/>
</g>
<!-- proc~json_value_add_double_vec&#45;&gt;proc~json_value_create -->
<g id="edge86" class="edge"><title>proc~json_value_add_double_vec&#45;&gt;proc~json_value_create</title>
<path fill="none" stroke="black" d="M657.373,-715C666.16,-715 675.044,-715 683.604,-715"/>
<polygon fill="black" stroke="black" points="683.857,-718.5 693.857,-715 683.857,-711.5 683.857,-718.5"/>
</g>
<!-- proc~json_value_add_double_vec&#45;&gt;proc~to_array -->
<g id="edge88" class="edge"><title>proc~json_value_add_double_vec&#45;&gt;proc~to_array</title>
<path fill="none" stroke="black" d="M630.869,-728.082C655.145,-734.717 684.185,-742.653 706.765,-748.824"/>
<polygon fill="black" stroke="black" points="706.075,-752.264 716.644,-751.524 707.921,-745.511 706.075,-752.264"/>
</g>
<!-- proc~wrap_json_value_add_string_vec&#45;&gt;proc~json_value_add_string_vec -->
<g id="edge92" class="edge"><title>proc~wrap_json_value_add_string_vec&#45;&gt;proc~json_value_add_string_vec</title>
<path fill="none" stroke="black" d="M289.349,-26.0217C282.593,-28.5105 276.045,-31.4732 270,-35 216.982,-65.9295 207.829,-84.3554 178,-138 112.293,-256.168 83.1636,-418.865 74.1992,-478.705"/>
<polygon fill="black" stroke="black" points="70.6845,-478.555 72.7129,-488.954 77.612,-479.559 70.6845,-478.555"/>
</g>
<!-- proc~wrap_json_value_add_string_vec&#45;&gt;interface~to_unicode -->
<g id="edge90" class="edge"><title>proc~wrap_json_value_add_string_vec&#45;&gt;interface~to_unicode</title>
<path fill="none" stroke="black" d="M457.266,-23.6171C462.709,-26.6643 467.712,-30.4102 472,-35 546.833,-115.102 462.687,-179.185 508,-279 520.089,-305.629 542.708,-330.45 559.957,-346.896"/>
<polygon fill="black" stroke="black" points="557.735,-349.608 567.448,-353.839 562.493,-344.474 557.735,-349.608"/>
</g>
<!-- proc~json_value_add_string_name_ascii&#45;&gt;proc~json_value_add_string -->
<g id="edge96" class="edge"><title>proc~json_value_add_string_name_ascii&#45;&gt;proc~json_value_add_string</title>
<path fill="none" stroke="black" d="M445.277,-402.058C454.426,-404.574 463.53,-407.533 472,-411 503.689,-423.972 536.427,-445.839 558.061,-461.686"/>
<polygon fill="black" stroke="black" points="556.229,-464.686 566.339,-467.855 560.412,-459.073 556.229,-464.686"/>
</g>
<!-- proc~json_value_add_string_name_ascii&#45;&gt;interface~to_unicode -->
<g id="edge94" class="edge"><title>proc~json_value_add_string_name_ascii&#45;&gt;interface~to_unicode</title>
<path fill="none" stroke="black" d="M461.214,-379.638C488.677,-376.788 517.585,-373.788 540.342,-371.427"/>
<polygon fill="black" stroke="black" points="540.752,-374.903 550.337,-370.39 540.029,-367.94 540.752,-374.903"/>
</g>
<!-- proc~wrap_json_value_add_integer&#45;&gt;proc~json_value_add_integer -->
<g id="edge98" class="edge"><title>proc~wrap_json_value_add_integer&#45;&gt;proc~json_value_add_integer</title>
<path fill="none" stroke="black" d="M449.038,-257C468.743,-257 489.837,-257 509.32,-257"/>
<polygon fill="black" stroke="black" points="509.346,-260.5 519.346,-257 509.346,-253.5 509.346,-260.5"/>
</g>
<!-- proc~wrap_json_value_add_integer&#45;&gt;interface~to_unicode -->
<g id="edge100" class="edge"><title>proc~wrap_json_value_add_integer&#45;&gt;interface~to_unicode</title>
<path fill="none" stroke="black" d="M448.595,-270.072C456.674,-272.556 464.621,-275.504 472,-279 507.867,-295.991 542.625,-326.531 563.418,-346.786"/>
<polygon fill="black" stroke="black" points="561.115,-349.431 570.677,-353.995 566.048,-344.465 561.115,-349.431"/>
</g>
<!-- proc~wrap_json_value_add_double&#45;&gt;proc~json_value_add_double -->
<g id="edge102" class="edge"><title>proc~wrap_json_value_add_double&#45;&gt;proc~json_value_add_double</title>
<path fill="none" stroke="black" d="M448.737,-157C468.662,-157 490.025,-157 509.717,-157"/>
<polygon fill="black" stroke="black" points="509.846,-160.5 519.846,-157 509.846,-153.5 509.846,-160.5"/>
</g>
<!-- proc~wrap_json_value_add_double&#45;&gt;interface~to_unicode -->
<g id="edge104" class="edge"><title>proc~wrap_json_value_add_double&#45;&gt;interface~to_unicode</title>
<path fill="none" stroke="black" d="M390.664,-170.167C411.826,-184.784 445.949,-209.672 472,-235 490.116,-252.613 491.804,-259.606 508,-279 527.24,-302.039 549.592,-328.188 564.856,-345.953"/>
<polygon fill="black" stroke="black" points="562.561,-348.651 571.736,-353.95 567.868,-344.086 562.561,-348.651"/>
</g>
<!-- proc~to_logical&#45;&gt;proc~destroy_json_data -->
<g id="edge2" class="edge"><title>proc~to_logical&#45;&gt;proc~destroy_json_data</title>
<path fill="none" stroke="black" d="M764.106,-811.664C774.427,-803.858 786.395,-793.155 794,-781 854.081,-684.967 872.868,-546.685 878.14,-492.261"/>
<polygon fill="black" stroke="black" points="881.63,-492.523 879.046,-482.248 874.659,-491.892 881.63,-492.523"/>
</g>
<!-- proc~to_uni_vec -->
<g id="node32" class="node"><title>proc~to_uni_vec</title>
<a xlink:href="../proc/to_uni_vec.html" xlink:title="to_uni_vec">
<polygon fill="#d94e8f" stroke="#d94e8f" points="776,-369 712,-369 712,-343 776,-343 776,-369"/>
<text text-anchor="middle" x="744" y="-353.55" font-family="Helvetica,sans-Serif" font-size="10.50" fill="white">to_uni_vec</text>
</a>
</g>
<!-- interface~to_unicode&#45;&gt;proc~to_uni_vec -->
<g id="edge10" class="edge"><title>interface~to_unicode&#45;&gt;proc~to_uni_vec</title>
<path fill="none" stroke="black" stroke-dasharray="5,2" d="M615.581,-364.774C640.321,-363.084 674.556,-360.745 701.457,-358.907"/>
<polygon fill="black" stroke="black" points="702.005,-362.377 711.743,-358.204 701.527,-355.394 702.005,-362.377"/>
</g>
<!-- proc~to_uni -->
<g id="node33" class="node"><title>proc~to_uni</title>
<a xlink:href="../proc/to_uni.html" xlink:title="to_uni">
<polygon fill="#d94e8f" stroke="#d94e8f" points="771,-413 717,-413 717,-387 771,-387 771,-413"/>
<text text-anchor="middle" x="744" y="-397.55" font-family="Helvetica,sans-Serif" font-size="10.50" fill="white">to_uni</text>
</a>
</g>
<!-- interface~to_unicode&#45;&gt;proc~to_uni -->
<g id="edge12" class="edge"><title>interface~to_unicode&#45;&gt;proc~to_uni</title>
<path fill="none" stroke="black" stroke-dasharray="5,2" d="M615.581,-373.678C641.979,-379.089 679.186,-386.715 706.76,-392.367"/>
<polygon fill="black" stroke="black" points="706.315,-395.848 716.814,-394.428 707.72,-388.991 706.315,-395.848"/>
</g>
<!-- proc~to_integer&#45;&gt;proc~destroy_json_data -->
<g id="edge32" class="edge"><title>proc~to_integer&#45;&gt;proc~destroy_json_data</title>
<path fill="none" stroke="black" d="M754.474,-281.165C764.821,-294.321 780.948,-315.237 794,-334 821.113,-372.977 850.342,-420.06 866.786,-447.068"/>
<polygon fill="black" stroke="black" points="863.866,-449.002 872.045,-455.737 869.851,-445.372 863.866,-449.002"/>
</g>
<!-- proc~to_double&#45;&gt;proc~destroy_json_data -->
<g id="edge54" class="edge"><title>proc~to_double&#45;&gt;proc~destroy_json_data</title>
<path fill="none" stroke="black" d="M765.679,-220.032C775.412,-226.774 786.392,-235.743 794,-246 841.416,-309.922 866.057,-403.24 875.433,-446.023"/>
<polygon fill="black" stroke="black" points="872.048,-446.933 877.54,-455.994 878.897,-445.486 872.048,-446.933"/>
</g>
<!-- proc~to_string&#45;&gt;proc~destroy_json_data -->
<g id="edge70" class="edge"><title>proc~to_string&#45;&gt;proc~destroy_json_data</title>
<path fill="none" stroke="black" d="M771.195,-469C785.06,-469 802.518,-469 819.366,-469"/>
<polygon fill="black" stroke="black" points="819.739,-472.5 829.739,-469 819.739,-465.5 819.739,-472.5"/>
</g>
</g>
</svg>
