<?xml version="1.0" encoding="UTF-8" standalone="no"?>
<!DOCTYPE svg PUBLIC "-//W3C//DTD SVG 1.1//EN"
 "http://www.w3.org/Graphics/SVG/1.1/DTD/svg11.dtd">
<!-- Generated by graphviz version 2.26.3 (20100126.1600)
 -->
<!-- Title: proc~~json_file_print_to_console~~CallsGraph Pages: 1 -->
<svg width="641pt" height="163pt"
 viewBox="0.00 0.00 641.00 162.55" xmlns="http://www.w3.org/2000/svg" xmlns:xlink="http://www.w3.org/1999/xlink">
<g id="graph1" class="graph" transform="scale(0.766746 0.766746) rotate(0) translate(4 208)">
<title>proc~~json_file_print_to_console~~CallsGraph</title>
<polygon fill="white" stroke="white" points="-4,5 -4,-208 833,-208 833,5 -4,5"/>
<!-- proc~json_file_print_to_console -->
<g id="node1" class="node"><title>proc~json_file_print_to_console</title>
<polygon fill="none" stroke="black" points="136,-116 7.10543e-14,-116 0,-90 136,-90 136,-116"/>
<text text-anchor="middle" x="68" y="-100.55" font-family="Helvetica,sans-Serif" font-size="10.50">json_file_print_to_console</text>
</g>
<!-- proc~json_value_print -->
<g id="node2" class="node"><title>proc~json_value_print</title>
<a xlink:href="../proc/json_value_print.html" xlink:title="json_value_print">
<polygon fill="#d9534f" stroke="#d9534f" points="263,-116 173,-116 173,-90 263,-90 263,-116"/>
<text text-anchor="middle" x="218" y="-100.55" font-family="Helvetica,sans-Serif" font-size="10.50" fill="white">json_value_print</text>
</a>
</g>
<!-- proc~json_file_print_to_console&#45;&gt;proc~json_value_print -->
<g id="edge28" class="edge"><title>proc~json_file_print_to_console&#45;&gt;proc~json_value_print</title>
<path fill="none" stroke="black" d="M136.416,-103C145.095,-103 153.893,-103 162.339,-103"/>
<polygon fill="black" stroke="black" points="162.437,-106.5 172.437,-103 162.437,-99.5001 162.437,-106.5"/>
</g>
<!-- proc~json_value_print&#45;&gt;proc~json_value_print -->
<g id="edge26" class="edge"><title>proc~json_value_print&#45;&gt;proc~json_value_print</title>
<path fill="none" stroke="black" d="M196.344,-116.06C189.781,-125.1 197,-134 218,-134 230.797,-134 238.476,-130.695 241.038,-126.067"/>
<polygon fill="black" stroke="black" points="244.491,-125.487 239.656,-116.06 237.557,-126.445 244.491,-125.487"/>
</g>
<!-- none~write_it -->
<g id="node3" class="node"><title>none~write_it</title>
<polygon fill="#d9534f" stroke="#d9534f" points="374,-204 320,-204 320,-178 374,-178 374,-204"/>
<text text-anchor="middle" x="347" y="-188.55" font-family="Helvetica,sans-Serif" font-size="10.50" fill="white">write_it</text>
</g>
<!-- proc~json_value_print&#45;&gt;none~write_it -->
<g id="edge16" class="edge"><title>proc~json_value_print&#45;&gt;none~write_it</title>
<path fill="none" stroke="black" d="M232.02,-116.04C247.747,-130.236 274.417,-153.041 300,-169 303.344,-171.086 306.918,-173.102 310.546,-175.01"/>
<polygon fill="black" stroke="black" points="309.061,-178.181 319.572,-179.512 312.185,-171.917 309.061,-178.181"/>
</g>
<!-- proc~real_to_string -->
<g id="node4" class="node"><title>proc~real_to_string</title>
<a xlink:href="../proc/real_to_string.html" xlink:title="real_to_string">
<polygon fill="#d9534f" stroke="#d9534f" points="386,-160 308,-160 308,-134 386,-134 386,-160"/>
<text text-anchor="middle" x="347" y="-144.55" font-family="Helvetica,sans-Serif" font-size="10.50" fill="white">real_to_string</text>
</a>
</g>
<!-- proc~json_value_print&#45;&gt;proc~real_to_string -->
<g id="edge18" class="edge"><title>proc~json_value_print&#45;&gt;proc~real_to_string</title>
<path fill="none" stroke="black" d="M256.355,-116.082C269.751,-120.652 284.959,-125.839 299.039,-130.641"/>
<polygon fill="black" stroke="black" points="297.976,-133.976 308.57,-133.892 300.235,-127.351 297.976,-133.976"/>
</g>
<!-- proc~json_count -->
<g id="node5" class="node"><title>proc~json_count</title>
<a xlink:href="../proc/json_count.html" xlink:title="json_count">
<polygon fill="#d94e8f" stroke="#d94e8f" points="379,-116 315,-116 315,-90 379,-90 379,-116"/>
<text text-anchor="middle" x="347" y="-100.55" font-family="Helvetica,sans-Serif" font-size="10.50" fill="white">json_count</text>
</a>
</g>
<!-- proc~json_value_print&#45;&gt;proc~json_count -->
<g id="edge20" class="edge"><title>proc~json_value_print&#45;&gt;proc~json_count</title>
<path fill="none" stroke="black" d="M263.844,-103C277.101,-103 291.509,-103 304.549,-103"/>
<polygon fill="black" stroke="black" points="304.666,-106.5 314.666,-103 304.666,-99.5001 304.666,-106.5"/>
</g>
<!-- interface~throw_exception -->
<g id="node6" class="node"><title>interface~throw_exception</title>
<a xlink:href="../interface/throw_exception.html" xlink:title="throw_exception">
<polygon fill="#a7506f" stroke="#a7506f" points="392,-72 302,-72 302,-46 392,-46 392,-72"/>
<text text-anchor="middle" x="347" y="-56.55" font-family="Helvetica,sans-Serif" font-size="10.50" fill="white">throw_exception</text>
</a>
</g>
<!-- proc~json_value_print&#45;&gt;interface~throw_exception -->
<g id="edge22" class="edge"><title>proc~json_value_print&#45;&gt;interface~throw_exception</title>
<path fill="none" stroke="black" d="M256.355,-89.9177C269.751,-85.3484 284.959,-80.1614 299.039,-75.3589"/>
<polygon fill="black" stroke="black" points="300.235,-78.6488 308.57,-72.1079 297.976,-72.0236 300.235,-78.6488"/>
</g>
<!-- proc~integer_to_string -->
<g id="node7" class="node"><title>proc~integer_to_string</title>
<a xlink:href="../proc/integer_to_string.html" xlink:title="integer_to_string">
<polygon fill="#d9534f" stroke="#d9534f" points="393,-28 301,-28 301,-2 393,-2 393,-28"/>
<text text-anchor="middle" x="347" y="-12.55" font-family="Helvetica,sans-Serif" font-size="10.50" fill="white">integer_to_string</text>
</a>
</g>
<!-- proc~json_value_print&#45;&gt;proc~integer_to_string -->
<g id="edge24" class="edge"><title>proc~json_value_print&#45;&gt;proc~integer_to_string</title>
<path fill="none" stroke="black" d="M232.02,-89.9598C247.747,-75.7639 274.417,-52.9594 300,-37 302.286,-35.5739 304.679,-34.1808 307.124,-32.8324"/>
<polygon fill="black" stroke="black" points="308.84,-35.8848 316.098,-28.1663 305.611,-29.6741 308.84,-35.8848"/>
</g>
<!-- proc~compact_real_string -->
<g id="node8" class="node"><title>proc~compact_real_string</title>
<a xlink:href="../proc/compact_real_string.html" xlink:title="compact_real_string">
<polygon fill="#d9534f" stroke="#d9534f" points="557,-160 449,-160 449,-134 557,-134 557,-160"/>
<text text-anchor="middle" x="503" y="-144.55" font-family="Helvetica,sans-Serif" font-size="10.50" fill="white">compact_real_string</text>
</a>
</g>
<!-- proc~real_to_string&#45;&gt;proc~compact_real_string -->
<g id="edge2" class="edge"><title>proc~real_to_string&#45;&gt;proc~compact_real_string</title>
<path fill="none" stroke="black" d="M386.365,-147C402.06,-147 420.545,-147 438.117,-147"/>
<polygon fill="black" stroke="black" points="438.329,-150.5 448.329,-147 438.329,-143.5 438.329,-150.5"/>
</g>
<!-- proc~json_throw_exception -->
<g id="node10" class="node"><title>proc~json_throw_exception</title>
<a xlink:href="../proc/json_throw_exception.html" xlink:title="json_throw_exception">
<polygon fill="#d9534f" stroke="#d9534f" points="728,-92 612,-92 612,-66 728,-66 728,-92"/>
<text text-anchor="middle" x="670" y="-76.55" font-family="Helvetica,sans-Serif" font-size="10.50" fill="white">json_throw_exception</text>
</a>
</g>
<!-- interface~throw_exception&#45;&gt;proc~json_throw_exception -->
<g id="edge12" class="edge"><title>interface~throw_exception&#45;&gt;proc~json_throw_exception</title>
<path fill="none" stroke="black" stroke-dasharray="5,2" d="M392.593,-61.8231C447.035,-65.1941 538.618,-70.8649 601.566,-74.7626"/>
<polygon fill="black" stroke="black" points="601.604,-78.2716 611.802,-75.3964 602.037,-71.285 601.604,-78.2716"/>
</g>
<!-- proc~wrap_json_throw_exception -->
<g id="node11" class="node"><title>proc~wrap_json_throw_exception</title>
<a xlink:href="../proc/wrap_json_throw_exception.html" xlink:title="wrap_json_throw_exception">
<polygon fill="#d9534f" stroke="#d9534f" points="575,-51 431,-51 431,-25 575,-25 575,-51"/>
<text text-anchor="middle" x="503" y="-35.55" font-family="Helvetica,sans-Serif" font-size="10.50" fill="white">wrap_json_throw_exception</text>
</a>
</g>
<!-- interface~throw_exception&#45;&gt;proc~wrap_json_throw_exception -->
<g id="edge14" class="edge"><title>interface~throw_exception&#45;&gt;proc~wrap_json_throw_exception</title>
<path fill="none" stroke="black" stroke-dasharray="5,2" d="M392.541,-52.8695C401.352,-51.6834 410.835,-50.4069 420.41,-49.1178"/>
<polygon fill="black" stroke="black" points="420.955,-52.5762 430.398,-47.7733 420.021,-45.6388 420.955,-52.5762"/>
</g>
<!-- proc~wrap_json_throw_exception&#45;&gt;proc~json_throw_exception -->
<g id="edge8" class="edge"><title>proc~wrap_json_throw_exception&#45;&gt;proc~json_throw_exception</title>
<path fill="none" stroke="black" d="M556.299,-51.0854C572.346,-55.0251 590.113,-59.3871 606.741,-63.4693"/>
<polygon fill="black" stroke="black" points="606.375,-66.9833 616.921,-65.9686 608.044,-60.1852 606.375,-66.9833"/>
</g>
<!-- interface~to_unicode -->
<g id="node12" class="node"><title>interface~to_unicode</title>
<a xlink:href="../interface/to_unicode.html" xlink:title="to_unicode">
<polygon fill="#a7506f" stroke="#a7506f" points="702,-48 638,-48 638,-22 702,-22 702,-48"/>
<text text-anchor="middle" x="670" y="-32.55" font-family="Helvetica,sans-Serif" font-size="10.50" fill="white">to_unicode</text>
</a>
</g>
<!-- proc~wrap_json_throw_exception&#45;&gt;interface~to_unicode -->
<g id="edge10" class="edge"><title>proc~wrap_json_throw_exception&#45;&gt;interface~to_unicode</title>
<path fill="none" stroke="black" d="M575.763,-36.6929C593.188,-36.3799 611.248,-36.0554 626.839,-35.7754"/>
<polygon fill="black" stroke="black" points="627.264,-39.2684 637.199,-35.5892 627.138,-32.2695 627.264,-39.2684"/>
</g>
<!-- proc~to_uni_vec -->
<g id="node13" class="node"><title>proc~to_uni_vec</title>
<a xlink:href="../proc/to_uni_vec.html" xlink:title="to_uni_vec">
<polygon fill="#d94e8f" stroke="#d94e8f" points="828,-70 764,-70 764,-44 828,-44 828,-70"/>
<text text-anchor="middle" x="796" y="-54.55" font-family="Helvetica,sans-Serif" font-size="10.50" fill="white">to_uni_vec</text>
</a>
</g>
<!-- interface~to_unicode&#45;&gt;proc~to_uni_vec -->
<g id="edge4" class="edge"><title>interface~to_unicode&#45;&gt;proc~to_uni_vec</title>
<path fill="none" stroke="black" stroke-dasharray="5,2" d="M702.776,-40.7228C718.355,-43.443 737.166,-46.7274 753.798,-49.6314"/>
<polygon fill="black" stroke="black" points="753.371,-53.1097 763.824,-51.382 754.575,-46.214 753.371,-53.1097"/>
</g>
<!-- proc~to_uni -->
<g id="node14" class="node"><title>proc~to_uni</title>
<a xlink:href="../proc/to_uni.html" xlink:title="to_uni">
<polygon fill="#d94e8f" stroke="#d94e8f" points="823,-26 769,-26 769,-1.24345e-14 823,-3.55271e-15 823,-26"/>
<text text-anchor="middle" x="796" y="-10.55" font-family="Helvetica,sans-Serif" font-size="10.50" fill="white">to_uni</text>
</a>
</g>
<!-- interface~to_unicode&#45;&gt;proc~to_uni -->
<g id="edge6" class="edge"><title>interface~to_unicode&#45;&gt;proc~to_uni</title>
<path fill="none" stroke="black" stroke-dasharray="5,2" d="M702.776,-29.2772C719.965,-26.276 741.088,-22.5878 758.878,-19.4816"/>
<polygon fill="black" stroke="black" points="759.664,-22.8974 768.913,-17.7295 758.46,-16.0017 759.664,-22.8974"/>
</g>
</g>
</svg>
