<?xml version="1.0" encoding="UTF-8" standalone="no"?>
<!DOCTYPE svg PUBLIC "-//W3C//DTD SVG 1.1//EN"
 "http://www.w3.org/Graphics/SVG/1.1/DTD/svg11.dtd">
<!-- Generated by graphviz version 2.26.3 (20100126.1600)
 -->
<!-- Title: proc~~json_file_destroy~~CallsGraph Pages: 1 -->
<svg width="380pt" height="52pt"
 viewBox="0.00 0.00 380.00 52.00" xmlns="http://www.w3.org/2000/svg" xmlns:xlink="http://www.w3.org/1999/xlink">
<g id="graph1" class="graph" transform="scale(1 1) rotate(0) translate(4 48)">
<title>proc~~json_file_destroy~~CallsGraph</title>
<polygon fill="white" stroke="white" points="-4,5 -4,-48 377,-48 377,5 -4,5"/>
<!-- proc~json_file_destroy -->
<g id="node1" class="node"><title>proc~json_file_destroy</title>
<polygon fill="none" stroke="black" points="93,-26 1,-26 1,-1.24345e-14 93,-3.55271e-15 93,-26"/>
<text text-anchor="middle" x="47" y="-10.55" font-family="Helvetica,sans-Serif" font-size="10.50">json_file_destroy</text>
</g>
<!-- proc~json_value_destroy -->
<g id="node2" class="node"><title>proc~json_value_destroy</title>
<a xlink:href="../proc/json_value_destroy.html" xlink:title="json_value_destroy">
<polygon fill="#d9534f" stroke="#d9534f" points="235,-26 131,-26 131,-1.24345e-14 235,-3.55271e-15 235,-26"/>
<text text-anchor="middle" x="183" y="-10.55" font-family="Helvetica,sans-Serif" font-size="10.50" fill="white">json_value_destroy</text>
</a>
</g>
<!-- proc~json_file_destroy&#45;&gt;proc~json_value_destroy -->
<g id="edge6" class="edge"><title>proc~json_file_destroy&#45;&gt;proc~json_value_destroy</title>
<path fill="none" stroke="black" d="M93.8035,-13C102.198,-13 111.071,-13 119.836,-13"/>
<polygon fill="black" stroke="black" points="120.042,-16.5001 130.042,-13 120.042,-9.5001 120.042,-16.5001"/>
</g>
<!-- proc~json_value_destroy&#45;&gt;proc~json_value_destroy -->
<g id="edge4" class="edge"><title>proc~json_value_destroy&#45;&gt;proc~json_value_destroy</title>
<path fill="none" stroke="black" d="M159.99,-26.0602C153.018,-35.0996 160.688,-44 183,-44 196.597,-44 204.756,-40.6949 207.478,-36.0674"/>
<polygon fill="black" stroke="black" points="210.924,-35.4461 206.01,-26.0602 203.999,-36.4623 210.924,-35.4461"/>
</g>
<!-- proc~destroy_json_data -->
<g id="node3" class="node"><title>proc~destroy_json_data</title>
<a xlink:href="../proc/destroy_json_data.html" xlink:title="destroy_json_data">
<polygon fill="#d9534f" stroke="#d9534f" points="372,-26 272,-26 272,-1.24345e-14 372,-3.55271e-15 372,-26"/>
<text text-anchor="middle" x="322" y="-10.55" font-family="Helvetica,sans-Serif" font-size="10.50" fill="white">destroy_json_data</text>
</a>
</g>
<!-- proc~json_value_destroy&#45;&gt;proc~destroy_json_data -->
<g id="edge2" class="edge"><title>proc~json_value_destroy&#45;&gt;proc~destroy_json_data</title>
<path fill="none" stroke="black" d="M235.55,-13C244.06,-13 252.93,-13 261.608,-13"/>
<polygon fill="black" stroke="black" points="261.674,-16.5001 271.673,-13 261.673,-9.5001 261.674,-16.5001"/>
</g>
</g>
</svg>
