<?xml version="1.0" encoding="UTF-8" standalone="no"?>
<!DOCTYPE svg PUBLIC "-//W3C//DTD SVG 1.1//EN"
 "http://www.w3.org/Graphics/SVG/1.1/DTD/svg11.dtd">
<!-- Generated by graphviz version 2.26.3 (20100126.1600)
 -->
<!-- Title: proc~~json_file_update_string~~CalledByGraph Pages: 1 -->
<svg width="352pt" height="122pt"
 viewBox="0.00 0.00 352.00 122.00" xmlns="http://www.w3.org/2000/svg" xmlns:xlink="http://www.w3.org/1999/xlink">
<g id="graph1" class="graph" transform="scale(1 1) rotate(0) translate(4 118)">
<title>proc~~json_file_update_string~~CalledByGraph</title>
<polygon fill="white" stroke="white" points="-4,5 -4,-118 349,-118 349,5 -4,5"/>
<!-- proc~json_file_update_string -->
<g id="node1" class="node"><title>proc~json_file_update_string</title>
<polygon fill="none" stroke="black" points="343,-70 221,-70 221,-44 343,-44 343,-70"/>
<text text-anchor="middle" x="282" y="-54.55" font-family="Helvetica,sans-Serif" font-size="10.50">json_file_update_string</text>
</g>
<!-- proc~json_file_update_string_name_ascii -->
<g id="node2" class="node"><title>proc~json_file_update_string_name_ascii</title>
<a xlink:href="../proc/json_file_update_string_name_ascii.html" xlink:title="json_file_update_string_name_ascii">
<polygon fill="#d9534f" stroke="#d9534f" points="183,-114 1,-114 1,-88 183,-88 183,-114"/>
<text text-anchor="middle" x="92" y="-98.55" font-family="Helvetica,sans-Serif" font-size="10.50" fill="white">json_file_update_string_name_ascii</text>
</a>
</g>
<!-- proc~json_file_update_string_name_ascii&#45;&gt;proc~json_file_update_string -->
<g id="edge2" class="edge"><title>proc~json_file_update_string_name_ascii&#45;&gt;proc~json_file_update_string</title>
<path fill="none" stroke="black" d="M148.235,-87.9771C169.396,-83.0766 193.655,-77.4589 215.652,-72.3647"/>
<polygon fill="black" stroke="black" points="216.628,-75.7314 225.581,-70.0655 215.049,-68.9119 216.628,-75.7314"/>
</g>
<!-- proc~wrap_json_file_update_string -->
<g id="node3" class="node"><title>proc~wrap_json_file_update_string</title>
<a xlink:href="../proc/wrap_json_file_update_string.html" xlink:title="wrap_json_file_update_string">
<polygon fill="#d9534f" stroke="#d9534f" points="168,-70 16,-70 16,-44 168,-44 168,-70"/>
<text text-anchor="middle" x="92" y="-54.55" font-family="Helvetica,sans-Serif" font-size="10.50" fill="white">wrap_json_file_update_string</text>
</a>
</g>
<!-- proc~wrap_json_file_update_string&#45;&gt;proc~json_file_update_string -->
<g id="edge4" class="edge"><title>proc~wrap_json_file_update_string&#45;&gt;proc~json_file_update_string</title>
<path fill="none" stroke="black" d="M168.185,-57C182.007,-57 196.382,-57 210.076,-57"/>
<polygon fill="black" stroke="black" points="210.395,-60.5001 220.394,-57 210.394,-53.5001 210.395,-60.5001"/>
</g>
<!-- proc~json_file_update_string_val_ascii -->
<g id="node4" class="node"><title>proc~json_file_update_string_val_ascii</title>
<a xlink:href="../proc/json_file_update_string_val_ascii.html" xlink:title="json_file_update_string_val_ascii">
<polygon fill="#d9534f" stroke="#d9534f" points="176,-26 8,-26 8,-1.24345e-14 176,-3.55271e-15 176,-26"/>
<text text-anchor="middle" x="92" y="-10.55" font-family="Helvetica,sans-Serif" font-size="10.50" fill="white">json_file_update_string_val_ascii</text>
</a>
</g>
<!-- proc~json_file_update_string_val_ascii&#45;&gt;proc~json_file_update_string -->
<g id="edge6" class="edge"><title>proc~json_file_update_string_val_ascii&#45;&gt;proc~json_file_update_string</title>
<path fill="none" stroke="black" d="M148.235,-26.0229C169.396,-30.9234 193.655,-36.5411 215.652,-41.6353"/>
<polygon fill="black" stroke="black" points="215.049,-45.0881 225.581,-43.9345 216.628,-38.2686 215.049,-45.0881"/>
</g>
</g>
</svg>
