<?xml version="1.0" encoding="UTF-8" standalone="no"?>
<!DOCTYPE svg PUBLIC "-//W3C//DTD SVG 1.1//EN"
 "http://www.w3.org/Graphics/SVG/1.1/DTD/svg11.dtd">
<!-- Generated by graphviz version 2.26.3 (20100126.1600)
 -->
<!-- Title: proc~~json_update_logical~~CalledByGraph Pages: 1 -->
<svg width="641pt" height="352pt"
 viewBox="0.00 0.00 641.00 352.47" xmlns="http://www.w3.org/2000/svg" xmlns:xlink="http://www.w3.org/1999/xlink">
<g id="graph1" class="graph" transform="scale(0.819693 0.819693) rotate(0) translate(4 426)">
<title>proc~~json_update_logical~~CalledByGraph</title>
<polygon fill="white" stroke="white" points="-4,5 -4,-426 779,-426 779,5 -4,5"/>
<!-- proc~json_update_logical -->
<g id="node1" class="node"><title>proc~json_update_logical</title>
<polygon fill="none" stroke="black" points="773,-180 667,-180 667,-154 773,-154 773,-180"/>
<text text-anchor="middle" x="720" y="-164.55" font-family="Helvetica,sans-Serif" font-size="10.50">json_update_logical</text>
</g>
<!-- proc~wrap_json_update_logical -->
<g id="node2" class="node"><title>proc~wrap_json_update_logical</title>
<a xlink:href="../proc/wrap_json_update_logical.html" xlink:title="wrap_json_update_logical">
<polygon fill="#d9534f" stroke="#d9534f" points="630,-160 494,-160 494,-134 630,-134 630,-160"/>
<text text-anchor="middle" x="562" y="-144.55" font-family="Helvetica,sans-Serif" font-size="10.50" fill="white">wrap_json_update_logical</text>
</a>
</g>
<!-- proc~wrap_json_update_logical&#45;&gt;proc~json_update_logical -->
<g id="edge38" class="edge"><title>proc~wrap_json_update_logical&#45;&gt;proc~json_update_logical</title>
<path fill="none" stroke="black" d="M630.382,-155.656C638.92,-156.737 647.627,-157.839 656.094,-158.911"/>
<polygon fill="black" stroke="black" points="655.914,-162.416 666.274,-160.199 656.793,-155.471 655.914,-162.416"/>
</g>
<!-- interface~json_update -->
<g id="node3" class="node"><title>interface~json_update</title>
<a xlink:href="../interface/json_update.html" xlink:title="json_update">
<polygon fill="#a7506f" stroke="#a7506f" points="457,-180 387,-180 387,-154 457,-154 457,-180"/>
<text text-anchor="middle" x="422" y="-164.55" font-family="Helvetica,sans-Serif" font-size="10.50" fill="white">json_update</text>
</a>
</g>
<!-- interface~json_update&#45;&gt;proc~json_update_logical -->
<g id="edge40" class="edge"><title>interface~json_update&#45;&gt;proc~json_update_logical</title>
<path fill="none" stroke="black" stroke-dasharray="5,2" d="M457.519,-168.182C469.144,-168.517 482.122,-168.835 494,-169 554.439,-169.839 569.559,-169.671 630,-169 638.424,-168.906 647.292,-168.764 656.041,-168.596"/>
<polygon fill="black" stroke="black" points="656.299,-172.092 666.226,-168.39 656.157,-165.093 656.299,-172.092"/>
</g>
<!-- interface~json_update&#45;&gt;proc~wrap_json_update_logical -->
<g id="edge36" class="edge"><title>interface~json_update&#45;&gt;proc~wrap_json_update_logical</title>
<path fill="none" stroke="black" stroke-dasharray="5,2" d="M457.69,-161.901C465.841,-160.737 474.816,-159.455 483.977,-158.146"/>
<polygon fill="black" stroke="black" points="484.556,-161.599 493.96,-156.72 483.566,-154.669 484.556,-161.599"/>
</g>
<!-- proc~json_file_update_string -->
<g id="node4" class="node"><title>proc~json_file_update_string</title>
<a xlink:href="../proc/json_file_update_string.html" xlink:title="json_file_update_string">
<polygon fill="#d9534f" stroke="#d9534f" points="346,-356 224,-356 224,-330 346,-330 346,-356"/>
<text text-anchor="middle" x="285" y="-340.55" font-family="Helvetica,sans-Serif" font-size="10.50" fill="white">json_file_update_string</text>
</a>
</g>
<!-- proc~json_file_update_string&#45;&gt;interface~json_update -->
<g id="edge20" class="edge"><title>proc~json_file_update_string&#45;&gt;interface~json_update</title>
<path fill="none" stroke="black" d="M309.96,-329.944C323.032,-322.22 338.637,-311.506 350,-299 380.174,-265.79 402.288,-217.666 413.562,-189.629"/>
<polygon fill="black" stroke="black" points="416.838,-190.861 417.22,-180.273 410.319,-188.312 416.838,-190.861"/>
</g>
<!-- proc~json_file_update_real -->
<g id="node5" class="node"><title>proc~json_file_update_real</title>
<a xlink:href="../proc/json_file_update_real.html" xlink:title="json_file_update_real">
<polygon fill="#d9534f" stroke="#d9534f" points="342,-290 228,-290 228,-264 342,-264 342,-290"/>
<text text-anchor="middle" x="285" y="-274.55" font-family="Helvetica,sans-Serif" font-size="10.50" fill="white">json_file_update_real</text>
</a>
</g>
<!-- proc~json_file_update_real&#45;&gt;interface~json_update -->
<g id="edge22" class="edge"><title>proc~json_file_update_real&#45;&gt;interface~json_update</title>
<path fill="none" stroke="black" d="M333.68,-263.926C339.42,-261.413 345.005,-258.459 350,-255 375.217,-237.536 396.349,-208.85 409.064,-189"/>
<polygon fill="black" stroke="black" points="412.155,-190.656 414.454,-180.314 406.207,-186.965 412.155,-190.656"/>
</g>
<!-- proc~test_1 -->
<g id="node6" class="node"><title>proc~test_1</title>
<a xlink:href="../proc/test_1.html" xlink:title="test_1">
<polygon fill="#d9534f" stroke="#d9534f" points="312,-246 258,-246 258,-220 312,-220 312,-246"/>
<text text-anchor="middle" x="285" y="-230.55" font-family="Helvetica,sans-Serif" font-size="10.50" fill="white">test_1</text>
</a>
</g>
<!-- proc~test_1&#45;&gt;interface~json_update -->
<g id="edge24" class="edge"><title>proc~test_1&#45;&gt;interface~json_update</title>
<path fill="none" stroke="black" d="M312.089,-225.314C323.961,-221.57 337.913,-216.653 350,-211 365.31,-203.84 381.444,-194.197 394.55,-185.763"/>
<polygon fill="black" stroke="black" points="396.649,-188.572 403.093,-180.162 392.811,-182.718 396.649,-188.572"/>
</g>
<!-- proc~test_10 -->
<g id="node7" class="node"><title>proc~test_10</title>
<a xlink:href="../proc/test_10.html" xlink:title="test_10">
<polygon fill="#d9534f" stroke="#d9534f" points="312,-202 258,-202 258,-176 312,-176 312,-202"/>
<text text-anchor="middle" x="285" y="-186.55" font-family="Helvetica,sans-Serif" font-size="10.50" fill="white">test_10</text>
</a>
</g>
<!-- proc~test_10&#45;&gt;interface~json_update -->
<g id="edge26" class="edge"><title>proc~test_10&#45;&gt;interface~json_update</title>
<path fill="none" stroke="black" d="M312.067,-184.654C330.362,-181.716 354.973,-177.764 376.27,-174.343"/>
<polygon fill="black" stroke="black" points="377.098,-177.755 386.417,-172.714 375.988,-170.844 377.098,-177.755"/>
</g>
<!-- proc~json_file_update_logical -->
<g id="node8" class="node"><title>proc~json_file_update_logical</title>
<a xlink:href="../proc/json_file_update_logical.html" xlink:title="json_file_update_logical">
<polygon fill="#d9534f" stroke="#d9534f" points="348,-158 222,-158 222,-132 348,-132 348,-158"/>
<text text-anchor="middle" x="285" y="-142.55" font-family="Helvetica,sans-Serif" font-size="10.50" fill="white">json_file_update_logical</text>
</a>
</g>
<!-- proc~json_file_update_logical&#45;&gt;interface~json_update -->
<g id="edge28" class="edge"><title>proc~json_file_update_logical&#45;&gt;interface~json_update</title>
<path fill="none" stroke="black" d="M348.687,-155.227C358.029,-156.727 367.49,-158.247 376.372,-159.673"/>
<polygon fill="black" stroke="black" points="376.062,-163.168 386.491,-161.298 377.172,-156.256 376.062,-163.168"/>
</g>
<!-- proc~json_file_update_integer -->
<g id="node9" class="node"><title>proc~json_file_update_integer</title>
<a xlink:href="../proc/json_file_update_integer.html" xlink:title="json_file_update_integer">
<polygon fill="#d9534f" stroke="#d9534f" points="350,-114 220,-114 220,-88 350,-88 350,-114"/>
<text text-anchor="middle" x="285" y="-98.55" font-family="Helvetica,sans-Serif" font-size="10.50" fill="white">json_file_update_integer</text>
</a>
</g>
<!-- proc~json_file_update_integer&#45;&gt;interface~json_update -->
<g id="edge30" class="edge"><title>proc~json_file_update_integer&#45;&gt;interface~json_update</title>
<path fill="none" stroke="black" d="M328.189,-114.112C335.577,-116.78 343.093,-119.77 350,-123 365.31,-130.16 381.444,-139.803 394.55,-148.237"/>
<polygon fill="black" stroke="black" points="392.811,-151.282 403.093,-153.838 396.649,-145.428 392.811,-151.282"/>
</g>
<!-- proc~rename -->
<g id="node10" class="node"><title>proc~rename</title>
<a xlink:href="../proc/rename.html" xlink:title="rename">
<polygon fill="#d9534f" stroke="#d9534f" points="312,-70 258,-70 258,-44 312,-44 312,-70"/>
<text text-anchor="middle" x="285" y="-54.55" font-family="Helvetica,sans-Serif" font-size="10.50" fill="white">rename</text>
</a>
</g>
<!-- proc~rename&#45;&gt;interface~json_update -->
<g id="edge32" class="edge"><title>proc~rename&#45;&gt;interface~json_update</title>
<path fill="none" stroke="black" d="M312.184,-62.571C324.476,-65.9678 338.737,-71.1996 350,-79 375.217,-96.4641 396.349,-125.15 409.064,-145"/>
<polygon fill="black" stroke="black" points="406.207,-147.035 414.454,-153.686 412.155,-143.344 406.207,-147.035"/>
</g>
<!-- proc~test_12 -->
<g id="node11" class="node"><title>proc~test_12</title>
<a xlink:href="../proc/test_12.html" xlink:title="test_12">
<polygon fill="#d9534f" stroke="#d9534f" points="312,-26 258,-26 258,-1.24345e-14 312,-3.55271e-15 312,-26"/>
<text text-anchor="middle" x="285" y="-10.55" font-family="Helvetica,sans-Serif" font-size="10.50" fill="white">test_12</text>
</a>
</g>
<!-- proc~test_12&#45;&gt;interface~json_update -->
<g id="edge34" class="edge"><title>proc~test_12&#45;&gt;interface~json_update</title>
<path fill="none" stroke="black" d="M312.241,-17.4828C324.835,-20.666 339.329,-26.032 350,-35 384.706,-64.1679 405.46,-114.511 415.218,-143.875"/>
<polygon fill="black" stroke="black" points="411.964,-145.191 418.322,-153.666 418.637,-143.076 411.964,-145.191"/>
</g>
<!-- proc~json_file_update_string_name_ascii -->
<g id="node12" class="node"><title>proc~json_file_update_string_name_ascii</title>
<a xlink:href="../proc/json_file_update_string_name_ascii.html" xlink:title="json_file_update_string_name_ascii">
<polygon fill="#d9534f" stroke="#d9534f" points="183,-422 1,-422 1,-396 183,-396 183,-422"/>
<text text-anchor="middle" x="92" y="-406.55" font-family="Helvetica,sans-Serif" font-size="10.50" fill="white">json_file_update_string_name_ascii</text>
</a>
</g>
<!-- proc~json_file_update_string_name_ascii&#45;&gt;proc~json_file_update_string -->
<g id="edge2" class="edge"><title>proc~json_file_update_string_name_ascii&#45;&gt;proc~json_file_update_string</title>
<path fill="none" stroke="black" d="M153.297,-395.937C163.634,-393.281 174.188,-390.282 184,-387 206.189,-379.578 230.235,-369.202 249.296,-360.39"/>
<polygon fill="black" stroke="black" points="250.927,-363.491 258.498,-356.079 247.957,-357.152 250.927,-363.491"/>
</g>
<!-- proc~wrap_json_file_update_string -->
<g id="node13" class="node"><title>proc~wrap_json_file_update_string</title>
<a xlink:href="../proc/wrap_json_file_update_string.html" xlink:title="wrap_json_file_update_string">
<polygon fill="#d9534f" stroke="#d9534f" points="168,-378 16,-378 16,-352 168,-352 168,-378"/>
<text text-anchor="middle" x="92" y="-362.55" font-family="Helvetica,sans-Serif" font-size="10.50" fill="white">wrap_json_file_update_string</text>
</a>
</g>
<!-- proc~wrap_json_file_update_string&#45;&gt;proc~json_file_update_string -->
<g id="edge4" class="edge"><title>proc~wrap_json_file_update_string&#45;&gt;proc~json_file_update_string</title>
<path fill="none" stroke="black" d="M168.002,-356.337C182.915,-354.637 198.512,-352.859 213.28,-351.175"/>
<polygon fill="black" stroke="black" points="213.813,-354.637 223.352,-350.027 213.02,-347.682 213.813,-354.637"/>
</g>
<!-- proc~json_file_update_string_val_ascii -->
<g id="node14" class="node"><title>proc~json_file_update_string_val_ascii</title>
<a xlink:href="../proc/json_file_update_string_val_ascii.html" xlink:title="json_file_update_string_val_ascii">
<polygon fill="#d9534f" stroke="#d9534f" points="176,-334 8,-334 8,-308 176,-308 176,-334"/>
<text text-anchor="middle" x="92" y="-318.55" font-family="Helvetica,sans-Serif" font-size="10.50" fill="white">json_file_update_string_val_ascii</text>
</a>
</g>
<!-- proc~json_file_update_string_val_ascii&#45;&gt;proc~json_file_update_string -->
<g id="edge6" class="edge"><title>proc~json_file_update_string_val_ascii&#45;&gt;proc~json_file_update_string</title>
<path fill="none" stroke="black" d="M176.653,-330.65C188.795,-332.034 201.191,-333.447 213.056,-334.799"/>
<polygon fill="black" stroke="black" points="212.995,-338.315 223.327,-335.97 213.788,-331.36 212.995,-338.315"/>
</g>
<!-- proc~wrap_json_file_update_real -->
<g id="node18" class="node"><title>proc~wrap_json_file_update_real</title>
<a xlink:href="../proc/wrap_json_file_update_real.html" xlink:title="wrap_json_file_update_real">
<polygon fill="#d9534f" stroke="#d9534f" points="164,-290 20,-290 20,-264 164,-264 164,-290"/>
<text text-anchor="middle" x="92" y="-274.55" font-family="Helvetica,sans-Serif" font-size="10.50" fill="white">wrap_json_file_update_real</text>
</a>
</g>
<!-- proc~wrap_json_file_update_real&#45;&gt;proc~json_file_update_real -->
<g id="edge8" class="edge"><title>proc~wrap_json_file_update_real&#45;&gt;proc~json_file_update_real</title>
<path fill="none" stroke="black" d="M164.141,-277C181.43,-277 199.836,-277 216.935,-277"/>
<polygon fill="black" stroke="black" points="217.39,-280.5 227.39,-277 217.39,-273.5 217.39,-280.5"/>
</g>
<!-- program~jf_test_1 -->
<g id="node20" class="node"><title>program~jf_test_1</title>
<a xlink:href="../program/jf_test_1.html" xlink:title="jf_test_1">
<polygon fill="#f0ad4e" stroke="#f0ad4e" points="119,-246 65,-246 65,-220 119,-220 119,-246"/>
<text text-anchor="middle" x="92" y="-230.55" font-family="Helvetica,sans-Serif" font-size="10.50" fill="white">jf_test_1</text>
</a>
</g>
<!-- program~jf_test_1&#45;&gt;proc~test_1 -->
<g id="edge10" class="edge"><title>program~jf_test_1&#45;&gt;proc~test_1</title>
<path fill="none" stroke="black" d="M119.243,-233C152.865,-233 210.195,-233 247.837,-233"/>
<polygon fill="black" stroke="black" points="247.896,-236.5 257.896,-233 247.896,-229.5 247.896,-236.5"/>
</g>
<!-- program~jf_test_10 -->
<g id="node22" class="node"><title>program~jf_test_10</title>
<a xlink:href="../program/jf_test_10.html" xlink:title="jf_test_10">
<polygon fill="#f0ad4e" stroke="#f0ad4e" points="121,-202 63,-202 63,-176 121,-176 121,-202"/>
<text text-anchor="middle" x="92" y="-186.55" font-family="Helvetica,sans-Serif" font-size="10.50" fill="white">jf_test_10</text>
</a>
</g>
<!-- program~jf_test_10&#45;&gt;proc~test_10 -->
<g id="edge12" class="edge"><title>program~jf_test_10&#45;&gt;proc~test_10</title>
<path fill="none" stroke="black" d="M121.733,-189C155.513,-189 210.702,-189 247.432,-189"/>
<polygon fill="black" stroke="black" points="247.731,-192.5 257.731,-189 247.731,-185.5 247.731,-192.5"/>
</g>
<!-- proc~wrap_json_file_update_logical -->
<g id="node24" class="node"><title>proc~wrap_json_file_update_logical</title>
<a xlink:href="../proc/wrap_json_file_update_logical.html" xlink:title="wrap_json_file_update_logical">
<polygon fill="#d9534f" stroke="#d9534f" points="170,-158 14,-158 14,-132 170,-132 170,-158"/>
<text text-anchor="middle" x="92" y="-142.55" font-family="Helvetica,sans-Serif" font-size="10.50" fill="white">wrap_json_file_update_logical</text>
</a>
</g>
<!-- proc~wrap_json_file_update_logical&#45;&gt;proc~json_file_update_logical -->
<g id="edge14" class="edge"><title>proc~wrap_json_file_update_logical&#45;&gt;proc~json_file_update_logical</title>
<path fill="none" stroke="black" d="M170.222,-145C183.795,-145 197.868,-145 211.314,-145"/>
<polygon fill="black" stroke="black" points="211.455,-148.5 221.455,-145 211.455,-141.5 211.455,-148.5"/>
</g>
<!-- proc~wrap_json_file_update_integer -->
<g id="node26" class="node"><title>proc~wrap_json_file_update_integer</title>
<a xlink:href="../proc/wrap_json_file_update_integer.html" xlink:title="wrap_json_file_update_integer">
<polygon fill="#d9534f" stroke="#d9534f" points="171,-114 13,-114 13,-88 171,-88 171,-114"/>
<text text-anchor="middle" x="92" y="-98.55" font-family="Helvetica,sans-Serif" font-size="10.50" fill="white">wrap_json_file_update_integer</text>
</a>
</g>
<!-- proc~wrap_json_file_update_integer&#45;&gt;proc~json_file_update_integer -->
<g id="edge16" class="edge"><title>proc~wrap_json_file_update_integer&#45;&gt;proc~json_file_update_integer</title>
<path fill="none" stroke="black" d="M171.615,-101C184.189,-101 197.157,-101 209.631,-101"/>
<polygon fill="black" stroke="black" points="209.972,-104.5 219.972,-101 209.972,-97.5001 209.972,-104.5"/>
</g>
<!-- program~jf_test_12 -->
<g id="node28" class="node"><title>program~jf_test_12</title>
<a xlink:href="../program/jf_test_12.html" xlink:title="jf_test_12">
<polygon fill="#f0ad4e" stroke="#f0ad4e" points="121,-26 63,-26 63,-1.24345e-14 121,-3.55271e-15 121,-26"/>
<text text-anchor="middle" x="92" y="-10.55" font-family="Helvetica,sans-Serif" font-size="10.50" fill="white">jf_test_12</text>
</a>
</g>
<!-- program~jf_test_12&#45;&gt;proc~test_12 -->
<g id="edge18" class="edge"><title>program~jf_test_12&#45;&gt;proc~test_12</title>
<path fill="none" stroke="black" d="M121.733,-13C155.513,-13 210.702,-13 247.432,-13"/>
<polygon fill="black" stroke="black" points="247.731,-16.5001 257.731,-13 247.731,-9.5001 247.731,-16.5001"/>
</g>
</g>
</svg>
