<?xml version="1.0" encoding="UTF-8" standalone="no"?>
<!DOCTYPE svg PUBLIC "-//W3C//DTD SVG 1.1//EN"
 "http://www.w3.org/Graphics/SVG/1.1/DTD/svg11.dtd">
<!-- Generated by graphviz version 2.26.3 (20100126.1600)
 -->
<!-- Title: proc~~default_join_ucs4~~CalledByGraph Pages: 1 -->
<svg width="208pt" height="34pt"
 viewBox="0.00 0.00 208.00 34.00" xmlns="http://www.w3.org/2000/svg" xmlns:xlink="http://www.w3.org/1999/xlink">
<g id="graph1" class="graph" transform="scale(1 1) rotate(0) translate(4 30)">
<title>proc~~default_join_ucs4~~CalledByGraph</title>
<polygon fill="white" stroke="white" points="-4,5 -4,-30 205,-30 205,5 -4,5"/>
<!-- proc~default_join_ucs4 -->
<g id="node1" class="node"><title>proc~default_join_ucs4</title>
<polygon fill="none" stroke="black" points="200,-26 104,-26 104,-1.24345e-14 200,-3.55271e-15 200,-26"/>
<text text-anchor="middle" x="152" y="-10.55" font-family="Helvetica,sans-Serif" font-size="10.50">default_join_ucs4</text>
</g>
<!-- interface~operator(SLASHSLASH) -->
<g id="node2" class="node"><title>interface~operator(SLASHSLASH)</title>
<a xlink:href="../interface/operator%28SLASHSLASH%29.html" xlink:title="operator(//)">
<polygon fill="#a7506f" stroke="#a7506f" points="67,-26 1,-26 1,-1.24345e-14 67,-3.55271e-15 67,-26"/>
<text text-anchor="middle" x="34" y="-10.55" font-family="Helvetica,sans-Serif" font-size="10.50" fill="white">operator(//)</text>
</a>
</g>
<!-- interface~operator(SLASHSLASH)&#45;&gt;proc~default_join_ucs4 -->
<g id="edge2" class="edge"><title>interface~operator(SLASHSLASH)&#45;&gt;proc~default_join_ucs4</title>
<path fill="none" stroke="black" stroke-dasharray="5,2" d="M67.8141,-13C75.8417,-13 84.6352,-13 93.4163,-13"/>
<polygon fill="black" stroke="black" points="93.6724,-16.5001 103.672,-13 93.6724,-9.5001 93.6724,-16.5001"/>
</g>
</g>
</svg>
