<?xml version="1.0" encoding="UTF-8" standalone="no"?>
<!DOCTYPE svg PUBLIC "-//W3C//DTD SVG 1.1//EN"
 "http://www.w3.org/Graphics/SVG/1.1/DTD/svg11.dtd">
<!-- Generated by graphviz version 2.26.3 (20100126.1600)
 -->
<!-- Title: proc~~json_get_logical~~CallsGraph Pages: 1 -->
<svg width="641pt" height="97pt"
 viewBox="0.00 0.00 641.00 97.12" xmlns="http://www.w3.org/2000/svg" xmlns:xlink="http://www.w3.org/1999/xlink">
<g id="graph1" class="graph" transform="scale(0.971212 0.971212) rotate(0) translate(4 96)">
<title>proc~~json_get_logical~~CallsGraph</title>
<polygon fill="white" stroke="white" points="-4,5 -4,-96 657,-96 657,5 -4,5"/>
<!-- proc~json_get_logical -->
<g id="node1" class="node"><title>proc~json_get_logical</title>
<polygon fill="none" stroke="black" points="89,-71 1,-71 1,-45 89,-45 89,-71"/>
<text text-anchor="middle" x="45" y="-55.55" font-family="Helvetica,sans-Serif" font-size="10.50">json_get_logical</text>
</g>
<!-- interface~throw_exception -->
<g id="node2" class="node"><title>interface~throw_exception</title>
<a xlink:href="../interface/throw_exception.html" xlink:title="throw_exception">
<polygon fill="#a7506f" stroke="#a7506f" points="217,-71 127,-71 127,-45 217,-45 217,-71"/>
<text text-anchor="middle" x="172" y="-55.55" font-family="Helvetica,sans-Serif" font-size="10.50" fill="white">throw_exception</text>
</a>
</g>
<!-- proc~json_get_logical&#45;&gt;interface~throw_exception -->
<g id="edge14" class="edge"><title>proc~json_get_logical&#45;&gt;interface~throw_exception</title>
<path fill="none" stroke="black" d="M89.7754,-58C98.2961,-58 107.311,-58 116.126,-58"/>
<polygon fill="black" stroke="black" points="116.342,-61.5001 126.342,-58 116.342,-54.5001 116.342,-61.5001"/>
</g>
<!-- proc~json_throw_exception -->
<g id="node3" class="node"><title>proc~json_throw_exception</title>
<a xlink:href="../proc/json_throw_exception.html" xlink:title="json_throw_exception">
<polygon fill="#d9534f" stroke="#d9534f" points="552,-92 436,-92 436,-66 552,-66 552,-92"/>
<text text-anchor="middle" x="494" y="-76.55" font-family="Helvetica,sans-Serif" font-size="10.50" fill="white">json_throw_exception</text>
</a>
</g>
<!-- interface~throw_exception&#45;&gt;proc~json_throw_exception -->
<g id="edge10" class="edge"><title>interface~throw_exception&#45;&gt;proc~json_throw_exception</title>
<path fill="none" stroke="black" stroke-dasharray="5,2" d="M217.793,-60.9865C272.069,-64.5262 363.029,-70.4584 425.647,-74.5422"/>
<polygon fill="black" stroke="black" points="425.623,-78.048 435.83,-75.2063 426.079,-71.0628 425.623,-78.048"/>
</g>
<!-- proc~wrap_json_throw_exception -->
<g id="node4" class="node"><title>proc~wrap_json_throw_exception</title>
<a xlink:href="../proc/wrap_json_throw_exception.html" xlink:title="wrap_json_throw_exception">
<polygon fill="#d9534f" stroke="#d9534f" points="399,-51 255,-51 255,-25 399,-25 399,-51"/>
<text text-anchor="middle" x="327" y="-35.55" font-family="Helvetica,sans-Serif" font-size="10.50" fill="white">wrap_json_throw_exception</text>
</a>
</g>
<!-- interface~throw_exception&#45;&gt;proc~wrap_json_throw_exception -->
<g id="edge12" class="edge"><title>interface~throw_exception&#45;&gt;proc~wrap_json_throw_exception</title>
<path fill="none" stroke="black" stroke-dasharray="5,2" d="M217.667,-52.1075C226.126,-51.0159 235.199,-49.8453 244.367,-48.6623"/>
<polygon fill="black" stroke="black" points="244.859,-52.1279 254.329,-47.3769 243.963,-45.1855 244.859,-52.1279"/>
</g>
<!-- proc~wrap_json_throw_exception&#45;&gt;proc~json_throw_exception -->
<g id="edge6" class="edge"><title>proc~wrap_json_throw_exception&#45;&gt;proc~json_throw_exception</title>
<path fill="none" stroke="black" d="M380.299,-51.0854C396.346,-55.0251 414.113,-59.3871 430.741,-63.4693"/>
<polygon fill="black" stroke="black" points="430.375,-66.9833 440.921,-65.9686 432.044,-60.1852 430.375,-66.9833"/>
</g>
<!-- interface~to_unicode -->
<g id="node5" class="node"><title>interface~to_unicode</title>
<a xlink:href="../interface/to_unicode.html" xlink:title="to_unicode">
<polygon fill="#a7506f" stroke="#a7506f" points="526,-48 462,-48 462,-22 526,-22 526,-48"/>
<text text-anchor="middle" x="494" y="-32.55" font-family="Helvetica,sans-Serif" font-size="10.50" fill="white">to_unicode</text>
</a>
</g>
<!-- proc~wrap_json_throw_exception&#45;&gt;interface~to_unicode -->
<g id="edge8" class="edge"><title>proc~wrap_json_throw_exception&#45;&gt;interface~to_unicode</title>
<path fill="none" stroke="black" d="M399.763,-36.6929C417.188,-36.3799 435.248,-36.0554 450.839,-35.7754"/>
<polygon fill="black" stroke="black" points="451.264,-39.2684 461.199,-35.5892 451.138,-32.2695 451.264,-39.2684"/>
</g>
<!-- proc~to_uni_vec -->
<g id="node6" class="node"><title>proc~to_uni_vec</title>
<a xlink:href="../proc/to_uni_vec.html" xlink:title="to_uni_vec">
<polygon fill="#d94e8f" stroke="#d94e8f" points="652,-70 588,-70 588,-44 652,-44 652,-70"/>
<text text-anchor="middle" x="620" y="-54.55" font-family="Helvetica,sans-Serif" font-size="10.50" fill="white">to_uni_vec</text>
</a>
</g>
<!-- interface~to_unicode&#45;&gt;proc~to_uni_vec -->
<g id="edge2" class="edge"><title>interface~to_unicode&#45;&gt;proc~to_uni_vec</title>
<path fill="none" stroke="black" stroke-dasharray="5,2" d="M526.776,-40.7228C542.355,-43.443 561.166,-46.7274 577.798,-49.6314"/>
<polygon fill="black" stroke="black" points="577.371,-53.1097 587.824,-51.382 578.575,-46.214 577.371,-53.1097"/>
</g>
<!-- proc~to_uni -->
<g id="node7" class="node"><title>proc~to_uni</title>
<a xlink:href="../proc/to_uni.html" xlink:title="to_uni">
<polygon fill="#d94e8f" stroke="#d94e8f" points="647,-26 593,-26 593,-1.24345e-14 647,-3.55271e-15 647,-26"/>
<text text-anchor="middle" x="620" y="-10.55" font-family="Helvetica,sans-Serif" font-size="10.50" fill="white">to_uni</text>
</a>
</g>
<!-- interface~to_unicode&#45;&gt;proc~to_uni -->
<g id="edge4" class="edge"><title>interface~to_unicode&#45;&gt;proc~to_uni</title>
<path fill="none" stroke="black" stroke-dasharray="5,2" d="M526.776,-29.2772C543.965,-26.276 565.088,-22.5878 582.878,-19.4816"/>
<polygon fill="black" stroke="black" points="583.664,-22.8974 592.913,-17.7295 582.46,-16.0017 583.664,-22.8974"/>
</g>
</g>
</svg>
