<?xml version="1.0" encoding="UTF-8" standalone="no"?>
<!DOCTYPE svg PUBLIC "-//W3C//DTD SVG 1.1//EN"
 "http://www.w3.org/Graphics/SVG/1.1/DTD/svg11.dtd">
<!-- Generated by graphviz version 2.26.3 (20100126.1600)
 -->
<!-- Title: proc~~default_join_ucs4~~CallsGraph Pages: 1 -->
<svg width="306pt" height="78pt"
 viewBox="0.00 0.00 306.00 78.00" xmlns="http://www.w3.org/2000/svg" xmlns:xlink="http://www.w3.org/1999/xlink">
<g id="graph1" class="graph" transform="scale(1 1) rotate(0) translate(4 74)">
<title>proc~~default_join_ucs4~~CallsGraph</title>
<polygon fill="white" stroke="white" points="-4,5 -4,-74 303,-74 303,5 -4,5"/>
<!-- proc~default_join_ucs4 -->
<g id="node1" class="node"><title>proc~default_join_ucs4</title>
<polygon fill="none" stroke="black" points="96,-48 3.55271e-14,-48 0,-22 96,-22 96,-48"/>
<text text-anchor="middle" x="48" y="-32.55" font-family="Helvetica,sans-Serif" font-size="10.50">default_join_ucs4</text>
</g>
<!-- interface~to_unicode -->
<g id="node2" class="node"><title>interface~to_unicode</title>
<a xlink:href="../interface/to_unicode.html" xlink:title="to_unicode">
<polygon fill="#a7506f" stroke="#a7506f" points="197,-48 133,-48 133,-22 197,-22 197,-48"/>
<text text-anchor="middle" x="165" y="-32.55" font-family="Helvetica,sans-Serif" font-size="10.50" fill="white">to_unicode</text>
</a>
</g>
<!-- proc~default_join_ucs4&#45;&gt;interface~to_unicode -->
<g id="edge6" class="edge"><title>proc~default_join_ucs4&#45;&gt;interface~to_unicode</title>
<path fill="none" stroke="black" d="M96.2639,-35C104.762,-35 113.557,-35 121.902,-35"/>
<polygon fill="black" stroke="black" points="122.176,-38.5001 132.176,-35 122.176,-31.5001 122.176,-38.5001"/>
</g>
<!-- proc~to_uni_vec -->
<g id="node3" class="node"><title>proc~to_uni_vec</title>
<a xlink:href="../proc/to_uni_vec.html" xlink:title="to_uni_vec">
<polygon fill="#d94e8f" stroke="#d94e8f" points="298,-70 234,-70 234,-44 298,-44 298,-70"/>
<text text-anchor="middle" x="266" y="-54.55" font-family="Helvetica,sans-Serif" font-size="10.50" fill="white">to_uni_vec</text>
</a>
</g>
<!-- interface~to_unicode&#45;&gt;proc~to_uni_vec -->
<g id="edge2" class="edge"><title>interface~to_unicode&#45;&gt;proc~to_uni_vec</title>
<path fill="none" stroke="black" stroke-dasharray="5,2" d="M197.513,-42.082C205.977,-43.9256 215.215,-45.938 224.09,-47.871"/>
<polygon fill="black" stroke="black" points="223.378,-51.2979 233.893,-50.0065 224.867,-44.4583 223.378,-51.2979"/>
</g>
<!-- proc~to_uni -->
<g id="node4" class="node"><title>proc~to_uni</title>
<a xlink:href="../proc/to_uni.html" xlink:title="to_uni">
<polygon fill="#d94e8f" stroke="#d94e8f" points="293,-26 239,-26 239,-1.24345e-14 293,-3.55271e-15 293,-26"/>
<text text-anchor="middle" x="266" y="-10.55" font-family="Helvetica,sans-Serif" font-size="10.50" fill="white">to_uni</text>
</a>
</g>
<!-- interface~to_unicode&#45;&gt;proc~to_uni -->
<g id="edge4" class="edge"><title>interface~to_unicode&#45;&gt;proc~to_uni</title>
<path fill="none" stroke="black" stroke-dasharray="5,2" d="M197.513,-27.918C207.547,-25.7323 218.671,-23.3093 228.985,-21.0627"/>
<polygon fill="black" stroke="black" points="229.933,-24.4384 238.959,-18.8902 228.443,-17.5988 229.933,-24.4384"/>
</g>
</g>
</svg>
