<?xml version="1.0" encoding="UTF-8" standalone="no"?>
<!DOCTYPE svg PUBLIC "-//W3C//DTD SVG 1.1//EN"
 "http://www.w3.org/Graphics/SVG/1.1/DTD/svg11.dtd">
<!-- Generated by graphviz version 2.26.3 (20100126.1600)
 -->
<!-- Title: proc~~json_traverse~~CallsGraph Pages: 1 -->
<svg width="186pt" height="52pt"
 viewBox="0.00 0.00 186.00 52.00" xmlns="http://www.w3.org/2000/svg" xmlns:xlink="http://www.w3.org/1999/xlink">
<g id="graph1" class="graph" transform="scale(1 1) rotate(0) translate(4 48)">
<title>proc~~json_traverse~~CallsGraph</title>
<polygon fill="white" stroke="white" points="-4,5 -4,-48 183,-48 183,5 -4,5"/>
<!-- proc~json_traverse -->
<g id="node1" class="node"><title>proc~json_traverse</title>
<polygon fill="none" stroke="black" points="77,-26 1,-26 1,-1.24345e-14 77,-3.55271e-15 77,-26"/>
<text text-anchor="middle" x="39" y="-10.55" font-family="Helvetica,sans-Serif" font-size="10.50">json_traverse</text>
</g>
<!-- proc~json_traverse&#45;&gt;proc~json_traverse -->
<g id="edge2" class="edge"><title>proc~json_traverse&#45;&gt;proc~json_traverse</title>
<path fill="none" stroke="black" d="M21.0659,-26.0602C15.6313,-35.0996 21.6094,-44 39,-44 49.5974,-44 55.9569,-40.6949 58.0784,-36.0674"/>
<polygon fill="black" stroke="black" points="61.5476,-35.5977 56.9341,-26.0602 54.593,-36.3931 61.5476,-35.5977"/>
</g>
<!-- proc~json_count -->
<g id="node2" class="node"><title>proc~json_count</title>
<a xlink:href="../proc/json_count.html" xlink:title="json_count">
<polygon fill="#d94e8f" stroke="#d94e8f" points="178,-26 114,-26 114,-1.24345e-14 178,-3.55271e-15 178,-26"/>
<text text-anchor="middle" x="146" y="-10.55" font-family="Helvetica,sans-Serif" font-size="10.50" fill="white">json_count</text>
</a>
</g>
<!-- proc~json_traverse&#45;&gt;proc~json_count -->
<g id="edge4" class="edge"><title>proc~json_traverse&#45;&gt;proc~json_count</title>
<path fill="none" stroke="black" d="M77.6295,-13C86.0558,-13 95.0168,-13 103.582,-13"/>
<polygon fill="black" stroke="black" points="103.77,-16.5001 113.77,-13 103.769,-9.5001 103.77,-16.5001"/>
</g>
</g>
</svg>
