<?xml version="1.0" encoding="UTF-8" standalone="no"?>
<!DOCTYPE svg PUBLIC "-//W3C//DTD SVG 1.1//EN"
 "http://www.w3.org/Graphics/SVG/1.1/DTD/svg11.dtd">
<!-- Generated by graphviz version 2.26.3 (20100126.1600)
 -->
<!-- Title: proc~~json_get_string_with_path~~CallsGraph Pages: 1 -->
<svg width="641pt" height="120pt"
 viewBox="0.00 0.00 641.00 119.76" xmlns="http://www.w3.org/2000/svg" xmlns:xlink="http://www.w3.org/1999/xlink">
<g id="graph1" class="graph" transform="scale(0.447626 0.447626) rotate(0) translate(4 263.536)">
<title>proc~~json_get_string_with_path~~CallsGraph</title>
<polygon fill="white" stroke="white" points="-4,5 -4,-263.536 1429,-263.536 1429,5 -4,5"/>
<!-- proc~json_get_string_with_path -->
<g id="node1" class="node"><title>proc~json_get_string_with_path</title>
<polygon fill="none" stroke="black" points="137,-157.536 1,-157.536 1,-131.536 137,-131.536 137,-157.536"/>
<text text-anchor="middle" x="69" y="-142.086" font-family="Helvetica,sans-Serif" font-size="10.50">json_get_string_with_path</text>
</g>
<!-- proc~json_get_by_path -->
<g id="node2" class="node"><title>proc~json_get_by_path</title>
<a xlink:href="../proc/json_get_by_path.html" xlink:title="json_get_by_path">
<polygon fill="#d9534f" stroke="#d9534f" points="271,-136.536 175,-136.536 175,-110.536 271,-110.536 271,-136.536"/>
<text text-anchor="middle" x="223" y="-121.086" font-family="Helvetica,sans-Serif" font-size="10.50" fill="white">json_get_by_path</text>
</a>
</g>
<!-- proc~json_get_string_with_path&#45;&gt;proc~json_get_by_path -->
<g id="edge44" class="edge"><title>proc~json_get_string_with_path&#45;&gt;proc~json_get_by_path</title>
<path fill="none" stroke="black" d="M137.892,-135.142C146.757,-133.933 155.766,-132.704 164.443,-131.521"/>
<polygon fill="black" stroke="black" points="165.013,-134.976 174.448,-130.157 164.067,-128.04 165.013,-134.976"/>
</g>
<!-- proc~json_get_string -->
<g id="node3" class="node"><title>proc~json_get_string</title>
<a xlink:href="../proc/json_get_string.html" xlink:title="json_get_string">
<polygon fill="#d9534f" stroke="#d9534f" points="820,-259.536 736,-259.536 736,-233.536 820,-233.536 820,-259.536"/>
<text text-anchor="middle" x="778" y="-244.086" font-family="Helvetica,sans-Serif" font-size="10.50" fill="white">json_get_string</text>
</a>
</g>
<!-- proc~json_get_string_with_path&#45;&gt;proc~json_get_string -->
<g id="edge46" class="edge"><title>proc~json_get_string_with_path&#45;&gt;proc~json_get_string</title>
<path fill="none" stroke="black" d="M119.622,-157.585C136.838,-161.886 156.219,-166.577 174,-170.536 301.364,-198.892 332.58,-210.916 462,-227.536 554.174,-239.373 662.443,-243.862 725.335,-245.546"/>
<polygon fill="black" stroke="black" points="725.32,-249.047 735.406,-245.802 725.498,-242.049 725.32,-249.047"/>
</g>
<!-- proc~json_clear_exceptions -->
<g id="node4" class="node"><title>proc~json_clear_exceptions</title>
<a xlink:href="../proc/json_clear_exceptions.html" xlink:title="json_clear_exceptions">
<polygon fill="#d9534f" stroke="#d9534f" points="426,-180.536 308,-180.536 308,-154.536 426,-154.536 426,-180.536"/>
<text text-anchor="middle" x="367" y="-165.086" font-family="Helvetica,sans-Serif" font-size="10.50" fill="white">json_clear_exceptions</text>
</a>
</g>
<!-- proc~json_get_string_with_path&#45;&gt;proc~json_clear_exceptions -->
<g id="edge48" class="edge"><title>proc~json_get_string_with_path&#45;&gt;proc~json_clear_exceptions</title>
<path fill="none" stroke="black" d="M137.741,-149.842C185.723,-153.545 249.532,-158.47 297.647,-162.183"/>
<polygon fill="black" stroke="black" points="297.425,-165.677 307.665,-162.957 297.964,-158.697 297.425,-165.677"/>
</g>
<!-- interface~throw_exception -->
<g id="node5" class="node"><title>interface~throw_exception</title>
<a xlink:href="../interface/throw_exception.html" xlink:title="throw_exception">
<polygon fill="#a7506f" stroke="#a7506f" points="989,-133.536 899,-133.536 899,-107.536 989,-107.536 989,-133.536"/>
<text text-anchor="middle" x="944" y="-118.086" font-family="Helvetica,sans-Serif" font-size="10.50" fill="white">throw_exception</text>
</a>
</g>
<!-- proc~json_get_string_with_path&#45;&gt;interface~throw_exception -->
<g id="edge50" class="edge"><title>proc~json_get_string_with_path&#45;&gt;interface~throw_exception</title>
<path fill="none" stroke="black" d="M83.5974,-131.503C124.868,-96.0562 247.196,-0.536136 367,-0.536136 367,-0.536136 367,-0.536136 560,-0.536136 695.977,-0.536136 738.815,8.04203 862,-49.5361 887.363,-61.3909 910.923,-83.4225 926.22,-99.8124"/>
<polygon fill="black" stroke="black" points="923.729,-102.276 933.037,-107.336 928.916,-97.5753 923.729,-102.276"/>
</g>
<!-- proc~json_get_by_path&#45;&gt;proc~json_clear_exceptions -->
<g id="edge28" class="edge"><title>proc~json_get_by_path&#45;&gt;proc~json_clear_exceptions</title>
<path fill="none" stroke="black" d="M265.815,-136.618C281.056,-141.276 298.398,-146.575 314.367,-151.454"/>
<polygon fill="black" stroke="black" points="313.515,-154.853 324.101,-154.428 315.561,-148.159 313.515,-154.853"/>
</g>
<!-- proc~json_get_by_path&#45;&gt;interface~throw_exception -->
<g id="edge24" class="edge"><title>proc~json_get_by_path&#45;&gt;interface~throw_exception</title>
<path fill="none" stroke="black" d="M245.708,-110.351C262.418,-101.21 285.966,-89.4773 308,-82.5361 374.136,-61.7016 392.884,-63.1097 462,-57.5361 639.769,-43.2007 689.581,-43.9424 862,-89.5361 876.09,-93.2619 891.112,-98.5378 904.397,-103.683"/>
<polygon fill="black" stroke="black" points="903.141,-106.95 913.727,-107.382 905.721,-100.442 903.141,-106.95"/>
</g>
<!-- interface~json_get_child -->
<g id="node6" class="node"><title>interface~json_get_child</title>
<a xlink:href="../interface/json_get_child.html" xlink:title="json_get_child">
<polygon fill="#a7506f" stroke="#a7506f" points="407,-136.536 327,-136.536 327,-110.536 407,-110.536 407,-136.536"/>
<text text-anchor="middle" x="367" y="-121.086" font-family="Helvetica,sans-Serif" font-size="10.50" fill="white">json_get_child</text>
</a>
</g>
<!-- proc~json_get_by_path&#45;&gt;interface~json_get_child -->
<g id="edge26" class="edge"><title>proc~json_get_by_path&#45;&gt;interface~json_get_child</title>
<path fill="none" stroke="black" d="M271.752,-123.536C286.065,-123.536 301.751,-123.536 316.19,-123.536"/>
<polygon fill="black" stroke="black" points="316.445,-127.036 326.445,-123.536 316.445,-120.036 316.445,-127.036"/>
</g>
<!-- proc~string_to_integer -->
<g id="node7" class="node"><title>proc~string_to_integer</title>
<a xlink:href="../proc/string_to_integer.html" xlink:title="string_to_integer">
<polygon fill="#d94e8f" stroke="#d94e8f" points="606,-92.5361 514,-92.5361 514,-66.5361 606,-66.5361 606,-92.5361"/>
<text text-anchor="middle" x="560" y="-77.0861" font-family="Helvetica,sans-Serif" font-size="10.50" fill="white">string_to_integer</text>
</a>
</g>
<!-- proc~json_get_by_path&#45;&gt;proc~string_to_integer -->
<g id="edge30" class="edge"><title>proc~json_get_by_path&#45;&gt;proc~string_to_integer</title>
<path fill="none" stroke="black" d="M267.693,-110.483C280.604,-107.117 294.78,-103.808 308,-101.536 374.408,-90.125 451.733,-84.4896 503.036,-81.8056"/>
<polygon fill="black" stroke="black" points="503.445,-85.2896 513.257,-81.292 503.094,-78.2984 503.445,-85.2896"/>
</g>
<!-- proc~json_get_string&#45;&gt;interface~throw_exception -->
<g id="edge34" class="edge"><title>proc~json_get_string&#45;&gt;interface~throw_exception</title>
<path fill="none" stroke="black" d="M799.542,-233.419C817.252,-222.121 842.51,-204.79 862,-186.536 880.442,-169.264 878.126,-158.139 898,-142.536 899.567,-141.306 901.213,-140.122 902.914,-138.986"/>
<polygon fill="black" stroke="black" points="904.955,-141.844 911.743,-133.709 901.364,-135.835 904.955,-141.844"/>
</g>
<!-- interface~to_unicode -->
<g id="node15" class="node"><title>interface~to_unicode</title>
<a xlink:href="../interface/to_unicode.html" xlink:title="to_unicode">
<polygon fill="#a7506f" stroke="#a7506f" points="1298,-218.536 1234,-218.536 1234,-192.536 1298,-192.536 1298,-218.536"/>
<text text-anchor="middle" x="1266" y="-203.086" font-family="Helvetica,sans-Serif" font-size="10.50" fill="white">to_unicode</text>
</a>
</g>
<!-- proc~json_get_string&#45;&gt;interface~to_unicode -->
<g id="edge32" class="edge"><title>proc~json_get_string&#45;&gt;interface~to_unicode</title>
<path fill="none" stroke="black" d="M820.66,-244.725C893.056,-241.402 1044.54,-233.373 1172,-219.536 1188.82,-217.71 1207.25,-215.101 1223.29,-212.629"/>
<polygon fill="black" stroke="black" points="1224.12,-216.042 1233.46,-211.034 1223.03,-209.127 1224.12,-216.042"/>
</g>
<!-- proc~json_throw_exception -->
<g id="node32" class="node"><title>proc~json_throw_exception</title>
<a xlink:href="../proc/json_throw_exception.html" xlink:title="json_throw_exception">
<polygon fill="#d9534f" stroke="#d9534f" points="1324,-154.536 1208,-154.536 1208,-128.536 1324,-128.536 1324,-154.536"/>
<text text-anchor="middle" x="1266" y="-139.086" font-family="Helvetica,sans-Serif" font-size="10.50" fill="white">json_throw_exception</text>
</a>
</g>
<!-- interface~throw_exception&#45;&gt;proc~json_throw_exception -->
<g id="edge40" class="edge"><title>interface~throw_exception&#45;&gt;proc~json_throw_exception</title>
<path fill="none" stroke="black" stroke-dasharray="5,2" d="M989.793,-123.523C1044.07,-127.062 1135.03,-132.995 1197.65,-137.078"/>
<polygon fill="black" stroke="black" points="1197.62,-140.584 1207.83,-137.742 1198.08,-133.599 1197.62,-140.584"/>
</g>
<!-- proc~wrap_json_throw_exception -->
<g id="node33" class="node"><title>proc~wrap_json_throw_exception</title>
<a xlink:href="../proc/wrap_json_throw_exception.html" xlink:title="wrap_json_throw_exception">
<polygon fill="#d9534f" stroke="#d9534f" points="1171,-174.536 1027,-174.536 1027,-148.536 1171,-148.536 1171,-174.536"/>
<text text-anchor="middle" x="1099" y="-159.086" font-family="Helvetica,sans-Serif" font-size="10.50" fill="white">wrap_json_throw_exception</text>
</a>
</g>
<!-- interface~throw_exception&#45;&gt;proc~wrap_json_throw_exception -->
<g id="edge42" class="edge"><title>interface~throw_exception&#45;&gt;proc~wrap_json_throw_exception</title>
<path fill="none" stroke="black" stroke-dasharray="5,2" d="M989.667,-132.616C1005.27,-136.743 1022.96,-141.422 1039.49,-145.795"/>
<polygon fill="black" stroke="black" points="1039.04,-149.296 1049.6,-148.47 1040.83,-142.529 1039.04,-149.296"/>
</g>
<!-- proc~json_value_get_by_index -->
<g id="node8" class="node"><title>proc~json_value_get_by_index</title>
<a xlink:href="../proc/json_value_get_by_index.html" xlink:title="json_value_get_by_index">
<polygon fill="#d9534f" stroke="#d9534f" points="626,-136.536 494,-136.536 494,-110.536 626,-110.536 626,-136.536"/>
<text text-anchor="middle" x="560" y="-121.086" font-family="Helvetica,sans-Serif" font-size="10.50" fill="white">json_value_get_by_index</text>
</a>
</g>
<!-- interface~json_get_child&#45;&gt;proc~json_value_get_by_index -->
<g id="edge16" class="edge"><title>interface~json_get_child&#45;&gt;proc~json_value_get_by_index</title>
<path fill="none" stroke="black" stroke-dasharray="5,2" d="M407.93,-123.536C429.812,-123.536 457.475,-123.536 483.191,-123.536"/>
<polygon fill="black" stroke="black" points="483.31,-127.036 493.31,-123.536 483.31,-120.036 483.31,-127.036"/>
</g>
<!-- proc~json_value_get_by_name_chars -->
<g id="node9" class="node"><title>proc~json_value_get_by_name_chars</title>
<a xlink:href="../proc/json_value_get_by_name_chars.html" xlink:title="json_value_get_by_name_chars">
<polygon fill="#d9534f" stroke="#d9534f" points="861,-177.536 695,-177.536 695,-151.536 861,-151.536 861,-177.536"/>
<text text-anchor="middle" x="778" y="-162.086" font-family="Helvetica,sans-Serif" font-size="10.50" fill="white">json_value_get_by_name_chars</text>
</a>
</g>
<!-- interface~json_get_child&#45;&gt;proc~json_value_get_by_name_chars -->
<g id="edge18" class="edge"><title>interface~json_get_child&#45;&gt;proc~json_value_get_by_name_chars</title>
<path fill="none" stroke="black" stroke-dasharray="5,2" d="M407.865,-134.581C424.535,-138.671 444.072,-142.94 462,-145.536 536.195,-156.28 621.04,-160.969 684.12,-163.005"/>
<polygon fill="black" stroke="black" points="684.344,-166.514 694.447,-163.321 684.559,-159.517 684.344,-166.514"/>
</g>
<!-- proc~wrap_json_value_get_by_name_chars -->
<g id="node10" class="node"><title>proc~wrap_json_value_get_by_name_chars</title>
<a xlink:href="../proc/wrap_json_value_get_by_name_chars.html" xlink:title="wrap_json_value_get_by_name_chars">
<polygon fill="#d9534f" stroke="#d9534f" points="658,-218.536 462,-218.536 462,-192.536 658,-192.536 658,-218.536"/>
<text text-anchor="middle" x="560" y="-203.086" font-family="Helvetica,sans-Serif" font-size="10.50" fill="white">wrap_json_value_get_by_name_chars</text>
</a>
</g>
<!-- interface~json_get_child&#45;&gt;proc~wrap_json_value_get_by_name_chars -->
<g id="edge20" class="edge"><title>interface~json_get_child&#45;&gt;proc~wrap_json_value_get_by_name_chars</title>
<path fill="none" stroke="black" stroke-dasharray="5,2" d="M407.648,-136.323C413.986,-138.982 420.313,-142.054 426,-145.536 444.511,-156.871 443.008,-168.028 462,-178.536 469.436,-182.651 477.542,-186.173 485.803,-189.179"/>
<polygon fill="black" stroke="black" points="484.947,-192.585 495.542,-192.477 487.193,-185.955 484.947,-192.585"/>
</g>
<!-- proc~string_to_integer&#45;&gt;interface~throw_exception -->
<g id="edge22" class="edge"><title>proc~string_to_integer&#45;&gt;interface~throw_exception</title>
<path fill="none" stroke="black" d="M606.702,-84.5226C677.525,-92.0844 811.868,-106.428 887.891,-114.545"/>
<polygon fill="black" stroke="black" points="887.904,-118.067 898.219,-115.648 888.647,-111.106 887.904,-118.067"/>
</g>
<!-- proc~json_value_get_by_index&#45;&gt;interface~throw_exception -->
<g id="edge2" class="edge"><title>proc~json_value_get_by_index&#45;&gt;interface~throw_exception</title>
<path fill="none" stroke="black" d="M626.888,-123.014C700.876,-122.436 818.768,-121.515 888.051,-120.973"/>
<polygon fill="black" stroke="black" points="888.351,-124.471 898.324,-120.893 888.296,-117.471 888.351,-124.471"/>
</g>
<!-- proc~json_value_get_by_name_chars&#45;&gt;interface~throw_exception -->
<g id="edge4" class="edge"><title>proc~json_value_get_by_name_chars&#45;&gt;interface~throw_exception</title>
<path fill="none" stroke="black" d="M827.356,-151.454C846.569,-146.361 868.677,-140.501 888.445,-135.261"/>
<polygon fill="black" stroke="black" points="889.47,-138.611 898.239,-132.666 887.676,-131.845 889.47,-138.611"/>
</g>
<!-- proc~json_count -->
<g id="node12" class="node"><title>proc~json_count</title>
<a xlink:href="../proc/json_count.html" xlink:title="json_count">
<polygon fill="#d94e8f" stroke="#d94e8f" points="976,-177.536 912,-177.536 912,-151.536 976,-151.536 976,-177.536"/>
<text text-anchor="middle" x="944" y="-162.086" font-family="Helvetica,sans-Serif" font-size="10.50" fill="white">json_count</text>
</a>
</g>
<!-- proc~json_value_get_by_name_chars&#45;&gt;proc~json_count -->
<g id="edge6" class="edge"><title>proc~json_value_get_by_name_chars&#45;&gt;proc~json_count</title>
<path fill="none" stroke="black" d="M861.973,-164.536C875.656,-164.536 889.304,-164.536 901.429,-164.536"/>
<polygon fill="black" stroke="black" points="901.655,-168.036 911.655,-164.536 901.655,-161.036 901.655,-168.036"/>
</g>
<!-- proc~wrap_json_value_get_by_name_chars&#45;&gt;proc~json_value_get_by_name_chars -->
<g id="edge14" class="edge"><title>proc~wrap_json_value_get_by_name_chars&#45;&gt;proc~json_value_get_by_name_chars</title>
<path fill="none" stroke="black" d="M629.276,-192.507C651.323,-188.361 675.881,-183.742 698.586,-179.472"/>
<polygon fill="black" stroke="black" points="699.349,-182.89 708.53,-177.602 698.055,-176.01 699.349,-182.89"/>
</g>
<!-- proc~wrap_json_value_get_by_name_chars&#45;&gt;interface~to_unicode -->
<g id="edge12" class="edge"><title>proc~wrap_json_value_get_by_name_chars&#45;&gt;interface~to_unicode</title>
<path fill="none" stroke="black" d="M658.166,-205.536C814.161,-205.536 1112.32,-205.536 1223.13,-205.536"/>
<polygon fill="black" stroke="black" points="1223.26,-209.036 1233.26,-205.536 1223.26,-202.036 1223.26,-209.036"/>
</g>
<!-- proc~to_uni_vec -->
<g id="node16" class="node"><title>proc~to_uni_vec</title>
<a xlink:href="../proc/to_uni_vec.html" xlink:title="to_uni_vec">
<polygon fill="#d94e8f" stroke="#d94e8f" points="1424,-240.536 1360,-240.536 1360,-214.536 1424,-214.536 1424,-240.536"/>
<text text-anchor="middle" x="1392" y="-225.086" font-family="Helvetica,sans-Serif" font-size="10.50" fill="white">to_uni_vec</text>
</a>
</g>
<!-- interface~to_unicode&#45;&gt;proc~to_uni_vec -->
<g id="edge8" class="edge"><title>interface~to_unicode&#45;&gt;proc~to_uni_vec</title>
<path fill="none" stroke="black" stroke-dasharray="5,2" d="M1298.78,-211.259C1314.36,-213.979 1333.17,-217.263 1349.8,-220.168"/>
<polygon fill="black" stroke="black" points="1349.37,-223.646 1359.82,-221.918 1350.58,-216.75 1349.37,-223.646"/>
</g>
<!-- proc~to_uni -->
<g id="node17" class="node"><title>proc~to_uni</title>
<a xlink:href="../proc/to_uni.html" xlink:title="to_uni">
<polygon fill="#d94e8f" stroke="#d94e8f" points="1419,-196.536 1365,-196.536 1365,-170.536 1419,-170.536 1419,-196.536"/>
<text text-anchor="middle" x="1392" y="-181.086" font-family="Helvetica,sans-Serif" font-size="10.50" fill="white">to_uni</text>
</a>
</g>
<!-- interface~to_unicode&#45;&gt;proc~to_uni -->
<g id="edge10" class="edge"><title>interface~to_unicode&#45;&gt;proc~to_uni</title>
<path fill="none" stroke="black" stroke-dasharray="5,2" d="M1298.78,-199.813C1315.97,-196.812 1337.09,-193.124 1354.88,-190.018"/>
<polygon fill="black" stroke="black" points="1355.66,-193.434 1364.91,-188.266 1354.46,-186.538 1355.66,-193.434"/>
</g>
<!-- proc~wrap_json_throw_exception&#45;&gt;interface~to_unicode -->
<g id="edge38" class="edge"><title>proc~wrap_json_throw_exception&#45;&gt;interface~to_unicode</title>
<path fill="none" stroke="black" d="M1148.65,-174.618C1172.52,-180.907 1200.83,-188.367 1223.67,-194.383"/>
<polygon fill="black" stroke="black" points="1222.85,-197.787 1233.41,-196.95 1224.63,-191.018 1222.85,-197.787"/>
</g>
<!-- proc~wrap_json_throw_exception&#45;&gt;proc~json_throw_exception -->
<g id="edge36" class="edge"><title>proc~wrap_json_throw_exception&#45;&gt;proc~json_throw_exception</title>
<path fill="none" stroke="black" d="M1171.76,-152.822C1180.42,-151.785 1189.23,-150.73 1197.82,-149.702"/>
<polygon fill="black" stroke="black" points="1198.26,-153.174 1207.77,-148.509 1197.43,-146.223 1198.26,-153.174"/>
</g>
</g>
</svg>
