<?xml version="1.0" encoding="UTF-8" standalone="no"?>
<!DOCTYPE svg PUBLIC "-//W3C//DTD SVG 1.1//EN"
 "http://www.w3.org/Graphics/SVG/1.1/DTD/svg11.dtd">
<!-- Generated by graphviz version 2.26.3 (20100126.1600)
 -->
<!-- Title: proc~~to_object~~CallsGraph Pages: 1 -->
<svg width="200pt" height="34pt"
 viewBox="0.00 0.00 200.00 34.00" xmlns="http://www.w3.org/2000/svg" xmlns:xlink="http://www.w3.org/1999/xlink">
<g id="graph1" class="graph" transform="scale(1 1) rotate(0) translate(4 30)">
<title>proc~~to_object~~CallsGraph</title>
<polygon fill="white" stroke="white" points="-4,5 -4,-30 197,-30 197,5 -4,5"/>
<!-- proc~to_object -->
<g id="node1" class="node"><title>proc~to_object</title>
<polygon fill="none" stroke="black" points="56,-26 2.84217e-14,-26 3.55271e-15,-1.24345e-14 56,-3.55271e-15 56,-26"/>
<text text-anchor="middle" x="28" y="-10.55" font-family="Helvetica,sans-Serif" font-size="10.50">to_object</text>
</g>
<!-- proc~destroy_json_data -->
<g id="node2" class="node"><title>proc~destroy_json_data</title>
<a xlink:href="../proc/destroy_json_data.html" xlink:title="destroy_json_data">
<polygon fill="#d9534f" stroke="#d9534f" points="192,-26 92,-26 92,-1.24345e-14 192,-3.55271e-15 192,-26"/>
<text text-anchor="middle" x="142" y="-10.55" font-family="Helvetica,sans-Serif" font-size="10.50" fill="white">destroy_json_data</text>
</a>
</g>
<!-- proc~to_object&#45;&gt;proc~destroy_json_data -->
<g id="edge2" class="edge"><title>proc~to_object&#45;&gt;proc~destroy_json_data</title>
<path fill="none" stroke="black" d="M56.1798,-13C64.0363,-13 72.8842,-13 81.8365,-13"/>
<polygon fill="black" stroke="black" points="81.941,-16.5001 91.9409,-13 81.9409,-9.5001 81.941,-16.5001"/>
</g>
</g>
</svg>
