<?xml version="1.0" encoding="UTF-8" standalone="no"?>
<!DOCTYPE svg PUBLIC "-//W3C//DTD SVG 1.1//EN"
 "http://www.w3.org/Graphics/SVG/1.1/DTD/svg11.dtd">
<!-- Generated by graphviz version 2.26.3 (20100126.1600)
 -->
<!-- Title: proc~~json_value_create_string~~CallsGraph Pages: 1 -->
<svg width="412pt" height="78pt"
 viewBox="0.00 0.00 412.00 78.00" xmlns="http://www.w3.org/2000/svg" xmlns:xlink="http://www.w3.org/1999/xlink">
<g id="graph1" class="graph" transform="scale(1 1) rotate(0) translate(4 74)">
<title>proc~~json_value_create_string~~CallsGraph</title>
<polygon fill="white" stroke="white" points="-4,5 -4,-74 409,-74 409,5 -4,5"/>
<!-- proc~json_value_create_string -->
<g id="node1" class="node"><title>proc~json_value_create_string</title>
<polygon fill="none" stroke="black" points="132,-48 5.68434e-14,-48 0,-22 132,-22 132,-48"/>
<text text-anchor="middle" x="66" y="-32.55" font-family="Helvetica,sans-Serif" font-size="10.50">json_value_create_string</text>
</g>
<!-- proc~json_value_create -->
<g id="node2" class="node"><title>proc~json_value_create</title>
<a xlink:href="../proc/json_value_create.html" xlink:title="json_value_create">
<polygon fill="#d9534f" stroke="#d9534f" points="268,-70 168,-70 168,-44 268,-44 268,-70"/>
<text text-anchor="middle" x="218" y="-54.55" font-family="Helvetica,sans-Serif" font-size="10.50" fill="white">json_value_create</text>
</a>
</g>
<!-- proc~json_value_create_string&#45;&gt;proc~json_value_create -->
<g id="edge4" class="edge"><title>proc~json_value_create_string&#45;&gt;proc~json_value_create</title>
<path fill="none" stroke="black" d="M132.227,-44.5855C140.759,-45.8203 149.457,-47.0793 157.883,-48.2989"/>
<polygon fill="black" stroke="black" points="157.598,-51.794 167.996,-49.7626 158.6,-44.8661 157.598,-51.794"/>
</g>
<!-- proc~to_string -->
<g id="node3" class="node"><title>proc~to_string</title>
<a xlink:href="../proc/to_string.html" xlink:title="to_string">
<polygon fill="#d9534f" stroke="#d9534f" points="245,-26 191,-26 191,-1.24345e-14 245,-3.55271e-15 245,-26"/>
<text text-anchor="middle" x="218" y="-10.55" font-family="Helvetica,sans-Serif" font-size="10.50" fill="white">to_string</text>
</a>
</g>
<!-- proc~json_value_create_string&#45;&gt;proc~to_string -->
<g id="edge6" class="edge"><title>proc~json_value_create_string&#45;&gt;proc~to_string</title>
<path fill="none" stroke="black" d="M132.227,-25.4145C148.836,-23.0105 166.079,-20.5149 180.71,-18.3973"/>
<polygon fill="black" stroke="black" points="181.46,-21.8252 190.856,-16.9288 180.457,-14.8974 181.46,-21.8252"/>
</g>
<!-- proc~destroy_json_data -->
<g id="node4" class="node"><title>proc~destroy_json_data</title>
<a xlink:href="../proc/destroy_json_data.html" xlink:title="destroy_json_data">
<polygon fill="#d9534f" stroke="#d9534f" points="404,-26 304,-26 304,-1.24345e-14 404,-3.55271e-15 404,-26"/>
<text text-anchor="middle" x="354" y="-10.55" font-family="Helvetica,sans-Serif" font-size="10.50" fill="white">destroy_json_data</text>
</a>
</g>
<!-- proc~to_string&#45;&gt;proc~destroy_json_data -->
<g id="edge2" class="edge"><title>proc~to_string&#45;&gt;proc~destroy_json_data</title>
<path fill="none" stroke="black" d="M245.195,-13C259.06,-13 276.518,-13 293.366,-13"/>
<polygon fill="black" stroke="black" points="293.739,-16.5001 303.739,-13 293.739,-9.5001 293.739,-16.5001"/>
</g>
</g>
</svg>
