<?xml version="1.0" encoding="UTF-8" standalone="no"?>
<!DOCTYPE svg PUBLIC "-//W3C//DTD SVG 1.1//EN"
 "http://www.w3.org/Graphics/SVG/1.1/DTD/svg11.dtd">
<!-- Generated by graphviz version 2.26.3 (20100126.1600)
 -->
<!-- Title: proc~~json_parse_file~~CalledByGraph Pages: 1 -->
<svg width="574pt" height="166pt"
 viewBox="0.00 0.00 574.00 166.00" xmlns="http://www.w3.org/2000/svg" xmlns:xlink="http://www.w3.org/1999/xlink">
<g id="graph1" class="graph" transform="scale(1 1) rotate(0) translate(4 162)">
<title>proc~~json_parse_file~~CalledByGraph</title>
<polygon fill="white" stroke="white" points="-4,5 -4,-162 571,-162 571,5 -4,5"/>
<!-- proc~json_parse_file -->
<g id="node1" class="node"><title>proc~json_parse_file</title>
<polygon fill="none" stroke="black" points="565,-92 481,-92 481,-66 565,-66 565,-92"/>
<text text-anchor="middle" x="523" y="-76.55" font-family="Helvetica,sans-Serif" font-size="10.50">json_parse_file</text>
</g>
<!-- interface~json_parse -->
<g id="node2" class="node"><title>interface~json_parse</title>
<a xlink:href="../interface/json_parse.html" xlink:title="json_parse">
<polygon fill="#a7506f" stroke="#a7506f" points="443,-92 379,-92 379,-66 443,-66 443,-92"/>
<text text-anchor="middle" x="411" y="-76.55" font-family="Helvetica,sans-Serif" font-size="10.50" fill="white">json_parse</text>
</a>
</g>
<!-- interface~json_parse&#45;&gt;proc~json_parse_file -->
<g id="edge16" class="edge"><title>interface~json_parse&#45;&gt;proc~json_parse_file</title>
<path fill="none" stroke="black" stroke-dasharray="5,2" d="M443.696,-79C452.046,-79 461.238,-79 470.313,-79"/>
<polygon fill="black" stroke="black" points="470.459,-82.5001 480.459,-79 470.459,-75.5001 470.459,-82.5001"/>
</g>
<!-- proc~test_14 -->
<g id="node3" class="node"><title>proc~test_14</title>
<a xlink:href="../proc/test_14.html" xlink:title="test_14">
<polygon fill="#d9534f" stroke="#d9534f" points="300,-158 246,-158 246,-132 300,-132 300,-158"/>
<text text-anchor="middle" x="273" y="-142.55" font-family="Helvetica,sans-Serif" font-size="10.50" fill="white">test_14</text>
</a>
</g>
<!-- proc~test_14&#45;&gt;interface~json_parse -->
<g id="edge8" class="edge"><title>proc~test_14&#45;&gt;interface~json_parse</title>
<path fill="none" stroke="black" d="M300.155,-138.106C313.122,-134.373 328.679,-129.241 342,-123 356.804,-116.064 372.241,-106.473 384.75,-98.0158"/>
<polygon fill="black" stroke="black" points="387.055,-100.678 393.29,-92.1121 383.074,-94.9194 387.055,-100.678"/>
</g>
<!-- proc~test_8 -->
<g id="node4" class="node"><title>proc~test_8</title>
<a xlink:href="../proc/test_8.html" xlink:title="test_8">
<polygon fill="#d9534f" stroke="#d9534f" points="300,-114 246,-114 246,-88 300,-88 300,-114"/>
<text text-anchor="middle" x="273" y="-98.55" font-family="Helvetica,sans-Serif" font-size="10.50" fill="white">test_8</text>
</a>
</g>
<!-- proc~test_8&#45;&gt;interface~json_parse -->
<g id="edge10" class="edge"><title>proc~test_8&#45;&gt;interface~json_parse</title>
<path fill="none" stroke="black" d="M300.264,-96.6535C319.658,-93.5617 346.098,-89.3467 368.279,-85.8106"/>
<polygon fill="black" stroke="black" points="369.127,-89.2196 378.452,-84.1889 368.025,-82.3069 369.127,-89.2196"/>
</g>
<!-- proc~json_file_load -->
<g id="node5" class="node"><title>proc~json_file_load</title>
<a xlink:href="../proc/json_file_load.html" xlink:title="json_file_load">
<polygon fill="#d9534f" stroke="#d9534f" points="312,-70 234,-70 234,-44 312,-44 312,-70"/>
<text text-anchor="middle" x="273" y="-54.55" font-family="Helvetica,sans-Serif" font-size="10.50" fill="white">json_file_load</text>
</a>
</g>
<!-- proc~json_file_load&#45;&gt;interface~json_parse -->
<g id="edge12" class="edge"><title>proc~json_file_load&#45;&gt;interface~json_parse</title>
<path fill="none" stroke="black" d="M312.176,-63.2455C329.71,-66.0407 350.425,-69.3432 368.349,-72.2006"/>
<polygon fill="black" stroke="black" points="367.831,-75.6622 378.258,-73.7802 368.933,-68.7494 367.831,-75.6622"/>
</g>
<!-- proc~json_file_load_from_string -->
<g id="node6" class="node"><title>proc~json_file_load_from_string</title>
<a xlink:href="../proc/json_file_load_from_string.html" xlink:title="json_file_load_from_string">
<polygon fill="#d9534f" stroke="#d9534f" points="342,-26 204,-26 204,-1.24345e-14 342,-3.55271e-15 342,-26"/>
<text text-anchor="middle" x="273" y="-10.55" font-family="Helvetica,sans-Serif" font-size="10.50" fill="white">json_file_load_from_string</text>
</a>
</g>
<!-- proc~json_file_load_from_string&#45;&gt;interface~json_parse -->
<g id="edge14" class="edge"><title>proc~json_file_load_from_string&#45;&gt;interface~json_parse</title>
<path fill="none" stroke="black" d="M319.657,-26.0557C327.254,-28.6968 334.941,-31.6926 342,-35 356.804,-41.9363 372.241,-51.5269 384.75,-59.9842"/>
<polygon fill="black" stroke="black" points="383.074,-63.0806 393.29,-65.8879 387.055,-57.3225 383.074,-63.0806"/>
</g>
<!-- program~jf_test_14 -->
<g id="node7" class="node"><title>program~jf_test_14</title>
<a xlink:href="../program/jf_test_14.html" xlink:title="jf_test_14">
<polygon fill="#f0ad4e" stroke="#f0ad4e" points="113,-158 55,-158 55,-132 113,-132 113,-158"/>
<text text-anchor="middle" x="84" y="-142.55" font-family="Helvetica,sans-Serif" font-size="10.50" fill="white">jf_test_14</text>
</a>
</g>
<!-- program~jf_test_14&#45;&gt;proc~test_14 -->
<g id="edge2" class="edge"><title>program~jf_test_14&#45;&gt;proc~test_14</title>
<path fill="none" stroke="black" d="M113.531,-145C146.509,-145 199.947,-145 235.765,-145"/>
<polygon fill="black" stroke="black" points="235.82,-148.5 245.82,-145 235.82,-141.5 235.82,-148.5"/>
</g>
<!-- program~jf_test_8 -->
<g id="node9" class="node"><title>program~jf_test_8</title>
<a xlink:href="../program/jf_test_8.html" xlink:title="jf_test_8">
<polygon fill="#f0ad4e" stroke="#f0ad4e" points="111,-114 57,-114 57,-88 111,-88 111,-114"/>
<text text-anchor="middle" x="84" y="-98.55" font-family="Helvetica,sans-Serif" font-size="10.50" fill="white">jf_test_8</text>
</a>
</g>
<!-- program~jf_test_8&#45;&gt;proc~test_8 -->
<g id="edge4" class="edge"><title>program~jf_test_8&#45;&gt;proc~test_8</title>
<path fill="none" stroke="black" d="M111.079,-101C143.78,-101 198.956,-101 235.676,-101"/>
<polygon fill="black" stroke="black" points="235.971,-104.5 245.971,-101 235.971,-97.5001 235.971,-104.5"/>
</g>
<!-- proc~wrap_json_file_load_from_string -->
<g id="node11" class="node"><title>proc~wrap_json_file_load_from_string</title>
<a xlink:href="../proc/wrap_json_file_load_from_string.html" xlink:title="wrap_json_file_load_from_string">
<polygon fill="#d9534f" stroke="#d9534f" points="167,-26 1,-26 1,-1.24345e-14 167,-3.55271e-15 167,-26"/>
<text text-anchor="middle" x="84" y="-10.55" font-family="Helvetica,sans-Serif" font-size="10.50" fill="white">wrap_json_file_load_from_string</text>
</a>
</g>
<!-- proc~wrap_json_file_load_from_string&#45;&gt;proc~json_file_load_from_string -->
<g id="edge6" class="edge"><title>proc~wrap_json_file_load_from_string&#45;&gt;proc~json_file_load_from_string</title>
<path fill="none" stroke="black" d="M167.724,-13C176.382,-13 185.162,-13 193.769,-13"/>
<polygon fill="black" stroke="black" points="193.775,-16.5001 203.775,-13 193.775,-9.5001 193.775,-16.5001"/>
</g>
</g>
</svg>
