<?xml version="1.0" encoding="UTF-8" standalone="no"?>
<!DOCTYPE svg PUBLIC "-//W3C//DTD SVG 1.1//EN"
 "http://www.w3.org/Graphics/SVG/1.1/DTD/svg11.dtd">
<!-- Generated by graphviz version 2.26.3 (20100126.1600)
 -->
<!-- Title: proc~~json_value_create_string~~CalledByGraph Pages: 1 -->
<svg width="641pt" height="52pt"
 viewBox="0.00 0.00 641.00 52.45" xmlns="http://www.w3.org/2000/svg" xmlns:xlink="http://www.w3.org/1999/xlink">
<g id="graph1" class="graph" transform="scale(0.971212 0.971212) rotate(0) translate(4 50)">
<title>proc~~json_value_create_string~~CalledByGraph</title>
<polygon fill="white" stroke="white" points="-4,5 -4,-50 657,-50 657,5 -4,5"/>
<!-- proc~json_value_create_string -->
<g id="node1" class="node"><title>proc~json_value_create_string</title>
<polygon fill="none" stroke="black" points="652,-46 520,-46 520,-20 652,-20 652,-46"/>
<text text-anchor="middle" x="586" y="-30.55" font-family="Helvetica,sans-Serif" font-size="10.50">json_value_create_string</text>
</g>
<!-- proc~wrap_json_value_create_string -->
<g id="node2" class="node"><title>proc~wrap_json_value_create_string</title>
<a xlink:href="../proc/wrap_json_value_create_string.html" xlink:title="wrap_json_value_create_string">
<polygon fill="#d9534f" stroke="#d9534f" points="483,-26 323,-26 323,-1.24345e-14 483,-3.55271e-15 483,-26"/>
<text text-anchor="middle" x="403" y="-10.55" font-family="Helvetica,sans-Serif" font-size="10.50" fill="white">wrap_json_value_create_string</text>
</a>
</g>
<!-- proc~wrap_json_value_create_string&#45;&gt;proc~json_value_create_string -->
<g id="edge8" class="edge"><title>proc~wrap_json_value_create_string&#45;&gt;proc~json_value_create_string</title>
<path fill="none" stroke="black" d="M483.533,-21.8014C492.286,-22.758 501.175,-23.7295 509.873,-24.6801"/>
<polygon fill="black" stroke="black" points="509.656,-28.1771 519.977,-25.7843 510.416,-21.2185 509.656,-28.1771"/>
</g>
<!-- interface~json_create_string -->
<g id="node3" class="node"><title>interface~json_create_string</title>
<a xlink:href="../interface/json_create_string.html" xlink:title="json_create_string">
<polygon fill="#a7506f" stroke="#a7506f" points="286,-46 186,-46 186,-20 286,-20 286,-46"/>
<text text-anchor="middle" x="236" y="-30.55" font-family="Helvetica,sans-Serif" font-size="10.50" fill="white">json_create_string</text>
</a>
</g>
<!-- interface~json_create_string&#45;&gt;proc~json_value_create_string -->
<g id="edge10" class="edge"><title>interface~json_create_string&#45;&gt;proc~json_value_create_string</title>
<path fill="none" stroke="black" stroke-dasharray="5,2" d="M286.02,-34.3597C297.818,-34.626 310.352,-34.8646 322,-35 393.995,-35.837 412.003,-35.7058 484,-35 492.338,-34.9183 501.059,-34.799 509.74,-34.6586"/>
<polygon fill="black" stroke="black" points="509.948,-38.1557 519.886,-34.4853 509.828,-31.1567 509.948,-38.1557"/>
</g>
<!-- interface~json_create_string&#45;&gt;proc~wrap_json_value_create_string -->
<g id="edge6" class="edge"><title>interface~json_create_string&#45;&gt;proc~wrap_json_value_create_string</title>
<path fill="none" stroke="black" stroke-dasharray="5,2" d="M286.106,-26.9993C294.412,-26.0045 303.247,-24.9465 312.195,-23.8749"/>
<polygon fill="black" stroke="black" points="312.809,-27.3264 322.322,-22.662 311.977,-20.376 312.809,-27.3264"/>
</g>
<!-- proc~test_10 -->
<g id="node4" class="node"><title>proc~test_10</title>
<a xlink:href="../proc/test_10.html" xlink:title="test_10">
<polygon fill="#d9534f" stroke="#d9534f" points="150,-46 96,-46 96,-20 150,-20 150,-46"/>
<text text-anchor="middle" x="123" y="-30.55" font-family="Helvetica,sans-Serif" font-size="10.50" fill="white">test_10</text>
</a>
</g>
<!-- proc~test_10&#45;&gt;interface~json_create_string -->
<g id="edge4" class="edge"><title>proc~test_10&#45;&gt;interface~json_create_string</title>
<path fill="none" stroke="black" d="M150.066,-33C157.846,-33 166.66,-33 175.604,-33"/>
<polygon fill="black" stroke="black" points="175.709,-36.5001 185.709,-33 175.709,-29.5001 175.709,-36.5001"/>
</g>
<!-- program~jf_test_10 -->
<g id="node5" class="node"><title>program~jf_test_10</title>
<a xlink:href="../program/jf_test_10.html" xlink:title="jf_test_10">
<polygon fill="#f0ad4e" stroke="#f0ad4e" points="59,-46 1,-46 1,-20 59,-20 59,-46"/>
<text text-anchor="middle" x="30" y="-30.55" font-family="Helvetica,sans-Serif" font-size="10.50" fill="white">jf_test_10</text>
</a>
</g>
<!-- program~jf_test_10&#45;&gt;proc~test_10 -->
<g id="edge2" class="edge"><title>program~jf_test_10&#45;&gt;proc~test_10</title>
<path fill="none" stroke="black" d="M59.6815,-33C67.9202,-33 76.973,-33 85.5921,-33"/>
<polygon fill="black" stroke="black" points="85.8066,-36.5001 95.8065,-33 85.8065,-29.5001 85.8066,-36.5001"/>
</g>
</g>
</svg>
