<?xml version="1.0" encoding="UTF-8" standalone="no"?>
<!DOCTYPE svg PUBLIC "-//W3C//DTD SVG 1.1//EN"
 "http://www.w3.org/Graphics/SVG/1.1/DTD/svg11.dtd">
<!-- Generated by graphviz version 2.26.3 (20100126.1600)
 -->
<!-- Title: proc~~json_print_2~~CalledByGraph Pages: 1 -->
<svg width="272pt" height="342pt"
 viewBox="0.00 0.00 272.00 342.00" xmlns="http://www.w3.org/2000/svg" xmlns:xlink="http://www.w3.org/1999/xlink">
<g id="graph1" class="graph" transform="scale(1 1) rotate(0) translate(4 338)">
<title>proc~~json_print_2~~CalledByGraph</title>
<polygon fill="white" stroke="white" points="-4,5 -4,-338 269,-338 269,5 -4,5"/>
<!-- proc~json_print_2 -->
<g id="node1" class="node"><title>proc~json_print_2</title>
<polygon fill="none" stroke="black" points="167,-334 97,-334 97,-308 167,-308 167,-334"/>
<text text-anchor="middle" x="132" y="-318.55" font-family="Helvetica,sans-Serif" font-size="10.50">json_print_2</text>
</g>
<!-- interface~json_print -->
<g id="node2" class="node"><title>interface~json_print</title>
<a xlink:href="../interface/json_print.html" xlink:title="json_print">
<polygon fill="#a7506f" stroke="#a7506f" points="263,-202 205,-202 205,-176 263,-176 263,-202"/>
<text text-anchor="middle" x="234" y="-186.55" font-family="Helvetica,sans-Serif" font-size="10.50" fill="white">json_print</text>
</a>
</g>
<!-- proc~json_print_2&#45;&gt;interface~json_print -->
<g id="edge26" class="edge"><title>proc~json_print_2&#45;&gt;interface~json_print</title>
<path fill="none" stroke="black" d="M144.026,-307.811C151.548,-302.67 161.088,-296.968 168,-290 191.362,-266.447 209.882,-233.061 221.286,-211.032"/>
<polygon fill="black" stroke="black" points="224.434,-212.564 225.873,-202.068 218.202,-209.375 224.434,-212.564"/>
</g>
<!-- interface~json_print&#45;&gt;proc~json_print_2 -->
<g id="edge30" class="edge"><title>interface~json_print&#45;&gt;proc~json_print_2</title>
<path fill="none" stroke="black" stroke-dasharray="5,2" d="M230.535,-202.293C222.849,-224.733 202.816,-268.983 174.624,-300.892"/>
<polygon fill="black" stroke="black" points="171.961,-298.616 167.689,-308.311 177.075,-303.396 171.961,-298.616"/>
</g>
<!-- program~example2 -->
<g id="node3" class="node"><title>program~example2</title>
<a xlink:href="../program/example2.html" xlink:title="example2">
<polygon fill="#f0ad4e" stroke="#f0ad4e" points="161,-290 103,-290 103,-264 161,-264 161,-290"/>
<text text-anchor="middle" x="132" y="-274.55" font-family="Helvetica,sans-Serif" font-size="10.50" fill="white">example2</text>
</a>
</g>
<!-- program~example2&#45;&gt;interface~json_print -->
<g id="edge14" class="edge"><title>program~example2&#45;&gt;interface~json_print</title>
<path fill="none" stroke="black" d="M155.398,-263.817C159.712,-261.078 164.087,-258.081 168,-255 185.455,-241.257 203.142,-223.306 215.808,-209.595"/>
<polygon fill="black" stroke="black" points="218.507,-211.829 222.645,-202.076 213.328,-207.12 218.507,-211.829"/>
</g>
<!-- proc~test_4 -->
<g id="node4" class="node"><title>proc~test_4</title>
<a xlink:href="../proc/test_4.html" xlink:title="test_4">
<polygon fill="#d9534f" stroke="#d9534f" points="159,-246 105,-246 105,-220 159,-220 159,-246"/>
<text text-anchor="middle" x="132" y="-230.55" font-family="Helvetica,sans-Serif" font-size="10.50" fill="white">test_4</text>
</a>
</g>
<!-- proc~test_4&#45;&gt;interface~json_print -->
<g id="edge16" class="edge"><title>proc~test_4&#45;&gt;interface~json_print</title>
<path fill="none" stroke="black" d="M159.066,-221.324C170.057,-216.583 182.965,-211.015 194.942,-205.848"/>
<polygon fill="black" stroke="black" points="196.498,-208.989 204.294,-201.814 193.725,-202.562 196.498,-208.989"/>
</g>
<!-- proc~test_12 -->
<g id="node5" class="node"><title>proc~test_12</title>
<a xlink:href="../proc/test_12.html" xlink:title="test_12">
<polygon fill="#d9534f" stroke="#d9534f" points="159,-202 105,-202 105,-176 159,-176 159,-202"/>
<text text-anchor="middle" x="132" y="-186.55" font-family="Helvetica,sans-Serif" font-size="10.50" fill="white">test_12</text>
</a>
</g>
<!-- proc~test_12&#45;&gt;interface~json_print -->
<g id="edge18" class="edge"><title>proc~test_12&#45;&gt;interface~json_print</title>
<path fill="none" stroke="black" d="M159.066,-189C169.839,-189 182.455,-189 194.23,-189"/>
<polygon fill="black" stroke="black" points="194.294,-192.5 204.294,-189 194.294,-185.5 194.294,-192.5"/>
</g>
<!-- proc~test_14 -->
<g id="node6" class="node"><title>proc~test_14</title>
<a xlink:href="../proc/test_14.html" xlink:title="test_14">
<polygon fill="#d9534f" stroke="#d9534f" points="159,-158 105,-158 105,-132 159,-132 159,-158"/>
<text text-anchor="middle" x="132" y="-142.55" font-family="Helvetica,sans-Serif" font-size="10.50" fill="white">test_14</text>
</a>
</g>
<!-- proc~test_14&#45;&gt;interface~json_print -->
<g id="edge20" class="edge"><title>proc~test_14&#45;&gt;interface~json_print</title>
<path fill="none" stroke="black" d="M159.066,-156.676C170.057,-161.417 182.965,-166.985 194.942,-172.152"/>
<polygon fill="black" stroke="black" points="193.725,-175.438 204.294,-176.186 196.498,-169.011 193.725,-175.438"/>
</g>
<!-- proc~test_8 -->
<g id="node7" class="node"><title>proc~test_8</title>
<a xlink:href="../proc/test_8.html" xlink:title="test_8">
<polygon fill="#d9534f" stroke="#d9534f" points="159,-114 105,-114 105,-88 159,-88 159,-114"/>
<text text-anchor="middle" x="132" y="-98.55" font-family="Helvetica,sans-Serif" font-size="10.50" fill="white">test_8</text>
</a>
</g>
<!-- proc~test_8&#45;&gt;interface~json_print -->
<g id="edge22" class="edge"><title>proc~test_8&#45;&gt;interface~json_print</title>
<path fill="none" stroke="black" d="M155.398,-114.183C159.712,-116.922 164.087,-119.919 168,-123 185.455,-136.743 203.142,-154.694 215.808,-168.405"/>
<polygon fill="black" stroke="black" points="213.328,-170.88 222.645,-175.924 218.507,-166.171 213.328,-170.88"/>
</g>
<!-- proc~test_7 -->
<g id="node8" class="node"><title>proc~test_7</title>
<a xlink:href="../proc/test_7.html" xlink:title="test_7">
<polygon fill="#d9534f" stroke="#d9534f" points="159,-70 105,-70 105,-44 159,-44 159,-70"/>
<text text-anchor="middle" x="132" y="-54.55" font-family="Helvetica,sans-Serif" font-size="10.50" fill="white">test_7</text>
</a>
</g>
<!-- proc~test_7&#45;&gt;interface~json_print -->
<g id="edge24" class="edge"><title>proc~test_7&#45;&gt;interface~json_print</title>
<path fill="none" stroke="black" d="M157.178,-70.199C161.041,-72.8229 164.802,-75.7758 168,-79 193.663,-104.872 213.483,-142.609 224.445,-166.475"/>
<polygon fill="black" stroke="black" points="221.324,-168.07 228.592,-175.778 227.718,-165.22 221.324,-168.07"/>
</g>
<!-- proc~test_2 -->
<g id="node9" class="node"><title>proc~test_2</title>
<a xlink:href="../proc/test_2.html" xlink:title="test_2">
<polygon fill="#d9534f" stroke="#d9534f" points="159,-26 105,-26 105,-1.24345e-14 159,-3.55271e-15 159,-26"/>
<text text-anchor="middle" x="132" y="-10.55" font-family="Helvetica,sans-Serif" font-size="10.50" fill="white">test_2</text>
</a>
</g>
<!-- proc~test_2&#45;&gt;interface~json_print -->
<g id="edge28" class="edge"><title>proc~test_2&#45;&gt;interface~json_print</title>
<path fill="none" stroke="black" d="M157.936,-26.0981C161.618,-28.7038 165.123,-31.6774 168,-35 201.869,-74.1207 220.537,-133.234 228.776,-165.665"/>
<polygon fill="black" stroke="black" points="225.42,-166.678 231.177,-175.572 232.223,-165.029 225.42,-166.678"/>
</g>
<!-- program~jf_test_4 -->
<g id="node10" class="node"><title>program~jf_test_4</title>
<a xlink:href="../program/jf_test_4.html" xlink:title="jf_test_4">
<polygon fill="#f0ad4e" stroke="#f0ad4e" points="57,-246 3,-246 3,-220 57,-220 57,-246"/>
<text text-anchor="middle" x="30" y="-230.55" font-family="Helvetica,sans-Serif" font-size="10.50" fill="white">jf_test_4</text>
</a>
</g>
<!-- program~jf_test_4&#45;&gt;proc~test_4 -->
<g id="edge2" class="edge"><title>program~jf_test_4&#45;&gt;proc~test_4</title>
<path fill="none" stroke="black" d="M57.0663,-233C68.5936,-233 82.2305,-233 94.6902,-233"/>
<polygon fill="black" stroke="black" points="94.8072,-236.5 104.807,-233 94.8071,-229.5 94.8072,-236.5"/>
</g>
<!-- program~jf_test_12 -->
<g id="node12" class="node"><title>program~jf_test_12</title>
<a xlink:href="../program/jf_test_12.html" xlink:title="jf_test_12">
<polygon fill="#f0ad4e" stroke="#f0ad4e" points="59,-202 1,-202 1,-176 59,-176 59,-202"/>
<text text-anchor="middle" x="30" y="-186.55" font-family="Helvetica,sans-Serif" font-size="10.50" fill="white">jf_test_12</text>
</a>
</g>
<!-- program~jf_test_12&#45;&gt;proc~test_12 -->
<g id="edge4" class="edge"><title>program~jf_test_12&#45;&gt;proc~test_12</title>
<path fill="none" stroke="black" d="M59.5026,-189C70.404,-189 82.9094,-189 94.4302,-189"/>
<polygon fill="black" stroke="black" points="94.6596,-192.5 104.66,-189 94.6596,-185.5 94.6596,-192.5"/>
</g>
<!-- program~jf_test_14 -->
<g id="node14" class="node"><title>program~jf_test_14</title>
<a xlink:href="../program/jf_test_14.html" xlink:title="jf_test_14">
<polygon fill="#f0ad4e" stroke="#f0ad4e" points="59,-158 1,-158 1,-132 59,-132 59,-158"/>
<text text-anchor="middle" x="30" y="-142.55" font-family="Helvetica,sans-Serif" font-size="10.50" fill="white">jf_test_14</text>
</a>
</g>
<!-- program~jf_test_14&#45;&gt;proc~test_14 -->
<g id="edge6" class="edge"><title>program~jf_test_14&#45;&gt;proc~test_14</title>
<path fill="none" stroke="black" d="M59.5026,-145C70.404,-145 82.9094,-145 94.4302,-145"/>
<polygon fill="black" stroke="black" points="94.6596,-148.5 104.66,-145 94.6596,-141.5 94.6596,-148.5"/>
</g>
<!-- program~jf_test_8 -->
<g id="node16" class="node"><title>program~jf_test_8</title>
<a xlink:href="../program/jf_test_8.html" xlink:title="jf_test_8">
<polygon fill="#f0ad4e" stroke="#f0ad4e" points="57,-114 3,-114 3,-88 57,-88 57,-114"/>
<text text-anchor="middle" x="30" y="-98.55" font-family="Helvetica,sans-Serif" font-size="10.50" fill="white">jf_test_8</text>
</a>
</g>
<!-- program~jf_test_8&#45;&gt;proc~test_8 -->
<g id="edge8" class="edge"><title>program~jf_test_8&#45;&gt;proc~test_8</title>
<path fill="none" stroke="black" d="M57.0663,-101C68.5936,-101 82.2305,-101 94.6902,-101"/>
<polygon fill="black" stroke="black" points="94.8072,-104.5 104.807,-101 94.8071,-97.5001 94.8072,-104.5"/>
</g>
<!-- program~jf_test_7 -->
<g id="node18" class="node"><title>program~jf_test_7</title>
<a xlink:href="../program/jf_test_7.html" xlink:title="jf_test_7">
<polygon fill="#f0ad4e" stroke="#f0ad4e" points="57,-70 3,-70 3,-44 57,-44 57,-70"/>
<text text-anchor="middle" x="30" y="-54.55" font-family="Helvetica,sans-Serif" font-size="10.50" fill="white">jf_test_7</text>
</a>
</g>
<!-- program~jf_test_7&#45;&gt;proc~test_7 -->
<g id="edge10" class="edge"><title>program~jf_test_7&#45;&gt;proc~test_7</title>
<path fill="none" stroke="black" d="M57.0663,-57C68.5936,-57 82.2305,-57 94.6902,-57"/>
<polygon fill="black" stroke="black" points="94.8072,-60.5001 104.807,-57 94.8071,-53.5001 94.8072,-60.5001"/>
</g>
<!-- program~jf_test_2 -->
<g id="node20" class="node"><title>program~jf_test_2</title>
<a xlink:href="../program/jf_test_2.html" xlink:title="jf_test_2">
<polygon fill="#f0ad4e" stroke="#f0ad4e" points="57,-26 3,-26 3,-1.24345e-14 57,-3.55271e-15 57,-26"/>
<text text-anchor="middle" x="30" y="-10.55" font-family="Helvetica,sans-Serif" font-size="10.50" fill="white">jf_test_2</text>
</a>
</g>
<!-- program~jf_test_2&#45;&gt;proc~test_2 -->
<g id="edge12" class="edge"><title>program~jf_test_2&#45;&gt;proc~test_2</title>
<path fill="none" stroke="black" d="M57.0663,-13C68.5936,-13 82.2305,-13 94.6902,-13"/>
<polygon fill="black" stroke="black" points="94.8072,-16.5001 104.807,-13 94.8071,-9.5001 94.8072,-16.5001"/>
</g>
</g>
</svg>
