<?xml version="1.0" encoding="UTF-8" standalone="no"?>
<!DOCTYPE svg PUBLIC "-//W3C//DTD SVG 1.1//EN"
 "http://www.w3.org/Graphics/SVG/1.1/DTD/svg11.dtd">
<!-- Generated by graphviz version 2.26.3 (20100126.1600)
 -->
<!-- Title: proc~~json_value_to_string~~CalledByGraph Pages: 1 -->
<svg width="462pt" height="78pt"
 viewBox="0.00 0.00 462.00 78.00" xmlns="http://www.w3.org/2000/svg" xmlns:xlink="http://www.w3.org/1999/xlink">
<g id="graph1" class="graph" transform="scale(1 1) rotate(0) translate(4 74)">
<title>proc~~json_value_to_string~~CalledByGraph</title>
<polygon fill="white" stroke="white" points="-4,5 -4,-74 459,-74 459,5 -4,5"/>
<!-- proc~json_value_to_string -->
<g id="node1" class="node"><title>proc~json_value_to_string</title>
<polygon fill="none" stroke="black" points="453,-48 343,-48 343,-22 453,-22 453,-48"/>
<text text-anchor="middle" x="398" y="-32.55" font-family="Helvetica,sans-Serif" font-size="10.50">json_value_to_string</text>
</g>
<!-- proc~json_file_print_to_string -->
<g id="node2" class="node"><title>proc~json_file_print_to_string</title>
<a xlink:href="../proc/json_file_print_to_string.html" xlink:title="json_file_print_to_string">
<polygon fill="#d9534f" stroke="#d9534f" points="306,-70 180,-70 180,-44 306,-44 306,-70"/>
<text text-anchor="middle" x="243" y="-54.55" font-family="Helvetica,sans-Serif" font-size="10.50" fill="white">json_file_print_to_string</text>
</a>
</g>
<!-- proc~json_file_print_to_string&#45;&gt;proc~json_value_to_string -->
<g id="edge2" class="edge"><title>proc~json_file_print_to_string&#45;&gt;proc~json_value_to_string</title>
<path fill="none" stroke="black" d="M306.044,-48.0518C314.719,-46.8205 323.644,-45.5537 332.364,-44.316"/>
<polygon fill="black" stroke="black" points="333.07,-47.751 342.479,-42.8804 332.087,-40.8205 333.07,-47.751"/>
</g>
<!-- interface~json_print_to_string -->
<g id="node4" class="node"><title>interface~json_print_to_string</title>
<a xlink:href="../interface/json_print_to_string.html" xlink:title="json_print_to_string">
<polygon fill="#a7506f" stroke="#a7506f" points="296,-26 190,-26 190,-1.24345e-14 296,-3.55271e-15 296,-26"/>
<text text-anchor="middle" x="243" y="-10.55" font-family="Helvetica,sans-Serif" font-size="10.50" fill="white">json_print_to_string</text>
</a>
</g>
<!-- interface~json_print_to_string&#45;&gt;proc~json_value_to_string -->
<g id="edge8" class="edge"><title>interface~json_print_to_string&#45;&gt;proc~json_value_to_string</title>
<path fill="none" stroke="black" stroke-dasharray="5,2" d="M296.342,-20.5712C307.973,-22.2219 320.41,-23.9872 332.452,-25.6964"/>
<polygon fill="black" stroke="black" points="332.056,-29.1752 342.448,-27.1153 333.04,-22.2446 332.056,-29.1752"/>
</g>
<!-- proc~test_4 -->
<g id="node5" class="node"><title>proc~test_4</title>
<a xlink:href="../proc/test_4.html" xlink:title="test_4">
<polygon fill="#d9534f" stroke="#d9534f" points="144,-26 90,-26 90,-1.24345e-14 144,-3.55271e-15 144,-26"/>
<text text-anchor="middle" x="117" y="-10.55" font-family="Helvetica,sans-Serif" font-size="10.50" fill="white">test_4</text>
</a>
</g>
<!-- proc~test_4&#45;&gt;interface~json_print_to_string -->
<g id="edge6" class="edge"><title>proc~test_4&#45;&gt;interface~json_print_to_string</title>
<path fill="none" stroke="black" d="M144.03,-13C154.586,-13 167.167,-13 179.762,-13"/>
<polygon fill="black" stroke="black" points="179.826,-16.5001 189.826,-13 179.826,-9.5001 179.826,-16.5001"/>
</g>
<!-- program~jf_test_4 -->
<g id="node6" class="node"><title>program~jf_test_4</title>
<a xlink:href="../program/jf_test_4.html" xlink:title="jf_test_4">
<polygon fill="#f0ad4e" stroke="#f0ad4e" points="54,-26 2.13163e-14,-26 0,-1.24345e-14 54,-3.55271e-15 54,-26"/>
<text text-anchor="middle" x="27" y="-10.55" font-family="Helvetica,sans-Serif" font-size="10.50" fill="white">jf_test_4</text>
</a>
</g>
<!-- program~jf_test_4&#45;&gt;proc~test_4 -->
<g id="edge4" class="edge"><title>program~jf_test_4&#45;&gt;proc~test_4</title>
<path fill="none" stroke="black" d="M54.003,-13C62.0277,-13 70.9665,-13 79.5309,-13"/>
<polygon fill="black" stroke="black" points="79.7051,-16.5001 89.705,-13 79.705,-9.5001 79.7051,-16.5001"/>
</g>
</g>
</svg>
