<?xml version="1.0" encoding="UTF-8" standalone="no"?>
<!DOCTYPE svg PUBLIC "-//W3C//DTD SVG 1.1//EN"
 "http://www.w3.org/Graphics/SVG/1.1/DTD/svg11.dtd">
<!-- Generated by graphviz version 2.26.3 (20100126.1600)
 -->
<!-- Title: proc~~json_value_get_by_name_chars~~CallsGraph Pages: 1 -->
<svg width="641pt" height="87pt"
 viewBox="0.00 0.00 641.00 86.86" xmlns="http://www.w3.org/2000/svg" xmlns:xlink="http://www.w3.org/1999/xlink">
<g id="graph1" class="graph" transform="scale(0.868564 0.868564) rotate(0) translate(4 96)">
<title>proc~~json_value_get_by_name_chars~~CallsGraph</title>
<polygon fill="white" stroke="white" points="-4,5 -4,-96 735,-96 735,5 -4,5"/>
<!-- proc~json_value_get_by_name_chars -->
<g id="node1" class="node"><title>proc~json_value_get_by_name_chars</title>
<polygon fill="none" stroke="black" points="167,-50 1,-50 1,-24 167,-24 167,-50"/>
<text text-anchor="middle" x="84" y="-34.55" font-family="Helvetica,sans-Serif" font-size="10.50">json_value_get_by_name_chars</text>
</g>
<!-- interface~throw_exception -->
<g id="node2" class="node"><title>interface~throw_exception</title>
<a xlink:href="../interface/throw_exception.html" xlink:title="throw_exception">
<polygon fill="#a7506f" stroke="#a7506f" points="295,-72 205,-72 205,-46 295,-46 295,-72"/>
<text text-anchor="middle" x="250" y="-56.55" font-family="Helvetica,sans-Serif" font-size="10.50" fill="white">throw_exception</text>
</a>
</g>
<!-- proc~json_value_get_by_name_chars&#45;&gt;interface~throw_exception -->
<g id="edge14" class="edge"><title>proc~json_value_get_by_name_chars&#45;&gt;interface~throw_exception</title>
<path fill="none" stroke="black" d="M167.973,-48.1289C176.891,-49.3109 185.795,-50.4909 194.272,-51.6143"/>
<polygon fill="black" stroke="black" points="193.999,-55.1087 204.372,-52.9529 194.919,-48.1694 193.999,-55.1087"/>
</g>
<!-- proc~json_count -->
<g id="node3" class="node"><title>proc~json_count</title>
<a xlink:href="../proc/json_count.html" xlink:title="json_count">
<polygon fill="#d94e8f" stroke="#d94e8f" points="282,-28 218,-28 218,-2 282,-2 282,-28"/>
<text text-anchor="middle" x="250" y="-12.55" font-family="Helvetica,sans-Serif" font-size="10.50" fill="white">json_count</text>
</a>
</g>
<!-- proc~json_value_get_by_name_chars&#45;&gt;proc~json_count -->
<g id="edge16" class="edge"><title>proc~json_value_get_by_name_chars&#45;&gt;proc~json_count</title>
<path fill="none" stroke="black" d="M167.973,-25.8711C181.656,-24.0576 195.304,-22.2488 207.429,-20.6419"/>
<polygon fill="black" stroke="black" points="208.202,-24.0702 217.655,-19.2867 207.282,-17.1309 208.202,-24.0702"/>
</g>
<!-- proc~json_throw_exception -->
<g id="node4" class="node"><title>proc~json_throw_exception</title>
<a xlink:href="../proc/json_throw_exception.html" xlink:title="json_throw_exception">
<polygon fill="#d9534f" stroke="#d9534f" points="630,-92 514,-92 514,-66 630,-66 630,-92"/>
<text text-anchor="middle" x="572" y="-76.55" font-family="Helvetica,sans-Serif" font-size="10.50" fill="white">json_throw_exception</text>
</a>
</g>
<!-- interface~throw_exception&#45;&gt;proc~json_throw_exception -->
<g id="edge10" class="edge"><title>interface~throw_exception&#45;&gt;proc~json_throw_exception</title>
<path fill="none" stroke="black" stroke-dasharray="5,2" d="M295.793,-61.8443C350.069,-65.2155 441.029,-70.8652 503.647,-74.7544"/>
<polygon fill="black" stroke="black" points="503.632,-78.2602 513.83,-75.3869 504.066,-71.2736 503.632,-78.2602"/>
</g>
<!-- proc~wrap_json_throw_exception -->
<g id="node5" class="node"><title>proc~wrap_json_throw_exception</title>
<a xlink:href="../proc/wrap_json_throw_exception.html" xlink:title="wrap_json_throw_exception">
<polygon fill="#d9534f" stroke="#d9534f" points="477,-51 333,-51 333,-25 477,-25 477,-51"/>
<text text-anchor="middle" x="405" y="-35.55" font-family="Helvetica,sans-Serif" font-size="10.50" fill="white">wrap_json_throw_exception</text>
</a>
</g>
<!-- interface~throw_exception&#45;&gt;proc~wrap_json_throw_exception -->
<g id="edge12" class="edge"><title>interface~throw_exception&#45;&gt;proc~wrap_json_throw_exception</title>
<path fill="none" stroke="black" stroke-dasharray="5,2" d="M295.667,-52.8129C304.126,-51.6667 313.199,-50.4376 322.367,-49.1954"/>
<polygon fill="black" stroke="black" points="322.89,-52.6567 332.329,-47.8457 321.95,-45.7201 322.89,-52.6567"/>
</g>
<!-- proc~wrap_json_throw_exception&#45;&gt;proc~json_throw_exception -->
<g id="edge6" class="edge"><title>proc~wrap_json_throw_exception&#45;&gt;proc~json_throw_exception</title>
<path fill="none" stroke="black" d="M458.299,-51.0854C474.346,-55.0251 492.113,-59.3871 508.741,-63.4693"/>
<polygon fill="black" stroke="black" points="508.375,-66.9833 518.921,-65.9686 510.044,-60.1852 508.375,-66.9833"/>
</g>
<!-- interface~to_unicode -->
<g id="node6" class="node"><title>interface~to_unicode</title>
<a xlink:href="../interface/to_unicode.html" xlink:title="to_unicode">
<polygon fill="#a7506f" stroke="#a7506f" points="604,-48 540,-48 540,-22 604,-22 604,-48"/>
<text text-anchor="middle" x="572" y="-32.55" font-family="Helvetica,sans-Serif" font-size="10.50" fill="white">to_unicode</text>
</a>
</g>
<!-- proc~wrap_json_throw_exception&#45;&gt;interface~to_unicode -->
<g id="edge8" class="edge"><title>proc~wrap_json_throw_exception&#45;&gt;interface~to_unicode</title>
<path fill="none" stroke="black" d="M477.763,-36.6929C495.188,-36.3799 513.248,-36.0554 528.839,-35.7754"/>
<polygon fill="black" stroke="black" points="529.264,-39.2684 539.199,-35.5892 529.138,-32.2695 529.264,-39.2684"/>
</g>
<!-- proc~to_uni_vec -->
<g id="node7" class="node"><title>proc~to_uni_vec</title>
<a xlink:href="../proc/to_uni_vec.html" xlink:title="to_uni_vec">
<polygon fill="#d94e8f" stroke="#d94e8f" points="730,-70 666,-70 666,-44 730,-44 730,-70"/>
<text text-anchor="middle" x="698" y="-54.55" font-family="Helvetica,sans-Serif" font-size="10.50" fill="white">to_uni_vec</text>
</a>
</g>
<!-- interface~to_unicode&#45;&gt;proc~to_uni_vec -->
<g id="edge2" class="edge"><title>interface~to_unicode&#45;&gt;proc~to_uni_vec</title>
<path fill="none" stroke="black" stroke-dasharray="5,2" d="M604.776,-40.7228C620.355,-43.443 639.166,-46.7274 655.798,-49.6314"/>
<polygon fill="black" stroke="black" points="655.371,-53.1097 665.824,-51.382 656.575,-46.214 655.371,-53.1097"/>
</g>
<!-- proc~to_uni -->
<g id="node8" class="node"><title>proc~to_uni</title>
<a xlink:href="../proc/to_uni.html" xlink:title="to_uni">
<polygon fill="#d94e8f" stroke="#d94e8f" points="725,-26 671,-26 671,-1.24345e-14 725,-3.55271e-15 725,-26"/>
<text text-anchor="middle" x="698" y="-10.55" font-family="Helvetica,sans-Serif" font-size="10.50" fill="white">to_uni</text>
</a>
</g>
<!-- interface~to_unicode&#45;&gt;proc~to_uni -->
<g id="edge4" class="edge"><title>interface~to_unicode&#45;&gt;proc~to_uni</title>
<path fill="none" stroke="black" stroke-dasharray="5,2" d="M604.776,-29.2772C621.965,-26.276 643.088,-22.5878 660.878,-19.4816"/>
<polygon fill="black" stroke="black" points="661.664,-22.8974 670.913,-17.7295 660.46,-16.0017 661.664,-22.8974"/>
</g>
</g>
</svg>
