<?xml version="1.0" encoding="UTF-8" standalone="no"?>
<!DOCTYPE svg PUBLIC "-//W3C//DTD SVG 1.1//EN"
 "http://www.w3.org/Graphics/SVG/1.1/DTD/svg11.dtd">
<!-- Generated by graphviz version 2.26.3 (20100126.1600)
 -->
<!-- Title: proc~~wrap_json_get_logical_with_path~~CallsGraph Pages: 1 -->
<svg width="641pt" height="118pt"
 viewBox="0.00 0.00 641.00 118.28" xmlns="http://www.w3.org/2000/svg" xmlns:xlink="http://www.w3.org/1999/xlink">
<g id="graph1" class="graph" transform="scale(0.390378 0.390378) rotate(0) translate(4 299)">
<title>proc~~wrap_json_get_logical_with_path~~CallsGraph</title>
<polygon fill="white" stroke="white" points="-4,5 -4,-299 1639,-299 1639,5 -4,5"/>
<!-- proc~wrap_json_get_logical_with_path -->
<g id="node1" class="node"><title>proc~wrap_json_get_logical_with_path</title>
<polygon fill="none" stroke="black" points="170,-249 7.10543e-14,-249 0,-223 170,-223 170,-249"/>
<text text-anchor="middle" x="85" y="-233.55" font-family="Helvetica,sans-Serif" font-size="10.50">wrap_json_get_logical_with_path</text>
</g>
<!-- proc~json_get_logical_with_path -->
<g id="node2" class="node"><title>proc~json_get_logical_with_path</title>
<a xlink:href="../proc/json_get_logical_with_path.html" xlink:title="json_get_logical_with_path">
<polygon fill="#d9534f" stroke="#d9534f" points="347,-190 207,-190 207,-164 347,-164 347,-190"/>
<text text-anchor="middle" x="277" y="-174.55" font-family="Helvetica,sans-Serif" font-size="10.50" fill="white">json_get_logical_with_path</text>
</a>
</g>
<!-- proc~wrap_json_get_logical_with_path&#45;&gt;proc~json_get_logical_with_path -->
<g id="edge50" class="edge"><title>proc~wrap_json_get_logical_with_path&#45;&gt;proc~json_get_logical_with_path</title>
<path fill="none" stroke="black" d="M127.611,-222.906C156.322,-214.083 194.373,-202.39 224.887,-193.014"/>
<polygon fill="black" stroke="black" points="225.977,-196.34 234.508,-190.057 223.921,-189.649 225.977,-196.34"/>
</g>
<!-- interface~to_unicode -->
<g id="node3" class="node"><title>interface~to_unicode</title>
<a xlink:href="../interface/to_unicode.html" xlink:title="to_unicode">
<polygon fill="#a7506f" stroke="#a7506f" points="1508,-269 1444,-269 1444,-243 1508,-243 1508,-269"/>
<text text-anchor="middle" x="1476" y="-253.55" font-family="Helvetica,sans-Serif" font-size="10.50" fill="white">to_unicode</text>
</a>
</g>
<!-- proc~wrap_json_get_logical_with_path&#45;&gt;interface~to_unicode -->
<g id="edge52" class="edge"><title>proc~wrap_json_get_logical_with_path&#45;&gt;interface~to_unicode</title>
<path fill="none" stroke="black" d="M131.575,-249.021C197.935,-266.396 323.771,-295 433,-295 433,-295 433,-295 1154,-295 1254.61,-295 1371.62,-276.004 1433.14,-264.527"/>
<polygon fill="black" stroke="black" points="1434.07,-267.913 1443.25,-262.616 1432.77,-261.035 1434.07,-267.913"/>
</g>
<!-- proc~json_get_logical -->
<g id="node4" class="node"><title>proc~json_get_logical</title>
<a xlink:href="../proc/json_get_logical.html" xlink:title="json_get_logical">
<polygon fill="#d9534f" stroke="#d9534f" points="1032,-184 944,-184 944,-158 1032,-158 1032,-184"/>
<text text-anchor="middle" x="988" y="-168.55" font-family="Helvetica,sans-Serif" font-size="10.50" fill="white">json_get_logical</text>
</a>
</g>
<!-- proc~json_get_logical_with_path&#45;&gt;proc~json_get_logical -->
<g id="edge38" class="edge"><title>proc~json_get_logical_with_path&#45;&gt;proc~json_get_logical</title>
<path fill="none" stroke="black" d="M347.714,-186.967C359.803,-188.466 372.25,-189.882 384,-191 443.393,-196.651 458.365,-197.221 518,-199 570.421,-200.563 583.597,-201.081 636,-199 741.314,-194.818 863.933,-183.625 933.115,-176.723"/>
<polygon fill="black" stroke="black" points="933.738,-180.178 943.338,-175.696 933.038,-173.214 933.738,-180.178"/>
</g>
<!-- proc~json_get_by_path -->
<g id="node5" class="node"><title>proc~json_get_by_path</title>
<a xlink:href="../proc/json_get_by_path.html" xlink:title="json_get_by_path">
<polygon fill="#d9534f" stroke="#d9534f" points="481,-146 385,-146 385,-120 481,-120 481,-146"/>
<text text-anchor="middle" x="433" y="-130.55" font-family="Helvetica,sans-Serif" font-size="10.50" fill="white">json_get_by_path</text>
</a>
</g>
<!-- proc~json_get_logical_with_path&#45;&gt;proc~json_get_by_path -->
<g id="edge40" class="edge"><title>proc~json_get_logical_with_path&#45;&gt;proc~json_get_by_path</title>
<path fill="none" stroke="black" d="M323.383,-163.918C340.125,-159.195 359.207,-153.813 376.706,-148.878"/>
<polygon fill="black" stroke="black" points="378.122,-152.115 386.796,-146.032 376.221,-145.378 378.122,-152.115"/>
</g>
<!-- proc~json_clear_exceptions -->
<g id="node6" class="node"><title>proc~json_clear_exceptions</title>
<a xlink:href="../proc/json_clear_exceptions.html" xlink:title="json_clear_exceptions">
<polygon fill="#d9534f" stroke="#d9534f" points="636,-190 518,-190 518,-164 636,-164 636,-190"/>
<text text-anchor="middle" x="577" y="-174.55" font-family="Helvetica,sans-Serif" font-size="10.50" fill="white">json_clear_exceptions</text>
</a>
</g>
<!-- proc~json_get_logical_with_path&#45;&gt;proc~json_clear_exceptions -->
<g id="edge42" class="edge"><title>proc~json_get_logical_with_path&#45;&gt;proc~json_clear_exceptions</title>
<path fill="none" stroke="black" d="M347.716,-177C395.971,-177 459.587,-177 507.567,-177"/>
<polygon fill="black" stroke="black" points="507.863,-180.5 517.863,-177 507.863,-173.5 507.863,-180.5"/>
</g>
<!-- interface~throw_exception -->
<g id="node7" class="node"><title>interface~throw_exception</title>
<a xlink:href="../interface/throw_exception.html" xlink:title="throw_exception">
<polygon fill="#a7506f" stroke="#a7506f" points="1199,-143 1109,-143 1109,-117 1199,-117 1199,-143"/>
<text text-anchor="middle" x="1154" y="-127.55" font-family="Helvetica,sans-Serif" font-size="10.50" fill="white">throw_exception</text>
</a>
</g>
<!-- proc~json_get_logical_with_path&#45;&gt;interface~throw_exception -->
<g id="edge44" class="edge"><title>proc~json_get_logical_with_path&#45;&gt;interface~throw_exception</title>
<path fill="none" stroke="black" d="M294.891,-163.837C339.846,-132.106 462.166,-54 577,-54 577,-54 577,-54 770,-54 905.77,-54 940.482,-66.286 1072,-100 1085.69,-103.51 1100.29,-108.442 1113.31,-113.295"/>
<polygon fill="black" stroke="black" points="1112.33,-116.668 1122.92,-116.966 1114.83,-110.129 1112.33,-116.668"/>
</g>
<!-- proc~to_uni_vec -->
<g id="node38" class="node"><title>proc~to_uni_vec</title>
<a xlink:href="../proc/to_uni_vec.html" xlink:title="to_uni_vec">
<polygon fill="#d94e8f" stroke="#d94e8f" points="1634,-291 1570,-291 1570,-265 1634,-265 1634,-291"/>
<text text-anchor="middle" x="1602" y="-275.55" font-family="Helvetica,sans-Serif" font-size="10.50" fill="white">to_uni_vec</text>
</a>
</g>
<!-- interface~to_unicode&#45;&gt;proc~to_uni_vec -->
<g id="edge46" class="edge"><title>interface~to_unicode&#45;&gt;proc~to_uni_vec</title>
<path fill="none" stroke="black" stroke-dasharray="5,2" d="M1508.78,-261.723C1524.36,-264.443 1543.17,-267.727 1559.8,-270.631"/>
<polygon fill="black" stroke="black" points="1559.37,-274.11 1569.82,-272.382 1560.58,-267.214 1559.37,-274.11"/>
</g>
<!-- proc~to_uni -->
<g id="node39" class="node"><title>proc~to_uni</title>
<a xlink:href="../proc/to_uni.html" xlink:title="to_uni">
<polygon fill="#d94e8f" stroke="#d94e8f" points="1629,-247 1575,-247 1575,-221 1629,-221 1629,-247"/>
<text text-anchor="middle" x="1602" y="-231.55" font-family="Helvetica,sans-Serif" font-size="10.50" fill="white">to_uni</text>
</a>
</g>
<!-- interface~to_unicode&#45;&gt;proc~to_uni -->
<g id="edge48" class="edge"><title>interface~to_unicode&#45;&gt;proc~to_uni</title>
<path fill="none" stroke="black" stroke-dasharray="5,2" d="M1508.78,-250.277C1525.97,-247.276 1547.09,-243.588 1564.88,-240.482"/>
<polygon fill="black" stroke="black" points="1565.66,-243.897 1574.91,-238.729 1564.46,-237.002 1565.66,-243.897"/>
</g>
<!-- proc~json_get_logical&#45;&gt;interface~throw_exception -->
<g id="edge2" class="edge"><title>proc~json_get_logical&#45;&gt;interface~throw_exception</title>
<path fill="none" stroke="black" d="M1032.92,-159.905C1053.15,-154.909 1077.22,-148.963 1098.56,-143.693"/>
<polygon fill="black" stroke="black" points="1099.6,-147.042 1108.46,-141.247 1097.92,-140.247 1099.6,-147.042"/>
</g>
<!-- proc~json_get_by_path&#45;&gt;proc~json_clear_exceptions -->
<g id="edge26" class="edge"><title>proc~json_get_by_path&#45;&gt;proc~json_clear_exceptions</title>
<path fill="none" stroke="black" d="M475.815,-146.082C491.056,-150.739 508.398,-156.038 524.367,-160.918"/>
<polygon fill="black" stroke="black" points="523.515,-164.317 534.101,-163.892 525.561,-157.623 523.515,-164.317"/>
</g>
<!-- proc~json_get_by_path&#45;&gt;interface~throw_exception -->
<g id="edge22" class="edge"><title>proc~json_get_by_path&#45;&gt;interface~throw_exception</title>
<path fill="none" stroke="black" d="M474.959,-119.894C488.55,-116.256 503.786,-112.81 518,-111 731.059,-83.8745 987.348,-108.912 1098.3,-122.524"/>
<polygon fill="black" stroke="black" points="1097.91,-126.002 1108.26,-123.764 1098.77,-119.056 1097.91,-126.002"/>
</g>
<!-- interface~json_get_child -->
<g id="node9" class="node"><title>interface~json_get_child</title>
<a xlink:href="../interface/json_get_child.html" xlink:title="json_get_child">
<polygon fill="#a7506f" stroke="#a7506f" points="617,-146 537,-146 537,-120 617,-120 617,-146"/>
<text text-anchor="middle" x="577" y="-130.55" font-family="Helvetica,sans-Serif" font-size="10.50" fill="white">json_get_child</text>
</a>
</g>
<!-- proc~json_get_by_path&#45;&gt;interface~json_get_child -->
<g id="edge24" class="edge"><title>proc~json_get_by_path&#45;&gt;interface~json_get_child</title>
<path fill="none" stroke="black" d="M481.752,-133C496.065,-133 511.751,-133 526.19,-133"/>
<polygon fill="black" stroke="black" points="526.445,-136.5 536.445,-133 526.445,-129.5 526.445,-136.5"/>
</g>
<!-- proc~string_to_integer -->
<g id="node10" class="node"><title>proc~string_to_integer</title>
<a xlink:href="../proc/string_to_integer.html" xlink:title="string_to_integer">
<polygon fill="#d94e8f" stroke="#d94e8f" points="816,-26 724,-26 724,-1.24345e-14 816,-3.55271e-15 816,-26"/>
<text text-anchor="middle" x="770" y="-10.55" font-family="Helvetica,sans-Serif" font-size="10.50" fill="white">string_to_integer</text>
</a>
</g>
<!-- proc~json_get_by_path&#45;&gt;proc~string_to_integer -->
<g id="edge28" class="edge"><title>proc~json_get_by_path&#45;&gt;proc~string_to_integer</title>
<path fill="none" stroke="black" d="M449.651,-119.895C466.15,-107.492 492.568,-89.1557 518,-78 582.198,-49.84 661.146,-31.9378 713.382,-22.2034"/>
<polygon fill="black" stroke="black" points="714.251,-25.6026 723.461,-20.3648 712.995,-18.7163 714.251,-25.6026"/>
</g>
<!-- proc~json_throw_exception -->
<g id="node28" class="node"><title>proc~json_throw_exception</title>
<a xlink:href="../proc/json_throw_exception.html" xlink:title="json_throw_exception">
<polygon fill="#d9534f" stroke="#d9534f" points="1534,-164 1418,-164 1418,-138 1534,-138 1534,-164"/>
<text text-anchor="middle" x="1476" y="-148.55" font-family="Helvetica,sans-Serif" font-size="10.50" fill="white">json_throw_exception</text>
</a>
</g>
<!-- interface~throw_exception&#45;&gt;proc~json_throw_exception -->
<g id="edge34" class="edge"><title>interface~throw_exception&#45;&gt;proc~json_throw_exception</title>
<path fill="none" stroke="black" stroke-dasharray="5,2" d="M1199.79,-132.986C1254.07,-136.526 1345.03,-142.458 1407.65,-146.542"/>
<polygon fill="black" stroke="black" points="1407.62,-150.048 1417.83,-147.206 1408.08,-143.063 1407.62,-150.048"/>
</g>
<!-- proc~wrap_json_throw_exception -->
<g id="node29" class="node"><title>proc~wrap_json_throw_exception</title>
<a xlink:href="../proc/wrap_json_throw_exception.html" xlink:title="wrap_json_throw_exception">
<polygon fill="#d9534f" stroke="#d9534f" points="1381,-184 1237,-184 1237,-158 1381,-158 1381,-184"/>
<text text-anchor="middle" x="1309" y="-168.55" font-family="Helvetica,sans-Serif" font-size="10.50" fill="white">wrap_json_throw_exception</text>
</a>
</g>
<!-- interface~throw_exception&#45;&gt;proc~wrap_json_throw_exception -->
<g id="edge36" class="edge"><title>interface~throw_exception&#45;&gt;proc~wrap_json_throw_exception</title>
<path fill="none" stroke="black" stroke-dasharray="5,2" d="M1199.67,-142.08C1215.27,-146.207 1232.96,-150.886 1249.49,-155.258"/>
<polygon fill="black" stroke="black" points="1249.04,-158.76 1259.6,-157.934 1250.83,-151.993 1249.04,-158.76"/>
</g>
<!-- proc~json_value_get_by_index -->
<g id="node11" class="node"><title>proc~json_value_get_by_index</title>
<a xlink:href="../proc/json_value_get_by_index.html" xlink:title="json_value_get_by_index">
<polygon fill="#d9534f" stroke="#d9534f" points="836,-146 704,-146 704,-120 836,-120 836,-146"/>
<text text-anchor="middle" x="770" y="-130.55" font-family="Helvetica,sans-Serif" font-size="10.50" fill="white">json_value_get_by_index</text>
</a>
</g>
<!-- interface~json_get_child&#45;&gt;proc~json_value_get_by_index -->
<g id="edge14" class="edge"><title>interface~json_get_child&#45;&gt;proc~json_value_get_by_index</title>
<path fill="none" stroke="black" stroke-dasharray="5,2" d="M617.93,-133C639.812,-133 667.475,-133 693.191,-133"/>
<polygon fill="black" stroke="black" points="693.31,-136.5 703.31,-133 693.31,-129.5 693.31,-136.5"/>
</g>
<!-- proc~json_value_get_by_name_chars -->
<g id="node12" class="node"><title>proc~json_value_get_by_name_chars</title>
<a xlink:href="../proc/json_value_get_by_name_chars.html" xlink:title="json_value_get_by_name_chars">
<polygon fill="#d9534f" stroke="#d9534f" points="1071,-228 905,-228 905,-202 1071,-202 1071,-228"/>
<text text-anchor="middle" x="988" y="-212.55" font-family="Helvetica,sans-Serif" font-size="10.50" fill="white">json_value_get_by_name_chars</text>
</a>
</g>
<!-- interface~json_get_child&#45;&gt;proc~json_value_get_by_name_chars -->
<g id="edge16" class="edge"><title>interface~json_get_child&#45;&gt;proc~json_value_get_by_name_chars</title>
<path fill="none" stroke="black" stroke-dasharray="5,2" d="M617.603,-142.778C634.405,-146.727 654.109,-151.231 672,-155 750.709,-171.579 840.889,-188.497 904.711,-200.123"/>
<polygon fill="black" stroke="black" points="904.258,-203.598 914.722,-201.943 905.51,-196.711 904.258,-203.598"/>
</g>
<!-- proc~wrap_json_value_get_by_name_chars -->
<g id="node13" class="node"><title>proc~wrap_json_value_get_by_name_chars</title>
<a xlink:href="../proc/wrap_json_value_get_by_name_chars.html" xlink:title="wrap_json_value_get_by_name_chars">
<polygon fill="#d9534f" stroke="#d9534f" points="868,-267 672,-267 672,-241 868,-241 868,-267"/>
<text text-anchor="middle" x="770" y="-251.55" font-family="Helvetica,sans-Serif" font-size="10.50" fill="white">wrap_json_value_get_by_name_chars</text>
</a>
</g>
<!-- interface~json_get_child&#45;&gt;proc~wrap_json_value_get_by_name_chars -->
<g id="edge18" class="edge"><title>interface~json_get_child&#45;&gt;proc~wrap_json_value_get_by_name_chars</title>
<path fill="none" stroke="black" stroke-dasharray="5,2" d="M617.693,-145.713C624.026,-148.381 630.339,-151.475 636,-155 654.683,-166.632 654.767,-175.312 672,-189 693.489,-206.068 719.429,-223.132 739.222,-235.491"/>
<polygon fill="black" stroke="black" points="737.499,-238.541 747.845,-240.821 741.179,-232.586 737.499,-238.541"/>
</g>
<!-- proc~string_to_integer&#45;&gt;interface~throw_exception -->
<g id="edge20" class="edge"><title>proc~string_to_integer&#45;&gt;interface~throw_exception</title>
<path fill="none" stroke="black" d="M816.52,-7.1271C878.337,-1.48298 989.36,0.997784 1072,-40 1102.49,-55.1243 1127.06,-86.8221 1141.1,-108.265"/>
<polygon fill="black" stroke="black" points="1138.16,-110.163 1146.46,-116.749 1144.08,-106.425 1138.16,-110.163"/>
</g>
<!-- proc~json_value_get_by_index&#45;&gt;interface~throw_exception -->
<g id="edge4" class="edge"><title>proc~json_value_get_by_index&#45;&gt;interface~throw_exception</title>
<path fill="none" stroke="black" d="M836.888,-132.477C910.876,-131.899 1028.77,-130.978 1098.05,-130.437"/>
<polygon fill="black" stroke="black" points="1098.35,-133.935 1108.32,-130.357 1098.3,-126.935 1098.35,-133.935"/>
</g>
<!-- proc~json_value_get_by_name_chars&#45;&gt;interface~throw_exception -->
<g id="edge6" class="edge"><title>proc~json_value_get_by_name_chars&#45;&gt;interface~throw_exception</title>
<path fill="none" stroke="black" d="M1049.6,-201.926C1057.32,-199.405 1064.96,-196.449 1072,-193 1094.79,-181.833 1117.41,-163.789 1133.11,-149.868"/>
<polygon fill="black" stroke="black" points="1135.59,-152.336 1140.64,-143.022 1130.89,-147.154 1135.59,-152.336"/>
</g>
<!-- proc~json_count -->
<g id="node15" class="node"><title>proc~json_count</title>
<a xlink:href="../proc/json_count.html" xlink:title="json_count">
<polygon fill="#d94e8f" stroke="#d94e8f" points="1186,-228 1122,-228 1122,-202 1186,-202 1186,-228"/>
<text text-anchor="middle" x="1154" y="-212.55" font-family="Helvetica,sans-Serif" font-size="10.50" fill="white">json_count</text>
</a>
</g>
<!-- proc~json_value_get_by_name_chars&#45;&gt;proc~json_count -->
<g id="edge8" class="edge"><title>proc~json_value_get_by_name_chars&#45;&gt;proc~json_count</title>
<path fill="none" stroke="black" d="M1071.97,-215C1085.66,-215 1099.3,-215 1111.43,-215"/>
<polygon fill="black" stroke="black" points="1111.66,-218.5 1121.65,-215 1111.65,-211.5 1111.66,-218.5"/>
</g>
<!-- proc~wrap_json_value_get_by_name_chars&#45;&gt;interface~to_unicode -->
<g id="edge10" class="edge"><title>proc~wrap_json_value_get_by_name_chars&#45;&gt;interface~to_unicode</title>
<path fill="none" stroke="black" d="M868.166,-254.278C1024.16,-254.72 1322.32,-255.565 1433.13,-255.879"/>
<polygon fill="black" stroke="black" points="1433.25,-259.379 1443.26,-255.907 1433.27,-252.379 1433.25,-259.379"/>
</g>
<!-- proc~wrap_json_value_get_by_name_chars&#45;&gt;proc~json_value_get_by_name_chars -->
<g id="edge12" class="edge"><title>proc~wrap_json_value_get_by_name_chars&#45;&gt;proc~json_value_get_by_name_chars</title>
<path fill="none" stroke="black" d="M842.894,-240.959C862.892,-237.382 884.718,-233.477 905.226,-229.808"/>
<polygon fill="black" stroke="black" points="905.947,-233.235 915.175,-228.028 904.715,-226.344 905.947,-233.235"/>
</g>
<!-- proc~wrap_json_throw_exception&#45;&gt;interface~to_unicode -->
<g id="edge32" class="edge"><title>proc~wrap_json_throw_exception&#45;&gt;interface~to_unicode</title>
<path fill="none" stroke="black" d="M1334.73,-184.095C1363.29,-198.633 1409.54,-222.175 1441.3,-238.336"/>
<polygon fill="black" stroke="black" points="1439.74,-241.473 1450.24,-242.89 1442.92,-235.235 1439.74,-241.473"/>
</g>
<!-- proc~wrap_json_throw_exception&#45;&gt;proc~json_throw_exception -->
<g id="edge30" class="edge"><title>proc~wrap_json_throw_exception&#45;&gt;proc~json_throw_exception</title>
<path fill="none" stroke="black" d="M1381.76,-162.286C1390.42,-161.249 1399.23,-160.194 1407.82,-159.166"/>
<polygon fill="black" stroke="black" points="1408.26,-162.638 1417.77,-157.973 1407.43,-155.687 1408.26,-162.638"/>
</g>
</g>
</svg>
