<?xml version="1.0" encoding="UTF-8" standalone="no"?>
<!DOCTYPE svg PUBLIC "-//W3C//DTD SVG 1.1//EN"
 "http://www.w3.org/Graphics/SVG/1.1/DTD/svg11.dtd">
<!-- Generated by graphviz version 2.26.3 (20100126.1600)
 -->
<!-- Title: proc~~parse_string~~CallsGraph Pages: 1 -->
<svg width="641pt" height="167pt"
 viewBox="0.00 0.00 641.00 166.74" xmlns="http://www.w3.org/2000/svg" xmlns:xlink="http://www.w3.org/1999/xlink">
<g id="graph1" class="graph" transform="scale(0.998442 0.998442) rotate(0) translate(4 163)">
<title>proc~~parse_string~~CallsGraph</title>
<polygon fill="white" stroke="white" points="-4,5 -4,-163 639,-163 639,5 -4,5"/>
<!-- proc~parse_string -->
<g id="node1" class="node"><title>proc~parse_string</title>
<polygon fill="none" stroke="black" points="72,-115 2.84217e-14,-115 0,-89 72,-89 72,-115"/>
<text text-anchor="middle" x="36" y="-99.55" font-family="Helvetica,sans-Serif" font-size="10.50">parse_string</text>
</g>
<!-- proc~pop_char -->
<g id="node2" class="node"><title>proc~pop_char</title>
<a xlink:href="../proc/pop_char.html" xlink:title="pop_char">
<polygon fill="#d94e8f" stroke="#d94e8f" points="183,-159 125,-159 125,-133 183,-133 183,-159"/>
<text text-anchor="middle" x="154" y="-143.55" font-family="Helvetica,sans-Serif" font-size="10.50" fill="white">pop_char</text>
</a>
</g>
<!-- proc~parse_string&#45;&gt;proc~pop_char -->
<g id="edge14" class="edge"><title>proc~parse_string&#45;&gt;proc~pop_char</title>
<path fill="none" stroke="black" d="M71.0844,-115.082C84.9943,-120.269 101.039,-126.252 115.287,-131.564"/>
<polygon fill="black" stroke="black" points="114.222,-134.903 124.815,-135.117 116.668,-128.344 114.222,-134.903"/>
</g>
<!-- proc~valid_json_hex -->
<g id="node3" class="node"><title>proc~valid_json_hex</title>
<a xlink:href="../proc/valid_json_hex.html" xlink:title="valid_json_hex">
<polygon fill="#d94e8f" stroke="#d94e8f" points="195,-115 113,-115 113,-89 195,-89 195,-115"/>
<text text-anchor="middle" x="154" y="-99.55" font-family="Helvetica,sans-Serif" font-size="10.50" fill="white">valid_json_hex</text>
</a>
</g>
<!-- proc~parse_string&#45;&gt;proc~valid_json_hex -->
<g id="edge16" class="edge"><title>proc~parse_string&#45;&gt;proc~valid_json_hex</title>
<path fill="none" stroke="black" d="M72.0451,-102C81.6016,-102 92.11,-102 102.321,-102"/>
<polygon fill="black" stroke="black" points="102.387,-105.5 112.387,-102 102.387,-98.5001 102.387,-105.5"/>
</g>
<!-- interface~throw_exception -->
<g id="node4" class="node"><title>interface~throw_exception</title>
<a xlink:href="../interface/throw_exception.html" xlink:title="throw_exception">
<polygon fill="#a7506f" stroke="#a7506f" points="199,-71 109,-71 109,-45 199,-45 199,-71"/>
<text text-anchor="middle" x="154" y="-55.55" font-family="Helvetica,sans-Serif" font-size="10.50" fill="white">throw_exception</text>
</a>
</g>
<!-- proc~parse_string&#45;&gt;interface~throw_exception -->
<g id="edge18" class="edge"><title>proc~parse_string&#45;&gt;interface~throw_exception</title>
<path fill="none" stroke="black" d="M71.0844,-88.9177C83.1027,-84.4363 96.7147,-79.3606 109.384,-74.6364"/>
<polygon fill="black" stroke="black" points="110.7,-77.8812 118.847,-71.1079 108.254,-71.3223 110.7,-77.8812"/>
</g>
<!-- proc~json_throw_exception -->
<g id="node5" class="node"><title>proc~json_throw_exception</title>
<a xlink:href="../proc/json_throw_exception.html" xlink:title="json_throw_exception">
<polygon fill="#d9534f" stroke="#d9534f" points="534,-92 418,-92 418,-66 534,-66 534,-92"/>
<text text-anchor="middle" x="476" y="-76.55" font-family="Helvetica,sans-Serif" font-size="10.50" fill="white">json_throw_exception</text>
</a>
</g>
<!-- interface~throw_exception&#45;&gt;proc~json_throw_exception -->
<g id="edge10" class="edge"><title>interface~throw_exception&#45;&gt;proc~json_throw_exception</title>
<path fill="none" stroke="black" stroke-dasharray="5,2" d="M199.793,-60.9865C254.069,-64.5262 345.029,-70.4584 407.647,-74.5422"/>
<polygon fill="black" stroke="black" points="407.623,-78.048 417.83,-75.2063 408.079,-71.0628 407.623,-78.048"/>
</g>
<!-- proc~wrap_json_throw_exception -->
<g id="node6" class="node"><title>proc~wrap_json_throw_exception</title>
<a xlink:href="../proc/wrap_json_throw_exception.html" xlink:title="wrap_json_throw_exception">
<polygon fill="#d9534f" stroke="#d9534f" points="381,-51 237,-51 237,-25 381,-25 381,-51"/>
<text text-anchor="middle" x="309" y="-35.55" font-family="Helvetica,sans-Serif" font-size="10.50" fill="white">wrap_json_throw_exception</text>
</a>
</g>
<!-- interface~throw_exception&#45;&gt;proc~wrap_json_throw_exception -->
<g id="edge12" class="edge"><title>interface~throw_exception&#45;&gt;proc~wrap_json_throw_exception</title>
<path fill="none" stroke="black" stroke-dasharray="5,2" d="M199.667,-52.1075C208.126,-51.0159 217.199,-49.8453 226.367,-48.6623"/>
<polygon fill="black" stroke="black" points="226.859,-52.1279 236.329,-47.3769 225.963,-45.1855 226.859,-52.1279"/>
</g>
<!-- proc~wrap_json_throw_exception&#45;&gt;proc~json_throw_exception -->
<g id="edge6" class="edge"><title>proc~wrap_json_throw_exception&#45;&gt;proc~json_throw_exception</title>
<path fill="none" stroke="black" d="M362.299,-51.0854C378.346,-55.0251 396.113,-59.3871 412.741,-63.4693"/>
<polygon fill="black" stroke="black" points="412.375,-66.9833 422.921,-65.9686 414.044,-60.1852 412.375,-66.9833"/>
</g>
<!-- interface~to_unicode -->
<g id="node7" class="node"><title>interface~to_unicode</title>
<a xlink:href="../interface/to_unicode.html" xlink:title="to_unicode">
<polygon fill="#a7506f" stroke="#a7506f" points="508,-48 444,-48 444,-22 508,-22 508,-48"/>
<text text-anchor="middle" x="476" y="-32.55" font-family="Helvetica,sans-Serif" font-size="10.50" fill="white">to_unicode</text>
</a>
</g>
<!-- proc~wrap_json_throw_exception&#45;&gt;interface~to_unicode -->
<g id="edge8" class="edge"><title>proc~wrap_json_throw_exception&#45;&gt;interface~to_unicode</title>
<path fill="none" stroke="black" d="M381.763,-36.6929C399.188,-36.3799 417.248,-36.0554 432.839,-35.7754"/>
<polygon fill="black" stroke="black" points="433.264,-39.2684 443.199,-35.5892 433.138,-32.2695 433.264,-39.2684"/>
</g>
<!-- proc~to_uni_vec -->
<g id="node8" class="node"><title>proc~to_uni_vec</title>
<a xlink:href="../proc/to_uni_vec.html" xlink:title="to_uni_vec">
<polygon fill="#d94e8f" stroke="#d94e8f" points="634,-70 570,-70 570,-44 634,-44 634,-70"/>
<text text-anchor="middle" x="602" y="-54.55" font-family="Helvetica,sans-Serif" font-size="10.50" fill="white">to_uni_vec</text>
</a>
</g>
<!-- interface~to_unicode&#45;&gt;proc~to_uni_vec -->
<g id="edge2" class="edge"><title>interface~to_unicode&#45;&gt;proc~to_uni_vec</title>
<path fill="none" stroke="black" stroke-dasharray="5,2" d="M508.776,-40.7228C524.355,-43.443 543.166,-46.7274 559.798,-49.6314"/>
<polygon fill="black" stroke="black" points="559.371,-53.1097 569.824,-51.382 560.575,-46.214 559.371,-53.1097"/>
</g>
<!-- proc~to_uni -->
<g id="node9" class="node"><title>proc~to_uni</title>
<a xlink:href="../proc/to_uni.html" xlink:title="to_uni">
<polygon fill="#d94e8f" stroke="#d94e8f" points="629,-26 575,-26 575,-1.24345e-14 629,-3.55271e-15 629,-26"/>
<text text-anchor="middle" x="602" y="-10.55" font-family="Helvetica,sans-Serif" font-size="10.50" fill="white">to_uni</text>
</a>
</g>
<!-- interface~to_unicode&#45;&gt;proc~to_uni -->
<g id="edge4" class="edge"><title>interface~to_unicode&#45;&gt;proc~to_uni</title>
<path fill="none" stroke="black" stroke-dasharray="5,2" d="M508.776,-29.2772C525.965,-26.276 547.088,-22.5878 564.878,-19.4816"/>
<polygon fill="black" stroke="black" points="565.664,-22.8974 574.913,-17.7295 564.46,-16.0017 565.664,-22.8974"/>
</g>
</g>
</svg>
