<?xml version="1.0" encoding="UTF-8" standalone="no"?>
<!DOCTYPE svg PUBLIC "-//W3C//DTD SVG 1.1//EN"
 "http://www.w3.org/Graphics/SVG/1.1/DTD/svg11.dtd">
<!-- Generated by graphviz version 2.26.3 (20100126.1600)
 -->
<!-- Title: proc~~add_variables_to_input~~CalledByGraph Pages: 1 -->
<svg width="312pt" height="34pt"
 viewBox="0.00 0.00 312.00 34.00" xmlns="http://www.w3.org/2000/svg" xmlns:xlink="http://www.w3.org/1999/xlink">
<g id="graph1" class="graph" transform="scale(1 1) rotate(0) translate(4 30)">
<title>proc~~add_variables_to_input~~CalledByGraph</title>
<polygon fill="white" stroke="white" points="-4,5 -4,-30 309,-30 309,5 -4,5"/>
<!-- proc~add_variables_to_input -->
<g id="node1" class="node"><title>proc~add_variables_to_input</title>
<polygon fill="none" stroke="black" points="304,-26 180,-26 180,-1.24345e-14 304,-3.55271e-15 304,-26"/>
<text text-anchor="middle" x="242" y="-10.55" font-family="Helvetica,sans-Serif" font-size="10.50">add_variables_to_input</text>
</g>
<!-- proc~test_2 -->
<g id="node2" class="node"><title>proc~test_2</title>
<a xlink:href="../proc/test_2.html" xlink:title="test_2">
<polygon fill="#d9534f" stroke="#d9534f" points="144,-26 90,-26 90,-1.24345e-14 144,-3.55271e-15 144,-26"/>
<text text-anchor="middle" x="117" y="-10.55" font-family="Helvetica,sans-Serif" font-size="10.50" fill="white">test_2</text>
</a>
</g>
<!-- proc~test_2&#45;&gt;proc~add_variables_to_input -->
<g id="edge4" class="edge"><title>proc~test_2&#45;&gt;proc~add_variables_to_input</title>
<path fill="none" stroke="black" d="M144.123,-13C151.792,-13 160.521,-13 169.533,-13"/>
<polygon fill="black" stroke="black" points="169.788,-16.5001 179.788,-13 169.787,-9.5001 169.788,-16.5001"/>
</g>
<!-- program~jf_test_2 -->
<g id="node3" class="node"><title>program~jf_test_2</title>
<a xlink:href="../program/jf_test_2.html" xlink:title="jf_test_2">
<polygon fill="#f0ad4e" stroke="#f0ad4e" points="54,-26 2.13163e-14,-26 0,-1.24345e-14 54,-3.55271e-15 54,-26"/>
<text text-anchor="middle" x="27" y="-10.55" font-family="Helvetica,sans-Serif" font-size="10.50" fill="white">jf_test_2</text>
</a>
</g>
<!-- program~jf_test_2&#45;&gt;proc~test_2 -->
<g id="edge2" class="edge"><title>program~jf_test_2&#45;&gt;proc~test_2</title>
<path fill="none" stroke="black" d="M54.003,-13C62.0277,-13 70.9665,-13 79.5309,-13"/>
<polygon fill="black" stroke="black" points="79.7051,-16.5001 89.705,-13 79.705,-9.5001 79.7051,-16.5001"/>
</g>
</g>
</svg>
