<?xml version="1.0" encoding="UTF-8" standalone="no"?>
<!DOCTYPE svg PUBLIC "-//W3C//DTD SVG 1.1//EN"
 "http://www.w3.org/Graphics/SVG/1.1/DTD/svg11.dtd">
<!-- Generated by graphviz version 2.26.3 (20100126.1600)
 -->
<!-- Title: proc~~wrap_json_value_create_logical~~CallsGraph Pages: 1 -->
<svg width="618pt" height="166pt"
 viewBox="0.00 0.00 618.00 166.00" xmlns="http://www.w3.org/2000/svg" xmlns:xlink="http://www.w3.org/1999/xlink">
<g id="graph1" class="graph" transform="scale(1 1) rotate(0) translate(4 162)">
<title>proc~~wrap_json_value_create_logical~~CallsGraph</title>
<polygon fill="white" stroke="white" points="-4,5 -4,-162 615,-162 615,5 -4,5"/>
<!-- proc~wrap_json_value_create_logical -->
<g id="node1" class="node"><title>proc~wrap_json_value_create_logical</title>
<polygon fill="none" stroke="black" points="165,-92 1,-92 1,-66 165,-66 165,-92"/>
<text text-anchor="middle" x="83" y="-76.55" font-family="Helvetica,sans-Serif" font-size="10.50">wrap_json_value_create_logical</text>
</g>
<!-- proc~json_value_create_logical -->
<g id="node2" class="node"><title>proc~json_value_create_logical</title>
<a xlink:href="../proc/json_value_create_logical.html" xlink:title="json_value_create_logical">
<polygon fill="#d9534f" stroke="#d9534f" points="338,-114 202,-114 202,-88 338,-88 338,-114"/>
<text text-anchor="middle" x="270" y="-98.55" font-family="Helvetica,sans-Serif" font-size="10.50" fill="white">json_value_create_logical</text>
</a>
</g>
<!-- proc~wrap_json_value_create_logical&#45;&gt;proc~json_value_create_logical -->
<g id="edge12" class="edge"><title>proc~wrap_json_value_create_logical&#45;&gt;proc~json_value_create_logical</title>
<path fill="none" stroke="black" d="M165.565,-88.7136C174.285,-89.7395 183.134,-90.7805 191.802,-91.8003"/>
<polygon fill="black" stroke="black" points="191.537,-95.2931 201.877,-92.9855 192.354,-88.341 191.537,-95.2931"/>
</g>
<!-- interface~to_unicode -->
<g id="node3" class="node"><title>interface~to_unicode</title>
<a xlink:href="../interface/to_unicode.html" xlink:title="to_unicode">
<polygon fill="#a7506f" stroke="#a7506f" points="302,-70 238,-70 238,-44 302,-44 302,-70"/>
<text text-anchor="middle" x="270" y="-54.55" font-family="Helvetica,sans-Serif" font-size="10.50" fill="white">to_unicode</text>
</a>
</g>
<!-- proc~wrap_json_value_create_logical&#45;&gt;interface~to_unicode -->
<g id="edge14" class="edge"><title>proc~wrap_json_value_create_logical&#45;&gt;interface~to_unicode</title>
<path fill="none" stroke="black" d="M165.565,-69.2864C186.93,-66.773 209.067,-64.1686 227.431,-62.0081"/>
<polygon fill="black" stroke="black" points="227.971,-65.4688 237.494,-60.8243 227.153,-58.5167 227.971,-65.4688"/>
</g>
<!-- proc~json_value_create -->
<g id="node4" class="node"><title>proc~json_value_create</title>
<a xlink:href="../proc/json_value_create.html" xlink:title="json_value_create">
<polygon fill="#d9534f" stroke="#d9534f" points="474,-158 374,-158 374,-132 474,-132 474,-158"/>
<text text-anchor="middle" x="424" y="-142.55" font-family="Helvetica,sans-Serif" font-size="10.50" fill="white">json_value_create</text>
</a>
</g>
<!-- proc~json_value_create_logical&#45;&gt;proc~json_value_create -->
<g id="edge4" class="edge"><title>proc~json_value_create_logical&#45;&gt;proc~json_value_create</title>
<path fill="none" stroke="black" d="M315.788,-114.082C332.316,-118.805 351.153,-124.187 368.427,-129.122"/>
<polygon fill="black" stroke="black" points="367.812,-132.586 378.388,-131.968 369.735,-125.855 367.812,-132.586"/>
</g>
<!-- proc~to_logical -->
<g id="node5" class="node"><title>proc~to_logical</title>
<a xlink:href="../proc/to_logical.html" xlink:title="to_logical">
<polygon fill="#d9534f" stroke="#d9534f" points="453,-114 395,-114 395,-88 453,-88 453,-114"/>
<text text-anchor="middle" x="424" y="-98.55" font-family="Helvetica,sans-Serif" font-size="10.50" fill="white">to_logical</text>
</a>
</g>
<!-- proc~json_value_create_logical&#45;&gt;proc~to_logical -->
<g id="edge6" class="edge"><title>proc~json_value_create_logical&#45;&gt;proc~to_logical</title>
<path fill="none" stroke="black" d="M338.443,-101C354.191,-101 370.422,-101 384.457,-101"/>
<polygon fill="black" stroke="black" points="384.718,-104.5 394.718,-101 384.718,-97.5001 384.718,-104.5"/>
</g>
<!-- proc~to_uni_vec -->
<g id="node10" class="node"><title>proc~to_uni_vec</title>
<a xlink:href="../proc/to_uni_vec.html" xlink:title="to_uni_vec">
<polygon fill="#d94e8f" stroke="#d94e8f" points="456,-70 392,-70 392,-44 456,-44 456,-70"/>
<text text-anchor="middle" x="424" y="-54.55" font-family="Helvetica,sans-Serif" font-size="10.50" fill="white">to_uni_vec</text>
</a>
</g>
<!-- interface~to_unicode&#45;&gt;proc~to_uni_vec -->
<g id="edge8" class="edge"><title>interface~to_unicode&#45;&gt;proc~to_uni_vec</title>
<path fill="none" stroke="black" stroke-dasharray="5,2" d="M302.659,-57C325.681,-57 356.726,-57 381.65,-57"/>
<polygon fill="black" stroke="black" points="381.916,-60.5001 391.916,-57 381.916,-53.5001 381.916,-60.5001"/>
</g>
<!-- proc~to_uni -->
<g id="node11" class="node"><title>proc~to_uni</title>
<a xlink:href="../proc/to_uni.html" xlink:title="to_uni">
<polygon fill="#d94e8f" stroke="#d94e8f" points="451,-26 397,-26 397,-1.24345e-14 451,-3.55271e-15 451,-26"/>
<text text-anchor="middle" x="424" y="-10.55" font-family="Helvetica,sans-Serif" font-size="10.50" fill="white">to_uni</text>
</a>
</g>
<!-- interface~to_unicode&#45;&gt;proc~to_uni -->
<g id="edge10" class="edge"><title>interface~to_unicode&#45;&gt;proc~to_uni</title>
<path fill="none" stroke="black" stroke-dasharray="5,2" d="M302.659,-47.6687C327.29,-40.6314 361.103,-30.9706 386.78,-23.6343"/>
<polygon fill="black" stroke="black" points="387.881,-26.9599 396.534,-20.8473 385.958,-20.2292 387.881,-26.9599"/>
</g>
<!-- proc~destroy_json_data -->
<g id="node6" class="node"><title>proc~destroy_json_data</title>
<a xlink:href="../proc/destroy_json_data.html" xlink:title="destroy_json_data">
<polygon fill="#d9534f" stroke="#d9534f" points="610,-114 510,-114 510,-88 610,-88 610,-114"/>
<text text-anchor="middle" x="560" y="-98.55" font-family="Helvetica,sans-Serif" font-size="10.50" fill="white">destroy_json_data</text>
</a>
</g>
<!-- proc~to_logical&#45;&gt;proc~destroy_json_data -->
<g id="edge2" class="edge"><title>proc~to_logical&#45;&gt;proc~destroy_json_data</title>
<path fill="none" stroke="black" d="M453.175,-101C466.878,-101 483.744,-101 499.992,-101"/>
<polygon fill="black" stroke="black" points="499.995,-104.5 509.995,-101 499.995,-97.5001 499.995,-104.5"/>
</g>
</g>
</svg>
