<?xml version="1.0" encoding="UTF-8" standalone="no"?>
<!DOCTYPE svg PUBLIC "-//W3C//DTD SVG 1.1//EN"
 "http://www.w3.org/Graphics/SVG/1.1/DTD/svg11.dtd">
<!-- Generated by graphviz version 2.26.3 (20100126.1600)
 -->
<!-- Title: proc~~to_logical~~CallsGraph Pages: 1 -->
<svg width="202pt" height="34pt"
 viewBox="0.00 0.00 202.00 34.00" xmlns="http://www.w3.org/2000/svg" xmlns:xlink="http://www.w3.org/1999/xlink">
<g id="graph1" class="graph" transform="scale(1 1) rotate(0) translate(4 30)">
<title>proc~~to_logical~~CallsGraph</title>
<polygon fill="white" stroke="white" points="-4,5 -4,-30 199,-30 199,5 -4,5"/>
<!-- proc~to_logical -->
<g id="node1" class="node"><title>proc~to_logical</title>
<polygon fill="none" stroke="black" points="58,-26 2.4869e-14,-26 0,-1.24345e-14 58,-3.55271e-15 58,-26"/>
<text text-anchor="middle" x="29" y="-10.55" font-family="Helvetica,sans-Serif" font-size="10.50">to_logical</text>
</g>
<!-- proc~destroy_json_data -->
<g id="node2" class="node"><title>proc~destroy_json_data</title>
<a xlink:href="../proc/destroy_json_data.html" xlink:title="destroy_json_data">
<polygon fill="#d9534f" stroke="#d9534f" points="194,-26 94,-26 94,-1.24345e-14 194,-3.55271e-15 194,-26"/>
<text text-anchor="middle" x="144" y="-10.55" font-family="Helvetica,sans-Serif" font-size="10.50" fill="white">destroy_json_data</text>
</a>
</g>
<!-- proc~to_logical&#45;&gt;proc~destroy_json_data -->
<g id="edge2" class="edge"><title>proc~to_logical&#45;&gt;proc~destroy_json_data</title>
<path fill="none" stroke="black" d="M58.0194,-13C65.9479,-13 74.8429,-13 83.8251,-13"/>
<polygon fill="black" stroke="black" points="83.9566,-16.5001 93.9566,-13 83.9565,-9.5001 83.9566,-16.5001"/>
</g>
</g>
</svg>
