<?xml version="1.0" encoding="UTF-8" standalone="no"?>
<!DOCTYPE svg PUBLIC "-//W3C//DTD SVG 1.1//EN"
 "http://www.w3.org/Graphics/SVG/1.1/DTD/svg11.dtd">
<!-- Generated by graphviz version 2.26.3 (20100126.1600)
 -->
<!-- Title: proc~~wrap_json_value_create_null~~CallsGraph Pages: 1 -->
<svg width="590pt" height="166pt"
 viewBox="0.00 0.00 590.00 166.00" xmlns="http://www.w3.org/2000/svg" xmlns:xlink="http://www.w3.org/1999/xlink">
<g id="graph1" class="graph" transform="scale(1 1) rotate(0) translate(4 162)">
<title>proc~~wrap_json_value_create_null~~CallsGraph</title>
<polygon fill="white" stroke="white" points="-4,5 -4,-162 587,-162 587,5 -4,5"/>
<!-- proc~wrap_json_value_create_null -->
<g id="node1" class="node"><title>proc~wrap_json_value_create_null</title>
<polygon fill="none" stroke="black" points="151,-92 1,-92 1,-66 151,-66 151,-92"/>
<text text-anchor="middle" x="76" y="-76.55" font-family="Helvetica,sans-Serif" font-size="10.50">wrap_json_value_create_null</text>
</g>
<!-- interface~to_unicode -->
<g id="node2" class="node"><title>interface~to_unicode</title>
<a xlink:href="../interface/to_unicode.html" xlink:title="to_unicode">
<polygon fill="#a7506f" stroke="#a7506f" points="281,-114 217,-114 217,-88 281,-88 281,-114"/>
<text text-anchor="middle" x="249" y="-98.55" font-family="Helvetica,sans-Serif" font-size="10.50" fill="white">to_unicode</text>
</a>
</g>
<!-- proc~wrap_json_value_create_null&#45;&gt;interface~to_unicode -->
<g id="edge12" class="edge"><title>proc~wrap_json_value_create_null&#45;&gt;interface~to_unicode</title>
<path fill="none" stroke="black" d="M151.629,-88.6175C170.275,-90.9887 189.605,-93.4469 206.081,-95.5421"/>
<polygon fill="black" stroke="black" points="206.098,-99.0723 216.459,-96.8619 206.981,-92.1282 206.098,-99.0723"/>
</g>
<!-- proc~json_value_create_null -->
<g id="node3" class="node"><title>proc~json_value_create_null</title>
<a xlink:href="../proc/json_value_create_null.html" xlink:title="json_value_create_null">
<polygon fill="#d9534f" stroke="#d9534f" points="310,-70 188,-70 188,-44 310,-44 310,-70"/>
<text text-anchor="middle" x="249" y="-54.55" font-family="Helvetica,sans-Serif" font-size="10.50" fill="white">json_value_create_null</text>
</a>
</g>
<!-- proc~wrap_json_value_create_null&#45;&gt;proc~json_value_create_null -->
<g id="edge14" class="edge"><title>proc~wrap_json_value_create_null&#45;&gt;proc~json_value_create_null</title>
<path fill="none" stroke="black" d="M151.629,-69.3825C160.32,-68.2772 169.16,-67.153 177.791,-66.0555"/>
<polygon fill="black" stroke="black" points="178.326,-69.5157 187.805,-64.7821 177.443,-62.5716 178.326,-69.5157"/>
</g>
<!-- proc~to_uni_vec -->
<g id="node4" class="node"><title>proc~to_uni_vec</title>
<a xlink:href="../proc/to_uni_vec.html" xlink:title="to_uni_vec">
<polygon fill="#d94e8f" stroke="#d94e8f" points="428,-158 364,-158 364,-132 428,-132 428,-158"/>
<text text-anchor="middle" x="396" y="-142.55" font-family="Helvetica,sans-Serif" font-size="10.50" fill="white">to_uni_vec</text>
</a>
</g>
<!-- interface~to_unicode&#45;&gt;proc~to_uni_vec -->
<g id="edge2" class="edge"><title>interface~to_unicode&#45;&gt;proc~to_uni_vec</title>
<path fill="none" stroke="black" stroke-dasharray="5,2" d="M281.624,-110.765C302.992,-117.161 331.117,-125.579 354.131,-132.468"/>
<polygon fill="black" stroke="black" points="353.389,-135.899 363.973,-135.414 355.396,-129.193 353.389,-135.899"/>
</g>
<!-- proc~to_uni -->
<g id="node5" class="node"><title>proc~to_uni</title>
<a xlink:href="../proc/to_uni.html" xlink:title="to_uni">
<polygon fill="#d94e8f" stroke="#d94e8f" points="423,-114 369,-114 369,-88 423,-88 423,-114"/>
<text text-anchor="middle" x="396" y="-98.55" font-family="Helvetica,sans-Serif" font-size="10.50" fill="white">to_uni</text>
</a>
</g>
<!-- interface~to_unicode&#45;&gt;proc~to_uni -->
<g id="edge4" class="edge"><title>interface~to_unicode&#45;&gt;proc~to_uni</title>
<path fill="none" stroke="black" stroke-dasharray="5,2" d="M281.624,-101C304.465,-101 335.029,-101 358.815,-101"/>
<polygon fill="black" stroke="black" points="358.883,-104.5 368.883,-101 358.883,-97.5001 358.883,-104.5"/>
</g>
<!-- proc~json_value_create -->
<g id="node8" class="node"><title>proc~json_value_create</title>
<a xlink:href="../proc/json_value_create.html" xlink:title="json_value_create">
<polygon fill="#d9534f" stroke="#d9534f" points="446,-70 346,-70 346,-44 446,-44 446,-70"/>
<text text-anchor="middle" x="396" y="-54.55" font-family="Helvetica,sans-Serif" font-size="10.50" fill="white">json_value_create</text>
</a>
</g>
<!-- proc~json_value_create_null&#45;&gt;proc~json_value_create -->
<g id="edge8" class="edge"><title>proc~json_value_create_null&#45;&gt;proc~json_value_create</title>
<path fill="none" stroke="black" d="M310.064,-57C318.476,-57 327.112,-57 335.514,-57"/>
<polygon fill="black" stroke="black" points="335.615,-60.5001 345.615,-57 335.615,-53.5001 335.615,-60.5001"/>
</g>
<!-- proc~to_null -->
<g id="node9" class="node"><title>proc~to_null</title>
<a xlink:href="../proc/to_null.html" xlink:title="to_null">
<polygon fill="#d9534f" stroke="#d9534f" points="423,-26 369,-26 369,-1.24345e-14 423,-3.55271e-15 423,-26"/>
<text text-anchor="middle" x="396" y="-10.55" font-family="Helvetica,sans-Serif" font-size="10.50" fill="white">to_null</text>
</a>
</g>
<!-- proc~json_value_create_null&#45;&gt;proc~to_null -->
<g id="edge10" class="edge"><title>proc~json_value_create_null&#45;&gt;proc~to_null</title>
<path fill="none" stroke="black" d="M292.707,-43.9177C313.848,-37.5898 338.947,-30.0771 359.11,-24.0419"/>
<polygon fill="black" stroke="black" points="360.288,-27.3429 368.864,-21.1224 358.28,-20.6369 360.288,-27.3429"/>
</g>
<!-- proc~destroy_json_data -->
<g id="node10" class="node"><title>proc~destroy_json_data</title>
<a xlink:href="../proc/destroy_json_data.html" xlink:title="destroy_json_data">
<polygon fill="#d9534f" stroke="#d9534f" points="582,-26 482,-26 482,-1.24345e-14 582,-3.55271e-15 582,-26"/>
<text text-anchor="middle" x="532" y="-10.55" font-family="Helvetica,sans-Serif" font-size="10.50" fill="white">destroy_json_data</text>
</a>
</g>
<!-- proc~to_null&#45;&gt;proc~destroy_json_data -->
<g id="edge6" class="edge"><title>proc~to_null&#45;&gt;proc~destroy_json_data</title>
<path fill="none" stroke="black" d="M423.195,-13C437.06,-13 454.518,-13 471.366,-13"/>
<polygon fill="black" stroke="black" points="471.739,-16.5001 481.739,-13 471.739,-9.5001 471.739,-16.5001"/>
</g>
</g>
</svg>
