<?xml version="1.0" encoding="UTF-8" standalone="no"?>
<!DOCTYPE svg PUBLIC "-//W3C//DTD SVG 1.1//EN"
 "http://www.w3.org/Graphics/SVG/1.1/DTD/svg11.dtd">
<!-- Generated by graphviz version 2.26.3 (20100126.1600)
 -->
<!-- Title: proc~~json_file_print_1~~CallsGraph Pages: 1 -->
<svg width="641pt" height="186pt"
 viewBox="0.00 0.00 641.00 186.15" xmlns="http://www.w3.org/2000/svg" xmlns:xlink="http://www.w3.org/1999/xlink">
<g id="graph1" class="graph" transform="scale(0.809343 0.809343) rotate(0) translate(4 226)">
<title>proc~~json_file_print_1~~CallsGraph</title>
<polygon fill="white" stroke="white" points="-4,5 -4,-226 789,-226 789,5 -4,5"/>
<!-- proc~json_file_print_1 -->
<g id="node1" class="node"><title>proc~json_file_print_1</title>
<polygon fill="none" stroke="black" points="91,-157 1,-157 1,-131 91,-131 91,-157"/>
<text text-anchor="middle" x="46" y="-141.55" font-family="Helvetica,sans-Serif" font-size="10.50">json_file_print_1</text>
</g>
<!-- interface~throw_exception -->
<g id="node2" class="node"><title>interface~throw_exception</title>
<a xlink:href="../interface/throw_exception.html" xlink:title="throw_exception">
<polygon fill="#a7506f" stroke="#a7506f" points="348,-202 258,-202 258,-176 348,-176 348,-202"/>
<text text-anchor="middle" x="303" y="-186.55" font-family="Helvetica,sans-Serif" font-size="10.50" fill="white">throw_exception</text>
</a>
</g>
<!-- proc~json_file_print_1&#45;&gt;interface~throw_exception -->
<g id="edge28" class="edge"><title>proc~json_file_print_1&#45;&gt;interface~throw_exception</title>
<path fill="none" stroke="black" d="M91.6503,-151.993C135.19,-159.617 200.851,-171.114 247.417,-179.268"/>
<polygon fill="black" stroke="black" points="246.889,-182.728 257.343,-181.006 248.096,-175.833 246.889,-182.728"/>
</g>
<!-- proc~json_value_print -->
<g id="node3" class="node"><title>proc~json_value_print</title>
<a xlink:href="../proc/json_value_print.html" xlink:title="json_value_print">
<polygon fill="#d9534f" stroke="#d9534f" points="219,-121 129,-121 129,-95 219,-95 219,-121"/>
<text text-anchor="middle" x="174" y="-105.55" font-family="Helvetica,sans-Serif" font-size="10.50" fill="white">json_value_print</text>
</a>
</g>
<!-- proc~json_file_print_1&#45;&gt;proc~json_value_print -->
<g id="edge30" class="edge"><title>proc~json_file_print_1&#45;&gt;proc~json_value_print</title>
<path fill="none" stroke="black" d="M91.8494,-131.105C100.594,-128.645 109.832,-126.047 118.832,-123.516"/>
<polygon fill="black" stroke="black" points="119.792,-126.882 128.471,-120.805 117.897,-120.143 119.792,-126.882"/>
</g>
<!-- proc~json_throw_exception -->
<g id="node4" class="node"><title>proc~json_throw_exception</title>
<a xlink:href="../proc/json_throw_exception.html" xlink:title="json_throw_exception">
<polygon fill="#d9534f" stroke="#d9534f" points="684,-222 568,-222 568,-196 684,-196 684,-222"/>
<text text-anchor="middle" x="626" y="-206.55" font-family="Helvetica,sans-Serif" font-size="10.50" fill="white">json_throw_exception</text>
</a>
</g>
<!-- interface~throw_exception&#45;&gt;proc~json_throw_exception -->
<g id="edge10" class="edge"><title>interface~throw_exception&#45;&gt;proc~json_throw_exception</title>
<path fill="none" stroke="black" stroke-dasharray="5,2" d="M348.593,-191.823C403.035,-195.194 494.618,-200.865 557.566,-204.763"/>
<polygon fill="black" stroke="black" points="557.604,-208.272 567.802,-205.396 558.037,-201.285 557.604,-208.272"/>
</g>
<!-- proc~wrap_json_throw_exception -->
<g id="node5" class="node"><title>proc~wrap_json_throw_exception</title>
<a xlink:href="../proc/wrap_json_throw_exception.html" xlink:title="wrap_json_throw_exception">
<polygon fill="#d9534f" stroke="#d9534f" points="531,-181 387,-181 387,-155 531,-155 531,-181"/>
<text text-anchor="middle" x="459" y="-165.55" font-family="Helvetica,sans-Serif" font-size="10.50" fill="white">wrap_json_throw_exception</text>
</a>
</g>
<!-- interface~throw_exception&#45;&gt;proc~wrap_json_throw_exception -->
<g id="edge12" class="edge"><title>interface~throw_exception&#45;&gt;proc~wrap_json_throw_exception</title>
<path fill="none" stroke="black" stroke-dasharray="5,2" d="M348.541,-182.869C357.352,-181.683 366.835,-180.407 376.41,-179.118"/>
<polygon fill="black" stroke="black" points="376.955,-182.576 386.398,-177.773 376.021,-175.639 376.955,-182.576"/>
</g>
<!-- proc~json_value_print&#45;&gt;interface~throw_exception -->
<g id="edge22" class="edge"><title>proc~json_value_print&#45;&gt;interface~throw_exception</title>
<path fill="none" stroke="black" d="M190.343,-121.152C206.467,-133.787 232.102,-152.974 256,-167 258.477,-168.454 261.065,-169.886 263.699,-171.281"/>
<polygon fill="black" stroke="black" points="262.232,-174.461 272.735,-175.849 265.39,-168.214 262.232,-174.461"/>
</g>
<!-- proc~json_value_print&#45;&gt;proc~json_value_print -->
<g id="edge26" class="edge"><title>proc~json_value_print&#45;&gt;proc~json_value_print</title>
<path fill="none" stroke="black" d="M152.344,-121.06C145.781,-130.1 153,-139 174,-139 186.797,-139 194.476,-135.695 197.038,-131.067"/>
<polygon fill="black" stroke="black" points="200.491,-130.487 195.656,-121.06 193.557,-131.445 200.491,-130.487"/>
</g>
<!-- none~write_it -->
<g id="node15" class="node"><title>none~write_it</title>
<polygon fill="#d9534f" stroke="#d9534f" points="330,-158 276,-158 276,-132 330,-132 330,-158"/>
<text text-anchor="middle" x="303" y="-142.55" font-family="Helvetica,sans-Serif" font-size="10.50" fill="white">write_it</text>
</g>
<!-- proc~json_value_print&#45;&gt;none~write_it -->
<g id="edge16" class="edge"><title>proc~json_value_print&#45;&gt;none~write_it</title>
<path fill="none" stroke="black" d="M219.481,-121.045C234.804,-125.44 251.701,-130.286 266.264,-134.463"/>
<polygon fill="black" stroke="black" points="265.348,-137.842 275.925,-137.234 267.278,-131.113 265.348,-137.842"/>
</g>
<!-- proc~real_to_string -->
<g id="node16" class="node"><title>proc~real_to_string</title>
<a xlink:href="../proc/real_to_string.html" xlink:title="real_to_string">
<polygon fill="#d9534f" stroke="#d9534f" points="342,-114 264,-114 264,-88 342,-88 342,-114"/>
<text text-anchor="middle" x="303" y="-98.55" font-family="Helvetica,sans-Serif" font-size="10.50" fill="white">real_to_string</text>
</a>
</g>
<!-- proc~json_value_print&#45;&gt;proc~real_to_string -->
<g id="edge18" class="edge"><title>proc~json_value_print&#45;&gt;proc~real_to_string</title>
<path fill="none" stroke="black" d="M219.844,-105.512C230.822,-104.917 242.589,-104.278 253.716,-103.674"/>
<polygon fill="black" stroke="black" points="253.917,-107.169 263.713,-103.132 253.538,-100.179 253.917,-107.169"/>
</g>
<!-- proc~json_count -->
<g id="node17" class="node"><title>proc~json_count</title>
<a xlink:href="../proc/json_count.html" xlink:title="json_count">
<polygon fill="#d94e8f" stroke="#d94e8f" points="335,-70 271,-70 271,-44 335,-44 335,-70"/>
<text text-anchor="middle" x="303" y="-54.55" font-family="Helvetica,sans-Serif" font-size="10.50" fill="white">json_count</text>
</a>
</g>
<!-- proc~json_value_print&#45;&gt;proc~json_count -->
<g id="edge20" class="edge"><title>proc~json_value_print&#45;&gt;proc~json_count</title>
<path fill="none" stroke="black" d="M206.886,-94.9986C223.388,-88.4746 243.557,-80.5006 261.151,-73.5449"/>
<polygon fill="black" stroke="black" points="262.608,-76.7326 270.621,-69.8011 260.034,-70.2228 262.608,-76.7326"/>
</g>
<!-- proc~integer_to_string -->
<g id="node18" class="node"><title>proc~integer_to_string</title>
<a xlink:href="../proc/integer_to_string.html" xlink:title="integer_to_string">
<polygon fill="#d9534f" stroke="#d9534f" points="349,-26 257,-26 257,-1.24345e-14 349,-3.55271e-15 349,-26"/>
<text text-anchor="middle" x="303" y="-10.55" font-family="Helvetica,sans-Serif" font-size="10.50" fill="white">integer_to_string</text>
</a>
</g>
<!-- proc~json_value_print&#45;&gt;proc~integer_to_string -->
<g id="edge24" class="edge"><title>proc~json_value_print&#45;&gt;proc~integer_to_string</title>
<path fill="none" stroke="black" d="M186.384,-94.8558C201.661,-79.1693 228.943,-52.8274 256,-35 258.106,-33.6121 260.314,-32.2646 262.576,-30.9652"/>
<polygon fill="black" stroke="black" points="264.302,-34.0118 271.469,-26.209 261,-27.8392 264.302,-34.0118"/>
</g>
<!-- proc~wrap_json_throw_exception&#45;&gt;proc~json_throw_exception -->
<g id="edge6" class="edge"><title>proc~wrap_json_throw_exception&#45;&gt;proc~json_throw_exception</title>
<path fill="none" stroke="black" d="M512.299,-181.085C528.346,-185.025 546.113,-189.387 562.741,-193.469"/>
<polygon fill="black" stroke="black" points="562.375,-196.983 572.921,-195.969 564.044,-190.185 562.375,-196.983"/>
</g>
<!-- interface~to_unicode -->
<g id="node6" class="node"><title>interface~to_unicode</title>
<a xlink:href="../interface/to_unicode.html" xlink:title="to_unicode">
<polygon fill="#a7506f" stroke="#a7506f" points="658,-178 594,-178 594,-152 658,-152 658,-178"/>
<text text-anchor="middle" x="626" y="-162.55" font-family="Helvetica,sans-Serif" font-size="10.50" fill="white">to_unicode</text>
</a>
</g>
<!-- proc~wrap_json_throw_exception&#45;&gt;interface~to_unicode -->
<g id="edge8" class="edge"><title>proc~wrap_json_throw_exception&#45;&gt;interface~to_unicode</title>
<path fill="none" stroke="black" d="M531.763,-166.693C549.188,-166.38 567.248,-166.055 582.839,-165.775"/>
<polygon fill="black" stroke="black" points="583.264,-169.268 593.199,-165.589 583.138,-162.27 583.264,-169.268"/>
</g>
<!-- proc~to_uni_vec -->
<g id="node7" class="node"><title>proc~to_uni_vec</title>
<a xlink:href="../proc/to_uni_vec.html" xlink:title="to_uni_vec">
<polygon fill="#d94e8f" stroke="#d94e8f" points="784,-200 720,-200 720,-174 784,-174 784,-200"/>
<text text-anchor="middle" x="752" y="-184.55" font-family="Helvetica,sans-Serif" font-size="10.50" fill="white">to_uni_vec</text>
</a>
</g>
<!-- interface~to_unicode&#45;&gt;proc~to_uni_vec -->
<g id="edge2" class="edge"><title>interface~to_unicode&#45;&gt;proc~to_uni_vec</title>
<path fill="none" stroke="black" stroke-dasharray="5,2" d="M658.776,-170.723C674.355,-173.443 693.166,-176.727 709.798,-179.631"/>
<polygon fill="black" stroke="black" points="709.371,-183.11 719.824,-181.382 710.575,-176.214 709.371,-183.11"/>
</g>
<!-- proc~to_uni -->
<g id="node8" class="node"><title>proc~to_uni</title>
<a xlink:href="../proc/to_uni.html" xlink:title="to_uni">
<polygon fill="#d94e8f" stroke="#d94e8f" points="779,-156 725,-156 725,-130 779,-130 779,-156"/>
<text text-anchor="middle" x="752" y="-140.55" font-family="Helvetica,sans-Serif" font-size="10.50" fill="white">to_uni</text>
</a>
</g>
<!-- interface~to_unicode&#45;&gt;proc~to_uni -->
<g id="edge4" class="edge"><title>interface~to_unicode&#45;&gt;proc~to_uni</title>
<path fill="none" stroke="black" stroke-dasharray="5,2" d="M658.776,-159.277C675.965,-156.276 697.088,-152.588 714.878,-149.482"/>
<polygon fill="black" stroke="black" points="715.664,-152.897 724.913,-147.729 714.46,-146.002 715.664,-152.897"/>
</g>
<!-- proc~compact_real_string -->
<g id="node19" class="node"><title>proc~compact_real_string</title>
<a xlink:href="../proc/compact_real_string.html" xlink:title="compact_real_string">
<polygon fill="#d9534f" stroke="#d9534f" points="513,-114 405,-114 405,-88 513,-88 513,-114"/>
<text text-anchor="middle" x="459" y="-98.55" font-family="Helvetica,sans-Serif" font-size="10.50" fill="white">compact_real_string</text>
</a>
</g>
<!-- proc~real_to_string&#45;&gt;proc~compact_real_string -->
<g id="edge14" class="edge"><title>proc~real_to_string&#45;&gt;proc~compact_real_string</title>
<path fill="none" stroke="black" d="M342.365,-101C358.06,-101 376.545,-101 394.117,-101"/>
<polygon fill="black" stroke="black" points="394.329,-104.5 404.329,-101 394.329,-97.5001 394.329,-104.5"/>
</g>
</g>
</svg>
