<?xml version="1.0" encoding="UTF-8" standalone="no"?>
<!DOCTYPE svg PUBLIC "-//W3C//DTD SVG 1.1//EN"
 "http://www.w3.org/Graphics/SVG/1.1/DTD/svg11.dtd">
<!-- Generated by graphviz version 2.26.3 (20100126.1600)
 -->
<!-- Title: proc~~json_value_create_null~~CalledByGraph Pages: 1 -->
<svg width="632pt" height="54pt"
 viewBox="0.00 0.00 632.00 54.00" xmlns="http://www.w3.org/2000/svg" xmlns:xlink="http://www.w3.org/1999/xlink">
<g id="graph1" class="graph" transform="scale(1 1) rotate(0) translate(4 50)">
<title>proc~~json_value_create_null~~CalledByGraph</title>
<polygon fill="white" stroke="white" points="-4,5 -4,-50 629,-50 629,5 -4,5"/>
<!-- proc~json_value_create_null -->
<g id="node1" class="node"><title>proc~json_value_create_null</title>
<polygon fill="none" stroke="black" points="624,-46 502,-46 502,-20 624,-20 624,-46"/>
<text text-anchor="middle" x="563" y="-30.55" font-family="Helvetica,sans-Serif" font-size="10.50">json_value_create_null</text>
</g>
<!-- proc~wrap_json_value_create_null -->
<g id="node2" class="node"><title>proc~wrap_json_value_create_null</title>
<a xlink:href="../proc/wrap_json_value_create_null.html" xlink:title="wrap_json_value_create_null">
<polygon fill="#d9534f" stroke="#d9534f" points="465,-26 315,-26 315,-1.24345e-14 465,-3.55271e-15 465,-26"/>
<text text-anchor="middle" x="390" y="-10.55" font-family="Helvetica,sans-Serif" font-size="10.50" fill="white">wrap_json_value_create_null</text>
</a>
</g>
<!-- proc~wrap_json_value_create_null&#45;&gt;proc~json_value_create_null -->
<g id="edge8" class="edge"><title>proc~wrap_json_value_create_null&#45;&gt;proc~json_value_create_null</title>
<path fill="none" stroke="black" d="M465.629,-21.7432C474.32,-22.748 483.16,-23.77 491.791,-24.7677"/>
<polygon fill="black" stroke="black" points="491.469,-28.2537 501.805,-25.9254 492.273,-21.3 491.469,-28.2537"/>
</g>
<!-- interface~json_create_null -->
<g id="node3" class="node"><title>interface~json_create_null</title>
<a xlink:href="../interface/json_create_null.html" xlink:title="json_create_null">
<polygon fill="#a7506f" stroke="#a7506f" points="277,-46 187,-46 187,-20 277,-20 277,-46"/>
<text text-anchor="middle" x="232" y="-30.55" font-family="Helvetica,sans-Serif" font-size="10.50" fill="white">json_create_null</text>
</a>
</g>
<!-- interface~json_create_null&#45;&gt;proc~json_value_create_null -->
<g id="edge10" class="edge"><title>interface~json_create_null&#45;&gt;proc~json_value_create_null</title>
<path fill="none" stroke="black" stroke-dasharray="5,2" d="M277.538,-34.3082C289.407,-34.595 302.181,-34.8559 314,-35 381.551,-35.8237 398.448,-35.6963 466,-35 474.353,-34.9139 483.11,-34.7861 491.801,-34.636"/>
<polygon fill="black" stroke="black" points="492.011,-38.1328 501.945,-34.4507 491.883,-31.134 492.011,-38.1328"/>
</g>
<!-- interface~json_create_null&#45;&gt;proc~wrap_json_value_create_null -->
<g id="edge6" class="edge"><title>interface~json_create_null&#45;&gt;proc~wrap_json_value_create_null</title>
<path fill="none" stroke="black" stroke-dasharray="5,2" d="M277.7,-27.2152C286.133,-26.1477 295.186,-25.0017 304.36,-23.8406"/>
<polygon fill="black" stroke="black" points="304.856,-27.3058 314.337,-22.5776 303.977,-20.3612 304.856,-27.3058"/>
</g>
<!-- proc~test_10 -->
<g id="node4" class="node"><title>proc~test_10</title>
<a xlink:href="../proc/test_10.html" xlink:title="test_10">
<polygon fill="#d9534f" stroke="#d9534f" points="150,-46 96,-46 96,-20 150,-20 150,-46"/>
<text text-anchor="middle" x="123" y="-30.55" font-family="Helvetica,sans-Serif" font-size="10.50" fill="white">test_10</text>
</a>
</g>
<!-- proc~test_10&#45;&gt;interface~json_create_null -->
<g id="edge4" class="edge"><title>proc~test_10&#45;&gt;interface~json_create_null</title>
<path fill="none" stroke="black" d="M150.224,-33C158.196,-33 167.217,-33 176.282,-33"/>
<polygon fill="black" stroke="black" points="176.483,-36.5001 186.483,-33 176.483,-29.5001 176.483,-36.5001"/>
</g>
<!-- program~jf_test_10 -->
<g id="node5" class="node"><title>program~jf_test_10</title>
<a xlink:href="../program/jf_test_10.html" xlink:title="jf_test_10">
<polygon fill="#f0ad4e" stroke="#f0ad4e" points="59,-46 1,-46 1,-20 59,-20 59,-46"/>
<text text-anchor="middle" x="30" y="-30.55" font-family="Helvetica,sans-Serif" font-size="10.50" fill="white">jf_test_10</text>
</a>
</g>
<!-- program~jf_test_10&#45;&gt;proc~test_10 -->
<g id="edge2" class="edge"><title>program~jf_test_10&#45;&gt;proc~test_10</title>
<path fill="none" stroke="black" d="M59.6815,-33C67.9202,-33 76.973,-33 85.5921,-33"/>
<polygon fill="black" stroke="black" points="85.8066,-36.5001 95.8065,-33 85.8065,-29.5001 85.8066,-36.5001"/>
</g>
</g>
</svg>
