<?xml version="1.0" encoding="UTF-8" standalone="no"?>
<!DOCTYPE svg PUBLIC "-//W3C//DTD SVG 1.1//EN"
 "http://www.w3.org/Graphics/SVG/1.1/DTD/svg11.dtd">
<!-- Generated by graphviz version 2.26.3 (20100126.1600)
 -->
<!-- Title: proc~~ucs4_comp_default~~CallsGraph Pages: 1 -->
<svg width="316pt" height="78pt"
 viewBox="0.00 0.00 316.00 78.00" xmlns="http://www.w3.org/2000/svg" xmlns:xlink="http://www.w3.org/1999/xlink">
<g id="graph1" class="graph" transform="scale(1 1) rotate(0) translate(4 74)">
<title>proc~~ucs4_comp_default~~CallsGraph</title>
<polygon fill="white" stroke="white" points="-4,5 -4,-74 313,-74 313,5 -4,5"/>
<!-- proc~ucs4_comp_default -->
<g id="node1" class="node"><title>proc~ucs4_comp_default</title>
<polygon fill="none" stroke="black" points="106,-48 3.55271e-14,-48 0,-22 106,-22 106,-48"/>
<text text-anchor="middle" x="53" y="-32.55" font-family="Helvetica,sans-Serif" font-size="10.50">ucs4_comp_default</text>
</g>
<!-- interface~to_unicode -->
<g id="node2" class="node"><title>interface~to_unicode</title>
<a xlink:href="../interface/to_unicode.html" xlink:title="to_unicode">
<polygon fill="#a7506f" stroke="#a7506f" points="207,-48 143,-48 143,-22 207,-22 207,-48"/>
<text text-anchor="middle" x="175" y="-32.55" font-family="Helvetica,sans-Serif" font-size="10.50" fill="white">to_unicode</text>
</a>
</g>
<!-- proc~ucs4_comp_default&#45;&gt;interface~to_unicode -->
<g id="edge6" class="edge"><title>proc~ucs4_comp_default&#45;&gt;interface~to_unicode</title>
<path fill="none" stroke="black" d="M106.156,-35C114.921,-35 123.906,-35 132.37,-35"/>
<polygon fill="black" stroke="black" points="132.386,-38.5001 142.386,-35 132.386,-31.5001 132.386,-38.5001"/>
</g>
<!-- proc~to_uni_vec -->
<g id="node3" class="node"><title>proc~to_uni_vec</title>
<a xlink:href="../proc/to_uni_vec.html" xlink:title="to_uni_vec">
<polygon fill="#d94e8f" stroke="#d94e8f" points="308,-70 244,-70 244,-44 308,-44 308,-70"/>
<text text-anchor="middle" x="276" y="-54.55" font-family="Helvetica,sans-Serif" font-size="10.50" fill="white">to_uni_vec</text>
</a>
</g>
<!-- interface~to_unicode&#45;&gt;proc~to_uni_vec -->
<g id="edge2" class="edge"><title>interface~to_unicode&#45;&gt;proc~to_uni_vec</title>
<path fill="none" stroke="black" stroke-dasharray="5,2" d="M207.513,-42.082C215.977,-43.9256 225.215,-45.938 234.09,-47.871"/>
<polygon fill="black" stroke="black" points="233.378,-51.2979 243.893,-50.0065 234.867,-44.4583 233.378,-51.2979"/>
</g>
<!-- proc~to_uni -->
<g id="node4" class="node"><title>proc~to_uni</title>
<a xlink:href="../proc/to_uni.html" xlink:title="to_uni">
<polygon fill="#d94e8f" stroke="#d94e8f" points="303,-26 249,-26 249,-1.24345e-14 303,-3.55271e-15 303,-26"/>
<text text-anchor="middle" x="276" y="-10.55" font-family="Helvetica,sans-Serif" font-size="10.50" fill="white">to_uni</text>
</a>
</g>
<!-- interface~to_unicode&#45;&gt;proc~to_uni -->
<g id="edge4" class="edge"><title>interface~to_unicode&#45;&gt;proc~to_uni</title>
<path fill="none" stroke="black" stroke-dasharray="5,2" d="M207.513,-27.918C217.547,-25.7323 228.671,-23.3093 238.985,-21.0627"/>
<polygon fill="black" stroke="black" points="239.933,-24.4384 248.959,-18.8902 238.443,-17.5988 239.933,-24.4384"/>
</g>
</g>
</svg>
