<?xml version="1.0" encoding="UTF-8" standalone="no"?>
<!DOCTYPE svg PUBLIC "-//W3C//DTD SVG 1.1//EN"
 "http://www.w3.org/Graphics/SVG/1.1/DTD/svg11.dtd">
<!-- Generated by graphviz version 2.26.3 (20100126.1600)
 -->
<!-- Title: proc~~wrap_json_value_create_array~~CallsGraph Pages: 1 -->
<svg width="606pt" height="166pt"
 viewBox="0.00 0.00 606.00 166.00" xmlns="http://www.w3.org/2000/svg" xmlns:xlink="http://www.w3.org/1999/xlink">
<g id="graph1" class="graph" transform="scale(1 1) rotate(0) translate(4 162)">
<title>proc~~wrap_json_value_create_array~~CallsGraph</title>
<polygon fill="white" stroke="white" points="-4,5 -4,-162 603,-162 603,5 -4,5"/>
<!-- proc~wrap_json_value_create_array -->
<g id="node1" class="node"><title>proc~wrap_json_value_create_array</title>
<polygon fill="none" stroke="black" points="160,-92 7.10543e-14,-92 0,-66 160,-66 160,-92"/>
<text text-anchor="middle" x="80" y="-76.55" font-family="Helvetica,sans-Serif" font-size="10.50">wrap_json_value_create_array</text>
</g>
<!-- interface~to_unicode -->
<g id="node2" class="node"><title>interface~to_unicode</title>
<a xlink:href="../interface/to_unicode.html" xlink:title="to_unicode">
<polygon fill="#a7506f" stroke="#a7506f" points="293,-114 229,-114 229,-88 293,-88 293,-114"/>
<text text-anchor="middle" x="261" y="-98.55" font-family="Helvetica,sans-Serif" font-size="10.50" fill="white">to_unicode</text>
</a>
</g>
<!-- proc~wrap_json_value_create_array&#45;&gt;interface~to_unicode -->
<g id="edge12" class="edge"><title>proc~wrap_json_value_create_array&#45;&gt;interface~to_unicode</title>
<path fill="none" stroke="black" d="M160.18,-88.7456C180.07,-91.1632 200.633,-93.6626 217.96,-95.7686"/>
<polygon fill="black" stroke="black" points="217.946,-99.2926 228.295,-97.0248 218.791,-92.3437 217.946,-99.2926"/>
</g>
<!-- proc~json_value_create_array -->
<g id="node3" class="node"><title>proc~json_value_create_array</title>
<a xlink:href="../proc/json_value_create_array.html" xlink:title="json_value_create_array">
<polygon fill="#d9534f" stroke="#d9534f" points="326,-70 196,-70 196,-44 326,-44 326,-70"/>
<text text-anchor="middle" x="261" y="-54.55" font-family="Helvetica,sans-Serif" font-size="10.50" fill="white">json_value_create_array</text>
</a>
</g>
<!-- proc~wrap_json_value_create_array&#45;&gt;proc~json_value_create_array -->
<g id="edge14" class="edge"><title>proc~wrap_json_value_create_array&#45;&gt;proc~json_value_create_array</title>
<path fill="none" stroke="black" d="M160.18,-69.2544C168.65,-68.2249 177.243,-67.1804 185.655,-66.1579"/>
<polygon fill="black" stroke="black" points="186.303,-69.605 195.808,-64.9239 185.458,-62.6562 186.303,-69.605"/>
</g>
<!-- proc~to_uni_vec -->
<g id="node4" class="node"><title>proc~to_uni_vec</title>
<a xlink:href="../proc/to_uni_vec.html" xlink:title="to_uni_vec">
<polygon fill="#d94e8f" stroke="#d94e8f" points="444,-158 380,-158 380,-132 444,-132 444,-158"/>
<text text-anchor="middle" x="412" y="-142.55" font-family="Helvetica,sans-Serif" font-size="10.50" fill="white">to_uni_vec</text>
</a>
</g>
<!-- interface~to_unicode&#45;&gt;proc~to_uni_vec -->
<g id="edge2" class="edge"><title>interface~to_unicode&#45;&gt;proc~to_uni_vec</title>
<path fill="none" stroke="black" stroke-dasharray="5,2" d="M293.765,-110.547C316.178,-117.078 346.083,-125.792 370.21,-132.823"/>
<polygon fill="black" stroke="black" points="369.238,-136.185 379.818,-135.622 371.196,-129.465 369.238,-136.185"/>
</g>
<!-- proc~to_uni -->
<g id="node5" class="node"><title>proc~to_uni</title>
<a xlink:href="../proc/to_uni.html" xlink:title="to_uni">
<polygon fill="#d94e8f" stroke="#d94e8f" points="439,-114 385,-114 385,-88 439,-88 439,-114"/>
<text text-anchor="middle" x="412" y="-98.55" font-family="Helvetica,sans-Serif" font-size="10.50" fill="white">to_uni</text>
</a>
</g>
<!-- interface~to_unicode&#45;&gt;proc~to_uni -->
<g id="edge4" class="edge"><title>interface~to_unicode&#45;&gt;proc~to_uni</title>
<path fill="none" stroke="black" stroke-dasharray="5,2" d="M293.765,-101C317.596,-101 349.898,-101 374.717,-101"/>
<polygon fill="black" stroke="black" points="374.849,-104.5 384.849,-101 374.849,-97.5001 374.849,-104.5"/>
</g>
<!-- proc~json_value_create -->
<g id="node8" class="node"><title>proc~json_value_create</title>
<a xlink:href="../proc/json_value_create.html" xlink:title="json_value_create">
<polygon fill="#d9534f" stroke="#d9534f" points="462,-70 362,-70 362,-44 462,-44 462,-70"/>
<text text-anchor="middle" x="412" y="-54.55" font-family="Helvetica,sans-Serif" font-size="10.50" fill="white">json_value_create</text>
</a>
</g>
<!-- proc~json_value_create_array&#45;&gt;proc~json_value_create -->
<g id="edge8" class="edge"><title>proc~json_value_create_array&#45;&gt;proc~json_value_create</title>
<path fill="none" stroke="black" d="M326.353,-57C334.647,-57 343.108,-57 351.325,-57"/>
<polygon fill="black" stroke="black" points="351.572,-60.5001 361.572,-57 351.572,-53.5001 351.572,-60.5001"/>
</g>
<!-- proc~to_array -->
<g id="node9" class="node"><title>proc~to_array</title>
<a xlink:href="../proc/to_array.html" xlink:title="to_array">
<polygon fill="#d9534f" stroke="#d9534f" points="439,-26 385,-26 385,-1.24345e-14 439,-3.55271e-15 439,-26"/>
<text text-anchor="middle" x="412" y="-10.55" font-family="Helvetica,sans-Serif" font-size="10.50" fill="white">to_array</text>
</a>
</g>
<!-- proc~json_value_create_array&#45;&gt;proc~to_array -->
<g id="edge10" class="edge"><title>proc~json_value_create_array&#45;&gt;proc~to_array</title>
<path fill="none" stroke="black" d="M305.896,-43.9177C327.861,-37.5174 353.985,-29.905 374.815,-23.8353"/>
<polygon fill="black" stroke="black" points="375.953,-27.1495 384.574,-20.9916 373.994,-20.429 375.953,-27.1495"/>
</g>
<!-- proc~destroy_json_data -->
<g id="node10" class="node"><title>proc~destroy_json_data</title>
<a xlink:href="../proc/destroy_json_data.html" xlink:title="destroy_json_data">
<polygon fill="#d9534f" stroke="#d9534f" points="598,-26 498,-26 498,-1.24345e-14 598,-3.55271e-15 598,-26"/>
<text text-anchor="middle" x="548" y="-10.55" font-family="Helvetica,sans-Serif" font-size="10.50" fill="white">destroy_json_data</text>
</a>
</g>
<!-- proc~to_array&#45;&gt;proc~destroy_json_data -->
<g id="edge6" class="edge"><title>proc~to_array&#45;&gt;proc~destroy_json_data</title>
<path fill="none" stroke="black" d="M439.195,-13C453.06,-13 470.518,-13 487.366,-13"/>
<polygon fill="black" stroke="black" points="487.739,-16.5001 497.739,-13 487.739,-9.5001 487.739,-16.5001"/>
</g>
</g>
</svg>
