<?xml version="1.0" encoding="UTF-8" standalone="no"?>
<!DOCTYPE svg PUBLIC "-//W3C//DTD SVG 1.1//EN"
 "http://www.w3.org/Graphics/SVG/1.1/DTD/svg11.dtd">
<!-- Generated by graphviz version 2.26.3 (20100126.1600)
 -->
<!-- Title: proc~~real_to_string~~CallsGraph Pages: 1 -->
<svg width="232pt" height="34pt"
 viewBox="0.00 0.00 232.00 34.00" xmlns="http://www.w3.org/2000/svg" xmlns:xlink="http://www.w3.org/1999/xlink">
<g id="graph1" class="graph" transform="scale(1 1) rotate(0) translate(4 30)">
<title>proc~~real_to_string~~CallsGraph</title>
<polygon fill="white" stroke="white" points="-4,5 -4,-30 229,-30 229,5 -4,5"/>
<!-- proc~real_to_string -->
<g id="node1" class="node"><title>proc~real_to_string</title>
<polygon fill="none" stroke="black" points="78,-26 3.55271e-14,-26 0,-1.24345e-14 78,-3.55271e-15 78,-26"/>
<text text-anchor="middle" x="39" y="-10.55" font-family="Helvetica,sans-Serif" font-size="10.50">real_to_string</text>
</g>
<!-- proc~compact_real_string -->
<g id="node2" class="node"><title>proc~compact_real_string</title>
<a xlink:href="../proc/compact_real_string.html" xlink:title="compact_real_string">
<polygon fill="#d9534f" stroke="#d9534f" points="223,-26 115,-26 115,-1.24345e-14 223,-3.55271e-15 223,-26"/>
<text text-anchor="middle" x="169" y="-10.55" font-family="Helvetica,sans-Serif" font-size="10.50" fill="white">compact_real_string</text>
</a>
</g>
<!-- proc~real_to_string&#45;&gt;proc~compact_real_string -->
<g id="edge2" class="edge"><title>proc~real_to_string&#45;&gt;proc~compact_real_string</title>
<path fill="none" stroke="black" d="M78.0043,-13C86.2639,-13 95.1939,-13 104.121,-13"/>
<polygon fill="black" stroke="black" points="104.163,-16.5001 114.163,-13 104.163,-9.5001 104.163,-16.5001"/>
</g>
</g>
</svg>
