<?xml version="1.0" encoding="UTF-8" standalone="no"?>
<!DOCTYPE svg PUBLIC "-//W3C//DTD SVG 1.1//EN"
 "http://www.w3.org/Graphics/SVG/1.1/DTD/svg11.dtd">
<!-- Generated by graphviz version 2.26.3 (20100126.1600)
 -->
<!-- Title: proc~~json_value_create_double~~CallsGraph Pages: 1 -->
<svg width="418pt" height="78pt"
 viewBox="0.00 0.00 418.00 78.00" xmlns="http://www.w3.org/2000/svg" xmlns:xlink="http://www.w3.org/1999/xlink">
<g id="graph1" class="graph" transform="scale(1 1) rotate(0) translate(4 74)">
<title>proc~~json_value_create_double~~CallsGraph</title>
<polygon fill="white" stroke="white" points="-4,5 -4,-74 415,-74 415,5 -4,5"/>
<!-- proc~json_value_create_double -->
<g id="node1" class="node"><title>proc~json_value_create_double</title>
<polygon fill="none" stroke="black" points="138,-48 7.10543e-14,-48 0,-22 138,-22 138,-48"/>
<text text-anchor="middle" x="69" y="-32.55" font-family="Helvetica,sans-Serif" font-size="10.50">json_value_create_double</text>
</g>
<!-- proc~json_value_create -->
<g id="node2" class="node"><title>proc~json_value_create</title>
<a xlink:href="../proc/json_value_create.html" xlink:title="json_value_create">
<polygon fill="#d9534f" stroke="#d9534f" points="274,-70 174,-70 174,-44 274,-44 274,-70"/>
<text text-anchor="middle" x="224" y="-54.55" font-family="Helvetica,sans-Serif" font-size="10.50" fill="white">json_value_create</text>
</a>
</g>
<!-- proc~json_value_create_double&#45;&gt;proc~json_value_create -->
<g id="edge4" class="edge"><title>proc~json_value_create_double&#45;&gt;proc~json_value_create</title>
<path fill="none" stroke="black" d="M138.34,-44.8418C146.821,-46.0455 155.434,-47.268 163.766,-48.4507"/>
<polygon fill="black" stroke="black" points="163.37,-51.9295 173.763,-49.8696 164.354,-44.999 163.37,-51.9295"/>
</g>
<!-- proc~to_double -->
<g id="node3" class="node"><title>proc~to_double</title>
<a xlink:href="../proc/to_double.html" xlink:title="to_double">
<polygon fill="#d9534f" stroke="#d9534f" points="254,-26 194,-26 194,-1.24345e-14 254,-3.55271e-15 254,-26"/>
<text text-anchor="middle" x="224" y="-10.55" font-family="Helvetica,sans-Serif" font-size="10.50" fill="white">to_double</text>
</a>
</g>
<!-- proc~json_value_create_double&#45;&gt;proc~to_double -->
<g id="edge6" class="edge"><title>proc~json_value_create_double&#45;&gt;proc~to_double</title>
<path fill="none" stroke="black" d="M138.34,-25.1582C153.884,-22.952 169.871,-20.6829 183.762,-18.7113"/>
<polygon fill="black" stroke="black" points="184.525,-22.1381 193.934,-17.2675 183.541,-15.2076 184.525,-22.1381"/>
</g>
<!-- proc~destroy_json_data -->
<g id="node4" class="node"><title>proc~destroy_json_data</title>
<a xlink:href="../proc/destroy_json_data.html" xlink:title="destroy_json_data">
<polygon fill="#d9534f" stroke="#d9534f" points="410,-26 310,-26 310,-1.24345e-14 410,-3.55271e-15 410,-26"/>
<text text-anchor="middle" x="360" y="-10.55" font-family="Helvetica,sans-Serif" font-size="10.50" fill="white">destroy_json_data</text>
</a>
</g>
<!-- proc~to_double&#45;&gt;proc~destroy_json_data -->
<g id="edge2" class="edge"><title>proc~to_double&#45;&gt;proc~destroy_json_data</title>
<path fill="none" stroke="black" d="M254.183,-13C267.599,-13 283.896,-13 299.639,-13"/>
<polygon fill="black" stroke="black" points="299.869,-16.5001 309.869,-13 299.869,-9.5001 299.869,-16.5001"/>
</g>
</g>
</svg>
