<?xml version="1.0" encoding="UTF-8" standalone="no"?>
<!DOCTYPE svg PUBLIC "-//W3C//DTD SVG 1.1//EN"
 "http://www.w3.org/Graphics/SVG/1.1/DTD/svg11.dtd">
<!-- Generated by graphviz version 2.26.3 (20100126.1600)
 -->
<!-- Title: proc~~json_file_update_integer~~CalledByGraph Pages: 1 -->
<svg width="334pt" height="34pt"
 viewBox="0.00 0.00 334.00 34.00" xmlns="http://www.w3.org/2000/svg" xmlns:xlink="http://www.w3.org/1999/xlink">
<g id="graph1" class="graph" transform="scale(1 1) rotate(0) translate(4 30)">
<title>proc~~json_file_update_integer~~CalledByGraph</title>
<polygon fill="white" stroke="white" points="-4,5 -4,-30 331,-30 331,5 -4,5"/>
<!-- proc~json_file_update_integer -->
<g id="node1" class="node"><title>proc~json_file_update_integer</title>
<polygon fill="none" stroke="black" points="326,-26 196,-26 196,-1.24345e-14 326,-3.55271e-15 326,-26"/>
<text text-anchor="middle" x="261" y="-10.55" font-family="Helvetica,sans-Serif" font-size="10.50">json_file_update_integer</text>
</g>
<!-- proc~wrap_json_file_update_integer -->
<g id="node2" class="node"><title>proc~wrap_json_file_update_integer</title>
<a xlink:href="../proc/wrap_json_file_update_integer.html" xlink:title="wrap_json_file_update_integer">
<polygon fill="#d9534f" stroke="#d9534f" points="159,-26 1,-26 1,-1.24345e-14 159,-3.55271e-15 159,-26"/>
<text text-anchor="middle" x="80" y="-10.55" font-family="Helvetica,sans-Serif" font-size="10.50" fill="white">wrap_json_file_update_integer</text>
</a>
</g>
<!-- proc~wrap_json_file_update_integer&#45;&gt;proc~json_file_update_integer -->
<g id="edge2" class="edge"><title>proc~wrap_json_file_update_integer&#45;&gt;proc~json_file_update_integer</title>
<path fill="none" stroke="black" d="M159.653,-13C168.378,-13 177.24,-13 185.908,-13"/>
<polygon fill="black" stroke="black" points="185.974,-16.5001 195.974,-13 185.974,-9.5001 185.974,-16.5001"/>
</g>
</g>
</svg>
