<?xml version="1.0" encoding="UTF-8" standalone="no"?>
<!DOCTYPE svg PUBLIC "-//W3C//DTD SVG 1.1//EN"
 "http://www.w3.org/Graphics/SVG/1.1/DTD/svg11.dtd">
<!-- Generated by graphviz version 2.26.3 (20100126.1600)
 -->
<!-- Title: proc~~wrap_json_get_string_with_path~~CallsGraph Pages: 1 -->
<svg width="641pt" height="116pt"
 viewBox="0.00 0.00 641.00 116.09" xmlns="http://www.w3.org/2000/svg" xmlns:xlink="http://www.w3.org/1999/xlink">
<g id="graph1" class="graph" transform="scale(0.392289 0.392289) rotate(0) translate(4 291.931)">
<title>proc~~wrap_json_get_string_with_path~~CallsGraph</title>
<polygon fill="white" stroke="white" points="-4,5 -4,-291.931 1631,-291.931 1631,5 -4,5"/>
<!-- proc~wrap_json_get_string_with_path -->
<g id="node1" class="node"><title>proc~wrap_json_get_string_with_path</title>
<polygon fill="none" stroke="black" points="166,-254.931 8.52651e-14,-254.931 0,-228.931 166,-228.931 166,-254.931"/>
<text text-anchor="middle" x="83" y="-239.481" font-family="Helvetica,sans-Serif" font-size="10.50">wrap_json_get_string_with_path</text>
</g>
<!-- interface~to_unicode -->
<g id="node2" class="node"><title>interface~to_unicode</title>
<a xlink:href="../interface/to_unicode.html" xlink:title="to_unicode">
<polygon fill="#a7506f" stroke="#a7506f" points="1500,-228.931 1436,-228.931 1436,-202.931 1500,-202.931 1500,-228.931"/>
<text text-anchor="middle" x="1468" y="-213.481" font-family="Helvetica,sans-Serif" font-size="10.50" fill="white">to_unicode</text>
</a>
</g>
<!-- proc~wrap_json_get_string_with_path&#45;&gt;interface~to_unicode -->
<g id="edge52" class="edge"><title>proc~wrap_json_get_string_with_path&#45;&gt;interface~to_unicode</title>
<path fill="none" stroke="black" d="M143.214,-254.989C211.273,-268.589 325.55,-287.931 425,-287.931 425,-287.931 425,-287.931 1146,-287.931 1248.28,-287.931 1364.54,-252.902 1425.51,-231.71"/>
<polygon fill="black" stroke="black" points="1426.9,-234.932 1435.17,-228.308 1424.57,-228.33 1426.9,-234.932"/>
</g>
<!-- proc~json_get_string_with_path -->
<g id="node3" class="node"><title>proc~json_get_string_with_path</title>
<a xlink:href="../proc/json_get_string_with_path.html" xlink:title="json_get_string_with_path">
<polygon fill="#d9534f" stroke="#d9534f" points="339,-208.931 203,-208.931 203,-182.931 339,-182.931 339,-208.931"/>
<text text-anchor="middle" x="271" y="-193.481" font-family="Helvetica,sans-Serif" font-size="10.50" fill="white">json_get_string_with_path</text>
</a>
</g>
<!-- proc~wrap_json_get_string_with_path&#45;&gt;proc~json_get_string_with_path -->
<g id="edge54" class="edge"><title>proc~wrap_json_get_string_with_path&#45;&gt;proc~json_get_string_with_path</title>
<path fill="none" stroke="black" d="M136.37,-228.872C158.692,-223.41 184.799,-217.022 208.051,-211.333"/>
<polygon fill="black" stroke="black" points="208.94,-214.719 217.822,-208.942 207.276,-207.919 208.94,-214.719"/>
</g>
<!-- proc~to_uni_vec -->
<g id="node4" class="node"><title>proc~to_uni_vec</title>
<a xlink:href="../proc/to_uni_vec.html" xlink:title="to_uni_vec">
<polygon fill="#d94e8f" stroke="#d94e8f" points="1626,-250.931 1562,-250.931 1562,-224.931 1626,-224.931 1626,-250.931"/>
<text text-anchor="middle" x="1594" y="-235.481" font-family="Helvetica,sans-Serif" font-size="10.50" fill="white">to_uni_vec</text>
</a>
</g>
<!-- interface~to_unicode&#45;&gt;proc~to_uni_vec -->
<g id="edge2" class="edge"><title>interface~to_unicode&#45;&gt;proc~to_uni_vec</title>
<path fill="none" stroke="black" stroke-dasharray="5,2" d="M1500.78,-221.653C1516.36,-224.374 1535.17,-227.658 1551.8,-230.562"/>
<polygon fill="black" stroke="black" points="1551.37,-234.04 1561.82,-232.313 1552.58,-227.145 1551.37,-234.04"/>
</g>
<!-- proc~to_uni -->
<g id="node5" class="node"><title>proc~to_uni</title>
<a xlink:href="../proc/to_uni.html" xlink:title="to_uni">
<polygon fill="#d94e8f" stroke="#d94e8f" points="1621,-206.931 1567,-206.931 1567,-180.931 1621,-180.931 1621,-206.931"/>
<text text-anchor="middle" x="1594" y="-191.481" font-family="Helvetica,sans-Serif" font-size="10.50" fill="white">to_uni</text>
</a>
</g>
<!-- interface~to_unicode&#45;&gt;proc~to_uni -->
<g id="edge4" class="edge"><title>interface~to_unicode&#45;&gt;proc~to_uni</title>
<path fill="none" stroke="black" stroke-dasharray="5,2" d="M1500.78,-210.208C1517.97,-207.207 1539.09,-203.518 1556.88,-200.412"/>
<polygon fill="black" stroke="black" points="1557.66,-203.828 1566.91,-198.66 1556.46,-196.932 1557.66,-203.828"/>
</g>
<!-- proc~json_get_by_path -->
<g id="node8" class="node"><title>proc~json_get_by_path</title>
<a xlink:href="../proc/json_get_by_path.html" xlink:title="json_get_by_path">
<polygon fill="#d9534f" stroke="#d9534f" points="473,-164.931 377,-164.931 377,-138.931 473,-138.931 473,-164.931"/>
<text text-anchor="middle" x="425" y="-149.481" font-family="Helvetica,sans-Serif" font-size="10.50" fill="white">json_get_by_path</text>
</a>
</g>
<!-- proc~json_get_string_with_path&#45;&gt;proc~json_get_by_path -->
<g id="edge44" class="edge"><title>proc~json_get_string_with_path&#45;&gt;proc~json_get_by_path</title>
<path fill="none" stroke="black" d="M316.788,-182.848C333.316,-178.126 352.153,-172.744 369.427,-167.809"/>
<polygon fill="black" stroke="black" points="370.735,-171.075 379.388,-164.963 368.812,-164.345 370.735,-171.075"/>
</g>
<!-- proc~json_get_string -->
<g id="node9" class="node"><title>proc~json_get_string</title>
<a xlink:href="../proc/json_get_string.html" xlink:title="json_get_string">
<polygon fill="#d9534f" stroke="#d9534f" points="1022,-259.931 938,-259.931 938,-233.931 1022,-233.931 1022,-259.931"/>
<text text-anchor="middle" x="980" y="-244.481" font-family="Helvetica,sans-Serif" font-size="10.50" fill="white">json_get_string</text>
</a>
</g>
<!-- proc~json_get_string_with_path&#45;&gt;proc~json_get_string -->
<g id="edge46" class="edge"><title>proc~json_get_string_with_path&#45;&gt;proc~json_get_string</title>
<path fill="none" stroke="black" d="M339.544,-205.774C351.672,-207.315 364.194,-208.776 376,-209.931 579.39,-229.821 822.423,-240.847 927.42,-244.995"/>
<polygon fill="black" stroke="black" points="927.314,-248.494 937.443,-245.387 927.588,-241.499 927.314,-248.494"/>
</g>
<!-- proc~json_clear_exceptions -->
<g id="node10" class="node"><title>proc~json_clear_exceptions</title>
<a xlink:href="../proc/json_clear_exceptions.html" xlink:title="json_clear_exceptions">
<polygon fill="#d9534f" stroke="#d9534f" points="628,-208.931 510,-208.931 510,-182.931 628,-182.931 628,-208.931"/>
<text text-anchor="middle" x="569" y="-193.481" font-family="Helvetica,sans-Serif" font-size="10.50" fill="white">json_clear_exceptions</text>
</a>
</g>
<!-- proc~json_get_string_with_path&#45;&gt;proc~json_clear_exceptions -->
<g id="edge48" class="edge"><title>proc~json_get_string_with_path&#45;&gt;proc~json_clear_exceptions</title>
<path fill="none" stroke="black" d="M339.741,-195.931C387.723,-195.931 451.532,-195.931 499.647,-195.931"/>
<polygon fill="black" stroke="black" points="499.665,-199.431 509.665,-195.931 499.665,-192.431 499.665,-199.431"/>
</g>
<!-- interface~throw_exception -->
<g id="node11" class="node"><title>interface~throw_exception</title>
<a xlink:href="../interface/throw_exception.html" xlink:title="throw_exception">
<polygon fill="#a7506f" stroke="#a7506f" points="1191,-133.931 1101,-133.931 1101,-107.931 1191,-107.931 1191,-133.931"/>
<text text-anchor="middle" x="1146" y="-118.481" font-family="Helvetica,sans-Serif" font-size="10.50" fill="white">throw_exception</text>
</a>
</g>
<!-- proc~json_get_string_with_path&#45;&gt;interface~throw_exception -->
<g id="edge50" class="edge"><title>proc~json_get_string_with_path&#45;&gt;interface~throw_exception</title>
<path fill="none" stroke="black" d="M281.011,-182.833C315.673,-139.112 435.76,-0.930649 569,-0.930649 569,-0.930649 569,-0.930649 762,-0.930649 897.838,-0.930649 941.152,10.038 1064,-47.9306 1089.92,-60.1632 1113.69,-83.2167 1128.88,-100.156"/>
<polygon fill="black" stroke="black" points="1126.42,-102.659 1135.63,-107.906 1131.7,-98.0642 1126.42,-102.659"/>
</g>
<!-- proc~json_get_by_path&#45;&gt;proc~json_clear_exceptions -->
<g id="edge28" class="edge"><title>proc~json_get_by_path&#45;&gt;proc~json_clear_exceptions</title>
<path fill="none" stroke="black" d="M467.815,-165.013C483.056,-169.67 500.398,-174.969 516.367,-179.848"/>
<polygon fill="black" stroke="black" points="515.515,-183.248 526.101,-182.823 517.561,-176.553 515.515,-183.248"/>
</g>
<!-- proc~json_get_by_path&#45;&gt;interface~throw_exception -->
<g id="edge24" class="edge"><title>proc~json_get_by_path&#45;&gt;interface~throw_exception</title>
<path fill="none" stroke="black" d="M443.461,-138.861C460.176,-127.522 485.814,-111.338 510,-100.931 575.276,-72.8424 593.595,-67.5754 664,-57.9306 840.695,-33.7251 891.581,-44.3369 1064,-89.9306 1078.09,-93.6564 1093.11,-98.9323 1106.4,-104.077"/>
<polygon fill="black" stroke="black" points="1105.14,-107.344 1115.73,-107.777 1107.72,-100.837 1105.14,-107.344"/>
</g>
<!-- interface~json_get_child -->
<g id="node12" class="node"><title>interface~json_get_child</title>
<a xlink:href="../interface/json_get_child.html" xlink:title="json_get_child">
<polygon fill="#a7506f" stroke="#a7506f" points="609,-164.931 529,-164.931 529,-138.931 609,-138.931 609,-164.931"/>
<text text-anchor="middle" x="569" y="-149.481" font-family="Helvetica,sans-Serif" font-size="10.50" fill="white">json_get_child</text>
</a>
</g>
<!-- proc~json_get_by_path&#45;&gt;interface~json_get_child -->
<g id="edge26" class="edge"><title>proc~json_get_by_path&#45;&gt;interface~json_get_child</title>
<path fill="none" stroke="black" d="M473.752,-151.931C488.065,-151.931 503.751,-151.931 518.19,-151.931"/>
<polygon fill="black" stroke="black" points="518.445,-155.431 528.445,-151.931 518.445,-148.431 518.445,-155.431"/>
</g>
<!-- proc~string_to_integer -->
<g id="node13" class="node"><title>proc~string_to_integer</title>
<a xlink:href="../proc/string_to_integer.html" xlink:title="string_to_integer">
<polygon fill="#d94e8f" stroke="#d94e8f" points="808,-92.9306 716,-92.9306 716,-66.9306 808,-66.9306 808,-92.9306"/>
<text text-anchor="middle" x="762" y="-77.4806" font-family="Helvetica,sans-Serif" font-size="10.50" fill="white">string_to_integer</text>
</a>
</g>
<!-- proc~json_get_by_path&#45;&gt;proc~string_to_integer -->
<g id="edge30" class="edge"><title>proc~json_get_by_path&#45;&gt;proc~string_to_integer</title>
<path fill="none" stroke="black" d="M473.428,-138.884C485.353,-135.813 498.112,-132.646 510,-129.931 576.855,-114.66 654.303,-99.6966 705.505,-90.1798"/>
<polygon fill="black" stroke="black" points="706.189,-93.6128 715.385,-88.3506 704.914,-86.7298 706.189,-93.6128"/>
</g>
<!-- proc~json_get_string&#45;&gt;interface~to_unicode -->
<g id="edge32" class="edge"><title>proc~json_get_string&#45;&gt;interface~to_unicode</title>
<path fill="none" stroke="black" d="M1022.88,-244.207C1115.37,-238.331 1332.71,-224.525 1425.17,-218.652"/>
<polygon fill="black" stroke="black" points="1425.53,-222.136 1435.28,-218.009 1425.08,-215.15 1425.53,-222.136"/>
</g>
<!-- proc~json_get_string&#45;&gt;interface~throw_exception -->
<g id="edge34" class="edge"><title>proc~json_get_string&#45;&gt;interface~throw_exception</title>
<path fill="none" stroke="black" d="M1001.54,-233.814C1019.25,-222.515 1044.51,-205.184 1064,-186.931 1082.44,-169.659 1080.13,-158.534 1100,-142.931 1101.57,-141.701 1103.21,-140.517 1104.91,-139.381"/>
<polygon fill="black" stroke="black" points="1106.95,-142.238 1113.74,-134.104 1103.36,-136.23 1106.95,-142.238"/>
</g>
<!-- proc~json_throw_exception -->
<g id="node33" class="node"><title>proc~json_throw_exception</title>
<a xlink:href="../proc/json_throw_exception.html" xlink:title="json_throw_exception">
<polygon fill="#d9534f" stroke="#d9534f" points="1526,-164.931 1410,-164.931 1410,-138.931 1526,-138.931 1526,-164.931"/>
<text text-anchor="middle" x="1468" y="-149.481" font-family="Helvetica,sans-Serif" font-size="10.50" fill="white">json_throw_exception</text>
</a>
</g>
<!-- interface~throw_exception&#45;&gt;proc~json_throw_exception -->
<g id="edge40" class="edge"><title>interface~throw_exception&#45;&gt;proc~json_throw_exception</title>
<path fill="none" stroke="black" stroke-dasharray="5,2" d="M1191.91,-124.163C1237.99,-127.546 1311,-133.287 1374,-139.931 1382.35,-140.811 1391.11,-141.817 1399.77,-142.864"/>
<polygon fill="black" stroke="black" points="1399.53,-146.36 1409.88,-144.107 1400.38,-139.413 1399.53,-146.36"/>
</g>
<!-- proc~wrap_json_throw_exception -->
<g id="node34" class="node"><title>proc~wrap_json_throw_exception</title>
<a xlink:href="../proc/wrap_json_throw_exception.html" xlink:title="wrap_json_throw_exception">
<polygon fill="#d9534f" stroke="#d9534f" points="1373,-174.931 1229,-174.931 1229,-148.931 1373,-148.931 1373,-174.931"/>
<text text-anchor="middle" x="1301" y="-159.481" font-family="Helvetica,sans-Serif" font-size="10.50" fill="white">wrap_json_throw_exception</text>
</a>
</g>
<!-- interface~throw_exception&#45;&gt;proc~wrap_json_throw_exception -->
<g id="edge42" class="edge"><title>interface~throw_exception&#45;&gt;proc~wrap_json_throw_exception</title>
<path fill="none" stroke="black" stroke-dasharray="5,2" d="M1191.67,-133.01C1207.27,-137.138 1224.96,-141.816 1241.49,-146.189"/>
<polygon fill="black" stroke="black" points="1241.04,-149.691 1251.6,-148.865 1242.83,-142.924 1241.04,-149.691"/>
</g>
<!-- proc~json_value_get_by_index -->
<g id="node14" class="node"><title>proc~json_value_get_by_index</title>
<a xlink:href="../proc/json_value_get_by_index.html" xlink:title="json_value_get_by_index">
<polygon fill="#d9534f" stroke="#d9534f" points="828,-136.931 696,-136.931 696,-110.931 828,-110.931 828,-136.931"/>
<text text-anchor="middle" x="762" y="-121.481" font-family="Helvetica,sans-Serif" font-size="10.50" fill="white">json_value_get_by_index</text>
</a>
</g>
<!-- interface~json_get_child&#45;&gt;proc~json_value_get_by_index -->
<g id="edge16" class="edge"><title>interface~json_get_child&#45;&gt;proc~json_value_get_by_index</title>
<path fill="none" stroke="black" stroke-dasharray="5,2" d="M609.93,-145.993C631.812,-142.818 659.475,-138.805 685.191,-135.074"/>
<polygon fill="black" stroke="black" points="685.916,-138.505 695.31,-133.606 684.911,-131.578 685.916,-138.505"/>
</g>
<!-- proc~json_value_get_by_name_chars -->
<g id="node15" class="node"><title>proc~json_value_get_by_name_chars</title>
<a xlink:href="../proc/json_value_get_by_name_chars.html" xlink:title="json_value_get_by_name_chars">
<polygon fill="#d9534f" stroke="#d9534f" points="1063,-177.931 897,-177.931 897,-151.931 1063,-151.931 1063,-177.931"/>
<text text-anchor="middle" x="980" y="-162.481" font-family="Helvetica,sans-Serif" font-size="10.50" fill="white">json_value_get_by_name_chars</text>
</a>
</g>
<!-- interface~json_get_child&#45;&gt;proc~json_value_get_by_name_chars -->
<g id="edge18" class="edge"><title>interface~json_get_child&#45;&gt;proc~json_value_get_by_name_chars</title>
<path fill="none" stroke="black" stroke-dasharray="5,2" d="M609.533,-153.213C673.332,-155.231 798.872,-159.202 886.023,-161.958"/>
<polygon fill="black" stroke="black" points="886.083,-165.462 896.189,-162.28 886.304,-158.465 886.083,-165.462"/>
</g>
<!-- proc~wrap_json_value_get_by_name_chars -->
<g id="node16" class="node"><title>proc~wrap_json_value_get_by_name_chars</title>
<a xlink:href="../proc/wrap_json_value_get_by_name_chars.html" xlink:title="wrap_json_value_get_by_name_chars">
<polygon fill="#d9534f" stroke="#d9534f" points="860,-218.931 664,-218.931 664,-192.931 860,-192.931 860,-218.931"/>
<text text-anchor="middle" x="762" y="-203.481" font-family="Helvetica,sans-Serif" font-size="10.50" fill="white">wrap_json_value_get_by_name_chars</text>
</a>
</g>
<!-- interface~json_get_child&#45;&gt;proc~wrap_json_value_get_by_name_chars -->
<g id="edge20" class="edge"><title>interface~json_get_child&#45;&gt;proc~wrap_json_value_get_by_name_chars</title>
<path fill="none" stroke="black" stroke-dasharray="5,2" d="M609.662,-163.565C626.473,-168.355 646.167,-173.94 664,-178.931 677.001,-182.569 690.983,-186.444 704.199,-190.089"/>
<polygon fill="black" stroke="black" points="703.557,-193.543 714.127,-192.824 705.416,-186.794 703.557,-193.543"/>
</g>
<!-- proc~string_to_integer&#45;&gt;interface~throw_exception -->
<g id="edge22" class="edge"><title>proc~string_to_integer&#45;&gt;interface~throw_exception</title>
<path fill="none" stroke="black" d="M808.702,-84.9171C879.525,-92.4789 1013.87,-106.823 1089.89,-114.94"/>
<polygon fill="black" stroke="black" points="1089.9,-118.461 1100.22,-116.043 1090.65,-111.501 1089.9,-118.461"/>
</g>
<!-- proc~json_value_get_by_index&#45;&gt;interface~throw_exception -->
<g id="edge6" class="edge"><title>proc~json_value_get_by_index&#45;&gt;interface~throw_exception</title>
<path fill="none" stroke="black" d="M828.888,-123.408C902.876,-122.83 1020.77,-121.909 1090.05,-121.368"/>
<polygon fill="black" stroke="black" points="1090.35,-124.866 1100.32,-121.287 1090.3,-117.866 1090.35,-124.866"/>
</g>
<!-- proc~json_value_get_by_name_chars&#45;&gt;interface~throw_exception -->
<g id="edge8" class="edge"><title>proc~json_value_get_by_name_chars&#45;&gt;interface~throw_exception</title>
<path fill="none" stroke="black" d="M1029.36,-151.848C1048.57,-146.756 1070.68,-140.896 1090.45,-135.656"/>
<polygon fill="black" stroke="black" points="1091.47,-139.005 1100.24,-133.06 1089.68,-132.239 1091.47,-139.005"/>
</g>
<!-- proc~json_count -->
<g id="node18" class="node"><title>proc~json_count</title>
<a xlink:href="../proc/json_count.html" xlink:title="json_count">
<polygon fill="#d94e8f" stroke="#d94e8f" points="1178,-177.931 1114,-177.931 1114,-151.931 1178,-151.931 1178,-177.931"/>
<text text-anchor="middle" x="1146" y="-162.481" font-family="Helvetica,sans-Serif" font-size="10.50" fill="white">json_count</text>
</a>
</g>
<!-- proc~json_value_get_by_name_chars&#45;&gt;proc~json_count -->
<g id="edge10" class="edge"><title>proc~json_value_get_by_name_chars&#45;&gt;proc~json_count</title>
<path fill="none" stroke="black" d="M1063.97,-164.931C1077.66,-164.931 1091.3,-164.931 1103.43,-164.931"/>
<polygon fill="black" stroke="black" points="1103.66,-168.431 1113.65,-164.931 1103.65,-161.431 1103.66,-168.431"/>
</g>
<!-- proc~wrap_json_value_get_by_name_chars&#45;&gt;interface~to_unicode -->
<g id="edge12" class="edge"><title>proc~wrap_json_value_get_by_name_chars&#45;&gt;interface~to_unicode</title>
<path fill="none" stroke="black" d="M860.166,-207.321C1016.16,-209.531 1314.32,-213.754 1425.13,-215.323"/>
<polygon fill="black" stroke="black" points="1425.21,-218.825 1435.26,-215.467 1425.31,-211.826 1425.21,-218.825"/>
</g>
<!-- proc~wrap_json_value_get_by_name_chars&#45;&gt;proc~json_value_get_by_name_chars -->
<g id="edge14" class="edge"><title>proc~wrap_json_value_get_by_name_chars&#45;&gt;proc~json_value_get_by_name_chars</title>
<path fill="none" stroke="black" d="M831.276,-192.902C853.323,-188.755 877.881,-184.137 900.586,-179.866"/>
<polygon fill="black" stroke="black" points="901.349,-183.284 910.53,-177.996 900.055,-176.405 901.349,-183.284"/>
</g>
<!-- proc~wrap_json_throw_exception&#45;&gt;interface~to_unicode -->
<g id="edge38" class="edge"><title>proc~wrap_json_throw_exception&#45;&gt;interface~to_unicode</title>
<path fill="none" stroke="black" d="M1341.43,-175.003C1367.02,-183.278 1400.05,-193.958 1425.95,-202.333"/>
<polygon fill="black" stroke="black" points="1424.9,-205.673 1435.49,-205.42 1427.06,-199.013 1424.9,-205.673"/>
</g>
<!-- proc~wrap_json_throw_exception&#45;&gt;proc~json_throw_exception -->
<g id="edge36" class="edge"><title>proc~wrap_json_throw_exception&#45;&gt;proc~json_throw_exception</title>
<path fill="none" stroke="black" d="M1373.76,-157.574C1382.32,-157.061 1391.04,-156.539 1399.54,-156.03"/>
<polygon fill="black" stroke="black" points="1400,-159.509 1409.77,-155.417 1399.58,-152.521 1400,-159.509"/>
</g>
</g>
</svg>
