<?xml version="1.0" encoding="UTF-8" standalone="no"?>
<!DOCTYPE svg PUBLIC "-//W3C//DTD SVG 1.1//EN"
 "http://www.w3.org/Graphics/SVG/1.1/DTD/svg11.dtd">
<!-- Generated by graphviz version 2.26.3 (20100126.1600)
 -->
<!-- Title: proc~~to_null~~CalledByGraph Pages: 1 -->
<svg width="641pt" height="142pt"
 viewBox="0.00 0.00 641.00 141.71" xmlns="http://www.w3.org/2000/svg" xmlns:xlink="http://www.w3.org/1999/xlink">
<g id="graph1" class="graph" transform="scale(0.597948 0.597948) rotate(0) translate(4 233)">
<title>proc~~to_null~~CalledByGraph</title>
<polygon fill="white" stroke="white" points="-4,5 -4,-233 1069,-233 1069,5 -4,5"/>
<!-- proc~to_null -->
<g id="node1" class="node"><title>proc~to_null</title>
<polygon fill="none" stroke="black" points="1054,-66 1000,-66 1000,-40 1054,-40 1054,-66"/>
<text text-anchor="middle" x="1027" y="-50.55" font-family="Helvetica,sans-Serif" font-size="10.50">to_null</text>
</g>
<!-- proc~parse_value -->
<g id="node2" class="node"><title>proc~parse_value</title>
<a xlink:href="../proc/parse_value.html" xlink:title="parse_value">
<polygon fill="#d9534f" stroke="#d9534f" points="928,-110 858,-110 858,-84 928,-84 928,-110"/>
<text text-anchor="middle" x="893" y="-94.55" font-family="Helvetica,sans-Serif" font-size="10.50" fill="white">parse_value</text>
</a>
</g>
<!-- proc~parse_value&#45;&gt;proc~to_null -->
<g id="edge48" class="edge"><title>proc~parse_value&#45;&gt;proc~to_null</title>
<path fill="none" stroke="black" d="M928.558,-85.3243C947.573,-79.0804 970.959,-71.4016 990.165,-65.0951"/>
<polygon fill="black" stroke="black" points="991.373,-68.3823 999.782,-61.9372 989.189,-61.7316 991.373,-68.3823"/>
</g>
<!-- proc~parse_object -->
<g id="node5" class="node"><title>proc~parse_object</title>
<a xlink:href="../proc/parse_object.html" xlink:title="parse_object">
<polygon fill="#d9534f" stroke="#d9534f" points="1064,-154 990,-154 990,-128 1064,-128 1064,-154"/>
<text text-anchor="middle" x="1027" y="-138.55" font-family="Helvetica,sans-Serif" font-size="10.50" fill="white">parse_object</text>
</a>
</g>
<!-- proc~parse_value&#45;&gt;proc~parse_object -->
<g id="edge22" class="edge"><title>proc~parse_value&#45;&gt;proc~parse_object</title>
<path fill="none" stroke="black" d="M928.558,-102.635C948.722,-108.275 973.8,-116.546 993.597,-124.101"/>
<polygon fill="black" stroke="black" points="992.543,-127.448 1003.13,-127.853 995.107,-120.934 992.543,-127.448"/>
</g>
<!-- proc~parse_array -->
<g id="node7" class="node"><title>proc~parse_array</title>
<a xlink:href="../proc/parse_array.html" xlink:title="parse_array">
<polygon fill="#d9534f" stroke="#d9534f" points="1062,-110 992,-110 992,-84 1062,-84 1062,-110"/>
<text text-anchor="middle" x="1027" y="-94.55" font-family="Helvetica,sans-Serif" font-size="10.50" fill="white">parse_array</text>
</a>
</g>
<!-- proc~parse_value&#45;&gt;proc~parse_array -->
<g id="edge28" class="edge"><title>proc~parse_value&#45;&gt;proc~parse_array</title>
<path fill="none" stroke="black" d="M928.558,-90.9595C944.738,-90.1721 964.083,-90.0401 981.325,-90.5635"/>
<polygon fill="black" stroke="black" points="981.611,-94.0775 991.741,-90.9742 981.887,-87.0829 981.611,-94.0775"/>
</g>
<!-- proc~json_value_create_null -->
<g id="node3" class="node"><title>proc~json_value_create_null</title>
<a xlink:href="../proc/json_value_create_null.html" xlink:title="json_value_create_null">
<polygon fill="#d9534f" stroke="#d9534f" points="954,-66 832,-66 832,-40 954,-40 954,-66"/>
<text text-anchor="middle" x="893" y="-50.55" font-family="Helvetica,sans-Serif" font-size="10.50" fill="white">json_value_create_null</text>
</a>
</g>
<!-- proc~json_value_create_null&#45;&gt;proc~to_null -->
<g id="edge50" class="edge"><title>proc~json_value_create_null&#45;&gt;proc~to_null</title>
<path fill="none" stroke="black" d="M954.118,-53C966.254,-53 978.649,-53 989.694,-53"/>
<polygon fill="black" stroke="black" points="989.818,-56.5001 999.818,-53 989.817,-49.5001 989.818,-56.5001"/>
</g>
<!-- proc~json_parse_string -->
<g id="node4" class="node"><title>proc~json_parse_string</title>
<a xlink:href="../proc/json_parse_string.html" xlink:title="json_parse_string">
<polygon fill="#d9534f" stroke="#d9534f" points="768,-153 672,-153 672,-127 768,-127 768,-153"/>
<text text-anchor="middle" x="720" y="-137.55" font-family="Helvetica,sans-Serif" font-size="10.50" fill="white">json_parse_string</text>
</a>
</g>
<!-- proc~json_parse_string&#45;&gt;proc~parse_value -->
<g id="edge30" class="edge"><title>proc~json_parse_string&#45;&gt;proc~parse_value</title>
<path fill="none" stroke="black" d="M768.651,-127.908C793.311,-121.778 823.083,-114.378 847.313,-108.356"/>
<polygon fill="black" stroke="black" points="848.466,-111.676 857.326,-105.867 846.777,-104.882 848.466,-111.676"/>
</g>
<!-- proc~parse_object&#45;&gt;proc~parse_value -->
<g id="edge32" class="edge"><title>proc~parse_object&#45;&gt;proc~parse_value</title>
<path fill="none" stroke="black" d="M989.942,-134.943C969.899,-129.276 945.356,-121.15 925.98,-113.737"/>
<polygon fill="black" stroke="black" points="927.235,-110.47 916.648,-110.056 924.666,-116.982 927.235,-110.47"/>
</g>
<!-- proc~parse_object&#45;&gt;proc~parse_object -->
<g id="edge24" class="edge"><title>proc~parse_object&#45;&gt;proc~parse_object</title>
<path fill="none" stroke="black" d="M1004.33,-154.06C997.458,-163.1 1005.02,-172 1027,-172 1040.4,-172 1048.44,-168.695 1051.12,-164.067"/>
<polygon fill="black" stroke="black" points="1054.57,-163.456 1049.67,-154.06 1047.64,-164.458 1054.57,-163.456"/>
</g>
<!-- proc~json_parse_file -->
<g id="node6" class="node"><title>proc~json_parse_file</title>
<a xlink:href="../proc/json_parse_file.html" xlink:title="json_parse_file">
<polygon fill="#d9534f" stroke="#d9534f" points="762,-109 678,-109 678,-83 762,-83 762,-109"/>
<text text-anchor="middle" x="720" y="-93.55" font-family="Helvetica,sans-Serif" font-size="10.50" fill="white">json_parse_file</text>
</a>
</g>
<!-- proc~json_parse_file&#45;&gt;proc~parse_value -->
<g id="edge34" class="edge"><title>proc~json_parse_file&#45;&gt;proc~parse_value</title>
<path fill="none" stroke="black" d="M762.764,-96.2472C788.469,-96.3958 821.167,-96.5848 847.369,-96.7362"/>
<polygon fill="black" stroke="black" points="847.408,-100.236 857.428,-96.7944 847.448,-93.2365 847.408,-100.236"/>
</g>
<!-- proc~parse_array&#45;&gt;proc~parse_value -->
<g id="edge36" class="edge"><title>proc~parse_array&#45;&gt;proc~parse_value</title>
<path fill="none" stroke="black" d="M991.741,-103.026C975.6,-103.821 956.261,-103.961 938.994,-103.446"/>
<polygon fill="black" stroke="black" points="938.686,-99.9315 928.558,-103.04 938.414,-106.926 938.686,-99.9315"/>
</g>
<!-- proc~wrap_json_parse_string -->
<g id="node8" class="node"><title>proc~wrap_json_parse_string</title>
<a xlink:href="../proc/wrap_json_parse_string.html" xlink:title="wrap_json_parse_string">
<polygon fill="#d9534f" stroke="#d9534f" points="607,-150 481,-150 481,-124 607,-124 607,-150"/>
<text text-anchor="middle" x="544" y="-134.55" font-family="Helvetica,sans-Serif" font-size="10.50" fill="white">wrap_json_parse_string</text>
</a>
</g>
<!-- proc~wrap_json_parse_string&#45;&gt;proc~json_parse_string -->
<g id="edge18" class="edge"><title>proc~wrap_json_parse_string&#45;&gt;proc~json_parse_string</title>
<path fill="none" stroke="black" d="M607.54,-138.083C624.99,-138.381 643.833,-138.702 661.015,-138.995"/>
<polygon fill="black" stroke="black" points="661.412,-142.502 671.47,-139.173 661.532,-135.503 661.412,-142.502"/>
</g>
<!-- interface~json_parse -->
<g id="node9" class="node"><title>interface~json_parse</title>
<a xlink:href="../interface/json_parse.html" xlink:title="json_parse">
<polygon fill="#a7506f" stroke="#a7506f" points="443,-150 379,-150 379,-124 443,-124 443,-150"/>
<text text-anchor="middle" x="411" y="-134.55" font-family="Helvetica,sans-Serif" font-size="10.50" fill="white">json_parse</text>
</a>
</g>
<!-- interface~json_parse&#45;&gt;proc~json_parse_string -->
<g id="edge20" class="edge"><title>interface~json_parse&#45;&gt;proc~json_parse_string</title>
<path fill="none" stroke="black" stroke-dasharray="5,2" d="M443.842,-149.748C455.124,-153.513 467.949,-157.125 480,-159 541.5,-168.567 612.656,-160.576 661.427,-152.216"/>
<polygon fill="black" stroke="black" points="662.248,-155.625 671.483,-150.432 661.026,-148.732 662.248,-155.625"/>
</g>
<!-- interface~json_parse&#45;&gt;proc~json_parse_file -->
<g id="edge26" class="edge"><title>interface~json_parse&#45;&gt;proc~json_parse_file</title>
<path fill="none" stroke="black" stroke-dasharray="5,2" d="M443.59,-124.916C454.963,-121.154 467.909,-117.373 480,-115 543.563,-102.523 618.122,-98.1896 667.069,-96.7123"/>
<polygon fill="black" stroke="black" points="667.211,-100.21 677.112,-96.4385 667.021,-93.2124 667.211,-100.21"/>
</g>
<!-- interface~json_parse&#45;&gt;proc~wrap_json_parse_string -->
<g id="edge16" class="edge"><title>interface~json_parse&#45;&gt;proc~wrap_json_parse_string</title>
<path fill="none" stroke="black" stroke-dasharray="5,2" d="M443.535,-137C451.724,-137 460.853,-137 470.175,-137"/>
<polygon fill="black" stroke="black" points="470.333,-140.5 480.333,-137 470.333,-133.5 470.333,-140.5"/>
</g>
<!-- proc~test_14 -->
<g id="node10" class="node"><title>proc~test_14</title>
<a xlink:href="../proc/test_14.html" xlink:title="test_14">
<polygon fill="#d9534f" stroke="#d9534f" points="300,-229 246,-229 246,-203 300,-203 300,-229"/>
<text text-anchor="middle" x="273" y="-213.55" font-family="Helvetica,sans-Serif" font-size="10.50" fill="white">test_14</text>
</a>
</g>
<!-- proc~test_14&#45;&gt;interface~json_parse -->
<g id="edge8" class="edge"><title>proc~test_14&#45;&gt;interface~json_parse</title>
<path fill="none" stroke="black" d="M300.181,-209.909C313.299,-206.337 328.977,-201.107 342,-194 360.072,-184.138 377.921,-169.215 390.936,-157.112"/>
<polygon fill="black" stroke="black" points="393.558,-159.448 398.374,-150.011 388.724,-154.385 393.558,-159.448"/>
</g>
<!-- proc~test_8 -->
<g id="node11" class="node"><title>proc~test_8</title>
<a xlink:href="../proc/test_8.html" xlink:title="test_8">
<polygon fill="#d9534f" stroke="#d9534f" points="300,-185 246,-185 246,-159 300,-159 300,-185"/>
<text text-anchor="middle" x="273" y="-169.55" font-family="Helvetica,sans-Serif" font-size="10.50" fill="white">test_8</text>
</a>
</g>
<!-- proc~test_8&#45;&gt;interface~json_parse -->
<g id="edge10" class="edge"><title>proc~test_8&#45;&gt;interface~json_parse</title>
<path fill="none" stroke="black" d="M300.264,-165.085C319.746,-160.144 346.337,-153.4 368.58,-147.759"/>
<polygon fill="black" stroke="black" points="369.619,-151.106 378.452,-145.255 367.898,-144.321 369.619,-151.106"/>
</g>
<!-- proc~json_file_load -->
<g id="node12" class="node"><title>proc~json_file_load</title>
<a xlink:href="../proc/json_file_load.html" xlink:title="json_file_load">
<polygon fill="#d9534f" stroke="#d9534f" points="312,-141 234,-141 234,-115 312,-115 312,-141"/>
<text text-anchor="middle" x="273" y="-125.55" font-family="Helvetica,sans-Serif" font-size="10.50" fill="white">json_file_load</text>
</a>
</g>
<!-- proc~json_file_load&#45;&gt;interface~json_parse -->
<g id="edge12" class="edge"><title>proc~json_file_load&#45;&gt;interface~json_parse</title>
<path fill="none" stroke="black" d="M312.176,-130.555C329.628,-131.693 350.233,-133.037 368.099,-134.202"/>
<polygon fill="black" stroke="black" points="368.051,-137.706 378.258,-134.865 368.507,-130.721 368.051,-137.706"/>
</g>
<!-- proc~json_file_load_from_string -->
<g id="node13" class="node"><title>proc~json_file_load_from_string</title>
<a xlink:href="../proc/json_file_load_from_string.html" xlink:title="json_file_load_from_string">
<polygon fill="#d9534f" stroke="#d9534f" points="342,-97 204,-97 204,-71 342,-71 342,-97"/>
<text text-anchor="middle" x="273" y="-81.55" font-family="Helvetica,sans-Serif" font-size="10.50" fill="white">json_file_load_from_string</text>
</a>
</g>
<!-- proc~json_file_load_from_string&#45;&gt;interface~json_parse -->
<g id="edge14" class="edge"><title>proc~json_file_load_from_string&#45;&gt;interface~json_parse</title>
<path fill="none" stroke="black" d="M316.694,-97.1039C325.15,-99.8723 333.897,-102.9 342,-106 352.705,-110.096 364.132,-115.003 374.543,-119.691"/>
<polygon fill="black" stroke="black" points="373.219,-122.934 383.769,-123.906 376.127,-116.567 373.219,-122.934"/>
</g>
<!-- program~jf_test_14 -->
<g id="node14" class="node"><title>program~jf_test_14</title>
<a xlink:href="../program/jf_test_14.html" xlink:title="jf_test_14">
<polygon fill="#f0ad4e" stroke="#f0ad4e" points="113,-229 55,-229 55,-203 113,-203 113,-229"/>
<text text-anchor="middle" x="84" y="-213.55" font-family="Helvetica,sans-Serif" font-size="10.50" fill="white">jf_test_14</text>
</a>
</g>
<!-- program~jf_test_14&#45;&gt;proc~test_14 -->
<g id="edge2" class="edge"><title>program~jf_test_14&#45;&gt;proc~test_14</title>
<path fill="none" stroke="black" d="M113.531,-216C146.509,-216 199.947,-216 235.765,-216"/>
<polygon fill="black" stroke="black" points="235.82,-219.5 245.82,-216 235.82,-212.5 235.82,-219.5"/>
</g>
<!-- program~jf_test_8 -->
<g id="node16" class="node"><title>program~jf_test_8</title>
<a xlink:href="../program/jf_test_8.html" xlink:title="jf_test_8">
<polygon fill="#f0ad4e" stroke="#f0ad4e" points="111,-185 57,-185 57,-159 111,-159 111,-185"/>
<text text-anchor="middle" x="84" y="-169.55" font-family="Helvetica,sans-Serif" font-size="10.50" fill="white">jf_test_8</text>
</a>
</g>
<!-- program~jf_test_8&#45;&gt;proc~test_8 -->
<g id="edge4" class="edge"><title>program~jf_test_8&#45;&gt;proc~test_8</title>
<path fill="none" stroke="black" d="M111.079,-172C143.78,-172 198.956,-172 235.676,-172"/>
<polygon fill="black" stroke="black" points="235.971,-175.5 245.971,-172 235.971,-168.5 235.971,-175.5"/>
</g>
<!-- proc~wrap_json_file_load_from_string -->
<g id="node18" class="node"><title>proc~wrap_json_file_load_from_string</title>
<a xlink:href="../proc/wrap_json_file_load_from_string.html" xlink:title="wrap_json_file_load_from_string">
<polygon fill="#d9534f" stroke="#d9534f" points="167,-97 1,-97 1,-71 167,-71 167,-97"/>
<text text-anchor="middle" x="84" y="-81.55" font-family="Helvetica,sans-Serif" font-size="10.50" fill="white">wrap_json_file_load_from_string</text>
</a>
</g>
<!-- proc~wrap_json_file_load_from_string&#45;&gt;proc~json_file_load_from_string -->
<g id="edge6" class="edge"><title>proc~wrap_json_file_load_from_string&#45;&gt;proc~json_file_load_from_string</title>
<path fill="none" stroke="black" d="M167.724,-84C176.382,-84 185.162,-84 193.769,-84"/>
<polygon fill="black" stroke="black" points="193.775,-87.5001 203.775,-84 193.775,-80.5001 193.775,-87.5001"/>
</g>
<!-- proc~wrap_json_value_create_null -->
<g id="node35" class="node"><title>proc~wrap_json_value_create_null</title>
<a xlink:href="../proc/wrap_json_value_create_null.html" xlink:title="wrap_json_value_create_null">
<polygon fill="#d9534f" stroke="#d9534f" points="795,-26 645,-26 645,-1.24345e-14 795,-3.55271e-15 795,-26"/>
<text text-anchor="middle" x="720" y="-10.55" font-family="Helvetica,sans-Serif" font-size="10.50" fill="white">wrap_json_value_create_null</text>
</a>
</g>
<!-- proc~wrap_json_value_create_null&#45;&gt;proc~json_value_create_null -->
<g id="edge44" class="edge"><title>proc~wrap_json_value_create_null&#45;&gt;proc~json_value_create_null</title>
<path fill="none" stroke="black" d="M776.647,-26.0975C792.56,-29.7768 810.009,-33.8114 826.443,-37.6112"/>
<polygon fill="black" stroke="black" points="825.99,-41.0987 836.522,-39.9414 827.567,-34.2786 825.99,-41.0987"/>
</g>
<!-- interface~json_create_null -->
<g id="node36" class="node"><title>interface~json_create_null</title>
<a xlink:href="../interface/json_create_null.html" xlink:title="json_create_null">
<polygon fill="#a7506f" stroke="#a7506f" points="589,-43 499,-43 499,-17 589,-17 589,-43"/>
<text text-anchor="middle" x="544" y="-27.55" font-family="Helvetica,sans-Serif" font-size="10.50" fill="white">json_create_null</text>
</a>
</g>
<!-- interface~json_create_null&#45;&gt;proc~json_value_create_null -->
<g id="edge46" class="edge"><title>interface~json_create_null&#45;&gt;proc~json_value_create_null</title>
<path fill="none" stroke="black" stroke-dasharray="5,2" d="M589.626,-33.0068C648.709,-36.9006 752.328,-43.7294 821.806,-48.3082"/>
<polygon fill="black" stroke="black" points="821.592,-51.8015 831.8,-48.9668 822.052,-44.8167 821.592,-51.8015"/>
</g>
<!-- interface~json_create_null&#45;&gt;proc~wrap_json_value_create_null -->
<g id="edge42" class="edge"><title>interface~json_create_null&#45;&gt;proc~wrap_json_value_create_null</title>
<path fill="none" stroke="black" stroke-dasharray="5,2" d="M589.782,-25.5778C603.485,-24.2543 618.977,-22.7579 634.372,-21.2709"/>
<polygon fill="black" stroke="black" points="634.837,-24.7423 644.455,-20.297 634.164,-17.7747 634.837,-24.7423"/>
</g>
<!-- proc~test_10 -->
<g id="node37" class="node"><title>proc~test_10</title>
<a xlink:href="../proc/test_10.html" xlink:title="test_10">
<polygon fill="#d9534f" stroke="#d9534f" points="438,-43 384,-43 384,-17 438,-17 438,-43"/>
<text text-anchor="middle" x="411" y="-27.55" font-family="Helvetica,sans-Serif" font-size="10.50" fill="white">test_10</text>
</a>
</g>
<!-- proc~test_10&#45;&gt;interface~json_create_null -->
<g id="edge40" class="edge"><title>proc~test_10&#45;&gt;interface~json_create_null</title>
<path fill="none" stroke="black" d="M438.235,-30C452.72,-30 471.077,-30 488.416,-30"/>
<polygon fill="black" stroke="black" points="488.47,-33.5001 498.47,-30 488.47,-26.5001 488.47,-33.5001"/>
</g>
<!-- program~jf_test_10 -->
<g id="node38" class="node"><title>program~jf_test_10</title>
<a xlink:href="../program/jf_test_10.html" xlink:title="jf_test_10">
<polygon fill="#f0ad4e" stroke="#f0ad4e" points="302,-43 244,-43 244,-17 302,-17 302,-43"/>
<text text-anchor="middle" x="273" y="-27.55" font-family="Helvetica,sans-Serif" font-size="10.50" fill="white">jf_test_10</text>
</a>
</g>
<!-- program~jf_test_10&#45;&gt;proc~test_10 -->
<g id="edge38" class="edge"><title>program~jf_test_10&#45;&gt;proc~test_10</title>
<path fill="none" stroke="black" d="M302.604,-30C323.389,-30 351.345,-30 373.66,-30"/>
<polygon fill="black" stroke="black" points="373.787,-33.5001 383.787,-30 373.787,-26.5001 373.787,-33.5001"/>
</g>
</g>
</svg>
