<?xml version="1.0" encoding="UTF-8" standalone="no"?>
<!DOCTYPE svg PUBLIC "-//W3C//DTD SVG 1.1//EN"
 "http://www.w3.org/Graphics/SVG/1.1/DTD/svg11.dtd">
<!-- Generated by graphviz version 2.26.3 (20100126.1600)
 -->
<!-- Title: proc~~wrap_json_get_by_path~~CallsGraph Pages: 1 -->
<svg width="641pt" height="102pt"
 viewBox="0.00 0.00 641.00 101.87" xmlns="http://www.w3.org/2000/svg" xmlns:xlink="http://www.w3.org/1999/xlink">
<g id="graph1" class="graph" transform="scale(0.450774 0.450774) rotate(0) translate(4 222)">
<title>proc~~wrap_json_get_by_path~~CallsGraph</title>
<polygon fill="white" stroke="white" points="-4,5 -4,-222 1419,-222 1419,5 -4,5"/>
<!-- proc~wrap_json_get_by_path -->
<g id="node1" class="node"><title>proc~wrap_json_get_by_path</title>
<polygon fill="none" stroke="black" points="127,-65 1,-65 1,-39 127,-39 127,-65"/>
<text text-anchor="middle" x="64" y="-49.55" font-family="Helvetica,sans-Serif" font-size="10.50">wrap_json_get_by_path</text>
</g>
<!-- proc~json_get_by_path -->
<g id="node2" class="node"><title>proc~json_get_by_path</title>
<a xlink:href="../proc/json_get_by_path.html" xlink:title="json_get_by_path">
<polygon fill="#d9534f" stroke="#d9534f" points="261,-117 165,-117 165,-91 261,-91 261,-117"/>
<text text-anchor="middle" x="213" y="-101.55" font-family="Helvetica,sans-Serif" font-size="10.50" fill="white">json_get_by_path</text>
</a>
</g>
<!-- proc~wrap_json_get_by_path&#45;&gt;proc~json_get_by_path -->
<g id="edge40" class="edge"><title>proc~wrap_json_get_by_path&#45;&gt;proc~json_get_by_path</title>
<path fill="none" stroke="black" d="M101.599,-65.1218C121.173,-71.9528 145.293,-80.3706 166.078,-87.6246"/>
<polygon fill="black" stroke="black" points="165.077,-90.982 175.671,-90.9726 167.383,-84.3729 165.077,-90.982"/>
</g>
<!-- interface~to_unicode -->
<g id="node3" class="node"><title>interface~to_unicode</title>
<a xlink:href="../interface/to_unicode.html" xlink:title="to_unicode">
<polygon fill="#a7506f" stroke="#a7506f" points="1288,-51 1224,-51 1224,-25 1288,-25 1288,-51"/>
<text text-anchor="middle" x="1256" y="-35.55" font-family="Helvetica,sans-Serif" font-size="10.50" fill="white">to_unicode</text>
</a>
</g>
<!-- proc~wrap_json_get_by_path&#45;&gt;interface~to_unicode -->
<g id="edge42" class="edge"><title>proc~wrap_json_get_by_path&#45;&gt;interface~to_unicode</title>
<path fill="none" stroke="black" d="M109.235,-38.8782C166.421,-23.4736 268.14,-7.10543e-15 357,-0 357,-0 357,-0 934,-0 1034.57,-0 1151.6,-18.5088 1213.13,-29.6916"/>
<polygon fill="black" stroke="black" points="1212.77,-33.1839 1223.24,-31.5538 1214.04,-26.2997 1212.77,-33.1839"/>
</g>
<!-- interface~throw_exception -->
<g id="node4" class="node"><title>interface~throw_exception</title>
<a xlink:href="../interface/throw_exception.html" xlink:title="throw_exception">
<polygon fill="#a7506f" stroke="#a7506f" points="979,-136 889,-136 889,-110 979,-110 979,-136"/>
<text text-anchor="middle" x="934" y="-120.55" font-family="Helvetica,sans-Serif" font-size="10.50" fill="white">throw_exception</text>
</a>
</g>
<!-- proc~json_get_by_path&#45;&gt;interface~throw_exception -->
<g id="edge28" class="edge"><title>proc~json_get_by_path&#45;&gt;interface~throw_exception</title>
<path fill="none" stroke="black" d="M256.324,-117.032C269.583,-120.526 284.287,-123.91 298,-126 541.555,-163.115 607.746,-177.196 852,-145 862.41,-143.628 873.375,-141.316 883.781,-138.693"/>
<polygon fill="black" stroke="black" points="884.781,-142.049 893.551,-136.104 882.988,-135.283 884.781,-142.049"/>
</g>
<!-- interface~json_get_child -->
<g id="node5" class="node"><title>interface~json_get_child</title>
<a xlink:href="../interface/json_get_child.html" xlink:title="json_get_child">
<polygon fill="#a7506f" stroke="#a7506f" points="397,-117 317,-117 317,-91 397,-91 397,-117"/>
<text text-anchor="middle" x="357" y="-101.55" font-family="Helvetica,sans-Serif" font-size="10.50" fill="white">json_get_child</text>
</a>
</g>
<!-- proc~json_get_by_path&#45;&gt;interface~json_get_child -->
<g id="edge30" class="edge"><title>proc~json_get_by_path&#45;&gt;interface~json_get_child</title>
<path fill="none" stroke="black" d="M261.752,-104C276.065,-104 291.751,-104 306.19,-104"/>
<polygon fill="black" stroke="black" points="306.445,-107.5 316.445,-104 306.445,-100.5 306.445,-107.5"/>
</g>
<!-- proc~json_clear_exceptions -->
<g id="node6" class="node"><title>proc~json_clear_exceptions</title>
<a xlink:href="../proc/json_clear_exceptions.html" xlink:title="json_clear_exceptions">
<polygon fill="#d9534f" stroke="#d9534f" points="416,-73 298,-73 298,-47 416,-47 416,-73"/>
<text text-anchor="middle" x="357" y="-57.55" font-family="Helvetica,sans-Serif" font-size="10.50" fill="white">json_clear_exceptions</text>
</a>
</g>
<!-- proc~json_get_by_path&#45;&gt;proc~json_clear_exceptions -->
<g id="edge32" class="edge"><title>proc~json_get_by_path&#45;&gt;proc~json_clear_exceptions</title>
<path fill="none" stroke="black" d="M255.815,-90.9177C271.056,-86.2605 288.398,-80.9616 304.367,-76.0823"/>
<polygon fill="black" stroke="black" points="305.561,-79.3774 314.101,-73.1079 303.515,-72.6829 305.561,-79.3774"/>
</g>
<!-- proc~string_to_integer -->
<g id="node7" class="node"><title>proc~string_to_integer</title>
<a xlink:href="../proc/string_to_integer.html" xlink:title="string_to_integer">
<polygon fill="#d94e8f" stroke="#d94e8f" points="596,-218 504,-218 504,-192 596,-192 596,-218"/>
<text text-anchor="middle" x="550" y="-202.55" font-family="Helvetica,sans-Serif" font-size="10.50" fill="white">string_to_integer</text>
</a>
</g>
<!-- proc~json_get_by_path&#45;&gt;proc~string_to_integer -->
<g id="edge34" class="edge"><title>proc~json_get_by_path&#45;&gt;proc~string_to_integer</title>
<path fill="none" stroke="black" d="M223.468,-117.128C238.099,-134.414 266.439,-164.225 298,-178 360.759,-205.391 440.342,-209.458 493.101,-208.435"/>
<polygon fill="black" stroke="black" points="493.378,-211.929 503.282,-208.169 493.194,-204.932 493.378,-211.929"/>
</g>
<!-- proc~to_uni_vec -->
<g id="node31" class="node"><title>proc~to_uni_vec</title>
<a xlink:href="../proc/to_uni_vec.html" xlink:title="to_uni_vec">
<polygon fill="#d94e8f" stroke="#d94e8f" points="1414,-73 1350,-73 1350,-47 1414,-47 1414,-73"/>
<text text-anchor="middle" x="1382" y="-57.55" font-family="Helvetica,sans-Serif" font-size="10.50" fill="white">to_uni_vec</text>
</a>
</g>
<!-- interface~to_unicode&#45;&gt;proc~to_uni_vec -->
<g id="edge36" class="edge"><title>interface~to_unicode&#45;&gt;proc~to_uni_vec</title>
<path fill="none" stroke="black" stroke-dasharray="5,2" d="M1288.78,-43.7228C1304.36,-46.443 1323.17,-49.7274 1339.8,-52.6314"/>
<polygon fill="black" stroke="black" points="1339.37,-56.1097 1349.82,-54.382 1340.58,-49.214 1339.37,-56.1097"/>
</g>
<!-- proc~to_uni -->
<g id="node32" class="node"><title>proc~to_uni</title>
<a xlink:href="../proc/to_uni.html" xlink:title="to_uni">
<polygon fill="#d94e8f" stroke="#d94e8f" points="1409,-29 1355,-29 1355,-3 1409,-3 1409,-29"/>
<text text-anchor="middle" x="1382" y="-13.55" font-family="Helvetica,sans-Serif" font-size="10.50" fill="white">to_uni</text>
</a>
</g>
<!-- interface~to_unicode&#45;&gt;proc~to_uni -->
<g id="edge38" class="edge"><title>interface~to_unicode&#45;&gt;proc~to_uni</title>
<path fill="none" stroke="black" stroke-dasharray="5,2" d="M1288.78,-32.2772C1305.97,-29.276 1327.09,-25.5878 1344.88,-22.4816"/>
<polygon fill="black" stroke="black" points="1345.66,-25.8974 1354.91,-20.7295 1344.46,-19.0017 1345.66,-25.8974"/>
</g>
<!-- proc~json_throw_exception -->
<g id="node8" class="node"><title>proc~json_throw_exception</title>
<a xlink:href="../proc/json_throw_exception.html" xlink:title="json_throw_exception">
<polygon fill="#d9534f" stroke="#d9534f" points="1314,-115 1198,-115 1198,-89 1314,-89 1314,-115"/>
<text text-anchor="middle" x="1256" y="-99.55" font-family="Helvetica,sans-Serif" font-size="10.50" fill="white">json_throw_exception</text>
</a>
</g>
<!-- interface~throw_exception&#45;&gt;proc~json_throw_exception -->
<g id="edge6" class="edge"><title>interface~throw_exception&#45;&gt;proc~json_throw_exception</title>
<path fill="none" stroke="black" stroke-dasharray="5,2" d="M979.793,-120.014C1034.07,-116.474 1125.03,-110.542 1187.65,-106.458"/>
<polygon fill="black" stroke="black" points="1188.08,-109.937 1197.83,-105.794 1187.62,-102.952 1188.08,-109.937"/>
</g>
<!-- proc~wrap_json_throw_exception -->
<g id="node9" class="node"><title>proc~wrap_json_throw_exception</title>
<a xlink:href="../proc/wrap_json_throw_exception.html" xlink:title="wrap_json_throw_exception">
<polygon fill="#d9534f" stroke="#d9534f" points="1161,-95 1017,-95 1017,-69 1161,-69 1161,-95"/>
<text text-anchor="middle" x="1089" y="-79.55" font-family="Helvetica,sans-Serif" font-size="10.50" fill="white">wrap_json_throw_exception</text>
</a>
</g>
<!-- interface~throw_exception&#45;&gt;proc~wrap_json_throw_exception -->
<g id="edge8" class="edge"><title>interface~throw_exception&#45;&gt;proc~wrap_json_throw_exception</title>
<path fill="none" stroke="black" stroke-dasharray="5,2" d="M979.667,-110.92C995.27,-106.793 1012.96,-102.114 1029.49,-97.7415"/>
<polygon fill="black" stroke="black" points="1030.83,-101.007 1039.6,-95.066 1029.04,-94.2396 1030.83,-101.007"/>
</g>
<!-- proc~json_value_get_by_index -->
<g id="node14" class="node"><title>proc~json_value_get_by_index</title>
<a xlink:href="../proc/json_value_get_by_index.html" xlink:title="json_value_get_by_index">
<polygon fill="#d9534f" stroke="#d9534f" points="834,-136 702,-136 702,-110 834,-110 834,-136"/>
<text text-anchor="middle" x="768" y="-120.55" font-family="Helvetica,sans-Serif" font-size="10.50" fill="white">json_value_get_by_index</text>
</a>
</g>
<!-- interface~json_get_child&#45;&gt;proc~json_value_get_by_index -->
<g id="edge20" class="edge"><title>interface~json_get_child&#45;&gt;proc~json_value_get_by_index</title>
<path fill="none" stroke="black" stroke-dasharray="5,2" d="M397.533,-105.874C465.715,-109.026 604.413,-115.438 691.41,-119.459"/>
<polygon fill="black" stroke="black" points="691.342,-122.96 701.493,-119.925 691.665,-115.967 691.342,-122.96"/>
</g>
<!-- proc~json_value_get_by_name_chars -->
<g id="node15" class="node"><title>proc~json_value_get_by_name_chars</title>
<a xlink:href="../proc/json_value_get_by_name_chars.html" xlink:title="json_value_get_by_name_chars">
<polygon fill="#d9534f" stroke="#d9534f" points="851,-92 685,-92 685,-66 851,-66 851,-92"/>
<text text-anchor="middle" x="768" y="-76.55" font-family="Helvetica,sans-Serif" font-size="10.50" fill="white">json_value_get_by_name_chars</text>
</a>
</g>
<!-- interface~json_get_child&#45;&gt;proc~json_value_get_by_name_chars -->
<g id="edge22" class="edge"><title>interface~json_get_child&#45;&gt;proc~json_value_get_by_name_chars</title>
<path fill="none" stroke="black" stroke-dasharray="5,2" d="M397.533,-101.534C461.332,-97.6538 586.872,-90.0175 674.023,-84.7163"/>
<polygon fill="black" stroke="black" points="674.42,-88.1988 684.189,-84.098 673.995,-81.2117 674.42,-88.1988"/>
</g>
<!-- proc~wrap_json_value_get_by_name_chars -->
<g id="node16" class="node"><title>proc~wrap_json_value_get_by_name_chars</title>
<a xlink:href="../proc/wrap_json_value_get_by_name_chars.html" xlink:title="wrap_json_value_get_by_name_chars">
<polygon fill="#d9534f" stroke="#d9534f" points="648,-57 452,-57 452,-31 648,-31 648,-57"/>
<text text-anchor="middle" x="550" y="-41.55" font-family="Helvetica,sans-Serif" font-size="10.50" fill="white">wrap_json_value_get_by_name_chars</text>
</a>
</g>
<!-- interface~json_get_child&#45;&gt;proc~wrap_json_value_get_by_name_chars -->
<g id="edge24" class="edge"><title>interface~json_get_child&#45;&gt;proc~wrap_json_value_get_by_name_chars</title>
<path fill="none" stroke="black" stroke-dasharray="5,2" d="M392.905,-90.9052C410.606,-84.609 432.327,-77.1196 452,-71 464.299,-67.174 477.552,-63.3348 490.214,-59.8011"/>
<polygon fill="black" stroke="black" points="491.506,-63.0754 500.212,-57.0387 489.641,-56.3282 491.506,-63.0754"/>
</g>
<!-- proc~string_to_integer&#45;&gt;interface~throw_exception -->
<g id="edge26" class="edge"><title>proc~string_to_integer&#45;&gt;interface~throw_exception</title>
<path fill="none" stroke="black" d="M596.527,-207.866C657.165,-210.041 765.65,-208.544 852,-178 874.09,-170.186 895.967,-155.037 911.562,-142.613"/>
<polygon fill="black" stroke="black" points="914.038,-145.109 919.541,-136.055 909.593,-139.701 914.038,-145.109"/>
</g>
<!-- proc~wrap_json_throw_exception&#45;&gt;interface~to_unicode -->
<g id="edge4" class="edge"><title>proc~wrap_json_throw_exception&#45;&gt;interface~to_unicode</title>
<path fill="none" stroke="black" d="M1138.65,-68.9177C1162.52,-62.6287 1190.83,-55.1694 1213.67,-49.1534"/>
<polygon fill="black" stroke="black" points="1214.63,-52.5182 1223.41,-46.5858 1212.85,-45.7492 1214.63,-52.5182"/>
</g>
<!-- proc~wrap_json_throw_exception&#45;&gt;proc~json_throw_exception -->
<g id="edge2" class="edge"><title>proc~wrap_json_throw_exception&#45;&gt;proc~json_throw_exception</title>
<path fill="none" stroke="black" d="M1161.76,-90.7141C1170.42,-91.7506 1179.23,-92.8059 1187.82,-93.8344"/>
<polygon fill="black" stroke="black" points="1187.43,-97.3127 1197.77,-95.0267 1188.26,-90.3623 1187.43,-97.3127"/>
</g>
<!-- proc~json_value_get_by_index&#45;&gt;interface~throw_exception -->
<g id="edge10" class="edge"><title>proc~json_value_get_by_index&#45;&gt;interface~throw_exception</title>
<path fill="none" stroke="black" d="M834.562,-123C848.938,-123 863.999,-123 877.925,-123"/>
<polygon fill="black" stroke="black" points="878.324,-126.5 888.324,-123 878.324,-119.5 878.324,-126.5"/>
</g>
<!-- proc~json_value_get_by_name_chars&#45;&gt;interface~throw_exception -->
<g id="edge12" class="edge"><title>proc~json_value_get_by_name_chars&#45;&gt;interface~throw_exception</title>
<path fill="none" stroke="black" d="M818.205,-92.0967C829.336,-95.0149 841.071,-98.1028 852,-101 860.592,-103.278 869.686,-105.703 878.569,-108.08"/>
<polygon fill="black" stroke="black" points="877.906,-111.526 888.471,-110.733 879.717,-104.764 877.906,-111.526"/>
</g>
<!-- proc~json_count -->
<g id="node18" class="node"><title>proc~json_count</title>
<a xlink:href="../proc/json_count.html" xlink:title="json_count">
<polygon fill="#d94e8f" stroke="#d94e8f" points="966,-92 902,-92 902,-66 966,-66 966,-92"/>
<text text-anchor="middle" x="934" y="-76.55" font-family="Helvetica,sans-Serif" font-size="10.50" fill="white">json_count</text>
</a>
</g>
<!-- proc~json_value_get_by_name_chars&#45;&gt;proc~json_count -->
<g id="edge14" class="edge"><title>proc~json_value_get_by_name_chars&#45;&gt;proc~json_count</title>
<path fill="none" stroke="black" d="M851.973,-79C865.656,-79 879.304,-79 891.429,-79"/>
<polygon fill="black" stroke="black" points="891.655,-82.5001 901.655,-79 891.655,-75.5001 891.655,-82.5001"/>
</g>
<!-- proc~wrap_json_value_get_by_name_chars&#45;&gt;interface~to_unicode -->
<g id="edge16" class="edge"><title>proc~wrap_json_value_get_by_name_chars&#45;&gt;interface~to_unicode</title>
<path fill="none" stroke="black" d="M648.166,-43.1657C804.161,-41.84 1102.32,-39.306 1213.13,-38.3643"/>
<polygon fill="black" stroke="black" points="1213.29,-41.8632 1223.26,-38.2782 1213.23,-34.8634 1213.29,-41.8632"/>
</g>
<!-- proc~wrap_json_value_get_by_name_chars&#45;&gt;proc~json_value_get_by_name_chars -->
<g id="edge18" class="edge"><title>proc~wrap_json_value_get_by_name_chars&#45;&gt;proc~json_value_get_by_name_chars</title>
<path fill="none" stroke="black" d="M631.175,-57.0327C646.071,-59.4242 661.709,-61.935 676.873,-64.3696"/>
<polygon fill="black" stroke="black" points="676.329,-67.8269 686.757,-65.9564 677.438,-60.9154 676.329,-67.8269"/>
</g>
</g>
</svg>
