<?xml version="1.0" encoding="UTF-8" standalone="no"?>
<!DOCTYPE svg PUBLIC "-//W3C//DTD SVG 1.1//EN"
 "http://www.w3.org/Graphics/SVG/1.1/DTD/svg11.dtd">
<!-- Generated by graphviz version 2.26.3 (20100126.1600)
 -->
<!-- Title: proc~~json_print_1~~CalledByGraph Pages: 1 -->
<svg width="368pt" height="298pt"
 viewBox="0.00 0.00 368.00 298.00" xmlns="http://www.w3.org/2000/svg" xmlns:xlink="http://www.w3.org/1999/xlink">
<g id="graph1" class="graph" transform="scale(1 1) rotate(0) translate(4 294)">
<title>proc~~json_print_1~~CalledByGraph</title>
<polygon fill="white" stroke="white" points="-4,5 -4,-294 365,-294 365,5 -4,5"/>
<!-- proc~json_print_1 -->
<g id="node1" class="node"><title>proc~json_print_1</title>
<polygon fill="none" stroke="black" points="359,-202 289,-202 289,-176 359,-176 359,-202"/>
<text text-anchor="middle" x="324" y="-186.55" font-family="Helvetica,sans-Serif" font-size="10.50">json_print_1</text>
</g>
<!-- interface~json_print -->
<g id="node2" class="node"><title>interface~json_print</title>
<a xlink:href="../interface/json_print.html" xlink:title="json_print">
<polygon fill="#a7506f" stroke="#a7506f" points="251,-158 193,-158 193,-132 251,-132 251,-158"/>
<text text-anchor="middle" x="222" y="-142.55" font-family="Helvetica,sans-Serif" font-size="10.50" fill="white">json_print</text>
</a>
</g>
<!-- interface~json_print&#45;&gt;proc~json_print_1 -->
<g id="edge32" class="edge"><title>interface~json_print&#45;&gt;proc~json_print_1</title>
<path fill="none" stroke="black" stroke-dasharray="5,2" d="M251.503,-157.727C261.787,-162.163 273.499,-167.215 284.465,-171.946"/>
<polygon fill="black" stroke="black" points="283.287,-175.249 293.856,-175.997 286.06,-168.822 283.287,-175.249"/>
</g>
<!-- proc~json_print_2 -->
<g id="node9" class="node"><title>proc~json_print_2</title>
<a xlink:href="../proc/json_print_2.html" xlink:title="json_print_2">
<polygon fill="#d9534f" stroke="#d9534f" points="359,-158 289,-158 289,-132 359,-132 359,-158"/>
<text text-anchor="middle" x="324" y="-142.55" font-family="Helvetica,sans-Serif" font-size="10.50" fill="white">json_print_2</text>
</a>
</g>
<!-- interface~json_print&#45;&gt;proc~json_print_2 -->
<g id="edge12" class="edge"><title>interface~json_print&#45;&gt;proc~json_print_2</title>
<path fill="none" stroke="black" stroke-dasharray="5,2" d="M251.503,-138.814C259.881,-138.348 269.208,-138.17 278.306,-138.283"/>
<polygon fill="black" stroke="black" points="278.336,-141.784 288.419,-138.532 278.509,-134.786 278.336,-141.784"/>
</g>
<!-- program~example2 -->
<g id="node3" class="node"><title>program~example2</title>
<a xlink:href="../program/example2.html" xlink:title="example2">
<polygon fill="#f0ad4e" stroke="#f0ad4e" points="155,-290 97,-290 97,-264 155,-264 155,-290"/>
<text text-anchor="middle" x="126" y="-274.55" font-family="Helvetica,sans-Serif" font-size="10.50" fill="white">example2</text>
</a>
</g>
<!-- program~example2&#45;&gt;interface~json_print -->
<g id="edge16" class="edge"><title>program~example2&#45;&gt;interface~json_print</title>
<path fill="none" stroke="black" d="M146.3,-263.838C149.743,-261.138 153.128,-258.15 156,-255 180.42,-228.215 200.465,-191.028 211.829,-167.491"/>
<polygon fill="black" stroke="black" points="215.059,-168.847 216.155,-158.309 208.726,-165.864 215.059,-168.847"/>
</g>
<!-- proc~test_4 -->
<g id="node4" class="node"><title>proc~test_4</title>
<a xlink:href="../proc/test_4.html" xlink:title="test_4">
<polygon fill="#d9534f" stroke="#d9534f" points="153,-246 99,-246 99,-220 153,-220 153,-246"/>
<text text-anchor="middle" x="126" y="-230.55" font-family="Helvetica,sans-Serif" font-size="10.50" fill="white">test_4</text>
</a>
</g>
<!-- proc~test_4&#45;&gt;interface~json_print -->
<g id="edge18" class="edge"><title>proc~test_4&#45;&gt;interface~json_print</title>
<path fill="none" stroke="black" d="M144.746,-219.935C148.553,-217.093 152.471,-214.028 156,-211 172.655,-196.711 190.158,-179.071 202.952,-165.623"/>
<polygon fill="black" stroke="black" points="205.59,-167.927 209.898,-158.247 200.494,-163.128 205.59,-167.927"/>
</g>
<!-- proc~test_12 -->
<g id="node5" class="node"><title>proc~test_12</title>
<a xlink:href="../proc/test_12.html" xlink:title="test_12">
<polygon fill="#d9534f" stroke="#d9534f" points="153,-202 99,-202 99,-176 153,-176 153,-202"/>
<text text-anchor="middle" x="126" y="-186.55" font-family="Helvetica,sans-Serif" font-size="10.50" fill="white">test_12</text>
</a>
</g>
<!-- proc~test_12&#45;&gt;interface~json_print -->
<g id="edge20" class="edge"><title>proc~test_12&#45;&gt;interface~json_print</title>
<path fill="none" stroke="black" d="M153.253,-176.509C162.845,-172.113 173.805,-167.089 184.113,-162.365"/>
<polygon fill="black" stroke="black" points="185.707,-165.485 193.339,-158.136 182.79,-159.121 185.707,-165.485"/>
</g>
<!-- proc~test_14 -->
<g id="node6" class="node"><title>proc~test_14</title>
<a xlink:href="../proc/test_14.html" xlink:title="test_14">
<polygon fill="#d9534f" stroke="#d9534f" points="153,-158 99,-158 99,-132 153,-132 153,-158"/>
<text text-anchor="middle" x="126" y="-142.55" font-family="Helvetica,sans-Serif" font-size="10.50" fill="white">test_14</text>
</a>
</g>
<!-- proc~test_14&#45;&gt;interface~json_print -->
<g id="edge22" class="edge"><title>proc~test_14&#45;&gt;interface~json_print</title>
<path fill="none" stroke="black" d="M153.253,-145C162.209,-145 172.358,-145 182.056,-145"/>
<polygon fill="black" stroke="black" points="182.323,-148.5 192.323,-145 182.323,-141.5 182.323,-148.5"/>
</g>
<!-- proc~test_8 -->
<g id="node7" class="node"><title>proc~test_8</title>
<a xlink:href="../proc/test_8.html" xlink:title="test_8">
<polygon fill="#d9534f" stroke="#d9534f" points="153,-114 99,-114 99,-88 153,-88 153,-114"/>
<text text-anchor="middle" x="126" y="-98.55" font-family="Helvetica,sans-Serif" font-size="10.50" fill="white">test_8</text>
</a>
</g>
<!-- proc~test_8&#45;&gt;interface~json_print -->
<g id="edge24" class="edge"><title>proc~test_8&#45;&gt;interface~json_print</title>
<path fill="none" stroke="black" d="M153.253,-113.491C162.845,-117.887 173.805,-122.911 184.113,-127.635"/>
<polygon fill="black" stroke="black" points="182.79,-130.879 193.339,-131.864 185.707,-124.515 182.79,-130.879"/>
</g>
<!-- proc~test_7 -->
<g id="node8" class="node"><title>proc~test_7</title>
<a xlink:href="../proc/test_7.html" xlink:title="test_7">
<polygon fill="#d9534f" stroke="#d9534f" points="153,-70 99,-70 99,-44 153,-44 153,-70"/>
<text text-anchor="middle" x="126" y="-54.55" font-family="Helvetica,sans-Serif" font-size="10.50" fill="white">test_7</text>
</a>
</g>
<!-- proc~test_7&#45;&gt;interface~json_print -->
<g id="edge26" class="edge"><title>proc~test_7&#45;&gt;interface~json_print</title>
<path fill="none" stroke="black" d="M144.746,-70.0655C148.553,-72.9071 152.471,-75.9721 156,-79 172.655,-93.2887 190.158,-110.929 202.952,-124.377"/>
<polygon fill="black" stroke="black" points="200.494,-126.872 209.898,-131.753 205.59,-122.073 200.494,-126.872"/>
</g>
<!-- proc~json_print_2&#45;&gt;interface~json_print -->
<g id="edge28" class="edge"><title>proc~json_print_2&#45;&gt;interface~json_print</title>
<path fill="none" stroke="black" d="M288.419,-151.468C279.753,-151.794 270.431,-151.837 261.591,-151.598"/>
<polygon fill="black" stroke="black" points="261.637,-148.097 251.503,-151.186 261.352,-155.091 261.637,-148.097"/>
</g>
<!-- proc~test_2 -->
<g id="node10" class="node"><title>proc~test_2</title>
<a xlink:href="../proc/test_2.html" xlink:title="test_2">
<polygon fill="#d9534f" stroke="#d9534f" points="153,-26 99,-26 99,-1.24345e-14 153,-3.55271e-15 153,-26"/>
<text text-anchor="middle" x="126" y="-10.55" font-family="Helvetica,sans-Serif" font-size="10.50" fill="white">test_2</text>
</a>
</g>
<!-- proc~test_2&#45;&gt;interface~json_print -->
<g id="edge30" class="edge"><title>proc~test_2&#45;&gt;interface~json_print</title>
<path fill="none" stroke="black" d="M146.3,-26.1615C149.743,-28.8618 153.128,-31.8499 156,-35 180.42,-61.7853 200.465,-98.972 211.829,-122.509"/>
<polygon fill="black" stroke="black" points="208.726,-124.136 216.155,-131.691 215.059,-121.153 208.726,-124.136"/>
</g>
<!-- program~jf_test_4 -->
<g id="node11" class="node"><title>program~jf_test_4</title>
<a xlink:href="../program/jf_test_4.html" xlink:title="jf_test_4">
<polygon fill="#f0ad4e" stroke="#f0ad4e" points="57,-246 3,-246 3,-220 57,-220 57,-246"/>
<text text-anchor="middle" x="30" y="-230.55" font-family="Helvetica,sans-Serif" font-size="10.50" fill="white">jf_test_4</text>
</a>
</g>
<!-- program~jf_test_4&#45;&gt;proc~test_4 -->
<g id="edge2" class="edge"><title>program~jf_test_4&#45;&gt;proc~test_4</title>
<path fill="none" stroke="black" d="M57.253,-233C66.9815,-233 78.118,-233 88.5542,-233"/>
<polygon fill="black" stroke="black" points="88.6789,-236.5 98.6789,-233 88.6789,-229.5 88.6789,-236.5"/>
</g>
<!-- program~jf_test_12 -->
<g id="node13" class="node"><title>program~jf_test_12</title>
<a xlink:href="../program/jf_test_12.html" xlink:title="jf_test_12">
<polygon fill="#f0ad4e" stroke="#f0ad4e" points="59,-202 1,-202 1,-176 59,-176 59,-202"/>
<text text-anchor="middle" x="30" y="-186.55" font-family="Helvetica,sans-Serif" font-size="10.50" fill="white">jf_test_12</text>
</a>
</g>
<!-- program~jf_test_12&#45;&gt;proc~test_12 -->
<g id="edge4" class="edge"><title>program~jf_test_12&#45;&gt;proc~test_12</title>
<path fill="none" stroke="black" d="M59.5865,-189C68.811,-189 79.1048,-189 88.7821,-189"/>
<polygon fill="black" stroke="black" points="88.9612,-192.5 98.9612,-189 88.9612,-185.5 88.9612,-192.5"/>
</g>
<!-- program~jf_test_14 -->
<g id="node15" class="node"><title>program~jf_test_14</title>
<a xlink:href="../program/jf_test_14.html" xlink:title="jf_test_14">
<polygon fill="#f0ad4e" stroke="#f0ad4e" points="59,-158 1,-158 1,-132 59,-132 59,-158"/>
<text text-anchor="middle" x="30" y="-142.55" font-family="Helvetica,sans-Serif" font-size="10.50" fill="white">jf_test_14</text>
</a>
</g>
<!-- program~jf_test_14&#45;&gt;proc~test_14 -->
<g id="edge6" class="edge"><title>program~jf_test_14&#45;&gt;proc~test_14</title>
<path fill="none" stroke="black" d="M59.5865,-145C68.811,-145 79.1048,-145 88.7821,-145"/>
<polygon fill="black" stroke="black" points="88.9612,-148.5 98.9612,-145 88.9612,-141.5 88.9612,-148.5"/>
</g>
<!-- program~jf_test_8 -->
<g id="node17" class="node"><title>program~jf_test_8</title>
<a xlink:href="../program/jf_test_8.html" xlink:title="jf_test_8">
<polygon fill="#f0ad4e" stroke="#f0ad4e" points="57,-114 3,-114 3,-88 57,-88 57,-114"/>
<text text-anchor="middle" x="30" y="-98.55" font-family="Helvetica,sans-Serif" font-size="10.50" fill="white">jf_test_8</text>
</a>
</g>
<!-- program~jf_test_8&#45;&gt;proc~test_8 -->
<g id="edge8" class="edge"><title>program~jf_test_8&#45;&gt;proc~test_8</title>
<path fill="none" stroke="black" d="M57.253,-101C66.9815,-101 78.118,-101 88.5542,-101"/>
<polygon fill="black" stroke="black" points="88.6789,-104.5 98.6789,-101 88.6789,-97.5001 88.6789,-104.5"/>
</g>
<!-- program~jf_test_7 -->
<g id="node19" class="node"><title>program~jf_test_7</title>
<a xlink:href="../program/jf_test_7.html" xlink:title="jf_test_7">
<polygon fill="#f0ad4e" stroke="#f0ad4e" points="57,-70 3,-70 3,-44 57,-44 57,-70"/>
<text text-anchor="middle" x="30" y="-54.55" font-family="Helvetica,sans-Serif" font-size="10.50" fill="white">jf_test_7</text>
</a>
</g>
<!-- program~jf_test_7&#45;&gt;proc~test_7 -->
<g id="edge10" class="edge"><title>program~jf_test_7&#45;&gt;proc~test_7</title>
<path fill="none" stroke="black" d="M57.253,-57C66.9815,-57 78.118,-57 88.5542,-57"/>
<polygon fill="black" stroke="black" points="88.6789,-60.5001 98.6789,-57 88.6789,-53.5001 88.6789,-60.5001"/>
</g>
<!-- program~jf_test_2 -->
<g id="node22" class="node"><title>program~jf_test_2</title>
<a xlink:href="../program/jf_test_2.html" xlink:title="jf_test_2">
<polygon fill="#f0ad4e" stroke="#f0ad4e" points="57,-26 3,-26 3,-1.24345e-14 57,-3.55271e-15 57,-26"/>
<text text-anchor="middle" x="30" y="-10.55" font-family="Helvetica,sans-Serif" font-size="10.50" fill="white">jf_test_2</text>
</a>
</g>
<!-- program~jf_test_2&#45;&gt;proc~test_2 -->
<g id="edge14" class="edge"><title>program~jf_test_2&#45;&gt;proc~test_2</title>
<path fill="none" stroke="black" d="M57.253,-13C66.9815,-13 78.118,-13 88.5542,-13"/>
<polygon fill="black" stroke="black" points="88.6789,-16.5001 98.6789,-13 88.6789,-9.5001 88.6789,-16.5001"/>
</g>
</g>
</svg>
