<?xml version="1.0" encoding="UTF-8" standalone="no"?>
<!DOCTYPE svg PUBLIC "-//W3C//DTD SVG 1.1//EN"
 "http://www.w3.org/Graphics/SVG/1.1/DTD/svg11.dtd">
<!-- Generated by graphviz version 2.26.3 (20100126.1600)
 -->
<!-- Title: proc~~json_value_print~~CalledByGraph Pages: 1 -->
<svg width="626pt" height="298pt"
 viewBox="0.00 0.00 626.00 298.00" xmlns="http://www.w3.org/2000/svg" xmlns:xlink="http://www.w3.org/1999/xlink">
<g id="graph1" class="graph" transform="scale(1 1) rotate(0) translate(4 294)">
<title>proc~~json_value_print~~CalledByGraph</title>
<polygon fill="white" stroke="white" points="-4,5 -4,-294 623,-294 623,5 -4,5"/>
<!-- proc~json_value_print -->
<g id="node1" class="node"><title>proc~json_value_print</title>
<polygon fill="none" stroke="black" points="617,-158 527,-158 527,-132 617,-132 617,-158"/>
<text text-anchor="middle" x="572" y="-142.55" font-family="Helvetica,sans-Serif" font-size="10.50">json_value_print</text>
</g>
<!-- proc~json_value_print&#45;&gt;proc~json_value_print -->
<g id="edge46" class="edge"><title>proc~json_value_print&#45;&gt;proc~json_value_print</title>
<path fill="none" stroke="black" d="M546.622,-158.06C538.931,-167.1 547.391,-176 572,-176 586.996,-176 595.996,-172.695 598.998,-168.067"/>
<polygon fill="black" stroke="black" points="602.431,-167.373 597.378,-158.06 595.521,-168.491 602.431,-167.373"/>
</g>
<!-- proc~json_print_1 -->
<g id="node2" class="node"><title>proc~json_print_1</title>
<a xlink:href="../proc/json_print_1.html" xlink:title="json_print_1">
<polygon fill="#d9534f" stroke="#d9534f" points="457,-202 387,-202 387,-176 457,-176 457,-202"/>
<text text-anchor="middle" x="422" y="-186.55" font-family="Helvetica,sans-Serif" font-size="10.50" fill="white">json_print_1</text>
</a>
</g>
<!-- proc~json_print_1&#45;&gt;proc~json_value_print -->
<g id="edge40" class="edge"><title>proc~json_print_1&#45;&gt;proc~json_value_print</title>
<path fill="none" stroke="black" d="M457.548,-178.573C475.565,-173.288 497.829,-166.757 517.917,-160.864"/>
<polygon fill="black" stroke="black" points="518.965,-164.205 527.575,-158.031 516.995,-157.488 518.965,-164.205"/>
</g>
<!-- proc~json_file_print_1 -->
<g id="node3" class="node"><title>proc~json_file_print_1</title>
<a xlink:href="../proc/json_file_print_1.html" xlink:title="json_file_print_1">
<polygon fill="#d9534f" stroke="#d9534f" points="467,-114 377,-114 377,-88 467,-88 467,-114"/>
<text text-anchor="middle" x="422" y="-98.55" font-family="Helvetica,sans-Serif" font-size="10.50" fill="white">json_file_print_1</text>
</a>
</g>
<!-- proc~json_file_print_1&#45;&gt;proc~json_value_print -->
<g id="edge42" class="edge"><title>proc~json_file_print_1&#45;&gt;proc~json_value_print</title>
<path fill="none" stroke="black" d="M466.599,-114.082C482.697,-118.805 501.045,-124.187 517.871,-129.122"/>
<polygon fill="black" stroke="black" points="516.992,-132.512 527.573,-131.968 518.963,-125.795 516.992,-132.512"/>
</g>
<!-- proc~json_value_to_string -->
<g id="node4" class="node"><title>proc~json_value_to_string</title>
<a xlink:href="../proc/json_value_to_string.html" xlink:title="json_value_to_string">
<polygon fill="#d9534f" stroke="#d9534f" points="477,-246 367,-246 367,-220 477,-220 477,-246"/>
<text text-anchor="middle" x="422" y="-230.55" font-family="Helvetica,sans-Serif" font-size="10.50" fill="white">json_value_to_string</text>
</a>
</g>
<!-- proc~json_value_to_string&#45;&gt;proc~json_value_print -->
<g id="edge44" class="edge"><title>proc~json_value_to_string&#45;&gt;proc~json_value_print</title>
<path fill="none" stroke="black" d="M470.107,-219.88C476.955,-217.317 483.777,-214.362 490,-211 512.865,-198.648 535.631,-179.652 551.352,-165.206"/>
<polygon fill="black" stroke="black" points="553.999,-167.521 558.894,-158.125 549.208,-162.418 553.999,-167.521"/>
</g>
<!-- proc~json_file_print_to_console -->
<g id="node5" class="node"><title>proc~json_file_print_to_console</title>
<a xlink:href="../proc/json_file_print_to_console.html" xlink:title="json_file_print_to_console">
<polygon fill="#d9534f" stroke="#d9534f" points="490,-70 354,-70 354,-44 490,-44 490,-70"/>
<text text-anchor="middle" x="422" y="-54.55" font-family="Helvetica,sans-Serif" font-size="10.50" fill="white">json_file_print_to_console</text>
</a>
</g>
<!-- proc~json_file_print_to_console&#45;&gt;proc~json_value_print -->
<g id="edge48" class="edge"><title>proc~json_file_print_to_console&#45;&gt;proc~json_value_print</title>
<path fill="none" stroke="black" d="M470.107,-70.1198C476.955,-72.6831 483.777,-75.6384 490,-79 512.865,-91.3523 535.631,-110.348 551.352,-124.794"/>
<polygon fill="black" stroke="black" points="549.208,-127.582 558.894,-131.875 553.999,-122.479 549.208,-127.582"/>
</g>
<!-- interface~json_print -->
<g id="node6" class="node"><title>interface~json_print</title>
<a xlink:href="../interface/json_print.html" xlink:title="json_print">
<polygon fill="#a7506f" stroke="#a7506f" points="284,-158 226,-158 226,-132 284,-132 284,-158"/>
<text text-anchor="middle" x="255" y="-142.55" font-family="Helvetica,sans-Serif" font-size="10.50" fill="white">json_print</text>
</a>
</g>
<!-- interface~json_print&#45;&gt;proc~json_print_1 -->
<g id="edge32" class="edge"><title>interface~json_print&#45;&gt;proc~json_print_1</title>
<path fill="none" stroke="black" stroke-dasharray="5,2" d="M284.856,-152.866C310.285,-159.566 347.225,-169.299 376.361,-176.975"/>
<polygon fill="black" stroke="black" points="375.749,-180.433 386.31,-179.597 377.532,-173.664 375.749,-180.433"/>
</g>
<!-- proc~json_print_2 -->
<g id="node13" class="node"><title>proc~json_print_2</title>
<a xlink:href="../proc/json_print_2.html" xlink:title="json_print_2">
<polygon fill="#d9534f" stroke="#d9534f" points="457,-158 387,-158 387,-132 457,-132 457,-158"/>
<text text-anchor="middle" x="422" y="-142.55" font-family="Helvetica,sans-Serif" font-size="10.50" fill="white">json_print_2</text>
</a>
</g>
<!-- interface~json_print&#45;&gt;proc~json_print_2 -->
<g id="edge12" class="edge"><title>interface~json_print&#45;&gt;proc~json_print_2</title>
<path fill="none" stroke="black" stroke-dasharray="5,2" d="M284.856,-139.684C310.174,-138.087 346.902,-137.824 375.979,-138.895"/>
<polygon fill="black" stroke="black" points="376.166,-142.406 386.31,-139.35 376.474,-135.413 376.166,-142.406"/>
</g>
<!-- program~example2 -->
<g id="node7" class="node"><title>program~example2</title>
<a xlink:href="../program/example2.html" xlink:title="example2">
<polygon fill="#f0ad4e" stroke="#f0ad4e" points="155,-246 97,-246 97,-220 155,-220 155,-246"/>
<text text-anchor="middle" x="126" y="-230.55" font-family="Helvetica,sans-Serif" font-size="10.50" fill="white">example2</text>
</a>
</g>
<!-- program~example2&#45;&gt;interface~json_print -->
<g id="edge16" class="edge"><title>program~example2&#45;&gt;interface~json_print</title>
<path fill="none" stroke="black" d="M145.313,-219.826C166.972,-205.05 202.293,-180.955 226.984,-164.111"/>
<polygon fill="black" stroke="black" points="229.267,-166.791 235.555,-158.265 225.322,-161.009 229.267,-166.791"/>
</g>
<!-- proc~test_4 -->
<g id="node8" class="node"><title>proc~test_4</title>
<a xlink:href="../proc/test_4.html" xlink:title="test_4">
<polygon fill="#d9534f" stroke="#d9534f" points="153,-290 99,-290 99,-264 153,-264 153,-290"/>
<text text-anchor="middle" x="126" y="-274.55" font-family="Helvetica,sans-Serif" font-size="10.50" fill="white">test_4</text>
</a>
</g>
<!-- proc~test_4&#45;&gt;interface~json_print -->
<g id="edge18" class="edge"><title>proc~test_4&#45;&gt;interface~json_print</title>
<path fill="none" stroke="black" d="M145.302,-263.962C148.99,-261.166 152.72,-258.111 156,-255 174.333,-237.613 175.265,-229.93 192,-211 205.815,-195.373 222.085,-178.362 234.63,-165.523"/>
<polygon fill="black" stroke="black" points="237.393,-167.705 241.905,-158.119 232.4,-162.799 237.393,-167.705"/>
</g>
<!-- interface~json_print_to_string -->
<g id="node39" class="node"><title>interface~json_print_to_string</title>
<a xlink:href="../interface/json_print_to_string.html" xlink:title="json_print_to_string">
<polygon fill="#a7506f" stroke="#a7506f" points="308,-290 202,-290 202,-264 308,-264 308,-290"/>
<text text-anchor="middle" x="255" y="-274.55" font-family="Helvetica,sans-Serif" font-size="10.50" fill="white">json_print_to_string</text>
</a>
</g>
<!-- proc~test_4&#45;&gt;interface~json_print_to_string -->
<g id="edge36" class="edge"><title>proc~test_4&#45;&gt;interface~json_print_to_string</title>
<path fill="none" stroke="black" d="M153.043,-277C164.346,-277 177.999,-277 191.587,-277"/>
<polygon fill="black" stroke="black" points="191.926,-280.5 201.926,-277 191.926,-273.5 191.926,-280.5"/>
</g>
<!-- proc~test_12 -->
<g id="node9" class="node"><title>proc~test_12</title>
<a xlink:href="../proc/test_12.html" xlink:title="test_12">
<polygon fill="#d9534f" stroke="#d9534f" points="153,-202 99,-202 99,-176 153,-176 153,-202"/>
<text text-anchor="middle" x="126" y="-186.55" font-family="Helvetica,sans-Serif" font-size="10.50" fill="white">test_12</text>
</a>
</g>
<!-- proc~test_12&#45;&gt;interface~json_print -->
<g id="edge20" class="edge"><title>proc~test_12&#45;&gt;interface~json_print</title>
<path fill="none" stroke="black" d="M153.043,-179.776C171.201,-173.583 195.421,-165.322 215.698,-158.405"/>
<polygon fill="black" stroke="black" points="216.958,-161.674 225.292,-155.133 214.698,-155.049 216.958,-161.674"/>
</g>
<!-- proc~test_14 -->
<g id="node10" class="node"><title>proc~test_14</title>
<a xlink:href="../proc/test_14.html" xlink:title="test_14">
<polygon fill="#d9534f" stroke="#d9534f" points="153,-158 99,-158 99,-132 153,-132 153,-158"/>
<text text-anchor="middle" x="126" y="-142.55" font-family="Helvetica,sans-Serif" font-size="10.50" fill="white">test_14</text>
</a>
</g>
<!-- proc~test_14&#45;&gt;interface~json_print -->
<g id="edge22" class="edge"><title>proc~test_14&#45;&gt;interface~json_print</title>
<path fill="none" stroke="black" d="M153.043,-145C171.036,-145 194.981,-145 215.144,-145"/>
<polygon fill="black" stroke="black" points="215.292,-148.5 225.292,-145 215.292,-141.5 215.292,-148.5"/>
</g>
<!-- proc~test_8 -->
<g id="node11" class="node"><title>proc~test_8</title>
<a xlink:href="../proc/test_8.html" xlink:title="test_8">
<polygon fill="#d9534f" stroke="#d9534f" points="153,-114 99,-114 99,-88 153,-88 153,-114"/>
<text text-anchor="middle" x="126" y="-98.55" font-family="Helvetica,sans-Serif" font-size="10.50" fill="white">test_8</text>
</a>
</g>
<!-- proc~test_8&#45;&gt;interface~json_print -->
<g id="edge24" class="edge"><title>proc~test_8&#45;&gt;interface~json_print</title>
<path fill="none" stroke="black" d="M153.043,-110.224C171.201,-116.417 195.421,-124.678 215.698,-131.595"/>
<polygon fill="black" stroke="black" points="214.698,-134.951 225.292,-134.867 216.958,-128.326 214.698,-134.951"/>
</g>
<!-- proc~test_7 -->
<g id="node12" class="node"><title>proc~test_7</title>
<a xlink:href="../proc/test_7.html" xlink:title="test_7">
<polygon fill="#d9534f" stroke="#d9534f" points="153,-70 99,-70 99,-44 153,-44 153,-70"/>
<text text-anchor="middle" x="126" y="-54.55" font-family="Helvetica,sans-Serif" font-size="10.50" fill="white">test_7</text>
</a>
</g>
<!-- proc~test_7&#45;&gt;interface~json_print -->
<g id="edge26" class="edge"><title>proc~test_7&#45;&gt;interface~json_print</title>
<path fill="none" stroke="black" d="M145.313,-70.1745C166.972,-84.9498 202.293,-109.045 226.984,-125.889"/>
<polygon fill="black" stroke="black" points="225.322,-128.991 235.555,-131.735 229.267,-123.209 225.322,-128.991"/>
</g>
<!-- proc~json_print_2&#45;&gt;interface~json_print -->
<g id="edge28" class="edge"><title>proc~json_print_2&#45;&gt;interface~json_print</title>
<path fill="none" stroke="black" d="M386.31,-150.65C359.518,-152.043 322.821,-152.113 295.032,-150.861"/>
<polygon fill="black" stroke="black" points="295.029,-147.356 284.856,-150.316 294.655,-154.346 295.029,-147.356"/>
</g>
<!-- proc~test_2 -->
<g id="node14" class="node"><title>proc~test_2</title>
<a xlink:href="../proc/test_2.html" xlink:title="test_2">
<polygon fill="#d9534f" stroke="#d9534f" points="153,-26 99,-26 99,-1.24345e-14 153,-3.55271e-15 153,-26"/>
<text text-anchor="middle" x="126" y="-10.55" font-family="Helvetica,sans-Serif" font-size="10.50" fill="white">test_2</text>
</a>
</g>
<!-- proc~test_2&#45;&gt;interface~json_print -->
<g id="edge30" class="edge"><title>proc~test_2&#45;&gt;interface~json_print</title>
<path fill="none" stroke="black" d="M145.188,-26.1615C148.885,-28.9478 152.647,-31.967 156,-35 187.393,-63.3992 219.386,-100.809 238.202,-123.866"/>
<polygon fill="black" stroke="black" points="235.503,-126.094 244.513,-131.668 240.945,-121.692 235.503,-126.094"/>
</g>
<!-- program~jf_test_4 -->
<g id="node15" class="node"><title>program~jf_test_4</title>
<a xlink:href="../program/jf_test_4.html" xlink:title="jf_test_4">
<polygon fill="#f0ad4e" stroke="#f0ad4e" points="57,-290 3,-290 3,-264 57,-264 57,-290"/>
<text text-anchor="middle" x="30" y="-274.55" font-family="Helvetica,sans-Serif" font-size="10.50" fill="white">jf_test_4</text>
</a>
</g>
<!-- program~jf_test_4&#45;&gt;proc~test_4 -->
<g id="edge2" class="edge"><title>program~jf_test_4&#45;&gt;proc~test_4</title>
<path fill="none" stroke="black" d="M57.253,-277C66.9815,-277 78.118,-277 88.5542,-277"/>
<polygon fill="black" stroke="black" points="88.6789,-280.5 98.6789,-277 88.6789,-273.5 88.6789,-280.5"/>
</g>
<!-- program~jf_test_12 -->
<g id="node17" class="node"><title>program~jf_test_12</title>
<a xlink:href="../program/jf_test_12.html" xlink:title="jf_test_12">
<polygon fill="#f0ad4e" stroke="#f0ad4e" points="59,-202 1,-202 1,-176 59,-176 59,-202"/>
<text text-anchor="middle" x="30" y="-186.55" font-family="Helvetica,sans-Serif" font-size="10.50" fill="white">jf_test_12</text>
</a>
</g>
<!-- program~jf_test_12&#45;&gt;proc~test_12 -->
<g id="edge4" class="edge"><title>program~jf_test_12&#45;&gt;proc~test_12</title>
<path fill="none" stroke="black" d="M59.5865,-189C68.811,-189 79.1048,-189 88.7821,-189"/>
<polygon fill="black" stroke="black" points="88.9612,-192.5 98.9612,-189 88.9612,-185.5 88.9612,-192.5"/>
</g>
<!-- program~jf_test_14 -->
<g id="node19" class="node"><title>program~jf_test_14</title>
<a xlink:href="../program/jf_test_14.html" xlink:title="jf_test_14">
<polygon fill="#f0ad4e" stroke="#f0ad4e" points="59,-158 1,-158 1,-132 59,-132 59,-158"/>
<text text-anchor="middle" x="30" y="-142.55" font-family="Helvetica,sans-Serif" font-size="10.50" fill="white">jf_test_14</text>
</a>
</g>
<!-- program~jf_test_14&#45;&gt;proc~test_14 -->
<g id="edge6" class="edge"><title>program~jf_test_14&#45;&gt;proc~test_14</title>
<path fill="none" stroke="black" d="M59.5865,-145C68.811,-145 79.1048,-145 88.7821,-145"/>
<polygon fill="black" stroke="black" points="88.9612,-148.5 98.9612,-145 88.9612,-141.5 88.9612,-148.5"/>
</g>
<!-- program~jf_test_8 -->
<g id="node21" class="node"><title>program~jf_test_8</title>
<a xlink:href="../program/jf_test_8.html" xlink:title="jf_test_8">
<polygon fill="#f0ad4e" stroke="#f0ad4e" points="57,-114 3,-114 3,-88 57,-88 57,-114"/>
<text text-anchor="middle" x="30" y="-98.55" font-family="Helvetica,sans-Serif" font-size="10.50" fill="white">jf_test_8</text>
</a>
</g>
<!-- program~jf_test_8&#45;&gt;proc~test_8 -->
<g id="edge8" class="edge"><title>program~jf_test_8&#45;&gt;proc~test_8</title>
<path fill="none" stroke="black" d="M57.253,-101C66.9815,-101 78.118,-101 88.5542,-101"/>
<polygon fill="black" stroke="black" points="88.6789,-104.5 98.6789,-101 88.6789,-97.5001 88.6789,-104.5"/>
</g>
<!-- program~jf_test_7 -->
<g id="node23" class="node"><title>program~jf_test_7</title>
<a xlink:href="../program/jf_test_7.html" xlink:title="jf_test_7">
<polygon fill="#f0ad4e" stroke="#f0ad4e" points="57,-70 3,-70 3,-44 57,-44 57,-70"/>
<text text-anchor="middle" x="30" y="-54.55" font-family="Helvetica,sans-Serif" font-size="10.50" fill="white">jf_test_7</text>
</a>
</g>
<!-- program~jf_test_7&#45;&gt;proc~test_7 -->
<g id="edge10" class="edge"><title>program~jf_test_7&#45;&gt;proc~test_7</title>
<path fill="none" stroke="black" d="M57.253,-57C66.9815,-57 78.118,-57 88.5542,-57"/>
<polygon fill="black" stroke="black" points="88.6789,-60.5001 98.6789,-57 88.6789,-53.5001 88.6789,-60.5001"/>
</g>
<!-- program~jf_test_2 -->
<g id="node26" class="node"><title>program~jf_test_2</title>
<a xlink:href="../program/jf_test_2.html" xlink:title="jf_test_2">
<polygon fill="#f0ad4e" stroke="#f0ad4e" points="57,-26 3,-26 3,-1.24345e-14 57,-3.55271e-15 57,-26"/>
<text text-anchor="middle" x="30" y="-10.55" font-family="Helvetica,sans-Serif" font-size="10.50" fill="white">jf_test_2</text>
</a>
</g>
<!-- program~jf_test_2&#45;&gt;proc~test_2 -->
<g id="edge14" class="edge"><title>program~jf_test_2&#45;&gt;proc~test_2</title>
<path fill="none" stroke="black" d="M57.253,-13C66.9815,-13 78.118,-13 88.5542,-13"/>
<polygon fill="black" stroke="black" points="88.6789,-16.5001 98.6789,-13 88.6789,-9.5001 88.6789,-16.5001"/>
</g>
<!-- proc~json_file_print_to_string -->
<g id="node37" class="node"><title>proc~json_file_print_to_string</title>
<a xlink:href="../proc/json_file_print_to_string.html" xlink:title="json_file_print_to_string">
<polygon fill="#d9534f" stroke="#d9534f" points="318,-246 192,-246 192,-220 318,-220 318,-246"/>
<text text-anchor="middle" x="255" y="-230.55" font-family="Helvetica,sans-Serif" font-size="10.50" fill="white">json_file_print_to_string</text>
</a>
</g>
<!-- proc~json_file_print_to_string&#45;&gt;proc~json_value_to_string -->
<g id="edge34" class="edge"><title>proc~json_file_print_to_string&#45;&gt;proc~json_value_to_string</title>
<path fill="none" stroke="black" d="M318.136,-233C330.547,-233 343.598,-233 356.098,-233"/>
<polygon fill="black" stroke="black" points="356.442,-236.5 366.442,-233 356.442,-229.5 356.442,-236.5"/>
</g>
<!-- interface~json_print_to_string&#45;&gt;proc~json_value_to_string -->
<g id="edge38" class="edge"><title>interface~json_print_to_string&#45;&gt;proc~json_value_to_string</title>
<path fill="none" stroke="black" stroke-dasharray="5,2" d="M304.653,-263.918C322.911,-259.107 343.768,-253.612 362.785,-248.602"/>
<polygon fill="black" stroke="black" points="363.76,-251.964 372.538,-246.032 361.976,-245.195 363.76,-251.964"/>
</g>
</g>
</svg>
