<?xml version="1.0" encoding="UTF-8" standalone="no"?>
<!DOCTYPE svg PUBLIC "-//W3C//DTD SVG 1.1//EN"
 "http://www.w3.org/Graphics/SVG/1.1/DTD/svg11.dtd">
<!-- Generated by graphviz version 2.26.3 (20100126.1600)
 -->
<!-- Title: proc~~parse_value~~CalledByGraph Pages: 1 -->
<svg width="641pt" height="110pt"
 viewBox="0.00 0.00 641.00 109.92" xmlns="http://www.w3.org/2000/svg" xmlns:xlink="http://www.w3.org/1999/xlink">
<g id="graph1" class="graph" transform="scale(0.66219 0.66219) rotate(0) translate(4 162)">
<title>proc~~parse_value~~CalledByGraph</title>
<polygon fill="white" stroke="white" points="-4,5 -4,-162 965,-162 965,5 -4,5"/>
<!-- proc~parse_value -->
<g id="node1" class="node"><title>proc~parse_value</title>
<polygon fill="none" stroke="black" points="849,-73 779,-73 779,-47 849,-47 849,-73"/>
<text text-anchor="middle" x="814" y="-57.55" font-family="Helvetica,sans-Serif" font-size="10.50">parse_value</text>
</g>
<!-- proc~parse_object -->
<g id="node3" class="node"><title>proc~parse_object</title>
<a xlink:href="../proc/parse_object.html" xlink:title="parse_object">
<polygon fill="#d9534f" stroke="#d9534f" points="960,-95 886,-95 886,-69 960,-69 960,-95"/>
<text text-anchor="middle" x="923" y="-79.55" font-family="Helvetica,sans-Serif" font-size="10.50" fill="white">parse_object</text>
</a>
</g>
<!-- proc~parse_value&#45;&gt;proc~parse_object -->
<g id="edge22" class="edge"><title>proc~parse_value&#45;&gt;proc~parse_object</title>
<path fill="none" stroke="black" d="M849.691,-60.8244C859.183,-62.3516 869.544,-64.3596 879.407,-66.5731"/>
<polygon fill="black" stroke="black" points="878.912,-70.0523 889.449,-68.9425 880.52,-63.2394 878.912,-70.0523"/>
</g>
<!-- proc~parse_array -->
<g id="node5" class="node"><title>proc~parse_array</title>
<a xlink:href="../proc/parse_array.html" xlink:title="parse_array">
<polygon fill="#d9534f" stroke="#d9534f" points="958,-51 888,-51 888,-25 958,-25 958,-51"/>
<text text-anchor="middle" x="923" y="-35.55" font-family="Helvetica,sans-Serif" font-size="10.50" fill="white">parse_array</text>
</a>
</g>
<!-- proc~parse_value&#45;&gt;proc~parse_array -->
<g id="edge28" class="edge"><title>proc~parse_value&#45;&gt;proc~parse_array</title>
<path fill="none" stroke="black" d="M847.593,-46.9321C857.164,-44.5564 867.748,-42.2959 877.885,-40.4454"/>
<polygon fill="black" stroke="black" points="878.555,-43.8818 887.82,-38.7426 877.373,-36.9824 878.555,-43.8818"/>
</g>
<!-- proc~json_parse_string -->
<g id="node2" class="node"><title>proc~json_parse_string</title>
<a xlink:href="../proc/json_parse_string.html" xlink:title="json_parse_string">
<polygon fill="#d9534f" stroke="#d9534f" points="741,-95 645,-95 645,-69 741,-69 741,-95"/>
<text text-anchor="middle" x="693" y="-79.55" font-family="Helvetica,sans-Serif" font-size="10.50" fill="white">json_parse_string</text>
</a>
</g>
<!-- proc~json_parse_string&#45;&gt;proc~parse_value -->
<g id="edge30" class="edge"><title>proc~json_parse_string&#45;&gt;proc~parse_value</title>
<path fill="none" stroke="black" d="M741.518,-73.1785C750.308,-71.5804 759.449,-69.9183 768.159,-68.3347"/>
<polygon fill="black" stroke="black" points="768.926,-71.7527 778.139,-66.5203 767.674,-64.8656 768.926,-71.7527"/>
</g>
<!-- proc~parse_object&#45;&gt;proc~parse_value -->
<g id="edge32" class="edge"><title>proc~parse_object&#45;&gt;proc~parse_value</title>
<path fill="none" stroke="black" d="M885.911,-80.9482C876.792,-79.4494 866.946,-77.5266 857.552,-75.4179"/>
<polygon fill="black" stroke="black" points="858.13,-71.958 847.593,-73.0679 856.522,-78.7709 858.13,-71.958"/>
</g>
<!-- proc~parse_object&#45;&gt;proc~parse_object -->
<g id="edge24" class="edge"><title>proc~parse_object&#45;&gt;proc~parse_object</title>
<path fill="none" stroke="black" d="M904.728,-95.0602C899.19,-104.1 905.281,-113 923,-113 933.797,-113 940.277,-109.695 942.438,-105.067"/>
<polygon fill="black" stroke="black" points="945.906,-104.588 941.272,-95.0602 938.953,-105.398 945.906,-104.588"/>
</g>
<!-- proc~json_parse_file -->
<g id="node4" class="node"><title>proc~json_parse_file</title>
<a xlink:href="../proc/json_parse_file.html" xlink:title="json_parse_file">
<polygon fill="#d9534f" stroke="#d9534f" points="735,-51 651,-51 651,-25 735,-25 735,-51"/>
<text text-anchor="middle" x="693" y="-35.55" font-family="Helvetica,sans-Serif" font-size="10.50" fill="white">json_parse_file</text>
</a>
</g>
<!-- proc~json_parse_file&#45;&gt;proc~parse_value -->
<g id="edge34" class="edge"><title>proc~json_parse_file&#45;&gt;proc~parse_value</title>
<path fill="none" stroke="black" d="M735.66,-45.7564C746.179,-47.6689 757.487,-49.725 768.15,-51.6637"/>
<polygon fill="black" stroke="black" points="767.664,-55.1325 778.128,-53.4779 768.916,-48.2454 767.664,-55.1325"/>
</g>
<!-- proc~parse_array&#45;&gt;proc~parse_value -->
<g id="edge36" class="edge"><title>proc~parse_array&#45;&gt;proc~parse_value</title>
<path fill="none" stroke="black" d="M889.449,-51.0575C880.095,-53.3804 869.771,-55.5936 859.84,-57.4216"/>
<polygon fill="black" stroke="black" points="858.949,-54.0237 849.691,-59.1756 860.141,-60.9214 858.949,-54.0237"/>
</g>
<!-- proc~wrap_json_parse_string -->
<g id="node6" class="node"><title>proc~wrap_json_parse_string</title>
<a xlink:href="../proc/wrap_json_parse_string.html" xlink:title="wrap_json_parse_string">
<polygon fill="#d9534f" stroke="#d9534f" points="607,-92 481,-92 481,-66 607,-66 607,-92"/>
<text text-anchor="middle" x="544" y="-76.55" font-family="Helvetica,sans-Serif" font-size="10.50" fill="white">wrap_json_parse_string</text>
</a>
</g>
<!-- proc~wrap_json_parse_string&#45;&gt;proc~json_parse_string -->
<g id="edge18" class="edge"><title>proc~wrap_json_parse_string&#45;&gt;proc~json_parse_string</title>
<path fill="none" stroke="black" d="M607.622,-80.281C616.49,-80.4595 625.569,-80.6423 634.341,-80.8189"/>
<polygon fill="black" stroke="black" points="634.398,-84.3207 644.466,-81.0228 634.539,-77.3221 634.398,-84.3207"/>
</g>
<!-- interface~json_parse -->
<g id="node7" class="node"><title>interface~json_parse</title>
<a xlink:href="../interface/json_parse.html" xlink:title="json_parse">
<polygon fill="#a7506f" stroke="#a7506f" points="443,-92 379,-92 379,-66 443,-66 443,-92"/>
<text text-anchor="middle" x="411" y="-76.55" font-family="Helvetica,sans-Serif" font-size="10.50" fill="white">json_parse</text>
</a>
</g>
<!-- interface~json_parse&#45;&gt;proc~json_parse_string -->
<g id="edge20" class="edge"><title>interface~json_parse&#45;&gt;proc~json_parse_string</title>
<path fill="none" stroke="black" stroke-dasharray="5,2" d="M443.842,-91.7484C455.124,-95.5127 467.949,-99.1253 480,-101 536.213,-109.745 551.455,-107.243 608,-101 616.627,-100.048 625.658,-98.5671 634.479,-96.8432"/>
<polygon fill="black" stroke="black" points="635.232,-100.262 644.316,-94.8087 633.814,-93.4067 635.232,-100.262"/>
</g>
<!-- interface~json_parse&#45;&gt;proc~json_parse_file -->
<g id="edge26" class="edge"><title>interface~json_parse&#45;&gt;proc~json_parse_file</title>
<path fill="none" stroke="black" stroke-dasharray="5,2" d="M443.603,-66.9846C454.978,-63.228 467.921,-59.4336 480,-57 533.91,-46.1388 596.745,-41.4854 640.128,-39.4922"/>
<polygon fill="black" stroke="black" points="640.331,-42.9868 650.172,-39.0623 640.031,-35.9932 640.331,-42.9868"/>
</g>
<!-- interface~json_parse&#45;&gt;proc~wrap_json_parse_string -->
<g id="edge16" class="edge"><title>interface~json_parse&#45;&gt;proc~wrap_json_parse_string</title>
<path fill="none" stroke="black" stroke-dasharray="5,2" d="M443.535,-79C451.724,-79 460.853,-79 470.175,-79"/>
<polygon fill="black" stroke="black" points="470.333,-82.5001 480.333,-79 470.333,-75.5001 470.333,-82.5001"/>
</g>
<!-- proc~test_14 -->
<g id="node8" class="node"><title>proc~test_14</title>
<a xlink:href="../proc/test_14.html" xlink:title="test_14">
<polygon fill="#d9534f" stroke="#d9534f" points="300,-158 246,-158 246,-132 300,-132 300,-158"/>
<text text-anchor="middle" x="273" y="-142.55" font-family="Helvetica,sans-Serif" font-size="10.50" fill="white">test_14</text>
</a>
</g>
<!-- proc~test_14&#45;&gt;interface~json_parse -->
<g id="edge8" class="edge"><title>proc~test_14&#45;&gt;interface~json_parse</title>
<path fill="none" stroke="black" d="M300.155,-138.106C313.122,-134.373 328.679,-129.241 342,-123 356.804,-116.064 372.241,-106.473 384.75,-98.0158"/>
<polygon fill="black" stroke="black" points="387.055,-100.678 393.29,-92.1121 383.074,-94.9194 387.055,-100.678"/>
</g>
<!-- proc~test_8 -->
<g id="node9" class="node"><title>proc~test_8</title>
<a xlink:href="../proc/test_8.html" xlink:title="test_8">
<polygon fill="#d9534f" stroke="#d9534f" points="300,-114 246,-114 246,-88 300,-88 300,-114"/>
<text text-anchor="middle" x="273" y="-98.55" font-family="Helvetica,sans-Serif" font-size="10.50" fill="white">test_8</text>
</a>
</g>
<!-- proc~test_8&#45;&gt;interface~json_parse -->
<g id="edge10" class="edge"><title>proc~test_8&#45;&gt;interface~json_parse</title>
<path fill="none" stroke="black" d="M300.264,-96.6535C319.658,-93.5617 346.098,-89.3467 368.279,-85.8106"/>
<polygon fill="black" stroke="black" points="369.127,-89.2196 378.452,-84.1889 368.025,-82.3069 369.127,-89.2196"/>
</g>
<!-- proc~json_file_load -->
<g id="node10" class="node"><title>proc~json_file_load</title>
<a xlink:href="../proc/json_file_load.html" xlink:title="json_file_load">
<polygon fill="#d9534f" stroke="#d9534f" points="312,-70 234,-70 234,-44 312,-44 312,-70"/>
<text text-anchor="middle" x="273" y="-54.55" font-family="Helvetica,sans-Serif" font-size="10.50" fill="white">json_file_load</text>
</a>
</g>
<!-- proc~json_file_load&#45;&gt;interface~json_parse -->
<g id="edge12" class="edge"><title>proc~json_file_load&#45;&gt;interface~json_parse</title>
<path fill="none" stroke="black" d="M312.176,-63.2455C329.71,-66.0407 350.425,-69.3432 368.349,-72.2006"/>
<polygon fill="black" stroke="black" points="367.831,-75.6622 378.258,-73.7802 368.933,-68.7494 367.831,-75.6622"/>
</g>
<!-- proc~json_file_load_from_string -->
<g id="node11" class="node"><title>proc~json_file_load_from_string</title>
<a xlink:href="../proc/json_file_load_from_string.html" xlink:title="json_file_load_from_string">
<polygon fill="#d9534f" stroke="#d9534f" points="342,-26 204,-26 204,-1.24345e-14 342,-3.55271e-15 342,-26"/>
<text text-anchor="middle" x="273" y="-10.55" font-family="Helvetica,sans-Serif" font-size="10.50" fill="white">json_file_load_from_string</text>
</a>
</g>
<!-- proc~json_file_load_from_string&#45;&gt;interface~json_parse -->
<g id="edge14" class="edge"><title>proc~json_file_load_from_string&#45;&gt;interface~json_parse</title>
<path fill="none" stroke="black" d="M319.657,-26.0557C327.254,-28.6968 334.941,-31.6926 342,-35 356.804,-41.9363 372.241,-51.5269 384.75,-59.9842"/>
<polygon fill="black" stroke="black" points="383.074,-63.0806 393.29,-65.8879 387.055,-57.3225 383.074,-63.0806"/>
</g>
<!-- program~jf_test_14 -->
<g id="node12" class="node"><title>program~jf_test_14</title>
<a xlink:href="../program/jf_test_14.html" xlink:title="jf_test_14">
<polygon fill="#f0ad4e" stroke="#f0ad4e" points="113,-158 55,-158 55,-132 113,-132 113,-158"/>
<text text-anchor="middle" x="84" y="-142.55" font-family="Helvetica,sans-Serif" font-size="10.50" fill="white">jf_test_14</text>
</a>
</g>
<!-- program~jf_test_14&#45;&gt;proc~test_14 -->
<g id="edge2" class="edge"><title>program~jf_test_14&#45;&gt;proc~test_14</title>
<path fill="none" stroke="black" d="M113.531,-145C146.509,-145 199.947,-145 235.765,-145"/>
<polygon fill="black" stroke="black" points="235.82,-148.5 245.82,-145 235.82,-141.5 235.82,-148.5"/>
</g>
<!-- program~jf_test_8 -->
<g id="node14" class="node"><title>program~jf_test_8</title>
<a xlink:href="../program/jf_test_8.html" xlink:title="jf_test_8">
<polygon fill="#f0ad4e" stroke="#f0ad4e" points="111,-114 57,-114 57,-88 111,-88 111,-114"/>
<text text-anchor="middle" x="84" y="-98.55" font-family="Helvetica,sans-Serif" font-size="10.50" fill="white">jf_test_8</text>
</a>
</g>
<!-- program~jf_test_8&#45;&gt;proc~test_8 -->
<g id="edge4" class="edge"><title>program~jf_test_8&#45;&gt;proc~test_8</title>
<path fill="none" stroke="black" d="M111.079,-101C143.78,-101 198.956,-101 235.676,-101"/>
<polygon fill="black" stroke="black" points="235.971,-104.5 245.971,-101 235.971,-97.5001 235.971,-104.5"/>
</g>
<!-- proc~wrap_json_file_load_from_string -->
<g id="node16" class="node"><title>proc~wrap_json_file_load_from_string</title>
<a xlink:href="../proc/wrap_json_file_load_from_string.html" xlink:title="wrap_json_file_load_from_string">
<polygon fill="#d9534f" stroke="#d9534f" points="167,-26 1,-26 1,-1.24345e-14 167,-3.55271e-15 167,-26"/>
<text text-anchor="middle" x="84" y="-10.55" font-family="Helvetica,sans-Serif" font-size="10.50" fill="white">wrap_json_file_load_from_string</text>
</a>
</g>
<!-- proc~wrap_json_file_load_from_string&#45;&gt;proc~json_file_load_from_string -->
<g id="edge6" class="edge"><title>proc~wrap_json_file_load_from_string&#45;&gt;proc~json_file_load_from_string</title>
<path fill="none" stroke="black" d="M167.724,-13C176.382,-13 185.162,-13 193.769,-13"/>
<polygon fill="black" stroke="black" points="193.775,-16.5001 203.775,-13 193.775,-9.5001 193.775,-16.5001"/>
</g>
</g>
</svg>
