<?xml version="1.0" encoding="UTF-8" standalone="no"?>
<!DOCTYPE svg PUBLIC "-//W3C//DTD SVG 1.1//EN"
 "http://www.w3.org/Graphics/SVG/1.1/DTD/svg11.dtd">
<!-- Generated by graphviz version 2.26.3 (20100126.1600)
 -->
<!-- Title: proc~~json_value_destroy~~CalledByGraph Pages: 1 -->
<svg width="641pt" height="208pt"
 viewBox="0.00 0.00 641.00 207.90" xmlns="http://www.w3.org/2000/svg" xmlns:xlink="http://www.w3.org/1999/xlink">
<g id="graph1" class="graph" transform="scale(0.402133 0.402133) rotate(0) translate(4 512.992)">
<title>proc~~json_value_destroy~~CalledByGraph</title>
<polygon fill="white" stroke="white" points="-4,5 -4,-512.992 1591,-512.992 1591,5 -4,5"/>
<!-- proc~json_value_destroy -->
<g id="node1" class="node"><title>proc~json_value_destroy</title>
<polygon fill="none" stroke="black" points="1585,-382.992 1481,-382.992 1481,-356.992 1585,-356.992 1585,-382.992"/>
<text text-anchor="middle" x="1533" y="-367.542" font-family="Helvetica,sans-Serif" font-size="10.50">json_value_destroy</text>
</g>
<!-- proc~json_value_destroy&#45;&gt;proc~json_value_destroy -->
<g id="edge26" class="edge"><title>proc~json_value_destroy&#45;&gt;proc~json_value_destroy</title>
<path fill="none" stroke="black" d="M1508.98,-383.053C1501.69,-392.092 1509.7,-400.992 1533,-400.992 1547.2,-400.992 1555.72,-397.687 1558.56,-393.06"/>
<polygon fill="black" stroke="black" points="1562,-392.407 1557.02,-383.053 1555.08,-393.467 1562,-392.407"/>
</g>
<!-- proc~json_file_destroy -->
<g id="node2" class="node"><title>proc~json_file_destroy</title>
<a xlink:href="../proc/json_file_destroy.html" xlink:title="json_file_destroy">
<polygon fill="#d9534f" stroke="#d9534f" points="1437,-426.992 1345,-426.992 1345,-400.992 1437,-400.992 1437,-426.992"/>
<text text-anchor="middle" x="1391" y="-411.542" font-family="Helvetica,sans-Serif" font-size="10.50" fill="white">json_file_destroy</text>
</a>
</g>
<!-- proc~json_file_destroy&#45;&gt;proc~json_value_destroy -->
<g id="edge24" class="edge"><title>proc~json_file_destroy&#45;&gt;proc~json_value_destroy</title>
<path fill="none" stroke="black" d="M1433.22,-400.91C1448.25,-396.253 1465.35,-390.954 1481.1,-386.075"/>
<polygon fill="black" stroke="black" points="1482.18,-389.403 1490.7,-383.1 1480.11,-382.717 1482.18,-389.403"/>
</g>
<!-- proc~json_value_remove -->
<g id="node3" class="node"><title>proc~json_value_remove</title>
<a xlink:href="../proc/json_value_remove.html" xlink:title="json_value_remove">
<polygon fill="#d9534f" stroke="#d9534f" points="1444,-382.992 1338,-382.992 1338,-356.992 1444,-356.992 1444,-382.992"/>
<text text-anchor="middle" x="1391" y="-367.542" font-family="Helvetica,sans-Serif" font-size="10.50" fill="white">json_value_remove</text>
</a>
</g>
<!-- proc~json_value_remove&#45;&gt;proc~json_value_destroy -->
<g id="edge28" class="edge"><title>proc~json_value_remove&#45;&gt;proc~json_value_destroy</title>
<path fill="none" stroke="black" d="M1444.28,-369.992C1452.76,-369.992 1461.61,-369.992 1470.29,-369.992"/>
<polygon fill="black" stroke="black" points="1470.37,-373.492 1480.37,-369.992 1470.37,-366.492 1470.37,-373.492"/>
</g>
<!-- interface~json_remove -->
<g id="node4" class="node"><title>interface~json_remove</title>
<a xlink:href="../interface/json_remove.html" xlink:title="json_remove">
<polygon fill="#a7506f" stroke="#a7506f" points="1302,-404.992 1228,-404.992 1228,-378.992 1302,-378.992 1302,-404.992"/>
<text text-anchor="middle" x="1265" y="-389.542" font-family="Helvetica,sans-Serif" font-size="10.50" fill="white">json_remove</text>
</a>
</g>
<!-- interface~json_remove&#45;&gt;proc~json_value_remove -->
<g id="edge22" class="edge"><title>interface~json_remove&#45;&gt;proc~json_value_remove</title>
<path fill="none" stroke="black" stroke-dasharray="5,2" d="M1302.12,-385.511C1310.24,-384.092 1319.06,-382.553 1327.88,-381.013"/>
<polygon fill="black" stroke="black" points="1328.56,-384.448 1337.8,-379.281 1327.35,-377.553 1328.56,-384.448"/>
</g>
<!-- proc~json_value_remove_if_present -->
<g id="node5" class="node"><title>proc~json_value_remove_if_present</title>
<a xlink:href="../proc/json_value_remove_if_present.html" xlink:title="json_value_remove_if_present">
<polygon fill="#d9534f" stroke="#d9534f" points="1191,-470.992 1033,-470.992 1033,-444.992 1191,-444.992 1191,-470.992"/>
<text text-anchor="middle" x="1112" y="-455.542" font-family="Helvetica,sans-Serif" font-size="10.50" fill="white">json_value_remove_if_present</text>
</a>
</g>
<!-- proc~json_value_remove_if_present&#45;&gt;interface~json_remove -->
<g id="edge16" class="edge"><title>proc~json_value_remove_if_present&#45;&gt;interface~json_remove</title>
<path fill="none" stroke="black" d="M1167.34,-444.914C1175.73,-442.319 1184.19,-439.344 1192,-435.992 1207.91,-429.164 1224.53,-419.387 1237.88,-410.782"/>
<polygon fill="black" stroke="black" points="1240.13,-413.49 1246.55,-405.063 1236.28,-407.646 1240.13,-413.49"/>
</g>
<!-- proc~test_7 -->
<g id="node6" class="node"><title>proc~test_7</title>
<a xlink:href="../proc/test_7.html" xlink:title="test_7">
<polygon fill="#d9534f" stroke="#d9534f" points="1139,-382.992 1085,-382.992 1085,-356.992 1139,-356.992 1139,-382.992"/>
<text text-anchor="middle" x="1112" y="-367.542" font-family="Helvetica,sans-Serif" font-size="10.50" fill="white">test_7</text>
</a>
</g>
<!-- proc~test_7&#45;&gt;interface~json_remove -->
<g id="edge18" class="edge"><title>proc~test_7&#45;&gt;interface~json_remove</title>
<path fill="none" stroke="black" d="M1139,-373.875C1160.81,-377.011 1192.03,-381.5 1217.94,-385.225"/>
<polygon fill="black" stroke="black" points="1217.54,-388.704 1227.94,-386.663 1218.54,-381.776 1217.54,-388.704"/>
</g>
<!-- interface~json_destroy -->
<g id="node28" class="node"><title>interface~json_destroy</title>
<a xlink:href="../interface/json_destroy.html" xlink:title="json_destroy">
<polygon fill="#a7506f" stroke="#a7506f" points="1301,-215.992 1229,-215.992 1229,-189.992 1301,-189.992 1301,-215.992"/>
<text text-anchor="middle" x="1265" y="-200.542" font-family="Helvetica,sans-Serif" font-size="10.50" fill="white">json_destroy</text>
</a>
</g>
<!-- proc~test_7&#45;&gt;interface~json_destroy -->
<g id="edge84" class="edge"><title>proc~test_7&#45;&gt;interface~json_destroy</title>
<path fill="none" stroke="black" d="M1139.02,-366.142C1155.86,-362.563 1177.08,-355.764 1192,-342.992 1228.7,-311.585 1249.47,-257.078 1258.84,-226.156"/>
<polygon fill="black" stroke="black" points="1262.28,-226.857 1261.69,-216.279 1255.56,-224.917 1262.28,-226.857"/>
</g>
<!-- proc~test_1 -->
<g id="node7" class="node"><title>proc~test_1</title>
<a xlink:href="../proc/test_1.html" xlink:title="test_1">
<polygon fill="#d9534f" stroke="#d9534f" points="1139,-426.992 1085,-426.992 1085,-400.992 1139,-400.992 1139,-426.992"/>
<text text-anchor="middle" x="1112" y="-411.542" font-family="Helvetica,sans-Serif" font-size="10.50" fill="white">test_1</text>
</a>
</g>
<!-- proc~test_1&#45;&gt;interface~json_remove -->
<g id="edge20" class="edge"><title>proc~test_1&#45;&gt;interface~json_remove</title>
<path fill="none" stroke="black" d="M1139,-410.11C1160.81,-406.974 1192.03,-402.484 1217.94,-398.76"/>
<polygon fill="black" stroke="black" points="1218.54,-402.209 1227.94,-397.321 1217.54,-395.28 1218.54,-402.209"/>
</g>
<!-- proc~wrap_json_value_remove_if_present -->
<g id="node8" class="node"><title>proc~wrap_json_value_remove_if_present</title>
<a xlink:href="../proc/wrap_json_value_remove_if_present.html" xlink:title="wrap_json_value_remove_if_present">
<polygon fill="#d9534f" stroke="#d9534f" points="996,-508.992 808,-508.992 808,-482.992 996,-482.992 996,-508.992"/>
<text text-anchor="middle" x="902" y="-493.542" font-family="Helvetica,sans-Serif" font-size="10.50" fill="white">wrap_json_value_remove_if_present</text>
</a>
</g>
<!-- proc~wrap_json_value_remove_if_present&#45;&gt;proc~json_value_remove_if_present -->
<g id="edge8" class="edge"><title>proc~wrap_json_value_remove_if_present&#45;&gt;proc~json_value_remove_if_present</title>
<path fill="none" stroke="black" d="M973.976,-482.968C992.092,-479.69 1011.67,-476.148 1030.23,-472.79"/>
<polygon fill="black" stroke="black" points="1030.9,-476.224 1040.12,-471 1029.65,-469.336 1030.9,-476.224"/>
</g>
<!-- interface~json_remove_if_present -->
<g id="node9" class="node"><title>interface~json_remove_if_present</title>
<a xlink:href="../interface/json_remove_if_present.html" xlink:title="json_remove_if_present">
<polygon fill="#a7506f" stroke="#a7506f" points="771,-467.992 645,-467.992 645,-441.992 771,-441.992 771,-467.992"/>
<text text-anchor="middle" x="708" y="-452.542" font-family="Helvetica,sans-Serif" font-size="10.50" fill="white">json_remove_if_present</text>
</a>
</g>
<!-- interface~json_remove_if_present&#45;&gt;proc~json_value_remove_if_present -->
<g id="edge10" class="edge"><title>interface~json_remove_if_present&#45;&gt;proc~json_value_remove_if_present</title>
<path fill="none" stroke="black" stroke-dasharray="5,2" d="M771.569,-455.464C839.09,-455.966 946.37,-456.762 1022.44,-457.327"/>
<polygon fill="black" stroke="black" points="1022.46,-460.827 1032.49,-457.402 1022.51,-453.828 1022.46,-460.827"/>
</g>
<!-- interface~json_remove_if_present&#45;&gt;proc~wrap_json_value_remove_if_present -->
<g id="edge6" class="edge"><title>interface~json_remove_if_present&#45;&gt;proc~wrap_json_value_remove_if_present</title>
<path fill="none" stroke="black" stroke-dasharray="5,2" d="M769.649,-468.021C788.917,-472.093 810.34,-476.621 830.24,-480.827"/>
<polygon fill="black" stroke="black" points="829.671,-484.284 840.178,-482.927 831.118,-477.435 829.671,-484.284"/>
</g>
<!-- proc~test_10 -->
<g id="node10" class="node"><title>proc~test_10</title>
<a xlink:href="../proc/test_10.html" xlink:title="test_10">
<polygon fill="#d9534f" stroke="#d9534f" points="571,-404.992 517,-404.992 517,-378.992 571,-378.992 571,-404.992"/>
<text text-anchor="middle" x="544" y="-389.542" font-family="Helvetica,sans-Serif" font-size="10.50" fill="white">test_10</text>
</a>
</g>
<!-- proc~test_10&#45;&gt;interface~json_remove_if_present -->
<g id="edge4" class="edge"><title>proc~test_10&#45;&gt;interface~json_remove_if_present</title>
<path fill="none" stroke="black" d="M571.081,-402.396C596.42,-412.129 634.707,-426.837 664.357,-438.227"/>
<polygon fill="black" stroke="black" points="663.46,-441.632 674.05,-441.951 665.97,-435.097 663.46,-441.632"/>
</g>
<!-- proc~test_10&#45;&gt;interface~json_destroy -->
<g id="edge74" class="edge"><title>proc~test_10&#45;&gt;interface~json_destroy</title>
<path fill="none" stroke="black" d="M571.274,-386.831C619.077,-377.923 721.173,-359.511 808,-347.992 893.005,-336.715 1118.25,-353.738 1192,-309.992 1224.3,-290.835 1245.52,-251.141 1256.38,-225.855"/>
<polygon fill="black" stroke="black" points="1259.73,-226.896 1260.27,-216.315 1253.25,-224.248 1259.73,-226.896"/>
</g>
<!-- program~jf_test_10 -->
<g id="node11" class="node"><title>program~jf_test_10</title>
<a xlink:href="../program/jf_test_10.html" xlink:title="jf_test_10">
<polygon fill="#f0ad4e" stroke="#f0ad4e" points="440,-404.992 382,-404.992 382,-378.992 440,-378.992 440,-404.992"/>
<text text-anchor="middle" x="411" y="-389.542" font-family="Helvetica,sans-Serif" font-size="10.50" fill="white">jf_test_10</text>
</a>
</g>
<!-- program~jf_test_10&#45;&gt;proc~test_10 -->
<g id="edge2" class="edge"><title>program~jf_test_10&#45;&gt;proc~test_10</title>
<path fill="none" stroke="black" d="M440.517,-391.992C460.027,-391.992 485.763,-391.992 506.689,-391.992"/>
<polygon fill="black" stroke="black" points="506.83,-395.492 516.83,-391.992 506.83,-388.492 506.83,-395.492"/>
</g>
<!-- program~jf_test_7 -->
<g id="node17" class="node"><title>program~jf_test_7</title>
<a xlink:href="../program/jf_test_7.html" xlink:title="jf_test_7">
<polygon fill="#f0ad4e" stroke="#f0ad4e" points="929,-382.992 875,-382.992 875,-356.992 929,-356.992 929,-382.992"/>
<text text-anchor="middle" x="902" y="-367.542" font-family="Helvetica,sans-Serif" font-size="10.50" fill="white">jf_test_7</text>
</a>
</g>
<!-- program~jf_test_7&#45;&gt;proc~test_7 -->
<g id="edge12" class="edge"><title>program~jf_test_7&#45;&gt;proc~test_7</title>
<path fill="none" stroke="black" d="M929.024,-369.992C966.094,-369.992 1032.87,-369.992 1074.69,-369.992"/>
<polygon fill="black" stroke="black" points="1074.75,-373.492 1084.75,-369.992 1074.75,-366.492 1074.75,-373.492"/>
</g>
<!-- program~jf_test_1 -->
<g id="node19" class="node"><title>program~jf_test_1</title>
<a xlink:href="../program/jf_test_1.html" xlink:title="jf_test_1">
<polygon fill="#f0ad4e" stroke="#f0ad4e" points="929,-426.992 875,-426.992 875,-400.992 929,-400.992 929,-426.992"/>
<text text-anchor="middle" x="902" y="-411.542" font-family="Helvetica,sans-Serif" font-size="10.50" fill="white">jf_test_1</text>
</a>
</g>
<!-- program~jf_test_1&#45;&gt;proc~test_1 -->
<g id="edge14" class="edge"><title>program~jf_test_1&#45;&gt;proc~test_1</title>
<path fill="none" stroke="black" d="M929.024,-413.992C966.094,-413.992 1032.87,-413.992 1074.69,-413.992"/>
<polygon fill="black" stroke="black" points="1074.75,-417.492 1084.75,-413.992 1074.75,-410.492 1074.75,-417.492"/>
</g>
<!-- interface~json_destroy&#45;&gt;proc~json_value_destroy -->
<g id="edge88" class="edge"><title>interface~json_destroy&#45;&gt;proc~json_value_destroy</title>
<path fill="none" stroke="black" stroke-dasharray="5,2" d="M1286.03,-216.097C1333.49,-245.668 1449,-317.647 1503.55,-351.639"/>
<polygon fill="black" stroke="black" points="1501.73,-354.631 1512.07,-356.949 1505.43,-348.69 1501.73,-354.631"/>
</g>
<!-- program~example2 -->
<g id="node29" class="node"><title>program~example2</title>
<a xlink:href="../program/example2.html" xlink:title="example2">
<polygon fill="#f0ad4e" stroke="#f0ad4e" points="1141,-194.992 1083,-194.992 1083,-168.992 1141,-168.992 1141,-194.992"/>
<text text-anchor="middle" x="1112" y="-179.542" font-family="Helvetica,sans-Serif" font-size="10.50" fill="white">example2</text>
</a>
</g>
<!-- program~example2&#45;&gt;interface~json_destroy -->
<g id="edge70" class="edge"><title>program~example2&#45;&gt;interface~json_destroy</title>
<path fill="none" stroke="black" d="M1141.86,-186.091C1163.65,-189.081 1193.59,-193.191 1218.49,-196.609"/>
<polygon fill="black" stroke="black" points="1218.08,-200.085 1228.46,-197.978 1219.03,-193.15 1218.08,-200.085"/>
</g>
<!-- proc~parse_array -->
<g id="node30" class="node"><title>proc~parse_array</title>
<a xlink:href="../proc/parse_array.html" xlink:title="parse_array">
<polygon fill="#d9534f" stroke="#d9534f" points="743,-179.992 673,-179.992 673,-153.992 743,-153.992 743,-179.992"/>
<text text-anchor="middle" x="708" y="-164.542" font-family="Helvetica,sans-Serif" font-size="10.50" fill="white">parse_array</text>
</a>
</g>
<!-- proc~parse_array&#45;&gt;interface~json_destroy -->
<g id="edge72" class="edge"><title>proc~parse_array&#45;&gt;interface~json_destroy</title>
<path fill="none" stroke="black" d="M743.157,-159.954C824.115,-145.143 1029.24,-115.618 1192,-159.992 1209.46,-164.753 1227,-174.871 1240.51,-184.097"/>
<polygon fill="black" stroke="black" points="1238.59,-187.024 1248.77,-189.966 1242.64,-181.319 1238.59,-187.024"/>
</g>
<!-- proc~parse_value -->
<g id="node36" class="node"><title>proc~parse_value</title>
<a xlink:href="../proc/parse_value.html" xlink:title="parse_value">
<polygon fill="#d9534f" stroke="#d9534f" points="937,-266.992 867,-266.992 867,-240.992 937,-240.992 937,-266.992"/>
<text text-anchor="middle" x="902" y="-251.542" font-family="Helvetica,sans-Serif" font-size="10.50" fill="white">parse_value</text>
</a>
</g>
<!-- proc~parse_array&#45;&gt;proc~parse_value -->
<g id="edge54" class="edge"><title>proc~parse_array&#45;&gt;proc~parse_value</title>
<path fill="none" stroke="black" d="M743.173,-166.678C753.023,-169.603 763.384,-174.067 772,-179.992 792.537,-194.116 786.775,-209.926 808,-222.992 822.538,-231.943 840.389,-237.253 856.614,-240.971"/>
<polygon fill="black" stroke="black" points="855.949,-244.408 866.463,-243.098 857.427,-237.566 855.949,-244.408"/>
</g>
<!-- proc~test_4 -->
<g id="node31" class="node"><title>proc~test_4</title>
<a xlink:href="../proc/test_4.html" xlink:title="test_4">
<polygon fill="#d9534f" stroke="#d9534f" points="1139,-112.992 1085,-112.992 1085,-86.9924 1139,-86.9924 1139,-112.992"/>
<text text-anchor="middle" x="1112" y="-97.5424" font-family="Helvetica,sans-Serif" font-size="10.50" fill="white">test_4</text>
</a>
</g>
<!-- proc~test_4&#45;&gt;interface~json_destroy -->
<g id="edge76" class="edge"><title>proc~test_4&#45;&gt;interface~json_destroy</title>
<path fill="none" stroke="black" d="M1139.37,-105.755C1155.53,-109.978 1175.91,-116.781 1192,-126.992 1214.89,-141.518 1235.74,-164.69 1249.24,-181.632"/>
<polygon fill="black" stroke="black" points="1246.71,-184.084 1255.6,-189.845 1252.24,-179.797 1246.71,-184.084"/>
</g>
<!-- proc~test_14 -->
<g id="node32" class="node"><title>proc~test_14</title>
<a xlink:href="../proc/test_14.html" xlink:title="test_14">
<polygon fill="#d9534f" stroke="#d9534f" points="300,-106.992 246,-106.992 246,-80.9924 300,-80.9924 300,-106.992"/>
<text text-anchor="middle" x="273" y="-91.5424" font-family="Helvetica,sans-Serif" font-size="10.50" fill="white">test_14</text>
</a>
</g>
<!-- proc~test_14&#45;&gt;interface~json_destroy -->
<g id="edge78" class="edge"><title>proc~test_14&#45;&gt;interface~json_destroy</title>
<path fill="none" stroke="black" d="M300.161,-88.1342C348.802,-78.1705 454.102,-58.9924 544,-58.9924 544,-58.9924 544,-58.9924 902,-58.9924 1031.17,-58.9924 1082.14,-10.0588 1192,-77.9924 1229.31,-101.065 1249.68,-150.793 1258.87,-180.096"/>
<polygon fill="black" stroke="black" points="1255.57,-181.281 1261.75,-189.881 1262.28,-179.299 1255.57,-181.281"/>
</g>
<!-- interface~json_parse -->
<g id="node40" class="node"><title>interface~json_parse</title>
<a xlink:href="../interface/json_parse.html" xlink:title="json_parse">
<polygon fill="#a7506f" stroke="#a7506f" points="443,-181.992 379,-181.992 379,-155.992 443,-155.992 443,-181.992"/>
<text text-anchor="middle" x="411" y="-166.542" font-family="Helvetica,sans-Serif" font-size="10.50" fill="white">json_parse</text>
</a>
</g>
<!-- proc~test_14&#45;&gt;interface~json_parse -->
<g id="edge32" class="edge"><title>proc~test_14&#45;&gt;interface~json_parse</title>
<path fill="none" stroke="black" d="M300.31,-105.173C313.17,-110.713 328.594,-117.756 342,-124.992 356.085,-132.595 371.135,-142.027 383.574,-150.206"/>
<polygon fill="black" stroke="black" points="381.856,-153.267 392.119,-155.897 385.736,-147.441 381.856,-153.267"/>
</g>
<!-- proc~test_8 -->
<g id="node33" class="node"><title>proc~test_8</title>
<a xlink:href="../proc/test_8.html" xlink:title="test_8">
<polygon fill="#d9534f" stroke="#d9534f" points="300,-43.9924 246,-43.9924 246,-17.9924 300,-17.9924 300,-43.9924"/>
<text text-anchor="middle" x="273" y="-28.5424" font-family="Helvetica,sans-Serif" font-size="10.50" fill="white">test_8</text>
</a>
</g>
<!-- proc~test_8&#45;&gt;interface~json_destroy -->
<g id="edge80" class="edge"><title>proc~test_8&#45;&gt;interface~json_destroy</title>
<path fill="none" stroke="black" d="M300.299,-29.3186C349.155,-26.4719 454.782,-20.9924 544,-20.9924 544,-20.9924 544,-20.9924 902,-20.9924 1031.11,-20.9924 1085.91,35.5899 1192,-37.9924 1239.59,-70.9967 1256.51,-142.384 1262.25,-179.503"/>
<polygon fill="black" stroke="black" points="1258.84,-180.421 1263.69,-189.842 1265.77,-179.455 1258.84,-180.421"/>
</g>
<!-- proc~test_8&#45;&gt;interface~json_parse -->
<g id="edge34" class="edge"><title>proc~test_8&#45;&gt;interface~json_parse</title>
<path fill="none" stroke="black" d="M300.317,-43.8204C313.771,-50.9474 329.701,-60.6642 342,-71.9924 365.991,-94.0897 386.627,-125.809 398.926,-146.887"/>
<polygon fill="black" stroke="black" points="395.982,-148.792 403.972,-155.751 402.066,-145.329 395.982,-148.792"/>
</g>
<!-- proc~parse_object -->
<g id="node34" class="node"><title>proc~parse_object</title>
<a xlink:href="../proc/parse_object.html" xlink:title="parse_object">
<polygon fill="#d9534f" stroke="#d9534f" points="1149,-282.992 1075,-282.992 1075,-256.992 1149,-256.992 1149,-282.992"/>
<text text-anchor="middle" x="1112" y="-267.542" font-family="Helvetica,sans-Serif" font-size="10.50" fill="white">parse_object</text>
</a>
</g>
<!-- proc~parse_object&#45;&gt;interface~json_destroy -->
<g id="edge82" class="edge"><title>proc~parse_object&#45;&gt;interface~json_destroy</title>
<path fill="none" stroke="black" d="M1149.39,-262.051C1163.09,-258.538 1178.53,-253.854 1192,-247.992 1208.24,-240.927 1225.15,-230.713 1238.6,-221.801"/>
<polygon fill="black" stroke="black" points="1240.58,-224.686 1246.89,-216.179 1236.65,-218.891 1240.58,-224.686"/>
</g>
<!-- proc~parse_object&#45;&gt;proc~parse_object -->
<g id="edge66" class="edge"><title>proc~parse_object&#45;&gt;proc~parse_object</title>
<path fill="none" stroke="black" d="M1086.28,-283.053C1078.49,-292.092 1087.06,-300.992 1112,-300.992 1127.2,-300.992 1136.32,-297.687 1139.36,-293.06"/>
<polygon fill="black" stroke="black" points="1142.79,-292.354 1137.72,-283.053 1135.88,-293.487 1142.79,-292.354"/>
</g>
<!-- proc~parse_object&#45;&gt;proc~parse_value -->
<g id="edge50" class="edge"><title>proc~parse_object&#45;&gt;proc~parse_value</title>
<path fill="none" stroke="black" d="M1074.79,-272.456C1039.36,-271.55 985.971,-267.613 947.921,-263.184"/>
<polygon fill="black" stroke="black" points="947.975,-259.664 937.624,-261.924 947.124,-266.613 947.975,-259.664"/>
</g>
<!-- proc~test_2 -->
<g id="node35" class="node"><title>proc~test_2</title>
<a xlink:href="../proc/test_2.html" xlink:title="test_2">
<polygon fill="#d9534f" stroke="#d9534f" points="1139,-238.992 1085,-238.992 1085,-212.992 1139,-212.992 1139,-238.992"/>
<text text-anchor="middle" x="1112" y="-223.542" font-family="Helvetica,sans-Serif" font-size="10.50" fill="white">test_2</text>
</a>
</g>
<!-- proc~test_2&#45;&gt;interface~json_destroy -->
<g id="edge86" class="edge"><title>proc~test_2&#45;&gt;interface~json_destroy</title>
<path fill="none" stroke="black" d="M1139,-221.933C1160.89,-218.643 1192.25,-213.929 1218.21,-210.027"/>
<polygon fill="black" stroke="black" points="1218.86,-213.469 1228.22,-208.521 1217.81,-206.546 1218.86,-213.469"/>
</g>
<!-- proc~parse_value&#45;&gt;proc~parse_array -->
<g id="edge56" class="edge"><title>proc~parse_value&#45;&gt;proc~parse_array</title>
<path fill="none" stroke="black" d="M866.463,-259.101C847.941,-257.301 825.555,-251.8 808,-240.992 786.775,-227.926 792.537,-212.116 772,-197.992 762.976,-191.787 752.039,-187.183 741.778,-183.404"/>
<polygon fill="black" stroke="black" points="742.827,-180.062 732.232,-180.007 740.48,-186.657 742.827,-180.062"/>
</g>
<!-- proc~parse_value&#45;&gt;proc~parse_object -->
<g id="edge64" class="edge"><title>proc~parse_value&#45;&gt;proc~parse_object</title>
<path fill="none" stroke="black" d="M937.624,-251.49C972.643,-252.307 1026.3,-256.22 1064.84,-260.657"/>
<polygon fill="black" stroke="black" points="1064.44,-264.134 1074.79,-261.858 1065.28,-257.185 1064.44,-264.134"/>
</g>
<!-- proc~json_parse_string -->
<g id="node37" class="node"><title>proc~json_parse_string</title>
<a xlink:href="../proc/json_parse_string.html" xlink:title="json_parse_string">
<polygon fill="#d9534f" stroke="#d9534f" points="756,-223.992 660,-223.992 660,-197.992 756,-197.992 756,-223.992"/>
<text text-anchor="middle" x="708" y="-208.542" font-family="Helvetica,sans-Serif" font-size="10.50" fill="white">json_parse_string</text>
</a>
</g>
<!-- proc~json_parse_string&#45;&gt;proc~parse_value -->
<g id="edge48" class="edge"><title>proc~json_parse_string&#45;&gt;proc~parse_value</title>
<path fill="none" stroke="black" d="M756.954,-221.843C787.378,-228.587 826.239,-237.2 856.077,-243.814"/>
<polygon fill="black" stroke="black" points="855.706,-247.316 866.227,-246.063 857.221,-240.482 855.706,-247.316"/>
</g>
<!-- proc~json_parse_file -->
<g id="node38" class="node"><title>proc~json_parse_file</title>
<a xlink:href="../proc/json_parse_file.html" xlink:title="json_parse_file">
<polygon fill="#d9534f" stroke="#d9534f" points="586,-266.992 502,-266.992 502,-240.992 586,-240.992 586,-266.992"/>
<text text-anchor="middle" x="544" y="-251.542" font-family="Helvetica,sans-Serif" font-size="10.50" fill="white">json_parse_file</text>
</a>
</g>
<!-- proc~json_parse_file&#45;&gt;proc~parse_value -->
<g id="edge52" class="edge"><title>proc~json_parse_file&#45;&gt;proc~parse_value</title>
<path fill="none" stroke="black" d="M586.828,-253.992C654.704,-253.992 786.424,-253.992 856.146,-253.992"/>
<polygon fill="black" stroke="black" points="856.376,-257.492 866.376,-253.992 856.376,-250.492 856.376,-257.492"/>
</g>
<!-- proc~wrap_json_parse_string -->
<g id="node39" class="node"><title>proc~wrap_json_parse_string</title>
<a xlink:href="../proc/wrap_json_parse_string.html" xlink:title="wrap_json_parse_string">
<polygon fill="#d9534f" stroke="#d9534f" points="607,-222.992 481,-222.992 481,-196.992 607,-196.992 607,-222.992"/>
<text text-anchor="middle" x="544" y="-207.542" font-family="Helvetica,sans-Serif" font-size="10.50" fill="white">wrap_json_parse_string</text>
</a>
</g>
<!-- proc~wrap_json_parse_string&#45;&gt;proc~json_parse_string -->
<g id="edge42" class="edge"><title>proc~wrap_json_parse_string&#45;&gt;proc~json_parse_string</title>
<path fill="none" stroke="black" d="M607.876,-210.382C621.494,-210.465 635.813,-210.552 649.228,-210.634"/>
<polygon fill="black" stroke="black" points="649.262,-214.134 659.284,-210.695 649.305,-207.134 649.262,-214.134"/>
</g>
<!-- interface~json_parse&#45;&gt;proc~json_parse_string -->
<g id="edge44" class="edge"><title>interface~json_parse&#45;&gt;proc~json_parse_string</title>
<path fill="none" stroke="black" stroke-dasharray="5,2" d="M443.586,-170.834C482.789,-173.35 550.514,-178.65 608,-187.992 621.452,-190.179 635.793,-193.112 649.293,-196.151"/>
<polygon fill="black" stroke="black" points="648.892,-199.65 659.422,-198.485 650.463,-192.829 648.892,-199.65"/>
</g>
<!-- interface~json_parse&#45;&gt;proc~json_parse_file -->
<g id="edge46" class="edge"><title>interface~json_parse&#45;&gt;proc~json_parse_file</title>
<path fill="none" stroke="black" stroke-dasharray="5,2" d="M422.232,-182.037C434.972,-196.111 456.982,-218.334 480,-231.992 483.694,-234.185 487.639,-236.199 491.687,-238.043"/>
<polygon fill="black" stroke="black" points="490.674,-241.413 501.251,-242.035 493.371,-234.953 490.674,-241.413"/>
</g>
<!-- interface~json_parse&#45;&gt;proc~wrap_json_parse_string -->
<g id="edge40" class="edge"><title>interface~json_parse&#45;&gt;proc~wrap_json_parse_string</title>
<path fill="none" stroke="black" stroke-dasharray="5,2" d="M443.535,-179.022C458.056,-183.498 475.529,-188.885 491.803,-193.902"/>
<polygon fill="black" stroke="black" points="491.156,-197.365 501.744,-196.966 493.219,-190.675 491.156,-197.365"/>
</g>
<!-- proc~json_file_load -->
<g id="node41" class="node"><title>proc~json_file_load</title>
<a xlink:href="../proc/json_file_load.html" xlink:title="json_file_load">
<polygon fill="#d9534f" stroke="#d9534f" points="312,-203.992 234,-203.992 234,-177.992 312,-177.992 312,-203.992"/>
<text text-anchor="middle" x="273" y="-188.542" font-family="Helvetica,sans-Serif" font-size="10.50" fill="white">json_file_load</text>
</a>
</g>
<!-- proc~json_file_load&#45;&gt;interface~json_parse -->
<g id="edge36" class="edge"><title>proc~json_file_load&#45;&gt;interface~json_parse</title>
<path fill="none" stroke="black" d="M312.176,-184.747C329.71,-181.952 350.425,-178.649 368.349,-175.792"/>
<polygon fill="black" stroke="black" points="368.933,-179.243 378.258,-174.212 367.831,-172.33 368.933,-179.243"/>
</g>
<!-- proc~json_file_load_from_string -->
<g id="node42" class="node"><title>proc~json_file_load_from_string</title>
<a xlink:href="../proc/json_file_load_from_string.html" xlink:title="json_file_load_from_string">
<polygon fill="#d9534f" stroke="#d9534f" points="342,-159.992 204,-159.992 204,-133.992 342,-133.992 342,-159.992"/>
<text text-anchor="middle" x="273" y="-144.542" font-family="Helvetica,sans-Serif" font-size="10.50" fill="white">json_file_load_from_string</text>
</a>
</g>
<!-- proc~json_file_load_from_string&#45;&gt;interface~json_parse -->
<g id="edge38" class="edge"><title>proc~json_file_load_from_string&#45;&gt;interface~json_parse</title>
<path fill="none" stroke="black" d="M342,-157.992C351.006,-159.428 360.012,-160.864 368.405,-162.202"/>
<polygon fill="black" stroke="black" points="367.87,-165.661 378.296,-163.779 368.972,-158.748 367.87,-165.661"/>
</g>
<!-- proc~wrap_json_file_load_from_string -->
<g id="node43" class="node"><title>proc~wrap_json_file_load_from_string</title>
<a xlink:href="../proc/wrap_json_file_load_from_string.html" xlink:title="wrap_json_file_load_from_string">
<polygon fill="#d9534f" stroke="#d9534f" points="167,-159.992 1,-159.992 1,-133.992 167,-133.992 167,-159.992"/>
<text text-anchor="middle" x="84" y="-144.542" font-family="Helvetica,sans-Serif" font-size="10.50" fill="white">wrap_json_file_load_from_string</text>
</a>
</g>
<!-- proc~wrap_json_file_load_from_string&#45;&gt;proc~json_file_load_from_string -->
<g id="edge30" class="edge"><title>proc~wrap_json_file_load_from_string&#45;&gt;proc~json_file_load_from_string</title>
<path fill="none" stroke="black" d="M167.724,-146.992C176.382,-146.992 185.162,-146.992 193.769,-146.992"/>
<polygon fill="black" stroke="black" points="193.775,-150.492 203.775,-146.992 193.775,-143.492 193.775,-150.492"/>
</g>
<!-- program~jf_test_4 -->
<g id="node58" class="node"><title>program~jf_test_4</title>
<a xlink:href="../program/jf_test_4.html" xlink:title="jf_test_4">
<polygon fill="#f0ad4e" stroke="#f0ad4e" points="929,-112.992 875,-112.992 875,-86.9924 929,-86.9924 929,-112.992"/>
<text text-anchor="middle" x="902" y="-97.5424" font-family="Helvetica,sans-Serif" font-size="10.50" fill="white">jf_test_4</text>
</a>
</g>
<!-- program~jf_test_4&#45;&gt;proc~test_4 -->
<g id="edge58" class="edge"><title>program~jf_test_4&#45;&gt;proc~test_4</title>
<path fill="none" stroke="black" d="M929.024,-99.9924C966.094,-99.9924 1032.87,-99.9924 1074.69,-99.9924"/>
<polygon fill="black" stroke="black" points="1074.75,-103.492 1084.75,-99.9924 1074.75,-96.4925 1074.75,-103.492"/>
</g>
<!-- program~jf_test_14 -->
<g id="node60" class="node"><title>program~jf_test_14</title>
<a xlink:href="../program/jf_test_14.html" xlink:title="jf_test_14">
<polygon fill="#f0ad4e" stroke="#f0ad4e" points="113,-106.992 55,-106.992 55,-80.9924 113,-80.9924 113,-106.992"/>
<text text-anchor="middle" x="84" y="-91.5424" font-family="Helvetica,sans-Serif" font-size="10.50" fill="white">jf_test_14</text>
</a>
</g>
<!-- program~jf_test_14&#45;&gt;proc~test_14 -->
<g id="edge60" class="edge"><title>program~jf_test_14&#45;&gt;proc~test_14</title>
<path fill="none" stroke="black" d="M113.531,-93.9924C146.509,-93.9924 199.947,-93.9924 235.765,-93.9924"/>
<polygon fill="black" stroke="black" points="235.82,-97.4925 245.82,-93.9924 235.82,-90.4925 235.82,-97.4925"/>
</g>
<!-- program~jf_test_8 -->
<g id="node62" class="node"><title>program~jf_test_8</title>
<a xlink:href="../program/jf_test_8.html" xlink:title="jf_test_8">
<polygon fill="#f0ad4e" stroke="#f0ad4e" points="111,-43.9924 57,-43.9924 57,-17.9924 111,-17.9924 111,-43.9924"/>
<text text-anchor="middle" x="84" y="-28.5424" font-family="Helvetica,sans-Serif" font-size="10.50" fill="white">jf_test_8</text>
</a>
</g>
<!-- program~jf_test_8&#45;&gt;proc~test_8 -->
<g id="edge62" class="edge"><title>program~jf_test_8&#45;&gt;proc~test_8</title>
<path fill="none" stroke="black" d="M111.079,-30.9924C143.78,-30.9924 198.956,-30.9924 235.676,-30.9924"/>
<polygon fill="black" stroke="black" points="235.971,-34.4925 245.971,-30.9924 235.971,-27.4925 235.971,-34.4925"/>
</g>
<!-- program~jf_test_2 -->
<g id="node66" class="node"><title>program~jf_test_2</title>
<a xlink:href="../program/jf_test_2.html" xlink:title="jf_test_2">
<polygon fill="#f0ad4e" stroke="#f0ad4e" points="929,-222.992 875,-222.992 875,-196.992 929,-196.992 929,-222.992"/>
<text text-anchor="middle" x="902" y="-207.542" font-family="Helvetica,sans-Serif" font-size="10.50" fill="white">jf_test_2</text>
</a>
</g>
<!-- program~jf_test_2&#45;&gt;proc~test_2 -->
<g id="edge68" class="edge"><title>program~jf_test_2&#45;&gt;proc~test_2</title>
<path fill="none" stroke="black" d="M929.024,-212.051C966.094,-214.876 1032.87,-219.964 1074.69,-223.15"/>
<polygon fill="black" stroke="black" points="1074.51,-226.646 1084.75,-223.916 1075.04,-219.666 1074.51,-226.646"/>
</g>
</g>
</svg>
