<?xml version="1.0" encoding="UTF-8" standalone="no"?>
<!DOCTYPE svg PUBLIC "-//W3C//DTD SVG 1.1//EN"
 "http://www.w3.org/Graphics/SVG/1.1/DTD/svg11.dtd">
<!-- Generated by graphviz version 2.26.3 (20100126.1600)
 -->
<!-- Title: proc~~json_value_create_logical~~CalledByGraph Pages: 1 -->
<svg width="641pt" height="52pt"
 viewBox="0.00 0.00 641.00 51.51" xmlns="http://www.w3.org/2000/svg" xmlns:xlink="http://www.w3.org/1999/xlink">
<g id="graph1" class="graph" transform="scale(0.953869 0.953869) rotate(0) translate(4 50)">
<title>proc~~json_value_create_logical~~CalledByGraph</title>
<polygon fill="white" stroke="white" points="-4,5 -4,-50 669,-50 669,5 -4,5"/>
<!-- proc~json_value_create_logical -->
<g id="node1" class="node"><title>proc~json_value_create_logical</title>
<polygon fill="none" stroke="black" points="664,-46 528,-46 528,-20 664,-20 664,-46"/>
<text text-anchor="middle" x="596" y="-30.55" font-family="Helvetica,sans-Serif" font-size="10.50">json_value_create_logical</text>
</g>
<!-- proc~wrap_json_value_create_logical -->
<g id="node2" class="node"><title>proc~wrap_json_value_create_logical</title>
<a xlink:href="../proc/wrap_json_value_create_logical.html" xlink:title="wrap_json_value_create_logical">
<polygon fill="#d9534f" stroke="#d9534f" points="491,-26 327,-26 327,-1.24345e-14 491,-3.55271e-15 491,-26"/>
<text text-anchor="middle" x="409" y="-10.55" font-family="Helvetica,sans-Serif" font-size="10.50" fill="white">wrap_json_value_create_logical</text>
</a>
</g>
<!-- proc~wrap_json_value_create_logical&#45;&gt;proc~json_value_create_logical -->
<g id="edge8" class="edge"><title>proc~wrap_json_value_create_logical&#45;&gt;proc~json_value_create_logical</title>
<path fill="none" stroke="black" d="M491.565,-21.8305C500.285,-22.7631 509.134,-23.7095 517.802,-24.6366"/>
<polygon fill="black" stroke="black" points="517.561,-28.1307 527.877,-25.7141 518.306,-21.1704 517.561,-28.1307"/>
</g>
<!-- interface~json_create_logical -->
<g id="node3" class="node"><title>interface~json_create_logical</title>
<a xlink:href="../interface/json_create_logical.html" xlink:title="json_create_logical">
<polygon fill="#a7506f" stroke="#a7506f" points="290,-46 186,-46 186,-20 290,-20 290,-46"/>
<text text-anchor="middle" x="238" y="-30.55" font-family="Helvetica,sans-Serif" font-size="10.50" fill="white">json_create_logical</text>
</a>
</g>
<!-- interface~json_create_logical&#45;&gt;proc~json_value_create_logical -->
<g id="edge10" class="edge"><title>interface~json_create_logical&#45;&gt;proc~json_value_create_logical</title>
<path fill="none" stroke="black" stroke-dasharray="5,2" d="M290.113,-34.3801C301.913,-34.6382 314.387,-34.868 326,-35 399.773,-35.8382 418.226,-35.7093 492,-35 500.307,-34.9201 508.986,-34.8044 517.636,-34.6683"/>
<polygon fill="black" stroke="black" points="517.812,-38.1659 527.753,-34.5 517.696,-31.1669 517.812,-38.1659"/>
</g>
<!-- interface~json_create_logical&#45;&gt;proc~wrap_json_value_create_logical -->
<g id="edge6" class="edge"><title>interface~json_create_logical&#45;&gt;proc~wrap_json_value_create_logical</title>
<path fill="none" stroke="black" stroke-dasharray="5,2" d="M290.235,-26.8907C298.513,-25.9225 307.284,-24.8966 316.161,-23.8584"/>
<polygon fill="black" stroke="black" points="316.682,-27.3213 326.208,-22.6833 315.869,-20.3687 316.682,-27.3213"/>
</g>
<!-- proc~test_10 -->
<g id="node4" class="node"><title>proc~test_10</title>
<a xlink:href="../proc/test_10.html" xlink:title="test_10">
<polygon fill="#d9534f" stroke="#d9534f" points="150,-46 96,-46 96,-20 150,-20 150,-46"/>
<text text-anchor="middle" x="123" y="-30.55" font-family="Helvetica,sans-Serif" font-size="10.50" fill="white">test_10</text>
</a>
</g>
<!-- proc~test_10&#45;&gt;interface~json_create_logical -->
<g id="edge4" class="edge"><title>proc~test_10&#45;&gt;interface~json_create_logical</title>
<path fill="none" stroke="black" d="M150.253,-33C157.975,-33 166.713,-33 175.609,-33"/>
<polygon fill="black" stroke="black" points="175.674,-36.5001 185.674,-33 175.674,-29.5001 175.674,-36.5001"/>
</g>
<!-- program~jf_test_10 -->
<g id="node5" class="node"><title>program~jf_test_10</title>
<a xlink:href="../program/jf_test_10.html" xlink:title="jf_test_10">
<polygon fill="#f0ad4e" stroke="#f0ad4e" points="59,-46 1,-46 1,-20 59,-20 59,-46"/>
<text text-anchor="middle" x="30" y="-30.55" font-family="Helvetica,sans-Serif" font-size="10.50" fill="white">jf_test_10</text>
</a>
</g>
<!-- program~jf_test_10&#45;&gt;proc~test_10 -->
<g id="edge2" class="edge"><title>program~jf_test_10&#45;&gt;proc~test_10</title>
<path fill="none" stroke="black" d="M59.6815,-33C67.9202,-33 76.973,-33 85.5921,-33"/>
<polygon fill="black" stroke="black" points="85.8066,-36.5001 95.8065,-33 85.8065,-29.5001 85.8066,-36.5001"/>
</g>
</g>
</svg>
