<?xml version="1.0" encoding="UTF-8" standalone="no"?>
<!DOCTYPE svg PUBLIC "-//W3C//DTD SVG 1.1//EN"
 "http://www.w3.org/Graphics/SVG/1.1/DTD/svg11.dtd">
<!-- Generated by graphviz version 2.26.3 (20100126.1600)
 -->
<!-- Title: proc~~json_value_create_integer~~CallsGraph Pages: 1 -->
<svg width="420pt" height="78pt"
 viewBox="0.00 0.00 420.00 78.00" xmlns="http://www.w3.org/2000/svg" xmlns:xlink="http://www.w3.org/1999/xlink">
<g id="graph1" class="graph" transform="scale(1 1) rotate(0) translate(4 74)">
<title>proc~~json_value_create_integer~~CallsGraph</title>
<polygon fill="white" stroke="white" points="-4,5 -4,-74 417,-74 417,5 -4,5"/>
<!-- proc~json_value_create_integer -->
<g id="node1" class="node"><title>proc~json_value_create_integer</title>
<polygon fill="none" stroke="black" points="139,-48 1,-48 1,-22 139,-22 139,-48"/>
<text text-anchor="middle" x="70" y="-32.55" font-family="Helvetica,sans-Serif" font-size="10.50">json_value_create_integer</text>
</g>
<!-- proc~json_value_create -->
<g id="node2" class="node"><title>proc~json_value_create</title>
<a xlink:href="../proc/json_value_create.html" xlink:title="json_value_create">
<polygon fill="#d9534f" stroke="#d9534f" points="276,-70 176,-70 176,-44 276,-44 276,-70"/>
<text text-anchor="middle" x="226" y="-54.55" font-family="Helvetica,sans-Serif" font-size="10.50" fill="white">json_value_create</text>
</a>
</g>
<!-- proc~json_value_create_integer&#45;&gt;proc~json_value_create -->
<g id="edge4" class="edge"><title>proc~json_value_create_integer&#45;&gt;proc~json_value_create</title>
<path fill="none" stroke="black" d="M139.787,-44.8418C148.533,-46.0752 157.419,-47.3283 165.997,-48.5381"/>
<polygon fill="black" stroke="black" points="165.509,-52.0037 175.9,-49.9345 166.486,-45.0723 165.509,-52.0037"/>
</g>
<!-- proc~to_integer -->
<g id="node3" class="node"><title>proc~to_integer</title>
<a xlink:href="../proc/to_integer.html" xlink:title="to_integer">
<polygon fill="#d9534f" stroke="#d9534f" points="256,-26 196,-26 196,-1.24345e-14 256,-3.55271e-15 256,-26"/>
<text text-anchor="middle" x="226" y="-10.55" font-family="Helvetica,sans-Serif" font-size="10.50" fill="white">to_integer</text>
</a>
</g>
<!-- proc~json_value_create_integer&#45;&gt;proc~to_integer -->
<g id="edge6" class="edge"><title>proc~json_value_create_integer&#45;&gt;proc~to_integer</title>
<path fill="none" stroke="black" d="M139.787,-25.1582C155.302,-22.9702 171.255,-20.7204 185.155,-18.7602"/>
<polygon fill="black" stroke="black" points="185.929,-22.1857 195.342,-17.3235 184.952,-15.2543 185.929,-22.1857"/>
</g>
<!-- proc~destroy_json_data -->
<g id="node4" class="node"><title>proc~destroy_json_data</title>
<a xlink:href="../proc/destroy_json_data.html" xlink:title="destroy_json_data">
<polygon fill="#d9534f" stroke="#d9534f" points="412,-26 312,-26 312,-1.24345e-14 412,-3.55271e-15 412,-26"/>
<text text-anchor="middle" x="362" y="-10.55" font-family="Helvetica,sans-Serif" font-size="10.50" fill="white">destroy_json_data</text>
</a>
</g>
<!-- proc~to_integer&#45;&gt;proc~destroy_json_data -->
<g id="edge2" class="edge"><title>proc~to_integer&#45;&gt;proc~destroy_json_data</title>
<path fill="none" stroke="black" d="M256.521,-13C269.884,-13 286.054,-13 301.677,-13"/>
<polygon fill="black" stroke="black" points="301.83,-16.5001 311.829,-13 301.829,-9.5001 301.83,-16.5001"/>
</g>
</g>
</svg>
