<?xml version="1.0" encoding="UTF-8" standalone="no"?>
<!DOCTYPE svg PUBLIC "-//W3C//DTD SVG 1.1//EN"
 "http://www.w3.org/Graphics/SVG/1.1/DTD/svg11.dtd">
<!-- Generated by graphviz version 2.26.3 (20100126.1600)
 -->
<!-- Title: proc~~add_variables_to_input~~CallsGraph Pages: 1 -->
<svg width="306pt" height="166pt"
 viewBox="0.00 0.00 306.00 166.00" xmlns="http://www.w3.org/2000/svg" xmlns:xlink="http://www.w3.org/1999/xlink">
<g id="graph1" class="graph" transform="scale(1 1) rotate(0) translate(4 162)">
<title>proc~~add_variables_to_input~~CallsGraph</title>
<polygon fill="white" stroke="white" points="-4,5 -4,-162 303,-162 303,5 -4,5"/>
<!-- proc~add_variables_to_input -->
<g id="node1" class="node"><title>proc~add_variables_to_input</title>
<polygon fill="none" stroke="black" points="124,-92 4.9738e-14,-92 0,-66 124,-66 124,-92"/>
<text text-anchor="middle" x="62" y="-76.55" font-family="Helvetica,sans-Serif" font-size="10.50">add_variables_to_input</text>
</g>
<!-- json_create_object -->
<g id="node2" class="node"><title>json_create_object</title>
<polygon fill="#777777" stroke="#777777" points="280,-158 178,-158 178,-132 280,-132 280,-158"/>
<text text-anchor="middle" x="229" y="-142.55" font-family="Helvetica,sans-Serif" font-size="10.50" fill="white">json_create_object</text>
</g>
<!-- proc~add_variables_to_input&#45;&gt;json_create_object -->
<g id="edge2" class="edge"><title>proc~add_variables_to_input&#45;&gt;json_create_object</title>
<path fill="none" stroke="black" d="M89.108,-92.1696C108.59,-101.387 135.613,-113.672 160,-123 165.064,-124.937 170.381,-126.846 175.72,-128.681"/>
<polygon fill="black" stroke="black" points="174.713,-132.035 185.307,-131.895 176.938,-125.398 174.713,-132.035"/>
</g>
<!-- json_add -->
<g id="node3" class="node"><title>json_add</title>
<polygon fill="#777777" stroke="#777777" points="257,-114 201,-114 201,-88 257,-88 257,-114"/>
<text text-anchor="middle" x="229" y="-98.55" font-family="Helvetica,sans-Serif" font-size="10.50" fill="white">json_add</text>
</g>
<!-- proc~add_variables_to_input&#45;&gt;json_add -->
<g id="edge4" class="edge"><title>proc~add_variables_to_input&#45;&gt;json_add</title>
<path fill="none" stroke="black" d="M124.185,-87.192C146.509,-90.1329 171.012,-93.3609 190.71,-95.9558"/>
<polygon fill="black" stroke="black" points="190.453,-99.4521 200.824,-97.2882 191.367,-92.512 190.453,-99.4521"/>
</g>
<!-- json_failed -->
<g id="node4" class="node"><title>json_failed</title>
<polygon fill="#777777" stroke="#777777" points="261,-70 197,-70 197,-44 261,-44 261,-70"/>
<text text-anchor="middle" x="229" y="-54.55" font-family="Helvetica,sans-Serif" font-size="10.50" fill="white">json_failed</text>
</g>
<!-- proc~add_variables_to_input&#45;&gt;json_failed -->
<g id="edge6" class="edge"><title>proc~add_variables_to_input&#45;&gt;json_failed</title>
<path fill="none" stroke="black" d="M124.185,-70.808C144.998,-68.0661 167.705,-65.0748 186.646,-62.5796"/>
<polygon fill="black" stroke="black" points="187.288,-66.0253 196.745,-61.2492 186.374,-59.0853 187.288,-66.0253"/>
</g>
<!-- json_print_error_message -->
<g id="node5" class="node"><title>json_print_error_message</title>
<polygon fill="#777777" stroke="#777777" points="298,-26 160,-26 160,-1.24345e-14 298,-3.55271e-15 298,-26"/>
<text text-anchor="middle" x="229" y="-10.55" font-family="Helvetica,sans-Serif" font-size="10.50" fill="white">json_print_error_message</text>
</g>
<!-- proc~add_variables_to_input&#45;&gt;json_print_error_message -->
<g id="edge8" class="edge"><title>proc~add_variables_to_input&#45;&gt;json_print_error_message</title>
<path fill="none" stroke="black" d="M89.108,-65.8304C108.59,-56.6127 135.613,-44.328 160,-35 165.064,-33.0629 170.381,-31.1541 175.72,-29.319"/>
<polygon fill="black" stroke="black" points="176.938,-32.6023 185.307,-26.1055 174.713,-25.9653 176.938,-32.6023"/>
</g>
</g>
</svg>
