<?xml version="1.0" encoding="UTF-8" standalone="no"?>
<!DOCTYPE svg PUBLIC "-//W3C//DTD SVG 1.1//EN"
 "http://www.w3.org/Graphics/SVG/1.1/DTD/svg11.dtd">
<!-- Generated by graphviz version 2.26.3 (20100126.1600)
 -->
<!-- Title: proc~~json_file_get_integer~~CalledByGraph Pages: 1 -->
<svg width="298pt" height="34pt"
 viewBox="0.00 0.00 298.00 34.00" xmlns="http://www.w3.org/2000/svg" xmlns:xlink="http://www.w3.org/1999/xlink">
<g id="graph1" class="graph" transform="scale(1 1) rotate(0) translate(4 30)">
<title>proc~~json_file_get_integer~~CalledByGraph</title>
<polygon fill="white" stroke="white" points="-4,5 -4,-30 295,-30 295,5 -4,5"/>
<!-- proc~json_file_get_integer -->
<g id="node1" class="node"><title>proc~json_file_get_integer</title>
<polygon fill="none" stroke="black" points="290,-26 178,-26 178,-1.24345e-14 290,-3.55271e-15 290,-26"/>
<text text-anchor="middle" x="234" y="-10.55" font-family="Helvetica,sans-Serif" font-size="10.50">json_file_get_integer</text>
</g>
<!-- proc~wrap_json_file_get_integer -->
<g id="node2" class="node"><title>proc~wrap_json_file_get_integer</title>
<a xlink:href="../proc/wrap_json_file_get_integer.html" xlink:title="wrap_json_file_get_integer">
<polygon fill="#d9534f" stroke="#d9534f" points="141,-26 1,-26 1,-1.24345e-14 141,-3.55271e-15 141,-26"/>
<text text-anchor="middle" x="71" y="-10.55" font-family="Helvetica,sans-Serif" font-size="10.50" fill="white">wrap_json_file_get_integer</text>
</a>
</g>
<!-- proc~wrap_json_file_get_integer&#45;&gt;proc~json_file_get_integer -->
<g id="edge2" class="edge"><title>proc~wrap_json_file_get_integer&#45;&gt;proc~json_file_get_integer</title>
<path fill="none" stroke="black" d="M141.546,-13C150.11,-13 158.838,-13 167.343,-13"/>
<polygon fill="black" stroke="black" points="167.58,-16.5001 177.58,-13 167.58,-9.5001 167.58,-16.5001"/>
</g>
</g>
</svg>
