<?xml version="1.0" encoding="UTF-8" standalone="no"?>
<!DOCTYPE svg PUBLIC "-//W3C//DTD SVG 1.1//EN"
 "http://www.w3.org/Graphics/SVG/1.1/DTD/svg11.dtd">
<!-- Generated by graphviz version 2.26.3 (20100126.1600)
 -->
<!-- Title: proc~~json_file_get_logical~~CalledByGraph Pages: 1 -->
<svg width="292pt" height="34pt"
 viewBox="0.00 0.00 292.00 34.00" xmlns="http://www.w3.org/2000/svg" xmlns:xlink="http://www.w3.org/1999/xlink">
<g id="graph1" class="graph" transform="scale(1 1) rotate(0) translate(4 30)">
<title>proc~~json_file_get_logical~~CalledByGraph</title>
<polygon fill="white" stroke="white" points="-4,5 -4,-30 289,-30 289,5 -4,5"/>
<!-- proc~json_file_get_logical -->
<g id="node1" class="node"><title>proc~json_file_get_logical</title>
<polygon fill="none" stroke="black" points="283,-26 175,-26 175,-1.24345e-14 283,-3.55271e-15 283,-26"/>
<text text-anchor="middle" x="229" y="-10.55" font-family="Helvetica,sans-Serif" font-size="10.50">json_file_get_logical</text>
</g>
<!-- proc~wrap_json_file_get_logical -->
<g id="node2" class="node"><title>proc~wrap_json_file_get_logical</title>
<a xlink:href="../proc/wrap_json_file_get_logical.html" xlink:title="wrap_json_file_get_logical">
<polygon fill="#d9534f" stroke="#d9534f" points="138,-26 7.10543e-14,-26 0,-1.24345e-14 138,-3.55271e-15 138,-26"/>
<text text-anchor="middle" x="69" y="-10.55" font-family="Helvetica,sans-Serif" font-size="10.50" fill="white">wrap_json_file_get_logical</text>
</a>
</g>
<!-- proc~wrap_json_file_get_logical&#45;&gt;proc~json_file_get_logical -->
<g id="edge2" class="edge"><title>proc~wrap_json_file_get_logical&#45;&gt;proc~json_file_get_logical</title>
<path fill="none" stroke="black" d="M138.248,-13C146.774,-13 155.466,-13 163.927,-13"/>
<polygon fill="black" stroke="black" points="164.107,-16.5001 174.107,-13 164.107,-9.5001 164.107,-16.5001"/>
</g>
</g>
</svg>
