<?xml version="1.0" encoding="UTF-8" standalone="no"?>
<!DOCTYPE svg PUBLIC "-//W3C//DTD SVG 1.1//EN"
 "http://www.w3.org/Graphics/SVG/1.1/DTD/svg11.dtd">
<!-- Generated by graphviz version 2.26.3 (20100126.1600)
 -->
<!-- Title: proc~~json_check_for_errors~~CalledByGraph Pages: 1 -->
<svg width="641pt" height="631pt"
 viewBox="0.00 0.00 641.00 631.20" xmlns="http://www.w3.org/2000/svg" xmlns:xlink="http://www.w3.org/1999/xlink">
<g id="graph1" class="graph" transform="scale(0.980122 0.980122) rotate(0) translate(4 640)">
<title>proc~~json_check_for_errors~~CalledByGraph</title>
<polygon fill="white" stroke="white" points="-4,5 -4,-640 651,-640 651,5 -4,5"/>
<!-- proc~json_check_for_errors -->
<g id="node1" class="node"><title>proc~json_check_for_errors</title>
<polygon fill="none" stroke="black" points="645,-328 527,-328 527,-302 645,-302 645,-328"/>
<text text-anchor="middle" x="586" y="-312.55" font-family="Helvetica,sans-Serif" font-size="10.50">json_check_for_errors</text>
</g>
<!-- proc~json_print_error_message -->
<g id="node2" class="node"><title>proc~json_print_error_message</title>
<a xlink:href="../proc/json_print_error_message.html" xlink:title="json_print_error_message">
<polygon fill="#d9534f" stroke="#d9534f" points="490,-328 352,-328 352,-302 490,-302 490,-328"/>
<text text-anchor="middle" x="421" y="-312.55" font-family="Helvetica,sans-Serif" font-size="10.50" fill="white">json_print_error_message</text>
</a>
</g>
<!-- proc~json_print_error_message&#45;&gt;proc~json_check_for_errors -->
<g id="edge64" class="edge"><title>proc~json_print_error_message&#45;&gt;proc~json_check_for_errors</title>
<path fill="none" stroke="black" d="M490.019,-315C498.715,-315 507.616,-315 516.321,-315"/>
<polygon fill="black" stroke="black" points="516.428,-318.5 526.428,-315 516.428,-311.5 516.428,-318.5"/>
</g>
<!-- proc~test_3 -->
<g id="node3" class="node"><title>proc~test_3</title>
<a xlink:href="../proc/test_3.html" xlink:title="test_3">
<polygon fill="#d9534f" stroke="#d9534f" points="281,-636 227,-636 227,-610 281,-610 281,-636"/>
<text text-anchor="middle" x="254" y="-620.55" font-family="Helvetica,sans-Serif" font-size="10.50" fill="white">test_3</text>
</a>
</g>
<!-- proc~test_3&#45;&gt;proc~json_print_error_message -->
<g id="edge34" class="edge"><title>proc~test_3&#45;&gt;proc~json_print_error_message</title>
<path fill="none" stroke="black" d="M281.208,-618.736C293.202,-615.615 306.662,-610.237 316,-601 391.655,-526.163 413.248,-392.311 419.026,-338.425"/>
<polygon fill="black" stroke="black" points="422.536,-338.485 420.032,-328.191 415.57,-337.8 422.536,-338.485"/>
</g>
<!-- proc~test_6 -->
<g id="node4" class="node"><title>proc~test_6</title>
<a xlink:href="../proc/test_6.html" xlink:title="test_6">
<polygon fill="#d9534f" stroke="#d9534f" points="281,-592 227,-592 227,-566 281,-566 281,-592"/>
<text text-anchor="middle" x="254" y="-576.55" font-family="Helvetica,sans-Serif" font-size="10.50" fill="white">test_6</text>
</a>
</g>
<!-- proc~test_6&#45;&gt;proc~json_print_error_message -->
<g id="edge36" class="edge"><title>proc~test_6&#45;&gt;proc~json_print_error_message</title>
<path fill="none" stroke="black" d="M281.282,-574.405C293.148,-571.221 306.484,-565.887 316,-557 381.833,-495.522 408.487,-385.667 417.304,-338.057"/>
<polygon fill="black" stroke="black" points="420.767,-338.571 419.05,-328.117 413.872,-337.36 420.767,-338.571"/>
</g>
<!-- proc~test_13 -->
<g id="node5" class="node"><title>proc~test_13</title>
<a xlink:href="../proc/test_13.html" xlink:title="test_13">
<polygon fill="#d9534f" stroke="#d9534f" points="281,-548 227,-548 227,-522 281,-522 281,-548"/>
<text text-anchor="middle" x="254" y="-532.55" font-family="Helvetica,sans-Serif" font-size="10.50" fill="white">test_13</text>
</a>
</g>
<!-- proc~test_13&#45;&gt;proc~json_print_error_message -->
<g id="edge38" class="edge"><title>proc~test_13&#45;&gt;proc~json_print_error_message</title>
<path fill="none" stroke="black" d="M281.279,-529.969C293.005,-526.708 306.23,-521.433 316,-513 371.969,-464.689 402.701,-379.008 414.824,-338.051"/>
<polygon fill="black" stroke="black" points="418.257,-338.777 417.633,-328.201 411.525,-336.857 418.257,-338.777"/>
</g>
<!-- proc~test_5 -->
<g id="node6" class="node"><title>proc~test_5</title>
<a xlink:href="../proc/test_5.html" xlink:title="test_5">
<polygon fill="#d9534f" stroke="#d9534f" points="281,-504 227,-504 227,-478 281,-478 281,-504"/>
<text text-anchor="middle" x="254" y="-488.55" font-family="Helvetica,sans-Serif" font-size="10.50" fill="white">test_5</text>
</a>
</g>
<!-- proc~test_5&#45;&gt;proc~json_print_error_message -->
<g id="edge40" class="edge"><title>proc~test_5&#45;&gt;proc~json_print_error_message</title>
<path fill="none" stroke="black" d="M281.165,-485.361C292.735,-481.997 305.868,-476.809 316,-469 362.453,-433.194 395.762,-370.894 411.253,-337.564"/>
<polygon fill="black" stroke="black" points="414.551,-338.765 415.483,-328.212 408.173,-335.88 414.551,-338.765"/>
</g>
<!-- none~check_errors -->
<g id="node7" class="node"><title>none~check_errors</title>
<polygon fill="#d9534f" stroke="#d9534f" points="291,-460 217,-460 217,-434 291,-434 291,-460"/>
<text text-anchor="middle" x="254" y="-444.55" font-family="Helvetica,sans-Serif" font-size="10.50" fill="white">check_errors</text>
</g>
<!-- none~check_errors&#45;&gt;proc~json_print_error_message -->
<g id="edge42" class="edge"><title>none~check_errors&#45;&gt;proc~json_print_error_message</title>
<path fill="none" stroke="black" d="M291.721,-436.787C300.069,-433.677 308.619,-429.781 316,-425 353.298,-400.839 386.943,-360.893 405.614,-336.366"/>
<polygon fill="black" stroke="black" points="408.618,-338.193 411.794,-328.085 403.008,-334.006 408.618,-338.193"/>
</g>
<!-- proc~test_9 -->
<g id="node8" class="node"><title>proc~test_9</title>
<a xlink:href="../proc/test_9.html" xlink:title="test_9">
<polygon fill="#d9534f" stroke="#d9534f" points="281,-416 227,-416 227,-390 281,-390 281,-416"/>
<text text-anchor="middle" x="254" y="-400.55" font-family="Helvetica,sans-Serif" font-size="10.50" fill="white">test_9</text>
</a>
</g>
<!-- proc~test_9&#45;&gt;proc~json_print_error_message -->
<g id="edge44" class="edge"><title>proc~test_9&#45;&gt;proc~json_print_error_message</title>
<path fill="none" stroke="black" d="M281.075,-394.835C292.129,-391.133 304.899,-386.377 316,-381 343.977,-367.449 373.793,-348.191 394.477,-333.973"/>
<polygon fill="black" stroke="black" points="396.538,-336.802 402.75,-328.219 392.542,-331.055 396.538,-336.802"/>
</g>
<!-- proc~test_10 -->
<g id="node9" class="node"><title>proc~test_10</title>
<a xlink:href="../proc/test_10.html" xlink:title="test_10">
<polygon fill="#d9534f" stroke="#d9534f" points="281,-372 227,-372 227,-346 281,-346 281,-372"/>
<text text-anchor="middle" x="254" y="-356.55" font-family="Helvetica,sans-Serif" font-size="10.50" fill="white">test_10</text>
</a>
</g>
<!-- proc~test_10&#45;&gt;proc~json_print_error_message -->
<g id="edge46" class="edge"><title>proc~test_10&#45;&gt;proc~json_print_error_message</title>
<path fill="none" stroke="black" d="M281.203,-351.833C302.934,-346.107 334.188,-337.873 361.636,-330.641"/>
<polygon fill="black" stroke="black" points="362.773,-333.961 371.551,-328.028 360.989,-327.192 362.773,-333.961"/>
</g>
<!-- proc~test_4 -->
<g id="node10" class="node"><title>proc~test_4</title>
<a xlink:href="../proc/test_4.html" xlink:title="test_4">
<polygon fill="#d9534f" stroke="#d9534f" points="281,-328 227,-328 227,-302 281,-302 281,-328"/>
<text text-anchor="middle" x="254" y="-312.55" font-family="Helvetica,sans-Serif" font-size="10.50" fill="white">test_4</text>
</a>
</g>
<!-- proc~test_4&#45;&gt;proc~json_print_error_message -->
<g id="edge48" class="edge"><title>proc~test_4&#45;&gt;proc~json_print_error_message</title>
<path fill="none" stroke="black" d="M281.203,-315C297.719,-315 319.736,-315 341.402,-315"/>
<polygon fill="black" stroke="black" points="341.646,-318.5 351.646,-315 341.646,-311.5 341.646,-318.5"/>
</g>
<!-- proc~test_14 -->
<g id="node11" class="node"><title>proc~test_14</title>
<a xlink:href="../proc/test_14.html" xlink:title="test_14">
<polygon fill="#d9534f" stroke="#d9534f" points="281,-284 227,-284 227,-258 281,-258 281,-284"/>
<text text-anchor="middle" x="254" y="-268.55" font-family="Helvetica,sans-Serif" font-size="10.50" fill="white">test_14</text>
</a>
</g>
<!-- proc~test_14&#45;&gt;proc~json_print_error_message -->
<g id="edge50" class="edge"><title>proc~test_14&#45;&gt;proc~json_print_error_message</title>
<path fill="none" stroke="black" d="M281.203,-278.167C302.934,-283.893 334.188,-292.127 361.636,-299.359"/>
<polygon fill="black" stroke="black" points="360.989,-302.808 371.551,-301.972 362.773,-296.039 360.989,-302.808"/>
</g>
<!-- proc~test_8 -->
<g id="node12" class="node"><title>proc~test_8</title>
<a xlink:href="../proc/test_8.html" xlink:title="test_8">
<polygon fill="#d9534f" stroke="#d9534f" points="281,-240 227,-240 227,-214 281,-214 281,-240"/>
<text text-anchor="middle" x="254" y="-224.55" font-family="Helvetica,sans-Serif" font-size="10.50" fill="white">test_8</text>
</a>
</g>
<!-- proc~test_8&#45;&gt;proc~json_print_error_message -->
<g id="edge52" class="edge"><title>proc~test_8&#45;&gt;proc~json_print_error_message</title>
<path fill="none" stroke="black" d="M281.075,-235.165C292.129,-238.867 304.899,-243.623 316,-249 343.977,-262.551 373.793,-281.809 394.477,-296.027"/>
<polygon fill="black" stroke="black" points="392.542,-298.945 402.75,-301.781 396.538,-293.198 392.542,-298.945"/>
</g>
<!-- proc~test_11 -->
<g id="node13" class="node"><title>proc~test_11</title>
<a xlink:href="../proc/test_11.html" xlink:title="test_11">
<polygon fill="#d9534f" stroke="#d9534f" points="281,-196 227,-196 227,-170 281,-170 281,-196"/>
<text text-anchor="middle" x="254" y="-180.55" font-family="Helvetica,sans-Serif" font-size="10.50" fill="white">test_11</text>
</a>
</g>
<!-- proc~test_11&#45;&gt;proc~json_print_error_message -->
<g id="edge54" class="edge"><title>proc~test_11&#45;&gt;proc~json_print_error_message</title>
<path fill="none" stroke="black" d="M281.207,-189.64C292.525,-193.147 305.455,-198.169 316,-205 353.298,-229.161 386.943,-269.107 405.614,-293.634"/>
<polygon fill="black" stroke="black" points="403.008,-295.994 411.794,-301.915 408.618,-291.807 403.008,-295.994"/>
</g>
<!-- proc~test_1 -->
<g id="node14" class="node"><title>proc~test_1</title>
<a xlink:href="../proc/test_1.html" xlink:title="test_1">
<polygon fill="#d9534f" stroke="#d9534f" points="281,-152 227,-152 227,-126 281,-126 281,-152"/>
<text text-anchor="middle" x="254" y="-136.55" font-family="Helvetica,sans-Serif" font-size="10.50" fill="white">test_1</text>
</a>
</g>
<!-- proc~test_1&#45;&gt;proc~json_print_error_message -->
<g id="edge56" class="edge"><title>proc~test_1&#45;&gt;proc~json_print_error_message</title>
<path fill="none" stroke="black" d="M281.165,-144.639C292.735,-148.003 305.868,-153.191 316,-161 362.453,-196.806 395.762,-259.106 411.253,-292.436"/>
<polygon fill="black" stroke="black" points="408.173,-294.12 415.483,-301.788 414.551,-291.235 408.173,-294.12"/>
</g>
<!-- proc~test_7 -->
<g id="node15" class="node"><title>proc~test_7</title>
<a xlink:href="../proc/test_7.html" xlink:title="test_7">
<polygon fill="#d9534f" stroke="#d9534f" points="281,-108 227,-108 227,-82 281,-82 281,-108"/>
<text text-anchor="middle" x="254" y="-92.55" font-family="Helvetica,sans-Serif" font-size="10.50" fill="white">test_7</text>
</a>
</g>
<!-- proc~test_7&#45;&gt;proc~json_print_error_message -->
<g id="edge58" class="edge"><title>proc~test_7&#45;&gt;proc~json_print_error_message</title>
<path fill="none" stroke="black" d="M281.279,-100.031C293.005,-103.292 306.23,-108.567 316,-117 371.969,-165.311 402.701,-250.992 414.824,-291.949"/>
<polygon fill="black" stroke="black" points="411.525,-293.143 417.633,-301.799 418.257,-291.223 411.525,-293.143"/>
</g>
<!-- proc~test_2 -->
<g id="node16" class="node"><title>proc~test_2</title>
<a xlink:href="../proc/test_2.html" xlink:title="test_2">
<polygon fill="#d9534f" stroke="#d9534f" points="153,-45 99,-45 99,-19 153,-19 153,-45"/>
<text text-anchor="middle" x="126" y="-29.55" font-family="Helvetica,sans-Serif" font-size="10.50" fill="white">test_2</text>
</a>
</g>
<!-- proc~test_2&#45;&gt;proc~json_print_error_message -->
<g id="edge60" class="edge"><title>proc~test_2&#45;&gt;proc~json_print_error_message</title>
<path fill="none" stroke="black" d="M153.164,-34.7992C199.533,-40.0664 291.344,-52.7757 316,-73 385.808,-130.261 410.368,-242.846 417.971,-291.587"/>
<polygon fill="black" stroke="black" points="414.548,-292.368 419.453,-301.759 421.475,-291.359 414.548,-292.368"/>
</g>
<!-- proc~add_variables_to_input -->
<g id="node17" class="node"><title>proc~add_variables_to_input</title>
<a xlink:href="../proc/add_variables_to_input.html" xlink:title="add_variables_to_input">
<polygon fill="#d9534f" stroke="#d9534f" points="316,-26 192,-26 192,-1.24345e-14 316,-3.55271e-15 316,-26"/>
<text text-anchor="middle" x="254" y="-10.55" font-family="Helvetica,sans-Serif" font-size="10.50" fill="white">add_variables_to_input</text>
</a>
</g>
<!-- proc~test_2&#45;&gt;proc~add_variables_to_input -->
<g id="edge32" class="edge"><title>proc~test_2&#45;&gt;proc~add_variables_to_input</title>
<path fill="none" stroke="black" d="M153.146,-27.9706C161.677,-26.7043 171.533,-25.2412 181.673,-23.7361"/>
<polygon fill="black" stroke="black" points="182.491,-27.153 191.869,-22.2226 181.463,-20.2289 182.491,-27.153"/>
</g>
<!-- proc~add_variables_to_input&#45;&gt;proc~json_print_error_message -->
<g id="edge62" class="edge"><title>proc~add_variables_to_input&#45;&gt;proc~json_print_error_message</title>
<path fill="none" stroke="black" d="M296.599,-26.1181C303.731,-29.7512 310.567,-34.3115 316,-40 386.535,-113.855 410.931,-239.979 418.241,-291.764"/>
<polygon fill="black" stroke="black" points="414.802,-292.459 419.585,-301.912 421.742,-291.539 414.802,-292.459"/>
</g>
<!-- program~jf_test_3 -->
<g id="node18" class="node"><title>program~jf_test_3</title>
<a xlink:href="../program/jf_test_3.html" xlink:title="jf_test_3">
<polygon fill="#f0ad4e" stroke="#f0ad4e" points="153,-636 99,-636 99,-610 153,-610 153,-636"/>
<text text-anchor="middle" x="126" y="-620.55" font-family="Helvetica,sans-Serif" font-size="10.50" fill="white">jf_test_3</text>
</a>
</g>
<!-- program~jf_test_3&#45;&gt;proc~test_3 -->
<g id="edge2" class="edge"><title>program~jf_test_3&#45;&gt;proc~test_3</title>
<path fill="none" stroke="black" d="M153.146,-623C171.643,-623 196.372,-623 216.713,-623"/>
<polygon fill="black" stroke="black" points="216.894,-626.5 226.894,-623 216.894,-619.5 216.894,-626.5"/>
</g>
<!-- program~jf_test_6 -->
<g id="node20" class="node"><title>program~jf_test_6</title>
<a xlink:href="../program/jf_test_6.html" xlink:title="jf_test_6">
<polygon fill="#f0ad4e" stroke="#f0ad4e" points="153,-592 99,-592 99,-566 153,-566 153,-592"/>
<text text-anchor="middle" x="126" y="-576.55" font-family="Helvetica,sans-Serif" font-size="10.50" fill="white">jf_test_6</text>
</a>
</g>
<!-- program~jf_test_6&#45;&gt;proc~test_6 -->
<g id="edge4" class="edge"><title>program~jf_test_6&#45;&gt;proc~test_6</title>
<path fill="none" stroke="black" d="M153.146,-579C171.643,-579 196.372,-579 216.713,-579"/>
<polygon fill="black" stroke="black" points="216.894,-582.5 226.894,-579 216.894,-575.5 216.894,-582.5"/>
</g>
<!-- program~jf_test_13 -->
<g id="node22" class="node"><title>program~jf_test_13</title>
<a xlink:href="../program/jf_test_13.html" xlink:title="jf_test_13">
<polygon fill="#f0ad4e" stroke="#f0ad4e" points="155,-548 97,-548 97,-522 155,-522 155,-548"/>
<text text-anchor="middle" x="126" y="-532.55" font-family="Helvetica,sans-Serif" font-size="10.50" fill="white">jf_test_13</text>
</a>
</g>
<!-- program~jf_test_13&#45;&gt;proc~test_13 -->
<g id="edge6" class="edge"><title>program~jf_test_13&#45;&gt;proc~test_13</title>
<path fill="none" stroke="black" d="M155.688,-535C173.842,-535 197.226,-535 216.634,-535"/>
<polygon fill="black" stroke="black" points="216.659,-538.5 226.659,-535 216.659,-531.5 216.659,-538.5"/>
</g>
<!-- program~jf_test_5 -->
<g id="node24" class="node"><title>program~jf_test_5</title>
<a xlink:href="../program/jf_test_5.html" xlink:title="jf_test_5">
<polygon fill="#f0ad4e" stroke="#f0ad4e" points="153,-504 99,-504 99,-478 153,-478 153,-504"/>
<text text-anchor="middle" x="126" y="-488.55" font-family="Helvetica,sans-Serif" font-size="10.50" fill="white">jf_test_5</text>
</a>
</g>
<!-- program~jf_test_5&#45;&gt;proc~test_5 -->
<g id="edge8" class="edge"><title>program~jf_test_5&#45;&gt;proc~test_5</title>
<path fill="none" stroke="black" d="M153.146,-491C171.643,-491 196.372,-491 216.713,-491"/>
<polygon fill="black" stroke="black" points="216.894,-494.5 226.894,-491 216.894,-487.5 216.894,-494.5"/>
</g>
<!-- proc~test_12 -->
<g id="node26" class="node"><title>proc~test_12</title>
<a xlink:href="../proc/test_12.html" xlink:title="test_12">
<polygon fill="#d9534f" stroke="#d9534f" points="153,-460 99,-460 99,-434 153,-434 153,-460"/>
<text text-anchor="middle" x="126" y="-444.55" font-family="Helvetica,sans-Serif" font-size="10.50" fill="white">test_12</text>
</a>
</g>
<!-- proc~test_12&#45;&gt;none~check_errors -->
<g id="edge12" class="edge"><title>proc~test_12&#45;&gt;none~check_errors</title>
<path fill="none" stroke="black" d="M153.146,-447C168.554,-447 188.285,-447 206.202,-447"/>
<polygon fill="black" stroke="black" points="206.213,-450.5 216.213,-447 206.212,-443.5 206.213,-450.5"/>
</g>
<!-- program~jf_test_12 -->
<g id="node27" class="node"><title>program~jf_test_12</title>
<a xlink:href="../program/jf_test_12.html" xlink:title="jf_test_12">
<polygon fill="#f0ad4e" stroke="#f0ad4e" points="59,-460 1,-460 1,-434 59,-434 59,-460"/>
<text text-anchor="middle" x="30" y="-444.55" font-family="Helvetica,sans-Serif" font-size="10.50" fill="white">jf_test_12</text>
</a>
</g>
<!-- program~jf_test_12&#45;&gt;proc~test_12 -->
<g id="edge10" class="edge"><title>program~jf_test_12&#45;&gt;proc~test_12</title>
<path fill="none" stroke="black" d="M59.5865,-447C68.811,-447 79.1048,-447 88.7821,-447"/>
<polygon fill="black" stroke="black" points="88.9612,-450.5 98.9612,-447 88.9612,-443.5 88.9612,-450.5"/>
</g>
<!-- program~jf_test_9 -->
<g id="node30" class="node"><title>program~jf_test_9</title>
<a xlink:href="../program/jf_test_9.html" xlink:title="jf_test_9">
<polygon fill="#f0ad4e" stroke="#f0ad4e" points="153,-416 99,-416 99,-390 153,-390 153,-416"/>
<text text-anchor="middle" x="126" y="-400.55" font-family="Helvetica,sans-Serif" font-size="10.50" fill="white">jf_test_9</text>
</a>
</g>
<!-- program~jf_test_9&#45;&gt;proc~test_9 -->
<g id="edge14" class="edge"><title>program~jf_test_9&#45;&gt;proc~test_9</title>
<path fill="none" stroke="black" d="M153.146,-403C171.643,-403 196.372,-403 216.713,-403"/>
<polygon fill="black" stroke="black" points="216.894,-406.5 226.894,-403 216.894,-399.5 216.894,-406.5"/>
</g>
<!-- program~jf_test_10 -->
<g id="node32" class="node"><title>program~jf_test_10</title>
<a xlink:href="../program/jf_test_10.html" xlink:title="jf_test_10">
<polygon fill="#f0ad4e" stroke="#f0ad4e" points="155,-372 97,-372 97,-346 155,-346 155,-372"/>
<text text-anchor="middle" x="126" y="-356.55" font-family="Helvetica,sans-Serif" font-size="10.50" fill="white">jf_test_10</text>
</a>
</g>
<!-- program~jf_test_10&#45;&gt;proc~test_10 -->
<g id="edge16" class="edge"><title>program~jf_test_10&#45;&gt;proc~test_10</title>
<path fill="none" stroke="black" d="M155.688,-359C173.842,-359 197.226,-359 216.634,-359"/>
<polygon fill="black" stroke="black" points="216.659,-362.5 226.659,-359 216.659,-355.5 216.659,-362.5"/>
</g>
<!-- program~jf_test_4 -->
<g id="node34" class="node"><title>program~jf_test_4</title>
<a xlink:href="../program/jf_test_4.html" xlink:title="jf_test_4">
<polygon fill="#f0ad4e" stroke="#f0ad4e" points="153,-328 99,-328 99,-302 153,-302 153,-328"/>
<text text-anchor="middle" x="126" y="-312.55" font-family="Helvetica,sans-Serif" font-size="10.50" fill="white">jf_test_4</text>
</a>
</g>
<!-- program~jf_test_4&#45;&gt;proc~test_4 -->
<g id="edge18" class="edge"><title>program~jf_test_4&#45;&gt;proc~test_4</title>
<path fill="none" stroke="black" d="M153.146,-315C171.643,-315 196.372,-315 216.713,-315"/>
<polygon fill="black" stroke="black" points="216.894,-318.5 226.894,-315 216.894,-311.5 216.894,-318.5"/>
</g>
<!-- program~jf_test_14 -->
<g id="node36" class="node"><title>program~jf_test_14</title>
<a xlink:href="../program/jf_test_14.html" xlink:title="jf_test_14">
<polygon fill="#f0ad4e" stroke="#f0ad4e" points="155,-284 97,-284 97,-258 155,-258 155,-284"/>
<text text-anchor="middle" x="126" y="-268.55" font-family="Helvetica,sans-Serif" font-size="10.50" fill="white">jf_test_14</text>
</a>
</g>
<!-- program~jf_test_14&#45;&gt;proc~test_14 -->
<g id="edge20" class="edge"><title>program~jf_test_14&#45;&gt;proc~test_14</title>
<path fill="none" stroke="black" d="M155.688,-271C173.842,-271 197.226,-271 216.634,-271"/>
<polygon fill="black" stroke="black" points="216.659,-274.5 226.659,-271 216.659,-267.5 216.659,-274.5"/>
</g>
<!-- program~jf_test_8 -->
<g id="node38" class="node"><title>program~jf_test_8</title>
<a xlink:href="../program/jf_test_8.html" xlink:title="jf_test_8">
<polygon fill="#f0ad4e" stroke="#f0ad4e" points="153,-240 99,-240 99,-214 153,-214 153,-240"/>
<text text-anchor="middle" x="126" y="-224.55" font-family="Helvetica,sans-Serif" font-size="10.50" fill="white">jf_test_8</text>
</a>
</g>
<!-- program~jf_test_8&#45;&gt;proc~test_8 -->
<g id="edge22" class="edge"><title>program~jf_test_8&#45;&gt;proc~test_8</title>
<path fill="none" stroke="black" d="M153.146,-227C171.643,-227 196.372,-227 216.713,-227"/>
<polygon fill="black" stroke="black" points="216.894,-230.5 226.894,-227 216.894,-223.5 216.894,-230.5"/>
</g>
<!-- program~jf_test_11 -->
<g id="node40" class="node"><title>program~jf_test_11</title>
<a xlink:href="../program/jf_test_11.html" xlink:title="jf_test_11">
<polygon fill="#f0ad4e" stroke="#f0ad4e" points="155,-196 97,-196 97,-170 155,-170 155,-196"/>
<text text-anchor="middle" x="126" y="-180.55" font-family="Helvetica,sans-Serif" font-size="10.50" fill="white">jf_test_11</text>
</a>
</g>
<!-- program~jf_test_11&#45;&gt;proc~test_11 -->
<g id="edge24" class="edge"><title>program~jf_test_11&#45;&gt;proc~test_11</title>
<path fill="none" stroke="black" d="M155.688,-183C173.842,-183 197.226,-183 216.634,-183"/>
<polygon fill="black" stroke="black" points="216.659,-186.5 226.659,-183 216.659,-179.5 216.659,-186.5"/>
</g>
<!-- program~jf_test_1 -->
<g id="node42" class="node"><title>program~jf_test_1</title>
<a xlink:href="../program/jf_test_1.html" xlink:title="jf_test_1">
<polygon fill="#f0ad4e" stroke="#f0ad4e" points="153,-152 99,-152 99,-126 153,-126 153,-152"/>
<text text-anchor="middle" x="126" y="-136.55" font-family="Helvetica,sans-Serif" font-size="10.50" fill="white">jf_test_1</text>
</a>
</g>
<!-- program~jf_test_1&#45;&gt;proc~test_1 -->
<g id="edge26" class="edge"><title>program~jf_test_1&#45;&gt;proc~test_1</title>
<path fill="none" stroke="black" d="M153.146,-139C171.643,-139 196.372,-139 216.713,-139"/>
<polygon fill="black" stroke="black" points="216.894,-142.5 226.894,-139 216.894,-135.5 216.894,-142.5"/>
</g>
<!-- program~jf_test_7 -->
<g id="node44" class="node"><title>program~jf_test_7</title>
<a xlink:href="../program/jf_test_7.html" xlink:title="jf_test_7">
<polygon fill="#f0ad4e" stroke="#f0ad4e" points="153,-108 99,-108 99,-82 153,-82 153,-108"/>
<text text-anchor="middle" x="126" y="-92.55" font-family="Helvetica,sans-Serif" font-size="10.50" fill="white">jf_test_7</text>
</a>
</g>
<!-- program~jf_test_7&#45;&gt;proc~test_7 -->
<g id="edge28" class="edge"><title>program~jf_test_7&#45;&gt;proc~test_7</title>
<path fill="none" stroke="black" d="M153.146,-95C171.643,-95 196.372,-95 216.713,-95"/>
<polygon fill="black" stroke="black" points="216.894,-98.5001 226.894,-95 216.894,-91.5001 216.894,-98.5001"/>
</g>
<!-- program~jf_test_2 -->
<g id="node46" class="node"><title>program~jf_test_2</title>
<a xlink:href="../program/jf_test_2.html" xlink:title="jf_test_2">
<polygon fill="#f0ad4e" stroke="#f0ad4e" points="57,-45 3,-45 3,-19 57,-19 57,-45"/>
<text text-anchor="middle" x="30" y="-29.55" font-family="Helvetica,sans-Serif" font-size="10.50" fill="white">jf_test_2</text>
</a>
</g>
<!-- program~jf_test_2&#45;&gt;proc~test_2 -->
<g id="edge30" class="edge"><title>program~jf_test_2&#45;&gt;proc~test_2</title>
<path fill="none" stroke="black" d="M57.253,-32C66.9815,-32 78.118,-32 88.5542,-32"/>
<polygon fill="black" stroke="black" points="88.6789,-35.5001 98.6789,-32 88.6789,-28.5001 88.6789,-35.5001"/>
</g>
</g>
</svg>
