<?xml version="1.0" encoding="UTF-8" standalone="no"?>
<!DOCTYPE svg PUBLIC "-//W3C//DTD SVG 1.1//EN"
 "http://www.w3.org/Graphics/SVG/1.1/DTD/svg11.dtd">
<!-- Generated by graphviz version 2.26.3 (20100126.1600)
 -->
<!-- Title: proc~~json_file_update_real~~CalledByGraph Pages: 1 -->
<svg width="304pt" height="34pt"
 viewBox="0.00 0.00 304.00 34.00" xmlns="http://www.w3.org/2000/svg" xmlns:xlink="http://www.w3.org/1999/xlink">
<g id="graph1" class="graph" transform="scale(1 1) rotate(0) translate(4 30)">
<title>proc~~json_file_update_real~~CalledByGraph</title>
<polygon fill="white" stroke="white" points="-4,5 -4,-30 301,-30 301,5 -4,5"/>
<!-- proc~json_file_update_real -->
<g id="node1" class="node"><title>proc~json_file_update_real</title>
<polygon fill="none" stroke="black" points="295,-26 181,-26 181,-1.24345e-14 295,-3.55271e-15 295,-26"/>
<text text-anchor="middle" x="238" y="-10.55" font-family="Helvetica,sans-Serif" font-size="10.50">json_file_update_real</text>
</g>
<!-- proc~wrap_json_file_update_real -->
<g id="node2" class="node"><title>proc~wrap_json_file_update_real</title>
<a xlink:href="../proc/wrap_json_file_update_real.html" xlink:title="wrap_json_file_update_real">
<polygon fill="#d9534f" stroke="#d9534f" points="144,-26 5.68434e-14,-26 0,-1.24345e-14 144,-3.55271e-15 144,-26"/>
<text text-anchor="middle" x="72" y="-10.55" font-family="Helvetica,sans-Serif" font-size="10.50" fill="white">wrap_json_file_update_real</text>
</a>
</g>
<!-- proc~wrap_json_file_update_real&#45;&gt;proc~json_file_update_real -->
<g id="edge2" class="edge"><title>proc~wrap_json_file_update_real&#45;&gt;proc~json_file_update_real</title>
<path fill="none" stroke="black" d="M144.327,-13C152.899,-13 161.625,-13 170.132,-13"/>
<polygon fill="black" stroke="black" points="170.374,-16.5001 180.374,-13 170.374,-9.5001 170.374,-16.5001"/>
</g>
</g>
</svg>
