<?xml version="1.0" encoding="UTF-8" standalone="no"?>
<!DOCTYPE svg PUBLIC "-//W3C//DTD SVG 1.1//EN"
 "http://www.w3.org/Graphics/SVG/1.1/DTD/svg11.dtd">
<!-- Generated by graphviz version 2.26.3 (20100126.1600)
 -->
<!-- Title: proc~~json_initialize~~CalledByGraph Pages: 1 -->
<svg width="641pt" height="601pt"
 viewBox="0.00 0.00 641.00 600.84" xmlns="http://www.w3.org/2000/svg" xmlns:xlink="http://www.w3.org/1999/xlink">
<g id="graph1" class="graph" transform="scale(0.743619 0.743619) rotate(0) translate(4 804)">
<title>proc~~json_initialize~~CalledByGraph</title>
<polygon fill="white" stroke="white" points="-4,5 -4,-804 859,-804 859,5 -4,5"/>
<!-- proc~json_initialize -->
<g id="node1" class="node"><title>proc~json_initialize</title>
<polygon fill="none" stroke="black" points="854,-400 778,-400 778,-374 854,-374 854,-400"/>
<text text-anchor="middle" x="816" y="-384.55" font-family="Helvetica,sans-Serif" font-size="10.50">json_initialize</text>
</g>
<!-- proc~test_3 -->
<g id="node2" class="node"><title>proc~test_3</title>
<a xlink:href="../proc/test_3.html" xlink:title="test_3">
<polygon fill="#d9534f" stroke="#d9534f" points="720,-800 666,-800 666,-774 720,-774 720,-800"/>
<text text-anchor="middle" x="693" y="-784.55" font-family="Helvetica,sans-Serif" font-size="10.50" fill="white">test_3</text>
</a>
</g>
<!-- proc~test_3&#45;&gt;proc~json_initialize -->
<g id="edge48" class="edge"><title>proc~test_3&#45;&gt;proc~json_initialize</title>
<path fill="none" stroke="black" d="M720.228,-780.073C728.324,-776.756 736.491,-771.938 742,-765 786.396,-709.084 808.215,-483.447 814.232,-410.134"/>
<polygon fill="black" stroke="black" points="817.727,-410.338 815.035,-400.091 810.749,-409.78 817.727,-410.338"/>
</g>
<!-- proc~test_6 -->
<g id="node3" class="node"><title>proc~test_6</title>
<a xlink:href="../proc/test_6.html" xlink:title="test_6">
<polygon fill="#d9534f" stroke="#d9534f" points="720,-756 666,-756 666,-730 720,-730 720,-756"/>
<text text-anchor="middle" x="693" y="-740.55" font-family="Helvetica,sans-Serif" font-size="10.50" fill="white">test_6</text>
</a>
</g>
<!-- proc~test_6&#45;&gt;proc~json_initialize -->
<g id="edge50" class="edge"><title>proc~test_6&#45;&gt;proc~json_initialize</title>
<path fill="none" stroke="black" d="M720.189,-733.149C728.282,-728.998 736.458,-723.378 742,-716 778.893,-666.881 805.028,-477.202 813.25,-410.423"/>
<polygon fill="black" stroke="black" points="816.77,-410.467 814.496,-400.119 809.821,-409.626 816.77,-410.467"/>
</g>
<!-- proc~json_parse_string -->
<g id="node4" class="node"><title>proc~json_parse_string</title>
<a xlink:href="../proc/json_parse_string.html" xlink:title="json_parse_string">
<polygon fill="#d9534f" stroke="#d9534f" points="741,-636 645,-636 645,-610 741,-610 741,-636"/>
<text text-anchor="middle" x="693" y="-620.55" font-family="Helvetica,sans-Serif" font-size="10.50" fill="white">json_parse_string</text>
</a>
</g>
<!-- proc~json_parse_string&#45;&gt;proc~json_initialize -->
<g id="edge52" class="edge"><title>proc~json_parse_string&#45;&gt;proc~json_initialize</title>
<path fill="none" stroke="black" d="M719.651,-609.926C727.712,-604.922 736.005,-598.565 742,-591 786.261,-535.147 805.515,-450.456 812.552,-410.037"/>
<polygon fill="black" stroke="black" points="816.018,-410.529 814.19,-400.093 809.111,-409.391 816.018,-410.529"/>
</g>
<!-- proc~test_5 -->
<g id="node5" class="node"><title>proc~test_5</title>
<a xlink:href="../proc/test_5.html" xlink:title="test_5">
<polygon fill="#d9534f" stroke="#d9534f" points="720,-510 666,-510 666,-484 720,-484 720,-510"/>
<text text-anchor="middle" x="693" y="-494.55" font-family="Helvetica,sans-Serif" font-size="10.50" fill="white">test_5</text>
</a>
</g>
<!-- proc~test_5&#45;&gt;proc~json_initialize -->
<g id="edge54" class="edge"><title>proc~test_5&#45;&gt;proc~json_initialize</title>
<path fill="none" stroke="black" d="M720.15,-487.401C727.615,-484.09 735.451,-479.945 742,-475 766.616,-456.411 788.477,-428.2 801.94,-408.756"/>
<polygon fill="black" stroke="black" points="804.987,-410.497 807.682,-400.25 799.186,-406.58 804.987,-410.497"/>
</g>
<!-- proc~test_1 -->
<g id="node6" class="node"><title>proc~test_1</title>
<a xlink:href="../proc/test_1.html" xlink:title="test_1">
<polygon fill="#d9534f" stroke="#d9534f" points="720,-466 666,-466 666,-440 720,-440 720,-466"/>
<text text-anchor="middle" x="693" y="-450.55" font-family="Helvetica,sans-Serif" font-size="10.50" fill="white">test_1</text>
</a>
</g>
<!-- proc~test_1&#45;&gt;proc~json_initialize -->
<g id="edge56" class="edge"><title>proc~test_1&#45;&gt;proc~json_initialize</title>
<path fill="none" stroke="black" d="M720.222,-441.443C727.384,-438.222 735.049,-434.612 742,-431 756.979,-423.217 773.144,-413.737 786.533,-405.573"/>
<polygon fill="black" stroke="black" points="788.63,-408.392 795.31,-400.168 784.96,-402.431 788.63,-408.392"/>
</g>
<!-- proc~test_9 -->
<g id="node7" class="node"><title>proc~test_9</title>
<a xlink:href="../proc/test_9.html" xlink:title="test_9">
<polygon fill="#d9534f" stroke="#d9534f" points="720,-422 666,-422 666,-396 720,-396 720,-422"/>
<text text-anchor="middle" x="693" y="-406.55" font-family="Helvetica,sans-Serif" font-size="10.50" fill="white">test_9</text>
</a>
</g>
<!-- proc~test_9&#45;&gt;proc~json_initialize -->
<g id="edge58" class="edge"><title>proc~test_9&#45;&gt;proc~json_initialize</title>
<path fill="none" stroke="black" d="M720.298,-404.117C734.115,-401.646 751.311,-398.57 767.298,-395.711"/>
<polygon fill="black" stroke="black" points="768.355,-399.077 777.583,-393.871 767.123,-392.187 768.355,-399.077"/>
</g>
<!-- proc~test_8 -->
<g id="node8" class="node"><title>proc~test_8</title>
<a xlink:href="../proc/test_8.html" xlink:title="test_8">
<polygon fill="#d9534f" stroke="#d9534f" points="300,-711 246,-711 246,-685 300,-685 300,-711"/>
<text text-anchor="middle" x="273" y="-695.55" font-family="Helvetica,sans-Serif" font-size="10.50" fill="white">test_8</text>
</a>
</g>
<!-- proc~test_8&#45;&gt;proc~json_initialize -->
<g id="edge60" class="edge"><title>proc~test_8&#45;&gt;proc~json_initialize</title>
<path fill="none" stroke="black" d="M300.074,-698.75C389.71,-700.671 674.92,-702.094 742,-645 778.336,-614.073 803.895,-467.508 812.664,-410.12"/>
<polygon fill="black" stroke="black" points="816.132,-410.598 814.149,-400.19 809.209,-409.563 816.132,-410.598"/>
</g>
<!-- interface~json_parse -->
<g id="node25" class="node"><title>interface~json_parse</title>
<a xlink:href="../interface/json_parse.html" xlink:title="json_parse">
<polygon fill="#a7506f" stroke="#a7506f" points="443,-636 379,-636 379,-610 443,-610 443,-636"/>
<text text-anchor="middle" x="411" y="-620.55" font-family="Helvetica,sans-Serif" font-size="10.50" fill="white">json_parse</text>
</a>
</g>
<!-- proc~test_8&#45;&gt;interface~json_parse -->
<g id="edge10" class="edge"><title>proc~test_8&#45;&gt;interface~json_parse</title>
<path fill="none" stroke="black" d="M300.035,-687.48C312.975,-682.136 328.544,-675.247 342,-668 356.388,-660.251 371.679,-650.455 384.199,-641.982"/>
<polygon fill="black" stroke="black" points="386.512,-644.64 392.775,-636.095 382.55,-638.869 386.512,-644.64"/>
</g>
<!-- proc~test_10 -->
<g id="node9" class="node"><title>proc~test_10</title>
<a xlink:href="../proc/test_10.html" xlink:title="test_10">
<polygon fill="#d9534f" stroke="#d9534f" points="720,-378 666,-378 666,-352 720,-352 720,-378"/>
<text text-anchor="middle" x="693" y="-362.55" font-family="Helvetica,sans-Serif" font-size="10.50" fill="white">test_10</text>
</a>
</g>
<!-- proc~test_10&#45;&gt;proc~json_initialize -->
<g id="edge62" class="edge"><title>proc~test_10&#45;&gt;proc~json_initialize</title>
<path fill="none" stroke="black" d="M720.298,-369.883C734.115,-372.354 751.311,-375.43 767.298,-378.289"/>
<polygon fill="black" stroke="black" points="767.123,-381.813 777.583,-380.129 768.355,-374.923 767.123,-381.813"/>
</g>
<!-- proc~json_parse_file -->
<g id="node10" class="node"><title>proc~json_parse_file</title>
<a xlink:href="../proc/json_parse_file.html" xlink:title="json_parse_file">
<polygon fill="#d9534f" stroke="#d9534f" points="586,-592 502,-592 502,-566 586,-566 586,-592"/>
<text text-anchor="middle" x="544" y="-576.55" font-family="Helvetica,sans-Serif" font-size="10.50" fill="white">json_parse_file</text>
</a>
</g>
<!-- proc~json_parse_file&#45;&gt;proc~json_initialize -->
<g id="edge64" class="edge"><title>proc~json_parse_file&#45;&gt;proc~json_initialize</title>
<path fill="none" stroke="black" d="M586.683,-584.401C630.079,-587.527 697.138,-585.567 742,-552 788.245,-517.398 806.239,-447.318 812.705,-410.62"/>
<polygon fill="black" stroke="black" points="816.219,-410.809 814.36,-400.379 809.309,-409.692 816.219,-410.809"/>
</g>
<!-- proc~test_2 -->
<g id="node11" class="node"><title>proc~test_2</title>
<a xlink:href="../proc/test_2.html" xlink:title="test_2">
<polygon fill="#d9534f" stroke="#d9534f" points="720,-334 666,-334 666,-308 720,-308 720,-334"/>
<text text-anchor="middle" x="693" y="-318.55" font-family="Helvetica,sans-Serif" font-size="10.50" fill="white">test_2</text>
</a>
</g>
<!-- proc~test_2&#45;&gt;proc~json_initialize -->
<g id="edge66" class="edge"><title>proc~test_2&#45;&gt;proc~json_initialize</title>
<path fill="none" stroke="black" d="M720.222,-332.557C727.384,-335.778 735.049,-339.388 742,-343 756.979,-350.783 773.144,-360.263 786.533,-368.427"/>
<polygon fill="black" stroke="black" points="784.96,-371.569 795.31,-373.832 788.63,-365.608 784.96,-371.569"/>
</g>
<!-- proc~test_14 -->
<g id="node12" class="node"><title>proc~test_14</title>
<a xlink:href="../proc/test_14.html" xlink:title="test_14">
<polygon fill="#d9534f" stroke="#d9534f" points="300,-567 246,-567 246,-541 300,-541 300,-567"/>
<text text-anchor="middle" x="273" y="-551.55" font-family="Helvetica,sans-Serif" font-size="10.50" fill="white">test_14</text>
</a>
</g>
<!-- proc~test_14&#45;&gt;proc~json_initialize -->
<g id="edge68" class="edge"><title>proc~test_14&#45;&gt;proc~json_initialize</title>
<path fill="none" stroke="black" d="M300.062,-553.46C394.347,-551.379 704.683,-542.77 742,-519 781.048,-494.127 801.402,-440.949 810.296,-410.221"/>
<polygon fill="black" stroke="black" points="813.728,-410.939 812.976,-400.371 806.973,-409.102 813.728,-410.939"/>
</g>
<!-- proc~test_14&#45;&gt;interface~json_parse -->
<g id="edge8" class="edge"><title>proc~test_14&#45;&gt;interface~json_parse</title>
<path fill="none" stroke="black" d="M300.06,-562.805C313.005,-567.366 328.571,-573.366 342,-580 356.257,-587.043 371.328,-596.214 383.736,-604.277"/>
<polygon fill="black" stroke="black" points="381.978,-607.311 392.25,-609.906 385.839,-601.471 381.978,-607.311"/>
</g>
<!-- proc~test_4 -->
<g id="node13" class="node"><title>proc~test_4</title>
<a xlink:href="../proc/test_4.html" xlink:title="test_4">
<polygon fill="#d9534f" stroke="#d9534f" points="720,-290 666,-290 666,-264 720,-264 720,-290"/>
<text text-anchor="middle" x="693" y="-274.55" font-family="Helvetica,sans-Serif" font-size="10.50" fill="white">test_4</text>
</a>
</g>
<!-- proc~test_4&#45;&gt;proc~json_initialize -->
<g id="edge70" class="edge"><title>proc~test_4&#45;&gt;proc~json_initialize</title>
<path fill="none" stroke="black" d="M720.15,-286.599C727.615,-289.91 735.451,-294.055 742,-299 766.616,-317.589 788.477,-345.8 801.94,-365.244"/>
<polygon fill="black" stroke="black" points="799.186,-367.42 807.682,-373.75 804.987,-363.503 799.186,-367.42"/>
</g>
<!-- proc~test_11 -->
<g id="node14" class="node"><title>proc~test_11</title>
<a xlink:href="../proc/test_11.html" xlink:title="test_11">
<polygon fill="#d9534f" stroke="#d9534f" points="720,-246 666,-246 666,-220 720,-220 720,-246"/>
<text text-anchor="middle" x="693" y="-230.55" font-family="Helvetica,sans-Serif" font-size="10.50" fill="white">test_11</text>
</a>
</g>
<!-- proc~test_11&#45;&gt;proc~json_initialize -->
<g id="edge72" class="edge"><title>proc~test_11&#45;&gt;proc~json_initialize</title>
<path fill="none" stroke="black" d="M720.024,-241.499C727.737,-244.837 735.739,-249.272 742,-255 775.666,-285.797 797.711,-335.559 808.408,-364.381"/>
<polygon fill="black" stroke="black" points="805.176,-365.738 811.836,-373.978 811.768,-363.383 805.176,-365.738"/>
</g>
<!-- program~example2 -->
<g id="node15" class="node"><title>program~example2</title>
<a xlink:href="../program/example2.html" xlink:title="example2">
<polygon fill="#f0ad4e" stroke="#f0ad4e" points="722,-202 664,-202 664,-176 722,-176 722,-202"/>
<text text-anchor="middle" x="693" y="-186.55" font-family="Helvetica,sans-Serif" font-size="10.50" fill="white">example2</text>
</a>
</g>
<!-- program~example2&#45;&gt;proc~json_initialize -->
<g id="edge74" class="edge"><title>program~example2&#45;&gt;proc~json_initialize</title>
<path fill="none" stroke="black" d="M722.735,-198.091C729.711,-201.305 736.658,-205.529 742,-211 784.599,-254.633 804.188,-326.445 811.839,-363.403"/>
<polygon fill="black" stroke="black" points="808.494,-364.538 813.842,-373.683 815.365,-363.199 808.494,-364.538"/>
</g>
<!-- proc~test_7 -->
<g id="node16" class="node"><title>proc~test_7</title>
<a xlink:href="../proc/test_7.html" xlink:title="test_7">
<polygon fill="#d9534f" stroke="#d9534f" points="720,-158 666,-158 666,-132 720,-132 720,-158"/>
<text text-anchor="middle" x="693" y="-142.55" font-family="Helvetica,sans-Serif" font-size="10.50" fill="white">test_7</text>
</a>
</g>
<!-- proc~test_7&#45;&gt;proc~json_initialize -->
<g id="edge76" class="edge"><title>proc~test_7&#45;&gt;proc~json_initialize</title>
<path fill="none" stroke="black" d="M720.213,-152.586C728.114,-155.916 736.174,-160.576 742,-167 794.049,-224.39 809.657,-319.667 814.202,-363.552"/>
<polygon fill="black" stroke="black" points="810.743,-364.152 815.154,-373.785 817.713,-363.504 810.743,-364.152"/>
</g>
<!-- program~example1 -->
<g id="node17" class="node"><title>program~example1</title>
<a xlink:href="../program/example1.html" xlink:title="example1">
<polygon fill="#f0ad4e" stroke="#f0ad4e" points="722,-114 664,-114 664,-88 722,-88 722,-114"/>
<text text-anchor="middle" x="693" y="-98.55" font-family="Helvetica,sans-Serif" font-size="10.50" fill="white">example1</text>
</a>
</g>
<!-- program~example1&#45;&gt;proc~json_initialize -->
<g id="edge78" class="edge"><title>program~example1&#45;&gt;proc~json_initialize</title>
<path fill="none" stroke="black" d="M722.712,-109.411C729.855,-112.656 736.888,-117.065 742,-123 773.81,-159.931 802.084,-306.734 812.121,-363.976"/>
<polygon fill="black" stroke="black" points="808.68,-364.616 813.831,-373.875 815.578,-363.425 808.68,-364.616"/>
</g>
<!-- proc~test_12 -->
<g id="node18" class="node"><title>proc~test_12</title>
<a xlink:href="../proc/test_12.html" xlink:title="test_12">
<polygon fill="#d9534f" stroke="#d9534f" points="720,-70 666,-70 666,-44 720,-44 720,-70"/>
<text text-anchor="middle" x="693" y="-54.55" font-family="Helvetica,sans-Serif" font-size="10.50" fill="white">test_12</text>
</a>
</g>
<!-- proc~test_12&#45;&gt;proc~json_initialize -->
<g id="edge80" class="edge"><title>proc~test_12&#45;&gt;proc~json_initialize</title>
<path fill="none" stroke="black" d="M720.055,-64.068C728.14,-67.3929 736.345,-72.1806 742,-79 778.592,-123.129 804.662,-299.654 813.08,-363.666"/>
<polygon fill="black" stroke="black" points="809.653,-364.456 814.404,-373.926 816.595,-363.56 809.653,-364.456"/>
</g>
<!-- proc~test_13 -->
<g id="node19" class="node"><title>proc~test_13</title>
<a xlink:href="../proc/test_13.html" xlink:title="test_13">
<polygon fill="#d9534f" stroke="#d9534f" points="720,-26 666,-26 666,-1.24345e-14 720,-3.55271e-15 720,-26"/>
<text text-anchor="middle" x="693" y="-10.55" font-family="Helvetica,sans-Serif" font-size="10.50" fill="white">test_13</text>
</a>
</g>
<!-- proc~test_13&#45;&gt;proc~json_initialize -->
<g id="edge82" class="edge"><title>proc~test_13&#45;&gt;proc~json_initialize</title>
<path fill="none" stroke="black" d="M720.171,-19.973C728.263,-23.2921 736.443,-28.1005 742,-35 783.456,-86.4747 806.949,-293.485 813.841,-363.627"/>
<polygon fill="black" stroke="black" points="810.365,-364.044 814.805,-373.664 817.333,-363.375 810.365,-364.044"/>
</g>
<!-- program~jf_test_3 -->
<g id="node20" class="node"><title>program~jf_test_3</title>
<a xlink:href="../program/jf_test_3.html" xlink:title="jf_test_3">
<polygon fill="#f0ad4e" stroke="#f0ad4e" points="571,-800 517,-800 517,-774 571,-774 571,-800"/>
<text text-anchor="middle" x="544" y="-784.55" font-family="Helvetica,sans-Serif" font-size="10.50" fill="white">jf_test_3</text>
</a>
</g>
<!-- program~jf_test_3&#45;&gt;proc~test_3 -->
<g id="edge2" class="edge"><title>program~jf_test_3&#45;&gt;proc~test_3</title>
<path fill="none" stroke="black" d="M571.329,-787C594.958,-787 629.341,-787 655.534,-787"/>
<polygon fill="black" stroke="black" points="655.844,-790.5 665.844,-787 655.844,-783.5 655.844,-790.5"/>
</g>
<!-- program~jf_test_6 -->
<g id="node22" class="node"><title>program~jf_test_6</title>
<a xlink:href="../program/jf_test_6.html" xlink:title="jf_test_6">
<polygon fill="#f0ad4e" stroke="#f0ad4e" points="571,-756 517,-756 517,-730 571,-730 571,-756"/>
<text text-anchor="middle" x="544" y="-740.55" font-family="Helvetica,sans-Serif" font-size="10.50" fill="white">jf_test_6</text>
</a>
</g>
<!-- program~jf_test_6&#45;&gt;proc~test_6 -->
<g id="edge4" class="edge"><title>program~jf_test_6&#45;&gt;proc~test_6</title>
<path fill="none" stroke="black" d="M571.329,-743C594.958,-743 629.341,-743 655.534,-743"/>
<polygon fill="black" stroke="black" points="655.844,-746.5 665.844,-743 655.844,-739.5 655.844,-746.5"/>
</g>
<!-- proc~wrap_json_parse_string -->
<g id="node24" class="node"><title>proc~wrap_json_parse_string</title>
<a xlink:href="../proc/wrap_json_parse_string.html" xlink:title="wrap_json_parse_string">
<polygon fill="#d9534f" stroke="#d9534f" points="607,-636 481,-636 481,-610 607,-610 607,-636"/>
<text text-anchor="middle" x="544" y="-620.55" font-family="Helvetica,sans-Serif" font-size="10.50" fill="white">wrap_json_parse_string</text>
</a>
</g>
<!-- proc~wrap_json_parse_string&#45;&gt;proc~json_parse_string -->
<g id="edge18" class="edge"><title>proc~wrap_json_parse_string&#45;&gt;proc~json_parse_string</title>
<path fill="none" stroke="black" d="M607.622,-623C616.49,-623 625.569,-623 634.341,-623"/>
<polygon fill="black" stroke="black" points="634.466,-626.5 644.466,-623 634.466,-619.5 634.466,-626.5"/>
</g>
<!-- interface~json_parse&#45;&gt;proc~json_parse_string -->
<g id="edge20" class="edge"><title>interface~json_parse&#45;&gt;proc~json_parse_string</title>
<path fill="none" stroke="black" stroke-dasharray="5,2" d="M443.842,-635.748C455.124,-639.513 467.949,-643.125 480,-645 536.213,-653.745 551.567,-652.185 608,-645 618.883,-643.615 630.364,-641.269 641.248,-638.613"/>
<polygon fill="black" stroke="black" points="642.221,-641.977 651.041,-636.106 640.485,-635.196 642.221,-641.977"/>
</g>
<!-- interface~json_parse&#45;&gt;proc~json_parse_file -->
<g id="edge32" class="edge"><title>interface~json_parse&#45;&gt;proc~json_parse_file</title>
<path fill="none" stroke="black" stroke-dasharray="5,2" d="M443.535,-612.236C458.964,-607.132 477.727,-600.925 494.842,-595.263"/>
<polygon fill="black" stroke="black" points="496.297,-598.468 504.692,-592.004 494.098,-591.822 496.297,-598.468"/>
</g>
<!-- interface~json_parse&#45;&gt;proc~wrap_json_parse_string -->
<g id="edge16" class="edge"><title>interface~json_parse&#45;&gt;proc~wrap_json_parse_string</title>
<path fill="none" stroke="black" stroke-dasharray="5,2" d="M443.535,-623C451.724,-623 460.853,-623 470.175,-623"/>
<polygon fill="black" stroke="black" points="470.333,-626.5 480.333,-623 470.333,-619.5 470.333,-626.5"/>
</g>
<!-- proc~json_file_load -->
<g id="node26" class="node"><title>proc~json_file_load</title>
<a xlink:href="../proc/json_file_load.html" xlink:title="json_file_load">
<polygon fill="#d9534f" stroke="#d9534f" points="312,-659 234,-659 234,-633 312,-633 312,-659"/>
<text text-anchor="middle" x="273" y="-643.55" font-family="Helvetica,sans-Serif" font-size="10.50" fill="white">json_file_load</text>
</a>
</g>
<!-- proc~json_file_load&#45;&gt;interface~json_parse -->
<g id="edge12" class="edge"><title>proc~json_file_load&#45;&gt;interface~json_parse</title>
<path fill="none" stroke="black" d="M312.176,-639.471C329.71,-636.548 350.425,-633.096 368.349,-630.108"/>
<polygon fill="black" stroke="black" points="368.969,-633.554 378.258,-628.457 367.818,-626.649 368.969,-633.554"/>
</g>
<!-- proc~json_file_load_from_string -->
<g id="node27" class="node"><title>proc~json_file_load_from_string</title>
<a xlink:href="../proc/json_file_load_from_string.html" xlink:title="json_file_load_from_string">
<polygon fill="#d9534f" stroke="#d9534f" points="342,-615 204,-615 204,-589 342,-589 342,-615"/>
<text text-anchor="middle" x="273" y="-599.55" font-family="Helvetica,sans-Serif" font-size="10.50" fill="white">json_file_load_from_string</text>
</a>
</g>
<!-- proc~json_file_load_from_string&#45;&gt;interface~json_parse -->
<g id="edge14" class="edge"><title>proc~json_file_load_from_string&#45;&gt;interface~json_parse</title>
<path fill="none" stroke="black" d="M342,-612.5C351.006,-613.87 360.012,-615.241 368.405,-616.518"/>
<polygon fill="black" stroke="black" points="367.883,-619.979 378.296,-618.023 368.936,-613.059 367.883,-619.979"/>
</g>
<!-- proc~wrap_json_file_load_from_string -->
<g id="node28" class="node"><title>proc~wrap_json_file_load_from_string</title>
<a xlink:href="../proc/wrap_json_file_load_from_string.html" xlink:title="wrap_json_file_load_from_string">
<polygon fill="#d9534f" stroke="#d9534f" points="167,-615 1,-615 1,-589 167,-589 167,-615"/>
<text text-anchor="middle" x="84" y="-599.55" font-family="Helvetica,sans-Serif" font-size="10.50" fill="white">wrap_json_file_load_from_string</text>
</a>
</g>
<!-- proc~wrap_json_file_load_from_string&#45;&gt;proc~json_file_load_from_string -->
<g id="edge6" class="edge"><title>proc~wrap_json_file_load_from_string&#45;&gt;proc~json_file_load_from_string</title>
<path fill="none" stroke="black" d="M167.724,-602C176.382,-602 185.162,-602 193.769,-602"/>
<polygon fill="black" stroke="black" points="193.775,-605.5 203.775,-602 193.775,-598.5 193.775,-605.5"/>
</g>
<!-- program~jf_test_5 -->
<g id="node37" class="node"><title>program~jf_test_5</title>
<a xlink:href="../program/jf_test_5.html" xlink:title="jf_test_5">
<polygon fill="#f0ad4e" stroke="#f0ad4e" points="571,-510 517,-510 517,-484 571,-484 571,-510"/>
<text text-anchor="middle" x="544" y="-494.55" font-family="Helvetica,sans-Serif" font-size="10.50" fill="white">jf_test_5</text>
</a>
</g>
<!-- program~jf_test_5&#45;&gt;proc~test_5 -->
<g id="edge22" class="edge"><title>program~jf_test_5&#45;&gt;proc~test_5</title>
<path fill="none" stroke="black" d="M571.329,-497C594.958,-497 629.341,-497 655.534,-497"/>
<polygon fill="black" stroke="black" points="655.844,-500.5 665.844,-497 655.844,-493.5 655.844,-500.5"/>
</g>
<!-- program~jf_test_1 -->
<g id="node39" class="node"><title>program~jf_test_1</title>
<a xlink:href="../program/jf_test_1.html" xlink:title="jf_test_1">
<polygon fill="#f0ad4e" stroke="#f0ad4e" points="571,-466 517,-466 517,-440 571,-440 571,-466"/>
<text text-anchor="middle" x="544" y="-450.55" font-family="Helvetica,sans-Serif" font-size="10.50" fill="white">jf_test_1</text>
</a>
</g>
<!-- program~jf_test_1&#45;&gt;proc~test_1 -->
<g id="edge24" class="edge"><title>program~jf_test_1&#45;&gt;proc~test_1</title>
<path fill="none" stroke="black" d="M571.329,-453C594.958,-453 629.341,-453 655.534,-453"/>
<polygon fill="black" stroke="black" points="655.844,-456.5 665.844,-453 655.844,-449.5 655.844,-456.5"/>
</g>
<!-- program~jf_test_9 -->
<g id="node41" class="node"><title>program~jf_test_9</title>
<a xlink:href="../program/jf_test_9.html" xlink:title="jf_test_9">
<polygon fill="#f0ad4e" stroke="#f0ad4e" points="571,-422 517,-422 517,-396 571,-396 571,-422"/>
<text text-anchor="middle" x="544" y="-406.55" font-family="Helvetica,sans-Serif" font-size="10.50" fill="white">jf_test_9</text>
</a>
</g>
<!-- program~jf_test_9&#45;&gt;proc~test_9 -->
<g id="edge26" class="edge"><title>program~jf_test_9&#45;&gt;proc~test_9</title>
<path fill="none" stroke="black" d="M571.329,-409C594.958,-409 629.341,-409 655.534,-409"/>
<polygon fill="black" stroke="black" points="655.844,-412.5 665.844,-409 655.844,-405.5 655.844,-412.5"/>
</g>
<!-- program~jf_test_8 -->
<g id="node43" class="node"><title>program~jf_test_8</title>
<a xlink:href="../program/jf_test_8.html" xlink:title="jf_test_8">
<polygon fill="#f0ad4e" stroke="#f0ad4e" points="111,-711 57,-711 57,-685 111,-685 111,-711"/>
<text text-anchor="middle" x="84" y="-695.55" font-family="Helvetica,sans-Serif" font-size="10.50" fill="white">jf_test_8</text>
</a>
</g>
<!-- program~jf_test_8&#45;&gt;proc~test_8 -->
<g id="edge28" class="edge"><title>program~jf_test_8&#45;&gt;proc~test_8</title>
<path fill="none" stroke="black" d="M111.079,-698C143.78,-698 198.956,-698 235.676,-698"/>
<polygon fill="black" stroke="black" points="235.971,-701.5 245.971,-698 235.971,-694.5 235.971,-701.5"/>
</g>
<!-- program~jf_test_10 -->
<g id="node45" class="node"><title>program~jf_test_10</title>
<a xlink:href="../program/jf_test_10.html" xlink:title="jf_test_10">
<polygon fill="#f0ad4e" stroke="#f0ad4e" points="573,-378 515,-378 515,-352 573,-352 573,-378"/>
<text text-anchor="middle" x="544" y="-362.55" font-family="Helvetica,sans-Serif" font-size="10.50" fill="white">jf_test_10</text>
</a>
</g>
<!-- program~jf_test_10&#45;&gt;proc~test_10 -->
<g id="edge30" class="edge"><title>program~jf_test_10&#45;&gt;proc~test_10</title>
<path fill="none" stroke="black" d="M573.794,-365C597.276,-365 630.161,-365 655.445,-365"/>
<polygon fill="black" stroke="black" points="655.766,-368.5 665.766,-365 655.766,-361.5 655.766,-368.5"/>
</g>
<!-- program~jf_test_2 -->
<g id="node48" class="node"><title>program~jf_test_2</title>
<a xlink:href="../program/jf_test_2.html" xlink:title="jf_test_2">
<polygon fill="#f0ad4e" stroke="#f0ad4e" points="571,-334 517,-334 517,-308 571,-308 571,-334"/>
<text text-anchor="middle" x="544" y="-318.55" font-family="Helvetica,sans-Serif" font-size="10.50" fill="white">jf_test_2</text>
</a>
</g>
<!-- program~jf_test_2&#45;&gt;proc~test_2 -->
<g id="edge34" class="edge"><title>program~jf_test_2&#45;&gt;proc~test_2</title>
<path fill="none" stroke="black" d="M571.329,-321C594.958,-321 629.341,-321 655.534,-321"/>
<polygon fill="black" stroke="black" points="655.844,-324.5 665.844,-321 655.844,-317.5 655.844,-324.5"/>
</g>
<!-- program~jf_test_14 -->
<g id="node50" class="node"><title>program~jf_test_14</title>
<a xlink:href="../program/jf_test_14.html" xlink:title="jf_test_14">
<polygon fill="#f0ad4e" stroke="#f0ad4e" points="113,-567 55,-567 55,-541 113,-541 113,-567"/>
<text text-anchor="middle" x="84" y="-551.55" font-family="Helvetica,sans-Serif" font-size="10.50" fill="white">jf_test_14</text>
</a>
</g>
<!-- program~jf_test_14&#45;&gt;proc~test_14 -->
<g id="edge36" class="edge"><title>program~jf_test_14&#45;&gt;proc~test_14</title>
<path fill="none" stroke="black" d="M113.531,-554C146.509,-554 199.947,-554 235.765,-554"/>
<polygon fill="black" stroke="black" points="235.82,-557.5 245.82,-554 235.82,-550.5 235.82,-557.5"/>
</g>
<!-- program~jf_test_4 -->
<g id="node52" class="node"><title>program~jf_test_4</title>
<a xlink:href="../program/jf_test_4.html" xlink:title="jf_test_4">
<polygon fill="#f0ad4e" stroke="#f0ad4e" points="571,-290 517,-290 517,-264 571,-264 571,-290"/>
<text text-anchor="middle" x="544" y="-274.55" font-family="Helvetica,sans-Serif" font-size="10.50" fill="white">jf_test_4</text>
</a>
</g>
<!-- program~jf_test_4&#45;&gt;proc~test_4 -->
<g id="edge38" class="edge"><title>program~jf_test_4&#45;&gt;proc~test_4</title>
<path fill="none" stroke="black" d="M571.329,-277C594.958,-277 629.341,-277 655.534,-277"/>
<polygon fill="black" stroke="black" points="655.844,-280.5 665.844,-277 655.844,-273.5 655.844,-280.5"/>
</g>
<!-- program~jf_test_11 -->
<g id="node54" class="node"><title>program~jf_test_11</title>
<a xlink:href="../program/jf_test_11.html" xlink:title="jf_test_11">
<polygon fill="#f0ad4e" stroke="#f0ad4e" points="573,-246 515,-246 515,-220 573,-220 573,-246"/>
<text text-anchor="middle" x="544" y="-230.55" font-family="Helvetica,sans-Serif" font-size="10.50" fill="white">jf_test_11</text>
</a>
</g>
<!-- program~jf_test_11&#45;&gt;proc~test_11 -->
<g id="edge40" class="edge"><title>program~jf_test_11&#45;&gt;proc~test_11</title>
<path fill="none" stroke="black" d="M573.794,-233C597.276,-233 630.161,-233 655.445,-233"/>
<polygon fill="black" stroke="black" points="655.766,-236.5 665.766,-233 655.766,-229.5 655.766,-236.5"/>
</g>
<!-- program~jf_test_7 -->
<g id="node56" class="node"><title>program~jf_test_7</title>
<a xlink:href="../program/jf_test_7.html" xlink:title="jf_test_7">
<polygon fill="#f0ad4e" stroke="#f0ad4e" points="571,-158 517,-158 517,-132 571,-132 571,-158"/>
<text text-anchor="middle" x="544" y="-142.55" font-family="Helvetica,sans-Serif" font-size="10.50" fill="white">jf_test_7</text>
</a>
</g>
<!-- program~jf_test_7&#45;&gt;proc~test_7 -->
<g id="edge42" class="edge"><title>program~jf_test_7&#45;&gt;proc~test_7</title>
<path fill="none" stroke="black" d="M571.329,-145C594.958,-145 629.341,-145 655.534,-145"/>
<polygon fill="black" stroke="black" points="655.844,-148.5 665.844,-145 655.844,-141.5 655.844,-148.5"/>
</g>
<!-- program~jf_test_12 -->
<g id="node58" class="node"><title>program~jf_test_12</title>
<a xlink:href="../program/jf_test_12.html" xlink:title="jf_test_12">
<polygon fill="#f0ad4e" stroke="#f0ad4e" points="573,-70 515,-70 515,-44 573,-44 573,-70"/>
<text text-anchor="middle" x="544" y="-54.55" font-family="Helvetica,sans-Serif" font-size="10.50" fill="white">jf_test_12</text>
</a>
</g>
<!-- program~jf_test_12&#45;&gt;proc~test_12 -->
<g id="edge44" class="edge"><title>program~jf_test_12&#45;&gt;proc~test_12</title>
<path fill="none" stroke="black" d="M573.794,-57C597.276,-57 630.161,-57 655.445,-57"/>
<polygon fill="black" stroke="black" points="655.766,-60.5001 665.766,-57 655.766,-53.5001 655.766,-60.5001"/>
</g>
<!-- program~jf_test_13 -->
<g id="node60" class="node"><title>program~jf_test_13</title>
<a xlink:href="../program/jf_test_13.html" xlink:title="jf_test_13">
<polygon fill="#f0ad4e" stroke="#f0ad4e" points="573,-26 515,-26 515,-1.24345e-14 573,-3.55271e-15 573,-26"/>
<text text-anchor="middle" x="544" y="-10.55" font-family="Helvetica,sans-Serif" font-size="10.50" fill="white">jf_test_13</text>
</a>
</g>
<!-- program~jf_test_13&#45;&gt;proc~test_13 -->
<g id="edge46" class="edge"><title>program~jf_test_13&#45;&gt;proc~test_13</title>
<path fill="none" stroke="black" d="M573.794,-13C597.276,-13 630.161,-13 655.445,-13"/>
<polygon fill="black" stroke="black" points="655.766,-16.5001 665.766,-13 655.766,-9.5001 655.766,-16.5001"/>
</g>
</g>
</svg>
