<?xml version="1.0" encoding="UTF-8" standalone="no"?>
<!DOCTYPE svg PUBLIC "-//W3C//DTD SVG 1.1//EN"
 "http://www.w3.org/Graphics/SVG/1.1/DTD/svg11.dtd">
<!-- Generated by graphviz version 2.26.3 (20100126.1600)
 -->
<!-- Title: proc~~wrap_json_get_double_with_path~~CallsGraph Pages: 1 -->
<svg width="641pt" height="120pt"
 viewBox="0.00 0.00 641.00 119.68" xmlns="http://www.w3.org/2000/svg" xmlns:xlink="http://www.w3.org/1999/xlink">
<g id="graph1" class="graph" transform="scale(0.389429 0.389429) rotate(0) translate(4 303.323)">
<title>proc~~wrap_json_get_double_with_path~~CallsGraph</title>
<polygon fill="white" stroke="white" points="-4,5 -4,-303.323 1643,-303.323 1643,5 -4,5"/>
<!-- proc~wrap_json_get_double_with_path -->
<g id="node1" class="node"><title>proc~wrap_json_get_double_with_path</title>
<polygon fill="none" stroke="black" points="172,-242.323 8.52651e-14,-242.323 0,-216.323 172,-216.323 172,-242.323"/>
<text text-anchor="middle" x="86" y="-226.873" font-family="Helvetica,sans-Serif" font-size="10.50">wrap_json_get_double_with_path</text>
</g>
<!-- proc~json_get_double_with_path -->
<g id="node2" class="node"><title>proc~json_get_double_with_path</title>
<a xlink:href="../proc/json_get_double_with_path.html" xlink:title="json_get_double_with_path">
<polygon fill="#d9534f" stroke="#d9534f" points="351,-172.323 209,-172.323 209,-146.323 351,-146.323 351,-172.323"/>
<text text-anchor="middle" x="280" y="-156.873" font-family="Helvetica,sans-Serif" font-size="10.50" fill="white">json_get_double_with_path</text>
</a>
</g>
<!-- proc~wrap_json_get_double_with_path&#45;&gt;proc~json_get_double_with_path -->
<g id="edge50" class="edge"><title>proc~wrap_json_get_double_with_path&#45;&gt;proc~json_get_double_with_path</title>
<path fill="none" stroke="black" d="M122.035,-216.321C153.65,-204.913 199.796,-188.263 234.056,-175.901"/>
<polygon fill="black" stroke="black" points="235.611,-179.061 243.829,-172.375 233.235,-172.476 235.611,-179.061"/>
</g>
<!-- interface~to_unicode -->
<g id="node3" class="node"><title>interface~to_unicode</title>
<a xlink:href="../interface/to_unicode.html" xlink:title="to_unicode">
<polygon fill="#a7506f" stroke="#a7506f" points="1512,-274.323 1448,-274.323 1448,-248.323 1512,-248.323 1512,-274.323"/>
<text text-anchor="middle" x="1480" y="-258.873" font-family="Helvetica,sans-Serif" font-size="10.50" fill="white">to_unicode</text>
</a>
</g>
<!-- proc~wrap_json_get_double_with_path&#45;&gt;interface~to_unicode -->
<g id="edge52" class="edge"><title>proc~wrap_json_get_double_with_path&#45;&gt;interface~to_unicode</title>
<path fill="none" stroke="black" d="M124.973,-242.326C189.219,-262.569 321.735,-299.323 437,-299.323 437,-299.323 437,-299.323 1158,-299.323 1258.57,-299.323 1375.6,-280.814 1437.13,-269.632"/>
<polygon fill="black" stroke="black" points="1438.04,-273.023 1447.24,-267.769 1436.77,-266.139 1438.04,-273.023"/>
</g>
<!-- proc~json_get_by_path -->
<g id="node4" class="node"><title>proc~json_get_by_path</title>
<a xlink:href="../proc/json_get_by_path.html" xlink:title="json_get_by_path">
<polygon fill="#d9534f" stroke="#d9534f" points="485,-172.323 389,-172.323 389,-146.323 485,-146.323 485,-172.323"/>
<text text-anchor="middle" x="437" y="-156.873" font-family="Helvetica,sans-Serif" font-size="10.50" fill="white">json_get_by_path</text>
</a>
</g>
<!-- proc~json_get_double_with_path&#45;&gt;proc~json_get_by_path -->
<g id="edge38" class="edge"><title>proc~json_get_double_with_path&#45;&gt;proc~json_get_by_path</title>
<path fill="none" stroke="black" d="M351.608,-159.323C360.56,-159.323 369.632,-159.323 378.354,-159.323"/>
<polygon fill="black" stroke="black" points="378.404,-162.823 388.404,-159.323 378.404,-155.823 378.404,-162.823"/>
</g>
<!-- proc~json_get_double -->
<g id="node5" class="node"><title>proc~json_get_double</title>
<a xlink:href="../proc/json_get_double.html" xlink:title="json_get_double">
<polygon fill="#d9534f" stroke="#d9534f" points="819,-28.3231 729,-28.3231 729,-2.32315 819,-2.32315 819,-28.3231"/>
<text text-anchor="middle" x="774" y="-12.8731" font-family="Helvetica,sans-Serif" font-size="10.50" fill="white">json_get_double</text>
</a>
</g>
<!-- proc~json_get_double_with_path&#45;&gt;proc~json_get_double -->
<g id="edge40" class="edge"><title>proc~json_get_double_with_path&#45;&gt;proc~json_get_double</title>
<path fill="none" stroke="black" d="M287.429,-146.144C302.561,-120.757 339.655,-65.5339 388,-42.3231 495.801,9.43269 640.316,2.26696 718.366,-6.90299"/>
<polygon fill="black" stroke="black" points="718.115,-10.3984 728.468,-8.14509 718.969,-3.45074 718.115,-10.3984"/>
</g>
<!-- proc~json_clear_exceptions -->
<g id="node6" class="node"><title>proc~json_clear_exceptions</title>
<a xlink:href="../proc/json_clear_exceptions.html" xlink:title="json_clear_exceptions">
<polygon fill="#d9534f" stroke="#d9534f" points="640,-236.323 522,-236.323 522,-210.323 640,-210.323 640,-236.323"/>
<text text-anchor="middle" x="581" y="-220.873" font-family="Helvetica,sans-Serif" font-size="10.50" fill="white">json_clear_exceptions</text>
</a>
</g>
<!-- proc~json_get_double_with_path&#45;&gt;proc~json_clear_exceptions -->
<g id="edge42" class="edge"><title>proc~json_get_double_with_path&#45;&gt;proc~json_clear_exceptions</title>
<path fill="none" stroke="black" d="M341.275,-172.352C390.747,-182.871 460.351,-197.67 511.82,-208.614"/>
<polygon fill="black" stroke="black" points="511.352,-212.092 521.861,-210.749 512.808,-205.245 511.352,-212.092"/>
</g>
<!-- interface~throw_exception -->
<g id="node7" class="node"><title>interface~throw_exception</title>
<a xlink:href="../interface/throw_exception.html" xlink:title="throw_exception">
<polygon fill="#a7506f" stroke="#a7506f" points="1203,-148.323 1113,-148.323 1113,-122.323 1203,-122.323 1203,-148.323"/>
<text text-anchor="middle" x="1158" y="-132.873" font-family="Helvetica,sans-Serif" font-size="10.50" fill="white">throw_exception</text>
</a>
</g>
<!-- proc~json_get_double_with_path&#45;&gt;interface~throw_exception -->
<g id="edge44" class="edge"><title>proc~json_get_double_with_path&#45;&gt;interface~throw_exception</title>
<path fill="none" stroke="black" d="M301.775,-146.278C350.172,-118.562 471.089,-56.3231 581,-56.3231 581,-56.3231 581,-56.3231 774,-56.3231 909.704,-56.3231 945.23,-65.0628 1076,-101.323 1091.45,-105.606 1107.87,-112.02 1121.94,-118.127"/>
<polygon fill="black" stroke="black" points="1120.7,-121.406 1131.26,-122.276 1123.55,-115.011 1120.7,-121.406"/>
</g>
<!-- proc~to_uni_vec -->
<g id="node38" class="node"><title>proc~to_uni_vec</title>
<a xlink:href="../proc/to_uni_vec.html" xlink:title="to_uni_vec">
<polygon fill="#d94e8f" stroke="#d94e8f" points="1638,-296.323 1574,-296.323 1574,-270.323 1638,-270.323 1638,-296.323"/>
<text text-anchor="middle" x="1606" y="-280.873" font-family="Helvetica,sans-Serif" font-size="10.50" fill="white">to_uni_vec</text>
</a>
</g>
<!-- interface~to_unicode&#45;&gt;proc~to_uni_vec -->
<g id="edge46" class="edge"><title>interface~to_unicode&#45;&gt;proc~to_uni_vec</title>
<path fill="none" stroke="black" stroke-dasharray="5,2" d="M1512.78,-267.046C1528.36,-269.766 1547.17,-273.051 1563.8,-275.955"/>
<polygon fill="black" stroke="black" points="1563.37,-279.433 1573.82,-277.705 1564.58,-272.537 1563.37,-279.433"/>
</g>
<!-- proc~to_uni -->
<g id="node39" class="node"><title>proc~to_uni</title>
<a xlink:href="../proc/to_uni.html" xlink:title="to_uni">
<polygon fill="#d94e8f" stroke="#d94e8f" points="1633,-252.323 1579,-252.323 1579,-226.323 1633,-226.323 1633,-252.323"/>
<text text-anchor="middle" x="1606" y="-236.873" font-family="Helvetica,sans-Serif" font-size="10.50" fill="white">to_uni</text>
</a>
</g>
<!-- interface~to_unicode&#45;&gt;proc~to_uni -->
<g id="edge48" class="edge"><title>interface~to_unicode&#45;&gt;proc~to_uni</title>
<path fill="none" stroke="black" stroke-dasharray="5,2" d="M1512.78,-255.6C1529.97,-252.599 1551.09,-248.911 1568.88,-245.805"/>
<polygon fill="black" stroke="black" points="1569.66,-249.221 1578.91,-244.053 1568.46,-242.325 1569.66,-249.221"/>
</g>
<!-- proc~json_get_by_path&#45;&gt;proc~json_clear_exceptions -->
<g id="edge24" class="edge"><title>proc~json_get_by_path&#45;&gt;proc~json_clear_exceptions</title>
<path fill="none" stroke="black" d="M461.975,-172.503C478.746,-181.144 501.451,-192.443 522,-201.323 526.119,-203.103 530.434,-204.878 534.776,-206.604"/>
<polygon fill="black" stroke="black" points="533.671,-209.929 544.26,-210.285 536.204,-203.403 533.671,-209.929"/>
</g>
<!-- proc~json_get_by_path&#45;&gt;interface~throw_exception -->
<g id="edge20" class="edge"><title>proc~json_get_by_path&#45;&gt;interface~throw_exception</title>
<path fill="none" stroke="black" d="M485.708,-157.702C614.736,-153.407 964.838,-141.753 1101.9,-137.19"/>
<polygon fill="black" stroke="black" points="1102.3,-140.679 1112.17,-136.849 1102.06,-133.683 1102.3,-140.679"/>
</g>
<!-- interface~json_get_child -->
<g id="node8" class="node"><title>interface~json_get_child</title>
<a xlink:href="../interface/json_get_child.html" xlink:title="json_get_child">
<polygon fill="#a7506f" stroke="#a7506f" points="621,-192.323 541,-192.323 541,-166.323 621,-166.323 621,-192.323"/>
<text text-anchor="middle" x="581" y="-176.873" font-family="Helvetica,sans-Serif" font-size="10.50" fill="white">json_get_child</text>
</a>
</g>
<!-- proc~json_get_by_path&#45;&gt;interface~json_get_child -->
<g id="edge22" class="edge"><title>proc~json_get_by_path&#45;&gt;interface~json_get_child</title>
<path fill="none" stroke="black" d="M485.752,-166.094C500.065,-168.082 515.751,-170.261 530.19,-172.266"/>
<polygon fill="black" stroke="black" points="530.058,-175.781 540.445,-173.69 531.021,-168.848 530.058,-175.781"/>
</g>
<!-- proc~string_to_integer -->
<g id="node9" class="node"><title>proc~string_to_integer</title>
<a xlink:href="../proc/string_to_integer.html" xlink:title="string_to_integer">
<polygon fill="#d94e8f" stroke="#d94e8f" points="820,-110.323 728,-110.323 728,-84.3231 820,-84.3231 820,-110.323"/>
<text text-anchor="middle" x="774" y="-94.8731" font-family="Helvetica,sans-Serif" font-size="10.50" fill="white">string_to_integer</text>
</a>
</g>
<!-- proc~json_get_by_path&#45;&gt;proc~string_to_integer -->
<g id="edge26" class="edge"><title>proc~json_get_by_path&#45;&gt;proc~string_to_integer</title>
<path fill="none" stroke="black" d="M463.137,-146.292C479.621,-138.651 501.582,-129.508 522,-124.323 587.633,-107.657 665.425,-101.271 717.038,-98.8288"/>
<polygon fill="black" stroke="black" points="717.483,-102.313 727.32,-98.378 717.177,-95.3194 717.483,-102.313"/>
</g>
<!-- proc~json_get_double&#45;&gt;interface~throw_exception -->
<g id="edge28" class="edge"><title>proc~json_get_double&#45;&gt;interface~throw_exception</title>
<path fill="none" stroke="black" d="M819.565,-9.35041C881.28,-3.41478 993.227,-0.415589 1076,-42.3231 1107.26,-58.1476 1131.91,-91.4391 1145.73,-113.593"/>
<polygon fill="black" stroke="black" points="1142.82,-115.553 1150.97,-122.322 1148.82,-111.948 1142.82,-115.553"/>
</g>
<!-- proc~json_throw_exception -->
<g id="node28" class="node"><title>proc~json_throw_exception</title>
<a xlink:href="../proc/json_throw_exception.html" xlink:title="json_throw_exception">
<polygon fill="#d9534f" stroke="#d9534f" points="1538,-169.323 1422,-169.323 1422,-143.323 1538,-143.323 1538,-169.323"/>
<text text-anchor="middle" x="1480" y="-153.873" font-family="Helvetica,sans-Serif" font-size="10.50" fill="white">json_throw_exception</text>
</a>
</g>
<!-- interface~throw_exception&#45;&gt;proc~json_throw_exception -->
<g id="edge34" class="edge"><title>interface~throw_exception&#45;&gt;proc~json_throw_exception</title>
<path fill="none" stroke="black" stroke-dasharray="5,2" d="M1203.79,-138.31C1258.07,-141.849 1349.03,-147.782 1411.65,-151.865"/>
<polygon fill="black" stroke="black" points="1411.62,-155.371 1421.83,-152.529 1412.08,-148.386 1411.62,-155.371"/>
</g>
<!-- proc~wrap_json_throw_exception -->
<g id="node29" class="node"><title>proc~wrap_json_throw_exception</title>
<a xlink:href="../proc/wrap_json_throw_exception.html" xlink:title="wrap_json_throw_exception">
<polygon fill="#d9534f" stroke="#d9534f" points="1385,-189.323 1241,-189.323 1241,-163.323 1385,-163.323 1385,-189.323"/>
<text text-anchor="middle" x="1313" y="-173.873" font-family="Helvetica,sans-Serif" font-size="10.50" fill="white">wrap_json_throw_exception</text>
</a>
</g>
<!-- interface~throw_exception&#45;&gt;proc~wrap_json_throw_exception -->
<g id="edge36" class="edge"><title>interface~throw_exception&#45;&gt;proc~wrap_json_throw_exception</title>
<path fill="none" stroke="black" stroke-dasharray="5,2" d="M1203.67,-147.403C1219.27,-151.53 1236.96,-156.209 1253.49,-160.582"/>
<polygon fill="black" stroke="black" points="1253.04,-164.084 1263.6,-163.257 1254.83,-157.316 1253.04,-164.084"/>
</g>
<!-- proc~json_value_get_by_index -->
<g id="node10" class="node"><title>proc~json_value_get_by_index</title>
<a xlink:href="../proc/json_value_get_by_index.html" xlink:title="json_value_get_by_index">
<polygon fill="#d9534f" stroke="#d9534f" points="1058,-189.323 926,-189.323 926,-163.323 1058,-163.323 1058,-189.323"/>
<text text-anchor="middle" x="992" y="-173.873" font-family="Helvetica,sans-Serif" font-size="10.50" fill="white">json_value_get_by_index</text>
</a>
</g>
<!-- interface~json_get_child&#45;&gt;proc~json_value_get_by_index -->
<g id="edge12" class="edge"><title>interface~json_get_child&#45;&gt;proc~json_value_get_by_index</title>
<path fill="none" stroke="black" stroke-dasharray="5,2" d="M621.533,-179.027C689.715,-178.53 828.413,-177.517 915.41,-176.882"/>
<polygon fill="black" stroke="black" points="915.519,-180.382 925.493,-176.809 915.468,-173.382 915.519,-180.382"/>
</g>
<!-- proc~json_value_get_by_name_chars -->
<g id="node11" class="node"><title>proc~json_value_get_by_name_chars</title>
<a xlink:href="../proc/json_value_get_by_name_chars.html" xlink:title="json_value_get_by_name_chars">
<polygon fill="#d9534f" stroke="#d9534f" points="1075,-233.323 909,-233.323 909,-207.323 1075,-207.323 1075,-233.323"/>
<text text-anchor="middle" x="992" y="-217.873" font-family="Helvetica,sans-Serif" font-size="10.50" fill="white">json_value_get_by_name_chars</text>
</a>
</g>
<!-- interface~json_get_child&#45;&gt;proc~json_value_get_by_name_chars -->
<g id="edge14" class="edge"><title>interface~json_get_child&#45;&gt;proc~json_value_get_by_name_chars</title>
<path fill="none" stroke="black" stroke-dasharray="5,2" d="M621.646,-184.767C638.455,-186.938 658.152,-189.377 676,-191.323 750.576,-199.453 835.222,-207.139 898.126,-212.553"/>
<polygon fill="black" stroke="black" points="898.162,-216.069 908.424,-213.436 898.76,-209.095 898.162,-216.069"/>
</g>
<!-- proc~wrap_json_value_get_by_name_chars -->
<g id="node12" class="node"><title>proc~wrap_json_value_get_by_name_chars</title>
<a xlink:href="../proc/wrap_json_value_get_by_name_chars.html" xlink:title="wrap_json_value_get_by_name_chars">
<polygon fill="#d9534f" stroke="#d9534f" points="872,-268.323 676,-268.323 676,-242.323 872,-242.323 872,-268.323"/>
<text text-anchor="middle" x="774" y="-252.873" font-family="Helvetica,sans-Serif" font-size="10.50" fill="white">wrap_json_value_get_by_name_chars</text>
</a>
</g>
<!-- interface~json_get_child&#45;&gt;proc~wrap_json_value_get_by_name_chars -->
<g id="edge16" class="edge"><title>interface~json_get_child&#45;&gt;proc~wrap_json_value_get_by_name_chars</title>
<path fill="none" stroke="black" stroke-dasharray="5,2" d="M620.734,-192.35C627.315,-195.01 633.957,-198.02 640,-201.323 657.55,-210.915 658.045,-219.513 676,-228.323 684.525,-232.506 693.796,-236.124 703.123,-239.229"/>
<polygon fill="black" stroke="black" points="702.244,-242.621 712.833,-242.281 704.343,-235.943 702.244,-242.621"/>
</g>
<!-- proc~string_to_integer&#45;&gt;interface~throw_exception -->
<g id="edge18" class="edge"><title>proc~string_to_integer&#45;&gt;interface~throw_exception</title>
<path fill="none" stroke="black" d="M820.694,-99.7302C880.149,-103.094 985.971,-110.083 1076,-121.323 1084.45,-122.378 1093.35,-123.689 1102.05,-125.082"/>
<polygon fill="black" stroke="black" points="1101.7,-128.571 1112.14,-126.745 1102.84,-121.665 1101.7,-128.571"/>
</g>
<!-- proc~json_value_get_by_index&#45;&gt;interface~throw_exception -->
<g id="edge2" class="edge"><title>proc~json_value_get_by_index&#45;&gt;interface~throw_exception</title>
<path fill="none" stroke="black" d="M1044.98,-163.238C1063.4,-158.689 1084.1,-153.577 1102.7,-148.982"/>
<polygon fill="black" stroke="black" points="1103.63,-152.357 1112.5,-146.562 1101.95,-145.562 1103.63,-152.357"/>
</g>
<!-- proc~json_value_get_by_name_chars&#45;&gt;interface~throw_exception -->
<g id="edge4" class="edge"><title>proc~json_value_get_by_name_chars&#45;&gt;interface~throw_exception</title>
<path fill="none" stroke="black" d="M1053.6,-207.249C1061.32,-204.728 1068.96,-201.773 1076,-198.323 1098.79,-187.156 1121.41,-169.113 1137.11,-155.191"/>
<polygon fill="black" stroke="black" points="1139.59,-157.659 1144.64,-148.346 1134.89,-152.477 1139.59,-157.659"/>
</g>
<!-- proc~json_count -->
<g id="node14" class="node"><title>proc~json_count</title>
<a xlink:href="../proc/json_count.html" xlink:title="json_count">
<polygon fill="#d94e8f" stroke="#d94e8f" points="1190,-233.323 1126,-233.323 1126,-207.323 1190,-207.323 1190,-233.323"/>
<text text-anchor="middle" x="1158" y="-217.873" font-family="Helvetica,sans-Serif" font-size="10.50" fill="white">json_count</text>
</a>
</g>
<!-- proc~json_value_get_by_name_chars&#45;&gt;proc~json_count -->
<g id="edge6" class="edge"><title>proc~json_value_get_by_name_chars&#45;&gt;proc~json_count</title>
<path fill="none" stroke="black" d="M1075.97,-220.323C1089.66,-220.323 1103.3,-220.323 1115.43,-220.323"/>
<polygon fill="black" stroke="black" points="1115.66,-223.823 1125.65,-220.323 1115.65,-216.823 1115.66,-223.823"/>
</g>
<!-- proc~wrap_json_value_get_by_name_chars&#45;&gt;interface~to_unicode -->
<g id="edge8" class="edge"><title>proc~wrap_json_value_get_by_name_chars&#45;&gt;interface~to_unicode</title>
<path fill="none" stroke="black" d="M872.166,-256.157C1028.16,-257.483 1326.32,-260.017 1437.13,-260.959"/>
<polygon fill="black" stroke="black" points="1437.23,-264.46 1447.26,-261.045 1437.29,-257.46 1437.23,-264.46"/>
</g>
<!-- proc~wrap_json_value_get_by_name_chars&#45;&gt;proc~json_value_get_by_name_chars -->
<g id="edge10" class="edge"><title>proc~wrap_json_value_get_by_name_chars&#45;&gt;proc~json_value_get_by_name_chars</title>
<path fill="none" stroke="black" d="M855.175,-242.29C870.071,-239.899 885.709,-237.388 900.873,-234.954"/>
<polygon fill="black" stroke="black" points="901.438,-238.408 910.757,-233.367 900.329,-231.496 901.438,-238.408"/>
</g>
<!-- proc~wrap_json_throw_exception&#45;&gt;interface~to_unicode -->
<g id="edge32" class="edge"><title>proc~wrap_json_throw_exception&#45;&gt;interface~to_unicode</title>
<path fill="none" stroke="black" d="M1338.73,-189.418C1367.29,-203.956 1413.54,-227.498 1445.3,-243.659"/>
<polygon fill="black" stroke="black" points="1443.74,-246.796 1454.24,-248.213 1446.92,-240.558 1443.74,-246.796"/>
</g>
<!-- proc~wrap_json_throw_exception&#45;&gt;proc~json_throw_exception -->
<g id="edge30" class="edge"><title>proc~wrap_json_throw_exception&#45;&gt;proc~json_throw_exception</title>
<path fill="none" stroke="black" d="M1385.76,-167.609C1394.42,-166.573 1403.23,-165.517 1411.82,-164.489"/>
<polygon fill="black" stroke="black" points="1412.26,-167.961 1421.77,-163.296 1411.43,-161.01 1412.26,-167.961"/>
</g>
</g>
</svg>
