<?xml version="1.0" encoding="UTF-8" standalone="no"?>
<!DOCTYPE svg PUBLIC "-//W3C//DTD SVG 1.1//EN"
 "http://www.w3.org/Graphics/SVG/1.1/DTD/svg11.dtd">
<!-- Generated by graphviz version 2.26.3 (20100126.1600)
 -->
<!-- Title: proc~~json_value_add_string~~CallsGraph Pages: 1 -->
<svg width="641pt" height="688pt"
 viewBox="0.00 0.00 641.00 688.08" xmlns="http://www.w3.org/2000/svg" xmlns:xlink="http://www.w3.org/1999/xlink">
<g id="graph1" class="graph" transform="scale(0.681915 0.681915) rotate(0) translate(4 1005.04)">
<title>proc~~json_value_add_string~~CallsGraph</title>
<polygon fill="white" stroke="white" points="-4,5 -4,-1005.04 937,-1005.04 937,5 -4,5"/>
<!-- proc~json_value_add_string -->
<g id="node1" class="node"><title>proc~json_value_add_string</title>
<polygon fill="none" stroke="black" points="120,-273 4.9738e-14,-273 0,-247 120,-247 120,-273"/>
<text text-anchor="middle" x="60" y="-257.55" font-family="Helvetica,sans-Serif" font-size="10.50">json_value_add_string</text>
</g>
<!-- interface~json_add -->
<g id="node2" class="node"><title>interface~json_add</title>
<a xlink:href="../interface/json_add.html" xlink:title="json_add">
<polygon fill="#a7506f" stroke="#a7506f" points="224,-572 168,-572 168,-546 224,-546 224,-572"/>
<text text-anchor="middle" x="196" y="-556.55" font-family="Helvetica,sans-Serif" font-size="10.50" fill="white">json_add</text>
</a>
</g>
<!-- proc~json_value_add_string&#45;&gt;interface~json_add -->
<g id="edge148" class="edge"><title>proc~json_value_add_string&#45;&gt;interface~json_add</title>
<path fill="none" stroke="black" d="M67.5057,-273.201C90.8821,-320.072 162.306,-477.025 187.274,-536.289"/>
<polygon fill="black" stroke="black" points="184.181,-537.969 191.248,-545.863 190.646,-535.285 184.181,-537.969"/>
</g>
<!-- proc~escape_string -->
<g id="node3" class="node"><title>proc~escape_string</title>
<a xlink:href="../proc/escape_string.html" xlink:title="escape_string">
<polygon fill="#d9534f" stroke="#d9534f" points="235,-26 157,-26 157,-1.24345e-14 235,-3.55271e-15 235,-26"/>
<text text-anchor="middle" x="196" y="-10.55" font-family="Helvetica,sans-Serif" font-size="10.50" fill="white">escape_string</text>
</a>
</g>
<!-- proc~json_value_add_string&#45;&gt;proc~escape_string -->
<g id="edge150" class="edge"><title>proc~json_value_add_string&#45;&gt;proc~escape_string</title>
<path fill="none" stroke="black" d="M62.9471,-246.985C71.6904,-210.713 100.409,-106.776 156,-40 158.267,-37.2775 160.876,-34.7177 163.652,-32.3413"/>
<polygon fill="black" stroke="black" points="165.946,-34.9935 171.775,-26.1463 161.701,-29.4275 165.946,-34.9935"/>
</g>
<!-- proc~to_string -->
<g id="node4" class="node"><title>proc~to_string</title>
<a xlink:href="../proc/to_string.html" xlink:title="to_string">
<polygon fill="#d9534f" stroke="#d9534f" points="223,-842 169,-842 169,-816 223,-816 223,-842"/>
<text text-anchor="middle" x="196" y="-826.55" font-family="Helvetica,sans-Serif" font-size="10.50" fill="white">to_string</text>
</a>
</g>
<!-- proc~json_value_add_string&#45;&gt;proc~to_string -->
<g id="edge152" class="edge"><title>proc~json_value_add_string&#45;&gt;proc~to_string</title>
<path fill="none" stroke="black" d="M63.1616,-273.227C80.8651,-347.296 167.72,-710.68 190.513,-806.045"/>
<polygon fill="black" stroke="black" points="187.127,-806.933 192.856,-815.845 193.935,-805.305 187.127,-806.933"/>
</g>
<!-- proc~json_value_create -->
<g id="node5" class="node"><title>proc~json_value_create</title>
<a xlink:href="../proc/json_value_create.html" xlink:title="json_value_create">
<polygon fill="#d9534f" stroke="#d9534f" points="796,-583 696,-583 696,-557 796,-557 796,-583"/>
<text text-anchor="middle" x="746" y="-567.55" font-family="Helvetica,sans-Serif" font-size="10.50" fill="white">json_value_create</text>
</a>
</g>
<!-- proc~json_value_add_string&#45;&gt;proc~json_value_create -->
<g id="edge154" class="edge"><title>proc~json_value_add_string&#45;&gt;proc~json_value_create</title>
<path fill="none" stroke="black" d="M70.6283,-246.842C98.9737,-212.938 180.476,-123.016 272,-91 435.552,-33.7879 544.228,-0.0850792 660,-129 716.823,-192.274 663.316,-431.488 696,-510 702.206,-524.908 713.459,-538.931 723.72,-549.665"/>
<polygon fill="black" stroke="black" points="721.381,-552.276 730.93,-556.866 726.328,-547.323 721.381,-552.276"/>
</g>
<!-- interface~json_add&#45;&gt;proc~json_value_add_string -->
<g id="edge132" class="edge"><title>interface~json_add&#45;&gt;proc~json_value_add_string</title>
<path fill="none" stroke="black" stroke-dasharray="5,2" d="M188.551,-545.912C165.219,-499.154 93.6315,-341.842 68.6835,-282.609"/>
<polygon fill="black" stroke="black" points="71.9078,-281.247 64.8403,-273.354 65.443,-283.931 71.9078,-281.247"/>
</g>
<!-- proc~json_value_add_member -->
<g id="node6" class="node"><title>proc~json_value_add_member</title>
<a xlink:href="../proc/json_value_add_member.html" xlink:title="json_value_add_member">
<polygon fill="#d9534f" stroke="#d9534f" points="439,-528 307,-528 307,-502 439,-502 439,-528"/>
<text text-anchor="middle" x="373" y="-512.55" font-family="Helvetica,sans-Serif" font-size="10.50" fill="white">json_value_add_member</text>
</a>
</g>
<!-- interface~json_add&#45;&gt;proc~json_value_add_member -->
<g id="edge104" class="edge"><title>interface~json_add&#45;&gt;proc~json_value_add_member</title>
<path fill="none" stroke="black" stroke-dasharray="5,2" d="M224.029,-550.397C238.324,-546.135 256.021,-541.048 272,-537 281.102,-534.694 290.703,-532.412 300.219,-530.239"/>
<polygon fill="black" stroke="black" points="301.092,-533.63 310.079,-528.019 299.555,-526.801 301.092,-533.63"/>
</g>
<!-- proc~json_value_add_logical -->
<g id="node7" class="node"><title>proc~json_value_add_logical</title>
<a xlink:href="../proc/json_value_add_logical.html" xlink:title="json_value_add_logical">
<polygon fill="#d9534f" stroke="#d9534f" points="647,-164 523,-164 523,-138 647,-138 647,-164"/>
<text text-anchor="middle" x="585" y="-148.55" font-family="Helvetica,sans-Serif" font-size="10.50" fill="white">json_value_add_logical</text>
</a>
</g>
<!-- interface~json_add&#45;&gt;proc~json_value_add_logical -->
<g id="edge106" class="edge"><title>interface~json_add&#45;&gt;proc~json_value_add_logical</title>
<path fill="none" stroke="black" stroke-dasharray="5,2" d="M196.126,-545.855C197.086,-478.472 205.204,-176.026 272,-120 355.025,-50.3621 498.014,-102.233 557.644,-133.046"/>
<polygon fill="black" stroke="black" points="556.339,-136.318 566.804,-137.971 559.654,-130.152 556.339,-136.318"/>
</g>
<!-- proc~wrap_json_value_add_logical -->
<g id="node8" class="node"><title>proc~wrap_json_value_add_logical</title>
<a xlink:href="../proc/wrap_json_value_add_logical.html" xlink:title="wrap_json_value_add_logical">
<polygon fill="#d9534f" stroke="#d9534f" points="449,-164 297,-164 297,-138 449,-138 449,-164"/>
<text text-anchor="middle" x="373" y="-148.55" font-family="Helvetica,sans-Serif" font-size="10.50" fill="white">wrap_json_value_add_logical</text>
</a>
</g>
<!-- interface~json_add&#45;&gt;proc~wrap_json_value_add_logical -->
<g id="edge108" class="edge"><title>interface~json_add&#45;&gt;proc~wrap_json_value_add_logical</title>
<path fill="none" stroke="black" stroke-dasharray="5,2" d="M196.707,-545.804C200.266,-484.466 218.215,-227.875 272,-173 276.346,-168.566 281.361,-164.929 286.786,-161.954"/>
<polygon fill="black" stroke="black" points="288.665,-164.94 296.256,-157.549 285.713,-158.593 288.665,-164.94"/>
</g>
<!-- proc~wrap_json_value_add_integer_vec -->
<g id="node9" class="node"><title>proc~wrap_json_value_add_integer_vec</title>
<a xlink:href="../proc/wrap_json_value_add_integer_vec.html" xlink:title="wrap_json_value_add_integer_vec">
<polygon fill="#d9534f" stroke="#d9534f" points="462,-704 284,-704 284,-678 462,-678 462,-704"/>
<text text-anchor="middle" x="373" y="-688.55" font-family="Helvetica,sans-Serif" font-size="10.50" fill="white">wrap_json_value_add_integer_vec</text>
</a>
</g>
<!-- interface~json_add&#45;&gt;proc~wrap_json_value_add_integer_vec -->
<g id="edge110" class="edge"><title>interface~json_add&#45;&gt;proc~wrap_json_value_add_integer_vec</title>
<path fill="none" stroke="black" stroke-dasharray="5,2" d="M201.244,-572.269C211.244,-595.749 235.361,-644.451 272,-669 274.446,-670.639 276.993,-672.158 279.619,-673.566"/>
<polygon fill="black" stroke="black" points="278.28,-676.805 288.814,-677.938 281.286,-670.483 278.28,-676.805"/>
</g>
<!-- proc~json_value_add_string_vec_val_ascii -->
<g id="node10" class="node"><title>proc~json_value_add_string_vec_val_ascii</title>
<a xlink:href="../proc/json_value_add_string_vec_val_ascii.html" xlink:title="json_value_add_string_vec_val_ascii">
<polygon fill="#d9534f" stroke="#d9534f" points="467,-572 279,-572 279,-546 467,-546 467,-572"/>
<text text-anchor="middle" x="373" y="-556.55" font-family="Helvetica,sans-Serif" font-size="10.50" fill="white">json_value_add_string_vec_val_ascii</text>
</a>
</g>
<!-- interface~json_add&#45;&gt;proc~json_value_add_string_vec_val_ascii -->
<g id="edge112" class="edge"><title>interface~json_add&#45;&gt;proc~json_value_add_string_vec_val_ascii</title>
<path fill="none" stroke="black" stroke-dasharray="5,2" d="M224.046,-559C236.478,-559 251.958,-559 268.197,-559"/>
<polygon fill="black" stroke="black" points="268.385,-562.5 278.385,-559 268.385,-555.5 268.385,-562.5"/>
</g>
<!-- proc~json_value_add_integer_vec -->
<g id="node11" class="node"><title>proc~json_value_add_integer_vec</title>
<a xlink:href="../proc/json_value_add_integer_vec.html" xlink:title="json_value_add_integer_vec">
<polygon fill="#d9534f" stroke="#d9534f" points="659,-704 511,-704 511,-678 659,-678 659,-704"/>
<text text-anchor="middle" x="585" y="-688.55" font-family="Helvetica,sans-Serif" font-size="10.50" fill="white">json_value_add_integer_vec</text>
</a>
</g>
<!-- interface~json_add&#45;&gt;proc~json_value_add_integer_vec -->
<g id="edge114" class="edge"><title>interface~json_add&#45;&gt;proc~json_value_add_integer_vec</title>
<path fill="none" stroke="black" stroke-dasharray="5,2" d="M198.597,-572.11C208.812,-629.895 246.898,-857.063 272,-877 342.302,-932.836 404.35,-933.648 474,-877 532.191,-829.671 463.481,-767.587 503.835,-711.565"/>
<polygon fill="black" stroke="black" points="506.647,-713.655 510.277,-703.702 501.232,-709.219 506.647,-713.655"/>
</g>
<!-- proc~json_value_add_integer -->
<g id="node12" class="node"><title>proc~json_value_add_integer</title>
<a xlink:href="../proc/json_value_add_integer.html" xlink:title="json_value_add_integer">
<polygon fill="#d9534f" stroke="#d9534f" points="648,-748 522,-748 522,-722 648,-722 648,-748"/>
<text text-anchor="middle" x="585" y="-732.55" font-family="Helvetica,sans-Serif" font-size="10.50" fill="white">json_value_add_integer</text>
</a>
</g>
<!-- interface~json_add&#45;&gt;proc~json_value_add_integer -->
<g id="edge116" class="edge"><title>interface~json_add&#45;&gt;proc~json_value_add_integer</title>
<path fill="none" stroke="black" stroke-dasharray="5,2" d="M198.755,-572.276C210.67,-636.497 257.8,-909.414 272,-921 341.561,-977.756 396.388,-966.126 474,-921 536.269,-884.795 566.494,-799.161 578.48,-757.78"/>
<polygon fill="black" stroke="black" points="581.88,-758.614 581.204,-748.041 575.139,-756.728 581.88,-758.614"/>
</g>
<!-- proc~json_value_add_string_vec -->
<g id="node13" class="node"><title>proc~json_value_add_string_vec</title>
<a xlink:href="../proc/json_value_add_string_vec.html" xlink:title="json_value_add_string_vec">
<polygon fill="#d9534f" stroke="#d9534f" points="656,-572 514,-572 514,-546 656,-546 656,-572"/>
<text text-anchor="middle" x="585" y="-556.55" font-family="Helvetica,sans-Serif" font-size="10.50" fill="white">json_value_add_string_vec</text>
</a>
</g>
<!-- interface~json_add&#45;&gt;proc~json_value_add_string_vec -->
<g id="edge118" class="edge"><title>interface~json_add&#45;&gt;proc~json_value_add_string_vec</title>
<path fill="none" stroke="black" stroke-dasharray="5,2" d="M200.066,-572.229C210.726,-611.958 240.821,-726.571 272,-748 345.988,-798.852 404.447,-804.766 474,-748 533.318,-699.587 462.267,-636.214 507.348,-576.03"/>
<polygon fill="black" stroke="black" points="510.059,-578.244 513.788,-568.327 504.689,-573.754 510.059,-578.244"/>
</g>
<!-- proc~wrap_json_value_add_double_vec -->
<g id="node14" class="node"><title>proc~wrap_json_value_add_double_vec</title>
<a xlink:href="../proc/wrap_json_value_add_double_vec.html" xlink:title="wrap_json_value_add_double_vec">
<polygon fill="#d9534f" stroke="#d9534f" points="462,-660 284,-660 284,-634 462,-634 462,-660"/>
<text text-anchor="middle" x="373" y="-644.55" font-family="Helvetica,sans-Serif" font-size="10.50" fill="white">wrap_json_value_add_double_vec</text>
</a>
</g>
<!-- interface~json_add&#45;&gt;proc~wrap_json_value_add_double_vec -->
<g id="edge120" class="edge"><title>interface~json_add&#45;&gt;proc~wrap_json_value_add_double_vec</title>
<path fill="none" stroke="black" stroke-dasharray="5,2" d="M207.219,-572.1C220.935,-587.239 245.6,-611.762 272,-625 276.034,-627.023 280.251,-628.861 284.575,-630.53"/>
<polygon fill="black" stroke="black" points="283.588,-633.893 294.182,-633.923 285.918,-627.293 283.588,-633.893"/>
</g>
<!-- proc~json_value_add_string_vec_name_ascii -->
<g id="node15" class="node"><title>proc~json_value_add_string_vec_name_ascii</title>
<a xlink:href="../proc/json_value_add_string_vec_name_ascii.html" xlink:title="json_value_add_string_vec_name_ascii">
<polygon fill="#d9534f" stroke="#d9534f" points="474,-440 272,-440 272,-414 474,-414 474,-440"/>
<text text-anchor="middle" x="373" y="-424.55" font-family="Helvetica,sans-Serif" font-size="10.50" fill="white">json_value_add_string_vec_name_ascii</text>
</a>
</g>
<!-- interface~json_add&#45;&gt;proc~json_value_add_string_vec_name_ascii -->
<g id="edge122" class="edge"><title>interface~json_add&#45;&gt;proc~json_value_add_string_vec_name_ascii</title>
<path fill="none" stroke="black" stroke-dasharray="5,2" d="M201.244,-545.731C211.244,-522.251 235.361,-473.549 272,-449 274.446,-447.361 276.993,-445.842 279.619,-444.434"/>
<polygon fill="black" stroke="black" points="281.286,-447.517 288.814,-440.062 278.28,-441.195 281.286,-447.517"/>
</g>
<!-- proc~json_value_add_logical_vec -->
<g id="node16" class="node"><title>proc~json_value_add_logical_vec</title>
<a xlink:href="../proc/json_value_add_logical_vec.html" xlink:title="json_value_add_logical_vec">
<polygon fill="#d9534f" stroke="#d9534f" points="658,-616 512,-616 512,-590 658,-590 658,-616"/>
<text text-anchor="middle" x="585" y="-600.55" font-family="Helvetica,sans-Serif" font-size="10.50" fill="white">json_value_add_logical_vec</text>
</a>
</g>
<!-- interface~json_add&#45;&gt;proc~json_value_add_logical_vec -->
<g id="edge124" class="edge"><title>interface~json_add&#45;&gt;proc~json_value_add_logical_vec</title>
<path fill="none" stroke="black" stroke-dasharray="5,2" d="M198.759,-572.224C207.248,-617.659 234.674,-763.633 272,-791 344.402,-844.085 404.415,-847.727 474,-791 532.902,-742.982 462.77,-680.092 505.528,-621.792"/>
<polygon fill="black" stroke="black" points="508.32,-623.907 511.991,-613.969 502.924,-619.448 508.32,-623.907"/>
</g>
<!-- proc~json_value_add_double -->
<g id="node17" class="node"><title>proc~json_value_add_double</title>
<a xlink:href="../proc/json_value_add_double.html" xlink:title="json_value_add_double">
<polygon fill="#d9534f" stroke="#d9534f" points="648,-396 522,-396 522,-370 648,-370 648,-396"/>
<text text-anchor="middle" x="585" y="-380.55" font-family="Helvetica,sans-Serif" font-size="10.50" fill="white">json_value_add_double</text>
</a>
</g>
<!-- interface~json_add&#45;&gt;proc~json_value_add_double -->
<g id="edge126" class="edge"><title>interface~json_add&#45;&gt;proc~json_value_add_double</title>
<path fill="none" stroke="black" stroke-dasharray="5,2" d="M198.222,-545.853C206.776,-503.503 238.773,-374.837 272,-352 360.241,-291.352 497.499,-336.805 556.483,-365.257"/>
<polygon fill="black" stroke="black" points="555.077,-368.467 565.584,-369.829 558.22,-362.212 555.077,-368.467"/>
</g>
<!-- proc~wrap_json_value_add_string -->
<g id="node18" class="node"><title>proc~wrap_json_value_add_string</title>
<a xlink:href="../proc/wrap_json_value_add_string.html" xlink:title="wrap_json_value_add_string">
<polygon fill="#d9534f" stroke="#d9534f" points="447,-296 299,-296 299,-270 447,-270 447,-296"/>
<text text-anchor="middle" x="373" y="-280.55" font-family="Helvetica,sans-Serif" font-size="10.50" fill="white">wrap_json_value_add_string</text>
</a>
</g>
<!-- interface~json_add&#45;&gt;proc~wrap_json_value_add_string -->
<g id="edge128" class="edge"><title>interface~json_add&#45;&gt;proc~wrap_json_value_add_string</title>
<path fill="none" stroke="black" stroke-dasharray="5,2" d="M198.298,-545.796C206.644,-499.291 236.722,-344.064 272,-310 277,-305.172 282.765,-301.184 288.953,-297.893"/>
<polygon fill="black" stroke="black" points="290.692,-300.944 298.283,-293.553 287.74,-294.597 290.692,-300.944"/>
</g>
<!-- proc~wrap_json_value_add_logical_vec -->
<g id="node19" class="node"><title>proc~wrap_json_value_add_logical_vec</title>
<a xlink:href="../proc/wrap_json_value_add_logical_vec.html" xlink:title="wrap_json_value_add_logical_vec">
<polygon fill="#d9534f" stroke="#d9534f" points="460,-616 286,-616 286,-590 460,-590 460,-616"/>
<text text-anchor="middle" x="373" y="-600.55" font-family="Helvetica,sans-Serif" font-size="10.50" fill="white">wrap_json_value_add_logical_vec</text>
</a>
</g>
<!-- interface~json_add&#45;&gt;proc~wrap_json_value_add_logical_vec -->
<g id="edge130" class="edge"><title>interface~json_add&#45;&gt;proc~wrap_json_value_add_logical_vec</title>
<path fill="none" stroke="black" stroke-dasharray="5,2" d="M224.029,-567.603C238.324,-571.865 256.021,-576.952 272,-581 281.102,-583.306 290.703,-585.588 300.219,-587.761"/>
<polygon fill="black" stroke="black" points="299.555,-591.199 310.079,-589.981 301.092,-584.37 299.555,-591.199"/>
</g>
<!-- proc~json_value_add_string_val_ascii -->
<g id="node20" class="node"><title>proc~json_value_add_string_val_ascii</title>
<a xlink:href="../proc/json_value_add_string_val_ascii.html" xlink:title="json_value_add_string_val_ascii">
<polygon fill="#d9534f" stroke="#d9534f" points="456,-252 290,-252 290,-226 456,-226 456,-252"/>
<text text-anchor="middle" x="373" y="-236.55" font-family="Helvetica,sans-Serif" font-size="10.50" fill="white">json_value_add_string_val_ascii</text>
</a>
</g>
<!-- interface~json_add&#45;&gt;proc~json_value_add_string_val_ascii -->
<g id="edge134" class="edge"><title>interface~json_add&#45;&gt;proc~json_value_add_string_val_ascii</title>
<path fill="none" stroke="black" stroke-dasharray="5,2" d="M197.536,-545.756C203.871,-493.421 229.649,-301.884 272,-261 274.744,-258.351 277.728,-255.991 280.893,-253.889"/>
<polygon fill="black" stroke="black" points="282.692,-256.892 289.657,-248.908 279.234,-250.807 282.692,-256.892"/>
</g>
<!-- proc~json_value_add_double_vec -->
<g id="node21" class="node"><title>proc~json_value_add_double_vec</title>
<a xlink:href="../proc/json_value_add_double_vec.html" xlink:title="json_value_add_double_vec">
<polygon fill="#d9534f" stroke="#d9534f" points="659,-660 511,-660 511,-634 659,-634 659,-660"/>
<text text-anchor="middle" x="585" y="-644.55" font-family="Helvetica,sans-Serif" font-size="10.50" fill="white">json_value_add_double_vec</text>
</a>
</g>
<!-- interface~json_add&#45;&gt;proc~json_value_add_double_vec -->
<g id="edge136" class="edge"><title>interface~json_add&#45;&gt;proc~json_value_add_double_vec</title>
<path fill="none" stroke="black" stroke-dasharray="5,2" d="M197.875,-572.281C204.453,-622.983 228.475,-800.591 272,-834 343.217,-888.665 404.383,-890.688 474,-834 532.486,-786.376 463.269,-723.968 504.294,-667.1"/>
<polygon fill="black" stroke="black" points="507.207,-669.067 510.839,-659.114 501.793,-664.629 507.207,-669.067"/>
</g>
<!-- proc~wrap_json_value_add_string_vec -->
<g id="node22" class="node"><title>proc~wrap_json_value_add_string_vec</title>
<a xlink:href="../proc/wrap_json_value_add_string_vec.html" xlink:title="wrap_json_value_add_string_vec">
<polygon fill="#d9534f" stroke="#d9534f" points="459,-484 287,-484 287,-458 459,-458 459,-484"/>
<text text-anchor="middle" x="373" y="-468.55" font-family="Helvetica,sans-Serif" font-size="10.50" fill="white">wrap_json_value_add_string_vec</text>
</a>
</g>
<!-- interface~json_add&#45;&gt;proc~wrap_json_value_add_string_vec -->
<g id="edge138" class="edge"><title>interface~json_add&#45;&gt;proc~wrap_json_value_add_string_vec</title>
<path fill="none" stroke="black" stroke-dasharray="5,2" d="M207.219,-545.9C220.935,-530.761 245.6,-506.238 272,-493 276.034,-490.977 280.251,-489.139 284.575,-487.47"/>
<polygon fill="black" stroke="black" points="285.918,-490.707 294.182,-484.077 283.588,-484.107 285.918,-490.707"/>
</g>
<!-- proc~json_value_add_string_name_ascii -->
<g id="node23" class="node"><title>proc~json_value_add_string_name_ascii</title>
<a xlink:href="../proc/json_value_add_string_name_ascii.html" xlink:title="json_value_add_string_name_ascii">
<polygon fill="#d9534f" stroke="#d9534f" points="463,-208 283,-208 283,-182 463,-182 463,-208"/>
<text text-anchor="middle" x="373" y="-192.55" font-family="Helvetica,sans-Serif" font-size="10.50" fill="white">json_value_add_string_name_ascii</text>
</a>
</g>
<!-- interface~json_add&#45;&gt;proc~json_value_add_string_name_ascii -->
<g id="edge140" class="edge"><title>interface~json_add&#45;&gt;proc~json_value_add_string_name_ascii</title>
<path fill="none" stroke="black" stroke-dasharray="5,2" d="M197.067,-545.802C201.942,-488.848 223.945,-264.854 272,-217 272.966,-216.038 273.963,-215.114 274.989,-214.227"/>
<polygon fill="black" stroke="black" points="277.359,-216.831 283.376,-208.11 273.234,-211.175 277.359,-216.831"/>
</g>
<!-- proc~wrap_json_value_add_integer -->
<g id="node24" class="node"><title>proc~wrap_json_value_add_integer</title>
<a xlink:href="../proc/wrap_json_value_add_integer.html" xlink:title="wrap_json_value_add_integer">
<polygon fill="#d9534f" stroke="#d9534f" points="451,-748 295,-748 295,-722 451,-722 451,-748"/>
<text text-anchor="middle" x="373" y="-732.55" font-family="Helvetica,sans-Serif" font-size="10.50" fill="white">wrap_json_value_add_integer</text>
</a>
</g>
<!-- interface~json_add&#45;&gt;proc~wrap_json_value_add_integer -->
<g id="edge142" class="edge"><title>interface~json_add&#45;&gt;proc~wrap_json_value_add_integer</title>
<path fill="none" stroke="black" stroke-dasharray="5,2" d="M198.478,-572.16C204.86,-602.206 224.784,-676.096 272,-713 276.136,-716.232 280.645,-719.014 285.388,-721.404"/>
<polygon fill="black" stroke="black" points="284.2,-724.705 294.762,-725.536 287.023,-718.3 284.2,-724.705"/>
</g>
<!-- proc~wrap_json_value_add_double -->
<g id="node25" class="node"><title>proc~wrap_json_value_add_double</title>
<a xlink:href="../proc/wrap_json_value_add_double.html" xlink:title="wrap_json_value_add_double">
<polygon fill="#d9534f" stroke="#d9534f" points="450,-396 296,-396 296,-370 450,-370 450,-396"/>
<text text-anchor="middle" x="373" y="-380.55" font-family="Helvetica,sans-Serif" font-size="10.50" fill="white">wrap_json_value_add_double</text>
</a>
</g>
<!-- interface~json_add&#45;&gt;proc~wrap_json_value_add_double -->
<g id="edge144" class="edge"><title>interface~json_add&#45;&gt;proc~wrap_json_value_add_double</title>
<path fill="none" stroke="black" stroke-dasharray="5,2" d="M198.478,-545.84C204.86,-515.794 224.784,-441.904 272,-405 276.33,-401.616 281.07,-398.726 286.059,-396.261"/>
<polygon fill="black" stroke="black" points="287.49,-399.456 295.274,-392.269 284.707,-393.033 287.49,-399.456"/>
</g>
<!-- proc~destroy_json_data -->
<g id="node27" class="node"><title>proc~destroy_json_data</title>
<a xlink:href="../proc/destroy_json_data.html" xlink:title="destroy_json_data">
<polygon fill="#d9534f" stroke="#d9534f" points="932,-649 832,-649 832,-623 932,-623 932,-649"/>
<text text-anchor="middle" x="882" y="-633.55" font-family="Helvetica,sans-Serif" font-size="10.50" fill="white">destroy_json_data</text>
</a>
</g>
<!-- proc~to_string&#45;&gt;proc~destroy_json_data -->
<g id="edge146" class="edge"><title>proc~to_string&#45;&gt;proc~destroy_json_data</title>
<path fill="none" stroke="black" d="M198.4,-842.377C204.528,-872.048 223.805,-943.035 272,-972 348.95,-1018.25 389.323,-1001.83 474,-972 656.68,-907.648 815.479,-720.999 865.591,-657.468"/>
<polygon fill="black" stroke="black" points="868.537,-659.382 871.932,-649.346 863.019,-655.074 868.537,-659.382"/>
</g>
<!-- proc~json_value_add_logical&#45;&gt;interface~json_add -->
<g id="edge8" class="edge"><title>proc~json_value_add_logical&#45;&gt;interface~json_add</title>
<path fill="none" stroke="black" d="M545.004,-137.908C479.685,-114.005 349.631,-72.887 272,-138 210.007,-189.997 198.557,-454.246 196.463,-535.415"/>
<polygon fill="black" stroke="black" points="192.959,-535.533 196.225,-545.612 199.957,-535.696 192.959,-535.533"/>
</g>
<!-- proc~json_value_add_logical&#45;&gt;proc~json_value_create -->
<g id="edge4" class="edge"><title>proc~json_value_add_logical&#45;&gt;proc~json_value_create</title>
<path fill="none" stroke="black" d="M590.231,-164.106C603.198,-196.904 637.413,-285.323 660,-361 679.484,-426.282 665.395,-449.134 696,-510 703.254,-524.427 714.58,-538.416 724.619,-549.253"/>
<polygon fill="black" stroke="black" points="722.174,-551.759 731.625,-556.547 727.222,-546.91 722.174,-551.759"/>
</g>
<!-- proc~to_logical -->
<g id="node26" class="node"><title>proc~to_logical</title>
<a xlink:href="../proc/to_logical.html" xlink:title="to_logical">
<polygon fill="#d9534f" stroke="#d9534f" points="775,-259 717,-259 717,-233 775,-233 775,-259"/>
<text text-anchor="middle" x="746" y="-243.55" font-family="Helvetica,sans-Serif" font-size="10.50" fill="white">to_logical</text>
</a>
</g>
<!-- proc~json_value_add_logical&#45;&gt;proc~to_logical -->
<g id="edge6" class="edge"><title>proc~json_value_add_logical&#45;&gt;proc~to_logical</title>
<path fill="none" stroke="black" d="M607.049,-164.01C635.032,-180.522 683.459,-209.097 715.112,-227.774"/>
<polygon fill="black" stroke="black" points="713.569,-230.927 723.96,-232.995 717.126,-224.899 713.569,-230.927"/>
</g>
<!-- proc~wrap_json_value_add_logical&#45;&gt;proc~json_value_add_logical -->
<g id="edge14" class="edge"><title>proc~wrap_json_value_add_logical&#45;&gt;proc~json_value_add_logical</title>
<path fill="none" stroke="black" d="M449.537,-151C470.134,-151 492.342,-151 512.7,-151"/>
<polygon fill="black" stroke="black" points="512.843,-154.5 522.843,-151 512.843,-147.5 512.843,-154.5"/>
</g>
<!-- interface~to_unicode -->
<g id="node32" class="node"><title>interface~to_unicode</title>
<a xlink:href="../interface/to_unicode.html" xlink:title="to_unicode">
<polygon fill="#a7506f" stroke="#a7506f" points="617,-479 553,-479 553,-453 617,-453 617,-479"/>
<text text-anchor="middle" x="585" y="-463.55" font-family="Helvetica,sans-Serif" font-size="10.50" fill="white">to_unicode</text>
</a>
</g>
<!-- proc~wrap_json_value_add_logical&#45;&gt;interface~to_unicode -->
<g id="edge16" class="edge"><title>proc~wrap_json_value_add_logical&#45;&gt;interface~to_unicode</title>
<path fill="none" stroke="black" d="M449.506,-157.098C458.715,-160.698 467.235,-165.813 474,-173 545.517,-248.982 458.066,-314.497 510,-405 519.916,-422.28 536.761,-436.65 551.978,-447.094"/>
<polygon fill="black" stroke="black" points="550.399,-450.243 560.685,-452.782 554.227,-444.382 550.399,-450.243"/>
</g>
<!-- proc~wrap_json_value_add_integer_vec&#45;&gt;proc~json_value_add_integer_vec -->
<g id="edge18" class="edge"><title>proc~wrap_json_value_add_integer_vec&#45;&gt;proc~json_value_add_integer_vec</title>
<path fill="none" stroke="black" d="M462.293,-691C474.758,-691 487.539,-691 499.924,-691"/>
<polygon fill="black" stroke="black" points="500.218,-694.5 510.218,-691 500.218,-687.5 500.218,-694.5"/>
</g>
<!-- proc~wrap_json_value_add_integer_vec&#45;&gt;interface~to_unicode -->
<g id="edge20" class="edge"><title>proc~wrap_json_value_add_integer_vec&#45;&gt;interface~to_unicode</title>
<path fill="none" stroke="black" d="M461.968,-677.965C466.301,-675.426 470.356,-672.46 474,-669 518.097,-627.129 478.761,-589.172 510,-537 522.236,-516.565 541.969,-498.219 558.123,-485.297"/>
<polygon fill="black" stroke="black" points="560.424,-487.943 566.186,-479.052 556.137,-482.409 560.424,-487.943"/>
</g>
<!-- proc~json_value_add_string_vec_val_ascii&#45;&gt;proc~json_value_add_string_vec -->
<g id="edge24" class="edge"><title>proc~json_value_add_string_vec_val_ascii&#45;&gt;proc~json_value_add_string_vec</title>
<path fill="none" stroke="black" d="M467.53,-559C479.571,-559 491.812,-559 503.622,-559"/>
<polygon fill="black" stroke="black" points="503.873,-562.5 513.873,-559 503.873,-555.5 503.873,-562.5"/>
</g>
<!-- proc~json_value_add_string_vec_val_ascii&#45;&gt;interface~to_unicode -->
<g id="edge22" class="edge"><title>proc~json_value_add_string_vec_val_ascii&#45;&gt;interface~to_unicode</title>
<path fill="none" stroke="black" d="M447.299,-545.994C456.444,-543.47 465.541,-540.495 474,-537 505.962,-523.796 538.882,-501.428 560.484,-485.323"/>
<polygon fill="black" stroke="black" points="562.884,-487.896 568.736,-479.064 558.654,-482.319 562.884,-487.896"/>
</g>
<!-- proc~json_value_add_integer_vec&#45;&gt;interface~json_add -->
<g id="edge28" class="edge"><title>proc~json_value_add_integer_vec&#45;&gt;interface~json_add</title>
<path fill="none" stroke="black" d="M541.739,-704.043C530.011,-707.642 518.283,-713.025 510,-722 456.737,-779.714 534.928,-845.445 474,-895 404.35,-951.648 342.302,-950.836 272,-895 247.31,-875.39 210.058,-655.291 199.122,-582.217"/>
<polygon fill="black" stroke="black" points="202.563,-581.56 197.651,-572.173 195.637,-582.575 202.563,-581.56"/>
</g>
<!-- proc~json_value_add_integer_vec&#45;&gt;proc~json_value_create -->
<g id="edge30" class="edge"><title>proc~json_value_add_integer_vec&#45;&gt;proc~json_value_create</title>
<path fill="none" stroke="black" d="M644.631,-677.874C650.086,-675.406 655.314,-672.477 660,-669 683.463,-651.593 676.86,-636.073 696,-614 703.463,-605.394 712.586,-596.895 720.987,-589.696"/>
<polygon fill="black" stroke="black" points="723.303,-592.322 728.743,-583.231 718.821,-586.946 723.303,-592.322"/>
</g>
<!-- proc~to_array -->
<g id="node43" class="node"><title>proc~to_array</title>
<a xlink:href="../proc/to_array.html" xlink:title="to_array">
<polygon fill="#d9534f" stroke="#d9534f" points="773,-649 719,-649 719,-623 773,-623 773,-649"/>
<text text-anchor="middle" x="746" y="-633.55" font-family="Helvetica,sans-Serif" font-size="10.50" fill="white">to_array</text>
</a>
</g>
<!-- proc~json_value_add_integer_vec&#45;&gt;proc~to_array -->
<g id="edge32" class="edge"><title>proc~json_value_add_integer_vec&#45;&gt;proc~to_array</title>
<path fill="none" stroke="black" d="M631.593,-677.97C641.039,-675.15 650.873,-672.084 660,-669 676.281,-663.499 694.047,-656.801 709.183,-650.881"/>
<polygon fill="black" stroke="black" points="710.69,-654.049 718.707,-647.123 708.12,-647.537 710.69,-654.049"/>
</g>
<!-- proc~json_value_add_integer&#45;&gt;interface~json_add -->
<g id="edge40" class="edge"><title>proc~json_value_add_integer&#45;&gt;interface~json_add</title>
<path fill="none" stroke="black" d="M583.095,-748.023C575.888,-786.452 546.909,-896.609 474,-939 396.388,-984.126 341.561,-995.756 272,-939 258.042,-927.612 212.271,-663.745 199.396,-582.45"/>
<polygon fill="black" stroke="black" points="202.803,-581.577 197.805,-572.236 195.886,-582.655 202.803,-581.577"/>
</g>
<!-- proc~json_value_add_integer&#45;&gt;proc~json_value_create -->
<g id="edge36" class="edge"><title>proc~json_value_add_integer&#45;&gt;proc~json_value_create</title>
<path fill="none" stroke="black" d="M647.353,-721.987C651.944,-719.494 656.24,-716.529 660,-713 694.139,-680.961 669.604,-652.669 696,-614 702.16,-604.975 710.586,-596.617 718.765,-589.664"/>
<polygon fill="black" stroke="black" points="721.184,-592.21 726.769,-583.206 716.788,-586.762 721.184,-592.21"/>
</g>
<!-- proc~to_integer -->
<g id="node48" class="node"><title>proc~to_integer</title>
<a xlink:href="../proc/to_integer.html" xlink:title="to_integer">
<polygon fill="#d9534f" stroke="#d9534f" points="776,-704 716,-704 716,-678 776,-678 776,-704"/>
<text text-anchor="middle" x="746" y="-688.55" font-family="Helvetica,sans-Serif" font-size="10.50" fill="white">to_integer</text>
</a>
</g>
<!-- proc~json_value_add_integer&#45;&gt;proc~to_integer -->
<g id="edge38" class="edge"><title>proc~json_value_add_integer&#45;&gt;proc~to_integer</title>
<path fill="none" stroke="black" d="M632.869,-721.918C656.019,-715.591 683.503,-708.08 705.584,-702.045"/>
<polygon fill="black" stroke="black" points="706.591,-705.399 715.314,-699.386 704.745,-698.646 706.591,-705.399"/>
</g>
<!-- proc~json_value_add_string_vec&#45;&gt;interface~json_add -->
<g id="edge42" class="edge"><title>proc~json_value_add_string_vec&#45;&gt;interface~json_add</title>
<path fill="none" stroke="black" d="M541.72,-572.025C529.991,-575.624 518.267,-581.011 510,-590 455.951,-648.766 535.855,-715.516 474,-766 404.447,-822.766 345.988,-816.852 272,-766 241.044,-744.724 211.157,-631.594 200.298,-581.981"/>
<polygon fill="black" stroke="black" points="203.712,-581.208 198.222,-572.147 196.863,-582.654 203.712,-581.208"/>
</g>
<!-- proc~json_value_add_string_vec&#45;&gt;proc~json_value_create -->
<g id="edge44" class="edge"><title>proc~json_value_add_string_vec&#45;&gt;proc~json_value_create</title>
<path fill="none" stroke="black" d="M656.086,-563.857C665.86,-564.525 675.822,-565.205 685.384,-565.859"/>
<polygon fill="black" stroke="black" points="685.361,-569.365 695.576,-566.555 685.838,-562.381 685.361,-569.365"/>
</g>
<!-- proc~json_value_add_string_vec&#45;&gt;proc~to_array -->
<g id="edge46" class="edge"><title>proc~json_value_add_string_vec&#45;&gt;proc~to_array</title>
<path fill="none" stroke="black" d="M636.541,-572.009C644.533,-574.627 652.59,-577.627 660,-581 681.368,-590.726 703.649,-605.113 720.177,-616.734"/>
<polygon fill="black" stroke="black" points="718.558,-619.879 728.725,-622.858 722.634,-614.189 718.558,-619.879"/>
</g>
<!-- proc~wrap_json_value_add_double_vec&#45;&gt;proc~json_value_add_double_vec -->
<g id="edge48" class="edge"><title>proc~wrap_json_value_add_double_vec&#45;&gt;proc~json_value_add_double_vec</title>
<path fill="none" stroke="black" d="M462.293,-647C475.061,-647 488.162,-647 500.827,-647"/>
<polygon fill="black" stroke="black" points="500.877,-650.5 510.877,-647 500.877,-643.5 500.877,-650.5"/>
</g>
<!-- proc~wrap_json_value_add_double_vec&#45;&gt;interface~to_unicode -->
<g id="edge50" class="edge"><title>proc~wrap_json_value_add_double_vec&#45;&gt;interface~to_unicode</title>
<path fill="none" stroke="black" d="M460.524,-633.93C465.333,-631.415 469.877,-628.462 474,-625 506.362,-597.826 486.12,-571.863 510,-537 523.546,-517.223 543.399,-498.738 559.277,-485.59"/>
<polygon fill="black" stroke="black" points="561.582,-488.228 567.163,-479.222 557.184,-482.781 561.582,-488.228"/>
</g>
<!-- proc~json_value_add_string_vec_name_ascii&#45;&gt;proc~json_value_add_string_vec -->
<g id="edge54" class="edge"><title>proc~json_value_add_string_vec_name_ascii&#45;&gt;proc~json_value_add_string_vec</title>
<path fill="none" stroke="black" d="M454.329,-440.034C461.19,-442.52 467.848,-445.478 474,-449 494.472,-460.719 493.425,-471.215 510,-488 527.487,-505.709 548.06,-525.087 563.231,-539.118"/>
<polygon fill="black" stroke="black" points="560.901,-541.73 570.628,-545.931 565.644,-536.582 560.901,-541.73"/>
</g>
<!-- proc~json_value_add_string_vec_name_ascii&#45;&gt;interface~to_unicode -->
<g id="edge52" class="edge"><title>proc~json_value_add_string_vec_name_ascii&#45;&gt;interface~to_unicode</title>
<path fill="none" stroke="black" d="M443.888,-440.041C476.585,-446.056 514.308,-452.995 542.52,-458.185"/>
<polygon fill="black" stroke="black" points="541.988,-461.646 552.457,-460.013 543.255,-454.762 541.988,-461.646"/>
</g>
<!-- proc~json_value_add_logical_vec&#45;&gt;interface~json_add -->
<g id="edge56" class="edge"><title>proc~json_value_add_logical_vec&#45;&gt;interface~json_add</title>
<path fill="none" stroke="black" d="M541.726,-616.031C529.998,-619.63 518.272,-625.016 510,-634 456.213,-692.415 535.546,-758.826 474,-809 404.415,-865.727 344.402,-862.085 272,-809 235.182,-782.005 207.997,-639.614 199.117,-582.465"/>
<polygon fill="black" stroke="black" points="202.527,-581.604 197.587,-572.231 195.604,-582.638 202.527,-581.604"/>
</g>
<!-- proc~json_value_add_logical_vec&#45;&gt;proc~json_value_create -->
<g id="edge58" class="edge"><title>proc~json_value_add_logical_vec&#45;&gt;proc~json_value_create</title>
<path fill="none" stroke="black" d="M648.631,-589.958C660.923,-587.438 673.764,-584.806 685.937,-582.311"/>
<polygon fill="black" stroke="black" points="686.885,-585.689 695.979,-580.253 685.48,-578.832 686.885,-585.689"/>
</g>
<!-- proc~json_value_add_logical_vec&#45;&gt;proc~to_array -->
<g id="edge60" class="edge"><title>proc~json_value_add_logical_vec&#45;&gt;proc~to_array</title>
<path fill="none" stroke="black" d="M648.631,-616.042C669.057,-620.229 691.001,-624.727 708.875,-628.391"/>
<polygon fill="black" stroke="black" points="708.389,-631.864 718.888,-630.443 709.794,-625.006 708.389,-631.864"/>
</g>
<!-- proc~json_value_add_double&#45;&gt;interface~json_add -->
<g id="edge68" class="edge"><title>proc~json_value_add_double&#45;&gt;interface~json_add</title>
<path fill="none" stroke="black" d="M541.338,-369.97C476.417,-348.369 353.369,-314.075 272,-370 243.074,-389.881 215.081,-489.964 202.674,-536.048"/>
<polygon fill="black" stroke="black" points="199.277,-535.206 200.066,-545.771 206.038,-537.02 199.277,-535.206"/>
</g>
<!-- proc~json_value_add_double&#45;&gt;proc~json_value_create -->
<g id="edge64" class="edge"><title>proc~json_value_add_double&#45;&gt;proc~json_value_create</title>
<path fill="none" stroke="black" d="M605.303,-396.212C621.533,-407.497 644.118,-424.9 660,-444 681.363,-469.692 677.215,-482.367 696,-510 705.324,-523.716 717.152,-538.022 726.963,-549.223"/>
<polygon fill="black" stroke="black" points="724.423,-551.634 733.686,-556.778 729.653,-546.981 724.423,-551.634"/>
</g>
<!-- proc~to_double -->
<g id="node63" class="node"><title>proc~to_double</title>
<a xlink:href="../proc/to_double.html" xlink:title="to_double">
<polygon fill="#d9534f" stroke="#d9534f" points="776,-402 716,-402 716,-376 776,-376 776,-402"/>
<text text-anchor="middle" x="746" y="-386.55" font-family="Helvetica,sans-Serif" font-size="10.50" fill="white">to_double</text>
</a>
</g>
<!-- proc~json_value_add_double&#45;&gt;proc~to_double -->
<g id="edge66" class="edge"><title>proc~json_value_add_double&#45;&gt;proc~to_double</title>
<path fill="none" stroke="black" d="M648.169,-385.354C667.429,-386.072 688.079,-386.841 705.419,-387.488"/>
<polygon fill="black" stroke="black" points="705.623,-390.998 715.747,-387.873 705.884,-384.002 705.623,-390.998"/>
</g>
<!-- proc~wrap_json_value_add_string&#45;&gt;proc~json_value_add_string -->
<g id="edge72" class="edge"><title>proc~wrap_json_value_add_string&#45;&gt;proc~json_value_add_string</title>
<path fill="none" stroke="black" d="M298.476,-277.524C247.545,-273.781 180.474,-268.853 130.438,-265.176"/>
<polygon fill="black" stroke="black" points="130.579,-261.677 120.35,-264.435 130.066,-268.658 130.579,-261.677"/>
</g>
<!-- proc~wrap_json_value_add_string&#45;&gt;interface~to_unicode -->
<g id="edge70" class="edge"><title>proc~wrap_json_value_add_string&#45;&gt;interface~to_unicode</title>
<path fill="none" stroke="black" d="M392.664,-296.167C413.826,-310.784 447.949,-335.672 474,-361 492.116,-378.613 492.108,-387.16 510,-405 525.102,-420.058 543.689,-435.195 558.581,-446.624"/>
<polygon fill="black" stroke="black" points="556.782,-449.652 566.868,-452.896 561.006,-444.07 556.782,-449.652"/>
</g>
<!-- proc~wrap_json_value_add_logical_vec&#45;&gt;proc~json_value_add_logical_vec -->
<g id="edge76" class="edge"><title>proc~wrap_json_value_add_logical_vec&#45;&gt;proc~json_value_add_logical_vec</title>
<path fill="none" stroke="black" d="M460.759,-603C474.284,-603 488.218,-603 501.643,-603"/>
<polygon fill="black" stroke="black" points="501.795,-606.5 511.795,-603 501.795,-599.5 501.795,-606.5"/>
</g>
<!-- proc~wrap_json_value_add_logical_vec&#45;&gt;interface~to_unicode -->
<g id="edge74" class="edge"><title>proc~wrap_json_value_add_logical_vec&#45;&gt;interface~to_unicode</title>
<path fill="none" stroke="black" d="M455.593,-589.962C462.038,-587.474 468.262,-584.516 474,-581 495.544,-567.798 492.791,-555.5 510,-537 526.847,-518.889 547.316,-499.68 562.612,-485.815"/>
<polygon fill="black" stroke="black" points="564.998,-488.376 570.092,-479.086 560.317,-483.172 564.998,-488.376"/>
</g>
<!-- proc~json_value_add_string_val_ascii&#45;&gt;proc~json_value_add_string -->
<g id="edge80" class="edge"><title>proc~json_value_add_string_val_ascii&#45;&gt;proc~json_value_add_string</title>
<path fill="none" stroke="black" d="M289.764,-244.585C240.096,-247.917 177.714,-252.102 130.489,-255.271"/>
<polygon fill="black" stroke="black" points="130.093,-251.789 120.35,-255.951 130.561,-258.774 130.093,-251.789"/>
</g>
<!-- proc~json_value_add_string_val_ascii&#45;&gt;interface~to_unicode -->
<g id="edge78" class="edge"><title>proc~json_value_add_string_val_ascii&#45;&gt;interface~to_unicode</title>
<path fill="none" stroke="black" d="M456.368,-248.882C462.839,-252.029 468.847,-256.002 474,-261 521.354,-306.931 474.596,-349.335 510,-405 520.842,-422.048 538.071,-436.55 553.283,-447.132"/>
<polygon fill="black" stroke="black" points="551.679,-450.27 561.943,-452.899 555.559,-444.443 551.679,-450.27"/>
</g>
<!-- proc~json_value_add_double_vec&#45;&gt;interface~json_add -->
<g id="edge82" class="edge"><title>proc~json_value_add_double_vec&#45;&gt;interface~json_add</title>
<path fill="none" stroke="black" d="M541.733,-660.037C530.005,-663.636 518.277,-669.021 510,-678 456.475,-736.065 535.237,-802.136 474,-852 404.383,-908.688 343.217,-906.665 272,-852 229.126,-819.091 205.176,-646.264 198.181,-582.449"/>
<polygon fill="black" stroke="black" points="201.629,-581.767 197.105,-572.187 194.667,-582.498 201.629,-581.767"/>
</g>
<!-- proc~json_value_add_double_vec&#45;&gt;proc~json_value_create -->
<g id="edge84" class="edge"><title>proc~json_value_add_double_vec&#45;&gt;proc~json_value_create</title>
<path fill="none" stroke="black" d="M636.541,-633.991C644.533,-631.373 652.59,-628.373 660,-625 681.368,-615.274 703.649,-600.887 720.177,-589.266"/>
<polygon fill="black" stroke="black" points="722.634,-591.811 728.725,-583.142 718.558,-586.121 722.634,-591.811"/>
</g>
<!-- proc~json_value_add_double_vec&#45;&gt;proc~to_array -->
<g id="edge86" class="edge"><title>proc~json_value_add_double_vec&#45;&gt;proc~to_array</title>
<path fill="none" stroke="black" d="M659.373,-641.919C676.479,-640.75 693.955,-639.556 708.69,-638.549"/>
<polygon fill="black" stroke="black" points="709.151,-642.026 718.889,-637.852 708.674,-635.042 709.151,-642.026"/>
</g>
<!-- proc~wrap_json_value_add_string_vec&#45;&gt;proc~json_value_add_string_vec -->
<g id="edge90" class="edge"><title>proc~wrap_json_value_add_string_vec&#45;&gt;proc~json_value_add_string_vec</title>
<path fill="none" stroke="black" d="M446.383,-484.054C455.817,-486.582 465.235,-489.545 474,-493 504.799,-505.139 536.996,-525.232 558.733,-540.065"/>
<polygon fill="black" stroke="black" points="556.879,-543.038 567.091,-545.861 560.869,-537.286 556.879,-543.038"/>
</g>
<!-- proc~wrap_json_value_add_string_vec&#45;&gt;interface~to_unicode -->
<g id="edge88" class="edge"><title>proc~wrap_json_value_add_string_vec&#45;&gt;interface~to_unicode</title>
<path fill="none" stroke="black" d="M459.229,-468.966C487.788,-468.293 518.333,-467.572 542.169,-467.01"/>
<polygon fill="black" stroke="black" points="542.367,-470.507 552.282,-466.772 542.202,-463.509 542.367,-470.507"/>
</g>
<!-- proc~json_value_add_string_name_ascii&#45;&gt;proc~json_value_add_string -->
<g id="edge94" class="edge"><title>proc~json_value_add_string_name_ascii&#45;&gt;proc~json_value_add_string</title>
<path fill="none" stroke="black" d="M310.154,-208.051C258.098,-218.862 184.173,-234.213 130.188,-245.424"/>
<polygon fill="black" stroke="black" points="129.429,-242.007 120.35,-247.467 130.852,-248.861 129.429,-242.007"/>
</g>
<!-- proc~json_value_add_string_name_ascii&#45;&gt;interface~to_unicode -->
<g id="edge92" class="edge"><title>proc~json_value_add_string_name_ascii&#45;&gt;interface~to_unicode</title>
<path fill="none" stroke="black" d="M463.198,-208.275C467.105,-210.77 470.743,-213.659 474,-217 533.391,-277.912 466.364,-331.97 510,-405 520.291,-422.223 537.324,-436.662 552.56,-447.162"/>
<polygon fill="black" stroke="black" points="550.979,-450.311 561.257,-452.88 554.824,-444.462 550.979,-450.311"/>
</g>
<!-- proc~wrap_json_value_add_integer&#45;&gt;proc~json_value_add_integer -->
<g id="edge96" class="edge"><title>proc~wrap_json_value_add_integer&#45;&gt;proc~json_value_add_integer</title>
<path fill="none" stroke="black" d="M451.038,-735C470.743,-735 491.837,-735 511.32,-735"/>
<polygon fill="black" stroke="black" points="511.346,-738.5 521.346,-735 511.346,-731.5 511.346,-738.5"/>
</g>
<!-- proc~wrap_json_value_add_integer&#45;&gt;interface~to_unicode -->
<g id="edge98" class="edge"><title>proc~wrap_json_value_add_integer&#45;&gt;interface~to_unicode</title>
<path fill="none" stroke="black" d="M451.201,-727.8C459.693,-724.304 467.57,-719.513 474,-713 530.097,-656.186 471.213,-606.787 510,-537 521.497,-516.314 541.076,-498.085 557.347,-485.278"/>
<polygon fill="black" stroke="black" points="559.647,-487.926 565.494,-479.091 555.413,-482.352 559.647,-487.926"/>
</g>
<!-- proc~wrap_json_value_add_double&#45;&gt;proc~json_value_add_double -->
<g id="edge100" class="edge"><title>proc~wrap_json_value_add_double&#45;&gt;proc~json_value_add_double</title>
<path fill="none" stroke="black" d="M450.737,-383C470.662,-383 492.025,-383 511.717,-383"/>
<polygon fill="black" stroke="black" points="511.846,-386.5 521.846,-383 511.846,-379.5 511.846,-386.5"/>
</g>
<!-- proc~wrap_json_value_add_double&#45;&gt;interface~to_unicode -->
<g id="edge102" class="edge"><title>proc~wrap_json_value_add_double&#45;&gt;interface~to_unicode</title>
<path fill="none" stroke="black" d="M445.194,-396.055C455.005,-398.601 464.841,-401.568 474,-405 503.548,-416.071 534.848,-433.897 556.651,-447.427"/>
<polygon fill="black" stroke="black" points="555.055,-450.558 565.381,-452.93 558.788,-444.637 555.055,-450.558"/>
</g>
<!-- proc~to_logical&#45;&gt;proc~destroy_json_data -->
<g id="edge2" class="edge"><title>proc~to_logical&#45;&gt;proc~destroy_json_data</title>
<path fill="none" stroke="black" d="M751.913,-259.287C761.663,-281.411 781.478,-327.295 796,-367 828.968,-457.137 861.802,-566.71 875.43,-613.293"/>
<polygon fill="black" stroke="black" points="872.099,-614.371 878.256,-622.993 878.819,-612.413 872.099,-614.371"/>
</g>
<!-- proc~to_uni_vec -->
<g id="node33" class="node"><title>proc~to_uni_vec</title>
<a xlink:href="../proc/to_uni_vec.html" xlink:title="to_uni_vec">
<polygon fill="#d94e8f" stroke="#d94e8f" points="778,-457 714,-457 714,-431 778,-431 778,-457"/>
<text text-anchor="middle" x="746" y="-441.55" font-family="Helvetica,sans-Serif" font-size="10.50" fill="white">to_uni_vec</text>
</a>
</g>
<!-- interface~to_unicode&#45;&gt;proc~to_uni_vec -->
<g id="edge10" class="edge"><title>interface~to_unicode&#45;&gt;proc~to_uni_vec</title>
<path fill="none" stroke="black" stroke-dasharray="5,2" d="M617.581,-461.548C642.431,-458.152 676.859,-453.448 703.814,-449.765"/>
<polygon fill="black" stroke="black" points="704.309,-453.23 713.743,-448.408 703.361,-446.294 704.309,-453.23"/>
</g>
<!-- proc~to_uni -->
<g id="node34" class="node"><title>proc~to_uni</title>
<a xlink:href="../proc/to_uni.html" xlink:title="to_uni">
<polygon fill="#d94e8f" stroke="#d94e8f" points="773,-501 719,-501 719,-475 773,-475 773,-501"/>
<text text-anchor="middle" x="746" y="-485.55" font-family="Helvetica,sans-Serif" font-size="10.50" fill="white">to_uni</text>
</a>
</g>
<!-- interface~to_unicode&#45;&gt;proc~to_uni -->
<g id="edge12" class="edge"><title>interface~to_unicode&#45;&gt;proc~to_uni</title>
<path fill="none" stroke="black" stroke-dasharray="5,2" d="M617.581,-470.452C643.979,-474.059 681.186,-479.143 708.76,-482.911"/>
<polygon fill="black" stroke="black" points="708.432,-486.399 718.814,-484.285 709.38,-479.463 708.432,-486.399"/>
</g>
<!-- proc~to_array&#45;&gt;proc~destroy_json_data -->
<g id="edge26" class="edge"><title>proc~to_array&#45;&gt;proc~destroy_json_data</title>
<path fill="none" stroke="black" d="M773.195,-636C787.06,-636 804.518,-636 821.366,-636"/>
<polygon fill="black" stroke="black" points="821.739,-639.5 831.739,-636 821.739,-632.5 821.739,-639.5"/>
</g>
<!-- proc~to_integer&#45;&gt;proc~destroy_json_data -->
<g id="edge34" class="edge"><title>proc~to_integer&#45;&gt;proc~destroy_json_data</title>
<path fill="none" stroke="black" d="M776.521,-678.657C795.316,-671.056 819.666,-661.208 840.235,-652.89"/>
<polygon fill="black" stroke="black" points="841.727,-656.062 849.685,-649.069 839.102,-649.573 841.727,-656.062"/>
</g>
<!-- proc~to_double&#45;&gt;proc~destroy_json_data -->
<g id="edge62" class="edge"><title>proc~to_double&#45;&gt;proc~destroy_json_data</title>
<path fill="none" stroke="black" d="M772.002,-402.012C780.534,-407.282 789.487,-414.025 796,-422 844.342,-481.201 868.407,-571.096 877.521,-612.997"/>
<polygon fill="black" stroke="black" points="874.097,-613.724 879.568,-622.797 880.95,-612.293 874.097,-613.724"/>
</g>
</g>
</svg>
