<?xml version="1.0" encoding="UTF-8" standalone="no"?>
<!DOCTYPE svg PUBLIC "-//W3C//DTD SVG 1.1//EN"
 "http://www.w3.org/Graphics/SVG/1.1/DTD/svg11.dtd">
<!-- Generated by graphviz version 2.26.3 (20100126.1600)
 -->
<!-- Title: proc~~wrap_json_file_variable_info~~CallsGraph Pages: 1 -->
<svg width="510pt" height="122pt"
 viewBox="0.00 0.00 510.00 122.00" xmlns="http://www.w3.org/2000/svg" xmlns:xlink="http://www.w3.org/1999/xlink">
<g id="graph1" class="graph" transform="scale(1 1) rotate(0) translate(4 118)">
<title>proc~~wrap_json_file_variable_info~~CallsGraph</title>
<polygon fill="white" stroke="white" points="-4,5 -4,-118 507,-118 507,5 -4,5"/>
<!-- proc~wrap_json_file_variable_info -->
<g id="node1" class="node"><title>proc~wrap_json_file_variable_info</title>
<polygon fill="none" stroke="black" points="148,-48 7.10543e-14,-48 0,-22 148,-22 148,-48"/>
<text text-anchor="middle" x="74" y="-32.55" font-family="Helvetica,sans-Serif" font-size="10.50">wrap_json_file_variable_info</text>
</g>
<!-- interface~to_unicode -->
<g id="node2" class="node"><title>interface~to_unicode</title>
<a xlink:href="../interface/to_unicode.html" xlink:title="to_unicode">
<polygon fill="#a7506f" stroke="#a7506f" points="275,-70 211,-70 211,-44 275,-44 275,-70"/>
<text text-anchor="middle" x="243" y="-54.55" font-family="Helvetica,sans-Serif" font-size="10.50" fill="white">to_unicode</text>
</a>
</g>
<!-- proc~wrap_json_file_variable_info&#45;&gt;interface~to_unicode -->
<g id="edge10" class="edge"><title>proc~wrap_json_file_variable_info&#45;&gt;interface~to_unicode</title>
<path fill="none" stroke="black" d="M148.126,-44.6495C166.023,-46.9793 184.55,-49.3911 200.431,-51.4584"/>
<polygon fill="black" stroke="black" points="200.083,-54.9426 210.451,-52.7629 200.987,-48.0012 200.083,-54.9426"/>
</g>
<!-- proc~json_file_variable_info -->
<g id="node3" class="node"><title>proc~json_file_variable_info</title>
<a xlink:href="../proc/json_file_variable_info.html" xlink:title="json_file_variable_info">
<polygon fill="#d9534f" stroke="#d9534f" points="302,-26 184,-26 184,-1.24345e-14 302,-3.55271e-15 302,-26"/>
<text text-anchor="middle" x="243" y="-10.55" font-family="Helvetica,sans-Serif" font-size="10.50" fill="white">json_file_variable_info</text>
</a>
</g>
<!-- proc~wrap_json_file_variable_info&#45;&gt;proc~json_file_variable_info -->
<g id="edge12" class="edge"><title>proc~wrap_json_file_variable_info&#45;&gt;proc~json_file_variable_info</title>
<path fill="none" stroke="black" d="M148.126,-25.3505C156.638,-24.2424 165.292,-23.1158 173.737,-22.0165"/>
<polygon fill="black" stroke="black" points="174.445,-25.4539 183.91,-20.6922 173.541,-18.5125 174.445,-25.4539"/>
</g>
<!-- proc~to_uni_vec -->
<g id="node4" class="node"><title>proc~to_uni_vec</title>
<a xlink:href="../proc/to_uni_vec.html" xlink:title="to_uni_vec">
<polygon fill="#d94e8f" stroke="#d94e8f" points="402,-114 338,-114 338,-88 402,-88 402,-114"/>
<text text-anchor="middle" x="370" y="-98.55" font-family="Helvetica,sans-Serif" font-size="10.50" fill="white">to_uni_vec</text>
</a>
</g>
<!-- interface~to_unicode&#45;&gt;proc~to_uni_vec -->
<g id="edge2" class="edge"><title>interface~to_unicode&#45;&gt;proc~to_uni_vec</title>
<path fill="none" stroke="black" stroke-dasharray="5,2" d="M275.706,-68.3311C291.679,-73.8652 311.083,-80.5878 328.126,-86.4926"/>
<polygon fill="black" stroke="black" points="327.25,-89.893 337.845,-89.8596 329.542,-83.2788 327.25,-89.893"/>
</g>
<!-- proc~to_uni -->
<g id="node5" class="node"><title>proc~to_uni</title>
<a xlink:href="../proc/to_uni.html" xlink:title="to_uni">
<polygon fill="#d94e8f" stroke="#d94e8f" points="397,-70 343,-70 343,-44 397,-44 397,-70"/>
<text text-anchor="middle" x="370" y="-54.55" font-family="Helvetica,sans-Serif" font-size="10.50" fill="white">to_uni</text>
</a>
</g>
<!-- interface~to_unicode&#45;&gt;proc~to_uni -->
<g id="edge4" class="edge"><title>interface~to_unicode&#45;&gt;proc~to_uni</title>
<path fill="none" stroke="black" stroke-dasharray="5,2" d="M275.706,-57C293.154,-57 314.695,-57 332.781,-57"/>
<polygon fill="black" stroke="black" points="332.974,-60.5001 342.974,-57 332.974,-53.5001 332.974,-60.5001"/>
</g>
<!-- proc~json_info -->
<g id="node8" class="node"><title>proc~json_info</title>
<a xlink:href="../proc/json_info.html" xlink:title="json_info">
<polygon fill="#d9534f" stroke="#d9534f" points="397,-26 343,-26 343,-1.24345e-14 397,-3.55271e-15 397,-26"/>
<text text-anchor="middle" x="370" y="-10.55" font-family="Helvetica,sans-Serif" font-size="10.50" fill="white">json_info</text>
</a>
</g>
<!-- proc~json_file_variable_info&#45;&gt;proc~json_info -->
<g id="edge8" class="edge"><title>proc~json_file_variable_info&#45;&gt;proc~json_info</title>
<path fill="none" stroke="black" d="M302.038,-13C312.298,-13 322.714,-13 332.208,-13"/>
<polygon fill="black" stroke="black" points="332.477,-16.5001 342.477,-13 332.477,-9.5001 332.477,-16.5001"/>
</g>
<!-- proc~json_count -->
<g id="node9" class="node"><title>proc~json_count</title>
<a xlink:href="../proc/json_count.html" xlink:title="json_count">
<polygon fill="#d94e8f" stroke="#d94e8f" points="502,-26 438,-26 438,-1.24345e-14 502,-3.55271e-15 502,-26"/>
<text text-anchor="middle" x="470" y="-10.55" font-family="Helvetica,sans-Serif" font-size="10.50" fill="white">json_count</text>
</a>
</g>
<!-- proc~json_info&#45;&gt;proc~json_count -->
<g id="edge6" class="edge"><title>proc~json_info&#45;&gt;proc~json_count</title>
<path fill="none" stroke="black" d="M397.59,-13C406.956,-13 417.644,-13 427.88,-13"/>
<polygon fill="black" stroke="black" points="427.899,-16.5001 437.899,-13 427.899,-9.5001 427.899,-16.5001"/>
</g>
</g>
</svg>
