<?xml version="1.0" encoding="UTF-8" standalone="no"?>
<!DOCTYPE svg PUBLIC "-//W3C//DTD SVG 1.1//EN"
 "http://www.w3.org/Graphics/SVG/1.1/DTD/svg11.dtd">
<!-- Generated by graphviz version 2.26.3 (20100126.1600)
 -->
<!-- Title: proc~~json_get_integer_with_path~~CallsGraph Pages: 1 -->
<svg width="641pt" height="118pt"
 viewBox="0.00 0.00 641.00 118.35" xmlns="http://www.w3.org/2000/svg" xmlns:xlink="http://www.w3.org/1999/xlink">
<g id="graph1" class="graph" transform="scale(0.445758 0.445758) rotate(0) translate(4 261.493)">
<title>proc~~json_get_integer_with_path~~CallsGraph</title>
<polygon fill="white" stroke="white" points="-4,5 -4,-261.493 1435,-261.493 1435,5 -4,5"/>
<!-- proc~json_get_integer_with_path -->
<g id="node1" class="node"><title>proc~json_get_integer_with_path</title>
<polygon fill="none" stroke="black" points="144,-100.493 5.68434e-14,-100.493 0,-74.4927 144,-74.4927 144,-100.493"/>
<text text-anchor="middle" x="72" y="-85.0427" font-family="Helvetica,sans-Serif" font-size="10.50">json_get_integer_with_path</text>
</g>
<!-- proc~json_get_by_path -->
<g id="node2" class="node"><title>proc~json_get_by_path</title>
<a xlink:href="../proc/json_get_by_path.html" xlink:title="json_get_by_path">
<polygon fill="#d9534f" stroke="#d9534f" points="277,-139.493 181,-139.493 181,-113.493 277,-113.493 277,-139.493"/>
<text text-anchor="middle" x="229" y="-124.043" font-family="Helvetica,sans-Serif" font-size="10.50" fill="white">json_get_by_path</text>
</a>
</g>
<!-- proc~json_get_integer_with_path&#45;&gt;proc~json_get_by_path -->
<g id="edge42" class="edge"><title>proc~json_get_integer_with_path&#45;&gt;proc~json_get_by_path</title>
<path fill="none" stroke="black" d="M124.715,-100.588C139.477,-104.254 155.606,-108.261 170.672,-112.004"/>
<polygon fill="black" stroke="black" points="169.846,-115.405 180.394,-114.419 171.533,-108.611 169.846,-115.405"/>
</g>
<!-- proc~json_get_integer -->
<g id="node3" class="node"><title>proc~json_get_integer</title>
<a xlink:href="../proc/json_get_integer.html" xlink:title="json_get_integer">
<polygon fill="#d9534f" stroke="#d9534f" points="612,-54.4927 520,-54.4927 520,-28.4927 612,-28.4927 612,-54.4927"/>
<text text-anchor="middle" x="566" y="-39.0427" font-family="Helvetica,sans-Serif" font-size="10.50" fill="white">json_get_integer</text>
</a>
</g>
<!-- proc~json_get_integer_with_path&#45;&gt;proc~json_get_integer -->
<g id="edge44" class="edge"><title>proc~json_get_integer_with_path&#45;&gt;proc~json_get_integer</title>
<path fill="none" stroke="black" d="M144.096,-80.7793C243.243,-71.547 419.609,-55.1242 509.677,-46.7374"/>
<polygon fill="black" stroke="black" points="510.064,-50.2166 519.696,-45.8044 509.415,-43.2467 510.064,-50.2166"/>
</g>
<!-- proc~json_clear_exceptions -->
<g id="node4" class="node"><title>proc~json_clear_exceptions</title>
<a xlink:href="../proc/json_clear_exceptions.html" xlink:title="json_clear_exceptions">
<polygon fill="#d9534f" stroke="#d9534f" points="432,-224.493 314,-224.493 314,-198.493 432,-198.493 432,-224.493"/>
<text text-anchor="middle" x="373" y="-209.043" font-family="Helvetica,sans-Serif" font-size="10.50" fill="white">json_clear_exceptions</text>
</a>
</g>
<!-- proc~json_get_integer_with_path&#45;&gt;proc~json_clear_exceptions -->
<g id="edge46" class="edge"><title>proc~json_get_integer_with_path&#45;&gt;proc~json_clear_exceptions</title>
<path fill="none" stroke="black" d="M92.4715,-100.686C113.734,-113.995 148.271,-134.519 180,-148.493 223.677,-167.727 275.142,-184.239 313.939,-195.528"/>
<polygon fill="black" stroke="black" points="313.444,-199.027 324.021,-198.427 315.378,-192.3 313.444,-199.027"/>
</g>
<!-- interface~throw_exception -->
<g id="node5" class="node"><title>interface~throw_exception</title>
<a xlink:href="../interface/throw_exception.html" xlink:title="throw_exception">
<polygon fill="#a7506f" stroke="#a7506f" points="995,-137.493 905,-137.493 905,-111.493 995,-111.493 995,-137.493"/>
<text text-anchor="middle" x="950" y="-122.043" font-family="Helvetica,sans-Serif" font-size="10.50" fill="white">throw_exception</text>
</a>
</g>
<!-- proc~json_get_integer_with_path&#45;&gt;interface~throw_exception -->
<g id="edge48" class="edge"><title>proc~json_get_integer_with_path&#45;&gt;interface~throw_exception</title>
<path fill="none" stroke="black" d="M98.2415,-74.4679C149.637,-50.1978 267.744,-0.492707 373,-0.492707 373,-0.492707 373,-0.492707 566,-0.492707 702.123,-0.492707 745.272,7.39061 868,-51.4927 893.696,-63.8215 917.351,-86.6538 932.581,-103.513"/>
<polygon fill="black" stroke="black" points="930.129,-106.025 939.354,-111.237 935.393,-101.411 930.129,-106.025"/>
</g>
<!-- proc~json_get_by_path&#45;&gt;proc~json_clear_exceptions -->
<g id="edge28" class="edge"><title>proc~json_get_by_path&#45;&gt;proc~json_clear_exceptions</title>
<path fill="none" stroke="black" d="M244.085,-139.739C260.422,-153.573 287.687,-175.208 314,-189.493 317.215,-191.238 320.599,-192.904 324.051,-194.48"/>
<polygon fill="black" stroke="black" points="322.711,-197.713 333.281,-198.437 325.47,-191.28 322.711,-197.713"/>
</g>
<!-- proc~json_get_by_path&#45;&gt;interface~throw_exception -->
<g id="edge24" class="edge"><title>proc~json_get_by_path&#45;&gt;interface~throw_exception</title>
<path fill="none" stroke="black" d="M277.708,-126.358C406.736,-126 756.838,-125.029 893.902,-124.648"/>
<polygon fill="black" stroke="black" points="894.183,-128.148 904.173,-124.62 894.163,-121.148 894.183,-128.148"/>
</g>
<!-- interface~json_get_child -->
<g id="node6" class="node"><title>interface~json_get_child</title>
<a xlink:href="../interface/json_get_child.html" xlink:title="json_get_child">
<polygon fill="#a7506f" stroke="#a7506f" points="413,-180.493 333,-180.493 333,-154.493 413,-154.493 413,-180.493"/>
<text text-anchor="middle" x="373" y="-165.043" font-family="Helvetica,sans-Serif" font-size="10.50" fill="white">json_get_child</text>
</a>
</g>
<!-- proc~json_get_by_path&#45;&gt;interface~json_get_child -->
<g id="edge26" class="edge"><title>proc~json_get_by_path&#45;&gt;interface~json_get_child</title>
<path fill="none" stroke="black" d="M274.958,-139.578C290.083,-143.884 306.979,-148.695 322.427,-153.094"/>
<polygon fill="black" stroke="black" points="321.761,-156.543 332.337,-155.915 323.677,-149.81 321.761,-156.543"/>
</g>
<!-- proc~string_to_integer -->
<g id="node7" class="node"><title>proc~string_to_integer</title>
<a xlink:href="../proc/string_to_integer.html" xlink:title="string_to_integer">
<polygon fill="#d94e8f" stroke="#d94e8f" points="612,-98.4927 520,-98.4927 520,-72.4927 612,-72.4927 612,-98.4927"/>
<text text-anchor="middle" x="566" y="-83.0427" font-family="Helvetica,sans-Serif" font-size="10.50" fill="white">string_to_integer</text>
</a>
</g>
<!-- proc~json_get_by_path&#45;&gt;proc~string_to_integer -->
<g id="edge30" class="edge"><title>proc~json_get_by_path&#45;&gt;proc~string_to_integer</title>
<path fill="none" stroke="black" d="M277.922,-117.95C289.716,-116.025 302.292,-114.083 314,-112.493 380.896,-103.407 458.124,-95.5139 509.271,-90.6471"/>
<polygon fill="black" stroke="black" points="509.832,-94.1098 519.459,-89.6849 509.174,-87.1408 509.832,-94.1098"/>
</g>
<!-- proc~json_get_integer&#45;&gt;interface~throw_exception -->
<g id="edge32" class="edge"><title>proc~json_get_integer&#45;&gt;interface~throw_exception</title>
<path fill="none" stroke="black" d="M612.043,-45.265C671.929,-50.9717 779.364,-63.9551 868,-89.4927 883.71,-94.0191 900.416,-100.769 914.621,-107.136"/>
<polygon fill="black" stroke="black" points="913.465,-110.457 924.013,-111.452 916.388,-104.096 913.465,-110.457"/>
</g>
<!-- proc~json_throw_exception -->
<g id="node31" class="node"><title>proc~json_throw_exception</title>
<a xlink:href="../proc/json_throw_exception.html" xlink:title="json_throw_exception">
<polygon fill="#d9534f" stroke="#d9534f" points="1330,-157.493 1214,-157.493 1214,-131.493 1330,-131.493 1330,-157.493"/>
<text text-anchor="middle" x="1272" y="-142.043" font-family="Helvetica,sans-Serif" font-size="10.50" fill="white">json_throw_exception</text>
</a>
</g>
<!-- interface~throw_exception&#45;&gt;proc~json_throw_exception -->
<g id="edge38" class="edge"><title>interface~throw_exception&#45;&gt;proc~json_throw_exception</title>
<path fill="none" stroke="black" stroke-dasharray="5,2" d="M995.793,-127.337C1050.07,-130.708 1141.03,-136.358 1203.65,-140.247"/>
<polygon fill="black" stroke="black" points="1203.63,-143.753 1213.83,-140.88 1204.07,-136.766 1203.63,-143.753"/>
</g>
<!-- proc~wrap_json_throw_exception -->
<g id="node32" class="node"><title>proc~wrap_json_throw_exception</title>
<a xlink:href="../proc/wrap_json_throw_exception.html" xlink:title="wrap_json_throw_exception">
<polygon fill="#d9534f" stroke="#d9534f" points="1177,-178.493 1033,-178.493 1033,-152.493 1177,-152.493 1177,-178.493"/>
<text text-anchor="middle" x="1105" y="-163.043" font-family="Helvetica,sans-Serif" font-size="10.50" fill="white">wrap_json_throw_exception</text>
</a>
</g>
<!-- interface~throw_exception&#45;&gt;proc~wrap_json_throw_exception -->
<g id="edge40" class="edge"><title>interface~throw_exception&#45;&gt;proc~wrap_json_throw_exception</title>
<path fill="none" stroke="black" stroke-dasharray="5,2" d="M995.667,-136.572C1011.27,-140.7 1028.96,-145.378 1045.49,-149.751"/>
<polygon fill="black" stroke="black" points="1045.04,-153.253 1055.6,-152.427 1046.83,-146.486 1045.04,-153.253"/>
</g>
<!-- proc~json_value_get_by_index -->
<g id="node8" class="node"><title>proc~json_value_get_by_index</title>
<a xlink:href="../proc/json_value_get_by_index.html" xlink:title="json_value_get_by_index">
<polygon fill="#d9534f" stroke="#d9534f" points="850,-178.493 718,-178.493 718,-152.493 850,-152.493 850,-178.493"/>
<text text-anchor="middle" x="784" y="-163.043" font-family="Helvetica,sans-Serif" font-size="10.50" fill="white">json_value_get_by_index</text>
</a>
</g>
<!-- interface~json_get_child&#45;&gt;proc~json_value_get_by_index -->
<g id="edge16" class="edge"><title>interface~json_get_child&#45;&gt;proc~json_value_get_by_index</title>
<path fill="none" stroke="black" stroke-dasharray="5,2" d="M413.533,-167.295C481.715,-166.964 620.413,-166.289 707.41,-165.865"/>
<polygon fill="black" stroke="black" points="707.51,-169.365 717.493,-165.816 707.476,-162.365 707.51,-169.365"/>
</g>
<!-- proc~json_value_get_by_name_chars -->
<g id="node9" class="node"><title>proc~json_value_get_by_name_chars</title>
<a xlink:href="../proc/json_value_get_by_name_chars.html" xlink:title="json_value_get_by_name_chars">
<polygon fill="#d9534f" stroke="#d9534f" points="867,-222.493 701,-222.493 701,-196.493 867,-196.493 867,-222.493"/>
<text text-anchor="middle" x="784" y="-207.043" font-family="Helvetica,sans-Serif" font-size="10.50" fill="white">json_value_get_by_name_chars</text>
</a>
</g>
<!-- interface~json_get_child&#45;&gt;proc~json_value_get_by_name_chars -->
<g id="edge18" class="edge"><title>interface~json_get_child&#45;&gt;proc~json_value_get_by_name_chars</title>
<path fill="none" stroke="black" stroke-dasharray="5,2" d="M413.632,-173.458C430.439,-175.819 450.138,-178.452 468,-180.493 542.533,-189.008 627.182,-196.67 690.098,-201.976"/>
<polygon fill="black" stroke="black" points="690.14,-205.492 700.398,-202.84 690.725,-198.517 690.14,-205.492"/>
</g>
<!-- proc~wrap_json_value_get_by_name_chars -->
<g id="node10" class="node"><title>proc~wrap_json_value_get_by_name_chars</title>
<a xlink:href="../proc/wrap_json_value_get_by_name_chars.html" xlink:title="wrap_json_value_get_by_name_chars">
<polygon fill="#d9534f" stroke="#d9534f" points="664,-257.493 468,-257.493 468,-231.493 664,-231.493 664,-257.493"/>
<text text-anchor="middle" x="566" y="-242.043" font-family="Helvetica,sans-Serif" font-size="10.50" fill="white">wrap_json_value_get_by_name_chars</text>
</a>
</g>
<!-- interface~json_get_child&#45;&gt;proc~wrap_json_value_get_by_name_chars -->
<g id="edge20" class="edge"><title>interface~json_get_child&#45;&gt;proc~wrap_json_value_get_by_name_chars</title>
<path fill="none" stroke="black" stroke-dasharray="5,2" d="M413.097,-180.556C419.569,-183.197 426.081,-186.19 432,-189.493 449.7,-199.37 449.882,-208.404 468,-217.493 476.371,-221.692 485.482,-225.31 494.668,-228.408"/>
<polygon fill="black" stroke="black" points="493.648,-231.757 504.239,-231.451 495.769,-225.085 493.648,-231.757"/>
</g>
<!-- proc~string_to_integer&#45;&gt;interface~throw_exception -->
<g id="edge22" class="edge"><title>proc~string_to_integer&#45;&gt;interface~throw_exception</title>
<path fill="none" stroke="black" d="M612.693,-88.1012C672.145,-91.7109 777.966,-99.1019 868,-110.493 876.445,-111.561 885.347,-112.88 894.049,-114.276"/>
<polygon fill="black" stroke="black" points="893.696,-117.765 904.133,-115.942 894.837,-110.859 893.696,-117.765"/>
</g>
<!-- proc~json_value_get_by_index&#45;&gt;interface~throw_exception -->
<g id="edge2" class="edge"><title>proc~json_value_get_by_index&#45;&gt;interface~throw_exception</title>
<path fill="none" stroke="black" d="M836.98,-152.407C855.398,-147.858 876.096,-142.746 894.697,-138.152"/>
<polygon fill="black" stroke="black" points="895.629,-141.527 904.498,-135.731 893.951,-134.731 895.629,-141.527"/>
</g>
<!-- proc~json_value_get_by_name_chars&#45;&gt;interface~throw_exception -->
<g id="edge4" class="edge"><title>proc~json_value_get_by_name_chars&#45;&gt;interface~throw_exception</title>
<path fill="none" stroke="black" d="M845.6,-196.418C853.315,-193.898 860.961,-190.942 868,-187.493 890.789,-176.326 913.413,-158.282 929.106,-144.361"/>
<polygon fill="black" stroke="black" points="931.594,-146.829 936.644,-137.515 926.888,-141.647 931.594,-146.829"/>
</g>
<!-- proc~json_count -->
<g id="node12" class="node"><title>proc~json_count</title>
<a xlink:href="../proc/json_count.html" xlink:title="json_count">
<polygon fill="#d94e8f" stroke="#d94e8f" points="982,-222.493 918,-222.493 918,-196.493 982,-196.493 982,-222.493"/>
<text text-anchor="middle" x="950" y="-207.043" font-family="Helvetica,sans-Serif" font-size="10.50" fill="white">json_count</text>
</a>
</g>
<!-- proc~json_value_get_by_name_chars&#45;&gt;proc~json_count -->
<g id="edge6" class="edge"><title>proc~json_value_get_by_name_chars&#45;&gt;proc~json_count</title>
<path fill="none" stroke="black" d="M867.973,-209.493C881.656,-209.493 895.304,-209.493 907.429,-209.493"/>
<polygon fill="black" stroke="black" points="907.655,-212.993 917.655,-209.493 907.655,-205.993 907.655,-212.993"/>
</g>
<!-- proc~wrap_json_value_get_by_name_chars&#45;&gt;proc~json_value_get_by_name_chars -->
<g id="edge14" class="edge"><title>proc~wrap_json_value_get_by_name_chars&#45;&gt;proc~json_value_get_by_name_chars</title>
<path fill="none" stroke="black" d="M647.175,-231.46C662.071,-229.069 677.709,-226.558 692.873,-224.123"/>
<polygon fill="black" stroke="black" points="693.438,-227.577 702.757,-222.536 692.329,-220.666 693.438,-227.577"/>
</g>
<!-- interface~to_unicode -->
<g id="node15" class="node"><title>interface~to_unicode</title>
<a xlink:href="../interface/to_unicode.html" xlink:title="to_unicode">
<polygon fill="#a7506f" stroke="#a7506f" points="1304,-232.493 1240,-232.493 1240,-206.493 1304,-206.493 1304,-232.493"/>
<text text-anchor="middle" x="1272" y="-217.043" font-family="Helvetica,sans-Serif" font-size="10.50" fill="white">to_unicode</text>
</a>
</g>
<!-- proc~wrap_json_value_get_by_name_chars&#45;&gt;interface~to_unicode -->
<g id="edge12" class="edge"><title>proc~wrap_json_value_get_by_name_chars&#45;&gt;interface~to_unicode</title>
<path fill="none" stroke="black" d="M664.212,-241.893C751.375,-239.498 882.18,-235.687 996,-231.493 1078.45,-228.454 1174.73,-224.08 1229.01,-221.538"/>
<polygon fill="black" stroke="black" points="1229.47,-225.021 1239.29,-221.055 1229.14,-218.028 1229.47,-225.021"/>
</g>
<!-- proc~to_uni_vec -->
<g id="node16" class="node"><title>proc~to_uni_vec</title>
<a xlink:href="../proc/to_uni_vec.html" xlink:title="to_uni_vec">
<polygon fill="#d94e8f" stroke="#d94e8f" points="1430,-254.493 1366,-254.493 1366,-228.493 1430,-228.493 1430,-254.493"/>
<text text-anchor="middle" x="1398" y="-239.043" font-family="Helvetica,sans-Serif" font-size="10.50" fill="white">to_uni_vec</text>
</a>
</g>
<!-- interface~to_unicode&#45;&gt;proc~to_uni_vec -->
<g id="edge8" class="edge"><title>interface~to_unicode&#45;&gt;proc~to_uni_vec</title>
<path fill="none" stroke="black" stroke-dasharray="5,2" d="M1304.78,-225.216C1320.36,-227.936 1339.17,-231.22 1355.8,-234.124"/>
<polygon fill="black" stroke="black" points="1355.37,-237.602 1365.82,-235.875 1356.58,-230.707 1355.37,-237.602"/>
</g>
<!-- proc~to_uni -->
<g id="node17" class="node"><title>proc~to_uni</title>
<a xlink:href="../proc/to_uni.html" xlink:title="to_uni">
<polygon fill="#d94e8f" stroke="#d94e8f" points="1425,-210.493 1371,-210.493 1371,-184.493 1425,-184.493 1425,-210.493"/>
<text text-anchor="middle" x="1398" y="-195.043" font-family="Helvetica,sans-Serif" font-size="10.50" fill="white">to_uni</text>
</a>
</g>
<!-- interface~to_unicode&#45;&gt;proc~to_uni -->
<g id="edge10" class="edge"><title>interface~to_unicode&#45;&gt;proc~to_uni</title>
<path fill="none" stroke="black" stroke-dasharray="5,2" d="M1304.78,-213.77C1321.97,-210.769 1343.09,-207.081 1360.88,-203.974"/>
<polygon fill="black" stroke="black" points="1361.66,-207.39 1370.91,-202.222 1360.46,-200.494 1361.66,-207.39"/>
</g>
<!-- proc~wrap_json_throw_exception&#45;&gt;interface~to_unicode -->
<g id="edge36" class="edge"><title>proc~wrap_json_throw_exception&#45;&gt;interface~to_unicode</title>
<path fill="none" stroke="black" d="M1145.43,-178.565C1171.02,-186.84 1204.05,-197.52 1229.95,-205.895"/>
<polygon fill="black" stroke="black" points="1228.9,-209.235 1239.49,-208.982 1231.06,-202.575 1228.9,-209.235"/>
</g>
<!-- proc~wrap_json_throw_exception&#45;&gt;proc~json_throw_exception -->
<g id="edge34" class="edge"><title>proc~wrap_json_throw_exception&#45;&gt;proc~json_throw_exception</title>
<path fill="none" stroke="black" d="M1177.76,-156.343C1186.42,-155.255 1195.23,-154.146 1203.82,-153.067"/>
<polygon fill="black" stroke="black" points="1204.29,-156.535 1213.77,-151.815 1203.41,-149.59 1204.29,-156.535"/>
</g>
</g>
</svg>
