<?xml version="1.0" encoding="UTF-8" standalone="no"?>
<!DOCTYPE svg PUBLIC "-//W3C//DTD SVG 1.1//EN"
 "http://www.w3.org/Graphics/SVG/1.1/DTD/svg11.dtd">
<!-- Generated by graphviz version 2.26.3 (20100126.1600)
 -->
<!-- Title: proc~~wrap_json_value_add_logical~~CallsGraph Pages: 1 -->
<svg width="641pt" height="571pt"
 viewBox="0.00 0.00 641.00 571.10" xmlns="http://www.w3.org/2000/svg" xmlns:xlink="http://www.w3.org/1999/xlink">
<g id="graph1" class="graph" transform="scale(0.576439 0.576439) rotate(0) translate(4 986.737)">
<title>proc~~wrap_json_value_add_logical~~CallsGraph</title>
<polygon fill="white" stroke="white" points="-4,5 -4,-986.737 1109,-986.737 1109,5 -4,5"/>
<!-- proc~wrap_json_value_add_logical -->
<g id="node1" class="node"><title>proc~wrap_json_value_add_logical</title>
<polygon fill="none" stroke="black" points="153,-548.91 1,-548.91 1,-522.91 153,-522.91 153,-548.91"/>
<text text-anchor="middle" x="77" y="-533.46" font-family="Helvetica,sans-Serif" font-size="10.50">wrap_json_value_add_logical</text>
</g>
<!-- proc~json_value_add_logical -->
<g id="node2" class="node"><title>proc~json_value_add_logical</title>
<a xlink:href="../proc/json_value_add_logical.html" xlink:title="json_value_add_logical">
<polygon fill="#d9534f" stroke="#d9534f" points="314,-589.91 190,-589.91 190,-563.91 314,-563.91 314,-589.91"/>
<text text-anchor="middle" x="252" y="-574.46" font-family="Helvetica,sans-Serif" font-size="10.50" fill="white">json_value_add_logical</text>
</a>
</g>
<!-- proc~wrap_json_value_add_logical&#45;&gt;proc~json_value_add_logical -->
<g id="edge152" class="edge"><title>proc~wrap_json_value_add_logical&#45;&gt;proc~json_value_add_logical</title>
<path fill="none" stroke="black" d="M132.852,-548.995C149.827,-552.972 168.638,-557.379 186.203,-561.495"/>
<polygon fill="black" stroke="black" points="185.843,-565.005 196.378,-563.879 187.44,-558.19 185.843,-565.005"/>
</g>
<!-- interface~to_unicode -->
<g id="node3" class="node"><title>interface~to_unicode</title>
<a xlink:href="../interface/to_unicode.html" xlink:title="to_unicode">
<polygon fill="#a7506f" stroke="#a7506f" points="789,-361.91 725,-361.91 725,-335.91 789,-335.91 789,-361.91"/>
<text text-anchor="middle" x="757" y="-346.46" font-family="Helvetica,sans-Serif" font-size="10.50" fill="white">to_unicode</text>
</a>
</g>
<!-- proc~wrap_json_value_add_logical&#45;&gt;interface~to_unicode -->
<g id="edge154" class="edge"><title>proc~wrap_json_value_add_logical&#45;&gt;interface~to_unicode</title>
<path fill="none" stroke="black" d="M91.6653,-522.889C138.658,-482.15 291.362,-357.32 444,-314.91 530.501,-290.876 557.212,-301.617 646,-314.91 669.125,-318.372 694.087,-325.679 714.472,-332.635"/>
<polygon fill="black" stroke="black" points="713.488,-335.999 724.083,-336.003 715.803,-329.393 713.488,-335.999"/>
</g>
<!-- proc~json_value_create -->
<g id="node4" class="node"><title>proc~json_value_create</title>
<a xlink:href="../proc/json_value_create.html" xlink:title="json_value_create">
<polygon fill="#d9534f" stroke="#d9534f" points="968,-763.91 868,-763.91 868,-737.91 968,-737.91 968,-763.91"/>
<text text-anchor="middle" x="918" y="-748.46" font-family="Helvetica,sans-Serif" font-size="10.50" fill="white">json_value_create</text>
</a>
</g>
<!-- proc~json_value_add_logical&#45;&gt;proc~json_value_create -->
<g id="edge142" class="edge"><title>proc~json_value_add_logical&#45;&gt;proc~json_value_create</title>
<path fill="none" stroke="black" d="M253.866,-589.913C262.604,-645.174 305.081,-860.9 444,-930.91 598.81,-1008.93 697.441,-1000.21 832,-890.91 862.578,-866.071 847.053,-843.275 868,-809.91 876.533,-796.318 887.999,-782.556 897.797,-771.746"/>
<polygon fill="black" stroke="black" points="900.651,-773.816 904.89,-764.106 895.521,-769.054 900.651,-773.816"/>
</g>
<!-- proc~to_logical -->
<g id="node5" class="node"><title>proc~to_logical</title>
<a xlink:href="../proc/to_logical.html" xlink:title="to_logical">
<polygon fill="#d9534f" stroke="#d9534f" points="408,-794.91 350,-794.91 350,-768.91 408,-768.91 408,-794.91"/>
<text text-anchor="middle" x="379" y="-779.46" font-family="Helvetica,sans-Serif" font-size="10.50" fill="white">to_logical</text>
</a>
</g>
<!-- proc~json_value_add_logical&#45;&gt;proc~to_logical -->
<g id="edge144" class="edge"><title>proc~json_value_add_logical&#45;&gt;proc~to_logical</title>
<path fill="none" stroke="black" d="M260.138,-590.046C281.464,-624.469 339.142,-717.572 365.513,-760.14"/>
<polygon fill="black" stroke="black" points="362.688,-762.226 370.93,-768.884 368.639,-758.54 362.688,-762.226"/>
</g>
<!-- interface~json_add -->
<g id="node6" class="node"><title>interface~json_add</title>
<a xlink:href="../interface/json_add.html" xlink:title="json_add">
<polygon fill="#a7506f" stroke="#a7506f" points="407,-569.91 351,-569.91 351,-543.91 407,-543.91 407,-569.91"/>
<text text-anchor="middle" x="379" y="-554.46" font-family="Helvetica,sans-Serif" font-size="10.50" fill="white">json_add</text>
</a>
</g>
<!-- proc~json_value_add_logical&#45;&gt;interface~json_add -->
<g id="edge146" class="edge"><title>proc~json_value_add_logical&#45;&gt;interface~json_add</title>
<path fill="none" stroke="black" d="M294.289,-563.847C309.27,-560.981 326.029,-558.391 340.663,-556.692"/>
<polygon fill="black" stroke="black" points="341.305,-560.144 350.886,-555.622 340.576,-553.182 341.305,-560.144"/>
</g>
<!-- proc~to_uni_vec -->
<g id="node105" class="node"><title>proc~to_uni_vec</title>
<a xlink:href="../proc/to_uni_vec.html" xlink:title="to_uni_vec">
<polygon fill="#d94e8f" stroke="#d94e8f" points="950,-374.91 886,-374.91 886,-348.91 950,-348.91 950,-374.91"/>
<text text-anchor="middle" x="918" y="-359.46" font-family="Helvetica,sans-Serif" font-size="10.50" fill="white">to_uni_vec</text>
</a>
</g>
<!-- interface~to_unicode&#45;&gt;proc~to_uni_vec -->
<g id="edge148" class="edge"><title>interface~to_unicode&#45;&gt;proc~to_uni_vec</title>
<path fill="none" stroke="black" stroke-dasharray="5,2" d="M789.581,-351.541C814.321,-353.538 848.556,-356.303 875.457,-358.475"/>
<polygon fill="black" stroke="black" points="875.494,-361.989 885.743,-359.305 876.057,-355.012 875.494,-361.989"/>
</g>
<!-- proc~to_uni -->
<g id="node106" class="node"><title>proc~to_uni</title>
<a xlink:href="../proc/to_uni.html" xlink:title="to_uni">
<polygon fill="#d94e8f" stroke="#d94e8f" points="945,-330.91 891,-330.91 891,-304.91 945,-304.91 945,-330.91"/>
<text text-anchor="middle" x="918" y="-315.46" font-family="Helvetica,sans-Serif" font-size="10.50" fill="white">to_uni</text>
</a>
</g>
<!-- interface~to_unicode&#45;&gt;proc~to_uni -->
<g id="edge150" class="edge"><title>interface~to_unicode&#45;&gt;proc~to_uni</title>
<path fill="none" stroke="black" stroke-dasharray="5,2" d="M789.581,-342.637C815.979,-337.554 853.186,-330.39 880.76,-325.08"/>
<polygon fill="black" stroke="black" points="881.656,-328.472 890.814,-323.145 880.332,-321.599 881.656,-328.472"/>
</g>
<!-- proc~destroy_json_data -->
<g id="node7" class="node"><title>proc~destroy_json_data</title>
<a xlink:href="../proc/destroy_json_data.html" xlink:title="destroy_json_data">
<polygon fill="#d9534f" stroke="#d9534f" points="1104,-719.91 1004,-719.91 1004,-693.91 1104,-693.91 1104,-719.91"/>
<text text-anchor="middle" x="1054" y="-704.46" font-family="Helvetica,sans-Serif" font-size="10.50" fill="white">destroy_json_data</text>
</a>
</g>
<!-- proc~to_logical&#45;&gt;proc~destroy_json_data -->
<g id="edge2" class="edge"><title>proc~to_logical&#45;&gt;proc~destroy_json_data</title>
<path fill="none" stroke="black" d="M380.14,-795.284C383.537,-825.704 396.541,-899.835 444,-930.91 519.109,-980.089 556.725,-940.401 646,-930.91 792.321,-915.354 851.176,-943.375 968,-853.91 1010.15,-821.629 1035.48,-762.309 1046.85,-729.764"/>
<polygon fill="black" stroke="black" points="1050.2,-730.801 1050.06,-720.207 1043.56,-728.576 1050.2,-730.801"/>
</g>
<!-- interface~json_add&#45;&gt;proc~wrap_json_value_add_logical -->
<g id="edge104" class="edge"><title>interface~json_add&#45;&gt;proc~wrap_json_value_add_logical</title>
<path fill="none" stroke="black" stroke-dasharray="5,2" d="M350.801,-554.949C308.565,-552.012 227.097,-546.347 163.962,-541.957"/>
<polygon fill="black" stroke="black" points="163.816,-538.439 153.598,-541.236 163.331,-545.422 163.816,-538.439"/>
</g>
<!-- interface~json_add&#45;&gt;proc~json_value_add_logical -->
<g id="edge102" class="edge"><title>interface~json_add&#45;&gt;proc~json_value_add_logical</title>
<path fill="none" stroke="black" stroke-dasharray="5,2" d="M350.686,-567.097C342.594,-568.897 333.387,-570.67 323.927,-572.28"/>
<polygon fill="black" stroke="black" points="323.32,-568.832 314.012,-573.893 324.444,-575.742 323.32,-568.832"/>
</g>
<!-- proc~json_value_add_member -->
<g id="node9" class="node"><title>proc~json_value_add_member</title>
<a xlink:href="../proc/json_value_add_member.html" xlink:title="json_value_add_member">
<polygon fill="#d9534f" stroke="#d9534f" points="611,-613.91 479,-613.91 479,-587.91 611,-587.91 611,-613.91"/>
<text text-anchor="middle" x="545" y="-598.46" font-family="Helvetica,sans-Serif" font-size="10.50" fill="white">json_value_add_member</text>
</a>
</g>
<!-- interface~json_add&#45;&gt;proc~json_value_add_member -->
<g id="edge100" class="edge"><title>interface~json_add&#45;&gt;proc~json_value_add_member</title>
<path fill="none" stroke="black" stroke-dasharray="5,2" d="M407.262,-567.243C418.595,-571.185 431.831,-575.537 444,-578.91 452.419,-581.244 461.287,-583.485 470.131,-585.586"/>
<polygon fill="black" stroke="black" points="469.547,-589.043 480.08,-587.894 471.13,-582.224 469.547,-589.043"/>
</g>
<!-- proc~wrap_json_value_add_integer_vec -->
<g id="node10" class="node"><title>proc~wrap_json_value_add_integer_vec</title>
<a xlink:href="../proc/wrap_json_value_add_integer_vec.html" xlink:title="wrap_json_value_add_integer_vec">
<polygon fill="#d9534f" stroke="#d9534f" points="634,-569.91 456,-569.91 456,-543.91 634,-543.91 634,-569.91"/>
<text text-anchor="middle" x="545" y="-554.46" font-family="Helvetica,sans-Serif" font-size="10.50" fill="white">wrap_json_value_add_integer_vec</text>
</a>
</g>
<!-- interface~json_add&#45;&gt;proc~wrap_json_value_add_integer_vec -->
<g id="edge106" class="edge"><title>interface~json_add&#45;&gt;proc~wrap_json_value_add_integer_vec</title>
<path fill="none" stroke="black" stroke-dasharray="5,2" d="M407.16,-556.91C418.176,-556.91 431.525,-556.91 445.526,-556.91"/>
<polygon fill="black" stroke="black" points="445.812,-560.41 455.812,-556.91 445.812,-553.41 445.812,-560.41"/>
</g>
<!-- proc~json_value_add_string_vec_val_ascii -->
<g id="node11" class="node"><title>proc~json_value_add_string_vec_val_ascii</title>
<a xlink:href="../proc/json_value_add_string_vec_val_ascii.html" xlink:title="json_value_add_string_vec_val_ascii">
<polygon fill="#d9534f" stroke="#d9534f" points="639,-437.91 451,-437.91 451,-411.91 639,-411.91 639,-437.91"/>
<text text-anchor="middle" x="545" y="-422.46" font-family="Helvetica,sans-Serif" font-size="10.50" fill="white">json_value_add_string_vec_val_ascii</text>
</a>
</g>
<!-- interface~json_add&#45;&gt;proc~json_value_add_string_vec_val_ascii -->
<g id="edge108" class="edge"><title>interface~json_add&#45;&gt;proc~json_value_add_string_vec_val_ascii</title>
<path fill="none" stroke="black" stroke-dasharray="5,2" d="M382.922,-543.668C390.582,-520.231 409.84,-471.596 444,-446.91 446.1,-445.392 448.284,-443.976 450.537,-442.654"/>
<polygon fill="black" stroke="black" points="452.249,-445.709 459.529,-438.011 449.038,-439.489 452.249,-445.709"/>
</g>
<!-- proc~json_value_add_integer_vec -->
<g id="node12" class="node"><title>proc~json_value_add_integer_vec</title>
<a xlink:href="../proc/json_value_add_integer_vec.html" xlink:title="json_value_add_integer_vec">
<polygon fill="#d9534f" stroke="#d9534f" points="831,-807.91 683,-807.91 683,-781.91 831,-781.91 831,-807.91"/>
<text text-anchor="middle" x="757" y="-792.46" font-family="Helvetica,sans-Serif" font-size="10.50" fill="white">json_value_add_integer_vec</text>
</a>
</g>
<!-- interface~json_add&#45;&gt;proc~json_value_add_integer_vec -->
<g id="edge110" class="edge"><title>interface~json_add&#45;&gt;proc~json_value_add_integer_vec</title>
<path fill="none" stroke="black" stroke-dasharray="5,2" d="M382.095,-570.042C390.391,-610.03 414.51,-726.762 444,-750.91 507.205,-802.666 603.242,-805.933 672.262,-801.469"/>
<polygon fill="black" stroke="black" points="672.516,-804.959 682.243,-800.759 672.019,-797.977 672.516,-804.959"/>
</g>
<!-- proc~json_value_add_integer -->
<g id="node13" class="node"><title>proc~json_value_add_integer</title>
<a xlink:href="../proc/json_value_add_integer.html" xlink:title="json_value_add_integer">
<polygon fill="#d9534f" stroke="#d9534f" points="820,-881.91 694,-881.91 694,-855.91 820,-855.91 820,-881.91"/>
<text text-anchor="middle" x="757" y="-866.46" font-family="Helvetica,sans-Serif" font-size="10.50" fill="white">json_value_add_integer</text>
</a>
</g>
<!-- interface~json_add&#45;&gt;proc~json_value_add_integer -->
<g id="edge112" class="edge"><title>interface~json_add&#45;&gt;proc~json_value_add_integer</title>
<path fill="none" stroke="black" stroke-dasharray="5,2" d="M381.607,-570.141C392.115,-630.157 431.407,-871.531 444,-881.91 518.425,-943.247 639.609,-909.224 707.282,-885.379"/>
<polygon fill="black" stroke="black" points="708.631,-888.613 716.866,-881.947 706.272,-882.023 708.631,-888.613"/>
</g>
<!-- proc~json_value_add_string_vec -->
<g id="node14" class="node"><title>proc~json_value_add_string_vec</title>
<a xlink:href="../proc/json_value_add_string_vec.html" xlink:title="json_value_add_string_vec">
<polygon fill="#d9534f" stroke="#d9534f" points="828,-663.91 686,-663.91 686,-637.91 828,-637.91 828,-663.91"/>
<text text-anchor="middle" x="757" y="-648.46" font-family="Helvetica,sans-Serif" font-size="10.50" fill="white">json_value_add_string_vec</text>
</a>
</g>
<!-- interface~json_add&#45;&gt;proc~json_value_add_string_vec -->
<g id="edge114" class="edge"><title>interface~json_add&#45;&gt;proc~json_value_add_string_vec</title>
<path fill="none" stroke="black" stroke-dasharray="5,2" d="M392.929,-570.112C404.612,-583.828 422.768,-603.885 444,-613.91 516.937,-648.347 610.02,-652.348 675.655,-651.314"/>
<polygon fill="black" stroke="black" points="676.018,-654.808 685.946,-651.109 675.878,-647.809 676.018,-654.808"/>
</g>
<!-- proc~wrap_json_value_add_double_vec -->
<g id="node15" class="node"><title>proc~wrap_json_value_add_double_vec</title>
<a xlink:href="../proc/wrap_json_value_add_double_vec.html" xlink:title="wrap_json_value_add_double_vec">
<polygon fill="#d9534f" stroke="#d9534f" points="634,-481.91 456,-481.91 456,-455.91 634,-455.91 634,-481.91"/>
<text text-anchor="middle" x="545" y="-466.46" font-family="Helvetica,sans-Serif" font-size="10.50" fill="white">wrap_json_value_add_double_vec</text>
</a>
</g>
<!-- interface~json_add&#45;&gt;proc~wrap_json_value_add_double_vec -->
<g id="edge116" class="edge"><title>interface~json_add&#45;&gt;proc~wrap_json_value_add_double_vec</title>
<path fill="none" stroke="black" stroke-dasharray="5,2" d="M388.172,-543.769C399.494,-528.59 420.197,-504.03 444,-490.91 447.481,-488.991 451.116,-487.24 454.851,-485.641"/>
<polygon fill="black" stroke="black" points="456.256,-488.851 464.315,-481.974 453.726,-482.324 456.256,-488.851"/>
</g>
<!-- proc~json_value_add_string_vec_name_ascii -->
<g id="node16" class="node"><title>proc~json_value_add_string_vec_name_ascii</title>
<a xlink:href="../proc/json_value_add_string_vec_name_ascii.html" xlink:title="json_value_add_string_vec_name_ascii">
<polygon fill="#d9534f" stroke="#d9534f" points="646,-393.91 444,-393.91 444,-367.91 646,-367.91 646,-393.91"/>
<text text-anchor="middle" x="545" y="-378.46" font-family="Helvetica,sans-Serif" font-size="10.50" fill="white">json_value_add_string_vec_name_ascii</text>
</a>
</g>
<!-- interface~json_add&#45;&gt;proc~json_value_add_string_vec_name_ascii -->
<g id="edge118" class="edge"><title>interface~json_add&#45;&gt;proc~json_value_add_string_vec_name_ascii</title>
<path fill="none" stroke="black" stroke-dasharray="5,2" d="M380.497,-543.799C384.646,-513.857 399.122,-440.171 444,-402.91 445.553,-401.62 447.165,-400.401 448.827,-399.25"/>
<polygon fill="black" stroke="black" points="450.747,-402.18 457.521,-394.033 447.145,-396.178 450.747,-402.18"/>
</g>
<!-- proc~json_value_add_logical_vec -->
<g id="node17" class="node"><title>proc~json_value_add_logical_vec</title>
<a xlink:href="../proc/json_value_add_logical_vec.html" xlink:title="json_value_add_logical_vec">
<polygon fill="#d9534f" stroke="#d9534f" points="830,-763.91 684,-763.91 684,-737.91 830,-737.91 830,-763.91"/>
<text text-anchor="middle" x="757" y="-748.46" font-family="Helvetica,sans-Serif" font-size="10.50" fill="white">json_value_add_logical_vec</text>
</a>
</g>
<!-- interface~json_add&#45;&gt;proc~json_value_add_logical_vec -->
<g id="edge120" class="edge"><title>interface~json_add&#45;&gt;proc~json_value_add_logical_vec</title>
<path fill="none" stroke="black" stroke-dasharray="5,2" d="M380.855,-570.038C385.266,-599.526 399.592,-669.232 444,-702.91 509.262,-752.403 605.111,-757.375 673.526,-754.75"/>
<polygon fill="black" stroke="black" points="674.004,-758.233 683.838,-754.291 673.692,-751.239 674.004,-758.233"/>
</g>
<!-- proc~json_value_add_double -->
<g id="node18" class="node"><title>proc~json_value_add_double</title>
<a xlink:href="../proc/json_value_add_double.html" xlink:title="json_value_add_double">
<polygon fill="#d9534f" stroke="#d9534f" points="820,-79.91 694,-79.91 694,-53.91 820,-53.91 820,-79.91"/>
<text text-anchor="middle" x="757" y="-64.46" font-family="Helvetica,sans-Serif" font-size="10.50" fill="white">json_value_add_double</text>
</a>
</g>
<!-- interface~json_add&#45;&gt;proc~json_value_add_double -->
<g id="edge122" class="edge"><title>interface~json_add&#45;&gt;proc~json_value_add_double</title>
<path fill="none" stroke="black" stroke-dasharray="5,2" d="M379.531,-543.875C383.118,-466.243 404.839,-70.4141 444,-35.91 525.668,36.0458 670.529,-17.7252 730.186,-49.0754"/>
<polygon fill="black" stroke="black" points="728.552,-52.171 739.006,-53.8917 731.906,-46.0272 728.552,-52.171"/>
</g>
<!-- proc~wrap_json_value_add_string -->
<g id="node19" class="node"><title>proc~wrap_json_value_add_string</title>
<a xlink:href="../proc/wrap_json_value_add_string.html" xlink:title="wrap_json_value_add_string">
<polygon fill="#d9534f" stroke="#d9534f" points="619,-179.91 471,-179.91 471,-153.91 619,-153.91 619,-179.91"/>
<text text-anchor="middle" x="545" y="-164.46" font-family="Helvetica,sans-Serif" font-size="10.50" fill="white">wrap_json_value_add_string</text>
</a>
</g>
<!-- interface~json_add&#45;&gt;proc~wrap_json_value_add_string -->
<g id="edge124" class="edge"><title>interface~json_add&#45;&gt;proc~wrap_json_value_add_string</title>
<path fill="none" stroke="black" stroke-dasharray="5,2" d="M379.433,-543.553C381.646,-483.757 393.648,-241.299 444,-188.91 448.888,-183.824 454.656,-179.782 460.918,-176.582"/>
<polygon fill="black" stroke="black" points="462.617,-179.66 470.402,-172.473 459.834,-173.237 462.617,-179.66"/>
</g>
<!-- proc~wrap_json_value_add_logical_vec -->
<g id="node20" class="node"><title>proc~wrap_json_value_add_logical_vec</title>
<a xlink:href="../proc/wrap_json_value_add_logical_vec.html" xlink:title="wrap_json_value_add_logical_vec">
<polygon fill="#d9534f" stroke="#d9534f" points="632,-525.91 458,-525.91 458,-499.91 632,-499.91 632,-525.91"/>
<text text-anchor="middle" x="545" y="-510.46" font-family="Helvetica,sans-Serif" font-size="10.50" fill="white">wrap_json_value_add_logical_vec</text>
</a>
</g>
<!-- interface~json_add&#45;&gt;proc~wrap_json_value_add_logical_vec -->
<g id="edge126" class="edge"><title>interface~json_add&#45;&gt;proc~wrap_json_value_add_logical_vec</title>
<path fill="none" stroke="black" stroke-dasharray="5,2" d="M407.262,-546.577C418.595,-542.635 431.831,-538.283 444,-534.91 452.419,-532.576 461.287,-530.335 470.131,-528.234"/>
<polygon fill="black" stroke="black" points="471.13,-531.596 480.08,-525.926 469.547,-524.777 471.13,-531.596"/>
</g>
<!-- proc~json_value_add_string -->
<g id="node21" class="node"><title>proc~json_value_add_string</title>
<a xlink:href="../proc/json_value_add_string.html" xlink:title="json_value_add_string">
<polygon fill="#d9534f" stroke="#d9534f" points="817,-223.91 697,-223.91 697,-197.91 817,-197.91 817,-223.91"/>
<text text-anchor="middle" x="757" y="-208.46" font-family="Helvetica,sans-Serif" font-size="10.50" fill="white">json_value_add_string</text>
</a>
</g>
<!-- interface~json_add&#45;&gt;proc~json_value_add_string -->
<g id="edge128" class="edge"><title>interface~json_add&#45;&gt;proc~json_value_add_string</title>
<path fill="none" stroke="black" stroke-dasharray="5,2" d="M379.862,-543.837C384.985,-475.32 412.278,-163.02 444,-135.91 512.25,-77.5834 559.432,-112.118 646,-135.91 682.834,-146.033 719.807,-171.917 740.418,-190.752"/>
<polygon fill="black" stroke="black" points="738.104,-193.383 747.722,-197.826 742.974,-188.355 738.104,-193.383"/>
</g>
<!-- proc~json_value_add_string_val_ascii -->
<g id="node22" class="node"><title>proc~json_value_add_string_val_ascii</title>
<a xlink:href="../proc/json_value_add_string_val_ascii.html" xlink:title="json_value_add_string_val_ascii">
<polygon fill="#d9534f" stroke="#d9534f" points="628,-267.91 462,-267.91 462,-241.91 628,-241.91 628,-267.91"/>
<text text-anchor="middle" x="545" y="-252.46" font-family="Helvetica,sans-Serif" font-size="10.50" fill="white">json_value_add_string_val_ascii</text>
</a>
</g>
<!-- interface~json_add&#45;&gt;proc~json_value_add_string_val_ascii -->
<g id="edge130" class="edge"><title>interface~json_add&#45;&gt;proc~json_value_add_string_val_ascii</title>
<path fill="none" stroke="black" stroke-dasharray="5,2" d="M381.186,-543.774C388.857,-498.894 415.62,-352.353 444,-314.91 458.252,-296.107 480.247,-282.046 500.077,-272.281"/>
<polygon fill="black" stroke="black" points="501.725,-275.374 509.296,-267.962 498.756,-269.035 501.725,-275.374"/>
</g>
<!-- proc~json_value_add_double_vec -->
<g id="node23" class="node"><title>proc~json_value_add_double_vec</title>
<a xlink:href="../proc/json_value_add_double_vec.html" xlink:title="json_value_add_double_vec">
<polygon fill="#d9534f" stroke="#d9534f" points="831,-719.91 683,-719.91 683,-693.91 831,-693.91 831,-719.91"/>
<text text-anchor="middle" x="757" y="-704.46" font-family="Helvetica,sans-Serif" font-size="10.50" fill="white">json_value_add_double_vec</text>
</a>
</g>
<!-- interface~json_add&#45;&gt;proc~json_value_add_double_vec -->
<g id="edge132" class="edge"><title>interface~json_add&#45;&gt;proc~json_value_add_double_vec</title>
<path fill="none" stroke="black" stroke-dasharray="5,2" d="M385.002,-570.251C393.715,-592.187 412.38,-634.161 444,-654.91 511.72,-699.347 605.46,-706.826 672.669,-706.926"/>
<polygon fill="black" stroke="black" points="672.816,-710.426 682.803,-706.887 672.789,-703.426 672.816,-710.426"/>
</g>
<!-- proc~wrap_json_value_add_string_vec -->
<g id="node24" class="node"><title>proc~wrap_json_value_add_string_vec</title>
<a xlink:href="../proc/wrap_json_value_add_string_vec.html" xlink:title="wrap_json_value_add_string_vec">
<polygon fill="#d9534f" stroke="#d9534f" points="631,-349.91 459,-349.91 459,-323.91 631,-323.91 631,-349.91"/>
<text text-anchor="middle" x="545" y="-334.46" font-family="Helvetica,sans-Serif" font-size="10.50" fill="white">wrap_json_value_add_string_vec</text>
</a>
</g>
<!-- interface~json_add&#45;&gt;proc~wrap_json_value_add_string_vec -->
<g id="edge134" class="edge"><title>interface~json_add&#45;&gt;proc~wrap_json_value_add_string_vec</title>
<path fill="none" stroke="black" stroke-dasharray="5,2" d="M381.577,-543.65C389.635,-503.528 415.525,-384.6 444,-358.91 445.924,-357.174 447.952,-355.565 450.066,-354.072"/>
<polygon fill="black" stroke="black" points="451.885,-357.062 458.612,-348.877 448.249,-351.081 451.885,-357.062"/>
</g>
<!-- proc~json_value_add_string_name_ascii -->
<g id="node25" class="node"><title>proc~json_value_add_string_name_ascii</title>
<a xlink:href="../proc/json_value_add_string_name_ascii.html" xlink:title="json_value_add_string_name_ascii">
<polygon fill="#d9534f" stroke="#d9534f" points="635,-223.91 455,-223.91 455,-197.91 635,-197.91 635,-223.91"/>
<text text-anchor="middle" x="545" y="-208.46" font-family="Helvetica,sans-Serif" font-size="10.50" fill="white">json_value_add_string_name_ascii</text>
</a>
</g>
<!-- interface~json_add&#45;&gt;proc~json_value_add_string_name_ascii -->
<g id="edge136" class="edge"><title>interface~json_add&#45;&gt;proc~json_value_add_string_name_ascii</title>
<path fill="none" stroke="black" stroke-dasharray="5,2" d="M379.772,-543.685C383.257,-488.622 399.343,-278.309 444,-232.91 444.956,-231.938 445.943,-231.005 446.961,-230.109"/>
<polygon fill="black" stroke="black" points="449.34,-232.702 455.29,-223.935 445.172,-227.078 449.34,-232.702"/>
</g>
<!-- proc~wrap_json_value_add_integer -->
<g id="node26" class="node"><title>proc~wrap_json_value_add_integer</title>
<a xlink:href="../proc/wrap_json_value_add_integer.html" xlink:title="wrap_json_value_add_integer">
<polygon fill="#d9534f" stroke="#d9534f" points="623,-881.91 467,-881.91 467,-855.91 623,-855.91 623,-881.91"/>
<text text-anchor="middle" x="545" y="-866.46" font-family="Helvetica,sans-Serif" font-size="10.50" fill="white">wrap_json_value_add_integer</text>
</a>
</g>
<!-- interface~json_add&#45;&gt;proc~wrap_json_value_add_integer -->
<g id="edge138" class="edge"><title>interface~json_add&#45;&gt;proc~wrap_json_value_add_integer</title>
<path fill="none" stroke="black" stroke-dasharray="5,2" d="M380.23,-570.193C385.193,-620.949 405.351,-801.804 444,-841.91 448.115,-846.18 452.825,-849.8 457.91,-852.866"/>
<polygon fill="black" stroke="black" points="456.304,-855.976 466.785,-857.52 459.555,-849.776 456.304,-855.976"/>
</g>
<!-- proc~wrap_json_value_add_double -->
<g id="node27" class="node"><title>proc~wrap_json_value_add_double</title>
<a xlink:href="../proc/wrap_json_value_add_double.html" xlink:title="wrap_json_value_add_double">
<polygon fill="#d9534f" stroke="#d9534f" points="622,-79.91 468,-79.91 468,-53.91 622,-53.91 622,-79.91"/>
<text text-anchor="middle" x="545" y="-64.46" font-family="Helvetica,sans-Serif" font-size="10.50" fill="white">wrap_json_value_add_double</text>
</a>
</g>
<!-- interface~json_add&#45;&gt;proc~wrap_json_value_add_double -->
<g id="edge140" class="edge"><title>interface~json_add&#45;&gt;proc~wrap_json_value_add_double</title>
<path fill="none" stroke="black" stroke-dasharray="5,2" d="M379.989,-543.707C385.491,-471.736 413.201,-128.707 444,-93.91 448.084,-89.2953 452.862,-85.4298 458.077,-82.1959"/>
<polygon fill="black" stroke="black" points="460.039,-85.1169 467.222,-77.3289 456.75,-78.9375 460.039,-85.1169"/>
</g>
<!-- proc~wrap_json_value_add_integer_vec&#45;&gt;interface~to_unicode -->
<g id="edge6" class="edge"><title>proc~wrap_json_value_add_integer_vec&#45;&gt;interface~to_unicode</title>
<path fill="none" stroke="black" d="M630.454,-543.785C635.946,-541.301 641.193,-538.368 646,-534.91 703.726,-493.383 736.737,-411.716 750.048,-371.869"/>
<polygon fill="black" stroke="black" points="753.412,-372.839 753.148,-362.247 746.75,-370.692 753.412,-372.839"/>
</g>
<!-- proc~wrap_json_value_add_integer_vec&#45;&gt;proc~json_value_add_integer_vec -->
<g id="edge4" class="edge"><title>proc~wrap_json_value_add_integer_vec&#45;&gt;proc~json_value_add_integer_vec</title>
<path fill="none" stroke="black" d="M634.316,-569.593C638.562,-572.221 642.502,-575.302 646,-578.91 707.041,-641.873 623.228,-707.825 682,-772.91 682.773,-773.766 683.577,-774.589 684.41,-775.382"/>
<polygon fill="black" stroke="black" points="682.538,-778.358 692.593,-781.696 686.814,-772.816 682.538,-778.358"/>
</g>
<!-- proc~json_value_add_string_vec_val_ascii&#45;&gt;interface~to_unicode -->
<g id="edge8" class="edge"><title>proc~json_value_add_string_vec_val_ascii&#45;&gt;interface~to_unicode</title>
<path fill="none" stroke="black" d="M615.147,-411.903C625.603,-409.312 636.165,-406.319 646,-402.91 673.817,-393.269 703.743,-378.425 725.505,-366.739"/>
<polygon fill="black" stroke="black" points="727.193,-369.805 734.301,-361.948 723.845,-363.657 727.193,-369.805"/>
</g>
<!-- proc~json_value_add_string_vec_val_ascii&#45;&gt;proc~json_value_add_string_vec -->
<g id="edge10" class="edge"><title>proc~json_value_add_string_vec_val_ascii&#45;&gt;proc~json_value_add_string_vec</title>
<path fill="none" stroke="black" d="M631.108,-438.051C636.382,-440.537 641.406,-443.464 646,-446.91 708.001,-493.408 739.473,-585.085 751.308,-627.885"/>
<polygon fill="black" stroke="black" points="747.953,-628.888 753.9,-637.656 754.719,-627.093 747.953,-628.888"/>
</g>
<!-- proc~json_value_add_integer_vec&#45;&gt;proc~json_value_create -->
<g id="edge16" class="edge"><title>proc~json_value_add_integer_vec&#45;&gt;proc~json_value_create</title>
<path fill="none" stroke="black" d="M804.869,-781.828C822.391,-777.039 842.395,-771.572 860.66,-766.581"/>
<polygon fill="black" stroke="black" points="861.591,-769.954 870.315,-763.942 859.746,-763.202 861.591,-769.954"/>
</g>
<!-- proc~json_value_add_integer_vec&#45;&gt;interface~json_add -->
<g id="edge14" class="edge"><title>proc~json_value_add_integer_vec&#45;&gt;interface~json_add</title>
<path fill="none" stroke="black" d="M719.826,-807.92C655.755,-822.322 523.745,-834.21 444,-768.91 414.792,-744.993 390.853,-630.255 382.338,-580.099"/>
<polygon fill="black" stroke="black" points="385.781,-579.468 380.716,-570.162 378.873,-580.596 385.781,-579.468"/>
</g>
<!-- proc~to_array -->
<g id="node32" class="node"><title>proc~to_array</title>
<a xlink:href="../proc/to_array.html" xlink:title="to_array">
<polygon fill="#d9534f" stroke="#d9534f" points="945,-719.91 891,-719.91 891,-693.91 945,-693.91 945,-719.91"/>
<text text-anchor="middle" x="918" y="-704.46" font-family="Helvetica,sans-Serif" font-size="10.50" fill="white">to_array</text>
</a>
</g>
<!-- proc~json_value_add_integer_vec&#45;&gt;proc~to_array -->
<g id="edge18" class="edge"><title>proc~json_value_add_integer_vec&#45;&gt;proc~to_array</title>
<path fill="none" stroke="black" d="M814.714,-781.906C820.791,-779.404 826.684,-776.433 832,-772.91 853.063,-758.953 847.882,-744.197 868,-728.91 872.141,-725.763 876.803,-722.955 881.572,-720.485"/>
<polygon fill="black" stroke="black" points="883.214,-723.58 890.767,-716.151 880.229,-717.248 883.214,-723.58"/>
</g>
<!-- proc~json_value_add_integer&#45;&gt;proc~json_value_create -->
<g id="edge22" class="edge"><title>proc~json_value_add_integer&#45;&gt;proc~json_value_create</title>
<path fill="none" stroke="black" d="M776.606,-855.697C791.845,-845.336 813.442,-830.453 832,-816.91 852.844,-801.7 876.028,-783.851 893.067,-770.553"/>
<polygon fill="black" stroke="black" points="895.656,-772.972 901.373,-764.052 891.341,-767.46 895.656,-772.972"/>
</g>
<!-- proc~json_value_add_integer&#45;&gt;interface~json_add -->
<g id="edge26" class="edge"><title>proc~json_value_add_integer&#45;&gt;interface~json_add</title>
<path fill="none" stroke="black" d="M738.488,-882.075C685.614,-911.544 532.069,-972.492 444,-899.91 431.617,-889.704 393.419,-656.148 382.156,-580.284"/>
<polygon fill="black" stroke="black" points="385.604,-579.67 380.696,-570.28 378.677,-580.681 385.604,-579.67"/>
</g>
<!-- proc~to_integer -->
<g id="node37" class="node"><title>proc~to_integer</title>
<a xlink:href="../proc/to_integer.html" xlink:title="to_integer">
<polygon fill="#d9534f" stroke="#d9534f" points="948,-844.91 888,-844.91 888,-818.91 948,-818.91 948,-844.91"/>
<text text-anchor="middle" x="918" y="-829.46" font-family="Helvetica,sans-Serif" font-size="10.50" fill="white">to_integer</text>
</a>
</g>
<!-- proc~json_value_add_integer&#45;&gt;proc~to_integer -->
<g id="edge24" class="edge"><title>proc~json_value_add_integer&#45;&gt;proc~to_integer</title>
<path fill="none" stroke="black" d="M813.763,-855.865C834.79,-851.033 858.19,-845.655 877.483,-841.221"/>
<polygon fill="black" stroke="black" points="878.487,-844.582 887.449,-838.931 876.919,-837.76 878.487,-844.582"/>
</g>
<!-- proc~json_value_add_string_vec&#45;&gt;proc~json_value_create -->
<g id="edge30" class="edge"><title>proc~json_value_add_string_vec&#45;&gt;proc~json_value_create</title>
<path fill="none" stroke="black" d="M794.748,-664.02C807.298,-669.388 820.892,-676.372 832,-684.91 852.033,-700.309 847.882,-713.623 868,-728.91 869.81,-730.285 871.719,-731.596 873.693,-732.842"/>
<polygon fill="black" stroke="black" points="872.227,-736.033 882.658,-737.891 875.663,-729.934 872.227,-736.033"/>
</g>
<!-- proc~json_value_add_string_vec&#45;&gt;interface~json_add -->
<g id="edge28" class="edge"><title>proc~json_value_add_string_vec&#45;&gt;interface~json_add</title>
<path fill="none" stroke="black" d="M697.622,-663.94C632.221,-670.868 525.525,-670.403 444,-631.91 420.223,-620.683 400.304,-596.875 389.013,-578.792"/>
<polygon fill="black" stroke="black" points="391.946,-576.871 383.921,-569.954 385.881,-580.366 391.946,-576.871"/>
</g>
<!-- proc~json_value_add_string_vec&#45;&gt;proc~to_array -->
<g id="edge32" class="edge"><title>proc~json_value_add_string_vec&#45;&gt;proc~to_array</title>
<path fill="none" stroke="black" d="M794.747,-664.04C820.79,-673.098 855.243,-685.081 881.101,-694.075"/>
<polygon fill="black" stroke="black" points="879.96,-697.384 890.555,-697.364 882.259,-690.773 879.96,-697.384"/>
</g>
<!-- proc~wrap_json_value_add_double_vec&#45;&gt;interface~to_unicode -->
<g id="edge36" class="edge"><title>proc~wrap_json_value_add_double_vec&#45;&gt;interface~to_unicode</title>
<path fill="none" stroke="black" d="M623.847,-455.892C631.523,-453.402 639.036,-450.438 646,-446.91 683.989,-427.667 719.292,-392.292 739.478,-369.721"/>
<polygon fill="black" stroke="black" points="742.252,-371.867 746.208,-362.038 736.986,-367.254 742.252,-371.867"/>
</g>
<!-- proc~wrap_json_value_add_double_vec&#45;&gt;proc~json_value_add_double_vec -->
<g id="edge34" class="edge"><title>proc~wrap_json_value_add_double_vec&#45;&gt;proc~json_value_add_double_vec</title>
<path fill="none" stroke="black" d="M634.266,-481.642C638.524,-484.257 642.481,-487.323 646,-490.91 703.743,-549.772 630.781,-608.291 682,-672.91 687.12,-679.37 693.738,-684.644 700.92,-688.94"/>
<polygon fill="black" stroke="black" points="699.771,-692.292 710.248,-693.873 703.044,-686.104 699.771,-692.292"/>
</g>
<!-- proc~json_value_add_string_vec_name_ascii&#45;&gt;interface~to_unicode -->
<g id="edge38" class="edge"><title>proc~json_value_add_string_vec_name_ascii&#45;&gt;interface~to_unicode</title>
<path fill="none" stroke="black" d="M631.229,-367.894C659.788,-363.584 690.333,-358.973 714.169,-355.375"/>
<polygon fill="black" stroke="black" points="714.916,-358.802 724.282,-353.849 713.871,-351.88 714.916,-358.802"/>
</g>
<!-- proc~json_value_add_string_vec_name_ascii&#45;&gt;proc~json_value_add_string_vec -->
<g id="edge40" class="edge"><title>proc~json_value_add_string_vec_name_ascii&#45;&gt;proc~json_value_add_string_vec</title>
<path fill="none" stroke="black" d="M632.394,-394.138C637.235,-396.614 641.821,-399.515 646,-402.91 718.503,-461.807 745.256,-577.977 753.655,-627.574"/>
<polygon fill="black" stroke="black" points="750.228,-628.307 755.258,-637.632 757.141,-627.206 750.228,-628.307"/>
</g>
<!-- proc~json_value_add_logical_vec&#45;&gt;proc~json_value_create -->
<g id="edge44" class="edge"><title>proc~json_value_add_logical_vec&#45;&gt;proc~json_value_create</title>
<path fill="none" stroke="black" d="M830.433,-750.91C839.493,-750.91 848.674,-750.91 857.512,-750.91"/>
<polygon fill="black" stroke="black" points="857.7,-754.41 867.7,-750.91 857.7,-747.41 857.7,-754.41"/>
</g>
<!-- proc~json_value_add_logical_vec&#45;&gt;interface~json_add -->
<g id="edge42" class="edge"><title>proc~json_value_add_logical_vec&#45;&gt;interface~json_add</title>
<path fill="none" stroke="black" d="M713.296,-763.928C647.767,-775.454 523.302,-781.05 444,-720.91 399.541,-687.193 385.234,-617.367 380.84,-580.435"/>
<polygon fill="black" stroke="black" points="384.282,-579.693 379.772,-570.106 377.319,-580.413 384.282,-579.693"/>
</g>
<!-- proc~json_value_add_logical_vec&#45;&gt;proc~to_array -->
<g id="edge46" class="edge"><title>proc~json_value_add_logical_vec&#45;&gt;proc~to_array</title>
<path fill="none" stroke="black" d="M804.869,-737.828C829.145,-731.193 858.185,-723.257 880.765,-717.086"/>
<polygon fill="black" stroke="black" points="881.921,-720.399 890.644,-714.386 880.075,-713.646 881.921,-720.399"/>
</g>
<!-- proc~json_value_add_double&#45;&gt;proc~json_value_create -->
<g id="edge50" class="edge"><title>proc~json_value_add_double&#45;&gt;proc~json_value_create</title>
<path fill="none" stroke="black" d="M768.161,-80.0905C785.432,-101.369 818.093,-145.328 832,-188.91 868.56,-303.485 798.963,-630.432 868,-728.91 868.449,-729.551 868.921,-730.173 869.414,-730.777"/>
<polygon fill="black" stroke="black" points="867.137,-733.438 876.852,-737.666 871.894,-728.303 867.137,-733.438"/>
</g>
<!-- proc~json_value_add_double&#45;&gt;interface~json_add -->
<g id="edge54" class="edge"><title>proc~json_value_add_double&#45;&gt;interface~json_add</title>
<path fill="none" stroke="black" d="M717.962,-53.8902C652.566,-29.4617 520.534,13.5225 444,-53.91 407.138,-86.3877 385.73,-438.997 380.351,-533.725"/>
<polygon fill="black" stroke="black" points="376.855,-533.547 379.787,-543.728 383.844,-533.941 376.855,-533.547"/>
</g>
<!-- proc~to_double -->
<g id="node52" class="node"><title>proc~to_double</title>
<a xlink:href="../proc/to_double.html" xlink:title="to_double">
<polygon fill="#d9534f" stroke="#d9534f" points="948,-129.91 888,-129.91 888,-103.91 948,-103.91 948,-129.91"/>
<text text-anchor="middle" x="918" y="-114.46" font-family="Helvetica,sans-Serif" font-size="10.50" fill="white">to_double</text>
</a>
</g>
<!-- proc~json_value_add_double&#45;&gt;proc~to_double -->
<g id="edge52" class="edge"><title>proc~json_value_add_double&#45;&gt;proc~to_double</title>
<path fill="none" stroke="black" d="M798.881,-79.9164C823.365,-87.5203 854.097,-97.0643 878.212,-104.554"/>
<polygon fill="black" stroke="black" points="877.181,-107.898 887.77,-107.522 879.258,-101.213 877.181,-107.898"/>
</g>
<!-- proc~wrap_json_value_add_string&#45;&gt;interface~to_unicode -->
<g id="edge56" class="edge"><title>proc~wrap_json_value_add_string&#45;&gt;interface~to_unicode</title>
<path fill="none" stroke="black" d="M619.629,-176.412C628.962,-179.506 638.019,-183.573 646,-188.91 659.652,-198.038 716.526,-285.483 743.145,-327.101"/>
<polygon fill="black" stroke="black" points="740.305,-329.156 748.634,-335.704 746.206,-325.391 740.305,-329.156"/>
</g>
<!-- proc~wrap_json_value_add_string&#45;&gt;proc~json_value_add_string -->
<g id="edge58" class="edge"><title>proc~wrap_json_value_add_string&#45;&gt;proc~json_value_add_string</title>
<path fill="none" stroke="black" d="M607.747,-179.933C632.646,-185.101 661.388,-191.066 686.962,-196.374"/>
<polygon fill="black" stroke="black" points="686.46,-199.844 696.963,-198.449 687.883,-192.99 686.46,-199.844"/>
</g>
<!-- proc~wrap_json_value_add_logical_vec&#45;&gt;interface~to_unicode -->
<g id="edge60" class="edge"><title>proc~wrap_json_value_add_logical_vec&#45;&gt;interface~to_unicode</title>
<path fill="none" stroke="black" d="M628.193,-499.809C634.435,-497.332 640.453,-494.394 646,-490.91 693.785,-460.892 729.33,-402.696 746.167,-370.921"/>
<polygon fill="black" stroke="black" points="749.311,-372.46 750.784,-361.968 743.089,-369.251 749.311,-372.46"/>
</g>
<!-- proc~wrap_json_value_add_logical_vec&#45;&gt;proc~json_value_add_logical_vec -->
<g id="edge62" class="edge"><title>proc~wrap_json_value_add_logical_vec&#45;&gt;proc~json_value_add_logical_vec</title>
<path fill="none" stroke="black" d="M632.942,-524.764C637.712,-527.566 642.128,-530.916 646,-534.91 707.041,-597.873 623.228,-663.825 682,-728.91 682.773,-729.766 683.577,-730.589 684.41,-731.382"/>
<polygon fill="black" stroke="black" points="682.538,-734.358 692.593,-737.696 686.814,-728.816 682.538,-734.358"/>
</g>
<!-- proc~json_value_add_string&#45;&gt;proc~json_value_create -->
<g id="edge72" class="edge"><title>proc~json_value_add_string&#45;&gt;proc~json_value_create</title>
<path fill="none" stroke="black" d="M768.615,-224.04C785.877,-244.422 817.789,-285.642 832,-326.91 861.202,-411.714 815.682,-656.059 868,-728.91 868.456,-729.545 868.935,-730.163 869.435,-730.763"/>
<polygon fill="black" stroke="black" points="867.187,-733.45 876.931,-737.609 871.908,-728.281 867.187,-733.45"/>
</g>
<!-- proc~json_value_add_string&#45;&gt;interface~json_add -->
<g id="edge66" class="edge"><title>proc~json_value_add_string&#45;&gt;interface~json_add</title>
<path fill="none" stroke="black" d="M731.917,-197.823C710.529,-183.669 678.211,-162.763 646,-153.91 559.432,-130.118 512.25,-95.5834 444,-153.91 414.462,-179.154 388.763,-451.679 381.229,-533.788"/>
<polygon fill="black" stroke="black" points="377.733,-533.583 380.307,-543.861 384.704,-534.222 377.733,-533.583"/>
</g>
<!-- proc~escape_string -->
<g id="node61" class="node"><title>proc~escape_string</title>
<a xlink:href="../proc/escape_string.html" xlink:title="escape_string">
<polygon fill="#d9534f" stroke="#d9534f" points="957,-267.91 879,-267.91 879,-241.91 957,-241.91 957,-267.91"/>
<text text-anchor="middle" x="918" y="-252.46" font-family="Helvetica,sans-Serif" font-size="10.50" fill="white">escape_string</text>
</a>
</g>
<!-- proc~json_value_add_string&#45;&gt;proc~escape_string -->
<g id="edge68" class="edge"><title>proc~json_value_add_string&#45;&gt;proc~escape_string</title>
<path fill="none" stroke="black" d="M804.869,-223.992C825.023,-229.5 848.461,-235.905 868.759,-241.453"/>
<polygon fill="black" stroke="black" points="867.874,-244.839 878.443,-244.099 869.72,-238.087 867.874,-244.839"/>
</g>
<!-- proc~to_string -->
<g id="node62" class="node"><title>proc~to_string</title>
<a xlink:href="../proc/to_string.html" xlink:title="to_string">
<polygon fill="#d9534f" stroke="#d9534f" points="945,-223.91 891,-223.91 891,-197.91 945,-197.91 945,-223.91"/>
<text text-anchor="middle" x="918" y="-208.46" font-family="Helvetica,sans-Serif" font-size="10.50" fill="white">to_string</text>
</a>
</g>
<!-- proc~json_value_add_string&#45;&gt;proc~to_string -->
<g id="edge70" class="edge"><title>proc~json_value_add_string&#45;&gt;proc~to_string</title>
<path fill="none" stroke="black" d="M817.409,-210.91C838.691,-210.91 861.974,-210.91 880.776,-210.91"/>
<polygon fill="black" stroke="black" points="880.998,-214.41 890.998,-210.91 880.998,-207.41 880.998,-214.41"/>
</g>
<!-- proc~json_value_add_string_val_ascii&#45;&gt;interface~to_unicode -->
<g id="edge74" class="edge"><title>proc~json_value_add_string_val_ascii&#45;&gt;interface~to_unicode</title>
<path fill="none" stroke="black" d="M604.955,-267.955C618.692,-271.758 633.056,-276.404 646,-281.91 676.585,-294.918 708.815,-315.21 730.618,-330.056"/>
<polygon fill="black" stroke="black" points="728.787,-333.045 739.005,-335.849 732.766,-327.285 728.787,-333.045"/>
</g>
<!-- proc~json_value_add_string_val_ascii&#45;&gt;proc~json_value_add_string -->
<g id="edge76" class="edge"><title>proc~json_value_add_string_val_ascii&#45;&gt;proc~json_value_add_string</title>
<path fill="none" stroke="black" d="M607.747,-241.887C632.646,-236.719 661.388,-230.754 686.962,-225.446"/>
<polygon fill="black" stroke="black" points="687.883,-228.83 696.963,-223.371 686.46,-221.976 687.883,-228.83"/>
</g>
<!-- proc~json_value_add_double_vec&#45;&gt;proc~json_value_create -->
<g id="edge80" class="edge"><title>proc~json_value_add_double_vec&#45;&gt;proc~json_value_create</title>
<path fill="none" stroke="black" d="M804.869,-719.992C822.391,-724.781 842.395,-730.248 860.66,-735.239"/>
<polygon fill="black" stroke="black" points="859.746,-738.618 870.315,-737.878 861.591,-731.866 859.746,-738.618"/>
</g>
<!-- proc~json_value_add_double_vec&#45;&gt;interface~json_add -->
<g id="edge78" class="edge"><title>proc~json_value_add_double_vec&#45;&gt;interface~json_add</title>
<path fill="none" stroke="black" d="M694.845,-719.913C627.494,-726.062 519.553,-722.487 444,-672.91 411.433,-651.54 392.609,-607.653 384.246,-580.16"/>
<polygon fill="black" stroke="black" points="387.518,-578.862 381.461,-570.169 380.775,-580.742 387.518,-578.862"/>
</g>
<!-- proc~json_value_add_double_vec&#45;&gt;proc~to_array -->
<g id="edge82" class="edge"><title>proc~json_value_add_double_vec&#45;&gt;proc~to_array</title>
<path fill="none" stroke="black" d="M831.373,-706.91C848.479,-706.91 865.955,-706.91 880.69,-706.91"/>
<polygon fill="black" stroke="black" points="880.889,-710.41 890.889,-706.91 880.889,-703.41 880.889,-710.41"/>
</g>
<!-- proc~wrap_json_value_add_string_vec&#45;&gt;interface~to_unicode -->
<g id="edge84" class="edge"><title>proc~wrap_json_value_add_string_vec&#45;&gt;interface~to_unicode</title>
<path fill="none" stroke="black" d="M631.229,-341.791C659.788,-343.407 690.333,-345.136 714.169,-346.486"/>
<polygon fill="black" stroke="black" points="714.1,-349.987 724.282,-347.058 714.495,-342.998 714.1,-349.987"/>
</g>
<!-- proc~wrap_json_value_add_string_vec&#45;&gt;proc~json_value_add_string_vec -->
<g id="edge86" class="edge"><title>proc~wrap_json_value_add_string_vec&#45;&gt;proc~json_value_add_string_vec</title>
<path fill="none" stroke="black" d="M631.183,-349.11C636.504,-351.811 641.513,-355.045 646,-358.91 729.233,-430.596 750.244,-571.636 755.389,-627.41"/>
<polygon fill="black" stroke="black" points="751.926,-627.997 756.242,-637.673 758.902,-627.417 751.926,-627.997"/>
</g>
<!-- proc~json_value_add_string_name_ascii&#45;&gt;interface~to_unicode -->
<g id="edge88" class="edge"><title>proc~json_value_add_string_name_ascii&#45;&gt;interface~to_unicode</title>
<path fill="none" stroke="black" d="M626,-223.97C632.968,-226.449 639.738,-229.4 646,-232.91 687.941,-256.422 723.759,-300.917 742.662,-327.442"/>
<polygon fill="black" stroke="black" points="739.821,-329.487 748.409,-335.692 745.565,-325.486 739.821,-329.487"/>
</g>
<!-- proc~json_value_add_string_name_ascii&#45;&gt;proc~json_value_add_string -->
<g id="edge90" class="edge"><title>proc~json_value_add_string_name_ascii&#45;&gt;proc~json_value_add_string</title>
<path fill="none" stroke="black" d="M635.214,-210.91C652.48,-210.91 670.317,-210.91 686.838,-210.91"/>
<polygon fill="black" stroke="black" points="686.938,-214.41 696.937,-210.91 686.937,-207.41 686.938,-214.41"/>
</g>
<!-- proc~wrap_json_value_add_integer&#45;&gt;interface~to_unicode -->
<g id="edge94" class="edge"><title>proc~wrap_json_value_add_integer&#45;&gt;interface~to_unicode</title>
<path fill="none" stroke="black" d="M550.387,-855.851C565.514,-819.167 609.649,-712.042 646,-622.91 684.021,-529.685 728.949,-418.447 747.874,-371.54"/>
<polygon fill="black" stroke="black" points="751.212,-372.621 751.707,-362.037 744.72,-370.002 751.212,-372.621"/>
</g>
<!-- proc~wrap_json_value_add_integer&#45;&gt;proc~json_value_add_integer -->
<g id="edge92" class="edge"><title>proc~wrap_json_value_add_integer&#45;&gt;proc~json_value_add_integer</title>
<path fill="none" stroke="black" d="M623.038,-868.91C642.743,-868.91 663.837,-868.91 683.32,-868.91"/>
<polygon fill="black" stroke="black" points="683.346,-872.41 693.346,-868.91 683.346,-865.41 683.346,-872.41"/>
</g>
<!-- proc~wrap_json_value_add_double&#45;&gt;interface~to_unicode -->
<g id="edge98" class="edge"><title>proc~wrap_json_value_add_double&#45;&gt;interface~to_unicode</title>
<path fill="none" stroke="black" d="M568.322,-79.9475C590.867,-93.5816 624.66,-116.883 646,-144.91 671.599,-178.531 662.444,-195.45 682,-232.91 700.028,-267.443 725.374,-304.855 741.493,-327.59"/>
<polygon fill="black" stroke="black" points="738.72,-329.73 747.385,-335.827 744.413,-325.657 738.72,-329.73"/>
</g>
<!-- proc~wrap_json_value_add_double&#45;&gt;proc~json_value_add_double -->
<g id="edge96" class="edge"><title>proc~wrap_json_value_add_double&#45;&gt;proc~json_value_add_double</title>
<path fill="none" stroke="black" d="M622.737,-66.91C642.662,-66.91 664.025,-66.91 683.717,-66.91"/>
<polygon fill="black" stroke="black" points="683.846,-70.4101 693.846,-66.91 683.846,-63.4101 683.846,-70.4101"/>
</g>
<!-- proc~to_array&#45;&gt;proc~destroy_json_data -->
<g id="edge12" class="edge"><title>proc~to_array&#45;&gt;proc~destroy_json_data</title>
<path fill="none" stroke="black" d="M945.195,-706.91C959.06,-706.91 976.518,-706.91 993.366,-706.91"/>
<polygon fill="black" stroke="black" points="993.739,-710.41 1003.74,-706.91 993.739,-703.41 993.739,-710.41"/>
</g>
<!-- proc~to_integer&#45;&gt;proc~destroy_json_data -->
<g id="edge20" class="edge"><title>proc~to_integer&#45;&gt;proc~destroy_json_data</title>
<path fill="none" stroke="black" d="M932.297,-818.769C956.008,-796.976 1003.64,-753.199 1031.77,-727.345"/>
<polygon fill="black" stroke="black" points="1034.49,-729.595 1039.48,-720.251 1029.75,-724.441 1034.49,-729.595"/>
</g>
<!-- proc~to_double&#45;&gt;proc~destroy_json_data -->
<g id="edge48" class="edge"><title>proc~to_double&#45;&gt;proc~destroy_json_data</title>
<path fill="none" stroke="black" d="M929.738,-129.918C941.382,-143.584 958.781,-166.209 968,-188.91 1005.58,-281.45 1041.84,-595.097 1051.5,-683.527"/>
<polygon fill="black" stroke="black" points="1048.04,-684.038 1052.59,-693.603 1054.99,-683.284 1048.04,-684.038"/>
</g>
<!-- proc~to_string&#45;&gt;proc~destroy_json_data -->
<g id="edge64" class="edge"><title>proc~to_string&#45;&gt;proc~destroy_json_data</title>
<path fill="none" stroke="black" d="M945.05,-217.368C953.568,-220.679 962.244,-225.613 968,-232.91 1024.51,-304.551 1047.17,-598.431 1052.63,-683.648"/>
<polygon fill="black" stroke="black" points="1049.14,-684.062 1053.26,-693.826 1056.13,-683.628 1049.14,-684.062"/>
</g>
</g>
</svg>
