<?xml version="1.0" encoding="UTF-8" standalone="no"?>
<!DOCTYPE svg PUBLIC "-//W3C//DTD SVG 1.1//EN"
 "http://www.w3.org/Graphics/SVG/1.1/DTD/svg11.dtd">
<!-- Generated by graphviz version 2.26.3 (20100126.1600)
 -->
<!-- Title: proc~~json_file_load_from_string~~CalledByGraph Pages: 1 -->
<svg width="350pt" height="34pt"
 viewBox="0.00 0.00 350.00 34.00" xmlns="http://www.w3.org/2000/svg" xmlns:xlink="http://www.w3.org/1999/xlink">
<g id="graph1" class="graph" transform="scale(1 1) rotate(0) translate(4 30)">
<title>proc~~json_file_load_from_string~~CalledByGraph</title>
<polygon fill="white" stroke="white" points="-4,5 -4,-30 347,-30 347,5 -4,5"/>
<!-- proc~json_file_load_from_string -->
<g id="node1" class="node"><title>proc~json_file_load_from_string</title>
<polygon fill="none" stroke="black" points="342,-26 204,-26 204,-1.24345e-14 342,-3.55271e-15 342,-26"/>
<text text-anchor="middle" x="273" y="-10.55" font-family="Helvetica,sans-Serif" font-size="10.50">json_file_load_from_string</text>
</g>
<!-- proc~wrap_json_file_load_from_string -->
<g id="node2" class="node"><title>proc~wrap_json_file_load_from_string</title>
<a xlink:href="../proc/wrap_json_file_load_from_string.html" xlink:title="wrap_json_file_load_from_string">
<polygon fill="#d9534f" stroke="#d9534f" points="167,-26 1,-26 1,-1.24345e-14 167,-3.55271e-15 167,-26"/>
<text text-anchor="middle" x="84" y="-10.55" font-family="Helvetica,sans-Serif" font-size="10.50" fill="white">wrap_json_file_load_from_string</text>
</a>
</g>
<!-- proc~wrap_json_file_load_from_string&#45;&gt;proc~json_file_load_from_string -->
<g id="edge2" class="edge"><title>proc~wrap_json_file_load_from_string&#45;&gt;proc~json_file_load_from_string</title>
<path fill="none" stroke="black" d="M167.724,-13C176.382,-13 185.162,-13 193.769,-13"/>
<polygon fill="black" stroke="black" points="193.775,-16.5001 203.775,-13 193.775,-9.5001 193.775,-16.5001"/>
</g>
</g>
</svg>
