<?xml version="1.0" encoding="UTF-8" standalone="no"?>
<!DOCTYPE svg PUBLIC "-//W3C//DTD SVG 1.1//EN"
 "http://www.w3.org/Graphics/SVG/1.1/DTD/svg11.dtd">
<!-- Generated by graphviz version 2.26.3 (20100126.1600)
 -->
<!-- Title: proc~~json_info~~CallsGraph Pages: 1 -->
<svg width="164pt" height="34pt"
 viewBox="0.00 0.00 164.00 34.00" xmlns="http://www.w3.org/2000/svg" xmlns:xlink="http://www.w3.org/1999/xlink">
<g id="graph1" class="graph" transform="scale(1 1) rotate(0) translate(4 30)">
<title>proc~~json_info~~CallsGraph</title>
<polygon fill="white" stroke="white" points="-4,5 -4,-30 161,-30 161,5 -4,5"/>
<!-- proc~json_info -->
<g id="node1" class="node"><title>proc~json_info</title>
<polygon fill="none" stroke="black" points="55,-26 1,-26 1,-1.24345e-14 55,-3.55271e-15 55,-26"/>
<text text-anchor="middle" x="28" y="-10.55" font-family="Helvetica,sans-Serif" font-size="10.50">json_info</text>
</g>
<!-- proc~json_count -->
<g id="node2" class="node"><title>proc~json_count</title>
<a xlink:href="../proc/json_count.html" xlink:title="json_count">
<polygon fill="#d94e8f" stroke="#d94e8f" points="156,-26 92,-26 92,-1.24345e-14 156,-3.55271e-15 156,-26"/>
<text text-anchor="middle" x="124" y="-10.55" font-family="Helvetica,sans-Serif" font-size="10.50" fill="white">json_count</text>
</a>
</g>
<!-- proc~json_info&#45;&gt;proc~json_count -->
<g id="edge2" class="edge"><title>proc~json_info&#45;&gt;proc~json_count</title>
<path fill="none" stroke="black" d="M55.5097,-13C63.6336,-13 72.7215,-13 81.5551,-13"/>
<polygon fill="black" stroke="black" points="81.735,-16.5001 91.735,-13 81.735,-9.5001 81.735,-16.5001"/>
</g>
</g>
</svg>
