<?xml version="1.0" encoding="UTF-8" standalone="no"?>
<!DOCTYPE svg PUBLIC "-//W3C//DTD SVG 1.1//EN"
 "http://www.w3.org/Graphics/SVG/1.1/DTD/svg11.dtd">
<!-- Generated by graphviz version 2.26.3 (20100126.1600)
 -->
<!-- Title: proc~~json_value_create_logical~~CallsGraph Pages: 1 -->
<svg width="416pt" height="78pt"
 viewBox="0.00 0.00 416.00 78.00" xmlns="http://www.w3.org/2000/svg" xmlns:xlink="http://www.w3.org/1999/xlink">
<g id="graph1" class="graph" transform="scale(1 1) rotate(0) translate(4 74)">
<title>proc~~json_value_create_logical~~CallsGraph</title>
<polygon fill="white" stroke="white" points="-4,5 -4,-74 413,-74 413,5 -4,5"/>
<!-- proc~json_value_create_logical -->
<g id="node1" class="node"><title>proc~json_value_create_logical</title>
<polygon fill="none" stroke="black" points="136,-48 7.10543e-14,-48 0,-22 136,-22 136,-48"/>
<text text-anchor="middle" x="68" y="-32.55" font-family="Helvetica,sans-Serif" font-size="10.50">json_value_create_logical</text>
</g>
<!-- proc~json_value_create -->
<g id="node2" class="node"><title>proc~json_value_create</title>
<a xlink:href="../proc/json_value_create.html" xlink:title="json_value_create">
<polygon fill="#d9534f" stroke="#d9534f" points="272,-70 172,-70 172,-44 272,-44 272,-70"/>
<text text-anchor="middle" x="222" y="-54.55" font-family="Helvetica,sans-Serif" font-size="10.50" fill="white">json_value_create</text>
</a>
</g>
<!-- proc~json_value_create_logical&#45;&gt;proc~json_value_create -->
<g id="edge4" class="edge"><title>proc~json_value_create_logical&#45;&gt;proc~json_value_create</title>
<path fill="none" stroke="black" d="M136.443,-44.7776C144.896,-45.9851 153.487,-47.2125 161.804,-48.4006"/>
<polygon fill="black" stroke="black" points="161.39,-51.8769 171.784,-49.8263 162.38,-44.9472 161.39,-51.8769"/>
</g>
<!-- proc~to_logical -->
<g id="node3" class="node"><title>proc~to_logical</title>
<a xlink:href="../proc/to_logical.html" xlink:title="to_logical">
<polygon fill="#d9534f" stroke="#d9534f" points="251,-26 193,-26 193,-1.24345e-14 251,-3.55271e-15 251,-26"/>
<text text-anchor="middle" x="222" y="-10.55" font-family="Helvetica,sans-Serif" font-size="10.50" fill="white">to_logical</text>
</a>
</g>
<!-- proc~json_value_create_logical&#45;&gt;proc~to_logical -->
<g id="edge6" class="edge"><title>proc~json_value_create_logical&#45;&gt;proc~to_logical</title>
<path fill="none" stroke="black" d="M136.443,-25.2224C152.191,-22.9727 168.422,-20.654 182.457,-18.649"/>
<polygon fill="black" stroke="black" points="183.314,-22.0622 192.718,-17.1831 182.324,-15.1326 183.314,-22.0622"/>
</g>
<!-- proc~destroy_json_data -->
<g id="node4" class="node"><title>proc~destroy_json_data</title>
<a xlink:href="../proc/destroy_json_data.html" xlink:title="destroy_json_data">
<polygon fill="#d9534f" stroke="#d9534f" points="408,-26 308,-26 308,-1.24345e-14 408,-3.55271e-15 408,-26"/>
<text text-anchor="middle" x="358" y="-10.55" font-family="Helvetica,sans-Serif" font-size="10.50" fill="white">destroy_json_data</text>
</a>
</g>
<!-- proc~to_logical&#45;&gt;proc~destroy_json_data -->
<g id="edge2" class="edge"><title>proc~to_logical&#45;&gt;proc~destroy_json_data</title>
<path fill="none" stroke="black" d="M251.175,-13C264.878,-13 281.744,-13 297.992,-13"/>
<polygon fill="black" stroke="black" points="297.995,-16.5001 307.995,-13 297.995,-9.5001 297.995,-16.5001"/>
</g>
</g>
</svg>
