<?xml version="1.0" encoding="UTF-8" standalone="no"?>
<!DOCTYPE svg PUBLIC "-//W3C//DTD SVG 1.1//EN"
 "http://www.w3.org/Graphics/SVG/1.1/DTD/svg11.dtd">
<!-- Generated by graphviz version 2.26.3 (20100126.1600)
 -->
<!-- Title: proc~~json_file_get_integer_vec~~CalledByGraph Pages: 1 -->
<svg width="342pt" height="34pt"
 viewBox="0.00 0.00 342.00 34.00" xmlns="http://www.w3.org/2000/svg" xmlns:xlink="http://www.w3.org/1999/xlink">
<g id="graph1" class="graph" transform="scale(1 1) rotate(0) translate(4 30)">
<title>proc~~json_file_get_integer_vec~~CalledByGraph</title>
<polygon fill="white" stroke="white" points="-4,5 -4,-30 339,-30 339,5 -4,5"/>
<!-- proc~json_file_get_integer_vec -->
<g id="node1" class="node"><title>proc~json_file_get_integer_vec</title>
<polygon fill="none" stroke="black" points="334,-26 200,-26 200,-1.24345e-14 334,-3.55271e-15 334,-26"/>
<text text-anchor="middle" x="267" y="-10.55" font-family="Helvetica,sans-Serif" font-size="10.50">json_file_get_integer_vec</text>
</g>
<!-- proc~wrap_json_file_get_integer_vec -->
<g id="node2" class="node"><title>proc~wrap_json_file_get_integer_vec</title>
<a xlink:href="../proc/wrap_json_file_get_integer_vec.html" xlink:title="wrap_json_file_get_integer_vec">
<polygon fill="#d9534f" stroke="#d9534f" points="163,-26 1,-26 1,-1.24345e-14 163,-3.55271e-15 163,-26"/>
<text text-anchor="middle" x="82" y="-10.55" font-family="Helvetica,sans-Serif" font-size="10.50" fill="white">wrap_json_file_get_integer_vec</text>
</a>
</g>
<!-- proc~wrap_json_file_get_integer_vec&#45;&gt;proc~json_file_get_integer_vec -->
<g id="edge2" class="edge"><title>proc~wrap_json_file_get_integer_vec&#45;&gt;proc~json_file_get_integer_vec</title>
<path fill="none" stroke="black" d="M163.682,-13C172.379,-13 181.204,-13 189.846,-13"/>
<polygon fill="black" stroke="black" points="189.888,-16.5001 199.888,-13 189.888,-9.5001 189.888,-16.5001"/>
</g>
</g>
</svg>
