<?xml version="1.0" encoding="UTF-8" standalone="no"?>
<!DOCTYPE svg PUBLIC "-//W3C//DTD SVG 1.1//EN"
 "http://www.w3.org/Graphics/SVG/1.1/DTD/svg11.dtd">
<!-- Generated by graphviz version 2.26.3 (20100126.1600)
 -->
<!-- Title: proc~~wrap_json_file_get_object~~CallsGraph Pages: 1 -->
<svg width="641pt" height="108pt"
 viewBox="0.00 0.00 641.00 107.51" xmlns="http://www.w3.org/2000/svg" xmlns:xlink="http://www.w3.org/1999/xlink">
<g id="graph1" class="graph" transform="scale(0.407243 0.407243) rotate(0) translate(4 260)">
<title>proc~~wrap_json_file_get_object~~CallsGraph</title>
<polygon fill="white" stroke="white" points="-4,5 -4,-260 1571,-260 1571,5 -4,5"/>
<!-- proc~wrap_json_file_get_object -->
<g id="node1" class="node"><title>proc~wrap_json_file_get_object</title>
<polygon fill="none" stroke="black" points="136,-218 7.10543e-14,-218 0,-192 136,-192 136,-218"/>
<text text-anchor="middle" x="68" y="-202.55" font-family="Helvetica,sans-Serif" font-size="10.50">wrap_json_file_get_object</text>
</g>
<!-- interface~to_unicode -->
<g id="node2" class="node"><title>interface~to_unicode</title>
<a xlink:href="../interface/to_unicode.html" xlink:title="to_unicode">
<polygon fill="#a7506f" stroke="#a7506f" points="1440,-231 1376,-231 1376,-205 1440,-205 1440,-231"/>
<text text-anchor="middle" x="1408" y="-215.55" font-family="Helvetica,sans-Serif" font-size="10.50" fill="white">to_unicode</text>
</a>
</g>
<!-- proc~wrap_json_file_get_object&#45;&gt;interface~to_unicode -->
<g id="edge42" class="edge"><title>proc~wrap_json_file_get_object&#45;&gt;interface~to_unicode</title>
<path fill="none" stroke="black" d="M114.387,-218.001C172.476,-233.111 275.276,-256 365,-256 365,-256 365,-256 1086,-256 1186.57,-256 1303.6,-237.491 1365.13,-226.308"/>
<polygon fill="black" stroke="black" points="1366.04,-229.7 1375.24,-224.446 1364.77,-222.816 1366.04,-229.7"/>
</g>
<!-- proc~json_file_get_object -->
<g id="node3" class="node"><title>proc~json_file_get_object</title>
<a xlink:href="../proc/json_file_get_object.html" xlink:title="json_file_get_object">
<polygon fill="#d9534f" stroke="#d9534f" points="279,-168 173,-168 173,-142 279,-142 279,-168"/>
<text text-anchor="middle" x="226" y="-152.55" font-family="Helvetica,sans-Serif" font-size="10.50" fill="white">json_file_get_object</text>
</a>
</g>
<!-- proc~wrap_json_file_get_object&#45;&gt;proc~json_file_get_object -->
<g id="edge44" class="edge"><title>proc~wrap_json_file_get_object&#45;&gt;proc~json_file_get_object</title>
<path fill="none" stroke="black" d="M109.1,-191.994C129.319,-185.595 153.88,-177.823 175.259,-171.057"/>
<polygon fill="black" stroke="black" points="176.353,-174.382 184.831,-168.028 174.241,-167.708 176.353,-174.382"/>
</g>
<!-- proc~to_uni_vec -->
<g id="node4" class="node"><title>proc~to_uni_vec</title>
<a xlink:href="../proc/to_uni_vec.html" xlink:title="to_uni_vec">
<polygon fill="#d94e8f" stroke="#d94e8f" points="1566,-253 1502,-253 1502,-227 1566,-227 1566,-253"/>
<text text-anchor="middle" x="1534" y="-237.55" font-family="Helvetica,sans-Serif" font-size="10.50" fill="white">to_uni_vec</text>
</a>
</g>
<!-- interface~to_unicode&#45;&gt;proc~to_uni_vec -->
<g id="edge2" class="edge"><title>interface~to_unicode&#45;&gt;proc~to_uni_vec</title>
<path fill="none" stroke="black" stroke-dasharray="5,2" d="M1440.78,-223.723C1456.36,-226.443 1475.17,-229.727 1491.8,-232.631"/>
<polygon fill="black" stroke="black" points="1491.37,-236.11 1501.82,-234.382 1492.58,-229.214 1491.37,-236.11"/>
</g>
<!-- proc~to_uni -->
<g id="node5" class="node"><title>proc~to_uni</title>
<a xlink:href="../proc/to_uni.html" xlink:title="to_uni">
<polygon fill="#d94e8f" stroke="#d94e8f" points="1561,-209 1507,-209 1507,-183 1561,-183 1561,-209"/>
<text text-anchor="middle" x="1534" y="-193.55" font-family="Helvetica,sans-Serif" font-size="10.50" fill="white">to_uni</text>
</a>
</g>
<!-- interface~to_unicode&#45;&gt;proc~to_uni -->
<g id="edge4" class="edge"><title>interface~to_unicode&#45;&gt;proc~to_uni</title>
<path fill="none" stroke="black" stroke-dasharray="5,2" d="M1440.78,-212.277C1457.97,-209.276 1479.09,-205.588 1496.88,-202.482"/>
<polygon fill="black" stroke="black" points="1497.66,-205.897 1506.91,-200.729 1496.46,-199.002 1497.66,-205.897"/>
</g>
<!-- proc~json_get_by_path -->
<g id="node8" class="node"><title>proc~json_get_by_path</title>
<a xlink:href="../proc/json_get_by_path.html" xlink:title="json_get_by_path">
<polygon fill="#d9534f" stroke="#d9534f" points="413,-108 317,-108 317,-82 413,-82 413,-108"/>
<text text-anchor="middle" x="365" y="-92.55" font-family="Helvetica,sans-Serif" font-size="10.50" fill="white">json_get_by_path</text>
</a>
</g>
<!-- proc~json_file_get_object&#45;&gt;proc~json_get_by_path -->
<g id="edge40" class="edge"><title>proc~json_file_get_object&#45;&gt;proc~json_get_by_path</title>
<path fill="none" stroke="black" d="M256.161,-141.981C276.331,-133.274 303.093,-121.722 325.032,-112.252"/>
<polygon fill="black" stroke="black" points="326.624,-115.377 334.418,-108.201 323.85,-108.951 326.624,-115.377"/>
</g>
<!-- interface~throw_exception -->
<g id="node9" class="node"><title>interface~throw_exception</title>
<a xlink:href="../interface/throw_exception.html" xlink:title="throw_exception">
<polygon fill="#a7506f" stroke="#a7506f" points="1131,-146 1041,-146 1041,-120 1131,-120 1131,-146"/>
<text text-anchor="middle" x="1086" y="-130.55" font-family="Helvetica,sans-Serif" font-size="10.50" fill="white">throw_exception</text>
</a>
</g>
<!-- proc~json_get_by_path&#45;&gt;interface~throw_exception -->
<g id="edge32" class="edge"><title>proc~json_get_by_path&#45;&gt;interface~throw_exception</title>
<path fill="none" stroke="black" d="M413.887,-89.1758C462.129,-83.7415 538.025,-76.0301 604,-73 781.791,-64.8344 832.868,-43.1127 1004,-92 1022.25,-97.2136 1041.29,-106.466 1056.43,-114.864"/>
<polygon fill="black" stroke="black" points="1054.88,-118.014 1065.3,-119.939 1058.36,-111.937 1054.88,-118.014"/>
</g>
<!-- interface~json_get_child -->
<g id="node10" class="node"><title>interface~json_get_child</title>
<a xlink:href="../interface/json_get_child.html" xlink:title="json_get_child">
<polygon fill="#a7506f" stroke="#a7506f" points="549,-168 469,-168 469,-142 549,-142 549,-168"/>
<text text-anchor="middle" x="509" y="-152.55" font-family="Helvetica,sans-Serif" font-size="10.50" fill="white">json_get_child</text>
</a>
</g>
<!-- proc~json_get_by_path&#45;&gt;interface~json_get_child -->
<g id="edge34" class="edge"><title>proc~json_get_by_path&#45;&gt;interface~json_get_child</title>
<path fill="none" stroke="black" d="M396.246,-108.019C417.236,-116.765 445.115,-128.381 467.9,-137.875"/>
<polygon fill="black" stroke="black" points="466.741,-141.184 477.318,-141.799 469.433,-134.722 466.741,-141.184"/>
</g>
<!-- proc~json_clear_exceptions -->
<g id="node11" class="node"><title>proc~json_clear_exceptions</title>
<a xlink:href="../proc/json_clear_exceptions.html" xlink:title="json_clear_exceptions">
<polygon fill="#d9534f" stroke="#d9534f" points="568,-26 450,-26 450,-1.24345e-14 568,-3.55271e-15 568,-26"/>
<text text-anchor="middle" x="509" y="-10.55" font-family="Helvetica,sans-Serif" font-size="10.50" fill="white">json_clear_exceptions</text>
</a>
</g>
<!-- proc~json_get_by_path&#45;&gt;proc~json_clear_exceptions -->
<g id="edge36" class="edge"><title>proc~json_get_by_path&#45;&gt;proc~json_clear_exceptions</title>
<path fill="none" stroke="black" d="M383.426,-81.9639C400.329,-70.2774 426.268,-53.0186 450,-40 456.038,-36.6875 462.558,-33.4172 468.984,-30.3579"/>
<polygon fill="black" stroke="black" points="470.671,-33.4334 478.266,-26.0462 467.722,-27.085 470.671,-33.4334"/>
</g>
<!-- proc~string_to_integer -->
<g id="node12" class="node"><title>proc~string_to_integer</title>
<a xlink:href="../proc/string_to_integer.html" xlink:title="string_to_integer">
<polygon fill="#d94e8f" stroke="#d94e8f" points="748,-108 656,-108 656,-82 748,-82 748,-108"/>
<text text-anchor="middle" x="702" y="-92.55" font-family="Helvetica,sans-Serif" font-size="10.50" fill="white">string_to_integer</text>
</a>
</g>
<!-- proc~json_get_by_path&#45;&gt;proc~string_to_integer -->
<g id="edge38" class="edge"><title>proc~json_get_by_path&#45;&gt;proc~string_to_integer</title>
<path fill="none" stroke="black" d="M413.643,-95C474.979,-95 580.245,-95 645.205,-95"/>
<polygon fill="black" stroke="black" points="645.271,-98.5001 655.271,-95 645.271,-91.5001 645.271,-98.5001"/>
</g>
<!-- proc~json_throw_exception -->
<g id="node13" class="node"><title>proc~json_throw_exception</title>
<a xlink:href="../proc/json_throw_exception.html" xlink:title="json_throw_exception">
<polygon fill="#d9534f" stroke="#d9534f" points="1466,-167 1350,-167 1350,-141 1466,-141 1466,-167"/>
<text text-anchor="middle" x="1408" y="-151.55" font-family="Helvetica,sans-Serif" font-size="10.50" fill="white">json_throw_exception</text>
</a>
</g>
<!-- interface~throw_exception&#45;&gt;proc~json_throw_exception -->
<g id="edge10" class="edge"><title>interface~throw_exception&#45;&gt;proc~json_throw_exception</title>
<path fill="none" stroke="black" stroke-dasharray="5,2" d="M1131.79,-135.986C1186.07,-139.526 1277.03,-145.458 1339.65,-149.542"/>
<polygon fill="black" stroke="black" points="1339.62,-153.048 1349.83,-150.206 1340.08,-146.063 1339.62,-153.048"/>
</g>
<!-- proc~wrap_json_throw_exception -->
<g id="node14" class="node"><title>proc~wrap_json_throw_exception</title>
<a xlink:href="../proc/wrap_json_throw_exception.html" xlink:title="wrap_json_throw_exception">
<polygon fill="#d9534f" stroke="#d9534f" points="1313,-187 1169,-187 1169,-161 1313,-161 1313,-187"/>
<text text-anchor="middle" x="1241" y="-171.55" font-family="Helvetica,sans-Serif" font-size="10.50" fill="white">wrap_json_throw_exception</text>
</a>
</g>
<!-- interface~throw_exception&#45;&gt;proc~wrap_json_throw_exception -->
<g id="edge12" class="edge"><title>interface~throw_exception&#45;&gt;proc~wrap_json_throw_exception</title>
<path fill="none" stroke="black" stroke-dasharray="5,2" d="M1131.67,-145.08C1147.27,-149.207 1164.96,-153.886 1181.49,-158.258"/>
<polygon fill="black" stroke="black" points="1181.04,-161.76 1191.6,-160.934 1182.83,-154.993 1181.04,-161.76"/>
</g>
<!-- proc~json_value_get_by_index -->
<g id="node19" class="node"><title>proc~json_value_get_by_index</title>
<a xlink:href="../proc/json_value_get_by_index.html" xlink:title="json_value_get_by_index">
<polygon fill="#d9534f" stroke="#d9534f" points="986,-146 854,-146 854,-120 986,-120 986,-146"/>
<text text-anchor="middle" x="920" y="-130.55" font-family="Helvetica,sans-Serif" font-size="10.50" fill="white">json_value_get_by_index</text>
</a>
</g>
<!-- interface~json_get_child&#45;&gt;proc~json_value_get_by_index -->
<g id="edge24" class="edge"><title>interface~json_get_child&#45;&gt;proc~json_value_get_by_index</title>
<path fill="none" stroke="black" stroke-dasharray="5,2" d="M549.533,-152.83C617.715,-149.181 756.413,-141.756 843.41,-137.1"/>
<polygon fill="black" stroke="black" points="843.694,-140.59 853.493,-136.56 843.32,-133.6 843.694,-140.59"/>
</g>
<!-- proc~json_value_get_by_name_chars -->
<g id="node20" class="node"><title>proc~json_value_get_by_name_chars</title>
<a xlink:href="../proc/json_value_get_by_name_chars.html" xlink:title="json_value_get_by_name_chars">
<polygon fill="#d9534f" stroke="#d9534f" points="1003,-190 837,-190 837,-164 1003,-164 1003,-190"/>
<text text-anchor="middle" x="920" y="-174.55" font-family="Helvetica,sans-Serif" font-size="10.50" fill="white">json_value_get_by_name_chars</text>
</a>
</g>
<!-- interface~json_get_child&#45;&gt;proc~json_value_get_by_name_chars -->
<g id="edge26" class="edge"><title>interface~json_get_child&#45;&gt;proc~json_value_get_by_name_chars</title>
<path fill="none" stroke="black" stroke-dasharray="5,2" d="M549.533,-157.17C613.332,-160.585 738.872,-167.305 826.023,-171.97"/>
<polygon fill="black" stroke="black" points="826.016,-175.474 836.189,-172.514 826.39,-168.484 826.016,-175.474"/>
</g>
<!-- proc~wrap_json_value_get_by_name_chars -->
<g id="node21" class="node"><title>proc~wrap_json_value_get_by_name_chars</title>
<a xlink:href="../proc/wrap_json_value_get_by_name_chars.html" xlink:title="wrap_json_value_get_by_name_chars">
<polygon fill="#d9534f" stroke="#d9534f" points="800,-228 604,-228 604,-202 800,-202 800,-228"/>
<text text-anchor="middle" x="702" y="-212.55" font-family="Helvetica,sans-Serif" font-size="10.50" fill="white">wrap_json_value_get_by_name_chars</text>
</a>
</g>
<!-- interface~json_get_child&#45;&gt;proc~wrap_json_value_get_by_name_chars -->
<g id="edge28" class="edge"><title>interface~json_get_child&#45;&gt;proc~wrap_json_value_get_by_name_chars</title>
<path fill="none" stroke="black" stroke-dasharray="5,2" d="M544.905,-168.095C562.606,-174.391 584.327,-181.88 604,-188 616.299,-191.826 629.552,-195.665 642.214,-199.199"/>
<polygon fill="black" stroke="black" points="641.641,-202.672 652.212,-201.961 643.506,-195.925 641.641,-202.672"/>
</g>
<!-- proc~string_to_integer&#45;&gt;interface~throw_exception -->
<g id="edge30" class="edge"><title>proc~string_to_integer&#45;&gt;interface~throw_exception</title>
<path fill="none" stroke="black" d="M748.621,-94.4615C808.22,-94.46 914.422,-96.7713 1004,-111 1013.94,-112.578 1024.4,-114.878 1034.41,-117.404"/>
<polygon fill="black" stroke="black" points="1033.67,-120.827 1044.23,-119.986 1035.45,-114.057 1033.67,-120.827"/>
</g>
<!-- proc~wrap_json_throw_exception&#45;&gt;interface~to_unicode -->
<g id="edge8" class="edge"><title>proc~wrap_json_throw_exception&#45;&gt;interface~to_unicode</title>
<path fill="none" stroke="black" d="M1290.65,-187.082C1314.52,-193.371 1342.83,-200.831 1365.67,-206.847"/>
<polygon fill="black" stroke="black" points="1364.85,-210.251 1375.41,-209.414 1366.63,-203.482 1364.85,-210.251"/>
</g>
<!-- proc~wrap_json_throw_exception&#45;&gt;proc~json_throw_exception -->
<g id="edge6" class="edge"><title>proc~wrap_json_throw_exception&#45;&gt;proc~json_throw_exception</title>
<path fill="none" stroke="black" d="M1313.76,-165.286C1322.42,-164.249 1331.23,-163.194 1339.82,-162.166"/>
<polygon fill="black" stroke="black" points="1340.26,-165.638 1349.77,-160.973 1339.43,-158.687 1340.26,-165.638"/>
</g>
<!-- proc~json_value_get_by_index&#45;&gt;interface~throw_exception -->
<g id="edge14" class="edge"><title>proc~json_value_get_by_index&#45;&gt;interface~throw_exception</title>
<path fill="none" stroke="black" d="M986.562,-133C1000.94,-133 1016,-133 1029.93,-133"/>
<polygon fill="black" stroke="black" points="1030.32,-136.5 1040.32,-133 1030.32,-129.5 1030.32,-136.5"/>
</g>
<!-- proc~json_value_get_by_name_chars&#45;&gt;interface~throw_exception -->
<g id="edge16" class="edge"><title>proc~json_value_get_by_name_chars&#45;&gt;interface~throw_exception</title>
<path fill="none" stroke="black" d="M970.205,-163.903C981.336,-160.985 993.071,-157.897 1004,-155 1012.59,-152.722 1021.69,-150.297 1030.57,-147.92"/>
<polygon fill="black" stroke="black" points="1031.72,-151.236 1040.47,-145.267 1029.91,-144.474 1031.72,-151.236"/>
</g>
<!-- proc~json_count -->
<g id="node23" class="node"><title>proc~json_count</title>
<a xlink:href="../proc/json_count.html" xlink:title="json_count">
<polygon fill="#d94e8f" stroke="#d94e8f" points="1118,-190 1054,-190 1054,-164 1118,-164 1118,-190"/>
<text text-anchor="middle" x="1086" y="-174.55" font-family="Helvetica,sans-Serif" font-size="10.50" fill="white">json_count</text>
</a>
</g>
<!-- proc~json_value_get_by_name_chars&#45;&gt;proc~json_count -->
<g id="edge18" class="edge"><title>proc~json_value_get_by_name_chars&#45;&gt;proc~json_count</title>
<path fill="none" stroke="black" d="M1003.97,-177C1017.66,-177 1031.3,-177 1043.43,-177"/>
<polygon fill="black" stroke="black" points="1043.66,-180.5 1053.65,-177 1043.65,-173.5 1043.66,-180.5"/>
</g>
<!-- proc~wrap_json_value_get_by_name_chars&#45;&gt;interface~to_unicode -->
<g id="edge20" class="edge"><title>proc~wrap_json_value_get_by_name_chars&#45;&gt;interface~to_unicode</title>
<path fill="none" stroke="black" d="M800.166,-215.417C956.161,-216.08 1254.32,-217.347 1365.13,-217.818"/>
<polygon fill="black" stroke="black" points="1365.25,-221.318 1375.26,-217.861 1365.28,-214.318 1365.25,-221.318"/>
</g>
<!-- proc~wrap_json_value_get_by_name_chars&#45;&gt;proc~json_value_get_by_name_chars -->
<g id="edge22" class="edge"><title>proc~wrap_json_value_get_by_name_chars&#45;&gt;proc~json_value_get_by_name_chars</title>
<path fill="none" stroke="black" d="M776.718,-201.976C795.611,-198.682 816.033,-195.123 835.376,-191.751"/>
<polygon fill="black" stroke="black" points="836.129,-195.173 845.379,-190.007 834.927,-188.277 836.129,-195.173"/>
</g>
</g>
</svg>
