<?xml version="1.0" encoding="UTF-8" standalone="no"?>
<!DOCTYPE svg PUBLIC "-//W3C//DTD SVG 1.1//EN"
 "http://www.w3.org/Graphics/SVG/1.1/DTD/svg11.dtd">
<!-- Generated by graphviz version 2.26.3 (20100126.1600)
 -->
<!-- Title: proc~~json_file_print_to_string~~CallsGraph Pages: 1 -->
<svg width="641pt" height="140pt"
 viewBox="0.00 0.00 641.00 139.52" xmlns="http://www.w3.org/2000/svg" xmlns:xlink="http://www.w3.org/1999/xlink">
<g id="graph1" class="graph" transform="scale(0.658111 0.658111) rotate(0) translate(4 208)">
<title>proc~~json_file_print_to_string~~CallsGraph</title>
<polygon fill="white" stroke="white" points="-4,5 -4,-208 971,-208 971,5 -4,5"/>
<!-- proc~json_file_print_to_string -->
<g id="node1" class="node"><title>proc~json_file_print_to_string</title>
<polygon fill="none" stroke="black" points="126,-116 4.9738e-14,-116 0,-90 126,-90 126,-116"/>
<text text-anchor="middle" x="63" y="-100.55" font-family="Helvetica,sans-Serif" font-size="10.50">json_file_print_to_string</text>
</g>
<!-- proc~json_value_to_string -->
<g id="node2" class="node"><title>proc~json_value_to_string</title>
<a xlink:href="../proc/json_value_to_string.html" xlink:title="json_value_to_string">
<polygon fill="#d9534f" stroke="#d9534f" points="273,-116 163,-116 163,-90 273,-90 273,-116"/>
<text text-anchor="middle" x="218" y="-100.55" font-family="Helvetica,sans-Serif" font-size="10.50" fill="white">json_value_to_string</text>
</a>
</g>
<!-- proc~json_file_print_to_string&#45;&gt;proc~json_value_to_string -->
<g id="edge30" class="edge"><title>proc~json_file_print_to_string&#45;&gt;proc~json_value_to_string</title>
<path fill="none" stroke="black" d="M126.044,-103C134.719,-103 143.644,-103 152.364,-103"/>
<polygon fill="black" stroke="black" points="152.479,-106.5 162.479,-103 152.479,-99.5001 152.479,-106.5"/>
</g>
<!-- proc~json_value_print -->
<g id="node3" class="node"><title>proc~json_value_print</title>
<a xlink:href="../proc/json_value_print.html" xlink:title="json_value_print">
<polygon fill="#d9534f" stroke="#d9534f" points="401,-116 311,-116 311,-90 401,-90 401,-116"/>
<text text-anchor="middle" x="356" y="-100.55" font-family="Helvetica,sans-Serif" font-size="10.50" fill="white">json_value_print</text>
</a>
</g>
<!-- proc~json_value_to_string&#45;&gt;proc~json_value_print -->
<g id="edge28" class="edge"><title>proc~json_value_to_string&#45;&gt;proc~json_value_print</title>
<path fill="none" stroke="black" d="M273.732,-103C282.442,-103 291.445,-103 300.158,-103"/>
<polygon fill="black" stroke="black" points="300.217,-106.5 310.217,-103 300.217,-99.5001 300.217,-106.5"/>
</g>
<!-- proc~json_value_print&#45;&gt;proc~json_value_print -->
<g id="edge26" class="edge"><title>proc~json_value_print&#45;&gt;proc~json_value_print</title>
<path fill="none" stroke="black" d="M334.344,-116.06C327.781,-125.1 335,-134 356,-134 368.797,-134 376.476,-130.695 379.038,-126.067"/>
<polygon fill="black" stroke="black" points="382.491,-125.487 377.656,-116.06 375.557,-126.445 382.491,-125.487"/>
</g>
<!-- none~write_it -->
<g id="node4" class="node"><title>none~write_it</title>
<polygon fill="#d9534f" stroke="#d9534f" points="512,-204 458,-204 458,-178 512,-178 512,-204"/>
<text text-anchor="middle" x="485" y="-188.55" font-family="Helvetica,sans-Serif" font-size="10.50" fill="white">write_it</text>
</g>
<!-- proc~json_value_print&#45;&gt;none~write_it -->
<g id="edge16" class="edge"><title>proc~json_value_print&#45;&gt;none~write_it</title>
<path fill="none" stroke="black" d="M370.02,-116.04C385.747,-130.236 412.417,-153.041 438,-169 441.344,-171.086 444.918,-173.102 448.546,-175.01"/>
<polygon fill="black" stroke="black" points="447.061,-178.181 457.572,-179.512 450.185,-171.917 447.061,-178.181"/>
</g>
<!-- proc~real_to_string -->
<g id="node5" class="node"><title>proc~real_to_string</title>
<a xlink:href="../proc/real_to_string.html" xlink:title="real_to_string">
<polygon fill="#d9534f" stroke="#d9534f" points="524,-160 446,-160 446,-134 524,-134 524,-160"/>
<text text-anchor="middle" x="485" y="-144.55" font-family="Helvetica,sans-Serif" font-size="10.50" fill="white">real_to_string</text>
</a>
</g>
<!-- proc~json_value_print&#45;&gt;proc~real_to_string -->
<g id="edge18" class="edge"><title>proc~json_value_print&#45;&gt;proc~real_to_string</title>
<path fill="none" stroke="black" d="M394.355,-116.082C407.751,-120.652 422.959,-125.839 437.039,-130.641"/>
<polygon fill="black" stroke="black" points="435.976,-133.976 446.57,-133.892 438.235,-127.351 435.976,-133.976"/>
</g>
<!-- proc~json_count -->
<g id="node6" class="node"><title>proc~json_count</title>
<a xlink:href="../proc/json_count.html" xlink:title="json_count">
<polygon fill="#d94e8f" stroke="#d94e8f" points="517,-116 453,-116 453,-90 517,-90 517,-116"/>
<text text-anchor="middle" x="485" y="-100.55" font-family="Helvetica,sans-Serif" font-size="10.50" fill="white">json_count</text>
</a>
</g>
<!-- proc~json_value_print&#45;&gt;proc~json_count -->
<g id="edge20" class="edge"><title>proc~json_value_print&#45;&gt;proc~json_count</title>
<path fill="none" stroke="black" d="M401.844,-103C415.101,-103 429.509,-103 442.549,-103"/>
<polygon fill="black" stroke="black" points="442.666,-106.5 452.666,-103 442.666,-99.5001 442.666,-106.5"/>
</g>
<!-- interface~throw_exception -->
<g id="node7" class="node"><title>interface~throw_exception</title>
<a xlink:href="../interface/throw_exception.html" xlink:title="throw_exception">
<polygon fill="#a7506f" stroke="#a7506f" points="530,-72 440,-72 440,-46 530,-46 530,-72"/>
<text text-anchor="middle" x="485" y="-56.55" font-family="Helvetica,sans-Serif" font-size="10.50" fill="white">throw_exception</text>
</a>
</g>
<!-- proc~json_value_print&#45;&gt;interface~throw_exception -->
<g id="edge22" class="edge"><title>proc~json_value_print&#45;&gt;interface~throw_exception</title>
<path fill="none" stroke="black" d="M394.355,-89.9177C407.751,-85.3484 422.959,-80.1614 437.039,-75.3589"/>
<polygon fill="black" stroke="black" points="438.235,-78.6488 446.57,-72.1079 435.976,-72.0236 438.235,-78.6488"/>
</g>
<!-- proc~integer_to_string -->
<g id="node8" class="node"><title>proc~integer_to_string</title>
<a xlink:href="../proc/integer_to_string.html" xlink:title="integer_to_string">
<polygon fill="#d9534f" stroke="#d9534f" points="531,-28 439,-28 439,-2 531,-2 531,-28"/>
<text text-anchor="middle" x="485" y="-12.55" font-family="Helvetica,sans-Serif" font-size="10.50" fill="white">integer_to_string</text>
</a>
</g>
<!-- proc~json_value_print&#45;&gt;proc~integer_to_string -->
<g id="edge24" class="edge"><title>proc~json_value_print&#45;&gt;proc~integer_to_string</title>
<path fill="none" stroke="black" d="M370.02,-89.9598C385.747,-75.7639 412.417,-52.9594 438,-37 440.286,-35.5739 442.679,-34.1808 445.124,-32.8324"/>
<polygon fill="black" stroke="black" points="446.84,-35.8848 454.098,-28.1663 443.611,-29.6741 446.84,-35.8848"/>
</g>
<!-- proc~compact_real_string -->
<g id="node9" class="node"><title>proc~compact_real_string</title>
<a xlink:href="../proc/compact_real_string.html" xlink:title="compact_real_string">
<polygon fill="#d9534f" stroke="#d9534f" points="695,-160 587,-160 587,-134 695,-134 695,-160"/>
<text text-anchor="middle" x="641" y="-144.55" font-family="Helvetica,sans-Serif" font-size="10.50" fill="white">compact_real_string</text>
</a>
</g>
<!-- proc~real_to_string&#45;&gt;proc~compact_real_string -->
<g id="edge2" class="edge"><title>proc~real_to_string&#45;&gt;proc~compact_real_string</title>
<path fill="none" stroke="black" d="M524.365,-147C540.06,-147 558.545,-147 576.117,-147"/>
<polygon fill="black" stroke="black" points="576.329,-150.5 586.329,-147 576.329,-143.5 576.329,-150.5"/>
</g>
<!-- proc~json_throw_exception -->
<g id="node11" class="node"><title>proc~json_throw_exception</title>
<a xlink:href="../proc/json_throw_exception.html" xlink:title="json_throw_exception">
<polygon fill="#d9534f" stroke="#d9534f" points="866,-92 750,-92 750,-66 866,-66 866,-92"/>
<text text-anchor="middle" x="808" y="-76.55" font-family="Helvetica,sans-Serif" font-size="10.50" fill="white">json_throw_exception</text>
</a>
</g>
<!-- interface~throw_exception&#45;&gt;proc~json_throw_exception -->
<g id="edge12" class="edge"><title>interface~throw_exception&#45;&gt;proc~json_throw_exception</title>
<path fill="none" stroke="black" stroke-dasharray="5,2" d="M530.593,-61.8231C585.035,-65.1941 676.618,-70.8649 739.566,-74.7626"/>
<polygon fill="black" stroke="black" points="739.604,-78.2716 749.802,-75.3964 740.037,-71.285 739.604,-78.2716"/>
</g>
<!-- proc~wrap_json_throw_exception -->
<g id="node12" class="node"><title>proc~wrap_json_throw_exception</title>
<a xlink:href="../proc/wrap_json_throw_exception.html" xlink:title="wrap_json_throw_exception">
<polygon fill="#d9534f" stroke="#d9534f" points="713,-51 569,-51 569,-25 713,-25 713,-51"/>
<text text-anchor="middle" x="641" y="-35.55" font-family="Helvetica,sans-Serif" font-size="10.50" fill="white">wrap_json_throw_exception</text>
</a>
</g>
<!-- interface~throw_exception&#45;&gt;proc~wrap_json_throw_exception -->
<g id="edge14" class="edge"><title>interface~throw_exception&#45;&gt;proc~wrap_json_throw_exception</title>
<path fill="none" stroke="black" stroke-dasharray="5,2" d="M530.541,-52.8695C539.352,-51.6834 548.835,-50.4069 558.41,-49.1178"/>
<polygon fill="black" stroke="black" points="558.955,-52.5762 568.398,-47.7733 558.021,-45.6388 558.955,-52.5762"/>
</g>
<!-- proc~wrap_json_throw_exception&#45;&gt;proc~json_throw_exception -->
<g id="edge8" class="edge"><title>proc~wrap_json_throw_exception&#45;&gt;proc~json_throw_exception</title>
<path fill="none" stroke="black" d="M694.299,-51.0854C710.346,-55.0251 728.113,-59.3871 744.741,-63.4693"/>
<polygon fill="black" stroke="black" points="744.375,-66.9833 754.921,-65.9686 746.044,-60.1852 744.375,-66.9833"/>
</g>
<!-- interface~to_unicode -->
<g id="node13" class="node"><title>interface~to_unicode</title>
<a xlink:href="../interface/to_unicode.html" xlink:title="to_unicode">
<polygon fill="#a7506f" stroke="#a7506f" points="840,-48 776,-48 776,-22 840,-22 840,-48"/>
<text text-anchor="middle" x="808" y="-32.55" font-family="Helvetica,sans-Serif" font-size="10.50" fill="white">to_unicode</text>
</a>
</g>
<!-- proc~wrap_json_throw_exception&#45;&gt;interface~to_unicode -->
<g id="edge10" class="edge"><title>proc~wrap_json_throw_exception&#45;&gt;interface~to_unicode</title>
<path fill="none" stroke="black" d="M713.763,-36.6929C731.188,-36.3799 749.248,-36.0554 764.839,-35.7754"/>
<polygon fill="black" stroke="black" points="765.264,-39.2684 775.199,-35.5892 765.138,-32.2695 765.264,-39.2684"/>
</g>
<!-- proc~to_uni_vec -->
<g id="node14" class="node"><title>proc~to_uni_vec</title>
<a xlink:href="../proc/to_uni_vec.html" xlink:title="to_uni_vec">
<polygon fill="#d94e8f" stroke="#d94e8f" points="966,-70 902,-70 902,-44 966,-44 966,-70"/>
<text text-anchor="middle" x="934" y="-54.55" font-family="Helvetica,sans-Serif" font-size="10.50" fill="white">to_uni_vec</text>
</a>
</g>
<!-- interface~to_unicode&#45;&gt;proc~to_uni_vec -->
<g id="edge4" class="edge"><title>interface~to_unicode&#45;&gt;proc~to_uni_vec</title>
<path fill="none" stroke="black" stroke-dasharray="5,2" d="M840.776,-40.7228C856.355,-43.443 875.166,-46.7274 891.798,-49.6314"/>
<polygon fill="black" stroke="black" points="891.371,-53.1097 901.824,-51.382 892.575,-46.214 891.371,-53.1097"/>
</g>
<!-- proc~to_uni -->
<g id="node15" class="node"><title>proc~to_uni</title>
<a xlink:href="../proc/to_uni.html" xlink:title="to_uni">
<polygon fill="#d94e8f" stroke="#d94e8f" points="961,-26 907,-26 907,-1.24345e-14 961,-3.55271e-15 961,-26"/>
<text text-anchor="middle" x="934" y="-10.55" font-family="Helvetica,sans-Serif" font-size="10.50" fill="white">to_uni</text>
</a>
</g>
<!-- interface~to_unicode&#45;&gt;proc~to_uni -->
<g id="edge6" class="edge"><title>interface~to_unicode&#45;&gt;proc~to_uni</title>
<path fill="none" stroke="black" stroke-dasharray="5,2" d="M840.776,-29.2772C857.965,-26.276 879.088,-22.5878 896.878,-19.4816"/>
<polygon fill="black" stroke="black" points="897.664,-22.8974 906.913,-17.7295 896.46,-16.0017 897.664,-22.8974"/>
</g>
</g>
</svg>
