<?xml version="1.0" encoding="UTF-8" standalone="no"?>
<!DOCTYPE svg PUBLIC "-//W3C//DTD SVG 1.1//EN"
 "http://www.w3.org/Graphics/SVG/1.1/DTD/svg11.dtd">
<!-- Generated by graphviz version 2.26.3 (20100126.1600)
 -->
<!-- Title: program~~example1~~UsesGraph Pages: 1 -->
<svg width="302pt" height="34pt"
 viewBox="0.00 0.00 302.00 34.00" xmlns="http://www.w3.org/2000/svg" xmlns:xlink="http://www.w3.org/1999/xlink">
<g id="graph1" class="graph" transform="scale(1 1) rotate(0) translate(4 30)">
<title>program~~example1~~UsesGraph</title>
<polygon fill="white" stroke="white" points="-4,5 -4,-30 299,-30 299,5 -4,5"/>
<!-- program~example1 -->
<g id="node1" class="node"><title>program~example1</title>
<polygon fill="none" stroke="black" points="293,-26 235,-26 235,-1.24345e-14 293,-3.55271e-15 293,-26"/>
<text text-anchor="middle" x="264" y="-10.55" font-family="Helvetica,sans-Serif" font-size="10.50">example1</text>
</g>
<!-- module~json_module -->
<g id="node2" class="node"><title>module~json_module</title>
<a xlink:href="../module/json_module.html" xlink:title="json_module">
<polygon fill="#337ab7" stroke="#337ab7" points="197,-26 125,-26 125,-1.24345e-14 197,-3.55271e-15 197,-26"/>
<text text-anchor="middle" x="161" y="-10.55" font-family="Helvetica,sans-Serif" font-size="10.50" fill="white">json_module</text>
</a>
</g>
<!-- module~json_module&#45;&gt;program~example1 -->
<g id="edge4" class="edge"><title>module~json_module&#45;&gt;program~example1</title>
<path fill="none" stroke="black" stroke-dasharray="5,2" d="M197.604,-13C206.248,-13 215.506,-13 224.281,-13"/>
<polygon fill="black" stroke="black" points="224.295,-16.5001 234.295,-13 224.294,-9.5001 224.295,-16.5001"/>
</g>
<!-- iso_fortran_env -->
<g id="node3" class="node"><title>iso_fortran_env</title>
<a xlink:href="https://gcc.gnu.org/onlinedocs/gfortran/ISO_005fFORTRAN_005fENV.html" xlink:title="iso_fortran_env">
<polygon fill="#337ab7" stroke="#337ab7" points="87,-26 1,-26 1,-1.24345e-14 87,-3.55271e-15 87,-26"/>
<text text-anchor="middle" x="44" y="-10.55" font-family="Helvetica,sans-Serif" font-size="10.50" fill="white">iso_fortran_env</text>
</a>
</g>
<!-- iso_fortran_env&#45;&gt;module~json_module -->
<g id="edge2" class="edge"><title>iso_fortran_env&#45;&gt;module~json_module</title>
<path fill="none" stroke="black" stroke-dasharray="5,2" d="M87.5665,-13C96.2522,-13 105.409,-13 114.198,-13"/>
<polygon fill="black" stroke="black" points="114.297,-16.5001 124.296,-13 114.296,-9.5001 114.297,-16.5001"/>
</g>
</g>
</svg>
