<?xml version="1.0" encoding="UTF-8" standalone="no"?>
<!DOCTYPE svg PUBLIC "-//W3C//DTD SVG 1.1//EN"
 "http://www.w3.org/Graphics/SVG/1.1/DTD/svg11.dtd">
<!-- Generated by graphviz version 2.26.3 (20100126.1600)
 -->
<!-- Title: program~~example2~~CallsGraph Pages: 1 -->
<svg width="208pt" height="254pt"
 viewBox="0.00 0.00 208.00 254.00" xmlns="http://www.w3.org/2000/svg" xmlns:xlink="http://www.w3.org/1999/xlink">
<g id="graph1" class="graph" transform="scale(1 1) rotate(0) translate(4 250)">
<title>program~~example2~~CallsGraph</title>
<polygon fill="white" stroke="white" points="-4,5 -4,-250 205,-250 205,5 -4,5"/>
<!-- program~example2 -->
<g id="node1" class="node"><title>program~example2</title>
<polygon fill="none" stroke="black" points="59,-136 1,-136 1,-110 59,-110 59,-136"/>
<text text-anchor="middle" x="30" y="-120.55" font-family="Helvetica,sans-Serif" font-size="10.50">example2</text>
</g>
<!-- json_failed -->
<g id="node2" class="node"><title>json_failed</title>
<polygon fill="#777777" stroke="#777777" points="180,-246 116,-246 116,-220 180,-220 180,-246"/>
<text text-anchor="middle" x="148" y="-230.55" font-family="Helvetica,sans-Serif" font-size="10.50" fill="white">json_failed</text>
</g>
<!-- program~example2&#45;&gt;json_failed -->
<g id="edge2" class="edge"><title>program~example2&#45;&gt;json_failed</title>
<path fill="none" stroke="black" d="M36.8378,-136.063C47.294,-154.92 68.9236,-189.822 96,-211 99.3008,-213.582 102.949,-215.915 106.737,-218.01"/>
<polygon fill="black" stroke="black" points="105.218,-221.163 115.731,-222.473 108.329,-214.893 105.218,-221.163"/>
</g>
<!-- json_create_object -->
<g id="node3" class="node"><title>json_create_object</title>
<polygon fill="#777777" stroke="#777777" points="199,-202 97,-202 97,-176 199,-176 199,-202"/>
<text text-anchor="middle" x="148" y="-186.55" font-family="Helvetica,sans-Serif" font-size="10.50" fill="white">json_create_object</text>
</g>
<!-- program~example2&#45;&gt;json_create_object -->
<g id="edge4" class="edge"><title>program~example2&#45;&gt;json_create_object</title>
<path fill="none" stroke="black" d="M47.6409,-136.085C60.6196,-145.379 78.9052,-157.791 96,-167 99.0259,-168.63 102.198,-170.226 105.421,-171.767"/>
<polygon fill="black" stroke="black" points="104.003,-174.968 114.552,-175.947 106.916,-168.603 104.003,-174.968"/>
</g>
<!-- json_initialize -->
<g id="node4" class="node"><title>json_initialize</title>
<polygon fill="#777777" stroke="#777777" points="186,-158 110,-158 110,-132 186,-132 186,-158"/>
<text text-anchor="middle" x="148" y="-142.55" font-family="Helvetica,sans-Serif" font-size="10.50" fill="white">json_initialize</text>
</g>
<!-- program~example2&#45;&gt;json_initialize -->
<g id="edge6" class="edge"><title>program~example2&#45;&gt;json_initialize</title>
<path fill="none" stroke="black" d="M59.7764,-128.552C71.8546,-130.803 86.1187,-133.463 99.6163,-135.979"/>
<polygon fill="black" stroke="black" points="99.2676,-139.475 109.74,-137.867 100.551,-132.593 99.2676,-139.475"/>
</g>
<!-- json_destroy -->
<g id="node5" class="node"><title>json_destroy</title>
<polygon fill="#777777" stroke="#777777" points="184,-114 112,-114 112,-88 184,-88 184,-114"/>
<text text-anchor="middle" x="148" y="-98.55" font-family="Helvetica,sans-Serif" font-size="10.50" fill="white">json_destroy</text>
</g>
<!-- program~example2&#45;&gt;json_destroy -->
<g id="edge8" class="edge"><title>program~example2&#45;&gt;json_destroy</title>
<path fill="none" stroke="black" d="M59.7764,-117.448C72.4125,-115.093 87.4412,-112.291 101.482,-109.673"/>
<polygon fill="black" stroke="black" points="102.293,-113.082 111.482,-107.808 101.01,-106.201 102.293,-113.082"/>
</g>
<!-- json_print -->
<g id="node6" class="node"><title>json_print</title>
<polygon fill="#777777" stroke="#777777" points="177,-70 119,-70 119,-44 177,-44 177,-70"/>
<text text-anchor="middle" x="148" y="-54.55" font-family="Helvetica,sans-Serif" font-size="10.50" fill="white">json_print</text>
</g>
<!-- program~example2&#45;&gt;json_print -->
<g id="edge10" class="edge"><title>program~example2&#45;&gt;json_print</title>
<path fill="none" stroke="black" d="M47.6409,-109.915C60.6196,-100.621 78.9052,-88.2089 96,-79 100.202,-76.7366 104.686,-74.5383 109.194,-72.4623"/>
<polygon fill="black" stroke="black" points="110.667,-75.638 118.395,-68.3911 107.834,-69.2365 110.667,-75.638"/>
</g>
<!-- json_add -->
<g id="node7" class="node"><title>json_add</title>
<polygon fill="#777777" stroke="#777777" points="176,-26 120,-26 120,-1.24345e-14 176,-3.55271e-15 176,-26"/>
<text text-anchor="middle" x="148" y="-10.55" font-family="Helvetica,sans-Serif" font-size="10.50" fill="white">json_add</text>
</g>
<!-- program~example2&#45;&gt;json_add -->
<g id="edge12" class="edge"><title>program~example2&#45;&gt;json_add</title>
<path fill="none" stroke="black" d="M36.8378,-109.937C47.294,-91.0803 68.9236,-56.1781 96,-35 100.391,-31.5652 105.398,-28.5707 110.53,-25.9904"/>
<polygon fill="black" stroke="black" points="112.136,-29.1055 119.797,-21.7876 109.244,-22.7305 112.136,-29.1055"/>
</g>
</g>
</svg>
