<?xml version="1.0" encoding="UTF-8" standalone="no"?>
<!DOCTYPE svg PUBLIC "-//W3C//DTD SVG 1.1//EN"
 "http://www.w3.org/Graphics/SVG/1.1/DTD/svg11.dtd">
<!-- Generated by graphviz version 2.26.3 (20100126.1600)
 -->
<!-- Title: program~~example2~~UsesGraph Pages: 1 -->
<svg width="302pt" height="54pt"
 viewBox="0.00 0.00 302.00 54.00" xmlns="http://www.w3.org/2000/svg" xmlns:xlink="http://www.w3.org/1999/xlink">
<g id="graph1" class="graph" transform="scale(1 1) rotate(0) translate(4 50)">
<title>program~~example2~~UsesGraph</title>
<polygon fill="white" stroke="white" points="-4,5 -4,-50 299,-50 299,5 -4,5"/>
<!-- program~example2 -->
<g id="node1" class="node"><title>program~example2</title>
<polygon fill="none" stroke="black" points="293,-46 235,-46 235,-20 293,-20 293,-46"/>
<text text-anchor="middle" x="264" y="-30.55" font-family="Helvetica,sans-Serif" font-size="10.50">example2</text>
</g>
<!-- iso_fortran_env -->
<g id="node2" class="node"><title>iso_fortran_env</title>
<a xlink:href="https://gcc.gnu.org/onlinedocs/gfortran/ISO_005fFORTRAN_005fENV.html" xlink:title="iso_fortran_env">
<polygon fill="#337ab7" stroke="#337ab7" points="87,-46 1,-46 1,-20 87,-20 87,-46"/>
<text text-anchor="middle" x="44" y="-30.55" font-family="Helvetica,sans-Serif" font-size="10.50" fill="white">iso_fortran_env</text>
</a>
</g>
<!-- iso_fortran_env&#45;&gt;program~example2 -->
<g id="edge4" class="edge"><title>iso_fortran_env&#45;&gt;program~example2</title>
<path fill="none" stroke="black" stroke-dasharray="5,2" d="M87.592,-34.2874C99.4052,-34.5824 112.192,-34.8524 124,-35 156.886,-35.411 165.115,-35.4981 198,-35 206.475,-34.8716 215.56,-34.6506 224.196,-34.4011"/>
<polygon fill="black" stroke="black" points="224.547,-37.892 234.435,-34.087 224.332,-30.8953 224.547,-37.892"/>
</g>
<!-- module~json_module -->
<g id="node3" class="node"><title>module~json_module</title>
<a xlink:href="../module/json_module.html" xlink:title="json_module">
<polygon fill="#337ab7" stroke="#337ab7" points="197,-26 125,-26 125,-1.24345e-14 197,-3.55271e-15 197,-26"/>
<text text-anchor="middle" x="161" y="-10.55" font-family="Helvetica,sans-Serif" font-size="10.50" fill="white">json_module</text>
</a>
</g>
<!-- iso_fortran_env&#45;&gt;module~json_module -->
<g id="edge2" class="edge"><title>iso_fortran_env&#45;&gt;module~json_module</title>
<path fill="none" stroke="black" stroke-dasharray="5,2" d="M87.5665,-25.5527C96.2522,-24.068 105.409,-22.5028 114.198,-21.0004"/>
<polygon fill="black" stroke="black" points="115.029,-24.4091 124.296,-19.2741 113.85,-17.5092 115.029,-24.4091"/>
</g>
<!-- module~json_module&#45;&gt;program~example2 -->
<g id="edge6" class="edge"><title>module~json_module&#45;&gt;program~example2</title>
<path fill="none" stroke="black" stroke-dasharray="5,2" d="M197.604,-20.1076C206.248,-21.7861 215.506,-23.5836 224.281,-25.2875"/>
<polygon fill="black" stroke="black" points="223.811,-28.7615 234.295,-27.2319 225.145,-21.8899 223.811,-28.7615"/>
</g>
</g>
</svg>
