<?xml version="1.0" encoding="UTF-8" standalone="no"?>
<!DOCTYPE svg PUBLIC "-//W3C//DTD SVG 1.1//EN"
 "http://www.w3.org/Graphics/SVG/1.1/DTD/svg11.dtd">
<!-- Generated by graphviz version 2.26.3 (20100126.1600)
 -->
<!-- Title: program~~example1~~CallsGraph Pages: 1 -->
<svg width="180pt" height="78pt"
 viewBox="0.00 0.00 180.00 78.00" xmlns="http://www.w3.org/2000/svg" xmlns:xlink="http://www.w3.org/1999/xlink">
<g id="graph1" class="graph" transform="scale(1 1) rotate(0) translate(4 74)">
<title>program~~example1~~CallsGraph</title>
<polygon fill="white" stroke="white" points="-4,5 -4,-74 177,-74 177,5 -4,5"/>
<!-- program~example1 -->
<g id="node1" class="node"><title>program~example1</title>
<polygon fill="none" stroke="black" points="59,-48 1,-48 1,-22 59,-22 59,-48"/>
<text text-anchor="middle" x="30" y="-32.55" font-family="Helvetica,sans-Serif" font-size="10.50">example1</text>
</g>
<!-- json_initialize -->
<g id="node2" class="node"><title>json_initialize</title>
<polygon fill="#777777" stroke="#777777" points="172,-70 96,-70 96,-44 172,-44 172,-70"/>
<text text-anchor="middle" x="134" y="-54.55" font-family="Helvetica,sans-Serif" font-size="10.50" fill="white">json_initialize</text>
</g>
<!-- program~example1&#45;&gt;json_initialize -->
<g id="edge2" class="edge"><title>program~example1&#45;&gt;json_initialize</title>
<path fill="none" stroke="black" d="M59.524,-41.2455C67.7269,-42.9807 76.8537,-44.9114 85.8276,-46.8097"/>
<polygon fill="black" stroke="black" points="85.3293,-50.2816 95.8371,-48.9271 86.778,-43.4332 85.3293,-50.2816"/>
</g>
<!-- json_failed -->
<g id="node3" class="node"><title>json_failed</title>
<polygon fill="#777777" stroke="#777777" points="166,-26 102,-26 102,-1.24345e-14 166,-3.55271e-15 166,-26"/>
<text text-anchor="middle" x="134" y="-10.55" font-family="Helvetica,sans-Serif" font-size="10.50" fill="white">json_failed</text>
</g>
<!-- program~example1&#45;&gt;json_failed -->
<g id="edge4" class="edge"><title>program~example1&#45;&gt;json_failed</title>
<path fill="none" stroke="black" d="M59.524,-28.7545C69.6392,-26.6148 81.1593,-24.1778 92.0653,-21.8708"/>
<polygon fill="black" stroke="black" points="92.7912,-25.2948 101.85,-19.8009 91.3425,-18.4463 92.7912,-25.2948"/>
</g>
</g>
</svg>
