<?xml version="1.0" encoding="UTF-8" standalone="no"?>
<!DOCTYPE svg PUBLIC "-//W3C//DTD SVG 1.1//EN"
 "http://www.w3.org/Graphics/SVG/1.1/DTD/svg11.dtd">
<!-- Generated by graphviz version 2.26.3 (20100126.1600)
 -->
<!-- Title: program~~example1~~UsesGraph Pages: 1 -->
<svg width="178pt" height="34pt"
 viewBox="0.00 0.00 178.00 34.00" xmlns="http://www.w3.org/2000/svg" xmlns:xlink="http://www.w3.org/1999/xlink">
<g id="graph1" class="graph" transform="scale(1 1) rotate(0) translate(4 30)">
<title>program~~example1~~UsesGraph</title>
<polygon fill="white" stroke="white" points="-4,5 -4,-30 175,-30 175,5 -4,5"/>
<!-- program~example1 -->
<g id="node1" class="node"><title>program~example1</title>
<polygon fill="none" stroke="black" points="169,-26 111,-26 111,-1.24345e-14 169,-3.55271e-15 169,-26"/>
<text text-anchor="middle" x="140" y="-10.55" font-family="Helvetica,sans-Serif" font-size="10.50">example1</text>
</g>
<!-- json_module -->
<g id="node2" class="node"><title>json_module</title>
<polygon fill="#337ab7" stroke="#337ab7" points="73,-26 1,-26 1,-1.24345e-14 73,-3.55271e-15 73,-26"/>
<text text-anchor="middle" x="37" y="-10.55" font-family="Helvetica,sans-Serif" font-size="10.50" fill="white">json_module</text>
</g>
<!-- json_module&#45;&gt;program~example1 -->
<g id="edge2" class="edge"><title>json_module&#45;&gt;program~example1</title>
<path fill="none" stroke="black" stroke-dasharray="5,2" d="M73.604,-13C82.2484,-13 91.5056,-13 100.281,-13"/>
<polygon fill="black" stroke="black" points="100.295,-16.5001 110.295,-13 100.294,-9.5001 100.295,-16.5001"/>
</g>
</g>
</svg>
