<?xml version="1.0" encoding="UTF-8" standalone="no"?>
<!DOCTYPE svg PUBLIC "-//W3C//DTD SVG 1.1//EN"
 "http://www.w3.org/Graphics/SVG/1.1/DTD/svg11.dtd">
<!-- Generated by graphviz version 2.26.3 (20100126.1600)
 -->
<!-- Title: program~~example1~~CallsGraph Pages: 1 -->
<svg width="641pt" height="100pt"
 viewBox="0.00 0.00 641.00 100.16" xmlns="http://www.w3.org/2000/svg" xmlns:xlink="http://www.w3.org/1999/xlink">
<g id="graph1" class="graph" transform="scale(0.834635 0.834635) rotate(0) translate(4 116)">
<title>program~~example1~~CallsGraph</title>
<polygon fill="white" stroke="white" points="-4,5 -4,-116 765,-116 765,5 -4,5"/>
<!-- program~example1 -->
<g id="node1" class="node"><title>program~example1</title>
<polygon fill="none" stroke="black" points="59,-48 1,-48 1,-22 59,-22 59,-48"/>
<text text-anchor="middle" x="30" y="-32.55" font-family="Helvetica,sans-Serif" font-size="10.50">example1</text>
</g>
<!-- proc~json_initialize -->
<g id="node2" class="node"><title>proc~json_initialize</title>
<a xlink:href="../proc/json_initialize.html" xlink:title="json_initialize">
<polygon fill="#d9534f" stroke="#d9534f" points="172,-70 96,-70 96,-44 172,-44 172,-70"/>
<text text-anchor="middle" x="134" y="-54.55" font-family="Helvetica,sans-Serif" font-size="10.50" fill="white">json_initialize</text>
</a>
</g>
<!-- program~example1&#45;&gt;proc~json_initialize -->
<g id="edge18" class="edge"><title>program~example1&#45;&gt;proc~json_initialize</title>
<path fill="none" stroke="black" d="M59.524,-41.2455C67.7269,-42.9807 76.8537,-44.9114 85.8276,-46.8097"/>
<polygon fill="black" stroke="black" points="85.3293,-50.2816 95.8371,-48.9271 86.778,-43.4332 85.3293,-50.2816"/>
</g>
<!-- proc~json_failed -->
<g id="node3" class="node"><title>proc~json_failed</title>
<a xlink:href="../proc/json_failed.html" xlink:title="json_failed">
<polygon fill="#d94e8f" stroke="#d94e8f" points="166,-26 102,-26 102,-1.24345e-14 166,-3.55271e-15 166,-26"/>
<text text-anchor="middle" x="134" y="-10.55" font-family="Helvetica,sans-Serif" font-size="10.50" fill="white">json_failed</text>
</a>
</g>
<!-- program~example1&#45;&gt;proc~json_failed -->
<g id="edge20" class="edge"><title>program~example1&#45;&gt;proc~json_failed</title>
<path fill="none" stroke="black" d="M59.524,-28.7545C69.6392,-26.6148 81.1593,-24.1778 92.0653,-21.8708"/>
<polygon fill="black" stroke="black" points="92.7912,-25.2948 101.85,-19.8009 91.3425,-18.4463 92.7912,-25.2948"/>
</g>
<!-- interface~throw_exception -->
<g id="node4" class="node"><title>interface~throw_exception</title>
<a xlink:href="../interface/throw_exception.html" xlink:title="throw_exception">
<polygon fill="#a7506f" stroke="#a7506f" points="312,-92 222,-92 222,-66 312,-66 312,-92"/>
<text text-anchor="middle" x="267" y="-76.55" font-family="Helvetica,sans-Serif" font-size="10.50" fill="white">throw_exception</text>
</a>
</g>
<!-- proc~json_initialize&#45;&gt;interface~throw_exception -->
<g id="edge14" class="edge"><title>proc~json_initialize&#45;&gt;interface~throw_exception</title>
<path fill="none" stroke="black" d="M172.112,-63.3043C184.346,-65.3279 198.158,-67.6126 211.38,-69.7996"/>
<polygon fill="black" stroke="black" points="210.902,-73.2682 221.339,-71.4471 212.045,-66.362 210.902,-73.2682"/>
</g>
<!-- proc~json_clear_exceptions -->
<g id="node5" class="node"><title>proc~json_clear_exceptions</title>
<a xlink:href="../proc/json_clear_exceptions.html" xlink:title="json_clear_exceptions">
<polygon fill="#d9534f" stroke="#d9534f" points="326,-48 208,-48 208,-22 326,-22 326,-48"/>
<text text-anchor="middle" x="267" y="-32.55" font-family="Helvetica,sans-Serif" font-size="10.50" fill="white">json_clear_exceptions</text>
</a>
</g>
<!-- proc~json_initialize&#45;&gt;proc~json_clear_exceptions -->
<g id="edge16" class="edge"><title>proc~json_initialize&#45;&gt;proc~json_clear_exceptions</title>
<path fill="none" stroke="black" d="M172.112,-50.6957C180.199,-49.358 188.976,-47.9063 197.815,-46.4441"/>
<polygon fill="black" stroke="black" points="198.494,-49.8794 207.789,-44.7943 197.352,-42.9733 198.494,-49.8794"/>
</g>
<!-- proc~json_throw_exception -->
<g id="node6" class="node"><title>proc~json_throw_exception</title>
<a xlink:href="../proc/json_throw_exception.html" xlink:title="json_throw_exception">
<polygon fill="#d9534f" stroke="#d9534f" points="660,-112 544,-112 544,-86 660,-86 660,-112"/>
<text text-anchor="middle" x="602" y="-96.55" font-family="Helvetica,sans-Serif" font-size="10.50" fill="white">json_throw_exception</text>
</a>
</g>
<!-- interface~throw_exception&#45;&gt;proc~json_throw_exception -->
<g id="edge10" class="edge"><title>interface~throw_exception&#45;&gt;proc~json_throw_exception</title>
<path fill="none" stroke="black" stroke-dasharray="5,2" d="M312.528,-81.7181C369.5,-85.1194 467.591,-90.9756 533.607,-94.9168"/>
<polygon fill="black" stroke="black" points="533.724,-98.43 543.915,-95.5323 534.142,-91.4424 533.724,-98.43"/>
</g>
<!-- proc~wrap_json_throw_exception -->
<g id="node7" class="node"><title>proc~wrap_json_throw_exception</title>
<a xlink:href="../proc/wrap_json_throw_exception.html" xlink:title="wrap_json_throw_exception">
<polygon fill="#d9534f" stroke="#d9534f" points="507,-71 363,-71 363,-45 507,-45 507,-71"/>
<text text-anchor="middle" x="435" y="-55.55" font-family="Helvetica,sans-Serif" font-size="10.50" fill="white">wrap_json_throw_exception</text>
</a>
</g>
<!-- interface~throw_exception&#45;&gt;proc~wrap_json_throw_exception -->
<g id="edge12" class="edge"><title>interface~throw_exception&#45;&gt;proc~wrap_json_throw_exception</title>
<path fill="none" stroke="black" stroke-dasharray="5,2" d="M312.907,-73.2617C325.061,-71.7423 338.566,-70.0543 352.035,-68.3706"/>
<polygon fill="black" stroke="black" points="352.816,-71.8003 362.305,-67.0869 351.948,-64.8543 352.816,-71.8003"/>
</g>
<!-- proc~wrap_json_throw_exception&#45;&gt;proc~json_throw_exception -->
<g id="edge6" class="edge"><title>proc~wrap_json_throw_exception&#45;&gt;proc~json_throw_exception</title>
<path fill="none" stroke="black" d="M488.299,-71.0854C504.346,-75.0251 522.113,-79.3871 538.741,-83.4693"/>
<polygon fill="black" stroke="black" points="538.375,-86.9833 548.921,-85.9686 540.044,-80.1852 538.375,-86.9833"/>
</g>
<!-- interface~to_unicode -->
<g id="node8" class="node"><title>interface~to_unicode</title>
<a xlink:href="../interface/to_unicode.html" xlink:title="to_unicode">
<polygon fill="#a7506f" stroke="#a7506f" points="634,-68 570,-68 570,-42 634,-42 634,-68"/>
<text text-anchor="middle" x="602" y="-52.55" font-family="Helvetica,sans-Serif" font-size="10.50" fill="white">to_unicode</text>
</a>
</g>
<!-- proc~wrap_json_throw_exception&#45;&gt;interface~to_unicode -->
<g id="edge8" class="edge"><title>proc~wrap_json_throw_exception&#45;&gt;interface~to_unicode</title>
<path fill="none" stroke="black" d="M507.763,-56.6929C525.188,-56.3799 543.248,-56.0554 558.839,-55.7754"/>
<polygon fill="black" stroke="black" points="559.264,-59.2684 569.199,-55.5892 559.138,-52.2695 559.264,-59.2684"/>
</g>
<!-- proc~to_uni_vec -->
<g id="node9" class="node"><title>proc~to_uni_vec</title>
<a xlink:href="../proc/to_uni_vec.html" xlink:title="to_uni_vec">
<polygon fill="#d94e8f" stroke="#d94e8f" points="760,-90 696,-90 696,-64 760,-64 760,-90"/>
<text text-anchor="middle" x="728" y="-74.55" font-family="Helvetica,sans-Serif" font-size="10.50" fill="white">to_uni_vec</text>
</a>
</g>
<!-- interface~to_unicode&#45;&gt;proc~to_uni_vec -->
<g id="edge2" class="edge"><title>interface~to_unicode&#45;&gt;proc~to_uni_vec</title>
<path fill="none" stroke="black" stroke-dasharray="5,2" d="M634.776,-60.7228C650.355,-63.443 669.166,-66.7274 685.798,-69.6314"/>
<polygon fill="black" stroke="black" points="685.371,-73.1097 695.824,-71.382 686.575,-66.214 685.371,-73.1097"/>
</g>
<!-- proc~to_uni -->
<g id="node10" class="node"><title>proc~to_uni</title>
<a xlink:href="../proc/to_uni.html" xlink:title="to_uni">
<polygon fill="#d94e8f" stroke="#d94e8f" points="755,-46 701,-46 701,-20 755,-20 755,-46"/>
<text text-anchor="middle" x="728" y="-30.55" font-family="Helvetica,sans-Serif" font-size="10.50" fill="white">to_uni</text>
</a>
</g>
<!-- interface~to_unicode&#45;&gt;proc~to_uni -->
<g id="edge4" class="edge"><title>interface~to_unicode&#45;&gt;proc~to_uni</title>
<path fill="none" stroke="black" stroke-dasharray="5,2" d="M634.776,-49.2772C651.965,-46.276 673.088,-42.5878 690.878,-39.4816"/>
<polygon fill="black" stroke="black" points="691.664,-42.8974 700.913,-37.7295 690.46,-36.0017 691.664,-42.8974"/>
</g>
</g>
</svg>
