<?xml version="1.0" encoding="UTF-8" standalone="no"?>
<!DOCTYPE svg PUBLIC "-//W3C//DTD SVG 1.1//EN"
 "http://www.w3.org/Graphics/SVG/1.1/DTD/svg11.dtd">
<!-- Generated by graphviz version 2.26.3 (20100126.1600)
 -->
<!-- Title: program~~example2~~UsesGraph Pages: 1 -->
<svg width="192pt" height="78pt"
 viewBox="0.00 0.00 192.00 78.00" xmlns="http://www.w3.org/2000/svg" xmlns:xlink="http://www.w3.org/1999/xlink">
<g id="graph1" class="graph" transform="scale(1 1) rotate(0) translate(4 74)">
<title>program~~example2~~UsesGraph</title>
<polygon fill="white" stroke="white" points="-4,5 -4,-74 189,-74 189,5 -4,5"/>
<!-- program~example2 -->
<g id="node1" class="node"><title>program~example2</title>
<polygon fill="none" stroke="black" points="183,-48 125,-48 125,-22 183,-22 183,-48"/>
<text text-anchor="middle" x="154" y="-32.55" font-family="Helvetica,sans-Serif" font-size="10.50">example2</text>
</g>
<!-- json_module -->
<g id="node2" class="node"><title>json_module</title>
<polygon fill="#337ab7" stroke="#337ab7" points="80,-70 8,-70 8,-44 80,-44 80,-70"/>
<text text-anchor="middle" x="44" y="-54.55" font-family="Helvetica,sans-Serif" font-size="10.50" fill="white">json_module</text>
</g>
<!-- json_module&#45;&gt;program~example2 -->
<g id="edge2" class="edge"><title>json_module&#45;&gt;program~example2</title>
<path fill="none" stroke="black" stroke-dasharray="5,2" d="M80.6284,-49.6743C91.5382,-47.4924 103.538,-45.0925 114.616,-42.8769"/>
<polygon fill="black" stroke="black" points="115.353,-46.2988 124.472,-40.9055 113.98,-39.4347 115.353,-46.2988"/>
</g>
<!-- iso_fortran_env -->
<g id="node3" class="node"><title>iso_fortran_env</title>
<a xlink:href="https://gcc.gnu.org/onlinedocs/gfortran/ISO_005fFORTRAN_005fENV.html" xlink:title="iso_fortran_env">
<polygon fill="#337ab7" stroke="#337ab7" points="87,-26 1,-26 1,-1.24345e-14 87,-3.55271e-15 87,-26"/>
<text text-anchor="middle" x="44" y="-10.55" font-family="Helvetica,sans-Serif" font-size="10.50" fill="white">iso_fortran_env</text>
</a>
</g>
<!-- iso_fortran_env&#45;&gt;program~example2 -->
<g id="edge4" class="edge"><title>iso_fortran_env&#45;&gt;program~example2</title>
<path fill="none" stroke="black" stroke-dasharray="5,2" d="M87.791,-21.7582C96.5757,-23.5151 105.759,-25.3518 114.392,-27.0784"/>
<polygon fill="black" stroke="black" points="113.724,-30.5141 124.217,-29.0433 115.097,-23.65 113.724,-30.5141"/>
</g>
</g>
</svg>
