<?xml version="1.0" encoding="UTF-8" standalone="no"?>
<!DOCTYPE svg PUBLIC "-//W3C//DTD SVG 1.1//EN"
 "http://www.w3.org/Graphics/SVG/1.1/DTD/svg11.dtd">
<!-- Generated by graphviz version 2.26.3 (20100126.1600)
 -->
<!-- Title: type~~json_value~~InheritedByGraph Pages: 1 -->
<svg width="212pt" height="65pt"
 viewBox="0.00 0.00 211.50 65.00" xmlns="http://www.w3.org/2000/svg" xmlns:xlink="http://www.w3.org/1999/xlink">
<g id="graph1" class="graph" transform="scale(1 1) rotate(0) translate(4 61)">
<title>type~~json_value~~InheritedByGraph</title>
<polygon fill="white" stroke="white" points="-4,5 -4,-61 208.5,-61 208.5,5 -4,5"/>
<!-- type~json_value -->
<g id="node1" class="node"><title>type~json_value</title>
<polygon fill="none" stroke="black" points="107.5,-26 43.5,-26 43.5,-1.24345e-14 107.5,-3.55271e-15 107.5,-26"/>
<text text-anchor="middle" x="75.5" y="-10.55" font-family="Helvetica,sans-Serif" font-size="10.50">json_value</text>
</g>
<!-- type~json_value&#45;&gt;type~json_value -->
<g id="edge2" class="edge"><title>type~json_value&#45;&gt;type~json_value</title>
<path fill="none" stroke="black" stroke-dasharray="5,2" d="M66.7021,-26.0602C64.0361,-35.0996 66.9688,-44 75.5,-44 80.6987,-44 83.8185,-40.6949 84.8592,-36.0674"/>
<polygon fill="black" stroke="black" points="88.3526,-35.8484 84.2979,-26.0602 81.3635,-36.2405 88.3526,-35.8484"/>
<text text-anchor="middle" x="75.5" y="-48.45" font-family="Helvetica,sans-Serif" font-size="9.50">previous, next, parent, children, tail</text>
</g>
<!-- type~json_file -->
<g id="node2" class="node"><title>type~json_file</title>
<a xlink:href="../type/json_file.html" xlink:title="json_file">
<polygon fill="#5cb85c" stroke="#5cb85c" points="203.5,-26 149.5,-26 149.5,-1.24345e-14 203.5,-3.55271e-15 203.5,-26"/>
<text text-anchor="middle" x="176.5" y="-10.55" font-family="Helvetica,sans-Serif" font-size="10.50" fill="white">json_file</text>
</a>
</g>
<!-- type~json_value&#45;&gt;type~json_file -->
<g id="edge4" class="edge"><title>type~json_value&#45;&gt;type~json_file</title>
<path fill="none" stroke="black" stroke-dasharray="5,2" d="M107.735,-13C117.78,-13 128.94,-13 139.296,-13"/>
<polygon fill="black" stroke="black" points="139.313,-16.5001 149.313,-13 139.313,-9.5001 139.313,-16.5001"/>
<text text-anchor="middle" x="128.5" y="-17.45" font-family="Helvetica,sans-Serif" font-size="9.50">p</text>
</g>
</g>
</svg>
